<?xml version="1.0" encoding="utf-8"?>
<!-- Generator: Adobe Illustrator 21.0.0, SVG Export Plug-In . SVG Version: 6.00 Build 0)  -->
<svg version="1.1" xmlns="http://www.w3.org/2000/svg" xmlns:xlink="http://www.w3.org/1999/xlink" x="0px" y="0px"
	 viewBox="0 0 176.8 172.4" style="enable-background:new 0 0 176.8 172.4;" xml:space="preserve">
<style type="text/css">
	.st0{display:none;}
	.st1{display:inline;fill:#FD9994;}
	.st2{display:inline;fill:#FFFFFF;}
	.st3{display:inline;fill:none;stroke:#FFFFFF;stroke-width:2.2363;stroke-miterlimit:10;}
	.st4{display:inline;}
	.st5{fill:none;stroke:#FFFFFF;stroke-width:2.2363;stroke-miterlimit:10;}
	.st6{fill:#FFB380;}
	.st7{fill:#D2C3DB;}
	.st8{fill:#F9ECDC;}
	.st9{fill:#FFF58B;}
	.st10{fill:#F6BC60;}
	.st11{fill:#ECF784;}
	.st12{fill:#FFDEFF;}
	.st13{fill:#AED5D2;}
	.st14{fill:#F4BD9F;}
	.st15{fill:#B9DCFF;}
	.st16{fill:#D7FFFB;}
	.st17{fill:#81D8F7;}
	.st18{fill:#E57777;}
	.st19{fill:#D9FFDB;}
	.st20{opacity:0.1;}
	.st21{fill:#5CCDFF;}
	.st22{fill:none;}
	.st23{opacity:0.2;fill:#FFFFFF;}
	.st24{opacity:0.1;fill:#002CBF;}
	.st25{fill:#1A1A1A;}
	.st26{fill:#333333;}
	.st27{fill:#FFFFDE;}
	.st28{clip-path:url(#SVGID_4_);}
	.st29{fill:none;stroke:#333333;stroke-width:0.4917;stroke-linecap:round;stroke-linejoin:round;stroke-miterlimit:10;}
	.st30{fill:#FFFFFF;}
	.st31{fill:none;stroke:#333333;stroke-width:0.8543;stroke-miterlimit:10;}
	.st32{clip-path:url(#SVGID_6_);}
	.st33{fill:#FFD7B9;}
	.st34{fill:#F0FFFF;}
	.st35{clip-path:url(#SVGID_8_);}
	.st36{fill:#FF5C5C;}
	.st37{fill:none;stroke:#333333;stroke-width:0.466;stroke-linecap:round;stroke-linejoin:round;stroke-miterlimit:10;}
	.st38{fill:none;stroke:#333333;stroke-width:0.8095;stroke-miterlimit:10;}
	.st39{clip-path:url(#SVGID_10_);}
	.st40{fill:none;stroke:#333333;stroke-width:0.7381;stroke-linecap:round;stroke-linejoin:round;stroke-miterlimit:10;}
	.st41{fill:none;stroke:#333333;stroke-width:0.8857;stroke-linecap:round;stroke-linejoin:round;stroke-miterlimit:10;}
	.st42{fill:none;stroke:#333333;stroke-width:2.6852;stroke-linecap:round;stroke-linejoin:round;stroke-miterlimit:10;}
	.st43{fill:#72B5C4;}
	.st44{fill:#5E96A5;}
	.st45{fill:none;stroke:#FFFFFF;stroke-width:2.6852;stroke-linecap:round;stroke-linejoin:round;stroke-miterlimit:10;}
	.st46{fill:none;stroke:#FFFFFF;stroke-width:1.2942;stroke-linecap:round;stroke-linejoin:round;stroke-miterlimit:10;}
	.st47{fill:none;stroke:#FFFFFF;stroke-width:0.8311;stroke-linecap:round;stroke-linejoin:round;stroke-miterlimit:10;}
	.st48{fill:#FF5C00;}
	.st49{fill:#00B4FF;}
	.st50{fill:#FF5592;}
	.st51{fill:#733FFF;}
	.st52{fill:#DDFF15;}
	.st53{fill:#BF5855;}
	.st54{fill:none;stroke:#333333;stroke-width:0.5718;stroke-miterlimit:10;}
	.st55{fill:#C8F982;}
	.st56{fill:#AEF9C0;}
	.st57{fill:none;stroke:#FFFFFF;stroke-width:1.8326;stroke-miterlimit:10;}
	.st58{fill:#9AF6F9;}
	.st59{fill:#FFACA2;}
	.st60{fill:#F9E582;}
	.st61{fill:#FFC08B;}
	.st62{fill:#EFEB6A;}
	.st63{fill:#EC987F;}
	.st64{fill:#B5FFCC;}
	.st65{fill:#FFEDA2;}
	.st66{fill:#CCE7CC;}
	.st67{fill:#ABE7AB;}
	.st68{fill:#A6A6A6;}
	.st69{clip-path:url(#SVGID_60_);}
	.st70{fill:none;stroke:#333333;stroke-width:0.4706;stroke-linecap:round;stroke-linejoin:round;stroke-miterlimit:10;}
	.st71{fill:#FFEC55;}
	.st72{fill:none;stroke:#333333;stroke-width:0.8177;stroke-miterlimit:10;}
	.st73{clip-path:url(#SVGID_62_);}
	.st74{clip-path:url(#SVGID_64_);}
	.st75{fill:#FF7A59;}
	.st76{clip-path:url(#SVGID_66_);}
	.st77{clip-path:url(#SVGID_68_);}
	.st78{fill:#B45FFF;}
	.st79{clip-path:url(#SVGID_70_);}
	.st80{opacity:0.2;fill:#002CBF;}
	.st81{fill:none;stroke:#333333;stroke-width:0.5506;stroke-linecap:round;stroke-linejoin:round;stroke-miterlimit:10;}
	.st82{clip-path:url(#SVGID_72_);}
	.st83{fill:#EAA871;}
	.st84{fill:#FFD836;}
	.st85{fill:#FF846B;}
	.st86{fill:none;stroke:#333333;stroke-width:0.804;stroke-linecap:round;stroke-linejoin:round;stroke-miterlimit:10;}
	.st87{fill:#FEFF4A;}
	.st88{fill:none;stroke:#333333;stroke-width:0.7645;stroke-linecap:round;stroke-linejoin:round;stroke-miterlimit:10;}
	.st89{fill:none;stroke:#333333;stroke-width:0.7645;stroke-miterlimit:10;}
	.st90{fill:none;stroke:#333333;stroke-width:2.9248;stroke-linecap:round;stroke-linejoin:round;stroke-miterlimit:10;}
	.st91{fill:none;stroke:#333333;stroke-width:0.945;stroke-linecap:round;stroke-linejoin:round;stroke-miterlimit:10;}
	.st92{fill:none;stroke:#333333;stroke-width:0.945;stroke-miterlimit:10;}
	.st93{fill:none;stroke:#333333;stroke-width:3.6155;stroke-linecap:round;stroke-linejoin:round;stroke-miterlimit:10;}
	.st94{fill:none;stroke:#333333;stroke-width:0.6228;stroke-miterlimit:10;}
	.st95{fill:none;stroke:#333333;stroke-width:0.7778;stroke-linecap:round;stroke-linejoin:round;stroke-miterlimit:10;}
	.st96{fill:#FF712A;}
	.st97{fill:none;stroke:#333333;stroke-width:0.7396;stroke-linecap:round;stroke-linejoin:round;stroke-miterlimit:10;}
	.st98{fill:none;stroke:#333333;stroke-width:0.7396;stroke-miterlimit:10;}
	.st99{fill:none;stroke:#333333;stroke-width:2.8295;stroke-linecap:round;stroke-linejoin:round;stroke-miterlimit:10;}
	.st100{fill:none;stroke:#333333;stroke-width:0.9142;stroke-linecap:round;stroke-linejoin:round;stroke-miterlimit:10;}
	.st101{fill:none;stroke:#333333;stroke-width:0.9142;stroke-miterlimit:10;}
	.st102{fill:none;stroke:#333333;stroke-width:3.4977;stroke-linecap:round;stroke-linejoin:round;stroke-miterlimit:10;}
	.st103{fill:none;stroke:#333333;stroke-width:0.6025;stroke-miterlimit:10;}
	.st104{fill:url(#SVGID_89_);}
	.st105{fill:url(#SVGID_90_);}
	.st106{fill:none;stroke:#333333;stroke-width:0.7438;stroke-linecap:round;stroke-linejoin:round;stroke-miterlimit:10;}
	.st107{fill:none;stroke:#333333;stroke-width:0.8926;stroke-linecap:round;stroke-linejoin:round;stroke-miterlimit:10;}
	.st108{clip-path:url(#SVGID_92_);fill:url(#SVGID_93_);}
	.st109{fill:url(#SVGID_94_);}
	.st110{fill:#52C5FF;}
	.st111{fill:none;stroke:#333333;stroke-width:0.6367;stroke-linecap:round;stroke-linejoin:round;stroke-miterlimit:10;}
	.st112{fill:none;stroke:#333333;stroke-width:2.7061;stroke-linecap:round;stroke-linejoin:round;stroke-miterlimit:10;}
	.st113{fill:none;stroke:#333333;stroke-width:0.5763;stroke-miterlimit:10;}
	.st114{fill:none;stroke:#FFFFFF;stroke-width:1.3042;stroke-linecap:round;stroke-linejoin:round;stroke-miterlimit:10;}
	.st115{fill:none;stroke:#FFFFFF;stroke-width:0.8375;stroke-linecap:round;stroke-linejoin:round;stroke-miterlimit:10;}
	.st116{clip-path:url(#SVGID_96_);}
	.st117{opacity:0.2;fill:#2E3192;}
	.st118{fill:#FEFF78;}
	.st119{opacity:0.1;fill:#2E3192;}
	.st120{fill:#FF5A50;}
	.st121{fill:none;stroke:#333333;stroke-width:0.567;stroke-linecap:round;stroke-linejoin:round;stroke-miterlimit:10;}
	.st122{fill:none;stroke:#333333;stroke-width:2.5786;stroke-linecap:round;stroke-linejoin:round;stroke-miterlimit:10;}
	.st123{fill:none;stroke:#333333;stroke-width:0.5491;stroke-miterlimit:10;}
	.st124{clip-path:url(#SVGID_98_);}
	.st125{fill:#2AD2FF;}
	.st126{fill:none;stroke:#333333;stroke-width:0.2435;stroke-miterlimit:10;}
	.st127{fill:#FFFFFF;stroke:#333333;stroke-width:0.487;stroke-linecap:round;stroke-linejoin:round;stroke-miterlimit:10;}
	.st128{clip-path:url(#SVGID_100_);}
	.st129{fill:url(#SVGID_101_);}
	.st130{opacity:0.4;fill:#FFFFFF;}
	.st131{fill:#FFDC48;}
	.st132{fill:none;stroke:#333333;stroke-width:0.5835;stroke-linecap:round;stroke-linejoin:round;stroke-miterlimit:10;}
	.st133{fill:none;stroke:#333333;stroke-width:2.6537;stroke-linecap:round;stroke-linejoin:round;stroke-miterlimit:10;}
	.st134{fill:#F0F462;}
	.st135{fill:url(#SVGID_102_);}
	.st136{fill:url(#SVGID_103_);}
	.st137{fill:#D1DADF;}
	.st138{fill:#57FFA3;}
	.st139{clip-path:url(#SVGID_105_);}
	.st140{clip-path:url(#SVGID_107_);}
	.st141{fill:#D0BBF9;}
	.st142{clip-path:url(#SVGID_109_);}
	.st143{fill:none;stroke:#333333;stroke-width:0.5867;stroke-linecap:round;stroke-linejoin:round;stroke-miterlimit:10;}
	.st144{clip-path:url(#SVGID_111_);}
	.st145{fill:none;stroke:#333333;stroke-width:0.5514;stroke-linecap:round;stroke-linejoin:round;stroke-miterlimit:10;}
	.st146{fill:#D1E9D3;}
	.st147{clip-path:url(#SVGID_113_);}
	.st148{fill:none;stroke:#333333;stroke-width:0.7684;stroke-linecap:round;stroke-linejoin:round;stroke-miterlimit:10;}
	.st149{fill:none;stroke:#333333;stroke-width:0.7684;stroke-miterlimit:10;}
	.st150{fill:none;stroke:#333333;stroke-width:2.9398;stroke-linecap:round;stroke-linejoin:round;stroke-miterlimit:10;}
	.st151{clip-path:url(#SVGID_115_);}
	.st152{fill:#FF66F8;}
	.st153{fill:none;stroke:#333333;stroke-width:0.7542;stroke-linecap:round;stroke-linejoin:round;stroke-miterlimit:10;}
	.st154{fill:none;stroke:#333333;stroke-width:0.9051;stroke-linecap:round;stroke-linejoin:round;stroke-miterlimit:10;}
	.st155{fill:none;stroke:#333333;stroke-width:0.5146;stroke-linecap:round;stroke-linejoin:round;stroke-miterlimit:10;}
	.st156{fill:none;stroke:#333333;stroke-width:0.6033;stroke-linecap:round;stroke-linejoin:round;stroke-miterlimit:10;}
	.st157{fill:none;stroke:#333333;stroke-width:2.7439;stroke-linecap:round;stroke-linejoin:round;stroke-miterlimit:10;}
	.st158{fill:#333333;stroke:#333333;stroke-width:1.0293;stroke-linecap:round;stroke-linejoin:round;stroke-miterlimit:10;}
	.st159{fill:#FF5F2A;}
	.st160{fill:none;stroke:#333333;stroke-width:0.5965;stroke-linecap:round;stroke-linejoin:round;stroke-miterlimit:10;}
	.st161{fill:#F9CC3E;}
	.st162{clip-path:url(#SVGID_121_);}
	.st163{fill:#70E1FF;}
	.st164{fill:none;stroke:#333333;stroke-width:0.5717;stroke-linecap:round;stroke-linejoin:round;stroke-miterlimit:10;}
	.st165{fill:none;stroke:#333333;stroke-width:2.6004;stroke-linecap:round;stroke-linejoin:round;stroke-miterlimit:10;}
	.st166{clip-path:url(#SVGID_123_);}
	.st167{fill:#8F61FF;}
	.st168{clip-path:url(#SVGID_125_);}
	.st169{clip-path:url(#SVGID_127_);}
	.st170{fill:#FFEBEB;}
	.st171{clip-path:url(#SVGID_129_);}
	.st172{clip-path:url(#SVGID_131_);}
	.st173{fill:#F47D62;}
	.st174{fill:none;stroke:#333333;stroke-width:0.7188;stroke-linecap:round;stroke-linejoin:round;stroke-miterlimit:10;}
	.st175{fill:none;stroke:#333333;stroke-width:0.7188;stroke-miterlimit:10;}
	.st176{fill:none;stroke:#333333;stroke-width:2.7502;stroke-linecap:round;stroke-linejoin:round;stroke-miterlimit:10;}
	.st177{fill:#85ACB5;}
	.st178{clip-path:url(#SVGID_133_);}
	.st179{fill:#D5F2F7;}
	.st180{fill:#FF694A;}
	.st181{fill:none;stroke:#333333;stroke-width:0.5693;stroke-linecap:round;stroke-linejoin:round;stroke-miterlimit:10;}
	.st182{fill:#FFDF15;}
	.st183{fill:none;stroke:#333333;stroke-width:0.6674;stroke-linecap:round;stroke-linejoin:round;stroke-miterlimit:10;}
	.st184{fill:none;stroke:#333333;stroke-width:3.0352;stroke-linecap:round;stroke-linejoin:round;stroke-miterlimit:10;}
	.st185{clip-path:url(#SVGID_135_);}
	.st186{clip-path:url(#SVGID_137_);}
	.st187{fill:none;stroke:#333333;stroke-width:0.5248;stroke-linecap:round;stroke-linejoin:round;stroke-miterlimit:10;}
	.st188{fill:#FFD33A;}
	.st189{fill:none;stroke:#333333;stroke-width:2.7983;stroke-linecap:round;stroke-linejoin:round;stroke-miterlimit:10;}
	.st190{fill:none;stroke:#333333;stroke-width:0.7692;stroke-linecap:round;stroke-linejoin:round;stroke-miterlimit:10;}
	.st191{fill:none;stroke:#333333;stroke-width:0.5959;stroke-miterlimit:10;}
	.st192{clip-path:url(#SVGID_143_);}
	.st193{fill:#FFE267;}
	.st194{clip-path:url(#SVGID_149_);}
	.st195{fill:#FFEEAA;}
	.st196{opacity:0.7;fill:url(#SVGID_152_);}
	.st197{fill:none;stroke:#333333;stroke-width:0.611;stroke-miterlimit:10;}
	.st198{clip-path:url(#SVGID_154_);}
	.st199{opacity:0.7;fill:url(#SVGID_157_);}
	.st200{fill:#EABBFC;}
	.st201{opacity:0.7;fill:url(#SVGID_160_);}
	.st202{opacity:0.7;fill:url(#SVGID_163_);}
	.st203{opacity:0.7;fill:url(#SVGID_166_);}
	.st204{opacity:0.7;fill:url(#SVGID_169_);}
	.st205{clip-path:url(#SVGID_171_);}
	.st206{fill:none;stroke:#333333;stroke-width:0.5899;stroke-linecap:round;stroke-linejoin:round;stroke-miterlimit:10;}
	.st207{fill:none;stroke:#333333;stroke-width:2.6828;stroke-linecap:round;stroke-linejoin:round;stroke-miterlimit:10;}
	.st208{fill:none;stroke:#333333;stroke-width:0.5713;stroke-miterlimit:10;}
	.st209{clip-path:url(#SVGID_173_);}
	.st210{clip-path:url(#SVGID_175_);}
	.st211{clip-path:url(#SVGID_177_);}
	.st212{fill:#FFAFC3;}
	.st213{fill:#A0D3FF;}
	.st214{fill:none;stroke:#333333;stroke-width:0.7262;stroke-linecap:round;stroke-linejoin:round;stroke-miterlimit:10;}
	.st215{fill:none;stroke:#333333;stroke-width:0.6906;stroke-miterlimit:10;}
	.st216{fill:none;stroke:#333333;stroke-width:0.8536;stroke-miterlimit:10;}
	.st217{fill:#333333;stroke:#333333;stroke-width:0.991;stroke-linecap:round;stroke-linejoin:round;stroke-miterlimit:10;}
	.st218{clip-path:url(#SVGID_179_);}
	.st219{clip-path:url(#SVGID_181_);}
	.st220{fill:#FD9994;}
	.st221{opacity:0.2;}
	.st222{fill:#2E3192;}
	.st223{display:inline;fill:#FF5B00;}
</style>
<g id="site">
</g>
<g id="kitties">
	<g class="st0">
		<g class="st4">
			<line class="st5" x1="-268.7" y1="35.7" x2="20.6" y2="485.9"/>
		</g>
	</g>
	<g>
		<g>
			<path class="st125" d="M141.8,105.1c0,0-10.2,2.1-12.5,5.4c-2.4,3.2-3.6,4.9-2.1,11.3s5.1,7.5,4.5,10.3c-0.6,2.8-5.2,3.8-7.5,3.3
				c-2.3-0.5-7.9-0.8-11.8-2.1l3.3,17c0,0,5,4,7.9,5l-1.8-2.6c0,0,4.3,3.7,9.2,4.4c0,0,0-2.2-0.7-3c0,0,6.8,2.9,10.3,0.6
				c0,0-2.4-1.2-3-1.3c0,0,6,0.3,9.7-6.8l-2.2,0.4c0,0,4.8-2.9,6.2-8.9c0,0-3.4,3.8-4.6,4.1c0,0,3.5-2.8,3.5-14.3l-1.6,3.6
				c0,0,1.6-8.4-1-10.3c0,0,0.2,3.9-0.1,4.6c0,0-1.8-8-3.1-7.5l0.2,4.2c0,0-0.9-3.8-4.5-7.8S141,105.8,141.8,105.1z"/>
			<path class="st24" d="M131.8,132.2c0,0,0.2,5.8-6.9,5.9c-7.1,0.1-15.2-4.6-15.2-4.6l4.2,0.2c0,0,8.3,2.5,14,1.4
				C133.6,134,131.8,132.2,131.8,132.2z"/>
			<g>
				<path class="st26" d="M141.9,105.5c-2.3,0.4-4.6,1.1-6.7,2c-2.2,0.9-4.3,2-5.9,3.6c-0.8,0.8-1.5,1.7-1.9,2.8
					c-0.4,1-0.5,2.2-0.5,3.3c0,2.3,0.7,4.6,1.7,6.7c0.5,1.1,1,2.1,1.6,3.1c0.6,1,1.2,2.1,1.7,3.2c0.2,0.6,0.4,1.2,0.3,1.9
					c-0.1,0.7-0.4,1.3-0.8,1.8c-0.9,1-2.1,1.4-3.3,1.6c-2.4,0.4-4.8,0.2-7.2-0.1c-2.4-0.4-4.7-0.9-7-1.5c-0.1,0-0.2-0.1-0.1-0.2
					c0-0.1,0.1-0.2,0.2-0.1c2.3,0.6,4.6,1.1,7,1.4c2.3,0.3,4.7,0.5,7,0c1.1-0.2,2.2-0.7,2.9-1.5c0.3-0.4,0.6-0.9,0.6-1.4
					c0.1-0.5-0.1-1-0.3-1.6c-0.9-2.1-2.4-4.1-3.4-6.3c-1-2.2-1.7-4.6-1.7-7c0-1.2,0.1-2.5,0.6-3.7c0.5-1.2,1.2-2.2,2.1-3
					c1.8-1.7,4-2.8,6.2-3.8c2.2-0.9,4.5-1.6,6.9-2c0.2,0,0.4,0.1,0.4,0.3C142.2,105.2,142.1,105.4,141.9,105.5L141.9,105.5z"/>
			</g>
			<g>
				<path class="st26" d="M142.1,105.4c-1.1,1.2-2,2.5-2.6,4c-0.3,0.7-0.4,1.5-0.4,2.3c0,0.8,0.3,1.4,0.8,2.1c0.7,1.4,1.9,2.6,2.8,4
					c1,1.4,1.6,3,2,4.6c0,0.1,0,0.2-0.1,0.2c-0.1,0-0.2,0-0.2-0.1c-0.5-1.6-1.1-3.1-2.1-4.4c-1-1.3-2.2-2.5-3.1-4
					c-0.4-0.7-0.8-1.6-0.8-2.5c0-0.9,0.1-1.8,0.4-2.6c0.6-1.6,1.6-3,2.8-4.3c0.1-0.1,0.4-0.1,0.5,0
					C142.2,105,142.2,105.2,142.1,105.4L142.1,105.4z"/>
			</g>
			<g>
				<path class="st26" d="M144.3,122.6c0-1.5-0.1-3.1-0.1-4.6c0-0.1,0.1-0.2,0.1-0.2c0.1,0,0.1,0.1,0.2,0.1c0.1,0.8,0.2,1.5,0.3,2.3
					c0,0.8,0,1.6,0,2.3c0,0.1-0.1,0.2-0.2,0.2C144.4,122.8,144.3,122.7,144.3,122.6z"/>
			</g>
			<g>
				<path class="st26" d="M144.5,117.8c0.6,0.7,1,1.4,1.4,2.2c0.4,0.8,0.7,1.6,1,2.4c0.2,0.8,0.4,1.7,0.5,2.5
					c0.1,0.8,0.1,1.7,0.1,2.5c0,0.1-0.1,0.1-0.1,0.1c-0.1,0-0.1-0.1-0.1-0.1c-0.1-0.8-0.1-1.7-0.3-2.5c-0.1-0.8-0.4-1.6-0.6-2.4
					c-0.2-0.8-0.5-1.6-0.8-2.3c-0.3-0.7-0.7-1.5-1.2-2.1l0,0c-0.1-0.1,0-0.2,0-0.3C144.4,117.7,144.5,117.7,144.5,117.8z"/>
			</g>
			<g>
				<path class="st26" d="M147.8,121.3c0.2,1,0.3,2,0.3,3.1c0,0.5-0.1,1-0.2,1.5c-0.1,0.5-0.2,1-0.4,1.5c0,0.1-0.1,0.2-0.2,0.1
					c-0.1,0-0.1-0.1-0.1-0.2l0,0c0.1-1,0.2-2,0.2-3c0-0.5,0-1,0-1.5c0-0.5,0-1,0-1.5l0,0c0-0.1,0.1-0.2,0.2-0.2
					C147.7,121.2,147.8,121.3,147.8,121.3z"/>
			</g>
			<g>
				<path class="st26" d="M147.7,121.3c0.8,0.7,1.2,1.6,1.4,2.5c0.2,0.9,0.3,1.9,0.3,2.8c0,1-0.2,1.9-0.3,2.8
					c-0.2,0.9-0.3,1.9-0.6,2.8c0,0.1-0.1,0.1-0.2,0.1c-0.1,0-0.1-0.1-0.1-0.1l0,0c0.2-0.9,0.4-1.8,0.5-2.7c0.1-0.9,0.2-1.9,0.2-2.8
					c0.1-0.9,0-1.8-0.2-2.7c-0.2-0.9-0.5-1.8-1.2-2.4l0,0c-0.1,0-0.1-0.1,0-0.2C147.6,121.2,147.6,121.2,147.7,121.3z"/>
			</g>
			<g>
				<path class="st26" d="M148.2,132.1c0.4-0.7,0.8-1.5,1.1-2.3c0.3-0.8,0.6-1.6,0.7-2.4c0-0.1,0.1-0.1,0.2-0.1
					c0.1,0,0.1,0.1,0.1,0.1c0.1,1.3,0.2,2.6,0.1,3.9c0,1.3-0.2,2.6-0.5,3.9c-0.5,2.6-1.5,5.1-3.2,7.2c0,0.1-0.1,0.1-0.2,0
					c-0.1,0-0.1-0.1,0-0.2c1.6-2.1,2.4-4.6,2.9-7.1c0.2-1.3,0.3-2.6,0.5-3.8c0.1-1.3,0.1-2.6,0.1-3.9l0.3,0
					c-0.1,0.9-0.4,1.7-0.7,2.5c-0.3,0.8-0.7,1.6-1.1,2.3c0,0.1-0.1,0.1-0.2,0C148.2,132.2,148.2,132.2,148.2,132.1z"/>
			</g>
			<g>
				<path class="st26" d="M146.7,142.2c1-0.6,1.8-1.4,2.6-2.2c0.8-0.8,1.4-1.8,1.9-2.8c0.1-0.1,0.2-0.2,0.4-0.1
					c0.1,0.1,0.2,0.2,0.1,0.3c-0.3,2.4-1.3,4.7-2.8,6.5c-1.5,1.9-3.5,3.3-5.7,4.2c-0.1,0-0.1,0-0.2-0.1c0-0.1,0-0.1,0.1-0.2
					c2.2-0.9,4.1-2.3,5.4-4.2c0.7-0.9,1.2-1.9,1.7-3c0.4-1.1,0.8-2.2,0.9-3.3l0.5,0.2c-0.6,1-1.3,2-2.1,2.8
					c-0.8,0.8-1.7,1.6-2.8,2.1c-0.1,0-0.1,0-0.2,0C146.6,142.3,146.6,142.2,146.7,142.2L146.7,142.2z"/>
			</g>
			<g>
				<path class="st26" d="M143.1,147.8l4-1.5c0.1,0,0.3,0,0.3,0.2c0,0.1,0,0.1,0,0.2l0,0l0,0c-0.5,1-1.2,1.9-1.9,2.7
					c-0.7,0.9-1.5,1.6-2.4,2.3c-0.9,0.7-1.9,1.2-3,1.5c-1.1,0.3-2.2,0.3-3.3,0.1c-0.1,0-0.1-0.1-0.1-0.1c0-0.1,0.1-0.1,0.1-0.1
					c1.1,0.2,2.1,0.1,3.2-0.2c1-0.3,1.9-0.9,2.8-1.5c0.8-0.7,1.6-1.4,2.3-2.3c0.7-0.8,1.3-1.7,1.8-2.6l0,0l0.3,0.4l-4.1,1.2
					c-0.1,0-0.1,0-0.1-0.1C143.1,147.9,143.1,147.9,143.1,147.8z"/>
			</g>
			<g>
				<path class="st26" d="M133.7,152.5c2.4,0.3,4.8,0.9,7.1,2l0,0l0,0c0.1,0.1,0.2,0.2,0.1,0.4c0,0,0,0.1-0.1,0.1
					c-0.8,0.6-1.7,0.8-2.7,0.9c-0.9,0.1-1.8,0-2.7-0.1c-0.9-0.1-1.8-0.4-2.6-0.6c-0.9-0.3-1.7-0.6-2.5-0.9c-0.1,0-0.1-0.1-0.1-0.2
					c0-0.1,0.1-0.1,0.2-0.1c0.8,0.3,1.7,0.6,2.5,0.8c0.9,0.2,1.7,0.4,2.6,0.5c0.9,0.1,1.8,0.1,2.6,0c0.8-0.1,1.7-0.3,2.3-0.8
					l0.1,0.5l0,0c-2.1-1.1-4.5-1.9-6.9-2.3l0,0c-0.1,0-0.1-0.1-0.1-0.1C133.5,152.5,133.6,152.5,133.7,152.5z"/>
			</g>
			<g>
				<path class="st26" d="M130.4,154c0.3,0.4,0.5,0.9,0.7,1.4c0.1,0.2,0.2,0.5,0.2,0.8c0,0.3,0.1,0.5,0,0.9l0,0
					c0,0.1-0.2,0.2-0.3,0.2c-1-0.1-1.9-0.3-2.8-0.6c-0.9-0.3-1.7-0.7-2.6-1.1c-0.8-0.4-1.6-0.9-2.4-1.5c-0.8-0.5-1.4-1.2-2.1-1.8
					c0,0,0-0.1,0-0.2c0,0,0.1,0,0.2,0l0,0c0.7,0.6,1.4,1.2,2.1,1.7c0.7,0.5,1.5,1,2.4,1.4c0.8,0.4,1.7,0.7,2.5,1
					c0.9,0.2,1.8,0.5,2.6,0.5l-0.3,0.2v0c0-0.1,0.1-0.4,0-0.6c0-0.2-0.1-0.5-0.1-0.7c-0.1-0.5-0.3-0.9-0.5-1.4c0-0.1,0-0.1,0.1-0.2
					C130.3,153.9,130.4,154,130.4,154z"/>
			</g>
			<g>
				<path class="st26" d="M116.6,150.6c1.1,0.9,2.3,1.7,3.5,2.5c0.6,0.4,1.2,0.7,1.8,1.1c0.6,0.3,1.2,0.7,1.9,0.9l-0.2,0.4l-1.2-1.6
					c-0.4-0.5-0.8-1-1.1-1.6c0-0.1,0-0.1,0-0.2c0.1,0,0.1,0,0.2,0l0,0c0.3,0.5,0.8,1,1.2,1.5l1.3,1.5c0.1,0.1,0.1,0.2,0,0.3
					c-0.1,0-0.1,0.1-0.2,0c-1.5-0.4-2.7-1.1-3.9-1.9c-1.2-0.8-2.3-1.7-3.5-2.6c-0.1-0.1-0.1-0.2,0-0.3
					C116.3,150.5,116.4,150.5,116.6,150.6L116.6,150.6z"/>
			</g>
		</g>
		<g>
			<g>
				<path class="st125" d="M103.1,42.4c0,0,6.5-10,13.8-12.4c7.3-2.4,9.6,1.1,11.2,3.7c1.6,2.7,2,4.5,1.3,4.4
					c-0.6-0.1-3.2-2.8-3.2-2.8s-1.8,0.9-1.8,5.7c0,4.5,2.4,11.8-4.4,14.3C119.9,55.2,115.9,46.9,103.1,42.4z"/>
				<g>
					<g>
						<path class="st26" d="M126.2,35.4c-0.6,0.6-1,1.5-1.2,2.4c-0.2,0.9-0.3,1.8-0.4,2.7c-0.1,1.8,0.1,3.7,0.2,5.6
							c0.1,0.9,0.2,1.9,0.1,2.9c-0.1,1-0.3,1.9-0.7,2.8c-0.8,1.8-2.4,3.3-4.3,3.6c-0.1,0-0.2,0-0.2-0.1c0-0.1,0-0.2,0.1-0.2
							c1.8-0.4,3.2-1.8,4-3.5c0.4-0.8,0.6-1.7,0.7-2.7c0.1-0.9-0.1-1.8-0.2-2.8c-0.2-1.9-0.4-3.8-0.4-5.7c-0.1-1,0.1-1.9,0.4-2.9
							c0.3-0.9,0.8-1.8,1.7-2.4c0.1,0,0.2,0,0.2,0C126.3,35.3,126.3,35.3,126.2,35.4L126.2,35.4z"/>
					</g>
					<g>
						<path class="st26" d="M102.9,42.3c1.9-2.8,4.1-5.5,6.6-7.9c1.3-1.2,2.6-2.3,4.1-3.2c1.5-1,3.1-1.6,4.8-2.1
							c1.7-0.4,3.6-0.5,5.3,0.2c1.7,0.7,2.9,2.1,3.9,3.5c1,1.5,1.8,3,2.2,4.7c0,0.1,0,0.2,0.1,0.3c0,0.1,0,0.1,0,0.2
							c0,0.1-0.2,0.3-0.3,0.3c-0.4-0.1-0.5-0.2-0.7-0.3c-0.4-0.3-0.7-0.6-1-0.8c-0.6-0.6-1.2-1.2-1.8-1.8c-0.1-0.1-0.1-0.2,0-0.2
							c0.1-0.1,0.1-0.1,0.2,0c0.6,0.6,1.2,1.2,1.9,1.7c0.3,0.3,0.6,0.5,1,0.8c0.1,0.1,0.4,0.2,0.4,0.2c0,0-0.1,0.1-0.1,0.1l0-0.1
							c0-0.1,0-0.2-0.1-0.3c-0.5-1.6-1.3-3.1-2.3-4.5c-1-1.3-2.2-2.6-3.7-3.2c-1.5-0.6-3.2-0.5-4.8-0.1c-3.3,0.7-6.1,2.7-8.6,5
							c-2.5,2.3-4.7,4.9-6.7,7.6l0,0c-0.1,0.1-0.2,0.1-0.3,0C102.8,42.5,102.8,42.4,102.9,42.3z"/>
					</g>
					<g>
						<path class="st26" d="M124.9,33.9c-0.7-0.7-1.5-1.4-2.4-1.8c-0.5-0.2-0.9-0.2-1.4-0.2c-0.5,0.1-0.9,0.3-1.3,0.5
							c-1.7,1-3.3,2.4-4.9,3.6c-1.6,1.3-3.2,2.6-4.9,3.8c-0.8,0.6-1.7,1.2-2.6,1.8c-0.9,0.6-1.8,1.1-2.8,1.4c-0.1,0-0.1,0-0.2-0.1
							c0-0.1,0-0.1,0.1-0.2l0,0c0.9-0.4,1.8-0.9,2.6-1.5c0.8-0.6,1.7-1.2,2.5-1.9l4.8-3.9c1.6-1.3,3.2-2.6,5.1-3.6
							c0.5-0.2,1-0.5,1.6-0.6c0.6-0.1,1.1,0.1,1.6,0.3c1,0.4,1.8,1.2,2.5,2c0.1,0.1,0.1,0.2,0,0.3C125.1,34,125,34,124.9,33.9z"/>
					</g>
					<path class="st26" d="M118.5,32.9c0,0,2.9,10.1-7.4,13.4l-6.5-3.1l4-2.7L118.5,32.9z"/>
				</g>
			</g>
			<g>
				<path class="st125" d="M66,42.4c0,0-6.5-10-13.8-12.4s-9.6,1.1-11.2,3.7c-1.6,2.7-2,4.5-1.3,4.4c0.6-0.1,3.2-2.8,3.2-2.8
					s1.8,0.9,1.8,5.7c0,4.5-2.4,11.8,4.4,14.3C49.2,55.2,53.2,46.9,66,42.4z"/>
				<g>
					<path class="st26" d="M43.1,35.2c0.9,0.6,1.4,1.5,1.7,2.4c0.3,0.9,0.5,1.9,0.4,2.9c0,1.9-0.2,3.8-0.4,5.7
						c-0.1,0.9-0.2,1.9-0.2,2.8c0.1,0.9,0.3,1.8,0.7,2.7c0.7,1.7,2.1,3.1,4,3.5c0.1,0,0.1,0.1,0.1,0.2c0,0.1-0.1,0.1-0.2,0.1
						c-1.9-0.4-3.5-1.8-4.3-3.6c-0.4-0.9-0.7-1.8-0.7-2.8c-0.1-1,0-1.9,0.1-2.9c0.1-1.9,0.3-3.8,0.2-5.6c-0.1-0.9-0.1-1.8-0.4-2.7
						c-0.2-0.9-0.6-1.8-1.2-2.4l0,0c-0.1-0.1-0.1-0.1,0-0.2C43,35.1,43.1,35.1,43.1,35.2z"/>
				</g>
				<g>
					<path class="st26" d="M65.8,42.5c-2-2.7-4.2-5.4-6.7-7.6c-2.5-2.3-5.3-4.3-8.6-5c-1.6-0.4-3.3-0.5-4.8,0.1
						c-1.5,0.6-2.7,1.8-3.7,3.2c-1,1.4-1.8,2.9-2.3,4.5c0,0.1,0,0.2-0.1,0.3l0,0.1c0,0-0.1-0.1-0.1-0.1c0.1,0,0.3-0.1,0.4-0.2
						c0.3-0.2,0.7-0.5,1-0.8c0.6-0.6,1.3-1.1,1.9-1.7c0.1-0.1,0.1-0.1,0.2,0c0.1,0.1,0.1,0.1,0,0.2c-0.6,0.6-1.2,1.2-1.8,1.8
						c-0.3,0.3-0.6,0.6-1,0.8c-0.2,0.1-0.3,0.3-0.7,0.3c-0.1,0-0.3-0.2-0.3-0.3c0-0.1,0-0.1,0-0.2c0-0.1,0-0.2,0.1-0.3
						c0.5-1.7,1.3-3.2,2.2-4.7c1-1.4,2.2-2.8,3.9-3.5c1.7-0.7,3.6-0.6,5.3-0.2c1.7,0.4,3.3,1.1,4.8,2.1c1.5,0.9,2.8,2,4.1,3.2
						c2.5,2.4,4.7,5,6.6,7.9c0.1,0.1,0,0.2-0.1,0.3C66,42.7,65.9,42.6,65.8,42.5L65.8,42.5z"/>
				</g>
				<g>
					<path class="st26" d="M43.9,33.7c0.7-0.8,1.5-1.6,2.5-2c0.5-0.2,1.1-0.3,1.6-0.3c0.6,0.1,1.1,0.3,1.6,0.6
						c1.8,1.1,3.5,2.3,5.1,3.6l4.8,3.9c0.8,0.6,1.6,1.3,2.5,1.9c0.8,0.6,1.7,1.2,2.6,1.5l0,0c0.1,0,0.1,0.1,0.1,0.2
						c0,0.1-0.1,0.1-0.2,0.1c-1-0.3-1.9-0.9-2.8-1.4c-0.9-0.6-1.7-1.2-2.6-1.8c-1.7-1.2-3.3-2.5-4.9-3.8c-1.6-1.3-3.2-2.6-4.9-3.6
						c-0.4-0.2-0.9-0.5-1.3-0.5c-0.5-0.1-0.9,0-1.4,0.2c-0.9,0.4-1.7,1-2.4,1.8c-0.1,0.1-0.2,0.1-0.3,0
						C43.8,33.9,43.8,33.8,43.9,33.7z"/>
				</g>
				<path class="st26" d="M50.5,32.9c0,0-2.9,10.1,7.4,13.4l6.5-3.1l-4-2.7L50.5,32.9z"/>
			</g>
		</g>
		<path class="st134" d="M124.2,52.2c0,0-6.9-9.9-26.9-13.6c0,0-11-3.4-27.5,0c0,0-11.3,1.4-22.7,9.9c-2.2,1.7-3.4,4-5.6,6.2
			c0,0-2.4,2.2-3.9,6.1c-1.8,4.9-3.5,11.9-3.2,19c0.3,6.4,3.8,13.5,7,16.3c1,0.9,4.5,4.5,7.4,6.8c1.1,0.9,4.4,2.8,6.7,4
			c1.4,0.8,3.2,1.7,5.6,2.5c-0.2,0.8-12.9,27.7-10.4,37.7c1,5.8,8.6,7.4,16.1,7.9c0.5,0,0.4,1.2-0.1,1.5c-2.9,1.8-2.6,4.5,2.9,3.9
			c0.3,0,1.7-5.3,2-5.3c0.3,0,0.6,0,0.9,0c5.5,0,9.9,0.3,9.9,0.2l14.2-0.1l1.7,5.1l2.5,0.3c0,0,5.5-1.9,0.4-3.9
			c-0.2-0.1-0.3-1.5-0.1-1.5c4.1-0.2,12.7-1.2,14.8-5.2c3.4-6.3,0.1-17.1-3.3-27.3c-2-5.9-4.6-11.1-5.6-12.9c0.7-0.3,2.3-1,4.5-2.3
			c1.8-1,6.3-3.6,7.4-4.4c0.9-0.7,6.8-5.9,7.9-7.1c6.9-7.7,6.7-16.8,6.8-19.2C134,61.3,124.2,52.2,124.2,52.2z"/>
		<g>
			<path class="st26" d="M78.9,94.4c0,0,2.2-1.2,3.2-3.5c1.6-3.9,1.3-6,1.3-6l0.9-0.2c0,0-0.6,3.9,2.7,8.3l1.1,0.9
				c0,0-0.8,3.6-4.9,3.7C79.1,97.6,78.9,94.4,78.9,94.4z"/>
			<g>
				<path class="st26" d="M83.5,85.2c0,1.2-0.2,2.5-0.5,3.7c-0.3,1.2-0.8,2.4-1.5,3.5c-0.7,1.1-1.7,2-3,2.4
					c-1.3,0.4-2.6,0.2-3.8-0.2c-0.1,0-0.1-0.1-0.1-0.2c0-0.1,0.1-0.1,0.2-0.1c1.2,0.3,2.4,0.4,3.5,0.1c1.1-0.4,2.1-1.2,2.8-2.2
					c0.7-1,1.2-2.1,1.6-3.3C83,87.7,83.3,86.5,83.5,85.2z"/>
			</g>
			<g>
				<path class="st26" d="M84.2,85.2c0.2,1.2,0.4,2.4,0.8,3.6c0.4,1.2,0.9,2.3,1.6,3.2c0.7,1,1.6,1.7,2.8,2.1
					c1.1,0.3,2.3,0.2,3.5-0.1c0.1,0,0.2,0,0.2,0.1c0,0.1,0,0.2-0.1,0.2c-1.2,0.4-2.5,0.6-3.7,0.3c-1.3-0.3-2.3-1.2-3-2.3
					c-0.7-1.1-1.2-2.2-1.5-3.4C84.3,87.7,84.2,86.5,84.2,85.2z"/>
			</g>
			<path class="st126" d="M78.9,94.4c0,0,0.7,3.5,4.9,3.1c3.8-0.4,4.3-3.6,4.3-3.6"/>
			<path class="st127" d="M79.6,95.7c0,0,1.4-2,2.4-2l-0.6,3.4C81.4,97.1,80.6,96.9,79.6,95.7z"/>
			<g>
				<path class="st26" d="M91.3,88.2c3.6-1.3,7.4-1.8,11.2-1.8c3.8,0,7.6,0.5,11.2,1.4c0.9,0.2,1.8,0.6,2.7,0.8
					c0.4,0.1,0.9,0.3,1.3,0.4l1.3,0.5c0.9,0.4,1.8,0.7,2.6,1.1l2.5,1.3c0.4,0.2,0.8,0.4,1.3,0.7l1.2,0.7l2.4,1.5
					c1.6,1.1,3,2.2,4.5,3.4c-1.5-1.1-3-2.3-4.6-3.3l-2.4-1.5l-1.2-0.7c-0.4-0.2-0.8-0.4-1.3-0.6l-2.5-1.3c-0.9-0.4-1.7-0.7-2.6-1.1
					l-1.3-0.5c-0.4-0.2-0.9-0.3-1.3-0.4c-0.9-0.3-1.8-0.6-2.7-0.8c-3.6-0.9-7.4-1.3-11.1-1.3c-3.7,0.1-7.5,0.6-11,1.9l0,0
					c-0.2,0.1-0.3,0-0.4-0.2C91.1,88.4,91.2,88.2,91.3,88.2C91.3,88.2,91.3,88.2,91.3,88.2z"/>
			</g>
			<g>
				<path class="st26" d="M93.1,89.5c1.6-0.2,3.2-0.1,4.7,0.3c1.5,0.4,3,0.9,4.3,1.7c1.3,0.8,2.6,1.7,3.6,2.8c0.6,0.5,1,1.2,1.5,1.7
					c0.5,0.6,0.9,1.2,1.4,1.9c-0.5-0.6-0.9-1.2-1.4-1.8c-0.5-0.6-1-1.2-1.6-1.7c-1.1-1.1-2.4-1.9-3.7-2.7c-1.3-0.7-2.8-1.2-4.3-1.5
					c-1.5-0.3-3-0.4-4.5-0.1l0,0c-0.2,0-0.3-0.1-0.3-0.2S92.9,89.5,93.1,89.5C93.1,89.5,93.1,89.5,93.1,89.5z"/>
			</g>
			<g>
				<path class="st26" d="M92.4,85.3c3.4-0.8,6.9-1.3,10.4-1.6c3.5-0.3,7-0.3,10.5,0c3.5,0.3,6.9,1,10.3,2c3.3,1.1,6.5,2.7,9.4,4.6
					c-2.9-1.9-6.1-3.4-9.4-4.4c-3.3-1-6.8-1.6-10.2-1.9c-3.5-0.2-7-0.2-10.4,0.1c-3.5,0.3-6.9,0.9-10.3,1.7l0,0
					c-0.2,0-0.3-0.1-0.4-0.2S92.2,85.3,92.4,85.3C92.4,85.3,92.4,85.3,92.4,85.3z"/>
			</g>
			<g>
				<path class="st26" d="M71.8,86c-2.6-0.6-5.4-0.9-8.1-0.9c-2.7-0.1-5.5,0.1-8.2,0.5c-5.4,0.8-10.7,2.4-15.6,4.9
					c4.8-2.6,10.1-4.3,15.5-5.2c2.7-0.4,5.5-0.7,8.2-0.6c2.8,0,5.5,0.2,8.2,0.8c0.2,0,0.3,0.2,0.2,0.3C72.1,85.9,72,86,71.8,86
					C71.8,86,71.8,86,71.8,86L71.8,86z"/>
			</g>
			<g>
				<path class="st26" d="M75.1,88.1c-2.1-0.4-4.3-0.4-6.5-0.1c-2.2,0.2-4.3,0.8-6.3,1.7c-2,0.8-3.9,2-5.5,3.4
					c-0.9,0.7-1.6,1.5-2.3,2.3c-0.7,0.8-1.3,1.7-2,2.6c0.7-0.9,1.2-1.8,2-2.6c0.7-0.8,1.4-1.7,2.3-2.4c1.6-1.5,3.5-2.7,5.5-3.6
					c2-0.9,4.2-1.5,6.3-1.8c2.2-0.3,4.4-0.3,6.6,0c0.2,0,0.3,0.2,0.2,0.3C75.4,88,75.3,88.1,75.1,88.1
					C75.1,88.1,75.1,88.1,75.1,88.1L75.1,88.1z"/>
			</g>
			<g>
				<path class="st26" d="M73.8,90c-1.4-0.1-2.9,0.1-4.3,0.5c-1.4,0.4-2.8,1.1-4,1.9c-1.2,0.9-2.3,1.9-3.1,3.1
					c-0.5,0.6-0.8,1.3-1.2,1.9c-0.4,0.7-0.7,1.3-1,2c0.3-0.7,0.6-1.4,0.9-2c0.4-0.6,0.7-1.3,1.2-1.9c0.8-1.3,1.9-2.3,3.1-3.3
					c1.2-0.9,2.6-1.6,4-2.1c1.4-0.5,3-0.7,4.5-0.7c0.2,0,0.3,0.1,0.3,0.3C74.2,89.9,74,90,73.8,90C73.9,90,73.9,90,73.8,90L73.8,90z
					"/>
			</g>
			<path class="st26" d="M79.3,81.2c-0.1,0.5,0.2,1.1,0.6,1.4c0.6,0.5,1.4,0.6,2.1,0.6c1.1,0,1.2,0.6,1.4,1.7c0,0.3,0.8,0.1,0.9,0
				c0.3-1.9,2-1.6,3.1-2.2c1.4-0.8,1.3-2.2,0-2.8C85.4,78.9,79.6,78.4,79.3,81.2z"/>
		</g>
		<path class="st30" d="M71.6,155l5.8-20.7c1.9-6.7,11.5-6.7,13.4,0l5.8,20.7H71.6z"/>
		<g>
			<path class="st26" d="M60.7,109.5c0.2,0.6,0.9,0,0.6,0.2l0,0c0,0,0,0,0,0l0,0l0,0.1l-0.1,0.2l-0.2,0.4l-0.4,0.8l-0.7,1.7
				l-1.4,3.4c-0.9,2.3-1.8,4.6-2.6,6.9c-1.6,4.6-3.1,9.3-4.1,14c-0.5,2.4-0.8,4.8-0.7,7.1c0.1,2.4,0.7,4.8,2.2,6.5
				c1.5,1.8,3.8,2.6,6.2,3c1.2,0.2,2.4,0.3,3.6,0.5c1.2,0.2,2.5,0.3,3.6,0.4l0.1,0c0.2,0,0.3,0.1,0.3,0.3c0,0.2-0.1,0.3-0.3,0.3
				c-2.6,0-4.9-0.4-7.4-0.7c-2.4-0.4-5-1.2-6.8-3.2c-1.8-2-2.4-4.6-2.5-7.1c-0.1-2.5,0.2-5,0.7-7.4c1.1-4.8,2.6-9.5,4.3-14.1
				c0.8-2.3,1.7-4.6,2.6-6.8l1.4-3.4l0.7-1.7l0.4-0.8l0.2-0.4L60.7,109.5L60.7,109.5l0-0.1l0,0l0,0c-0.3,0.2,0.4-0.4,0.6,0.2
				c0,0.2-0.2,0.3-0.3,0.3S60.7,109.6,60.7,109.5z"/>
		</g>
		<g>
			<path class="st26" d="M106.8,109.5c0.2-0.6,0.9,0,0.6-0.2l0,0l0,0l0,0.1l0.1,0.1l0.1,0.2l0.2,0.4l0.4,0.8l0.7,1.7l1.4,3.4
				c0.9,2.3,1.8,4.6,2.6,6.8c1.7,4.6,3.2,9.3,4.3,14.1c0.5,2.4,0.8,4.9,0.7,7.4c-0.1,2.5-0.7,5.1-2.5,7.1c-1.8,2-4.3,2.8-6.8,3.2
				c-2.5,0.3-4.8,0.6-7.4,0.7c-0.2,0-0.3-0.1-0.3-0.3c0-0.2,0.1-0.3,0.3-0.3l0.1,0c1.1,0,2.4-0.2,3.6-0.4c1.2-0.2,2.4-0.3,3.6-0.5
				c2.3-0.4,4.7-1.3,6.2-3c1.5-1.7,2.1-4.1,2.2-6.5c0.1-2.4-0.2-4.8-0.7-7.1c-1-4.7-2.5-9.4-4.1-14c-0.8-2.3-1.7-4.6-2.6-6.9
				l-1.4-3.4l-0.7-1.7l-0.4-0.8l-0.2-0.4l-0.1-0.2l0-0.1l0,0c0,0,0,0,0,0l0,0c-0.3-0.2,0.4,0.4,0.6-0.2c0,0.2-0.2,0.3-0.3,0.3
				S106.8,109.6,106.8,109.5z"/>
		</g>
		<g>
			<path class="st26" d="M71.6,154.7l12.5-0.1l6.3,0l6.3,0.1c0.1,0,0.3,0.1,0.3,0.3c0,0.1-0.1,0.3-0.3,0.3l-6.3,0.1l-6.3,0
				l-12.5-0.1c-0.2,0-0.3-0.1-0.3-0.3C71.3,154.9,71.4,154.7,71.6,154.7z"/>
		</g>
		<path class="st30" d="M70.2,157.7c0.1,0.1,0.2,0.2,0.3,0.3c0,0.1,0,0.3,0,0.4c-0.1,0.7-0.2,1.6-0.8,2c-0.4,0.3-1,0.3-1.5,0.3
			c-0.5,0-1-0.1-1.5-0.2c-0.6-0.1-1.2-0.3-1.5-0.7c-0.3-0.4-0.4-1-0.4-1.6c0-0.2,0-0.4,0.1-0.6c0.1-0.2,0.3-0.3,0.5-0.4
			c0.8-0.4,1.4-0.7,2.4-0.6C68.5,156.8,69.6,157.1,70.2,157.7z"/>
		<g>
			<path class="st26" d="M65.8,143.3c0.5,3.3,1,6.6,1.3,10c0.1,0.8,0.1,1.7,0.1,2.5c0,0.2,0,0.4-0.1,0.7c-0.1,0.1,0,0.1-0.2,0.3
				c0,0-0.1,0.1-0.1,0.1l0,0l-0.1,0c-0.1,0-0.2,0.1-0.3,0.1c-0.4,0.1-0.7,0.3-0.9,0.6c-0.5,0.5-0.5,1.3,0,1.9
				c0.2,0.3,0.5,0.5,0.9,0.6c0.4,0.1,0.8,0.2,1.2,0.3c0.8,0.1,1.6,0.1,2-0.4c0.2-0.3,0.3-0.7,0.5-1c0.1-0.4,0.3-0.8,0.4-1.2
				c0.5-1.6,1-3.2,1.5-4.8c1-3.2,1.9-6.4,2.8-9.7c0-0.1,0.1-0.2,0.3-0.1c0.1,0,0.2,0.1,0.1,0.3c-0.8,3.3-1.6,6.5-2.5,9.7
				c-0.5,1.6-0.9,3.2-1.4,4.8c-0.1,0.4-0.3,0.8-0.4,1.2c-0.2,0.4-0.3,0.8-0.6,1.2c-0.3,0.4-0.9,0.6-1.3,0.7c-0.5,0.1-0.9,0-1.4,0
				c-0.4-0.1-0.9-0.2-1.3-0.3c-0.4-0.1-0.9-0.4-1.2-0.8c-0.6-0.8-0.6-2,0.1-2.7c0.3-0.4,0.7-0.6,1.2-0.8c0.1,0,0.2-0.1,0.3-0.1
				l0.1,0l0,0c0,0,0,0-0.1,0c-0.1,0.1-0.1,0-0.1,0c0-0.1,0.1-0.3,0.1-0.5c0-0.8,0-1.6-0.1-2.5c-0.3-3.3-0.7-6.7-1.2-10
				c0-0.1,0.1-0.3,0.2-0.3C65.7,143.1,65.8,143.2,65.8,143.3z"/>
		</g>
		<path class="st30" d="M97.9,157.7c-0.1,0.1-0.2,0.2-0.3,0.3c0,0.1,0,0.3,0,0.4c0.1,0.7,0.2,1.6,0.8,2c0.4,0.3,1,0.3,1.5,0.3
			c0.5,0,1-0.1,1.5-0.2c0.6-0.1,1.2-0.3,1.5-0.7c0.3-0.4,0.4-1,0.4-1.6c0-0.2,0-0.4-0.1-0.6c-0.1-0.2-0.3-0.3-0.5-0.4
			c-0.8-0.4-1.4-0.7-2.4-0.6C99.5,156.8,98.5,157.1,97.9,157.7z"/>
		<g>
			<path class="st26" d="M102.9,143.4c-0.5,3.3-0.9,6.6-1.2,10c-0.1,0.8-0.1,1.7-0.1,2.5c0,0.2,0,0.4,0.1,0.5c0,0,0.1,0.1-0.1,0
				c0,0-0.1,0-0.1,0l0,0l0.1,0c0.1,0,0.2,0.1,0.3,0.1c0.4,0.2,0.8,0.4,1.2,0.8c0.7,0.7,0.7,2,0.1,2.7c-0.3,0.4-0.7,0.7-1.2,0.8
				c-0.4,0.1-0.8,0.3-1.3,0.3c-0.4,0.1-0.9,0.1-1.4,0c-0.5-0.1-1-0.3-1.3-0.7c-0.3-0.4-0.4-0.8-0.6-1.2c-0.2-0.4-0.3-0.8-0.4-1.2
				c-0.5-1.6-1-3.2-1.4-4.8c-0.9-3.2-1.7-6.5-2.5-9.7c0-0.1,0-0.2,0.2-0.3c0.1,0,0.2,0,0.3,0.1c0.9,3.2,1.8,6.5,2.8,9.7
				c0.5,1.6,0.9,3.2,1.5,4.8c0.1,0.4,0.3,0.8,0.4,1.2c0.1,0.4,0.3,0.8,0.5,1c0.4,0.5,1.2,0.5,2,0.4c0.4-0.1,0.8-0.2,1.2-0.3
				c0.4-0.1,0.6-0.3,0.9-0.6c0.4-0.5,0.4-1.4,0-1.9c-0.2-0.3-0.6-0.5-0.9-0.6c-0.1,0-0.2-0.1-0.3-0.1l-0.1,0l0,0c0,0-0.1,0-0.1-0.1
				c-0.2-0.2-0.2-0.2-0.2-0.3c-0.1-0.3-0.1-0.5-0.1-0.7c0-0.9,0.1-1.7,0.1-2.5c0.3-3.4,0.8-6.7,1.3-10c0-0.1,0.1-0.2,0.3-0.2
				C102.8,143.1,102.9,143.2,102.9,143.4z"/>
		</g>
		<path class="st24" d="M108.1,108.8c39.9-29,12.5-59.7,12.5-59.7s-0.1,0,1.3,0.1c1.8,1.4,3.9,4.1,5.7,5.9c0,0,1.8,1.4,3.6,5.5
			c2.1,4.8,3.8,12,3.3,18.9c-0.3,4-3.8,13.4-7,16.3c-1,0.9-4.6,4.5-7.4,6.8c-1.1,0.9-4.5,2.8-6.8,4
			C111.9,107.4,110.3,108.1,108.1,108.8z"/>
		<g>
			<path class="st26" d="M60.8,109.5c-4.3-1.6-8.4-3.8-12.2-6.4c-3.8-2.6-7.2-5.7-10-9.5c-2.7-3.7-4.5-8.2-4.9-12.9
				c-0.2-2.3-0.1-4.6,0-6.9c0.2-2.3,0.5-4.6,1.1-6.8c1.1-4.5,3.1-8.8,5.8-12.5c2.8-3.7,6.3-6.8,10.2-9.3c7.9-4.9,17-7.2,26-8.3
				c0.1,0,0.3,0.1,0.3,0.2c0,0.1-0.1,0.3-0.2,0.3c-9,1.1-18,3.6-25.6,8.5c-3.8,2.4-7.2,5.5-9.8,9.1c-2.6,3.6-4.5,7.8-5.5,12.2
				c-1,4.4-1.4,8.9-1.2,13.4c0.3,4.5,2,8.8,4.6,12.4c2.6,3.7,5.9,6.8,9.6,9.4c3.7,2.6,7.7,4.8,11.9,6.5l0,0c0.1,0.1,0.2,0.2,0.1,0.3
				C61.1,109.5,61,109.6,60.8,109.5z"/>
		</g>
		<g>
			<path class="st26" d="M107.1,109.2c4.2-1.7,8.3-3.9,12-6.5c3.7-2.6,7.1-5.8,9.7-9.5c2.6-3.7,4.3-8,4.6-12.5
				c0.2-4.5-0.2-9.1-1.2-13.5c-1.1-4.4-3-8.6-5.7-12.2c-2.7-3.6-6.2-6.7-10-9.1c-7.8-4.8-16.8-7.3-25.9-8.4c-0.1,0-0.2-0.1-0.2-0.3
				c0-0.1,0.1-0.2,0.3-0.2c9.1,1,18.3,3.4,26.2,8.2c4,2.4,7.5,5.5,10.4,9.2c2.8,3.7,4.9,8,6.1,12.5c0.6,2.3,1,4.6,1.2,6.9
				c0.1,2.3,0.2,4.6,0,7c-0.4,4.7-2.2,9.2-5,12.9c-2.7,3.8-6.3,6.9-10.1,9.5c-3.8,2.6-7.9,4.8-12.3,6.4c-0.1,0-0.3,0-0.3-0.1
				C106.9,109.4,107,109.2,107.1,109.2L107.1,109.2z"/>
		</g>
		<path class="st24" d="M60.3,108.8c-39.9-29-12.5-59.7-12.5-59.7s-0.9,0.1-2.3,0.2c-1.8,1.4-2.9,4-4.7,5.8c0,0-1.8,1.4-3.6,5.5
			c-2.1,4.8-3.8,12-3.3,18.9c0.3,4,3.8,13.4,7,16.3c1,0.9,4.6,4.5,7.4,6.8c1.1,0.9,4.5,2.8,6.8,4C56.5,107.4,58.2,108.1,60.3,108.8z
			"/>
		<path class="st30" d="M75.2,49.2c0,0,3.6-30.9,8.7-30.5c5.1,0.4,8.3,30.5,8.3,30.5s-4.5,4.2-8.3,4.2S75.8,50.3,75.2,49.2z"/>
		<linearGradient id="SVGID_2_" gradientUnits="userSpaceOnUse" x1="83.7449" y1="49.2097" x2="83.7449" y2="18.7239">
			<stop  offset="0" style="stop-color:#FCEE21;stop-opacity:0"/>
			<stop  offset="0.2541" style="stop-color:#FDB222;stop-opacity:0.2541"/>
			<stop  offset="0.616" style="stop-color:#FE6224;stop-opacity:0.616"/>
			<stop  offset="0.8735" style="stop-color:#FF3025;stop-opacity:0.8735"/>
			<stop  offset="1" style="stop-color:#FF1D25"/>
		</linearGradient>
		<path style="fill:url(#SVGID_2_);" d="M75.2,49.2c0,0,3.6-30.9,8.7-30.5c5.1,0.4,8.3,30.5,8.3,30.5"/>
		<g>
			<path class="st26" d="M80.6,23.3c0.9,0.8,2.1,1.4,3.3,1.4c0.6,0,1.2-0.2,1.7-0.4c0.3-0.1,0.5-0.3,0.8-0.4
				c0.3-0.2,0.5-0.4,0.8-0.5l0,0c0.1,0,0.2,0,0.2,0.1c0,0.1,0,0.1,0,0.2c-0.2,0.3-0.5,0.5-0.7,0.7c-0.3,0.2-0.5,0.4-0.8,0.6
				c-0.6,0.4-1.3,0.6-2,0.6c-0.7,0-1.5-0.2-2.1-0.5c-0.6-0.4-1.1-0.8-1.5-1.4c-0.1-0.1,0-0.2,0.1-0.3C80.4,23.2,80.5,23.2,80.6,23.3
				L80.6,23.3z"/>
		</g>
		<g>
			<path class="st26" d="M79.3,27.3c0.6,0.6,1.3,1.1,2.1,1.4c0.8,0.3,1.6,0.6,2.4,0.5c0.8,0,1.6-0.2,2.4-0.6
				c0.4-0.1,0.7-0.4,1.1-0.6l1.1-0.8l0,0c0.1-0.1,0.2,0,0.2,0c0,0.1,0,0.1,0,0.2c-0.3,0.3-0.6,0.6-0.9,1c-0.4,0.3-0.7,0.6-1.1,0.8
				c-0.8,0.5-1.7,0.7-2.7,0.8c-0.9,0-1.9-0.2-2.7-0.7c-0.8-0.5-1.5-1-2.1-1.8c-0.1-0.1,0-0.2,0-0.3C79.1,27.3,79.2,27.3,79.3,27.3
				L79.3,27.3z"/>
		</g>
		<g>
			<path class="st26" d="M78.3,31.2c0.8,0.7,1.7,1.2,2.6,1.6c0.9,0.4,1.9,0.6,2.9,0.6c1,0,2-0.2,2.9-0.6c0.5-0.2,0.9-0.5,1.4-0.7
				c0.4-0.3,0.8-0.6,1.3-0.9l0,0c0.1,0,0.2,0,0.2,0.1c0,0.1,0,0.1,0,0.2c-0.4,0.4-0.8,0.7-1.2,1.1c-0.5,0.3-0.9,0.6-1.4,0.9
				c-1,0.5-2.1,0.8-3.2,0.8c-1.1,0-2.2-0.2-3.2-0.7c-1-0.5-1.9-1.1-2.6-2c-0.1-0.1-0.1-0.2,0-0.3C78.1,31.2,78.2,31.2,78.3,31.2
				L78.3,31.2z"/>
		</g>
		<g>
			<path class="st26" d="M77.4,35.8c0.9,0.7,2,1.2,3.1,1.5c1.1,0.4,2.2,0.6,3.3,0.5c1.1,0,2.3-0.2,3.3-0.6c1.1-0.3,2.1-0.9,3.1-1.5
				l0,0c0.1,0,0.2,0,0.2,0.1c0,0.1,0,0.2,0,0.2c-0.5,0.4-1,0.7-1.5,1.1c-0.5,0.3-1,0.6-1.6,0.8c-1.1,0.5-2.4,0.7-3.6,0.7
				c-2.5,0-4.9-0.9-6.7-2.6c-0.1-0.1-0.1-0.2,0-0.3C77.2,35.7,77.3,35.7,77.4,35.8L77.4,35.8z"/>
		</g>
		<g>
			<path class="st26" d="M76.4,41.8c1.1,0.8,2.3,1.4,3.5,1.9c1.3,0.4,2.6,0.7,3.9,0.7c1.3,0,2.6-0.2,3.9-0.7
				c0.6-0.2,1.2-0.5,1.8-0.8c0.6-0.3,1.2-0.7,1.7-1l0,0c0.1,0,0.2,0,0.2,0.1c0,0.1,0,0.2,0,0.2c-0.5,0.4-1.1,0.9-1.7,1.3
				c-0.6,0.3-1.2,0.7-1.9,1c-1.3,0.6-2.7,0.8-4.1,0.9c-1.4,0-2.8-0.3-4.1-0.8c-1.3-0.5-2.5-1.3-3.5-2.3c-0.1-0.1-0.1-0.2,0-0.3
				C76.2,41.8,76.3,41.7,76.4,41.8L76.4,41.8z"/>
		</g>
		<g>
			<path class="st26" d="M75.4,49.1c1.1,1.1,2.4,2.1,3.8,2.8c1.4,0.7,3,1.1,4.5,1.1c1.5,0,3.1-0.4,4.5-1.1c0.4-0.1,0.7-0.4,1-0.6
				l1-0.6c0.6-0.5,1.2-1,1.9-1.5l0,0c0.1-0.1,0.2,0,0.2,0c0,0.1,0,0.2,0,0.2c-0.6,0.6-1.2,1.2-1.8,1.7l-1,0.7
				c-0.3,0.2-0.7,0.5-1.1,0.7L87.4,53c-0.4,0.2-0.8,0.3-1.2,0.4c-0.4,0.2-0.8,0.2-1.2,0.3c-0.4,0.1-0.8,0.1-1.3,0.1
				c-1.7,0-3.4-0.4-4.9-1.3c-1.5-0.8-2.8-1.9-3.8-3.2c-0.1-0.1-0.1-0.2,0-0.3C75.2,49,75.3,49,75.4,49.1L75.4,49.1z"/>
		</g>
		<path class="st130" d="M78.5,49.2c0.5-0.7,1-1.4,1.4-2.1c2.1-3.7,3.1-8,3.6-12.3c0.6-5.3,0.7-10.7,0.1-16
			c-4.9,1-8.4,30.5-8.4,30.5H78.5z"/>
		<g>
			<path class="st26" d="M75,49.2c0.6-5.4,1.4-10.7,2.4-16.1c0.5-2.7,1.1-5.3,1.9-7.9c0.4-1.3,0.8-2.6,1.4-3.8
				c0.3-0.6,0.6-1.2,1.1-1.8c0.4-0.5,1-1.2,1.9-1.2c0.9,0,1.5,0.7,2,1.2c0.5,0.6,0.8,1.2,1.1,1.8c0.6,1.3,1,2.6,1.4,3.9
				c0.8,2.6,1.4,5.3,1.9,7.9c1,5.3,1.8,10.7,2.3,16.1c0,0.1-0.1,0.2-0.1,0.2c-0.1,0-0.2-0.1-0.2-0.1c-0.3-2.7-0.7-5.4-1.2-8
				c-0.4-2.7-0.9-5.3-1.4-8c-0.5-2.6-1.1-5.3-1.9-7.8c-0.4-1.3-0.8-2.5-1.4-3.7c-0.3-0.6-0.6-1.2-1-1.7c-0.4-0.5-0.9-0.9-1.3-0.9
				c-0.5,0-1,0.4-1.3,0.9c-0.4,0.5-0.7,1.1-1,1.7c-0.6,1.2-1,2.5-1.4,3.7c-0.8,2.6-1.4,5.2-2,7.8c-0.6,2.6-1,5.3-1.5,8
				c-0.5,2.7-0.9,5.3-1.2,8c0,0.1-0.1,0.2-0.2,0.2C75.1,49.4,75,49.3,75,49.2z"/>
		</g>
		<g>
			<path class="st30" d="M69.9,64c-0.3-0.1-0.5-0.2-0.8-0.3c-0.3-0.1-0.6-0.2-0.8-0.4c-0.2-0.1-0.4-0.2-0.5-0.3
				c-0.2-0.1-0.3-0.1-0.5-0.2c-0.2-0.1-0.4-0.1-0.7-0.2c-0.4-0.1-0.8-0.2-1.1-0.5c-0.4,0-0.8-0.1-1.2-0.3c-0.5,0-0.9-0.2-1.3-0.4
				c-0.3,0-0.6-0.1-0.8-0.2c-0.5,0-1-0.2-1.4-0.4c-4.9,0.8-8.7,5.1-8.7,10.2c0,5.7,4.6,10.4,10.4,10.4c5.7,0,10.4-4.6,10.4-10.4
				C72.7,68.3,71.6,65.8,69.9,64z"/>
			<path class="st131" d="M72.7,70.3c-0.1-0.3-0.1-0.6-0.1-0.9c0-0.2,0-0.3,0-0.5c-0.1-0.3-0.2-0.6-0.2-0.9
				c-0.2-0.3-0.3-0.7-0.4-1.1c-1.5-3-4.5-5-8-5c-4.9,0-8.9,4-8.9,8.9c0,4.9,4,8.9,8.9,8.9c3.7,0,6.9-2.3,8.3-5.5
				c0-0.5,0.1-1.1,0.3-1.6c0-0.4,0-0.8,0.1-1.2c0-0.2,0-0.4,0-0.6c0-0.1,0-0.3,0-0.4C72.7,70.5,72.7,70.4,72.7,70.3z"/>
			<g>
				<circle class="st26" cx="64" cy="71" r="7.2"/>
				
					<ellipse transform="matrix(0.7071 -0.7071 0.7071 0.7071 -29.7286 60.9894)" class="st30" cx="58.8" cy="66.4" rx="2.7" ry="2.7"/>
				<path class="st132" d="M51.9,71c0-4.8,3.3-8.9,7.8-10c0.8-0.2,9.6,2,11,4c1.2,1.7,1.9,3.8,1.9,6c0,5.7-4.6,10.4-10.4,10.4
					S51.9,76.8,51.9,71z"/>
				<path class="st133" d="M58.1,59.4c0,0,7.4,4.5,14.6,5.3"/>
			</g>
		</g>
		<g>
			<path class="st30" d="M97.7,64c0.3-0.1,0.5-0.2,0.8-0.3c0.3-0.1,0.6-0.2,0.8-0.4c0.2-0.1,0.4-0.2,0.5-0.3
				c0.2-0.1,0.3-0.1,0.5-0.2c0.2-0.1,0.4-0.1,0.7-0.2c0.4-0.1,0.8-0.2,1.1-0.5c0.4,0,0.8-0.1,1.2-0.3c0.5,0,0.9-0.2,1.3-0.4
				c0.3,0,0.6-0.1,0.8-0.2c0.5,0,1-0.2,1.4-0.4c4.9,0.8,8.7,5.1,8.7,10.2c0,5.7-4.6,10.4-10.4,10.4S94.9,76.8,94.9,71
				C94.9,68.3,96,65.8,97.7,64z"/>
			<path class="st131" d="M94.9,70.3c0.1-0.3,0.1-0.6,0.1-0.9c0-0.2,0-0.3,0-0.5c0.1-0.3,0.2-0.6,0.2-0.9c0.2-0.3,0.3-0.7,0.4-1.1
				c1.5-3,4.5-5,8-5c4.9,0,8.9,4,8.9,8.9c0,4.9-4,8.9-8.9,8.9c-3.7,0-6.9-2.3-8.3-5.5c0-0.5-0.1-1.1-0.3-1.6c0-0.4,0-0.8-0.1-1.2
				c0-0.2,0-0.4,0-0.6c0-0.1,0-0.3,0-0.4C94.9,70.5,94.9,70.4,94.9,70.3z"/>
			<g>
				<circle class="st26" cx="103.6" cy="71" r="7.2"/>
				
					<ellipse transform="matrix(0.7071 -0.7071 0.7071 0.7071 -15.0577 96.4081)" class="st30" cx="108.8" cy="66.4" rx="2.7" ry="2.7"/>
				<path class="st132" d="M115.7,71c0-4.8-3.3-8.9-7.8-10c-0.8-0.2-9.6,2-11,4c-1.2,1.7-1.9,3.8-1.9,6c0,5.7,4.6,10.4,10.4,10.4
					S115.7,76.8,115.7,71z"/>
				<path class="st133" d="M109.5,59.4c0,0-7.4,4.5-14.6,5.3"/>
			</g>
		</g>
	</g>
</g>
<g id="mask" class="st0">
</g>
</svg>
