<?xml version="1.0" encoding="utf-8"?>
<!-- Generator: Adobe Illustrator 21.0.0, SVG Export Plug-In . SVG Version: 6.00 Build 0)  -->
<svg version="1.1" xmlns="http://www.w3.org/2000/svg" xmlns:xlink="http://www.w3.org/1999/xlink" x="0px" y="0px"
	 viewBox="0 0 176.8 172.4" style="enable-background:new 0 0 176.8 172.4;" xml:space="preserve">
<style type="text/css">
	.st0{display:none;}
	.st1{display:inline;fill:#FD9994;}
	.st2{display:inline;fill:#FFFFFF;}
	.st3{display:inline;fill:none;stroke:#FFFFFF;stroke-width:2.2363;stroke-miterlimit:10;}
	.st4{display:inline;}
	.st5{fill:none;stroke:#FFFFFF;stroke-width:2.2363;stroke-miterlimit:10;}
	.st6{fill:#FFB380;}
	.st7{fill:#D2C3DB;}
	.st8{fill:#F9ECDC;}
	.st9{fill:#FFF58B;}
	.st10{fill:#F6BC60;}
	.st11{fill:#ECF784;}
	.st12{fill:#FFDEFF;}
	.st13{fill:#AED5D2;}
	.st14{fill:#F4BD9F;}
	.st15{fill:#B9DCFF;}
	.st16{fill:#D7FFFB;}
	.st17{fill:#81D8F7;}
	.st18{fill:#E57777;}
	.st19{fill:#D9FFDB;}
	.st20{opacity:0.1;}
	.st21{fill:#5CCDFF;}
	.st22{fill:none;}
	.st23{opacity:0.2;fill:#FFFFFF;}
	.st24{opacity:0.1;fill:#002CBF;}
	.st25{fill:#1A1A1A;}
	.st26{fill:#333333;}
	.st27{fill:#FFFFDE;}
	.st28{clip-path:url(#SVGID_4_);}
	.st29{fill:none;stroke:#333333;stroke-width:0.4917;stroke-linecap:round;stroke-linejoin:round;stroke-miterlimit:10;}
	.st30{fill:#FFFFFF;}
	.st31{fill:none;stroke:#333333;stroke-width:0.8543;stroke-miterlimit:10;}
	.st32{clip-path:url(#SVGID_6_);}
	.st33{fill:#FFD7B9;}
	.st34{fill:#F0FFFF;}
	.st35{clip-path:url(#SVGID_8_);}
	.st36{fill:#FF5C5C;}
	.st37{fill:none;stroke:#333333;stroke-width:0.466;stroke-linecap:round;stroke-linejoin:round;stroke-miterlimit:10;}
	.st38{fill:none;stroke:#333333;stroke-width:0.8095;stroke-miterlimit:10;}
	.st39{clip-path:url(#SVGID_10_);}
	.st40{fill:none;stroke:#333333;stroke-width:0.7381;stroke-linecap:round;stroke-linejoin:round;stroke-miterlimit:10;}
	.st41{fill:none;stroke:#333333;stroke-width:0.8857;stroke-linecap:round;stroke-linejoin:round;stroke-miterlimit:10;}
	.st42{fill:none;stroke:#333333;stroke-width:2.6852;stroke-linecap:round;stroke-linejoin:round;stroke-miterlimit:10;}
	.st43{fill:#72B5C4;}
	.st44{fill:#5E96A5;}
	.st45{fill:none;stroke:#FFFFFF;stroke-width:2.6852;stroke-linecap:round;stroke-linejoin:round;stroke-miterlimit:10;}
	.st46{fill:none;stroke:#FFFFFF;stroke-width:1.2942;stroke-linecap:round;stroke-linejoin:round;stroke-miterlimit:10;}
	.st47{fill:none;stroke:#FFFFFF;stroke-width:0.8311;stroke-linecap:round;stroke-linejoin:round;stroke-miterlimit:10;}
	.st48{fill:#FF5C00;}
	.st49{fill:#00B4FF;}
	.st50{fill:#FF5592;}
	.st51{fill:#733FFF;}
	.st52{fill:#DDFF15;}
	.st53{fill:#BF5855;}
	.st54{fill:none;stroke:#333333;stroke-width:0.5718;stroke-miterlimit:10;}
	.st55{fill:#C8F982;}
	.st56{fill:#AEF9C0;}
	.st57{fill:none;stroke:#FFFFFF;stroke-width:1.8326;stroke-miterlimit:10;}
	.st58{fill:#9AF6F9;}
	.st59{fill:#FFACA2;}
	.st60{fill:#F9E582;}
	.st61{fill:#FFC08B;}
	.st62{fill:#EFEB6A;}
	.st63{fill:#EC987F;}
	.st64{fill:#B5FFCC;}
	.st65{fill:#FFEDA2;}
	.st66{fill:#CCE7CC;}
	.st67{fill:#ABE7AB;}
	.st68{fill:#A6A6A6;}
	.st69{clip-path:url(#SVGID_60_);}
	.st70{fill:none;stroke:#333333;stroke-width:0.4706;stroke-linecap:round;stroke-linejoin:round;stroke-miterlimit:10;}
	.st71{fill:#FFEC55;}
	.st72{fill:none;stroke:#333333;stroke-width:0.8177;stroke-miterlimit:10;}
	.st73{clip-path:url(#SVGID_62_);}
	.st74{clip-path:url(#SVGID_64_);}
	.st75{fill:#FF7A59;}
	.st76{clip-path:url(#SVGID_66_);}
	.st77{clip-path:url(#SVGID_68_);}
	.st78{fill:#B45FFF;}
	.st79{clip-path:url(#SVGID_70_);}
	.st80{opacity:0.2;fill:#002CBF;}
	.st81{fill:none;stroke:#333333;stroke-width:0.5506;stroke-linecap:round;stroke-linejoin:round;stroke-miterlimit:10;}
	.st82{clip-path:url(#SVGID_72_);}
	.st83{fill:#EAA871;}
	.st84{fill:#FFD836;}
	.st85{fill:#FF846B;}
	.st86{fill:none;stroke:#333333;stroke-width:0.804;stroke-linecap:round;stroke-linejoin:round;stroke-miterlimit:10;}
	.st87{fill:#FEFF4A;}
	.st88{fill:none;stroke:#333333;stroke-width:0.7645;stroke-linecap:round;stroke-linejoin:round;stroke-miterlimit:10;}
	.st89{fill:none;stroke:#333333;stroke-width:0.7645;stroke-miterlimit:10;}
	.st90{fill:none;stroke:#333333;stroke-width:2.9248;stroke-linecap:round;stroke-linejoin:round;stroke-miterlimit:10;}
	.st91{fill:none;stroke:#333333;stroke-width:0.945;stroke-linecap:round;stroke-linejoin:round;stroke-miterlimit:10;}
	.st92{fill:none;stroke:#333333;stroke-width:0.945;stroke-miterlimit:10;}
	.st93{fill:none;stroke:#333333;stroke-width:3.6155;stroke-linecap:round;stroke-linejoin:round;stroke-miterlimit:10;}
	.st94{fill:none;stroke:#333333;stroke-width:0.6228;stroke-miterlimit:10;}
	.st95{fill:none;stroke:#333333;stroke-width:0.7778;stroke-linecap:round;stroke-linejoin:round;stroke-miterlimit:10;}
	.st96{fill:#FF712A;}
	.st97{fill:none;stroke:#333333;stroke-width:0.7396;stroke-linecap:round;stroke-linejoin:round;stroke-miterlimit:10;}
	.st98{fill:none;stroke:#333333;stroke-width:0.7396;stroke-miterlimit:10;}
	.st99{fill:none;stroke:#333333;stroke-width:2.8295;stroke-linecap:round;stroke-linejoin:round;stroke-miterlimit:10;}
	.st100{fill:none;stroke:#333333;stroke-width:0.9142;stroke-linecap:round;stroke-linejoin:round;stroke-miterlimit:10;}
	.st101{fill:none;stroke:#333333;stroke-width:0.9142;stroke-miterlimit:10;}
	.st102{fill:none;stroke:#333333;stroke-width:3.4977;stroke-linecap:round;stroke-linejoin:round;stroke-miterlimit:10;}
	.st103{fill:none;stroke:#333333;stroke-width:0.6025;stroke-miterlimit:10;}
	.st104{fill:url(#SVGID_89_);}
	.st105{fill:url(#SVGID_90_);}
	.st106{fill:none;stroke:#333333;stroke-width:0.7438;stroke-linecap:round;stroke-linejoin:round;stroke-miterlimit:10;}
	.st107{fill:none;stroke:#333333;stroke-width:0.8926;stroke-linecap:round;stroke-linejoin:round;stroke-miterlimit:10;}
	.st108{clip-path:url(#SVGID_92_);fill:url(#SVGID_93_);}
	.st109{fill:url(#SVGID_94_);}
	.st110{fill:#52C5FF;}
	.st111{fill:none;stroke:#333333;stroke-width:0.6367;stroke-linecap:round;stroke-linejoin:round;stroke-miterlimit:10;}
	.st112{fill:none;stroke:#333333;stroke-width:2.7061;stroke-linecap:round;stroke-linejoin:round;stroke-miterlimit:10;}
	.st113{fill:none;stroke:#333333;stroke-width:0.5763;stroke-miterlimit:10;}
	.st114{fill:none;stroke:#FFFFFF;stroke-width:1.3042;stroke-linecap:round;stroke-linejoin:round;stroke-miterlimit:10;}
	.st115{fill:none;stroke:#FFFFFF;stroke-width:0.8375;stroke-linecap:round;stroke-linejoin:round;stroke-miterlimit:10;}
	.st116{clip-path:url(#SVGID_96_);}
	.st117{opacity:0.2;fill:#2E3192;}
	.st118{fill:#FEFF78;}
	.st119{opacity:0.1;fill:#2E3192;}
	.st120{fill:#FF5A50;}
	.st121{fill:none;stroke:#333333;stroke-width:0.567;stroke-linecap:round;stroke-linejoin:round;stroke-miterlimit:10;}
	.st122{fill:none;stroke:#333333;stroke-width:2.5786;stroke-linecap:round;stroke-linejoin:round;stroke-miterlimit:10;}
	.st123{fill:none;stroke:#333333;stroke-width:0.5491;stroke-miterlimit:10;}
	.st124{clip-path:url(#SVGID_98_);}
	.st125{fill:#2AD2FF;}
	.st126{fill:none;stroke:#333333;stroke-width:0.2435;stroke-miterlimit:10;}
	.st127{fill:#FFFFFF;stroke:#333333;stroke-width:0.487;stroke-linecap:round;stroke-linejoin:round;stroke-miterlimit:10;}
	.st128{clip-path:url(#SVGID_100_);}
	.st129{fill:url(#SVGID_101_);}
	.st130{opacity:0.4;fill:#FFFFFF;}
	.st131{fill:#FFDC48;}
	.st132{fill:none;stroke:#333333;stroke-width:0.5835;stroke-linecap:round;stroke-linejoin:round;stroke-miterlimit:10;}
	.st133{fill:none;stroke:#333333;stroke-width:2.6537;stroke-linecap:round;stroke-linejoin:round;stroke-miterlimit:10;}
	.st134{fill:#F0F462;}
	.st135{fill:url(#SVGID_102_);}
	.st136{fill:url(#SVGID_103_);}
	.st137{fill:#D1DADF;}
	.st138{fill:#57FFA3;}
	.st139{clip-path:url(#SVGID_105_);}
	.st140{clip-path:url(#SVGID_107_);}
	.st141{fill:#D0BBF9;}
	.st142{clip-path:url(#SVGID_109_);}
	.st143{fill:none;stroke:#333333;stroke-width:0.5867;stroke-linecap:round;stroke-linejoin:round;stroke-miterlimit:10;}
	.st144{clip-path:url(#SVGID_111_);}
	.st145{fill:none;stroke:#333333;stroke-width:0.5514;stroke-linecap:round;stroke-linejoin:round;stroke-miterlimit:10;}
	.st146{fill:#D1E9D3;}
	.st147{clip-path:url(#SVGID_113_);}
	.st148{fill:none;stroke:#333333;stroke-width:0.7684;stroke-linecap:round;stroke-linejoin:round;stroke-miterlimit:10;}
	.st149{fill:none;stroke:#333333;stroke-width:0.7684;stroke-miterlimit:10;}
	.st150{fill:none;stroke:#333333;stroke-width:2.9398;stroke-linecap:round;stroke-linejoin:round;stroke-miterlimit:10;}
	.st151{clip-path:url(#SVGID_115_);}
	.st152{fill:#FF66F8;}
	.st153{fill:none;stroke:#333333;stroke-width:0.7542;stroke-linecap:round;stroke-linejoin:round;stroke-miterlimit:10;}
	.st154{fill:none;stroke:#333333;stroke-width:0.9051;stroke-linecap:round;stroke-linejoin:round;stroke-miterlimit:10;}
	.st155{fill:none;stroke:#333333;stroke-width:0.5146;stroke-linecap:round;stroke-linejoin:round;stroke-miterlimit:10;}
	.st156{fill:none;stroke:#333333;stroke-width:0.6033;stroke-linecap:round;stroke-linejoin:round;stroke-miterlimit:10;}
	.st157{fill:none;stroke:#333333;stroke-width:2.7439;stroke-linecap:round;stroke-linejoin:round;stroke-miterlimit:10;}
	.st158{fill:#333333;stroke:#333333;stroke-width:1.0293;stroke-linecap:round;stroke-linejoin:round;stroke-miterlimit:10;}
	.st159{fill:#FF5F2A;}
	.st160{fill:none;stroke:#333333;stroke-width:0.5965;stroke-linecap:round;stroke-linejoin:round;stroke-miterlimit:10;}
	.st161{fill:#F9CC3E;}
	.st162{clip-path:url(#SVGID_121_);}
	.st163{fill:#70E1FF;}
	.st164{fill:none;stroke:#333333;stroke-width:0.5717;stroke-linecap:round;stroke-linejoin:round;stroke-miterlimit:10;}
	.st165{fill:none;stroke:#333333;stroke-width:2.6004;stroke-linecap:round;stroke-linejoin:round;stroke-miterlimit:10;}
	.st166{clip-path:url(#SVGID_123_);}
	.st167{fill:#8F61FF;}
	.st168{clip-path:url(#SVGID_125_);}
	.st169{clip-path:url(#SVGID_127_);}
	.st170{fill:#FFEBEB;}
	.st171{clip-path:url(#SVGID_129_);}
	.st172{clip-path:url(#SVGID_131_);}
	.st173{fill:#F47D62;}
	.st174{fill:none;stroke:#333333;stroke-width:0.7188;stroke-linecap:round;stroke-linejoin:round;stroke-miterlimit:10;}
	.st175{fill:none;stroke:#333333;stroke-width:0.7188;stroke-miterlimit:10;}
	.st176{fill:none;stroke:#333333;stroke-width:2.7502;stroke-linecap:round;stroke-linejoin:round;stroke-miterlimit:10;}
	.st177{fill:#85ACB5;}
	.st178{clip-path:url(#SVGID_133_);}
	.st179{fill:#D5F2F7;}
	.st180{fill:#FF694A;}
	.st181{fill:none;stroke:#333333;stroke-width:0.5693;stroke-linecap:round;stroke-linejoin:round;stroke-miterlimit:10;}
	.st182{fill:#FFDF15;}
	.st183{fill:none;stroke:#333333;stroke-width:0.6674;stroke-linecap:round;stroke-linejoin:round;stroke-miterlimit:10;}
	.st184{fill:none;stroke:#333333;stroke-width:3.0352;stroke-linecap:round;stroke-linejoin:round;stroke-miterlimit:10;}
	.st185{clip-path:url(#SVGID_135_);}
	.st186{clip-path:url(#SVGID_137_);}
	.st187{fill:none;stroke:#333333;stroke-width:0.5248;stroke-linecap:round;stroke-linejoin:round;stroke-miterlimit:10;}
	.st188{fill:#FFD33A;}
	.st189{fill:none;stroke:#333333;stroke-width:2.7983;stroke-linecap:round;stroke-linejoin:round;stroke-miterlimit:10;}
	.st190{fill:none;stroke:#333333;stroke-width:0.7692;stroke-linecap:round;stroke-linejoin:round;stroke-miterlimit:10;}
	.st191{fill:none;stroke:#333333;stroke-width:0.5959;stroke-miterlimit:10;}
	.st192{clip-path:url(#SVGID_143_);}
	.st193{fill:#FFE267;}
	.st194{clip-path:url(#SVGID_149_);}
	.st195{fill:#FFEEAA;}
	.st196{opacity:0.7;fill:url(#SVGID_152_);}
	.st197{fill:none;stroke:#333333;stroke-width:0.611;stroke-miterlimit:10;}
	.st198{clip-path:url(#SVGID_154_);}
	.st199{opacity:0.7;fill:url(#SVGID_157_);}
	.st200{fill:#EABBFC;}
	.st201{opacity:0.7;fill:url(#SVGID_160_);}
	.st202{opacity:0.7;fill:url(#SVGID_163_);}
	.st203{opacity:0.7;fill:url(#SVGID_166_);}
	.st204{opacity:0.7;fill:url(#SVGID_169_);}
	.st205{clip-path:url(#SVGID_171_);}
	.st206{fill:none;stroke:#333333;stroke-width:0.5899;stroke-linecap:round;stroke-linejoin:round;stroke-miterlimit:10;}
	.st207{fill:none;stroke:#333333;stroke-width:2.6828;stroke-linecap:round;stroke-linejoin:round;stroke-miterlimit:10;}
	.st208{fill:none;stroke:#333333;stroke-width:0.5713;stroke-miterlimit:10;}
	.st209{clip-path:url(#SVGID_173_);}
	.st210{clip-path:url(#SVGID_175_);}
	.st211{clip-path:url(#SVGID_177_);}
	.st212{fill:#FFAFC3;}
	.st213{fill:#A0D3FF;}
	.st214{fill:none;stroke:#333333;stroke-width:0.7262;stroke-linecap:round;stroke-linejoin:round;stroke-miterlimit:10;}
	.st215{fill:none;stroke:#333333;stroke-width:0.6906;stroke-miterlimit:10;}
	.st216{fill:none;stroke:#333333;stroke-width:0.8536;stroke-miterlimit:10;}
	.st217{fill:#333333;stroke:#333333;stroke-width:0.991;stroke-linecap:round;stroke-linejoin:round;stroke-miterlimit:10;}
	.st218{clip-path:url(#SVGID_179_);}
	.st219{clip-path:url(#SVGID_181_);}
	.st220{fill:#FD9994;}
	.st221{opacity:0.2;}
	.st222{fill:#2E3192;}
	.st223{display:inline;fill:#FF5B00;}
</style>
<g id="site">
</g>
<g id="kitties">
	<g>
		<g>
			<path class="st78" d="M110.5,119.8c0,0,2.3-4.4,5.8-6.5s7.8-4.2,7.8-4.2s-3.4,2.7-3.2,5.3c0.2,2.7,3.3,8.9,3.9,10.1
				c0.5,1.3,0.9,4.4,0.9,4.4s0.7-1.2,1-1.9c0.3-0.7,1.7,5,0.7,8.5c-1,3.6-1.7,4.2-1.7,4.1s1.9-1.3,1.9-1.3s-1.3,3.1-2,3.9
				c-0.7,0.9-3.6,2.9-3.6,2.9s1.7-0.1,1.7,0c0.1,0.2-4.1,4-9.1,2.2S110.5,119.8,110.5,119.8"/>
			<path class="st24" d="M126.7,127c0,0,0.9,8.3-2.4,13.2c-0.1,0.2,0.1,0.5,0.3,0.3l2.6-1.9c0,0-1.4,0.9-1.7,1.1
				c-0.3,0.2,2.2-2.5,2.1-7.1C127.6,128,126.7,127,126.7,127"/>
			<path class="st24" d="M119.2,111.6c0,0-5.9,3.3-5.3,11c0.6,7.8,2.7,9,2,15.3l-5.4-18.2C110.5,119.8,113,114.2,119.2,111.6"/>
			<g>
				<path class="st26" d="M124.2,109.2c-1.4,1.2-2.6,2.8-2.9,4.5c-0.1,0.9,0,1.8,0.2,2.7c0.2,0.9,0.5,1.8,0.9,2.6
					c0.7,1.7,1.7,3.3,2.5,5.1c0.4,0.9,0.8,1.8,0.9,2.8c0.1,1,0,2-0.5,2.9l0,0c-0.1,0.1-0.2,0.1-0.3,0.1c-0.1-0.1-0.1-0.2-0.1-0.3
					c0.8-1.7,0.2-3.6-0.7-5.2c-0.9-1.7-1.9-3.3-2.6-5.1c-0.4-0.9-0.7-1.8-0.9-2.8c-0.2-0.9-0.4-2-0.2-3c0.4-2,1.8-3.6,3.4-4.7
					c0.1,0,0.2,0,0.2,0C124.3,109,124.3,109.1,124.2,109.2L124.2,109.2z"/>
			</g>
			<g>
				<path class="st26" d="M126.7,126.6c0.1,0.6,0,1.2-0.2,1.8c-0.1,0.3-0.2,0.6-0.4,0.8c-0.2,0.3-0.4,0.5-0.7,0.6
					c-0.1,0-0.2,0-0.2-0.1c0-0.1,0-0.1,0-0.2l0,0c0.7-0.8,1-1.9,1.3-3l0,0c0-0.1,0.1-0.1,0.1-0.1
					C126.7,126.5,126.7,126.5,126.7,126.6z"/>
			</g>
			<g>
				<path class="st26" d="M126.7,126.5c0.5,1.1,0.8,2.2,1.1,3.4c0.2,1.2,0.3,2.4,0.3,3.6c-0.1,1.2-0.3,2.4-0.7,3.5
					c-0.4,1.1-1.1,2.2-1.9,3c-0.1,0.1-0.2,0.1-0.3,0c-0.1-0.1-0.1-0.2,0-0.3l0,0c0.6-1,1.2-1.9,1.5-3c0.3-1.1,0.6-2.2,0.6-3.3
					c0.1-1.1,0-2.3-0.1-3.4c-0.1-1.1-0.4-2.3-0.7-3.4l0,0c0-0.1,0-0.2,0.1-0.2C126.6,126.4,126.7,126.5,126.7,126.5z"/>
			</g>
			<g>
				<path class="st26" d="M125.1,139.7c0.8-0.6,1.7-1.2,2.4-1.9c0.1-0.1,0.1,0,0.2,0c0,0,0,0.1,0,0.2c-0.3,0.5-0.7,0.9-1.1,1.2
					c-0.4,0.3-0.9,0.6-1.4,0.8c-0.1,0-0.2,0-0.2-0.1C125.1,139.9,125.1,139.8,125.1,139.7z"/>
			</g>
			<g>
				<path class="st26" d="M127.8,138c-0.3,1.7-1,3.2-2,4.6c-0.5,0.7-1.1,1.3-1.8,1.8c-0.7,0.5-1.5,0.9-2.3,1.1c-0.1,0-0.2,0-0.3-0.2
					c0-0.1,0-0.2,0.1-0.3l0,0c0.7-0.4,1.4-0.8,2-1.3c0.6-0.5,1.2-1.1,1.6-1.7c0.5-0.6,0.9-1.3,1.3-2c0.4-0.7,0.8-1.4,1.1-2.2l0,0
					c0-0.1,0.1-0.1,0.2-0.1C127.8,137.8,127.8,137.9,127.8,138z"/>
			</g>
			<g>
				<path class="st26" d="M121.6,145.2c0.7,0,1.5-0.1,2.2-0.2l0,0c0.1,0,0.2,0,0.2,0.1c0,0.1,0,0.1-0.1,0.2
					c-0.8,0.3-1.5,0.3-2.3,0.2c-0.1,0-0.2-0.1-0.2-0.2C121.4,145.2,121.5,145.2,121.6,145.2L121.6,145.2z"/>
			</g>
			<g>
				<path class="st26" d="M123.9,145.2c-0.4,0.6-1,1.1-1.7,1.5c-0.6,0.4-1.3,0.7-2.1,0.9c-0.7,0.2-1.5,0.3-2.2,0.3
					c-0.4,0-0.7,0-1.1,0c-0.4,0-0.7-0.1-1.1-0.2c-0.1,0-0.2-0.1-0.2-0.3c0-0.1,0.1-0.2,0.2-0.2l0,0c0.7,0,1.4,0,2.1-0.1
					c0.7-0.1,1.4-0.2,2.1-0.4c0.7-0.2,1.3-0.4,1.9-0.7c0.6-0.3,1.2-0.7,1.8-1.1l0,0c0.1-0.1,0.2,0,0.2,0
					C124,145.1,124,145.2,123.9,145.2z"/>
			</g>
		</g>
		<g>
			<path class="st26" d="M124.2,109.2c-1.5,0.7-2.9,1.4-4.4,2.2c-1.4,0.8-2.8,1.7-4.1,2.7c-1.3,1-2.5,2.1-3.5,3.3
				c-1,1.3-1.8,2.7-2.2,4.2l0,0c0,0.1-0.2,0.2-0.3,0.2c-0.1,0-0.2-0.1-0.2-0.2c0.3-1.7,1-3.2,2-4.6c1-1.4,2.3-2.5,3.6-3.5
				c1.3-1,2.8-1.9,4.2-2.6c1.5-0.8,3-1.4,4.6-1.9c0.1,0,0.2,0,0.2,0.1C124.3,109.1,124.3,109.2,124.2,109.2L124.2,109.2z"/>
		</g>
		<path class="st78" d="M69.3,43.4c0,0-6.1-9.5-13-11.7s-9,1-10.6,3.5c-1.5,2.5-1.8,4.3-1.3,4.1c0.6-0.1,3.1-2.7,3.1-2.7
			s1.7,0.9,1.7,5.3c0,4.3-2.3,11.1,4.2,13.5C53.4,55.5,57.2,47.6,69.3,43.4z"/>
		<path class="st78" d="M104.3,43.4c0,0,6.1-9.5,13-11.7c6.9-2.2,9,1,10.6,3.5c1.5,2.5,1.8,4.3,1.3,4.1c-0.6-0.1-3.1-2.7-3.1-2.7
			s-1.7,0.9-1.7,5.3c0,4.3,2.3,11.1-4.2,13.5C120.1,55.5,116.4,47.6,104.3,43.4z"/>
		<g>
			<g>
				<path class="st26" d="M126.1,36.8c-0.6,0.6-0.9,1.4-1.1,2.2c-0.2,0.8-0.2,1.7-0.3,2.6c-0.1,1.7,0.1,3.5,0.2,5.3
					c0.1,0.9,0.2,1.8,0.1,2.7c-0.1,0.9-0.3,1.8-0.7,2.6c-0.7,1.7-2.2,3.1-4.1,3.4c-0.1,0-0.1,0-0.2-0.1c0-0.1,0-0.1,0.1-0.2
					c1.7-0.4,3.1-1.7,3.7-3.3c0.3-0.8,0.6-1.6,0.6-2.5c0.1-0.9-0.1-1.7-0.1-2.6c-0.2-1.8-0.3-3.6-0.4-5.4c0-0.9,0.1-1.8,0.4-2.7
					c0.3-0.9,0.7-1.8,1.6-2.3c0.1,0,0.2,0,0.2,0C126.2,36.6,126.2,36.7,126.1,36.8L126.1,36.8z"/>
			</g>
			<g>
				<path class="st26" d="M104.1,43.2c1.8-2.7,3.9-5.2,6.3-7.4c1.2-1.1,2.5-2.2,3.8-3c1.4-0.9,2.9-1.5,4.5-2c1.6-0.4,3.4-0.5,5,0.2
					c1.6,0.7,2.7,2,3.7,3.3c0.9,1.4,1.7,2.8,2.1,4.5c0,0.1,0,0.2,0.1,0.3c0,0.1,0,0.1,0,0.2c0,0.1-0.2,0.3-0.3,0.3
					c-0.4-0.1-0.5-0.2-0.7-0.3c-0.3-0.2-0.6-0.5-0.9-0.8c-0.6-0.6-1.2-1.1-1.7-1.7c-0.1-0.1-0.1-0.1,0-0.2c0.1-0.1,0.1,0,0.2,0
					c0.6,0.6,1.2,1.1,1.8,1.6c0.3,0.3,0.6,0.5,0.9,0.7c0.1,0.1,0.4,0.2,0.4,0.2c0,0-0.1,0.1-0.1,0.1l0-0.1c0-0.1,0-0.2-0.1-0.3
					c-0.4-1.5-1.3-2.9-2.2-4.2c-0.9-1.3-2-2.5-3.5-3c-1.4-0.6-3-0.5-4.5-0.1c-3.1,0.7-5.8,2.6-8.1,4.7c-2.4,2.2-4.5,4.6-6.3,7.2l0,0
					c-0.1,0.1-0.2,0.1-0.3,0C104,43.5,104,43.3,104.1,43.2z"/>
			</g>
			<g>
				<path class="st26" d="M124.9,35.4c-0.6-0.7-1.4-1.3-2.3-1.7c-0.4-0.2-0.9-0.2-1.3-0.2c-0.4,0.1-0.8,0.3-1.3,0.5
					c-1.6,1-3.1,2.2-4.7,3.4c-1.5,1.2-3.1,2.4-4.6,3.6c-0.8,0.6-1.6,1.1-2.4,1.7c-0.8,0.5-1.7,1-2.6,1.4c-0.1,0-0.1,0-0.2-0.1
					c0-0.1,0-0.1,0.1-0.1l0,0c1.8-0.7,3.3-2,4.8-3.2L115,37c1.5-1.2,3.1-2.4,4.8-3.4c0.4-0.2,0.9-0.5,1.5-0.5
					c0.5-0.1,1.1,0.1,1.6,0.2c1,0.4,1.7,1.1,2.3,1.9c0.1,0.1,0.1,0.2,0,0.3C125,35.5,124.9,35.4,124.9,35.4z"/>
			</g>
			<path class="st26" d="M118.9,34.4c0,0,2.7,9.6-7,12.6l-6.1-3l3.8-2.6L118.9,34.4z"/>
		</g>
		<g>
			<path class="st26" d="M47.7,36.5c0.8,0.5,1.3,1.4,1.6,2.3c0.3,0.9,0.5,1.8,0.4,2.7c0,1.8-0.2,3.6-0.4,5.4
				c-0.1,0.9-0.2,1.8-0.1,2.6c0.1,0.9,0.3,1.7,0.6,2.5c0.7,1.6,2,2.9,3.7,3.3c0.1,0,0.1,0.1,0.1,0.2c0,0.1-0.1,0.1-0.2,0.1
				c-1.8-0.3-3.3-1.7-4.1-3.4c-0.4-0.8-0.6-1.7-0.7-2.6c-0.1-0.9,0-1.8,0.1-2.7c0.1-1.8,0.3-3.6,0.2-5.3c-0.1-0.9-0.1-1.7-0.3-2.6
				c-0.2-0.8-0.5-1.7-1.1-2.2l0,0c-0.1-0.1-0.1-0.1,0-0.2C47.6,36.5,47.6,36.5,47.7,36.5z"/>
		</g>
		<g>
			<path class="st26" d="M69.1,43.5c-1.9-2.6-4-5.1-6.3-7.2c-2.4-2.2-5-4-8.1-4.7c-1.5-0.4-3.1-0.5-4.5,0.1c-1.4,0.5-2.5,1.7-3.5,3
				c-0.9,1.3-1.7,2.7-2.2,4.2c0,0.1,0,0.2-0.1,0.3l0,0.1c0,0-0.1-0.1-0.1-0.1c0,0,0.3-0.1,0.4-0.2c0.3-0.2,0.6-0.5,0.9-0.7
				c0.6-0.5,1.2-1.1,1.8-1.6c0.1-0.1,0.1-0.1,0.2,0c0.1,0.1,0.1,0.1,0,0.2c-0.6,0.6-1.1,1.2-1.7,1.7c-0.3,0.3-0.6,0.5-0.9,0.8
				c-0.2,0.1-0.3,0.3-0.7,0.3c-0.1,0-0.3-0.2-0.3-0.3c0-0.1,0-0.1,0-0.2c0-0.1,0-0.2,0.1-0.3c0.4-1.6,1.2-3.1,2.1-4.5
				c0.9-1.3,2.1-2.7,3.7-3.3c1.6-0.7,3.4-0.5,5-0.2c1.6,0.4,3.2,1.1,4.5,2c1.4,0.9,2.7,1.9,3.8,3c2.4,2.2,4.4,4.8,6.3,7.4
				c0.1,0.1,0,0.2-0.1,0.3C69.3,43.6,69.2,43.6,69.1,43.5L69.1,43.5z"/>
		</g>
		<g>
			<path class="st26" d="M48.4,35.1c0.6-0.8,1.4-1.5,2.3-1.9c0.5-0.2,1-0.3,1.6-0.2c0.5,0,1,0.3,1.5,0.5c1.7,1,3.3,2.2,4.8,3.4
				l4.5,3.7c1.5,1.2,3,2.5,4.8,3.2l0,0C68,43.9,68,44,68,44c0,0.1-0.1,0.1-0.1,0.1c-1-0.3-1.8-0.8-2.6-1.4c-0.8-0.5-1.6-1.1-2.4-1.7
				c-1.6-1.2-3.1-2.4-4.6-3.6c-1.5-1.2-3-2.5-4.7-3.4c-0.4-0.2-0.8-0.4-1.3-0.5c-0.4-0.1-0.9,0-1.3,0.2c-0.8,0.3-1.6,1-2.3,1.7
				c-0.1,0.1-0.2,0.1-0.3,0C48.3,35.3,48.3,35.2,48.4,35.1z"/>
		</g>
		<path class="st26" d="M54.7,34.4c0,0-2.7,9.6,7,12.6l6.1-3l-3.8-2.6L54.7,34.4z"/>
		<path class="st30" d="M134.7,66.8c-4.8-9.9-9.9-16.9-19.7-22.2c-7.1-3.8-13.7-6.5-27.4-6.7c-12.8-0.2-12-0.9-29.2,7.7
			s-23,36.2-21.8,42.8c1.2,6.6,19.5,14.1,23.1,15.6c1.8,0.7,4.8,1.8,6.8,2.5c-0.6,0-0.3,1.1-0.3,1.1s-6.9,14.8-9,24.4
			c-2.1,9.6,0.4,13.3,2.7,15.3c1.6,1.5,6,2.2,11.6,2.5c0.7,0-0.1,1.6-0.9,2c-1.5,0.6-0.5,2.5,0.3,3.1c0.9,0.6,3.1,0,3.3,0
			c0.4,0,1.4-5,1.8-5c1.2,0,2.4,0,3.4,0c4.8,0,14,0,20.2-0.1c0.7,0,0.6,4,1.9,4.9c0.4,0.5,3.2,1.5,4.5-0.9c0.9-1.6-2-2.4-1.8-2.4
			c0.5,0-0.4-1.6,0-1.6c1.1,0,1.8,0,1.8,0s10.3-0.8,12-4.7c1.7-4,0.8-12.4-0.8-17.9c-1.7-5.8-7.6-19.5-7.6-19.5s0.4-1.1-0.1-1.1
			c7.2-2.8,24.2-8.6,28.9-15.9C139.8,88.5,139.5,76.7,134.7,66.8z"/>
		<g>
			<defs>
				<path id="SVGID_71_" d="M134.7,66.8c-4.8-9.9-9.9-16.9-19.7-22.2c-7.1-3.8-13.7-6.5-27.4-6.7c-12.8-0.2-12-0.9-29.2,7.7
					s-23,36.2-21.8,42.8c1.2,6.6,19.5,14.1,23.1,15.6c1.8,0.7,4.8,1.8,6.8,2.5c-0.6,0-0.3,1.1-0.3,1.1s-6.9,14.8-9,24.4
					c-2.1,9.6,0.4,13.3,2.7,15.3c1.6,1.5,6,2.2,11.6,2.5c0.7,0-0.1,1.6-0.9,2c-1.5,0.6-0.5,2.5,0.3,3.1c0.9,0.6,3.1,0,3.3,0
					c0.4,0,1.4-5,1.8-5c1.2,0,2.4,0,3.4,0c4.8,0,14,0,20.2-0.1c0.7,0,0.6,4,1.9,4.9c0.4,0.5,3.2,1.5,4.5-0.9c0.9-1.6-2-2.4-1.8-2.4
					c0.5,0-0.4-1.6,0-1.6c1.1,0,1.8,0,1.8,0s10.3-0.8,12-4.7c1.7-4,0.8-12.4-0.8-17.9c-1.7-5.8-7.6-19.5-7.6-19.5s0.4-1.1-0.1-1.1
					c7.2-2.8,24.2-8.6,28.9-15.9C139.8,88.5,139.5,76.7,134.7,66.8z"/>
			</defs>
			<clipPath id="SVGID_2_">
				<use xlink:href="#SVGID_71_"  style="overflow:visible;"/>
			</clipPath>
			<g style="clip-path:url(#SVGID_2_);">
				<path class="st75" d="M69.5,134.2c0,0-0.5,1-1.8,1.4c-1.4,0.5-1.3-2.4-1.3-2.4c-0.9,2-1.6,2.1-2.3,1.7c-0.7-0.4,1.1-3.8,1.1-3.8
					s-0.8,0.9-1.6,0c-0.8-0.9,1-3.1,1.7-3.6c0.7-0.5,1.1,0.3,1.4,0.4s0.6-0.9,0.8-2.8c0.2-1.8,1.2-3.7,1.2-3.7
					c-0.9,0.1-1.6,2.8-2.6,3.2c-1,0.4-1.1-0.8-0.9-1.5c0.2-0.7,0.5-2.5,0.2-2.9c-0.3-0.5-1.6-1.5-0.3-3.2c1.3-1.7,0.9-3,0.9-3
					c-0.3,0.8-0.8,1.3-1.6,1.7c-0.7,0.3-1.4-0.4-1.4-0.4c-0.5-0.3-0.4-1.3-0.4-1.3s-1,2.8-2.3,6.6c0.3,0,1.1-0.1,1.5-0.5
					c0.5-0.5,2-0.3,2.1,0.9c0.1,1.1-2.1-0.9-1,3.5c0.3,1.1-1,0.9-0.9,3.1c0,1-1.1-2.2-0.6-3.3c0.5-1.1,0.1-1.6-0.4-1.4
					c-0.5,0.2-1.2,1.9-2.2,2.1c-0.2,0.7-0.5,1.4-0.7,2.1c-2.3,6.7-2,10-2,10s-0.8,6.8,1.6,9.3c2.3,2.5,7.1,3.1,7.1,3.1
					c-1.5-1.4,2.1-7.7,2.1-7.7c-1.7-0.2,0.5-3.7,1.4-4.7C69.4,136.2,69.5,134.2,69.5,134.2z M60,140.9c0.1-0.6-0.1-1.2-0.4-1.7
					c-0.2-0.5,0-1.7,0-1.7c-1.7,0.1-1.9-1.8-1.3-2.8c0.6-1,0.7-2.2,0.7-2.2c0.7,1.3-0.3,2.5,0.8,3c1.1,0.5,2.3-3.2,2.3-3.2
					c1,3.5-1.4,5.4-1.4,5.4C61.3,139.7,60,140.9,60,140.9z M62.5,142.8c-0.9,0.6-1.6-1-1.6-1s0.9,0.2,1.2-0.2
					c0.4-0.4,0.4-3.1,0.4-3.1S63.5,142.3,62.5,142.8z"/>
				<path class="st75" d="M107.1,137.2c1,1,3.1,4.5,1.4,4.7c0,0,3.6,6.2,2.1,7.7c0,0,4.8-0.7,7.1-3.1c2.3-2.5,1.6-9.3,1.6-9.3
					s0.3-3.3-2-10c-0.2-0.7-0.5-1.4-0.7-2.1c-1.1-0.2-1.8-2-2.2-2.1c-0.5-0.2-0.9,0.3-0.4,1.4c0.5,1.1-0.7,4.3-0.6,3.3
					c0.1-2.2-1.1-2-0.9-3.1c1.1-4.4-1.1-2.4-1-3.5c0.1-1.1,1.6-1.3,2.1-0.9c0.4,0.4,1.2,0.5,1.5,0.5c-1.3-3.8-2.3-6.6-2.3-6.6
					s0.1,1-0.4,1.3c0,0-0.7,0.7-1.4,0.4c-0.7-0.3-1.3-0.9-1.6-1.7c0,0-0.4,1.2,0.9,3c1.3,1.7,0,2.8-0.3,3.2c-0.3,0.5,0,2.2,0.2,2.9
					c0.2,0.7,0.1,1.9-0.9,1.5c-1-0.4-1.7-3.1-2.6-3.2c0,0,1,1.8,1.2,3.7c0.2,1.8,0.6,2.8,0.8,2.8c0.2,0,0.6-0.9,1.4-0.4
					c0.7,0.5,2.5,2.7,1.7,3.6c-0.8,0.9-1.6,0-1.6,0s1.8,3.4,1.1,3.8c-0.7,0.4-1.4,0.3-2.3-1.7c0,0,0.1,2.8-1.3,2.4s-1.8-1.4-1.8-1.4
					S106.1,136.2,107.1,137.2z M114.6,137.7c0,0-2.4-1.9-1.4-5.4c0,0,1.2,3.7,2.3,3.2c1.1-0.5,0.1-1.7,0.8-3c0,0,0.1,1.2,0.7,2.2
					c0.6,1,0.5,2.9-1.3,2.8c0,0,0.3,1.1,0,1.7c-0.2,0.5-0.5,1.1-0.4,1.7C115.5,140.9,114.2,139.7,114.6,137.7z M113,138.6
					c0,0,0,2.7,0.4,3.1c0.4,0.4,1.2,0.2,1.2,0.2s-0.6,1.5-1.6,1S113,138.6,113,138.6z"/>
				<path class="st78" d="M98.5,146.4c0,0,1.1,1.2,1.4-0.7c0.1-0.7,0.4-1.2,0.7-1.3c0.4-0.2,0.8-0.9,0.9-1.3c0,0,0.3,0.6,0.1,0.9
					s-0.5,0.8-0.3,1.4s0.1,1.2,0,1.2c-0.1,0.1,0.4,0.1,0.6-0.3c0.2-0.4,0.1-1.3,0.3-1.5c0,0,0.4,0.6,0.4,1.2c0,0.6-0.6,1.5,0.1,1.9
					c0.7,0.4,0.8-0.2,1.5-0.4l-0.2,4.2l-3.4,0.9L98.5,146.4z"/>
				<path class="st78" d="M76.4,148.6c0-0.1-0.1,0.1,0.1-0.8c0,0-1.5,1.1-1.9,0.5c-0.4-0.7,0.3-0.9,0.8-0.9c0.5,0,0.8-0.8,0.9-1.3
					c0,0-0.3,0.3-0.6,0.3s-0.6,0-0.9,0.1c0,0,0.6-0.2,0.6-0.8c0-0.6-0.3-0.8-0.4-1.3c0,0-0.2,1-0.5,1.1s-1.3,0.2-1.3,0.9
					c0,0.7-0.1,0.9-0.4,1c-0.7,0.2-1.4-0.7-1.4-0.7s0.3,0.7,0,0.9c0,0,0.1,3.7,0.4,4s3.1,1.4,3.1,1.4L76.4,148.6z"/>
				<path class="st78" d="M43.3,58.5c0,0,2.8,2.7,3.7,2.2s1.3-1.9,2.6-2.2c0,0-0.6,1.7-1.3,3.1s-0.9,2.7-0.6,4
					c0.3,1.4-1,3.2-1.2,3.3s0.3-2.7-2.2-2.7c0,0,0.5,0.9,0,1.7c-0.5,0.8-1.7,3.1-1.4,3.9c0.2,0.9,0.8,0.6,0.9,1.5
					c0.1,0.9-0.7,2.3-0.3,2.6s1.5,0.4,1.6,0.6s-1.1,2.1,0.2,1.8c1.4-0.2,2.2-2,1.5-2.9c-0.7-0.9-1.3-0.7-0.7-2.3
					c0.6-1.6,0.8-0.8,1.1-2.9c0,0,0.8-1.3,1.4-1.8c0,0,0.3,1.6-0.4,2.7c-0.7,1.1-0.3,4.4,1.4,3s1.5-3.7,3.4-4.5c0,0-0.8,1.5-0.8,2.6
					c0,1.1-1.6,3.1-1.6,3.1s0.6,2.9-0.5,3.7c0,0-0.3-1.4-1.7-0.8c-1.4,0.6-5.3,5.7-2.5,6.2c1.4,0.2,1.9-0.7,1.9-0.7
					s-0.2,2.8-1.4,3.5c-1.2,0.7-1.3,3,0.4,2.8s2.2-1.6,2.2-3.2c0,0,0.3,4.1,2.1,3.9c1.7-0.2,2.9-2,2.9-2s-0.3,4-1.4,4.5
					c0,0-0.6-1.2-1.6-0.5c-1,0.6-1,4.8-1,4.8c-0.2,0.3-0.9,0.4-0.4,2.7c0,0-1.7,15.9-3.9,11.5c0,0-13.6-19.3-11.4-20.2
					c0,0,0.3-1.1,0-3.7c0,0-0.5-2.3,1.7-3.7c0,0-1.2-2.9-1.4-4.7c0,0,0.7-3,1.1-5.5S39.6,63.7,43.3,58.5z"/>
				<path class="st78" d="M132.1,58.5c0,0-2.8,2.7-3.6,2.2s-1.3-1.9-2.6-2.2c0,0,0.6,1.7,1.3,3.1s0.9,2.7,0.6,4
					c-0.3,1.4,1,3.2,1.2,3.3c0.2,0-0.3-2.7,2.2-2.7c0,0-0.5,0.9,0,1.7s1.7,3.1,1.4,3.9c-0.2,0.9-0.8,0.6-0.9,1.5
					c-0.1,0.9,0.7,2.3,0.3,2.6c-0.5,0.3-1.5,0.4-1.6,0.6c-0.1,0.2,1.1,2.1-0.2,1.8c-1.4-0.2-2.2-2-1.5-2.9c0.7-0.9,1.3-0.7,0.7-2.3
					c-0.6-1.6-0.8-0.8-1.1-2.9c0,0-0.8-1.3-1.4-1.8c0,0-0.3,1.6,0.4,2.7c0.7,1.1,0.3,4.4-1.4,3s-1.5-3.7-3.4-4.5
					c0,0,0.8,1.5,0.8,2.6c0,1.1,1.6,3.1,1.6,3.1s-0.6,2.9,0.5,3.7c0,0,0.3-1.4,1.7-0.8c1.4,0.6,5.3,5.7,2.5,6.2
					c-1.4,0.2-1.9-0.7-1.9-0.7s0.2,2.8,1.4,3.5c1.2,0.7,1.3,3-0.4,2.8c-1.7-0.2-2.2-1.6-2.2-3.2c0,0-0.3,4.1-2.1,3.9
					c-1.7-0.2-2.9-2-2.9-2s0.3,4,1.4,4.5c0,0,0.6-1.2,1.6-0.5c1,0.6,1.5,3.3,1.3,4.7c0,0.4,1.5,0.8,0.1,2.8c0,0-0.3,9.8,1.9,5.4
					c0,0,13.3-13.6,11.1-14.5c0,0,3,0.4,3.3-2.2c0,0,1.6-3.5-0.5-4.9c0,0-1.3-0.9-1.1-2.7c0,0-0.9-2.6-1.3-5.1
					S135.8,63.7,132.1,58.5z"/>
			</g>
		</g>
		<path class="st30" d="M110.7,109.1c0,0,5.8,12.3,7.3,20.4c1.5,8.1,2.6,13.9-1.4,17.3s-12.2,2.9-12.2,2.9l1.4-11.2
			c0,0-0.3-3.2-4.4-3s-4.5,3.3-4.5,3.3l2.9,10.9l-23.7,0.1l3.2-11c0,0-1.1-5.2-1.7-4.3c-0.6,1-5.4,0.8-5.4,0.8l-1.7,3.4l1,11
			c0,0-12.4,0.3-14.2-5.5c-1.8-5.9-0.8-12.2,2.4-20.9c3.2-8.7,6.7-16.1,6.7-16.1l7.3,2c0,0,3.2,11.8,14.6,11.5
			c11.4-0.3,14.5-11.4,14.5-11.4L110.7,109.1z"/>
		<g>
			<path class="st78" d="M105.7,138.6c4.2-0.6,9.1-1.3,13.7-2.3c-0.1-1.1-0.3-2.3-0.5-3.4c-5.5,1.4-17.5,3.9-31,3.8
				c-12.9-0.1-25.1-2-31.1-3.2l0,0.1c-0.4,2-0.4,3.2-0.4,3.2c2.9,0.8,7.3,1.8,14.1,2.5c0,0,0.1-0.4,0.2-0.5c0.2-0.3,1.3-2.3,4.4-2.3
				c3,0,4.4,2.2,4.3,2.3c-0.3,1.3-0.2,1.1-0.2,1.1c0.2-0.8,0,0,0,0c5.6,0.3,10.5,0.2,17.9-0.4c-0.1-0.3-0.1-0.5-0.1-0.7
				c-0.1-0.8,1.7-2.4,4.2-2.4c2.5,0,4.8,1.2,4.6,2.1C105.7,138.5,105.7,138.6,105.7,138.6z"/>
			<g>
				<path class="st78" d="M90.9,120.4c0,0,0.1,0,0.1,0C91,120.4,91,120.4,90.9,120.4z"/>
				<path class="st78" d="M90.6,120.5c0,0,0.1,0,0.1,0C90.7,120.5,90.6,120.5,90.6,120.5z"/>
				<path class="st78" d="M89.2,120.8c0,0,0.1,0,0.1,0C89.3,120.8,89.3,120.8,89.2,120.8z"/>
				<path class="st78" d="M89.6,120.7c0,0,0.1,0,0.1,0C89.7,120.7,89.6,120.7,89.6,120.7z"/>
				<path class="st78" d="M89.9,120.7c0,0,0.1,0,0.1,0C90,120.7,89.9,120.7,89.9,120.7z"/>
				<path class="st78" d="M90.2,120.6c0,0,0.1,0,0.1,0C90.3,120.6,90.3,120.6,90.2,120.6z"/>
				<g>
					<path class="st78" d="M97.5,116.6C97.5,116.7,97.4,116.7,97.5,116.6c-0.2,0.2-0.4,0.3-0.5,0.5c0,0,0,0-0.1,0.1
						c-0.2,0.1-0.3,0.3-0.5,0.4c0,0,0,0-0.1,0.1c-0.2,0.1-0.3,0.3-0.5,0.4c0,0,0,0-0.1,0c-0.2,0.1-0.3,0.2-0.5,0.4c0,0,0,0,0,0
						c-0.2,0.1-0.4,0.2-0.6,0.3c0,0,0,0,0,0c-0.4,0.2-0.8,0.5-1.2,0.7c0,0,0,0,0,0c6-0.4,12.7-1.3,20-3c0-0.1-0.1-0.1-0.1-0.2
						c0,0,0,0,0,0c-0.1-0.2-0.1-0.3-0.2-0.5c0,0,0,0,0,0c-0.1-0.1-0.1-0.3-0.2-0.4c0,0,0,0,0,0c-0.1-0.1-0.1-0.3-0.2-0.4
						c0,0,0-0.1,0-0.1c-0.1-0.1-0.1-0.3-0.2-0.4c0,0,0-0.1,0-0.1c0-0.1-0.1-0.2-0.1-0.4c0,0,0-0.1,0-0.1c-0.1-0.1-0.1-0.3-0.2-0.4
						c-3.3,0.9-8.3,2.2-14.2,2.8l0,0C97.8,116.3,97.6,116.5,97.5,116.6z"/>
				</g>
				<path class="st78" d="M93.1,119.6C93.1,119.6,93.1,119.6,93.1,119.6C93.1,119.6,93.1,119.6,93.1,119.6z"/>
				<path class="st78" d="M91.3,120.3C91.3,120.3,91.3,120.3,91.3,120.3C91.3,120.3,91.3,120.3,91.3,120.3z"/>
				<path class="st78" d="M91.6,120.2C91.7,120.2,91.7,120.2,91.6,120.2C91.7,120.2,91.7,120.2,91.6,120.2z"/>
				<path class="st78" d="M92,120.1C92,120.1,92,120.1,92,120.1C92,120.1,92,120.1,92,120.1z"/>
				<path class="st78" d="M88.6,120.9c0,0,0.1,0,0.1,0C88.7,120.8,88.7,120.8,88.6,120.9z"/>
				<path class="st78" d="M88.9,120.8c0,0,0.1,0,0.1,0C89,120.8,89,120.8,88.9,120.8z"/>
				<path class="st78" d="M88.3,120.9C88.3,120.9,88.4,120.9,88.3,120.9C88.4,120.9,88.3,120.9,88.3,120.9z"/>
			</g>
			<path class="st78" d="M110.8,110c-0.7-1.7-1.2-3.5-1.2-3.5s-6.9,1.1-7.5,1.4c-0.1,1.4-0.5,2.8-1.1,4l0,0
				C104,111.6,107.4,110.9,110.8,110z"/>
			<g>
				<path class="st78" d="M115.9,123c-0.6-1.7-1.2-3.2-1.2-3.2c-5.3,1.4-15.4,3.6-26.6,3.5c-11.3-0.1-22-1.9-27.6-3.1
					c-0.3,0.9-0.7,1.9-1,2.8C66.7,124.9,87.2,129,115.9,123z"/>
				<path class="st78" d="M58.3,126.7L58.3,126.7c0,0,0-0.1,0-0.1C58.3,126.6,58.3,126.6,58.3,126.7z"/>
				<path class="st78" d="M59.5,122.9C59.5,122.9,59.5,123,59.5,122.9C59.5,123,59.5,122.9,59.5,122.9L59.5,122.9z"/>
			</g>
			<g>
				<path class="st78" d="M117.9,129.5c-0.2-0.8-0.4-1.6-0.6-2.4c-0.1-0.2-0.1-0.5-0.2-0.7c-6.1,1.4-16.8,3.4-28.7,3.3
					c-12.2-0.1-23.8-1.8-30.1-3c-0.3,1-0.6,2-0.9,2.9C63.1,131.4,85.7,136.8,117.9,129.5z"/>
				<path class="st78" d="M57.4,129.6c0,0.1-0.1,0.2-0.1,0.3C57.4,129.8,57.4,129.7,57.4,129.6C57.4,129.6,57.4,129.6,57.4,129.6z"
					/>
			</g>
			<g>
				<path class="st78" d="M73.6,108.6l-7.5-2c0,0-0.8,1.8-1.5,3.4c2,0.7,5.6,1.6,10,2.3C74.1,111.1,73.7,109.9,73.6,108.6z"/>
				<path class="st78" d="M82.6,119.6c-1.9-0.8-3.7-2.1-5.3-3.6c-5.8-0.7-11.1-1.7-14.2-2.4c-0.4,0.9-0.8,1.8-1.1,2.8
					C65.4,117.5,72.7,119.2,82.6,119.6z"/>
				<path class="st78" d="M77.3,116c0.1,0,0.2,0,0.3,0c-1.1-1.1-2.1-2.4-2.9-3.8c0,0-0.1,0-0.1,0C75.3,113.6,76.2,114.9,77.3,116z"
					/>
			</g>
			<path class="st78" d="M74.3,108.7l-2.7-0.4c0,0-0.1,5.1,3.7,9c3.1,3.2,7.3,5.6,12.3,5.5c5-0.1,9.2-1.9,11.5-3.8
				c2-1.6,5-5.8,5.7-8.5c0.7-2.8,0.1-2.8,0.1-2.8l-2.9,0.3c0,0-0.5,6.5-6.6,9.9c-6.5,3.7-12.9,2.4-17.4-2.1
				C74.9,112.6,74.3,108.7,74.3,108.7z"/>
			<g>
				<g>
					<path class="st78" d="M106.8,130.2l-5.2,0l-7.1,0.5l2.1,8.2c0,0,0,0,0-0.1c-0.1-0.8,1.7-2.4,4.2-2.4c2.5,0,4.8,1.2,4.6,2.1"/>
				</g>
			</g>
			<path class="st78" d="M81.7,131.6l-6.5-1.4l-6,1.4l1.2,7.9l0.1,0c0-0.3,0-0.5,0.1-0.6c0.2-0.3,1.3-2.3,4.4-2.3
				c3,0,4.4,2.2,4.3,2.3c-0.1,0.4-0.2,0.8-0.3,1.2l0.2,0L81.7,131.6z"/>
			<path class="st78" d="M98.7,146.8L98.7,146.8c-0.2-1.2-0.4-2.4-0.7-3.6c-3.5,0.3-7.3,0.5-11.2,0.4c-3,0-6-0.1-8.9-0.3
				c-0.2,0.6-0.3,1.2-0.5,1.8c-0.2,0.7-0.3,1.4-0.4,2C83.3,147.3,90.6,147.3,98.7,146.8z"/>
			<g>
				<path class="st78" d="M56.2,140.8C56.2,140.7,56.2,140.9,56.2,140.8L56.2,140.8z"/>
				<path class="st78" d="M71.1,146.8c-0.1-0.6-0.1-0.8-0.1-1.6c-0.1-1.2-0.3-2.4-0.3-2.4c-5.6-0.6-10.8-1.3-14.5-1.9
					c0.2,2,0.7,3.3,1.4,4.4c0,0,0,0,0.1,0c0,0,0,0,0,0C61.2,145.8,65.9,146.4,71.1,146.8C71.1,146.9,71.1,146.8,71.1,146.8z"/>
			</g>
			<g>
				<path class="st78" d="M104.8,142.4c-0.2,1.3-0.3,2.6-0.4,3.9c0,0,0,0,0,0c0,0,0,0,0,0c4.5-0.4,9.3-0.9,14.1-1.7
					c0.5-1.3,0.7-2.9,0.7-4.8C116.1,140.6,110.8,141.7,104.8,142.4z"/>
			</g>
		</g>
		<path class="st80" d="M115.9,123c-1.2-3.3-6.3-16.5-6.3-16.5s11.4,30.8,3.3,38.4c-1.9,1.8-5.2,2.9-8.5,3.5c0,0.1,0,0.2,0,0.3
			c0,0.2,0,0.5-0.1,0.7c0,0,0,0.1,0,0.1c0,0.1,0,0.2,0,0.3c5.2-0.1,11.1-1.1,13.3-4.2C122.1,139.7,117.1,126.2,115.9,123z"/>
		<path class="st80" d="M60,123c1.2-3.3,6.3-16.5,6.3-16.5s-11.4,30.8-3.3,38.4c1.9,1.8,5.2,2.9,8.5,3.5c0,0.1,0,0.2,0,0.3
			c0,0.2,0,0.5,0.1,0.7c0,0,0,0.1,0,0.1c0,0.1,0,0.2,0,0.3c-5.2-0.1-11.1-1.1-13.3-4.2C53.8,139.7,58.8,126.2,60,123z"/>
		<path class="st80" d="M99.6,149.2c-2.6,0.3-4.5,0.3-4.5,0.3s1.9,0.2,4.7,0.4C99.7,149.7,99.6,149.4,99.6,149.2z"/>
		<path class="st80" d="M76.6,149.2c2.6,0.3,4.5,0.3,4.5,0.3s-1.9,0.2-4.7,0.4C76.5,149.7,76.5,149.4,76.6,149.2z"/>
		<path class="st30" d="M74.8,152.4c0.1,0.1,0.2,0.2,0.3,0.3c0,0.1,0,0.2,0,0.4c-0.1,0.7-0.2,1.5-0.8,1.9c-0.4,0.3-0.9,0.3-1.4,0.3
			c-0.5,0-1-0.1-1.5-0.2c-0.5-0.1-1.1-0.3-1.4-0.7c-0.3-0.4-0.4-1-0.4-1.5c0-0.2,0-0.4,0.1-0.5c0.1-0.2,0.3-0.3,0.5-0.4
			c0.8-0.4,1.3-0.7,2.2-0.6C73.2,151.5,74.3,151.8,74.8,152.4z"/>
		<path class="st30" d="M100.9,152.4c-0.1,0.1-0.2,0.2-0.3,0.3c0,0.1,0,0.2,0,0.4c0.1,0.7,0.2,1.5,0.8,1.9c0.4,0.3,0.9,0.3,1.4,0.3
			c0.5,0,1-0.1,1.5-0.2c0.5-0.1,1.1-0.3,1.4-0.7c0.3-0.4,0.4-1,0.4-1.5c0-0.2,0-0.4-0.1-0.5c-0.1-0.2-0.3-0.3-0.5-0.4
			c-0.8-0.4-1.3-0.7-2.2-0.6C102.5,151.5,101.5,151.8,100.9,152.4z"/>
		<path d="M98.4,115.7C98.4,115.7,98.4,115.7,98.4,115.7C98.4,115.7,98.4,115.7,98.4,115.7z"/>
		<polygon points="110.8,110 110.8,110 110.8,110 		"/>
		<polygon points="112.1,113.3 112.1,113.3 112.1,113.3 		"/>
		<path d="M98.4,115.7c-0.1,0.2-0.3,0.3-0.4,0.5C98.1,116,98.3,115.9,98.4,115.7z"/>
		<path class="st30" d="M105.4,138.6C105.4,138.6,105.4,138.7,105.4,138.6C105.4,138.7,105.4,138.6,105.4,138.6L105.4,138.6z"/>
		<path class="st30" d="M97.7,142.3C97.7,142.3,97.7,142.3,97.7,142.3C97.7,142.3,97.7,142.3,97.7,142.3z"/>
		<path class="st30" d="M97.7,142.5C97.7,142.5,97.7,142.5,97.7,142.5C97.7,142.5,97.7,142.5,97.7,142.5z"/>
		<path class="st30" d="M104.8,142.4L104.8,142.4c0-0.1,0-0.1,0-0.2C104.9,142.3,104.8,142.4,104.8,142.4z"/>
		<path class="st30" d="M105,141.1c-0.1,0.4-0.1,0.8-0.2,1.2C104.9,141.9,105,141.5,105,141.1C105,141.1,105,141.1,105,141.1z"/>
		<path class="st30" d="M97.7,142.6c0,0.1,0,0.1,0.1,0.2C97.8,142.7,97.8,142.6,97.7,142.6z"/>
		<path class="st30" d="M98,143.2c0-0.2-0.1-0.3-0.1-0.5C97.9,142.9,97.9,143,98,143.2L98,143.2z"/>
		<path class="st30" d="M96.7,139.6L96.7,139.6c0.2,0.9,0.7,2,1,2.7C97.4,141.6,96.9,140.4,96.7,139.6z"/>
		<path class="st30" d="M97.7,142.4c0,0.1,0,0.1,0.1,0.1C97.7,142.5,97.7,142.4,97.7,142.4z"/>
		<path class="st30" d="M77.8,143.3C77.8,143.3,77.8,143.3,77.8,143.3c0-0.2,0.1-0.3,0.1-0.5C77.9,143,77.9,143.2,77.8,143.3z"/>
		<g>
			<g>
				<path class="st26" d="M66.1,106.5c0.2,0.6,0.9,0,0.6,0.2l0,0c0,0,0,0,0,0l0,0l0,0.1l-0.1,0.2l-0.2,0.4l-0.4,0.8l-0.7,1.6
					l-1.3,3.2c-0.9,2.2-1.7,4.3-2.5,6.5c-1.6,4.4-3,8.8-4,13.3c-0.5,2.3-0.8,4.5-0.7,6.8c0.1,2.2,0.6,4.5,2,6.2
					c1.4,1.7,3.6,2.5,5.8,2.9c1.1,0.2,2.3,0.3,3.4,0.5c1.1,0.1,2.3,0.3,3.4,0.4l0.1,0c0.1,0,0.3,0.1,0.3,0.3c0,0.1-0.1,0.3-0.3,0.3
					c-2.5,0-4.7-0.4-7-0.6c-2.3-0.3-4.8-1.2-6.4-3.1c-1.6-1.9-2.2-4.4-2.3-6.8c-0.1-2.4,0.2-4.7,0.7-7c1-4.6,2.5-9,4.2-13.4
					c0.8-2.2,1.7-4.3,2.6-6.5l1.4-3.2l0.7-1.6l0.4-0.8l0.2-0.4L66.1,106.5L66.1,106.5l0-0.1l0,0l0,0c-0.3,0.2,0.4-0.4,0.6,0.2
					c0,0.2-0.1,0.3-0.3,0.3C66.3,106.9,66.1,106.7,66.1,106.5z"/>
			</g>
			<g>
				<path class="st26" d="M76.1,149.6l11.8-0.1l5.9,0l5.9,0.1c0.1,0,0.2,0.1,0.2,0.2c0,0.1-0.1,0.2-0.2,0.2l-5.9,0.1l-5.9,0
					l-11.8-0.1c-0.2,0-0.3-0.1-0.3-0.3C75.9,149.7,76,149.6,76.1,149.6z"/>
			</g>
			<g>
				<path class="st26" d="M109.5,106.2c4.6-1.7,9.1-3.4,13.6-5.4c2.2-1,4.4-2,6.5-3.2c2.1-1.2,4.2-2.4,6-4c0.5-0.4,0.9-0.8,1.3-1.2
					c0.4-0.4,0.9-0.9,1.1-1.3c0.5-1,0.6-2.2,0.7-3.4c0.2-2.4,0-4.8-0.4-7.2c-0.7-4.8-2.1-9.5-4.1-13.9c-3.9-8.8-10.4-16.6-18.7-21.6
					c-4.1-2.5-8.7-4.3-13.4-5.4c-4.7-1.1-9.6-1.6-14.4-1.6c-4.8,0-9.7,0.5-14.4,1.6c-4.7,1.1-9.2,2.9-13.4,5.4
					c-8.3,5-14.7,12.8-18.6,21.6c-1.9,4.4-3.3,9.1-4,13.9c-0.3,2.4-0.5,4.8-0.3,7.2c0.1,1.2,0.3,2.4,0.8,3.4
					c0.1,0.1,0.1,0.2,0.2,0.3l0.3,0.3c0.2,0.2,0.4,0.4,0.6,0.6c0.4,0.4,0.9,0.8,1.3,1.2c1.9,1.5,3.9,2.8,6.1,4
					c2.1,1.2,4.3,2.2,6.5,3.2c4.4,2,9,3.7,13.6,5.4c0.1,0.1,0.2,0.2,0.2,0.3c-0.1,0.1-0.2,0.2-0.3,0.2c-4.6-1.7-9.2-3.4-13.6-5.3
					c-2.2-1-4.4-2-6.6-3.2c-2.2-1.2-4.3-2.4-6.2-4c-0.5-0.4-0.9-0.8-1.4-1.2c-0.2-0.2-0.4-0.4-0.6-0.7L37.6,92
					c-0.1-0.1-0.2-0.3-0.3-0.4c-0.6-1.2-0.8-2.5-0.9-3.7c-0.2-2.5,0-4.9,0.3-7.4c0.7-4.9,2-9.6,4-14.1c3.9-9,10.4-17,18.9-22.1
					c4.2-2.6,8.8-4.4,13.6-5.5c4.8-1.2,9.7-1.6,14.6-1.7c4.9,0,9.8,0.5,14.6,1.7c4.8,1.2,9.4,3,13.6,5.5c8.5,5.1,15,13,19,22
					c2,4.5,3.4,9.2,4.1,14.1c0.4,2.4,0.5,4.9,0.4,7.4c-0.1,1.2-0.2,2.5-0.8,3.7c-0.1,0.3-0.4,0.6-0.6,0.8c-0.2,0.2-0.4,0.5-0.6,0.7
					c-0.4,0.4-0.9,0.9-1.4,1.3c-1.9,1.6-4,2.9-6.2,4c-2.1,1.2-4.4,2.2-6.6,3.2c-4.5,2-9,3.7-13.6,5.4c-0.2,0.1-0.4,0-0.4-0.2
					C109.2,106.5,109.3,106.3,109.5,106.2z"/>
			</g>
			<g>
				<path class="st26" d="M109.3,106.5c0.2-0.6,0.9,0,0.6-0.2l0,0l0,0l0,0.1l0.1,0.1l0.1,0.2l0.2,0.4l0.4,0.8l0.7,1.6l1.3,3.2
					c0.9,2.2,1.7,4.3,2.5,6.5c1.6,4.4,3.1,8.8,4.1,13.4c0.5,2.3,0.8,4.7,0.7,7c-0.1,2.3-0.7,4.9-2.3,6.7c-1.6,1.9-4.1,2.7-6.4,3.1
					c-2.3,0.3-4.6,0.6-7,0.6c-0.1,0-0.3-0.1-0.3-0.3c0-0.1,0.1-0.3,0.3-0.3l0.1,0c1,0,2.3-0.2,3.4-0.4c1.1-0.2,2.3-0.3,3.4-0.5
					c2.2-0.4,4.4-1.2,5.8-2.9c1.4-1.7,2-4,2-6.2c0.1-2.3-0.2-4.5-0.7-6.8c-1-4.5-2.4-8.9-3.9-13.3c-0.8-2.2-1.6-4.3-2.4-6.5
					l-1.3-3.2l-0.7-1.6l-0.3-0.8l-0.2-0.4l-0.1-0.2l0-0.1l0,0c0,0,0,0,0,0l0,0c-0.3-0.2,0.4,0.4,0.6-0.2c0,0.2-0.1,0.3-0.3,0.3
					C109.4,106.9,109.3,106.7,109.3,106.5z"/>
			</g>
			<g>
				<path class="st26" d="M69.1,130.7c0.8,4.5,1.5,9,2.1,13.5l0.5,3.4c0.1,1.1,0.3,2.3,0.3,3.5c0,0.1,0,0.2,0,0.3c0,0,0,0,0,0.1
					c0,0.1,0,0.1-0.1,0.2c0,0-0.1,0.1-0.1,0.1l0,0l0,0c-0.1,0-0.2,0.1-0.4,0.1c-0.2,0.1-0.5,0.2-0.6,0.4c-0.4,0.3-0.6,0.8-0.5,1.2
					c0.1,0.5,0.4,0.9,0.8,1.1c0.4,0.2,1,0.3,1.5,0.4c0.5,0.1,1.1,0.1,1.5-0.1c0.2-0.1,0.3-0.2,0.4-0.5c0.1-0.2,0.2-0.5,0.3-0.8
					c0.4-1.1,0.7-2.1,1.1-3.2l2-6.5l3.9-13.1c0-0.1,0.1-0.2,0.2-0.1c0.1,0,0.2,0.1,0.1,0.2l-3.7,13.2c-0.6,2.2-1.3,4.4-2,6.6
					c-0.3,1.1-0.7,2.2-1.1,3.3c-0.1,0.3-0.2,0.5-0.3,0.8c-0.1,0.3-0.4,0.6-0.7,0.8c-0.6,0.3-1.3,0.3-1.9,0.2
					c-0.6-0.1-1.1-0.2-1.8-0.5c-0.6-0.3-1-0.9-1.1-1.6c-0.1-0.7,0.2-1.4,0.7-1.8c0.2-0.2,0.5-0.4,0.8-0.5c0.1-0.1,0.3-0.1,0.4-0.2
					l0.1,0l0,0c0,0-0.1,0-0.1,0c-0.1,0.1,0,0-0.1,0.1c0,0,0,0,0,0c0,0,0-0.1,0-0.2c0-1.1-0.1-2.2-0.2-3.4l-0.4-3.4
					c-0.6-4.5-1.3-9-2.1-13.5c0-0.1,0.1-0.3,0.2-0.3C69,130.4,69.1,130.5,69.1,130.7z"/>
			</g>
			<g>
				<path class="st26" d="M107.1,130.2c-0.7,4.5-1.4,9.1-1.9,13.6c-0.3,2.3-0.6,4.6-0.7,6.8c0,0.3,0,0.7,0,0.4
					c0.3,0.1,0.6,0.2,0.9,0.4c0.5,0.3,1,0.9,1.1,1.6c0,0.7-0.3,1.4-0.8,1.8c-0.3,0.2-0.6,0.3-0.9,0.4c-0.3,0.1-0.6,0.2-0.9,0.2
					c-0.6,0.1-1.2,0.2-1.9,0c-0.3-0.1-0.6-0.3-0.9-0.6c-0.2-0.3-0.3-0.6-0.4-0.9c-0.4-1.1-0.7-2.2-1-3.3c-0.6-2.2-1.3-4.4-1.9-6.6
					c-1.2-4.4-2.3-8.9-3.4-13.3c0-0.1,0-0.2,0.1-0.2c0.1,0,0.2,0,0.2,0.1c1.2,4.4,2.4,8.9,3.7,13.3l1.9,6.6c0.3,1.1,0.7,2.2,1,3.3
					c0.2,0.6,0.4,0.9,0.8,1.1c0.4,0.1,1,0.1,1.5,0c0.5-0.1,1.1-0.2,1.5-0.5c0.4-0.3,0.6-0.7,0.6-1.2c0-0.5-0.3-0.9-0.7-1.1
					c-0.2-0.1-0.5-0.2-0.7-0.3l-0.1,0c0,0,0,0-0.1,0c0,0-0.1-0.1-0.1-0.1l0-0.1c-0.1-0.2-0.1-0.2-0.1-0.3c0-0.2,0-0.3,0-0.5
					c0.1-2.3,0.4-4.6,0.7-6.9c0.6-4.6,1.3-9.1,2-13.6c0-0.1,0.1-0.2,0.3-0.2C107.1,130,107.1,130.1,107.1,130.2z"/>
			</g>
		</g>
		<path class="st23" d="M130.5,74.1c0,17.9-27.1,32.4-43,32.4c-17.1,0-43-14.5-43-32.4s19.2-32.4,43-32.4S130.5,56.2,130.5,74.1z"/>
		<path class="st78" d="M81.6,81.5c0,0,3.1-33.5,5.3-33.7S93.7,81,93.4,82S84.3,86,81.6,81.5z"/>
		<g>
			<g>
				<path class="st30" d="M78.6,90.4c0,0,0.8,3.7,1.3,3.6c0.5-0.1,1.3-3.6,1.3-3.6"/>
				<path class="st26" d="M78.7,90.4l0.5,1.9c0.1,0.3,0.2,0.6,0.3,0.9c0.1,0.1,0.1,0.3,0.2,0.4c0,0.1,0.1,0.1,0.1,0.2
					c0,0.1,0.1,0.1,0,0.1c0,0,0.1-0.1,0.2-0.3c0.1-0.1,0.1-0.3,0.2-0.4c0.1-0.3,0.2-0.6,0.3-0.9l0.6-1.8c0,0,0.1-0.1,0.1,0
					c0,0,0.1,0,0.1,0.1c-0.1,0.6-0.2,1.3-0.4,1.9c-0.1,0.3-0.2,0.6-0.3,0.9c-0.1,0.2-0.1,0.3-0.2,0.5c0,0.1-0.1,0.2-0.1,0.2
					l-0.1,0.1c0,0-0.1,0.1-0.2,0.1c-0.2,0-0.3-0.1-0.4-0.2c-0.1-0.1-0.1-0.2-0.1-0.2c-0.1-0.2-0.1-0.3-0.2-0.5
					c-0.1-0.3-0.2-0.6-0.3-0.9c-0.2-0.6-0.3-1.3-0.4-1.9C78.6,90.4,78.6,90.3,78.7,90.4C78.7,90.3,78.7,90.3,78.7,90.4z"/>
			</g>
			<path class="st26" d="M93.1,79.5c-2.2-1.2-11.9-1.9-12.4,1.7c-0.1,0.7,0.2,1.4,0.7,1.8c0.7,0.6,1.6,0.8,2.5,0.8
				c1.2,0,2.7,0.6,3.1,1.7c0,0.1,0.9,0,0.9,0.1c0.7-2,3.9-1.7,5.1-2.5C94.8,82.1,94.7,80.3,93.1,79.5z"/>
			<g>
				<path class="st26" d="M87.7,81.2c0.1,1.6,0.1,3.2-0.1,4.7c-0.1,0.4-0.1,0.8-0.2,1.2c-0.1,0.4-0.2,0.8-0.4,1.2
					c-0.4,0.8-1.2,1.3-1.9,1.6c-1.5,0.5-3.1,0.9-4.7,0.9c-0.8,0-1.6,0-2.4-0.2c-0.8-0.2-1.7-0.6-1.9-1.5c0-0.1,0-0.2,0.1-0.2
					c0.1,0,0.2,0,0.2,0.1c0.2,0.7,0.9,1,1.7,1.2c0.7,0.1,1.5,0.1,2.3,0.1c1.5-0.1,3-0.5,4.4-1c0.7-0.3,1.3-0.7,1.7-1.3
					c0.4-0.6,0.5-1.4,0.7-2.1c0.3-1.5,0.3-3.1,0.3-4.6c0-0.1,0.1-0.2,0.2-0.2C87.6,81,87.7,81.1,87.7,81.2z"/>
			</g>
			<g>
				<path class="st26" d="M87.6,81.2c-0.1,1.5,0.1,3,0.6,4.5c0.5,1.4,1,3,2.2,3.5c1.3,0.6,2.8,0.9,4.3,1c0.7,0,1.5,0,2.2-0.1
					c0.7-0.2,1.4-0.5,1.6-1.2c0-0.1,0.1-0.1,0.2-0.1c0.1,0,0.1,0.1,0.1,0.2c-0.2,0.9-1.1,1.3-1.9,1.5c-0.8,0.2-1.6,0.2-2.3,0.2
					c-1.6,0-3.1-0.2-4.6-0.9c-0.8-0.4-1.4-1.1-1.7-1.8c-0.3-0.7-0.6-1.5-0.8-2.2c-0.4-1.5-0.5-3.1-0.4-4.6c0-0.1,0.1-0.2,0.2-0.2
					C87.5,81,87.6,81.1,87.6,81.2z"/>
			</g>
			<g>
				<g>
					<path class="st26" d="M75.6,82.1c-7,0.7-13.7,3.4-19.3,7.6c5.5-4.3,12.3-7.2,19.3-8.1c0.1,0,0.3,0.1,0.3,0.2
						C75.8,81.9,75.7,82,75.6,82.1C75.6,82.1,75.6,82.1,75.6,82.1z"/>
				</g>
				<g>
					<path class="st26" d="M75.4,83.8c-4,0.4-7.9,2.4-10.4,5.6c2.4-3.3,6.2-5.6,10.4-6.1c0.1,0,0.3,0.1,0.3,0.2
						C75.6,83.6,75.5,83.8,75.4,83.8C75.4,83.8,75.4,83.8,75.4,83.8z"/>
				</g>
				<g>
					<path class="st26" d="M75.4,85.2c-4,1.6-7.3,4.8-8.9,8.8c1.5-4.1,4.7-7.5,8.7-9.3c0.1-0.1,0.3,0,0.3,0.1S75.5,85.2,75.4,85.2
						C75.4,85.2,75.4,85.2,75.4,85.2z"/>
				</g>
			</g>
			<g>
				<g>
					<path class="st26" d="M99.5,81.6c7,0.9,13.8,3.8,19.3,8.1c-5.6-4.2-12.4-6.9-19.3-7.6c-0.1,0-0.2-0.1-0.2-0.3
						C99.2,81.7,99.3,81.6,99.5,81.6C99.4,81.6,99.5,81.6,99.5,81.6z"/>
				</g>
				<g>
					<path class="st26" d="M99.7,83.3c4.1,0.5,7.9,2.8,10.4,6.1c-2.6-3.2-6.4-5.2-10.4-5.6c-0.1,0-0.2-0.1-0.2-0.3
						C99.4,83.4,99.5,83.3,99.7,83.3C99.7,83.3,99.7,83.3,99.7,83.3z"/>
				</g>
				<g>
					<path class="st26" d="M99.8,84.8c4,1.8,7.2,5.2,8.7,9.3c-1.6-4-5-7.2-8.9-8.8c-0.1,0-0.2-0.2-0.1-0.3S99.6,84.7,99.8,84.8
						C99.8,84.8,99.8,84.8,99.8,84.8z"/>
				</g>
			</g>
		</g>
		<path class="st30" d="M116.7,67.5c0.3,0.9,0.4,1.9,0.4,2.9c0,5.4-4.4,9.8-9.8,9.8s-9.8-4.4-9.8-9.8c0-2,0.6-3.9,1.7-5.5
			L116.7,67.5z"/>
		<path class="st30" d="M57.5,67.5c-0.3,0.9-0.4,1.9-0.4,2.9c0,5.4,4.4,9.8,9.8,9.8s9.8-4.4,9.8-9.8c0-2-0.6-3.9-1.7-5.5L57.5,67.5z
			"/>
		<path class="st78" d="M63.2,66.6c-0.3,0.1-0.6,0.1-0.9,0.3c-0.4,0.2-0.9,0.2-1.4,0.2c-0.2,0.6-0.3,1.3-0.3,2
			c0,3.9,3.2,7.1,7.1,7.1c3.9,0,7.1-3.2,7.1-7.1c0-1.3-0.3-2.5-0.9-3.5C70.2,65.6,66.7,66.2,63.2,66.6z"/>
		<path class="st78" d="M111.1,66.6c0.3,0.1,0.6,0.1,0.9,0.3c0.4,0.2,0.9,0.2,1.4,0.2c0.2,0.6,0.3,1.3,0.3,2c0,3.9-3.2,7.1-7.1,7.1
			c-3.9,0-7.1-3.2-7.1-7.1c0-1.3,0.3-2.5,0.9-3.5C104,65.6,107.5,66.2,111.1,66.6z"/>
		<g>
			<path class="st26" d="M71.2,65.6c-0.1,0-0.2,0.1-0.3,0.1c-1.6,0.3-3.3,0.2-4.9,0.4c-0.3,0.1-0.5,0.1-0.8,0.2
				c-0.6,0.2-1.1,0.3-1.7,0.2c-0.5,0.8-0.8,1.7-0.8,2.7c0,2.8,2.2,5,5,5s5-2.2,5-5C72.7,67.8,72.1,66.5,71.2,65.6z"/>
			
				<ellipse transform="matrix(0.7071 -0.7071 0.7071 0.7071 -27.2186 71.0955)" class="st30" cx="72.2" cy="68.4" rx="1.8" ry="1.8"/>
			<circle class="st81" cx="66.9" cy="70.5" r="9.8"/>
			<path class="st81" d="M57.8,67.5c0,0,8.4-1.7,17.1-2.4"/>
		</g>
		<g>
			<path class="st26" d="M103,65.6c0.1,0,0.2,0.1,0.3,0.1c1.6,0.3,3.3,0.2,4.9,0.4c0.3,0.1,0.5,0.1,0.8,0.2c0.6,0.2,1.1,0.3,1.7,0.2
				c0.5,0.8,0.8,1.7,0.8,2.7c0,2.8-2.2,5-5,5c-2.8,0-5-2.2-5-5C101.5,67.8,102.1,66.5,103,65.6z"/>
			<ellipse transform="matrix(0.7071 -0.7071 0.7071 0.7071 -18.4793 92.194)" class="st30" cx="102" cy="68.4" rx="1.8" ry="1.8"/>
			<circle class="st81" cx="107.4" cy="70.5" r="9.8"/>
			<path class="st81" d="M116.5,67.5c0,0-8.4-1.7-17.1-2.4"/>
		</g>
	</g>
</g>
<g id="mask" class="st0">
</g>
</svg>
