<?xml version="1.0" encoding="utf-8"?>
<!-- Generator: Adobe Illustrator 21.0.0, SVG Export Plug-In . SVG Version: 6.00 Build 0)  -->
<svg version="1.1" xmlns="http://www.w3.org/2000/svg" xmlns:xlink="http://www.w3.org/1999/xlink" x="0px" y="0px"
	 viewBox="0 0 176.8 172.4" style="enable-background:new 0 0 176.8 172.4;" xml:space="preserve">
<style type="text/css">
	.st0{display:none;}
	.st1{display:inline;fill:#FD9994;}
	.st2{display:inline;fill:#FFFFFF;}
	.st3{display:inline;fill:none;stroke:#FFFFFF;stroke-width:2.2363;stroke-miterlimit:10;}
	.st4{display:inline;}
	.st5{fill:none;stroke:#FFFFFF;stroke-width:2.2363;stroke-miterlimit:10;}
	.st6{fill:#FFB380;}
	.st7{fill:#D2C3DB;}
	.st8{fill:#F9ECDC;}
	.st9{fill:#FFF58B;}
	.st10{fill:#F6BC60;}
	.st11{fill:#ECF784;}
	.st12{fill:#FFDEFF;}
	.st13{fill:#AED5D2;}
	.st14{fill:#F4BD9F;}
	.st15{fill:#B9DCFF;}
	.st16{fill:#D7FFFB;}
	.st17{fill:#81D8F7;}
	.st18{fill:#E57777;}
	.st19{fill:#D9FFDB;}
	.st20{opacity:0.1;}
	.st21{fill:#5CCDFF;}
	.st22{fill:none;}
	.st23{opacity:0.2;fill:#FFFFFF;}
	.st24{opacity:0.1;fill:#002CBF;}
	.st25{fill:#1A1A1A;}
	.st26{fill:#333333;}
	.st27{fill:#FFFFDE;}
	.st28{clip-path:url(#SVGID_4_);}
	.st29{fill:none;stroke:#333333;stroke-width:0.4917;stroke-linecap:round;stroke-linejoin:round;stroke-miterlimit:10;}
	.st30{fill:#FFFFFF;}
	.st31{fill:none;stroke:#333333;stroke-width:0.8543;stroke-miterlimit:10;}
	.st32{clip-path:url(#SVGID_6_);}
	.st33{fill:#FFD7B9;}
	.st34{fill:#F0FFFF;}
	.st35{clip-path:url(#SVGID_8_);}
	.st36{fill:#FF5C5C;}
	.st37{fill:none;stroke:#333333;stroke-width:0.466;stroke-linecap:round;stroke-linejoin:round;stroke-miterlimit:10;}
	.st38{fill:none;stroke:#333333;stroke-width:0.8095;stroke-miterlimit:10;}
	.st39{clip-path:url(#SVGID_10_);}
	.st40{fill:none;stroke:#333333;stroke-width:0.7381;stroke-linecap:round;stroke-linejoin:round;stroke-miterlimit:10;}
	.st41{fill:none;stroke:#333333;stroke-width:0.8857;stroke-linecap:round;stroke-linejoin:round;stroke-miterlimit:10;}
	.st42{fill:none;stroke:#333333;stroke-width:2.6852;stroke-linecap:round;stroke-linejoin:round;stroke-miterlimit:10;}
	.st43{fill:#72B5C4;}
	.st44{fill:#5E96A5;}
	.st45{fill:none;stroke:#FFFFFF;stroke-width:2.6852;stroke-linecap:round;stroke-linejoin:round;stroke-miterlimit:10;}
	.st46{fill:none;stroke:#FFFFFF;stroke-width:1.2942;stroke-linecap:round;stroke-linejoin:round;stroke-miterlimit:10;}
	.st47{fill:none;stroke:#FFFFFF;stroke-width:0.8311;stroke-linecap:round;stroke-linejoin:round;stroke-miterlimit:10;}
	.st48{fill:#FF5C00;}
	.st49{fill:#00B4FF;}
	.st50{fill:#FF5592;}
	.st51{fill:#733FFF;}
	.st52{fill:#DDFF15;}
	.st53{fill:#BF5855;}
	.st54{fill:none;stroke:#333333;stroke-width:0.5718;stroke-miterlimit:10;}
	.st55{fill:#C8F982;}
	.st56{fill:#AEF9C0;}
	.st57{fill:none;stroke:#FFFFFF;stroke-width:1.8326;stroke-miterlimit:10;}
	.st58{fill:#9AF6F9;}
	.st59{fill:#FFACA2;}
	.st60{fill:#F9E582;}
	.st61{fill:#FFC08B;}
	.st62{fill:#EFEB6A;}
	.st63{fill:#EC987F;}
	.st64{fill:#B5FFCC;}
	.st65{fill:#FFEDA2;}
	.st66{fill:#CCE7CC;}
	.st67{fill:#ABE7AB;}
	.st68{fill:#A6A6A6;}
	.st69{clip-path:url(#SVGID_60_);}
	.st70{fill:none;stroke:#333333;stroke-width:0.4706;stroke-linecap:round;stroke-linejoin:round;stroke-miterlimit:10;}
	.st71{fill:#FFEC55;}
	.st72{fill:none;stroke:#333333;stroke-width:0.8177;stroke-miterlimit:10;}
	.st73{clip-path:url(#SVGID_62_);}
	.st74{clip-path:url(#SVGID_64_);}
	.st75{fill:#FF7A59;}
	.st76{clip-path:url(#SVGID_66_);}
	.st77{clip-path:url(#SVGID_68_);}
	.st78{fill:#B45FFF;}
	.st79{clip-path:url(#SVGID_70_);}
	.st80{opacity:0.2;fill:#002CBF;}
	.st81{fill:none;stroke:#333333;stroke-width:0.5506;stroke-linecap:round;stroke-linejoin:round;stroke-miterlimit:10;}
	.st82{clip-path:url(#SVGID_72_);}
	.st83{fill:#EAA871;}
	.st84{fill:#FFD836;}
	.st85{fill:#FF846B;}
	.st86{fill:none;stroke:#333333;stroke-width:0.804;stroke-linecap:round;stroke-linejoin:round;stroke-miterlimit:10;}
	.st87{fill:#FEFF4A;}
	.st88{fill:none;stroke:#333333;stroke-width:0.7645;stroke-linecap:round;stroke-linejoin:round;stroke-miterlimit:10;}
	.st89{fill:none;stroke:#333333;stroke-width:0.7645;stroke-miterlimit:10;}
	.st90{fill:none;stroke:#333333;stroke-width:2.9248;stroke-linecap:round;stroke-linejoin:round;stroke-miterlimit:10;}
	.st91{fill:none;stroke:#333333;stroke-width:0.945;stroke-linecap:round;stroke-linejoin:round;stroke-miterlimit:10;}
	.st92{fill:none;stroke:#333333;stroke-width:0.945;stroke-miterlimit:10;}
	.st93{fill:none;stroke:#333333;stroke-width:3.6155;stroke-linecap:round;stroke-linejoin:round;stroke-miterlimit:10;}
	.st94{fill:none;stroke:#333333;stroke-width:0.6228;stroke-miterlimit:10;}
	.st95{fill:none;stroke:#333333;stroke-width:0.7778;stroke-linecap:round;stroke-linejoin:round;stroke-miterlimit:10;}
	.st96{fill:#FF712A;}
	.st97{fill:none;stroke:#333333;stroke-width:0.7396;stroke-linecap:round;stroke-linejoin:round;stroke-miterlimit:10;}
	.st98{fill:none;stroke:#333333;stroke-width:0.7396;stroke-miterlimit:10;}
	.st99{fill:none;stroke:#333333;stroke-width:2.8295;stroke-linecap:round;stroke-linejoin:round;stroke-miterlimit:10;}
	.st100{fill:none;stroke:#333333;stroke-width:0.9142;stroke-linecap:round;stroke-linejoin:round;stroke-miterlimit:10;}
	.st101{fill:none;stroke:#333333;stroke-width:0.9142;stroke-miterlimit:10;}
	.st102{fill:none;stroke:#333333;stroke-width:3.4977;stroke-linecap:round;stroke-linejoin:round;stroke-miterlimit:10;}
	.st103{fill:none;stroke:#333333;stroke-width:0.6025;stroke-miterlimit:10;}
	.st104{fill:url(#SVGID_89_);}
	.st105{fill:url(#SVGID_90_);}
	.st106{fill:none;stroke:#333333;stroke-width:0.7438;stroke-linecap:round;stroke-linejoin:round;stroke-miterlimit:10;}
	.st107{fill:none;stroke:#333333;stroke-width:0.8926;stroke-linecap:round;stroke-linejoin:round;stroke-miterlimit:10;}
	.st108{clip-path:url(#SVGID_92_);fill:url(#SVGID_93_);}
	.st109{fill:url(#SVGID_94_);}
	.st110{fill:#52C5FF;}
	.st111{fill:none;stroke:#333333;stroke-width:0.6367;stroke-linecap:round;stroke-linejoin:round;stroke-miterlimit:10;}
	.st112{fill:none;stroke:#333333;stroke-width:2.7061;stroke-linecap:round;stroke-linejoin:round;stroke-miterlimit:10;}
	.st113{fill:none;stroke:#333333;stroke-width:0.5763;stroke-miterlimit:10;}
	.st114{fill:none;stroke:#FFFFFF;stroke-width:1.3042;stroke-linecap:round;stroke-linejoin:round;stroke-miterlimit:10;}
	.st115{fill:none;stroke:#FFFFFF;stroke-width:0.8375;stroke-linecap:round;stroke-linejoin:round;stroke-miterlimit:10;}
	.st116{clip-path:url(#SVGID_96_);}
	.st117{opacity:0.2;fill:#2E3192;}
	.st118{fill:#FEFF78;}
	.st119{opacity:0.1;fill:#2E3192;}
	.st120{fill:#FF5A50;}
	.st121{fill:none;stroke:#333333;stroke-width:0.567;stroke-linecap:round;stroke-linejoin:round;stroke-miterlimit:10;}
	.st122{fill:none;stroke:#333333;stroke-width:2.5786;stroke-linecap:round;stroke-linejoin:round;stroke-miterlimit:10;}
	.st123{fill:none;stroke:#333333;stroke-width:0.5491;stroke-miterlimit:10;}
	.st124{clip-path:url(#SVGID_98_);}
	.st125{fill:#2AD2FF;}
	.st126{fill:none;stroke:#333333;stroke-width:0.2435;stroke-miterlimit:10;}
	.st127{fill:#FFFFFF;stroke:#333333;stroke-width:0.487;stroke-linecap:round;stroke-linejoin:round;stroke-miterlimit:10;}
	.st128{clip-path:url(#SVGID_100_);}
	.st129{fill:url(#SVGID_101_);}
	.st130{opacity:0.4;fill:#FFFFFF;}
	.st131{fill:#FFDC48;}
	.st132{fill:none;stroke:#333333;stroke-width:0.5835;stroke-linecap:round;stroke-linejoin:round;stroke-miterlimit:10;}
	.st133{fill:none;stroke:#333333;stroke-width:2.6537;stroke-linecap:round;stroke-linejoin:round;stroke-miterlimit:10;}
	.st134{fill:#F0F462;}
	.st135{fill:url(#SVGID_102_);}
	.st136{fill:url(#SVGID_103_);}
	.st137{fill:#D1DADF;}
	.st138{fill:#57FFA3;}
	.st139{clip-path:url(#SVGID_105_);}
	.st140{clip-path:url(#SVGID_107_);}
	.st141{fill:#D0BBF9;}
	.st142{clip-path:url(#SVGID_109_);}
	.st143{fill:none;stroke:#333333;stroke-width:0.5867;stroke-linecap:round;stroke-linejoin:round;stroke-miterlimit:10;}
	.st144{clip-path:url(#SVGID_111_);}
	.st145{fill:none;stroke:#333333;stroke-width:0.5514;stroke-linecap:round;stroke-linejoin:round;stroke-miterlimit:10;}
	.st146{fill:#D1E9D3;}
	.st147{clip-path:url(#SVGID_113_);}
	.st148{fill:none;stroke:#333333;stroke-width:0.7684;stroke-linecap:round;stroke-linejoin:round;stroke-miterlimit:10;}
	.st149{fill:none;stroke:#333333;stroke-width:0.7684;stroke-miterlimit:10;}
	.st150{fill:none;stroke:#333333;stroke-width:2.9398;stroke-linecap:round;stroke-linejoin:round;stroke-miterlimit:10;}
	.st151{clip-path:url(#SVGID_115_);}
	.st152{fill:#FF66F8;}
	.st153{fill:none;stroke:#333333;stroke-width:0.7542;stroke-linecap:round;stroke-linejoin:round;stroke-miterlimit:10;}
	.st154{fill:none;stroke:#333333;stroke-width:0.9051;stroke-linecap:round;stroke-linejoin:round;stroke-miterlimit:10;}
	.st155{fill:none;stroke:#333333;stroke-width:0.5146;stroke-linecap:round;stroke-linejoin:round;stroke-miterlimit:10;}
	.st156{fill:none;stroke:#333333;stroke-width:0.6033;stroke-linecap:round;stroke-linejoin:round;stroke-miterlimit:10;}
	.st157{fill:none;stroke:#333333;stroke-width:2.7439;stroke-linecap:round;stroke-linejoin:round;stroke-miterlimit:10;}
	.st158{fill:#333333;stroke:#333333;stroke-width:1.0293;stroke-linecap:round;stroke-linejoin:round;stroke-miterlimit:10;}
	.st159{fill:#FF5F2A;}
	.st160{fill:none;stroke:#333333;stroke-width:0.5965;stroke-linecap:round;stroke-linejoin:round;stroke-miterlimit:10;}
	.st161{fill:#F9CC3E;}
	.st162{clip-path:url(#SVGID_121_);}
	.st163{fill:#70E1FF;}
	.st164{fill:none;stroke:#333333;stroke-width:0.5717;stroke-linecap:round;stroke-linejoin:round;stroke-miterlimit:10;}
	.st165{fill:none;stroke:#333333;stroke-width:2.6004;stroke-linecap:round;stroke-linejoin:round;stroke-miterlimit:10;}
	.st166{clip-path:url(#SVGID_123_);}
	.st167{fill:#8F61FF;}
	.st168{clip-path:url(#SVGID_125_);}
	.st169{clip-path:url(#SVGID_127_);}
	.st170{fill:#FFEBEB;}
	.st171{clip-path:url(#SVGID_129_);}
	.st172{clip-path:url(#SVGID_131_);}
	.st173{fill:#F47D62;}
	.st174{fill:none;stroke:#333333;stroke-width:0.7188;stroke-linecap:round;stroke-linejoin:round;stroke-miterlimit:10;}
	.st175{fill:none;stroke:#333333;stroke-width:0.7188;stroke-miterlimit:10;}
	.st176{fill:none;stroke:#333333;stroke-width:2.7502;stroke-linecap:round;stroke-linejoin:round;stroke-miterlimit:10;}
	.st177{fill:#85ACB5;}
	.st178{clip-path:url(#SVGID_133_);}
	.st179{fill:#D5F2F7;}
	.st180{fill:#FF694A;}
	.st181{fill:none;stroke:#333333;stroke-width:0.5693;stroke-linecap:round;stroke-linejoin:round;stroke-miterlimit:10;}
	.st182{fill:#FFDF15;}
	.st183{fill:none;stroke:#333333;stroke-width:0.6674;stroke-linecap:round;stroke-linejoin:round;stroke-miterlimit:10;}
	.st184{fill:none;stroke:#333333;stroke-width:3.0352;stroke-linecap:round;stroke-linejoin:round;stroke-miterlimit:10;}
	.st185{clip-path:url(#SVGID_135_);}
	.st186{clip-path:url(#SVGID_137_);}
	.st187{fill:none;stroke:#333333;stroke-width:0.5248;stroke-linecap:round;stroke-linejoin:round;stroke-miterlimit:10;}
	.st188{fill:#FFD33A;}
	.st189{fill:none;stroke:#333333;stroke-width:2.7983;stroke-linecap:round;stroke-linejoin:round;stroke-miterlimit:10;}
	.st190{fill:none;stroke:#333333;stroke-width:0.7692;stroke-linecap:round;stroke-linejoin:round;stroke-miterlimit:10;}
	.st191{fill:none;stroke:#333333;stroke-width:0.5959;stroke-miterlimit:10;}
	.st192{clip-path:url(#SVGID_143_);}
	.st193{fill:#FFE267;}
	.st194{clip-path:url(#SVGID_149_);}
	.st195{fill:#FFEEAA;}
	.st196{opacity:0.7;fill:url(#SVGID_152_);}
	.st197{fill:none;stroke:#333333;stroke-width:0.611;stroke-miterlimit:10;}
	.st198{clip-path:url(#SVGID_154_);}
	.st199{opacity:0.7;fill:url(#SVGID_157_);}
	.st200{fill:#EABBFC;}
	.st201{opacity:0.7;fill:url(#SVGID_160_);}
	.st202{opacity:0.7;fill:url(#SVGID_163_);}
	.st203{opacity:0.7;fill:url(#SVGID_166_);}
	.st204{opacity:0.7;fill:url(#SVGID_169_);}
	.st205{clip-path:url(#SVGID_171_);}
	.st206{fill:none;stroke:#333333;stroke-width:0.5899;stroke-linecap:round;stroke-linejoin:round;stroke-miterlimit:10;}
	.st207{fill:none;stroke:#333333;stroke-width:2.6828;stroke-linecap:round;stroke-linejoin:round;stroke-miterlimit:10;}
	.st208{fill:none;stroke:#333333;stroke-width:0.5713;stroke-miterlimit:10;}
	.st209{clip-path:url(#SVGID_173_);}
	.st210{clip-path:url(#SVGID_175_);}
	.st211{clip-path:url(#SVGID_177_);}
	.st212{fill:#FFAFC3;}
	.st213{fill:#A0D3FF;}
	.st214{fill:none;stroke:#333333;stroke-width:0.7262;stroke-linecap:round;stroke-linejoin:round;stroke-miterlimit:10;}
	.st215{fill:none;stroke:#333333;stroke-width:0.6906;stroke-miterlimit:10;}
	.st216{fill:none;stroke:#333333;stroke-width:0.8536;stroke-miterlimit:10;}
	.st217{fill:#333333;stroke:#333333;stroke-width:0.991;stroke-linecap:round;stroke-linejoin:round;stroke-miterlimit:10;}
	.st218{clip-path:url(#SVGID_179_);}
	.st219{clip-path:url(#SVGID_181_);}
	.st220{fill:#FD9994;}
	.st221{opacity:0.2;}
	.st222{fill:#2E3192;}
	.st223{display:inline;fill:#FF5B00;}
</style>
<g id="site">
</g>
<g id="kitties">
	<g class="st0">
	</g>
	<g>
		<path class="st167" d="M61.8,33.2c0,0-4.9-8.5-6.6-10.3c-1.7-1.8-4.3-4.5-5.1-1.7S47.8,36.4,48.6,41
			C49.4,45.6,64.6,36.2,61.8,33.2z"/>
		<path class="st167" d="M112.3,33.2c0,0,4.8-8.7,6.5-10.6c1.7-1.8,3.9-4.8,4.9-2.1c1.4,3.5,2.6,16,1.8,20.6S109.4,36.2,112.3,33.2z
			"/>
		<g>
			<g>
				<path class="st153" d="M48.6,41c0,0-0.6-20.8,2.6-21.2s10.5,13.4,10.5,13.4"/>
				<path class="st153" d="M48.6,41c0,0-0.6-20.8,2.6-21.2"/>
				<g>
					<path class="st26" d="M52.7,23.9c1.2,1.7,2.2,3.5,3.1,5.3c0.9,1.8,1.7,3.8,2.3,5.7c0.1,0.2-0.1,0.5-0.3,0.6
						c-0.2,0.1-0.5-0.1-0.6-0.3c0,0,0,0,0,0c-0.5-1.9-1.2-3.8-2-5.7c-0.8-1.8-1.7-3.7-2.8-5.4l0,0c-0.1-0.1,0-0.2,0.1-0.2
						C52.5,23.8,52.6,23.8,52.7,23.9z"/>
				</g>
				<path class="st154" d="M53.5,26.1c0,0-2.4,1.6-0.5,11.8"/>
				<path class="st26" d="M57.7,35.2L53,37.9c0,0-1.2-6.5-0.6-8.8c0.6-2.3,1.3-3.3,1.3-3.3S57.1,32.3,57.7,35.2z"/>
			</g>
		</g>
		<g>
			<g>
				<path class="st153" d="M125.4,40.4c0,0,0.6-20.8-2.6-21.2s-10.5,13.4-10.5,13.4"/>
				<path class="st153" d="M125.4,40.4c0,0,0.6-20.8-2.6-21.2"/>
				<g>
					<path class="st26" d="M121.6,23.5c-1.1,1.7-2,3.5-2.8,5.4c-0.8,1.9-1.5,3.8-2,5.7c-0.1,0.2-0.3,0.4-0.6,0.3
						c-0.2-0.1-0.4-0.3-0.3-0.6c0,0,0,0,0,0c0.6-2,1.4-3.9,2.3-5.7c0.9-1.8,1.9-3.6,3.1-5.3c0.1-0.1,0.2-0.1,0.2,0
						C121.7,23.3,121.7,23.4,121.6,23.5L121.6,23.5z"/>
				</g>
				<path class="st154" d="M120.5,25.5c0,0,2.4,1.6,0.5,11.8"/>
				<path class="st26" d="M116.3,34.6l4.7,2.7c0,0,1.2-6.5,0.6-8.8s-1.3-3.3-1.3-3.3S117,31.7,116.3,34.6z"/>
			</g>
		</g>
		<g>
			<path class="st155" d="M78.2,148.9c0,0,12.2-0.6,20.2,0.1"/>
			<path class="st170" d="M129.8,42.4c0,0-7.1-9.9-27.6-13.8c0.5-0.7,0.9-1.3,1.3-2.1c0.6-1.2,1.1-2.8,0.4-4c-0.6-1-1.9-1.5-3.1-1.5
				c-1.2,0.1-2.3,0.6-3.4,1.1c-2.6,1.2-5.2,2.7-7.3,4.6c0.3-0.9,0.4-1.8,0.2-2.7c-0.3-1.5-1.6-2.9-3.2-2.9c-1.4,0-2.6,0.9-3.7,1.7
				c-2.5,1.7-6.5,3.5-9.4,5.5c-0.2,0-0.4,0.1-0.6,0.1c0,0-11.7,1.5-23.4,10.1c-2.3,1.7-3.6,4.1-5.8,6.4c0,0-2.5,2.2-4,6.3
				c-1.9,5-3.9,12.3-3.3,19.5c0.3,4.1,3.9,13.8,7.2,16.8c1,0.9,4.7,4.6,7.6,7c1.2,0.9,4.6,2.9,6.9,4.1c1.5,0.8,3.3,1.6,5.8,2.4
				c0,0,0,0,0,0c0,0,0,0,0,0c0,0,0,0,0,0c0,0,0,0,0,0.1c0,0,0,0,0,0c0,0,0,0.1,0,0.1c0,0,0,0,0,0c0,0,0,0.1-0.1,0.1c0,0,0,0,0,0.1
				c0,0,0,0.1-0.1,0.2c0,0,0,0,0,0c-0.2,0.4-0.4,1-0.7,1.7c0,0,0,0,0,0.1c0,0.1-0.1,0.2-0.1,0.3c0,0,0,0.1,0,0.1
				c0,0.1-0.1,0.2-0.1,0.3c0,0,0,0.1-0.1,0.1c0,0.1-0.1,0.2-0.1,0.3c0,0.1,0,0.1-0.1,0.2c0,0.1-0.1,0.2-0.1,0.3c0,0.1,0,0.1-0.1,0.2
				c0,0.1-0.1,0.2-0.2,0.4c0,0.1-0.1,0.1-0.1,0.2c-0.1,0.1-0.1,0.2-0.2,0.4c0,0.1-0.1,0.1-0.1,0.2c-0.1,0.1-0.1,0.2-0.2,0.4
				c0,0.1-0.1,0.1-0.1,0.2c-0.1,0.1-0.1,0.3-0.2,0.4c0,0.1-0.1,0.1-0.1,0.2c-0.1,0.1-0.1,0.3-0.2,0.4c0,0.1-0.1,0.2-0.1,0.2
				c-0.1,0.1-0.1,0.3-0.2,0.4c0,0.1-0.1,0.2-0.1,0.2c-0.1,0.1-0.1,0.3-0.2,0.4c0,0.1-0.1,0.2-0.1,0.2c-0.1,0.1-0.1,0.3-0.2,0.4
				c0,0.1-0.1,0.2-0.1,0.3c-0.1,0.1-0.1,0.3-0.2,0.4c0,0.1-0.1,0.2-0.1,0.3c-0.1,0.1-0.1,0.3-0.2,0.4c0,0.1-0.1,0.2-0.1,0.3
				c-0.1,0.1-0.1,0.3-0.2,0.4c0,0.1-0.1,0.2-0.1,0.3c-0.1,0.1-0.1,0.3-0.2,0.4c0,0.1-0.1,0.2-0.1,0.3c-0.1,0.1-0.1,0.3-0.2,0.4
				c0,0.1-0.1,0.2-0.1,0.3c-0.1,0.1-0.1,0.3-0.2,0.4c0,0.1-0.1,0.2-0.1,0.3c-0.1,0.1-0.1,0.3-0.2,0.4c0,0.1-0.1,0.2-0.1,0.3
				c-0.1,0.1-0.1,0.3-0.2,0.5c0,0.1-0.1,0.2-0.1,0.3c-0.1,0.2-0.1,0.3-0.2,0.5c0,0.1-0.1,0.2-0.1,0.3c-0.1,0.2-0.1,0.3-0.2,0.5
				c0,0.1-0.1,0.2-0.1,0.3c-0.1,0.2-0.1,0.3-0.2,0.5c0,0.1-0.1,0.2-0.1,0.3c-0.1,0.2-0.1,0.3-0.2,0.5c0,0.1-0.1,0.2-0.1,0.3
				c-0.1,0.2-0.1,0.3-0.2,0.5c0,0.1-0.1,0.2-0.1,0.3c-0.1,0.2-0.1,0.3-0.2,0.5c0,0.1-0.1,0.2-0.1,0.3c0,0.2-0.1,0.3-0.1,0.5
				c0,0.1-0.1,0.2-0.1,0.3c0,0.2-0.1,0.3-0.1,0.5c0,0.1-0.1,0.2-0.1,0.4c0,0.2-0.1,0.3-0.1,0.5c0,0.1-0.1,0.2-0.1,0.4
				c0,0.2-0.1,0.3-0.1,0.5c0,0.1-0.1,0.2-0.1,0.4c0,0.1-0.1,0.3-0.1,0.4c0,0.1-0.1,0.2-0.1,0.4c0,0.1-0.1,0.3-0.1,0.4
				c0,0.1-0.1,0.2-0.1,0.4c0,0.1-0.1,0.3-0.1,0.4c0,0.1-0.1,0.2-0.1,0.4c0,0.1-0.1,0.3-0.1,0.4c0,0.1-0.1,0.2-0.1,0.4
				c0,0.1-0.1,0.3-0.1,0.4c0,0.1-0.1,0.2-0.1,0.4c0,0.1-0.1,0.3-0.1,0.4c0,0.1-0.1,0.2-0.1,0.4c0,0.1-0.1,0.3-0.1,0.4
				c0,0.1-0.1,0.2-0.1,0.3c0,0.1-0.1,0.3-0.1,0.4c0,0.1,0,0.2-0.1,0.3c0,0.1-0.1,0.3-0.1,0.4c0,0.1,0,0.2-0.1,0.3
				c0,0.1,0,0.3-0.1,0.4c0,0.1,0,0.2-0.1,0.3c0,0.1,0,0.3-0.1,0.4c0,0.1,0,0.2-0.1,0.3c0,0.1,0,0.3-0.1,0.4c0,0.1,0,0.2,0,0.3
				c0,0.1,0,0.3,0,0.4c0,0.1,0,0.2,0,0.3c0,0.1,0,0.2,0,0.4c0,0.1,0,0.2,0,0.3c0,0.1,0,0.2,0,0.4c0,0.1,0,0.2,0,0.3
				c0,0.1,0,0.2,0,0.4c0,0.1,0,0.2,0,0.3c0,0.1,0,0.2,0,0.3c0,0.1,0,0.2,0,0.3c0,0.1,0,0.2,0,0.3c0,0.1,0,0.2,0,0.3
				c0,0.1,0,0.2,0,0.3c0,0.1,0,0.2,0,0.3c0,0.1,0,0.2,0,0.3c0,0.1,0,0.2,0,0.2c0,0.1,0,0.2,0,0.3c0,0.1,0,0.1,0,0.2
				c0,0.1,0,0.2,0.1,0.4c0,0.1,0,0.1,0,0.2c0,0.2,0.1,0.3,0.1,0.5c-0.1,0.4-0.1,0.8,0,1.1c0,0.2,0,0.5,0.1,0.7
				c0.1,0.6,0.3,1.1,0.6,1.6c0.1,0.2,0.3,0.4,0.4,0.6c0.4,0.5,0.8,0.9,1.3,1.3c0.5,0.4,1.1,0.7,1.8,1c0.1,0.1,0.3,0.1,0.4,0.2
				c0.5,0.2,1.1,0.5,1.7,0.7c0.4,0.2,0.9,0.3,1.4,0.4c0.6,0.2,1.3,0.3,2,0.5c1,0.2,2.1,0.4,3.1,0.5c0.4,0,0.7,0.1,1.1,0.1
				c0.4,0,0.7,0.1,1.1,0.1c0.5,0,1.1,0.1,1.6,0.1c3,0.2,6,0.2,8.4,0c0,0,0.7,4,4.9,3.9h0c0.1,0,0.3,0,0.4,0c2.3-0.5,2.7-4.6,3-4.3
				c0.2,0.2,3.1,0,3.2,0c0,0,0-0.1,0-0.1l0.5,0c0,0,0,0.1,0,0.1c0,0.1,0,0.2,0.1,0.2c0,0.1,0,0.1,0,0.2c0,0.1,0.1,0.2,0.1,0.3
				c0,0,0,0.1,0,0.1c0,0.1,0.1,0.2,0.1,0.4c0,0,0,0.1,0,0.1c0,0.1,0.1,0.2,0.1,0.2c0,0,0,0.1,0.1,0.1c0,0.1,0.1,0.1,0.1,0.2
				c0,0,0,0.1,0.1,0.1c0,0.1,0.1,0.1,0.1,0.2c0,0,0,0.1,0,0.1c0,0.1,0.1,0.2,0.1,0.3c0,0,0,0,0,0c0,0.1,0.1,0.2,0.1,0.3
				c0,0,0,0.1,0.1,0.1c0,0.1,0.1,0.1,0.1,0.2c0,0,0,0.1,0.1,0.1c0,0.1,0.1,0.1,0.1,0.2c0,0,0,0.1,0.1,0.1c0,0.1,0.1,0.1,0.1,0.2
				c0,0,0,0,0,0.1c0.1,0.1,0.1,0.1,0.2,0.2c0,0,0,0,0,0c0,0,0.1,0.1,0.1,0.1c0,0,0,0,0.1,0.1c0,0,0.1,0.1,0.1,0.1c0,0,0,0,0.1,0.1
				c0,0,0.1,0.1,0.1,0.1c0,0,0,0,0.1,0c0.1,0,0.1,0.1,0.2,0.1c0.2,0.1,0.4,0.2,0.6,0.2c0.1,0,0.1,0,0.2,0c0.8,0,1.4-0.7,2-1.4
				c0.1-0.1,0.1-0.1,0.2-0.2c0.2-0.3,0.4-0.6,0.6-0.9c0-0.1,0.1-0.1,0.1-0.2c0.2-0.4,0.4-0.7,0.6-1c0.2-0.3,0.4-0.6,0.6-0.7
				c0,0,1.9,0.2,4.7,0.2c0.6,0,1.2,0,1.8,0c1.9,0,3.9-0.1,6-0.4c0.3,0,0.7-0.1,1-0.1c0.2,0,0.3-0.1,0.5-0.1c0.3-0.1,0.7-0.1,1-0.2
				c0.2,0,0.3-0.1,0.5-0.1c1.2-0.2,2.3-0.6,3.3-1c0.1-0.1,0.3-0.1,0.4-0.2c0.3-0.1,0.6-0.2,0.8-0.4c1.6-0.8,2.9-1.8,3.6-3.2
				c0.1-0.3,0.3-0.6,0.4-0.9c0.1-0.2,0.1-0.4,0.1-0.5c0.2-1.1,0.3-2.5,0.3-4.1c0-0.3,0-0.5,0-0.8c0-0.1,0-0.3,0-0.4
				c0-0.3,0-0.6-0.1-0.9c0-0.4-0.1-0.9-0.1-1.4c0-0.3-0.1-0.6-0.1-0.9c0-0.2,0-0.3-0.1-0.5c-0.1-0.6-0.2-1.3-0.3-2
				c0-0.2-0.1-0.3-0.1-0.5c-0.9-5-2.4-10.7-4.1-15.6c-0.1-0.2-0.1-0.4-0.2-0.7c0-0.1,0-0.1-0.1-0.2c-0.1-0.2-0.1-0.3-0.2-0.5
				c0-0.1-0.1-0.1-0.1-0.2c-0.1-0.2-0.1-0.3-0.2-0.5c0-0.1,0-0.1-0.1-0.2c-0.1-0.2-0.2-0.4-0.2-0.6c0,0,0,0,0-0.1
				c-0.1-0.2-0.1-0.4-0.2-0.6c0-0.1-0.1-0.1-0.1-0.2c-0.1-0.1-0.1-0.3-0.2-0.4c0-0.1-0.1-0.1-0.1-0.2c-0.1-0.1-0.1-0.3-0.2-0.4
				c0-0.1,0-0.1-0.1-0.2c-0.1-0.2-0.2-0.4-0.2-0.6c0,0,0-0.1,0-0.1c-0.1-0.2-0.1-0.3-0.2-0.5c0-0.1,0-0.1-0.1-0.2
				c-0.1-0.1-0.1-0.3-0.2-0.4c0-0.1-0.1-0.1-0.1-0.2c-0.1-0.1-0.1-0.3-0.2-0.4c0,0,0-0.1-0.1-0.1c-0.1-0.2-0.2-0.4-0.2-0.5
				c0,0,0-0.1,0-0.1c-0.1-0.1-0.1-0.3-0.2-0.4c0-0.1,0-0.1-0.1-0.2c-0.1-0.1-0.1-0.2-0.2-0.3c0-0.1,0-0.1-0.1-0.2
				c-0.1-0.1-0.1-0.3-0.2-0.4c0,0,0-0.1,0-0.1c-0.1-0.2-0.1-0.3-0.2-0.5c0,0,0-0.1,0-0.1c-0.1-0.1-0.1-0.2-0.2-0.3
				c0,0,0-0.1-0.1-0.1c0-0.1-0.1-0.2-0.1-0.3c0,0,0-0.1-0.1-0.1c-0.1-0.1-0.1-0.2-0.2-0.3c0,0,0,0,0-0.1c-0.1-0.1-0.1-0.2-0.2-0.4
				c0,0,0-0.1,0-0.1c0-0.1-0.1-0.2-0.1-0.2c0,0,0-0.1-0.1-0.1c0-0.1-0.1-0.1-0.1-0.2c0,0,0-0.1-0.1-0.1c0-0.1-0.1-0.2-0.1-0.2
				c0,0,0,0,0,0c0-0.1-0.1-0.2-0.1-0.3c0,0,0-0.1,0-0.1c0-0.1-0.1-0.1-0.1-0.2c0,0,0-0.1,0-0.1c0,0,0,0,0-0.1
				c0.7-0.3,2.4-1.1,4.7-2.3c1.9-1,6.5-3.7,7.6-4.5c0.9-0.7,7-6,8.2-7.3c7.1-8,6.8-17.3,6.8-19.8C139.8,51.8,129.8,42.4,129.8,42.4z
				"/>
			<g>
				<defs>
					<path id="SVGID_130_" d="M129.8,42.4c0,0-7.1-9.9-27.6-13.8c0.5-0.7,0.9-1.3,1.3-2.1c0.6-1.2,1.1-2.8,0.4-4
						c-0.6-1-1.9-1.5-3.1-1.5c-1.2,0.1-2.3,0.6-3.4,1.1c-2.6,1.2-5.2,2.7-7.3,4.6c0.3-0.9,0.4-1.8,0.2-2.7c-0.3-1.5-1.6-2.9-3.2-2.9
						c-1.4,0-2.6,0.9-3.7,1.7c-2.5,1.7-6.5,3.5-9.4,5.5c-0.2,0-0.4,0.1-0.6,0.1c0,0-11.7,1.5-23.4,10.1c-2.3,1.7-3.6,4.1-5.8,6.4
						c0,0-2.5,2.2-4,6.3c-1.9,5-3.9,12.3-3.3,19.5c0.3,4.1,3.9,13.8,7.2,16.8c1,0.9,4.7,4.6,7.6,7c1.2,0.9,4.6,2.9,6.9,4.1
						c1.5,0.8,3.3,1.6,5.8,2.4c0,0,0,0,0,0c0,0,0,0,0,0c0,0,0,0,0,0c0,0,0,0,0,0.1c0,0,0,0,0,0c0,0,0,0.1,0,0.1c0,0,0,0,0,0
						c0,0,0,0.1-0.1,0.1c0,0,0,0,0,0.1c0,0,0,0.1-0.1,0.2c0,0,0,0,0,0c-0.2,0.4-0.4,1-0.7,1.7c0,0,0,0,0,0.1c0,0.1-0.1,0.2-0.1,0.3
						c0,0,0,0.1,0,0.1c0,0.1-0.1,0.2-0.1,0.3c0,0,0,0.1-0.1,0.1c0,0.1-0.1,0.2-0.1,0.3c0,0.1,0,0.1-0.1,0.2c0,0.1-0.1,0.2-0.1,0.3
						c0,0.1,0,0.1-0.1,0.2c0,0.1-0.1,0.2-0.2,0.4c0,0.1-0.1,0.1-0.1,0.2c-0.1,0.1-0.1,0.2-0.2,0.4c0,0.1-0.1,0.1-0.1,0.2
						c-0.1,0.1-0.1,0.2-0.2,0.4c0,0.1-0.1,0.1-0.1,0.2c-0.1,0.1-0.1,0.3-0.2,0.4c0,0.1-0.1,0.1-0.1,0.2c-0.1,0.1-0.1,0.3-0.2,0.4
						c0,0.1-0.1,0.2-0.1,0.2c-0.1,0.1-0.1,0.3-0.2,0.4c0,0.1-0.1,0.2-0.1,0.2c-0.1,0.1-0.1,0.3-0.2,0.4c0,0.1-0.1,0.2-0.1,0.2
						c-0.1,0.1-0.1,0.3-0.2,0.4c0,0.1-0.1,0.2-0.1,0.3c-0.1,0.1-0.1,0.3-0.2,0.4c0,0.1-0.1,0.2-0.1,0.3c-0.1,0.1-0.1,0.3-0.2,0.4
						c0,0.1-0.1,0.2-0.1,0.3c-0.1,0.1-0.1,0.3-0.2,0.4c0,0.1-0.1,0.2-0.1,0.3c-0.1,0.1-0.1,0.3-0.2,0.4c0,0.1-0.1,0.2-0.1,0.3
						c-0.1,0.1-0.1,0.3-0.2,0.4c0,0.1-0.1,0.2-0.1,0.3c-0.1,0.1-0.1,0.3-0.2,0.4c0,0.1-0.1,0.2-0.1,0.3c-0.1,0.1-0.1,0.3-0.2,0.4
						c0,0.1-0.1,0.2-0.1,0.3c-0.1,0.1-0.1,0.3-0.2,0.5c0,0.1-0.1,0.2-0.1,0.3c-0.1,0.2-0.1,0.3-0.2,0.5c0,0.1-0.1,0.2-0.1,0.3
						c-0.1,0.2-0.1,0.3-0.2,0.5c0,0.1-0.1,0.2-0.1,0.3c-0.1,0.2-0.1,0.3-0.2,0.5c0,0.1-0.1,0.2-0.1,0.3c-0.1,0.2-0.1,0.3-0.2,0.5
						c0,0.1-0.1,0.2-0.1,0.3c-0.1,0.2-0.1,0.3-0.2,0.5c0,0.1-0.1,0.2-0.1,0.3c-0.1,0.2-0.1,0.3-0.2,0.5c0,0.1-0.1,0.2-0.1,0.3
						c0,0.2-0.1,0.3-0.1,0.5c0,0.1-0.1,0.2-0.1,0.3c0,0.2-0.1,0.3-0.1,0.5c0,0.1-0.1,0.2-0.1,0.4c0,0.2-0.1,0.3-0.1,0.5
						c0,0.1-0.1,0.2-0.1,0.4c0,0.2-0.1,0.3-0.1,0.5c0,0.1-0.1,0.2-0.1,0.4c0,0.1-0.1,0.3-0.1,0.4c0,0.1-0.1,0.2-0.1,0.4
						c0,0.1-0.1,0.3-0.1,0.4c0,0.1-0.1,0.2-0.1,0.4c0,0.1-0.1,0.3-0.1,0.4c0,0.1-0.1,0.2-0.1,0.4c0,0.1-0.1,0.3-0.1,0.4
						c0,0.1-0.1,0.2-0.1,0.4c0,0.1-0.1,0.3-0.1,0.4c0,0.1-0.1,0.2-0.1,0.4c0,0.1-0.1,0.3-0.1,0.4c0,0.1-0.1,0.2-0.1,0.4
						c0,0.1-0.1,0.3-0.1,0.4c0,0.1-0.1,0.2-0.1,0.3c0,0.1-0.1,0.3-0.1,0.4c0,0.1,0,0.2-0.1,0.3c0,0.1-0.1,0.3-0.1,0.4
						c0,0.1,0,0.2-0.1,0.3c0,0.1,0,0.3-0.1,0.4c0,0.1,0,0.2-0.1,0.3c0,0.1,0,0.3-0.1,0.4c0,0.1,0,0.2-0.1,0.3c0,0.1,0,0.3-0.1,0.4
						c0,0.1,0,0.2,0,0.3c0,0.1,0,0.3,0,0.4c0,0.1,0,0.2,0,0.3c0,0.1,0,0.2,0,0.4c0,0.1,0,0.2,0,0.3c0,0.1,0,0.2,0,0.4
						c0,0.1,0,0.2,0,0.3c0,0.1,0,0.2,0,0.4c0,0.1,0,0.2,0,0.3c0,0.1,0,0.2,0,0.3c0,0.1,0,0.2,0,0.3c0,0.1,0,0.2,0,0.3
						c0,0.1,0,0.2,0,0.3c0,0.1,0,0.2,0,0.3c0,0.1,0,0.2,0,0.3c0,0.1,0,0.2,0,0.3c0,0.1,0,0.2,0,0.2c0,0.1,0,0.2,0,0.3
						c0,0.1,0,0.1,0,0.2c0,0.1,0,0.2,0.1,0.4c0,0.1,0,0.1,0,0.2c0,0.2,0.1,0.3,0.1,0.5c-0.1,0.4-0.1,0.8,0,1.1c0,0.2,0,0.5,0.1,0.7
						c0.1,0.6,0.3,1.1,0.6,1.6c0.1,0.2,0.3,0.4,0.4,0.6c0.4,0.5,0.8,0.9,1.3,1.3c0.5,0.4,1.1,0.7,1.8,1c0.1,0.1,0.3,0.1,0.4,0.2
						c0.5,0.2,1.1,0.5,1.7,0.7c0.4,0.2,0.9,0.3,1.4,0.4c0.6,0.2,1.3,0.3,2,0.5c1,0.2,2.1,0.4,3.1,0.5c0.4,0,0.7,0.1,1.1,0.1
						c0.4,0,0.7,0.1,1.1,0.1c0.5,0,1.1,0.1,1.6,0.1c3,0.2,6,0.2,8.4,0c0,0,0.7,4,4.9,3.9h0c0.1,0,0.3,0,0.4,0c2.3-0.5,2.7-4.6,3-4.3
						c0.2,0.2,3.1,0,3.2,0c0,0,0-0.1,0-0.1l0.5,0c0,0,0,0.1,0,0.1c0,0.1,0,0.2,0.1,0.2c0,0.1,0,0.1,0,0.2c0,0.1,0.1,0.2,0.1,0.3
						c0,0,0,0.1,0,0.1c0,0.1,0.1,0.2,0.1,0.4c0,0,0,0.1,0,0.1c0,0.1,0.1,0.2,0.1,0.2c0,0,0,0.1,0.1,0.1c0,0.1,0.1,0.1,0.1,0.2
						c0,0,0,0.1,0.1,0.1c0,0.1,0.1,0.1,0.1,0.2c0,0,0,0.1,0,0.1c0,0.1,0.1,0.2,0.1,0.3c0,0,0,0,0,0c0,0.1,0.1,0.2,0.1,0.3
						c0,0,0,0.1,0.1,0.1c0,0.1,0.1,0.1,0.1,0.2c0,0,0,0.1,0.1,0.1c0,0.1,0.1,0.1,0.1,0.2c0,0,0,0.1,0.1,0.1c0,0.1,0.1,0.1,0.1,0.2
						c0,0,0,0,0,0.1c0.1,0.1,0.1,0.1,0.2,0.2c0,0,0,0,0,0c0,0,0.1,0.1,0.1,0.1c0,0,0,0,0.1,0.1c0,0,0.1,0.1,0.1,0.1c0,0,0,0,0.1,0.1
						c0,0,0.1,0.1,0.1,0.1c0,0,0,0,0.1,0c0.1,0,0.1,0.1,0.2,0.1c0.2,0.1,0.4,0.2,0.6,0.2c0.1,0,0.1,0,0.2,0c0.8,0,1.4-0.7,2-1.4
						c0.1-0.1,0.1-0.1,0.2-0.2c0.2-0.3,0.4-0.6,0.6-0.9c0-0.1,0.1-0.1,0.1-0.2c0.2-0.4,0.4-0.7,0.6-1c0.2-0.3,0.4-0.6,0.6-0.7
						c0,0,1.9,0.2,4.7,0.2c0.6,0,1.2,0,1.8,0c1.9,0,3.9-0.1,6-0.4c0.3,0,0.7-0.1,1-0.1c0.2,0,0.3-0.1,0.5-0.1c0.3-0.1,0.7-0.1,1-0.2
						c0.2,0,0.3-0.1,0.5-0.1c1.2-0.2,2.3-0.6,3.3-1c0.1-0.1,0.3-0.1,0.4-0.2c0.3-0.1,0.6-0.2,0.8-0.4c1.6-0.8,2.9-1.8,3.6-3.2
						c0.1-0.3,0.3-0.6,0.4-0.9c0.1-0.2,0.1-0.4,0.1-0.5c0.2-1.1,0.3-2.5,0.3-4.1c0-0.3,0-0.5,0-0.8c0-0.1,0-0.3,0-0.4
						c0-0.3,0-0.6-0.1-0.9c0-0.4-0.1-0.9-0.1-1.4c0-0.3-0.1-0.6-0.1-0.9c0-0.2,0-0.3-0.1-0.5c-0.1-0.6-0.2-1.3-0.3-2
						c0-0.2-0.1-0.3-0.1-0.5c-0.9-5-2.4-10.7-4.1-15.6c-0.1-0.2-0.1-0.4-0.2-0.7c0-0.1,0-0.1-0.1-0.2c-0.1-0.2-0.1-0.3-0.2-0.5
						c0-0.1-0.1-0.1-0.1-0.2c-0.1-0.2-0.1-0.3-0.2-0.5c0-0.1,0-0.1-0.1-0.2c-0.1-0.2-0.2-0.4-0.2-0.6c0,0,0,0,0-0.1
						c-0.1-0.2-0.1-0.4-0.2-0.6c0-0.1-0.1-0.1-0.1-0.2c-0.1-0.1-0.1-0.3-0.2-0.4c0-0.1-0.1-0.1-0.1-0.2c-0.1-0.1-0.1-0.3-0.2-0.4
						c0-0.1,0-0.1-0.1-0.2c-0.1-0.2-0.2-0.4-0.2-0.6c0,0,0-0.1,0-0.1c-0.1-0.2-0.1-0.3-0.2-0.5c0-0.1,0-0.1-0.1-0.2
						c-0.1-0.1-0.1-0.3-0.2-0.4c0-0.1-0.1-0.1-0.1-0.2c-0.1-0.1-0.1-0.3-0.2-0.4c0,0,0-0.1-0.1-0.1c-0.1-0.2-0.2-0.4-0.2-0.5
						c0,0,0-0.1,0-0.1c-0.1-0.1-0.1-0.3-0.2-0.4c0-0.1,0-0.1-0.1-0.2c-0.1-0.1-0.1-0.2-0.2-0.3c0-0.1,0-0.1-0.1-0.2
						c-0.1-0.1-0.1-0.3-0.2-0.4c0,0,0-0.1,0-0.1c-0.1-0.2-0.1-0.3-0.2-0.5c0,0,0-0.1,0-0.1c-0.1-0.1-0.1-0.2-0.2-0.3
						c0,0,0-0.1-0.1-0.1c0-0.1-0.1-0.2-0.1-0.3c0,0,0-0.1-0.1-0.1c-0.1-0.1-0.1-0.2-0.2-0.3c0,0,0,0,0-0.1c-0.1-0.1-0.1-0.2-0.2-0.4
						c0,0,0-0.1,0-0.1c0-0.1-0.1-0.2-0.1-0.2c0,0,0-0.1-0.1-0.1c0-0.1-0.1-0.1-0.1-0.2c0,0,0-0.1-0.1-0.1c0-0.1-0.1-0.2-0.1-0.2
						c0,0,0,0,0,0c0-0.1-0.1-0.2-0.1-0.3c0,0,0-0.1,0-0.1c0-0.1-0.1-0.1-0.1-0.2c0,0,0-0.1,0-0.1c0,0,0,0,0-0.1
						c0.7-0.3,2.4-1.1,4.7-2.3c1.9-1,6.5-3.7,7.6-4.5c0.9-0.7,7-6,8.2-7.3c7.1-8,6.8-17.3,6.8-19.8
						C139.8,51.8,129.8,42.4,129.8,42.4z"/>
				</defs>
				<clipPath id="SVGID_2_">
					<use xlink:href="#SVGID_130_"  style="overflow:visible;"/>
				</clipPath>
				<g style="clip-path:url(#SVGID_2_);">
					<g>
						<path class="st167" d="M114.3,37.1c-0.2,0.4,0,0.9,0.2,1.4c0.4,0.9,0.9,1.7,1.5,2.4c0.3,0.4,0.6,0.8,1,1.1
							c0.5,0.3,1,0.5,1.6,0.7c0.8,0.2,1.6,0.3,2.4,0.2c0.5-0.1,1-0.3,1.3-0.7c0.3-0.4,0.4-1,0.4-1.5c0-0.7,0.1-1.4-0.3-2
							c-0.3-0.5-0.8-0.8-1.2-1c-1.2-0.7-2.5-1.4-3.9-1.3C117.2,36.3,114.6,36.4,114.3,37.1z"/>
						<path class="st167" d="M124.3,41.5c0,0.8,0.3,1.6,0.7,2.4c0.3,0.7,0.8,1.3,1.5,1.6c0.5,0.2,1,0.2,1.5,0.1
							c0.6,0,1.2-0.1,1.8-0.2c0.6-0.1,1.3-0.2,1.8-0.6c0.6-0.5,0.7-1.3,0.6-2c-0.1-0.7-0.6-1.3-1.1-1.8
							C129.3,39.2,124.2,37.4,124.3,41.5z"/>
						<path class="st167" d="M124.4,52.9c0.4,0.5,0.9,1,1.5,1.3c0.6,0.3,1.3,0.3,1.9-0.1c0.4-0.3,0.6-0.8,0.7-1.3c0-0.5,0-1-0.1-1.5
							c-0.1-0.7-0.2-1.3-0.5-1.9c-0.2-0.4-0.5-0.8-0.7-1.2c-0.3-0.5-0.7-1-1.2-1.4c-1.1-0.8-3.8-1.2-4,0.6
							C121.6,49.3,123.1,51.4,124.4,52.9z"/>
						<path class="st167" d="M130.7,48.9c-0.4,1-0.2,2.2,0,3.3c0.1,0.7,0.2,1.3,0.5,1.9c0.9,1.9,3.3,2.8,5.4,2.7
							c0.3,0,0.7-0.1,1-0.3c0.5-0.4,0.5-1.1,0.4-1.8c-0.3-2.1-1.3-4.2-2.7-5.8c-0.5-0.6-1.5-1.8-2.3-1.9
							C131.9,46.9,131,48,130.7,48.9z"/>
					</g>
					<g>
						<path class="st167" d="M52.4,38.7c-0.2,0.6-0.4,1.3-0.1,1.9c0.3,1,1.5,1.4,2.6,1.3c0.9-0.1,1.7-0.4,2.4-0.9
							c1.4-1,2.2-2.6,2.8-4.2c0.1-0.2,0.1-0.4,0.1-0.5c-0.1-0.4-0.6-0.5-0.9-0.6c-1.4-0.2-3.9-1-5.2-0.4
							C52.9,35.8,52.7,37.7,52.4,38.7z"/>
						<path class="st167" d="M51.7,41.6c-0.1,0.5-0.4,1-0.6,1.5c-0.4,0.6-0.8,1.3-1.2,1.9c-0.2,0.3-0.4,0.6-0.7,0.7
							c-0.4,0.2-0.8,0.2-1.2,0.2c-1,0-2-0.1-3-0.2c-0.1,0-0.3,0-0.4-0.1c-0.1-0.1-0.2-0.2-0.2-0.3c-0.4-0.8-0.4-1.9-0.1-2.7
							s1-1.6,1.7-2.2c0.9-0.8,2.3-2,3.6-1.6C50.8,39,52,40.4,51.7,41.6z"/>
						<path class="st167" d="M42.9,46.7c0.8,0.1,1.5,0.6,1.9,1.3c0.4,0.7,0.7,1.5,0.7,2.3c0.1,1.1,0,2.2-0.5,3.2
							c-1,1.9-3.2,4.3-5.1,3.6c-0.8-0.3-1.5-1.5-1.6-2.1c-0.3-1.6-0.2-2.5,0.5-4c0.7-1.5,1.7-2.9,2.8-4.1"/>
						<path class="st167" d="M51.3,46.2c-0.5,0.2-0.9,0.5-1.2,0.9c-0.9,0.8-1.7,1.6-2.3,2.7c-0.6,1-0.9,2.2-0.7,3.4
							c0.1,0.3,0.2,0.6,0.3,0.8c0.3,0.4,0.9,0.6,1.5,0.6s1.1-0.3,1.5-0.5c1.9-1.1,3-3.2,3.6-5.3c0.2-0.8,0.5-1.8-0.2-2.3
							C53.1,45.9,51.9,46,51.3,46.2z"/>
					</g>
					<g>
						<path class="st167" d="M65.3,106.3c0.6,2.5-0.1,5.2-1.6,7.3c-0.8,1.1-1.8,2.1-3.1,2.5c-1.3,0.4-2.9,0.2-3.8-0.7
							c-0.7-0.7-1-1.6-1.2-2.5c-0.2-0.8-0.3-1.6-0.3-2.4c0.1-1.3,0.6-2.6,1.3-3.8c0.6-1,1.5-2,2.5-2.6
							C61.5,102.6,64.5,103.3,65.3,106.3z"/>
						<path class="st167" d="M62.4,117.6c-0.3,0.3-0.5,0.7-0.7,1.1c-0.6,1.2-1,2.7-0.4,3.9c0.2,0.5,0.6,0.9,1.1,1
							c0.3,0.1,0.6,0.1,0.9,0.1c1-0.1,1.9-0.7,2.5-1.6c0.7-1.2,0.7-2.7,0.5-4.1C65.9,116.2,63.4,116.5,62.4,117.6z"/>
						<path class="st167" d="M59.2,120.4c0.4,0.6,0.4,1.4,0.3,2.2c0,0.3-0.1,0.7-0.2,1c-0.2,0.5-0.7,1-0.9,1.5
							c-0.3,0.7-0.2,1.5-0.6,2.1c-0.3,0.6-1,0.8-1.6,1.1c-0.4,0.1-0.8,0.3-1.2,0.3c-0.4,0-0.8-0.1-1.1-0.5c-0.2-0.2-0.2-0.5-0.3-0.7
							c-0.3-1.7-0.7-3.6,0.2-5.1C54.6,120.6,57.6,118,59.2,120.4z"/>
						<path class="st167" d="M60.1,127.6c-0.3,0.5-0.3,1.1-0.4,1.7c0,0.5-0.1,1.1,0.2,1.6c0.2,0.4,0.6,0.7,1.1,0.8
							c0.5,0.1,1,0,1.3-0.4c0.6-0.5,0.7-1.5,0.7-2.3c0-0.6,0-1.1-0.2-1.7c0-0.1-0.1-0.2-0.2-0.3C62.1,126.5,60.6,126.9,60.1,127.6z"
							/>
						<path class="st167" d="M57.6,130.8c0.7,0.6,0.9,1.6,1,2.5c0.1,1,0.2,2.1-0.1,3.1c-0.3,1-1.1,1.9-2.1,2
							c-0.9,0.1-1.7-0.2-2.5-0.6c-0.4-0.2-0.8-0.4-1.1-0.7c-0.4-0.4-0.6-0.8-0.7-1.3c-0.4-1.6,0.2-3.7,1.5-4.8
							C54.5,130.2,56.6,130,57.6,130.8z"/>
					</g>
					<g>
						<path class="st167" d="M110.4,106.3c-0.6,2.5,0.1,5.2,1.6,7.3c0.8,1.1,1.8,2.1,3.1,2.5c1.3,0.4,2.9,0.2,3.8-0.7
							c0.7-0.7,1-1.6,1.2-2.5c0.2-0.8,0.3-1.6,0.3-2.4c-0.1-1.3-0.6-2.6-1.3-3.8c-0.6-1-1.5-2-2.5-2.6
							C114.2,102.6,111.1,103.3,110.4,106.3z"/>
						<path class="st167" d="M113.3,117.6c0.3,0.3,0.5,0.7,0.7,1.1c0.6,1.2,1,2.7,0.4,3.9c-0.2,0.5-0.6,0.9-1.1,1
							c-0.3,0.1-0.6,0.1-0.9,0.1c-1-0.1-1.9-0.7-2.5-1.6c-0.7-1.2-0.7-2.7-0.5-4.1C109.7,116.2,112.3,116.5,113.3,117.6z"/>
						<path class="st167" d="M116.4,120.4c-0.4,0.6-0.4,1.4-0.3,2.2c0,0.3,0.1,0.7,0.2,1c0.2,0.5,0.7,1,0.9,1.5
							c0.3,0.7,0.2,1.5,0.6,2.1c0.3,0.6,1,0.8,1.6,1.1c0.4,0.1,0.8,0.3,1.2,0.3c0.4,0,0.8-0.1,1.1-0.5c0.2-0.2,0.2-0.5,0.3-0.7
							c0.3-1.7,0.7-3.6-0.2-5.1C121,120.6,118.1,118,116.4,120.4z"/>
						<path class="st167" d="M115.5,127.6c0.3,0.5,0.3,1.1,0.4,1.7c0,0.5,0.1,1.1-0.2,1.6c-0.2,0.4-0.6,0.7-1.1,0.8
							c-0.5,0.1-1,0-1.3-0.4c-0.6-0.5-0.7-1.5-0.7-2.3c0-0.6,0-1.1,0.2-1.7c0-0.1,0.1-0.2,0.2-0.3
							C113.6,126.5,115.1,126.9,115.5,127.6z"/>
						<path class="st167" d="M118.1,130.8c-0.7,0.6-0.9,1.6-1,2.5c-0.1,1-0.2,2.1,0.1,3.1c0.3,1,1.1,1.9,2.1,2
							c0.9,0.1,1.7-0.2,2.5-0.6c0.4-0.2,0.8-0.4,1.1-0.7c0.4-0.4,0.6-0.8,0.7-1.3c0.4-1.6-0.2-3.7-1.5-4.8
							C121.2,130.2,119,130,118.1,130.8z"/>
					</g>
				</g>
			</g>
			<path class="st24" d="M113.1,104.2c3.3,7.7,11.4,27.4,9.4,35.7c0.5,4-3.2,6.4-8.2,7.7C125.6,140,116.7,113.5,113.1,104.2z"/>
			<path class="st24" d="M90.1,148.5c0.3-1.8-0.5-3.6-0.5-5.4c0-0.5,0-1,0-1.5c0-0.7-0.2-1.4-0.4-2c-0.2-0.9-0.3-1.7-0.3-2.6
				c-0.4,0.4-0.4,1-0.5,1.6c-0.2,2.3-0.6,4.6-1,6.9c-0.1,0.5-0.8,2.7-0.4,3C87.1,148.6,90.1,148.5,90.1,148.5z"/>
			<path class="st26" d="M78.5,149.2c0,0,2.6-2.2,7.9-0.7c0,0-0.5,3.7-2.9,4.6C81,153.9,78.5,149.2,78.5,149.2z"/>
			<path class="st26" d="M98.3,149.2c0,0-2.6-2.2-7.8-0.7c0,0,0.5,3.7,2.9,4.6C95.9,153.9,98.3,149.2,98.3,149.2z"/>
			<g>
				<path class="st26" d="M112.2,101c2.6,5.2,4.9,10.5,6.9,16c1.9,5.5,3.6,11.1,4.3,16.9c0.3,2.9,0.3,5.9-0.5,8.8
					c-0.5,1.5-1.7,2.7-3,3.4c-1.3,0.8-2.7,1.3-4.1,1.7c-2.9,0.7-5.8,1-8.7,1.2c-2.9,0.1-5.8,0.1-8.7,0c-0.1,0-0.2-0.1-0.2-0.2
					c0-0.1,0.1-0.2,0.2-0.2c2.9,0,5.8,0,8.7-0.2c2.9-0.2,5.8-0.6,8.5-1.4c1.4-0.4,2.7-0.9,3.9-1.6c1.2-0.7,2.2-1.7,2.5-3
					c0.7-2.7,0.7-5.6,0.4-8.4c-0.6-5.7-2.2-11.3-4.1-16.7c-1.9-5.4-4.1-10.8-6.6-16l0,0c-0.1-0.2,0-0.3,0.1-0.4
					C111.9,100.8,112.1,100.8,112.2,101z"/>
			</g>
			<g>
				<path class="st26" d="M64.8,101.4c-1.3,2.6-2.4,5.3-3.5,7.9c-1.1,2.7-2.1,5.4-3.1,8.1c-0.9,2.7-1.8,5.5-2.5,8.3
					c-0.7,2.8-1.3,5.6-1.5,8.5c-0.2,1.4-0.2,2.9-0.2,4.3c0,1.4,0.2,2.9,0.6,4.1c0.5,1.2,1.5,2.2,2.6,3c1.2,0.7,2.5,1.2,3.9,1.6
					c2.7,0.8,5.6,1.1,8.5,1.3c2.9,0.2,5.8,0.2,8.7,0.2c0.1,0,0.2,0.1,0.2,0.2c0,0.1-0.1,0.2-0.2,0.2c-2.9,0.1-5.8,0.2-8.7,0
					c-2.9-0.1-5.8-0.4-8.7-1.1c-1.4-0.4-2.8-0.9-4.1-1.6c-1.3-0.7-2.5-1.9-3.1-3.4c-0.5-1.5-0.6-2.9-0.7-4.4c-0.1-1.5,0-3,0.1-4.4
					c0.3-2.9,0.9-5.8,1.6-8.6c0.7-2.8,1.6-5.6,2.6-8.3c2-5.5,4.3-10.8,6.9-16c0.1-0.1,0.2-0.2,0.4-0.1
					C64.8,101.1,64.9,101.3,64.8,101.4L64.8,101.4z"/>
			</g>
			<g>
				<path class="st26" d="M88.5,121.8c0.2,4.6,0.2,9.3,0,14c-0.1,2.3-0.3,4.7-0.5,7c-0.3,2.3-0.6,4.6-1.3,6.9
					c-0.2,0.6-0.4,1.1-0.7,1.7c-0.3,0.5-0.6,1.1-1.2,1.5l-0.4,0.3c-0.2,0.1-0.3,0.1-0.5,0.2c-0.2,0.1-0.4,0.1-0.5,0.1
					c-0.2,0-0.4,0-0.5,0c-0.7-0.1-1.3-0.4-1.8-0.8c-1-0.8-1.7-1.8-2.3-2.8c-0.6-1-1.1-2.1-1.6-3.1c-1.9-4.3-3.2-8.8-4.3-13.3
					c0-0.1,0-0.2,0.1-0.2c0.1,0,0.2,0,0.2,0.1l0,0c1.2,4.5,2.7,8.9,4.6,13.1c0.5,1,1,2.1,1.6,3c0.6,0.9,1.3,1.9,2.1,2.5
					c0.8,0.7,1.9,0.9,2.5,0.2c0.7-0.6,1.2-1.7,1.5-2.8c0.7-2.1,1.1-4.4,1.5-6.7c0.3-2.3,0.5-4.6,0.7-6.9c0.2-2.3,0.3-4.6,0.3-6.9
					c0.1-2.3,0.1-4.6,0.1-7c0-0.1,0.1-0.1,0.1-0.1C88.5,121.7,88.5,121.8,88.5,121.8z"/>
			</g>
			<g>
				<path class="st26" d="M88.6,121.8c0,2.3,0,4.6,0.1,7c0.1,2.3,0.2,4.6,0.3,6.9c0.2,2.3,0.4,4.6,0.7,6.9c0.3,2.3,0.7,4.6,1.5,6.7
					c0.4,1,0.8,2.1,1.5,2.8c0.7,0.6,1.7,0.5,2.5-0.2c0.8-0.6,1.5-1.6,2.1-2.5c0.6-1,1.2-2,1.6-3c2-4.2,3.4-8.6,4.6-13.1l0,0
					c0-0.1,0.1-0.2,0.2-0.1c0.1,0,0.2,0.1,0.1,0.2c-1.1,4.5-2.4,9-4.3,13.3c-0.5,1.1-1,2.1-1.6,3.1c-0.6,1-1.3,2-2.3,2.8
					c-0.5,0.4-1.1,0.7-1.8,0.8c-0.2,0-0.3,0-0.5,0c-0.2,0-0.4,0-0.5-0.1c-0.2-0.1-0.4-0.1-0.5-0.2l-0.4-0.3c-0.5-0.5-0.9-1-1.2-1.5
					c-0.3-0.5-0.5-1.1-0.7-1.7c-0.7-2.3-1.1-4.6-1.3-6.9c-0.3-2.3-0.4-4.7-0.5-7c-0.2-4.7-0.2-9.3,0-14c0-0.1,0.1-0.1,0.1-0.1
					C88.6,121.7,88.6,121.8,88.6,121.8z"/>
			</g>
			<path class="st24" d="M104,133.4c0,0,2.6,14.3,10.7,14.5c0,0-6.7,1.4-16.4,0.9l3.2-7.5L104,133.4z"/>
			<path class="st24" d="M73,133.4c0,0-2.8,15.1-10.7,14.5l7.2,1.1h8.9C76.8,147.4,73,133.4,73,133.4z"/>
		</g>
		<path class="st24" d="M63.1,104.2c-3.3,7.7-11.4,27.4-9.4,35.7c-0.5,4,3.2,6.4,8.2,7.7C50.7,140,59.6,113.5,63.1,104.2z"/>
		<path class="st24" d="M112.9,100.8c40.8-29.8,12.8-61.4,12.8-61.4s0.9,0.1,2.4,0.2c1.8,1.4,3,4.1,4.8,5.9c0,0,1.8,1.5,3.6,5.6
			c2.2,4.9,3.9,12.3,3.3,19.5c-0.3,4.1-3.9,13.8-7.2,16.8c-1,0.9-4.7,4.6-7.6,7c-1.2,0.9-4.6,2.9-6.9,4.1
			C116.7,99.3,115,100.1,112.9,100.8z"/>
		<g>
			<path class="st26" d="M64.5,101.5c-4.2-1.6-8.1-3.6-11.8-6.1C49,93,45.6,90,42.8,86.5c-2.8-3.5-4.9-7.6-5.7-12.1
				c-0.4-2.2-0.5-4.5-0.4-6.7c0.1-2.2,0.2-4.5,0.6-6.7c0.7-4.4,2.2-8.7,4.3-12.6c2.2-3.9,5.2-7.3,8.6-10.1c3.5-2.8,7.4-5,11.5-6.6
				c4.1-1.7,8.4-2.8,12.8-3.7c0.1,0,0.3,0.1,0.3,0.2c0,0.1-0.1,0.3-0.2,0.3c-4.3,0.9-8.5,2.1-12.6,3.8c-4,1.7-7.9,3.9-11.2,6.7
				c-3.4,2.8-6.2,6.2-8.3,10c-2.1,3.8-3.4,8-4.1,12.3c-0.6,4.3-0.9,8.7-0.3,13c0.7,4.3,2.7,8.3,5.3,11.7c2.7,3.5,6,6.4,9.6,8.9
				c3.6,2.5,7.5,4.6,11.6,6.2l0,0c0.1,0.1,0.2,0.2,0.1,0.3C64.7,101.5,64.6,101.6,64.5,101.5z"/>
		</g>
		<g>
			<path class="st26" d="M111.8,101.2c4.1-1.6,8-3.7,11.6-6.2c3.6-2.5,6.9-5.4,9.6-8.8c2.7-3.4,4.7-7.4,5.4-11.7
				c0.2-1.1,0.3-2.1,0.4-3.2c0.1-1.1,0-2.2,0-3.3c-0.1-2.2-0.2-4.4-0.6-6.5c-0.6-4.3-1.9-8.5-4-12.3c-2.1-3.8-4.9-7.2-8.2-10
				c-3.3-2.8-7.2-5-11.2-6.7c-4-1.7-8.3-2.9-12.6-3.8c-0.1,0-0.2-0.2-0.2-0.3c0-0.1,0.2-0.2,0.3-0.2c4.3,0.8,8.6,2,12.8,3.7
				c4.1,1.7,8,3.9,11.5,6.7c3.5,2.8,6.4,6.3,8.6,10.2c2.2,3.9,3.6,8.2,4.3,12.7c0.4,2.2,0.5,4.4,0.6,6.7c0,1.1,0,2.2-0.1,3.4
				c-0.1,1.1-0.2,2.2-0.4,3.4c-0.9,4.4-3,8.6-5.8,12c-2.8,3.5-6.3,6.4-9.9,8.9c-3.7,2.5-7.6,4.5-11.8,6.1c-0.1,0.1-0.3,0-0.3-0.2
				C111.6,101.4,111.7,101.2,111.8,101.2L111.8,101.2z"/>
		</g>
		<g>
			<path class="st26" d="M71.6,30.1c2.1-1.7,4.2-3.2,6.4-4.7c2.2-1.5,4.4-3,6.9-4.2c0.6-0.3,1.3-0.5,2.1-0.6
				c0.8-0.1,1.5,0.1,2.2,0.4c0.7,0.3,1.3,1,1.5,1.7c0.3,0.7,0.4,1.5,0.3,2.2c-0.2,1.5-1,2.7-1.7,3.8c-0.8,1.1-1.7,2.1-2.7,3
				c-0.1,0.1-0.3,0.1-0.4,0c-0.1-0.1-0.1-0.3,0-0.4c1-0.9,1.8-1.9,2.5-3c0.7-1.1,1.3-2.3,1.4-3.5c0.1-1.2-0.4-2.4-1.4-2.8
				c-0.5-0.2-1.1-0.3-1.6-0.2c-0.5,0.1-1.1,0.3-1.7,0.6c-2.4,1-4.6,2.4-6.9,3.8c-2.2,1.4-4.4,2.9-6.6,4.4c-0.1,0.1-0.3,0.1-0.4-0.1
				C71.5,30.4,71.5,30.2,71.6,30.1z"/>
		</g>
		<g>
			<path class="st26" d="M90,26.2c2-1.4,4.1-2.6,6.2-3.8c1.1-0.6,2.2-1.2,3.4-1.5c0.6-0.2,1.3-0.2,2-0.2c0.7,0.1,1.4,0.3,2,0.7
				c0.6,0.4,1.1,1,1.3,1.7c0.2,0.7,0.1,1.5-0.1,2.1c-0.5,1.2-1.1,2.3-1.8,3.3c-1.5,2-3.6,3.5-5.9,4.4c-0.1,0-0.3,0-0.3-0.2
				c0-0.1,0-0.3,0.1-0.3c2.2-0.9,4.1-2.5,5.4-4.4c1.2-1.8,2.6-4.5,0.7-5.6c-0.8-0.6-1.9-0.8-3-0.5c-1.1,0.2-2.2,0.7-3.3,1.3
				c-2.2,1-4.3,2.2-6.3,3.4c-0.1,0.1-0.3,0-0.4-0.1C89.8,26.4,89.9,26.3,90,26.2z"/>
		</g>
		<path class="st24" d="M63.9,100.8C23.1,71,51.1,39.4,51.1,39.4s-0.9,0.1-2.4,0.2c-1.8,1.4-3,4.1-4.8,5.9c0,0-1.8,1.5-3.6,5.6
			c-2.2,4.9-3.9,12.3-3.3,19.5c0.3,4.1,3.9,13.8,7.2,16.8c1,0.9,4.7,4.6,7.6,7c1.2,0.9,4.6,2.9,6.9,4.1
			C60.1,99.3,61.7,100.1,63.9,100.8z"/>
		<circle class="st30" cx="66.8" cy="59.9" r="10.2"/>
		<circle class="st163" cx="66.9" cy="61.5" r="8.8"/>
		<circle class="st30" cx="109.2" cy="59.9" r="10.2"/>
		<circle class="st163" cx="109.3" cy="61.5" r="8.8"/>
		<g>
			<circle class="st26" cx="66.9" cy="62.4" r="7.1"/>
			
				<ellipse transform="matrix(0.7071 -0.7071 0.7071 0.7071 -19.8722 67.818)" class="st30" cx="71.9" cy="57.9" rx="2.6" ry="2.6"/>
			<circle class="st164" cx="66.8" cy="60.8" r="10.2"/>
			<path class="st165" d="M58.8,47.8c0,0,7.8-5.8,15.1,0"/>
		</g>
		<g>
			<circle class="st26" cx="109.3" cy="62.4" r="7.1"/>
			<ellipse transform="matrix(0.7071 -0.7071 0.7071 0.7071 -7.45 97.8079)" class="st30" cx="114.3" cy="57.9" rx="2.6" ry="2.6"/>
			<circle class="st164" cx="109.2" cy="60.8" r="10.2"/>
			<path class="st165" d="M101.7,48.9c0,0,7.8-5.8,15.1,0"/>
		</g>
		<g>
			<path class="st24" d="M84.1,85.7c0,0,1.1,2.2,2.8,2.5c1.7,0.3,3.4-2.2,3.4-2.2S88.4,88.3,84.1,85.7z"/>
			<g>
				<path class="st26" d="M83.6,77.5c0,0.4,0.1,0.8,0.5,1.1c0.5,0.4,1.1,0.5,1.7,0.5c0.9,0,1.8,0.5,1.9,1.3c0,0.2,0.7,0.1,0.7,0
					c0.2-1.5,2.6-1.3,3.5-1.8c1.1-0.6,1.3-2.8-0.5-4C90,73.7,83.6,73,83.6,77.5z"/>
				<g>
					<g>
						<path class="st26" d="M78,79c-2.3-0.7-4.7-1.2-7.1-1.2c-2.4,0-4.8,0.5-7.1,1.4c-2.2,0.9-4.3,2.2-6.2,3.8
							c-1.9,1.6-3.5,3.3-5.1,5.2c1.5-1.9,3.1-3.8,5-5.4c1.8-1.6,3.9-3,6.2-3.9c2.3-1,4.7-1.5,7.2-1.5c2.5-0.1,4.9,0.4,7.3,1.1
							c0.2,0,0.2,0.2,0.2,0.4C78.3,78.9,78.2,79,78,79C78,79,78,79,78,79z"/>
					</g>
					<g>
						<path class="st26" d="M77.9,80.7c-2.9,0-5.9,0.2-8.6,1.2c-2.8,0.9-5.3,2.5-7.4,4.6c-0.6,0.5-1,1-1.5,1.6
							c-0.5,0.5-1,1.1-1.4,1.7l-1.3,1.8l-1.2,1.9l-0.6,0.9l-0.5,1l-1,2c-0.6,1.3-1.2,2.7-1.8,4c0.6-1.4,1.1-2.7,1.7-4.1l1-2l0.5-1
							l0.6-0.9l1.1-1.9l1.3-1.8c0.4-0.6,0.9-1.2,1.4-1.7c0.5-0.6,1-1.1,1.5-1.6c2.1-2.1,4.6-3.7,7.4-4.8c2.8-1.1,5.8-1.3,8.7-1.4
							l0,0c0.2,0,0.3,0.1,0.3,0.3C78.2,80.5,78.1,80.7,77.9,80.7C77.9,80.7,77.9,80.7,77.9,80.7z"/>
					</g>
					<g>
						<path class="st26" d="M77.7,82.6c-2.7,0.7-5.1,2.1-7.3,3.8c-1.1,0.9-2.1,1.8-3,2.8c-0.9,1-1.7,2.2-2.3,3.5
							c0.5-1.3,1.3-2.5,2.2-3.6c0.9-1.1,1.9-2.1,3-3c2.2-1.8,4.6-3.3,7.3-4.1c0.2,0,0.3,0,0.4,0.2C77.9,82.3,77.9,82.5,77.7,82.6
							C77.7,82.5,77.7,82.5,77.7,82.6z"/>
					</g>
				</g>
				<g>
					<g>
						<path class="st26" d="M98.4,78.3c2.2-0.4,4.4-0.7,6.6-0.5c2.2,0.2,4.4,0.8,6.3,1.8c1.9,1.1,3.6,2.5,5.1,4.1
							c1.5,1.6,2.7,3.4,3.9,5.2c-1.2-1.8-2.5-3.6-4-5.1c-1.5-1.6-3.2-3-5.1-4c-1.9-1-4.1-1.5-6.2-1.6c-2.2-0.1-4.3,0.2-6.4,0.6
							c-0.2,0-0.3-0.1-0.3-0.2C98.1,78.5,98.2,78.4,98.4,78.3C98.4,78.3,98.4,78.3,98.4,78.3z"/>
					</g>
					<g>
						<path class="st26" d="M97.7,80.1c2.7,0.2,5.4,0.6,7.9,1.7c2.5,1.1,4.7,2.8,6.5,4.8c0.2,0.3,0.5,0.5,0.7,0.7l0.6,0.8
							c0.4,0.5,0.8,1.1,1.2,1.6l1.1,1.7l1,1.8l0.5,0.9l0.4,0.9l0.8,1.9c0.5,1.3,0.9,2.5,1.4,3.8c-0.5-1.3-0.9-2.5-1.5-3.8l-0.8-1.8
							l-0.4-0.9l-0.5-0.9l-1-1.8l-1.1-1.7c-0.3-0.6-0.8-1.1-1.2-1.6l-0.6-0.8c-0.2-0.3-0.5-0.5-0.7-0.7c-1.8-2-4-3.6-6.5-4.6
							c-2.4-1.1-5.1-1.4-7.8-1.6c-0.2,0-0.3-0.1-0.3-0.3C97.4,80.2,97.6,80.1,97.7,80.1C97.7,80.1,97.7,80.1,97.7,80.1L97.7,80.1z"
							/>
					</g>
					<g>
						<path class="st26" d="M99.4,82.6c2.9,0.3,5.5,1.7,7.6,3.6c2.1,1.9,3.7,4.3,4.6,7c-1-2.6-2.7-5-4.8-6.8
							c-2.1-1.8-4.7-3.1-7.5-3.2c-0.2,0-0.3-0.1-0.3-0.3C99.1,82.7,99.2,82.6,99.4,82.6C99.4,82.6,99.4,82.6,99.4,82.6z"/>
					</g>
				</g>
				<g>
					<path class="st26" d="M88.4,79.5c-0.4,0.7-0.9,1.2-1.5,1.8c-0.6,0.5-1.2,0.9-1.9,1.2c-0.7,0.3-1.4,0.5-2.2,0.6
						c-0.7,0.1-1.5,0-2.2-0.1c-0.1,0-0.1-0.1-0.1-0.2c0-0.1,0.1-0.1,0.1-0.1l0,0c0.7,0.1,1.4,0.1,2.1,0c0.7-0.1,1.4-0.3,2-0.6
						c0.6-0.3,1.2-0.7,1.7-1.2c0.5-0.5,0.9-1.1,1.2-1.6l0,0c0.1-0.2,0.3-0.3,0.5-0.2C88.5,79,88.6,79.3,88.4,79.5
						C88.5,79.5,88.5,79.5,88.4,79.5z"/>
				</g>
				<g>
					<path class="st26" d="M88.4,79.4c-0.1,0.6,0,1.3,0.3,1.9c0.3,0.6,0.8,1,1.4,1.4c0.3,0.2,0.6,0.3,1,0.4c0.3,0.1,0.7,0.2,1,0.3
						c0.7,0.1,1.4,0.2,2.1,0.2l0,0c0.1,0,0.1,0.1,0.1,0.1c0,0.1-0.1,0.1-0.1,0.1c-0.7,0-1.5,0-2.2-0.1c-0.4,0-0.7-0.1-1.1-0.2
						c-0.4-0.1-0.7-0.2-1.1-0.4c-0.7-0.3-1.3-0.8-1.8-1.5c-0.4-0.7-0.6-1.5-0.5-2.3c0-0.2,0.2-0.4,0.4-0.3
						C88.3,78.9,88.4,79.1,88.4,79.4C88.4,79.3,88.4,79.3,88.4,79.4L88.4,79.4z"/>
				</g>
			</g>
			<g>
				<path class="st26" d="M84.1,85.6c0.5,0.2,1,0.5,1.5,0.6c0.5,0.2,1,0.3,1.6,0.4c0.5,0.1,1.1,0,1.6-0.1c0.5-0.1,1-0.3,1.5-0.6l0,0
					c0,0,0.1,0,0.1,0c0,0,0,0.1,0,0.1c-0.4,0.4-0.9,0.7-1.5,0.8c-0.6,0.2-1.2,0.2-1.7,0.1c-1.1-0.2-2.2-0.6-3.1-1.3
					C84,85.7,84,85.7,84.1,85.6C84,85.6,84.1,85.6,84.1,85.6z"/>
			</g>
			<path class="st26" d="M88.1,79.3c0,0-1.5,2.8-4.3,3.4c0,0,0.6,0.1,0.8,1.1c0.2,1.2,1.8,2.1,4,1.8c2.2-0.3,1.4-2.5,2.6-2.3
				C91.1,83.3,88.1,82.7,88.1,79.3z"/>
			<path class="st30" d="M85.3,84.8c0,0,0.1,0.1,0.1,0.1c0,0.1,0.1,0.1,0.1,0.2c0.1,0,0.2,0,0.3,0.1c0.3,0,0.5,0.1,0.7,0.2l-0.2-1.9
				c0-0.4-0.6-0.5-0.8-0.2c-0.3,0.4-0.5,0.8-0.8,1.2C85,84.6,85.2,84.7,85.3,84.8z"/>
			<path class="st30" d="M89.2,85.4c-0.2-0.3-0.4-0.9-0.7-1.3c-0.1-0.3-0.5-0.2-0.6,0.1l-0.3,1.5c0.2-0.1,0.5-0.1,0.7-0.1
				C88.6,85.5,88.9,85.4,89.2,85.4z"/>
			<g>
				<path class="st26" d="M84,82.7c0-0.1,0-0.1-0.1-0.2l0,0c0,0,0,0,0,0l0,0l0.1,0c0.1,0,0.1,0.1,0.2,0.1c0.1,0.1,0.2,0.2,0.3,0.3
					c0.1,0.2,0.2,0.4,0.3,0.6c0.1,0.4,0.2,0.7,0.5,1c0.5,0.5,1.3,0.8,2.1,0.8c0.8,0,1.7,0,2.2-0.5c0.3-0.3,0.4-0.6,0.6-1
					c0.1-0.2,0.1-0.4,0.3-0.6c0.2-0.2,0.5-0.3,0.7-0.2c0.1,0,0.2,0.1,0.1,0.2c0,0.1-0.1,0.2-0.2,0.1l0,0c-0.2,0-0.3,0-0.4,0.1
					c-0.1,0.1-0.2,0.3-0.2,0.5c-0.1,0.4-0.3,0.8-0.6,1.1c-0.3,0.3-0.8,0.5-1.2,0.6c-0.4,0.1-0.8,0.1-1.3,0.1c-0.8,0-1.7-0.3-2.4-0.9
					c-0.3-0.3-0.5-0.8-0.6-1.2c0-0.2-0.1-0.4-0.2-0.5c0-0.1-0.1-0.1-0.2-0.2c0,0-0.1,0-0.1-0.1l-0.1,0l0,0l0,0l0,0
					c-0.1,0-0.1-0.1-0.1-0.2c0-0.1,0.1-0.2,0.2-0.2S84,82.6,84,82.7z"/>
			</g>
		</g>
	</g>
</g>
<g id="mask" class="st0">
</g>
</svg>
