<?xml version="1.0" encoding="utf-8"?>
<!-- Generator: Adobe Illustrator 21.0.0, SVG Export Plug-In . SVG Version: 6.00 Build 0)  -->
<svg version="1.1" xmlns="http://www.w3.org/2000/svg" xmlns:xlink="http://www.w3.org/1999/xlink" x="0px" y="0px"
	 viewBox="0 0 176.8 172.4" style="enable-background:new 0 0 176.8 172.4;" xml:space="preserve">
<style type="text/css">
	.st0{display:none;}
	.st1{display:inline;fill:#FD9994;}
	.st2{display:inline;fill:#FFFFFF;}
	.st3{display:inline;fill:none;stroke:#FFFFFF;stroke-width:2.2363;stroke-miterlimit:10;}
	.st4{display:inline;}
	.st5{fill:none;stroke:#FFFFFF;stroke-width:2.2363;stroke-miterlimit:10;}
	.st6{fill:#FFB380;}
	.st7{fill:#D2C3DB;}
	.st8{fill:#F9ECDC;}
	.st9{fill:#FFF58B;}
	.st10{fill:#F6BC60;}
	.st11{fill:#ECF784;}
	.st12{fill:#FFDEFF;}
	.st13{fill:#AED5D2;}
	.st14{fill:#F4BD9F;}
	.st15{fill:#B9DCFF;}
	.st16{fill:#D7FFFB;}
	.st17{fill:#81D8F7;}
	.st18{fill:#E57777;}
	.st19{fill:#D9FFDB;}
	.st20{opacity:0.1;}
	.st21{fill:#5CCDFF;}
	.st22{fill:none;}
	.st23{opacity:0.2;fill:#FFFFFF;}
	.st24{opacity:0.1;fill:#002CBF;}
	.st25{fill:#1A1A1A;}
	.st26{fill:#333333;}
	.st27{fill:#FFFFDE;}
	.st28{clip-path:url(#SVGID_4_);}
	.st29{fill:none;stroke:#333333;stroke-width:0.4917;stroke-linecap:round;stroke-linejoin:round;stroke-miterlimit:10;}
	.st30{fill:#FFFFFF;}
	.st31{fill:none;stroke:#333333;stroke-width:0.8543;stroke-miterlimit:10;}
	.st32{clip-path:url(#SVGID_6_);}
	.st33{fill:#FFD7B9;}
	.st34{fill:#F0FFFF;}
	.st35{clip-path:url(#SVGID_8_);}
	.st36{fill:#FF5C5C;}
	.st37{fill:none;stroke:#333333;stroke-width:0.466;stroke-linecap:round;stroke-linejoin:round;stroke-miterlimit:10;}
	.st38{fill:none;stroke:#333333;stroke-width:0.8095;stroke-miterlimit:10;}
	.st39{clip-path:url(#SVGID_10_);}
	.st40{fill:none;stroke:#333333;stroke-width:0.7381;stroke-linecap:round;stroke-linejoin:round;stroke-miterlimit:10;}
	.st41{fill:none;stroke:#333333;stroke-width:0.8857;stroke-linecap:round;stroke-linejoin:round;stroke-miterlimit:10;}
	.st42{fill:none;stroke:#333333;stroke-width:2.6852;stroke-linecap:round;stroke-linejoin:round;stroke-miterlimit:10;}
	.st43{fill:#72B5C4;}
	.st44{fill:#5E96A5;}
	.st45{fill:none;stroke:#FFFFFF;stroke-width:2.6852;stroke-linecap:round;stroke-linejoin:round;stroke-miterlimit:10;}
	.st46{fill:none;stroke:#FFFFFF;stroke-width:1.2942;stroke-linecap:round;stroke-linejoin:round;stroke-miterlimit:10;}
	.st47{fill:none;stroke:#FFFFFF;stroke-width:0.8311;stroke-linecap:round;stroke-linejoin:round;stroke-miterlimit:10;}
	.st48{fill:#FF5C00;}
	.st49{fill:#00B4FF;}
	.st50{fill:#FF5592;}
	.st51{fill:#733FFF;}
	.st52{fill:#DDFF15;}
	.st53{fill:#BF5855;}
	.st54{fill:none;stroke:#333333;stroke-width:0.5718;stroke-miterlimit:10;}
	.st55{fill:#C8F982;}
	.st56{fill:#AEF9C0;}
	.st57{fill:none;stroke:#FFFFFF;stroke-width:1.8326;stroke-miterlimit:10;}
	.st58{fill:#9AF6F9;}
	.st59{fill:#FFACA2;}
	.st60{fill:#F9E582;}
	.st61{fill:#FFC08B;}
	.st62{fill:#EFEB6A;}
	.st63{fill:#EC987F;}
	.st64{fill:#B5FFCC;}
	.st65{fill:#FFEDA2;}
	.st66{fill:#CCE7CC;}
	.st67{fill:#ABE7AB;}
	.st68{fill:#A6A6A6;}
	.st69{clip-path:url(#SVGID_60_);}
	.st70{fill:none;stroke:#333333;stroke-width:0.4706;stroke-linecap:round;stroke-linejoin:round;stroke-miterlimit:10;}
	.st71{fill:#FFEC55;}
	.st72{fill:none;stroke:#333333;stroke-width:0.8177;stroke-miterlimit:10;}
	.st73{clip-path:url(#SVGID_62_);}
	.st74{clip-path:url(#SVGID_64_);}
	.st75{fill:#FF7A59;}
	.st76{clip-path:url(#SVGID_66_);}
	.st77{clip-path:url(#SVGID_68_);}
	.st78{fill:#B45FFF;}
	.st79{clip-path:url(#SVGID_70_);}
	.st80{opacity:0.2;fill:#002CBF;}
	.st81{fill:none;stroke:#333333;stroke-width:0.5506;stroke-linecap:round;stroke-linejoin:round;stroke-miterlimit:10;}
	.st82{clip-path:url(#SVGID_72_);}
	.st83{fill:#EAA871;}
	.st84{fill:#FFD836;}
	.st85{fill:#FF846B;}
	.st86{fill:none;stroke:#333333;stroke-width:0.804;stroke-linecap:round;stroke-linejoin:round;stroke-miterlimit:10;}
	.st87{fill:#FEFF4A;}
	.st88{fill:none;stroke:#333333;stroke-width:0.7645;stroke-linecap:round;stroke-linejoin:round;stroke-miterlimit:10;}
	.st89{fill:none;stroke:#333333;stroke-width:0.7645;stroke-miterlimit:10;}
	.st90{fill:none;stroke:#333333;stroke-width:2.9248;stroke-linecap:round;stroke-linejoin:round;stroke-miterlimit:10;}
	.st91{fill:none;stroke:#333333;stroke-width:0.945;stroke-linecap:round;stroke-linejoin:round;stroke-miterlimit:10;}
	.st92{fill:none;stroke:#333333;stroke-width:0.945;stroke-miterlimit:10;}
	.st93{fill:none;stroke:#333333;stroke-width:3.6155;stroke-linecap:round;stroke-linejoin:round;stroke-miterlimit:10;}
	.st94{fill:none;stroke:#333333;stroke-width:0.6228;stroke-miterlimit:10;}
	.st95{fill:none;stroke:#333333;stroke-width:0.7778;stroke-linecap:round;stroke-linejoin:round;stroke-miterlimit:10;}
	.st96{fill:#FF712A;}
	.st97{fill:none;stroke:#333333;stroke-width:0.7396;stroke-linecap:round;stroke-linejoin:round;stroke-miterlimit:10;}
	.st98{fill:none;stroke:#333333;stroke-width:0.7396;stroke-miterlimit:10;}
	.st99{fill:none;stroke:#333333;stroke-width:2.8295;stroke-linecap:round;stroke-linejoin:round;stroke-miterlimit:10;}
	.st100{fill:none;stroke:#333333;stroke-width:0.9142;stroke-linecap:round;stroke-linejoin:round;stroke-miterlimit:10;}
	.st101{fill:none;stroke:#333333;stroke-width:0.9142;stroke-miterlimit:10;}
	.st102{fill:none;stroke:#333333;stroke-width:3.4977;stroke-linecap:round;stroke-linejoin:round;stroke-miterlimit:10;}
	.st103{fill:none;stroke:#333333;stroke-width:0.6025;stroke-miterlimit:10;}
	.st104{fill:url(#SVGID_89_);}
	.st105{fill:url(#SVGID_90_);}
	.st106{fill:none;stroke:#333333;stroke-width:0.7438;stroke-linecap:round;stroke-linejoin:round;stroke-miterlimit:10;}
	.st107{fill:none;stroke:#333333;stroke-width:0.8926;stroke-linecap:round;stroke-linejoin:round;stroke-miterlimit:10;}
	.st108{clip-path:url(#SVGID_92_);fill:url(#SVGID_93_);}
	.st109{fill:url(#SVGID_94_);}
	.st110{fill:#52C5FF;}
	.st111{fill:none;stroke:#333333;stroke-width:0.6367;stroke-linecap:round;stroke-linejoin:round;stroke-miterlimit:10;}
	.st112{fill:none;stroke:#333333;stroke-width:2.7061;stroke-linecap:round;stroke-linejoin:round;stroke-miterlimit:10;}
	.st113{fill:none;stroke:#333333;stroke-width:0.5763;stroke-miterlimit:10;}
	.st114{fill:none;stroke:#FFFFFF;stroke-width:1.3042;stroke-linecap:round;stroke-linejoin:round;stroke-miterlimit:10;}
	.st115{fill:none;stroke:#FFFFFF;stroke-width:0.8375;stroke-linecap:round;stroke-linejoin:round;stroke-miterlimit:10;}
	.st116{clip-path:url(#SVGID_96_);}
	.st117{opacity:0.2;fill:#2E3192;}
	.st118{fill:#FEFF78;}
	.st119{opacity:0.1;fill:#2E3192;}
	.st120{fill:#FF5A50;}
	.st121{fill:none;stroke:#333333;stroke-width:0.567;stroke-linecap:round;stroke-linejoin:round;stroke-miterlimit:10;}
	.st122{fill:none;stroke:#333333;stroke-width:2.5786;stroke-linecap:round;stroke-linejoin:round;stroke-miterlimit:10;}
	.st123{fill:none;stroke:#333333;stroke-width:0.5491;stroke-miterlimit:10;}
	.st124{clip-path:url(#SVGID_98_);}
	.st125{fill:#2AD2FF;}
	.st126{fill:none;stroke:#333333;stroke-width:0.2435;stroke-miterlimit:10;}
	.st127{fill:#FFFFFF;stroke:#333333;stroke-width:0.487;stroke-linecap:round;stroke-linejoin:round;stroke-miterlimit:10;}
	.st128{clip-path:url(#SVGID_100_);}
	.st129{fill:url(#SVGID_101_);}
	.st130{opacity:0.4;fill:#FFFFFF;}
	.st131{fill:#FFDC48;}
	.st132{fill:none;stroke:#333333;stroke-width:0.5835;stroke-linecap:round;stroke-linejoin:round;stroke-miterlimit:10;}
	.st133{fill:none;stroke:#333333;stroke-width:2.6537;stroke-linecap:round;stroke-linejoin:round;stroke-miterlimit:10;}
	.st134{fill:#F0F462;}
	.st135{fill:url(#SVGID_102_);}
	.st136{fill:url(#SVGID_103_);}
	.st137{fill:#D1DADF;}
	.st138{fill:#57FFA3;}
	.st139{clip-path:url(#SVGID_105_);}
	.st140{clip-path:url(#SVGID_107_);}
	.st141{fill:#D0BBF9;}
	.st142{clip-path:url(#SVGID_109_);}
	.st143{fill:none;stroke:#333333;stroke-width:0.5867;stroke-linecap:round;stroke-linejoin:round;stroke-miterlimit:10;}
	.st144{clip-path:url(#SVGID_111_);}
	.st145{fill:none;stroke:#333333;stroke-width:0.5514;stroke-linecap:round;stroke-linejoin:round;stroke-miterlimit:10;}
	.st146{fill:#D1E9D3;}
	.st147{clip-path:url(#SVGID_113_);}
	.st148{fill:none;stroke:#333333;stroke-width:0.7684;stroke-linecap:round;stroke-linejoin:round;stroke-miterlimit:10;}
	.st149{fill:none;stroke:#333333;stroke-width:0.7684;stroke-miterlimit:10;}
	.st150{fill:none;stroke:#333333;stroke-width:2.9398;stroke-linecap:round;stroke-linejoin:round;stroke-miterlimit:10;}
	.st151{clip-path:url(#SVGID_115_);}
	.st152{fill:#FF66F8;}
	.st153{fill:none;stroke:#333333;stroke-width:0.7542;stroke-linecap:round;stroke-linejoin:round;stroke-miterlimit:10;}
	.st154{fill:none;stroke:#333333;stroke-width:0.9051;stroke-linecap:round;stroke-linejoin:round;stroke-miterlimit:10;}
	.st155{fill:none;stroke:#333333;stroke-width:0.5146;stroke-linecap:round;stroke-linejoin:round;stroke-miterlimit:10;}
	.st156{fill:none;stroke:#333333;stroke-width:0.6033;stroke-linecap:round;stroke-linejoin:round;stroke-miterlimit:10;}
	.st157{fill:none;stroke:#333333;stroke-width:2.7439;stroke-linecap:round;stroke-linejoin:round;stroke-miterlimit:10;}
	.st158{fill:#333333;stroke:#333333;stroke-width:1.0293;stroke-linecap:round;stroke-linejoin:round;stroke-miterlimit:10;}
	.st159{fill:#FF5F2A;}
	.st160{fill:none;stroke:#333333;stroke-width:0.5965;stroke-linecap:round;stroke-linejoin:round;stroke-miterlimit:10;}
	.st161{fill:#F9CC3E;}
	.st162{clip-path:url(#SVGID_121_);}
	.st163{fill:#70E1FF;}
	.st164{fill:none;stroke:#333333;stroke-width:0.5717;stroke-linecap:round;stroke-linejoin:round;stroke-miterlimit:10;}
	.st165{fill:none;stroke:#333333;stroke-width:2.6004;stroke-linecap:round;stroke-linejoin:round;stroke-miterlimit:10;}
	.st166{clip-path:url(#SVGID_123_);}
	.st167{fill:#8F61FF;}
	.st168{clip-path:url(#SVGID_125_);}
	.st169{clip-path:url(#SVGID_127_);}
	.st170{fill:#FFEBEB;}
	.st171{clip-path:url(#SVGID_129_);}
	.st172{clip-path:url(#SVGID_131_);}
	.st173{fill:#F47D62;}
	.st174{fill:none;stroke:#333333;stroke-width:0.7188;stroke-linecap:round;stroke-linejoin:round;stroke-miterlimit:10;}
	.st175{fill:none;stroke:#333333;stroke-width:0.7188;stroke-miterlimit:10;}
	.st176{fill:none;stroke:#333333;stroke-width:2.7502;stroke-linecap:round;stroke-linejoin:round;stroke-miterlimit:10;}
	.st177{fill:#85ACB5;}
	.st178{clip-path:url(#SVGID_133_);}
	.st179{fill:#D5F2F7;}
	.st180{fill:#FF694A;}
	.st181{fill:none;stroke:#333333;stroke-width:0.5693;stroke-linecap:round;stroke-linejoin:round;stroke-miterlimit:10;}
	.st182{fill:#FFDF15;}
	.st183{fill:none;stroke:#333333;stroke-width:0.6674;stroke-linecap:round;stroke-linejoin:round;stroke-miterlimit:10;}
	.st184{fill:none;stroke:#333333;stroke-width:3.0352;stroke-linecap:round;stroke-linejoin:round;stroke-miterlimit:10;}
	.st185{clip-path:url(#SVGID_135_);}
	.st186{clip-path:url(#SVGID_137_);}
	.st187{fill:none;stroke:#333333;stroke-width:0.5248;stroke-linecap:round;stroke-linejoin:round;stroke-miterlimit:10;}
	.st188{fill:#FFD33A;}
	.st189{fill:none;stroke:#333333;stroke-width:2.7983;stroke-linecap:round;stroke-linejoin:round;stroke-miterlimit:10;}
	.st190{fill:none;stroke:#333333;stroke-width:0.7692;stroke-linecap:round;stroke-linejoin:round;stroke-miterlimit:10;}
	.st191{fill:none;stroke:#333333;stroke-width:0.5959;stroke-miterlimit:10;}
	.st192{clip-path:url(#SVGID_143_);}
	.st193{fill:#FFE267;}
	.st194{clip-path:url(#SVGID_149_);}
	.st195{fill:#FFEEAA;}
	.st196{opacity:0.7;fill:url(#SVGID_152_);}
	.st197{fill:none;stroke:#333333;stroke-width:0.611;stroke-miterlimit:10;}
	.st198{clip-path:url(#SVGID_154_);}
	.st199{opacity:0.7;fill:url(#SVGID_157_);}
	.st200{fill:#EABBFC;}
	.st201{opacity:0.7;fill:url(#SVGID_160_);}
	.st202{opacity:0.7;fill:url(#SVGID_163_);}
	.st203{opacity:0.7;fill:url(#SVGID_166_);}
	.st204{opacity:0.7;fill:url(#SVGID_169_);}
	.st205{clip-path:url(#SVGID_171_);}
	.st206{fill:none;stroke:#333333;stroke-width:0.5899;stroke-linecap:round;stroke-linejoin:round;stroke-miterlimit:10;}
	.st207{fill:none;stroke:#333333;stroke-width:2.6828;stroke-linecap:round;stroke-linejoin:round;stroke-miterlimit:10;}
	.st208{fill:none;stroke:#333333;stroke-width:0.5713;stroke-miterlimit:10;}
	.st209{clip-path:url(#SVGID_173_);}
	.st210{clip-path:url(#SVGID_175_);}
	.st211{clip-path:url(#SVGID_177_);}
	.st212{fill:#FFAFC3;}
	.st213{fill:#A0D3FF;}
	.st214{fill:none;stroke:#333333;stroke-width:0.7262;stroke-linecap:round;stroke-linejoin:round;stroke-miterlimit:10;}
	.st215{fill:none;stroke:#333333;stroke-width:0.6906;stroke-miterlimit:10;}
	.st216{fill:none;stroke:#333333;stroke-width:0.8536;stroke-miterlimit:10;}
	.st217{fill:#333333;stroke:#333333;stroke-width:0.991;stroke-linecap:round;stroke-linejoin:round;stroke-miterlimit:10;}
	.st218{clip-path:url(#SVGID_179_);}
	.st219{clip-path:url(#SVGID_181_);}
	.st220{fill:#FD9994;}
	.st221{opacity:0.2;}
	.st222{fill:#2E3192;}
	.st223{display:inline;fill:#FF5B00;}
</style>
<g id="site">
</g>
<g id="kitties">
	<g class="st0">
		<g class="st4">
			<line class="st5" x1="-268.7" y1="-158.4" x2="20.6" y2="291.8"/>
		</g>
	</g>
	<g>
		<ellipse class="st20" cx="89.4" cy="145.4" rx="51.1" ry="7"/>
		<path class="st34" d="M118.2,131.4c0,0,9.8-1.6,10.8-3.7c0,0-3.6-7.7,1-12.8c4.5-5.2,7.8-5.4,7.8-5.4l-7.8,1.4
			c0,0,7.1-6.8,13.3-7.4c6.2-0.5,10.9,2.1,13.4,5.3c2.5,3.3,9.8,14.3,0.6,26.5c-9.2,12.2-28.8,7.6-28.8,7.6l-11.6-3.4L118.2,131.4"
			/>
		<path class="st22" d="M118.2,131.4c0,0,9.8-1.6,10.8-3.7c0,0-3.6-7.7,1-12.8c4.5-5.2,7.8-5.4,7.8-5.4l-7.8,1.4
			c0,0,7.1-6.8,13.3-7.4c6.2-0.5,10.9,2.1,13.4,5.3c2.5,3.3,9.8,14.3,0.6,26.5c-9.2,12.2-28.8,7.6-28.8,7.6l-11.6-3.4L118.2,131.4"
			/>
		<path class="st23" d="M160.5,115.9c-1.2-3.2-2.9-5.7-3.8-7c-2.5-3.3-7.2-5.9-13.4-5.3c-6.2,0.5-13.3,7.4-13.3,7.4
			s10.2-6.2,15.8-5.7C153.7,106,158.8,113.2,160.5,115.9z"/>
		<path class="st24" d="M128.5,143.1c0,0,16,3.7,25.8-4.5c-2.4,0.9-6.2,1.8-12.1,2.3c-6.7,0.6-23-1.6-18.8-10.1l-5.2,0.8l-1.4,8.2
			L128.5,143.1z"/>
		<path class="st24" d="M128.6,128.1c0,0,2,6.7,7.2,7.2c0,0,1.5-4.8,4.4-5c2.7-0.2,4-2,4-2l-1.9,3.7c0,0,4.1,0.8,7.5-1.4
			c3.4-2.3,2.5-8.1,2.5-8.1s0,6.6-8.5,8.6l1.9-5.4c0,0-0.3,2.1-5,3.2c-3.6,0.9-4.5,2.4-5.3,5.1l0,0c0,0-4.5-2.5-6.5-6.2
			c-0.2-0.3-1.2,0.8-1.2,0.8"/>
		<g>
			<g>
				<path class="st25" d="M114.9,130.4c1.1,0.5,2.3,0.7,3.5,0.7c1.2,0,2.4-0.1,3.6-0.5c1.2-0.3,2.3-0.8,3.5-1.2l1.7-0.8
					c0.5-0.3,1.1-0.6,1.6-0.9l0,0c0.1,0,0.2,0,0.2,0.1c0,0.1,0,0.2-0.1,0.2c-0.5,0.4-1,0.7-1.5,1.1l-1.7,1c-1.1,0.6-2.3,1.1-3.6,1.4
					c-1.3,0.3-2.6,0.5-3.9,0.4c-1.3-0.1-2.6-0.4-3.7-1.2c-0.1-0.1-0.1-0.2,0-0.2C114.7,130.3,114.8,130.3,114.9,130.4L114.9,130.4z"
					/>
			</g>
			<g>
				<path class="st25" d="M115.7,138.9c3.9,1.8,8.1,3,12.3,3.7c4.2,0.7,8.6,1,12.9,0.7c4.3-0.3,8.5-1.5,12-4.1
					c3.5-2.5,5.8-6.3,7.1-10.3c1.4-4,1.7-8.5,0.5-12.6c-1.1-4.1-3.9-7.7-7.5-10c-1.8-1.1-3.8-2-5.9-2.3c-2.1-0.4-4.3-0.2-6.3,0.3
					c-4.2,1.1-7.8,3.7-10.8,6.7c-0.1,0.1-0.2,0.1-0.2,0c-0.1-0.1-0.1-0.2,0-0.2c3-3.1,6.6-5.8,10.9-7c2.1-0.6,4.4-0.7,6.6-0.4
					c2.2,0.4,4.3,1.2,6.1,2.4c1.9,1.2,3.5,2.7,4.9,4.4c1.3,1.8,2.3,3.8,3,5.9c1.3,4.3,0.9,8.9-0.4,13c-1.3,4.2-3.8,8.1-7.4,10.7
					c-3.6,2.6-8,3.8-12.4,4.2c-4.4,0.3-8.7-0.1-13-0.8c-4.3-0.8-8.5-2.1-12.4-4c-0.1-0.1-0.2-0.2-0.1-0.3
					C115.5,138.9,115.6,138.9,115.7,138.9z"/>
			</g>
			<g>
				<path class="st25" d="M137.8,109.7c-2.5,0.8-4.9,2.3-6.6,4.2c-1.7,2-2.8,4.5-3.1,7.1c-0.2,1.3-0.1,2.6,0.1,3.9
					c0.3,1.3,0.8,2.5,1.5,3.6c1.4,2.2,3.5,3.9,5.8,5.3c0.1,0,0.1,0.1,0.1,0.2c0,0.1-0.1,0.1-0.2,0.1c-1.2-0.6-2.4-1.4-3.4-2.2
					c-1.1-0.9-2-1.9-2.8-3c-0.8-1.1-1.4-2.4-1.7-3.8c-0.3-1.4-0.4-2.8-0.2-4.2c0.2-1.4,0.6-2.7,1.2-4c0.6-1.3,1.3-2.5,2.3-3.5
					c1.9-2,4.4-3.4,7.1-4c0.1,0,0.1,0,0.1,0.1C137.9,109.6,137.8,109.7,137.8,109.7L137.8,109.7z"/>
			</g>
			<g>
				<path class="st25" d="M135.3,133.9c0.2-1.2,0.6-2.4,1.3-3.4c0.3-0.5,0.8-1,1.4-1.4c0.3-0.2,0.6-0.3,0.9-0.4
					c0.3-0.1,0.6-0.1,0.9-0.1c1.1-0.1,2.3-0.5,3.3-0.9c0.5-0.2,1-0.5,1.5-0.9c0.5-0.3,0.8-0.8,1.1-1.2l0,0c0-0.1,0.1-0.1,0.2-0.1
					c0.1,0,0.1,0.1,0.1,0.2c-0.4,1.3-1.5,2.1-2.5,2.6c-1.1,0.6-2.3,0.9-3.5,1.1c-0.3,0-0.6,0.1-0.8,0.1c-0.2,0.1-0.5,0.1-0.7,0.3
					c-0.5,0.3-0.8,0.7-1.2,1.1c-0.7,0.9-1.1,2-1.5,3.1l0,0c0,0.1-0.1,0.1-0.2,0.1C135.3,134.1,135.3,134,135.3,133.9z"/>
			</g>
			<g>
				<path class="st25" d="M145.9,125.6c-0.1,1-0.4,1.9-0.7,2.8c-0.2,0.5-0.3,0.9-0.6,1.4c-0.2,0.4-0.4,0.9-0.8,1.3
					c-0.1,0.1-0.2,0.1-0.2,0c-0.1,0-0.1-0.1-0.1-0.2l0,0c0.2-0.9,0.5-1.8,0.8-2.8c0.3-0.9,0.6-1.8,1.1-2.7c0.1-0.1,0.2-0.1,0.3-0.1
					C145.9,125.5,146,125.6,145.9,125.6z"/>
			</g>
			<g>
				<path class="st25" d="M143.8,130.9c1-0.3,2-0.6,3-1.1c0.9-0.5,1.8-1.1,2.5-1.8c0.8-0.7,1.4-1.6,1.8-2.5c0.5-0.9,0.7-2,1-3l0,0
					c0-0.1,0.1-0.1,0.2-0.1c0.1,0,0.1,0.1,0.1,0.2c0,0.5-0.1,1.1-0.2,1.7c-0.1,0.5-0.3,1.1-0.5,1.6c-0.2,0.5-0.5,1-0.8,1.5
					c-0.3,0.5-0.7,0.9-1.1,1.3c-0.8,0.8-1.8,1.4-2.8,1.9c-1,0.4-2.1,0.7-3.2,0.8c-0.1,0-0.2-0.1-0.2-0.2
					C143.6,131,143.7,130.9,143.8,130.9L143.8,130.9z"/>
			</g>
		</g>
		<g>
			<path class="st25" d="M129.9,110.8c1.3-0.3,2.6-0.6,3.9-0.8c1.3-0.2,2.6-0.4,4-0.5c0.1,0,0.1,0,0.1,0.1c0,0.1,0,0.1-0.1,0.1l0,0
				c-1.3,0.4-2.6,0.6-3.9,0.8c-1.3,0.2-2.6,0.4-3.9,0.6c-0.1,0-0.2-0.1-0.2-0.1C129.8,110.9,129.8,110.8,129.9,110.8z"/>
		</g>
		<path class="st34" d="M126.2,50.3c0,0,37.3-30.7-23.5-12.4L126.2,50.3z"/>
		<path class="st34" d="M47.7,50.3c0,0-37.3-30.7,23.5-12.4"/>
		<g>
			<path class="st26" d="M47.6,50.4c-3.6-3-7.1-6.2-9.8-10.1c-0.7-1-1.3-2-1.6-3.2c-0.2-0.6-0.3-1.2-0.2-1.9
				c0.1-0.6,0.4-1.3,0.8-1.8c0.5-0.5,1-0.8,1.6-1.1c0.6-0.2,1.2-0.4,1.8-0.5c1.2-0.2,2.4-0.3,3.6-0.3c4.8,0.1,9.4,1.1,13.9,2.2
				c4.6,1.1,9,2.5,13.5,3.9c0.1,0,0.1,0.1,0.1,0.2c0,0.1-0.1,0.1-0.2,0.1c-4.5-1.3-9-2.5-13.6-3.5c-2.3-0.5-4.6-1-6.9-1.3
				c-2.3-0.4-4.6-0.7-6.9-0.7c-1.2,0-2.3,0-3.4,0.2c-1.1,0.2-2.2,0.5-2.9,1.2c-0.7,0.7-0.8,1.9-0.5,2.9c0.3,1.1,0.8,2.1,1.4,3.1
				c1.2,1.9,2.8,3.7,4.4,5.4c1.6,1.7,3.3,3.3,5,4.9c0,0,0.1,0.1,0,0.2C47.8,50.4,47.7,50.4,47.6,50.4z"/>
		</g>
		<g>
			<path class="st26" d="M63,39.9c-1.9-0.5-3.9-0.8-5.9-1.2c-2-0.3-3.9-0.6-5.9-0.7c-2-0.2-4-0.4-5.9-0.4c-2-0.1-4-0.1-6,0
				c-0.1,0-0.2-0.1-0.2-0.2c0-0.1,0.1-0.2,0.1-0.2c2-0.2,4-0.3,6-0.4c2,0,4,0,6,0.2c2,0.2,4,0.6,5.9,1c2,0.4,3.9,1,5.8,1.6
				c0.1,0,0.1,0.1,0.1,0.1C63.1,39.9,63,40,63,39.9z"/>
		</g>
		<path class="st26" d="M52.9,45.9c0.6,0.1,1.2,0.2,1.7,0.1c0.6-0.1,1-0.5,1.5-0.8c1.9-1.3,3.8-2.7,5.6-4.2c0.3-0.2,0.5-0.5,0.5-0.8
			c0-0.1,3.6,0.5,1-0.2c-1-0.3-3-1-4-1.2c-4.3-0.7-8.6-1.4-12.9-1.7c-4.6-0.4,0.1,5.3,1.6,6.5C49.3,44.7,51,45.6,52.9,45.9z"/>
		<g>
			<path class="st26" d="M126.1,50.2c1.8-1.5,3.4-3.2,5-4.9c1.6-1.7,3.1-3.5,4.4-5.4c0.6-1,1.2-2,1.4-3.1c0.3-1.1,0.2-2.2-0.5-2.9
				c-0.7-0.7-1.8-1.1-2.9-1.2c-1.1-0.2-2.3-0.2-3.4-0.2c-2.3,0.1-4.6,0.3-6.9,0.7c-2.3,0.4-4.6,0.8-6.9,1.3c-4.6,1-9.1,2.2-13.6,3.5
				c-0.1,0-0.2,0-0.2-0.1c0-0.1,0-0.2,0.1-0.2c4.5-1.4,9-2.7,13.5-3.9c4.6-1.1,9.2-2.1,13.9-2.2c1.2,0,2.4,0,3.6,0.3
				c0.6,0.1,1.2,0.3,1.8,0.5c0.6,0.2,1.1,0.6,1.6,1.1c0.5,0.5,0.7,1.1,0.8,1.8c0.1,0.7,0,1.3-0.2,1.9c-0.3,1.2-0.9,2.2-1.6,3.2
				c-2.7,3.9-6.2,7.1-9.8,10.1c0,0-0.1,0-0.2,0C126,50.3,126,50.3,126.1,50.2z"/>
		</g>
		<g>
			<path class="st26" d="M110.8,39.7c1.9-0.6,3.8-1.2,5.8-1.6c2-0.4,4-0.8,5.9-1c2-0.2,4-0.3,6-0.2c2,0,4,0.1,6,0.4
				c0.1,0,0.2,0.1,0.1,0.2c0,0.1-0.1,0.2-0.2,0.1c-2-0.1-4-0.1-6,0c-2,0.1-4,0.3-5.9,0.4c-2,0.2-4,0.4-5.9,0.7
				c-2,0.3-3.9,0.7-5.9,1.2c-0.1,0-0.1,0-0.1-0.1C110.7,39.8,110.8,39.7,110.8,39.7z"/>
		</g>
		<path class="st26" d="M121,45.9c-0.6,0.1-1.2,0.2-1.7,0.1c-0.6-0.1-1-0.5-1.5-0.8c-1.9-1.3-3.8-2.7-5.6-4.2
			c-0.3-0.2-0.5-0.5-0.5-0.8c0-0.1,0.1-0.3,0.2-0.4c0.8-0.7,1.8-0.9,2.8-1.1c4.3-0.7,8.6-1.4,12.9-1.7c4.6-0.4-0.1,5.3-1.6,6.5
			C124.5,44.7,122.8,45.6,121,45.9z"/>
		<path class="st34" d="M127.9,88.7c8.9-3.7,9.6-7.3,9.6-7.3s-1.4,0.4-2.7,0.2c-1.7-0.2-3.6-0.9-3.2-1c3.4-1,4.6-3.4,4.6-3.4
			c-1.4-0.4-2.9-1.5-3-2.2c0.1-1.6,0.1-2.8,0.1-3.5c0.3-14.4-8.8-22.9-8.8-22.9s-6.4-8.9-24.8-12.5c0.2-1.1,0.3-2.1,0.3-3.1
			c0.1-2.7-2.2-5.5-2.2-5.5c-0.3,4.6-2.4,5.5-2.4,5.5c1.1-3.1-1.3-6.6-3.8-9.2c-2.6-2.6-8.5-5.7-8.5-5.7s0.4,2.8,0.2,4.8
			c-0.1,2-2.9,4.2-4.7,6.1c-1.8,2-0.9,5.8-0.9,5.8c-1.8-0.2-3.2-3.8-3.2-3.8l-0.7,1.9c-0.2,0.9,0,1.8,0.3,2.7
			c-0.2,0-0.4,0.1-0.6,0.1c0,0-10.6,1.3-21.2,9.2c-2.1,1.5-3.2,3.7-5.3,5.8c0,0-2.3,2-3.7,5.7c-1.7,4.6-3.5,11.1-3,17.6
			c0,0.3,0.1,0.6,0.1,0.9c-0.1,0.7-1.1,1.4-3,2.1c0,0,1.6,2.3,4.6,3.4c0,0-1.5,1-5.9,0.7c-0.4,0,2.3,4.4,9.6,7.3l-3.6,0.4l-3.6-0.4
			c3.1,4,10.2,6.8,10.2,6.8l6.6,1.3c1.4,0.9,3.3,2,4.8,2.7c0.6,0.3,1.2,0.6,1.9,0.9c1.5,0.8,2.8,1.4,3.3,1.5
			c-1.1,2.6-11.9,26.3-9.7,35.3c-1,7.6,14.4,8.6,22.5,8.1c0,0,0.6,3.2,4.4,3.6c2.2,0.2,2.8-4.3,3.1-3.9c0.2,0.2,2.9,0,2.9,0
			c0,0,1.2,3.2,2.9,4.1c2.1,1.1,3.7-3.3,4.6-3.9c0,0,18,1.8,21.5-4.8c2-3.9-0.6-16.3-3.8-25.8c-1.8-5.4-4.4-10.7-5.4-12.6
			c0.3-0.1,0.9-0.3,1.6-0.6c0.8-0.2,1.8-0.6,2.8-1.2c1.3-0.7,3.9-2.2,5.6-3.2c0,0,13.8-2,16.8-8.2c0.3-0.5-1.8,0.9-4.6,0.2
			C130.1,88.8,127.5,88.9,127.9,88.7z"/>
		<g>
			<defs>
				<path id="SVGID_9_" d="M127.9,88.7c8.9-3.7,9.6-7.3,9.6-7.3s-1.4,0.4-2.7,0.2c-1.7-0.2-3.6-0.9-3.2-1c3.4-1,4.6-3.4,4.6-3.4
					c-1.4-0.4-2.9-1.5-3-2.2c0.1-1.6,0.1-2.8,0.1-3.5c0.3-14.4-8.8-22.9-8.8-22.9s-6.4-8.9-24.8-12.5c0.2-1.1,0.3-2.1,0.3-3.1
					c0.1-2.7-2.2-5.5-2.2-5.5c-0.3,4.6-2.4,5.5-2.4,5.5c1.1-3.1-1.3-6.6-3.8-9.2c-2.6-2.6-8.5-5.7-8.5-5.7s0.4,2.8,0.2,4.8
					c-0.1,2-2.9,4.2-4.7,6.1c-1.8,2-0.9,5.8-0.9,5.8c-1.8-0.2-3.2-3.8-3.2-3.8l-0.7,1.9c-0.2,0.9,0,1.8,0.3,2.7
					c-0.2,0-0.4,0.1-0.6,0.1c0,0-10.6,1.3-21.2,9.2c-2.1,1.5-3.2,3.7-5.3,5.8c0,0-2.3,2-3.7,5.7c-1.7,4.6-3.5,11.1-3,17.6
					c0,0.3,0.1,0.6,0.1,0.9c-0.1,0.7-1.1,1.4-3,2.1c0,0,1.6,2.3,4.6,3.4c0,0-1.5,1-5.9,0.7c-0.4,0,2.3,4.4,9.6,7.3l-3.6,0.4
					l-3.6-0.4c3.1,4,10.2,6.8,10.2,6.8l6.6,1.3c1.4,0.9,3.3,2,4.8,2.7c0.6,0.3,1.2,0.6,1.9,0.9c1.5,0.8,2.8,1.4,3.3,1.5
					c-1.1,2.6-11.9,26.3-9.7,35.3c-1,7.6,14.4,8.6,22.5,8.1c0,0,0.6,3.2,4.4,3.6c2.2,0.2,2.8-4.3,3.1-3.9c0.2,0.2,2.9,0,2.9,0
					c0,0,1.2,3.2,2.9,4.1c2.1,1.1,3.7-3.3,4.6-3.9c0,0,18,1.8,21.5-4.8c2-3.9-0.6-16.3-3.8-25.8c-1.8-5.4-4.4-10.7-5.4-12.6
					c0.3-0.1,0.9-0.3,1.6-0.6c0.8-0.2,1.8-0.6,2.8-1.2c1.3-0.7,3.9-2.2,5.6-3.2c0,0,13.8-2,16.8-8.2c0.3-0.5-1.8,0.9-4.6,0.2
					C130.1,88.8,127.5,88.9,127.9,88.7z"/>
			</defs>
			<clipPath id="SVGID_2_">
				<use xlink:href="#SVGID_9_"  style="overflow:visible;"/>
			</clipPath>
			<g style="clip-path:url(#SVGID_2_);">
				<path class="st36" d="M62.8,133.1c0.4-1.6,1.8-2.9,2.3-4.5c0.5-1.4,0.3-3.1-0.5-4.3c-0.4-0.6-0.9-1.1-1.1-1.8c0-0.3,0-0.7,0-1
					c0-0.1,0.1-0.3,0.1-0.4c0.6-3.1-1.4-10.7-4.6-8.8c-2.7,1.6-5.2,7.5-6.6,10.2c-1.9,3.8-3.4,7.8-4.5,11.9
					c-0.5,1.8-0.9,3.6-0.6,5.5c0.3,1.8,1.4,3.6,3.1,4.3c1.5,0.6,3.1,0.2,4.7-0.1c1.5-0.3,3-0.7,4.2-1.7c0.7-0.6,1.2-1.3,1.6-2.1
					c0,0,0,0,0.1-0.1c0.8-0.8,1.7-1.7,1.9-2.8c0.2-1.2-0.3-2.3-0.2-3.5C62.8,133.5,62.8,133.3,62.8,133.1z"/>
				<path class="st36" d="M109.9,117c0.2,1.1,0.8,2.2,1.1,3.3c0.5,2.1,0.1,4.4-1.3,6c-0.6,0.8-1.5,1.5-1.8,2.5
					c-0.7,1.8,0.6,3.7,1.8,5.2s2.7,3.1,2.4,5c-0.1,0.8-0.5,1.6-0.4,2.5c0.1,0.9,0.9,1.6,1.7,1.9c0.8,0.3,1.8,0.4,2.7,0.4
					c2.9,0.1,6.2,0,8.3-2.1c1.2-1.2,1.8-3,1.9-4.7c0.3-3.3-0.6-6.6-2-9.6c-1.5-3-3.4-5.6-5.4-8.3c-1-1.3-2-2.7-3-4
					c-0.8-1.1-1.7-3.1-3-3.6C110.2,110.2,109.5,115.4,109.9,117z"/>
				<path class="st36" d="M44.3,76.2c0.7,2,0.1,4.5,1.4,6.2c1.2,1.5,3.4,1.7,5.3,1.9c1.9,0.2,4.1,0.8,4.9,2.6
					c0.7,1.8-0.4,4.1,0.6,5.8c0.6,1,1.7,1.4,2.7,2c1.5,0.9,2.8,2.1,3.4,3.7c0.6,1.6,0.4,3.6-0.7,4.9c-2.2,2.5-6.2,1.4-9.5,1.8
					c-3.4,0.4-6.5,2.5-9.9,3.1c-4.2,0.7-8.4-1.2-12.2-3.2c-2-1.1-4.1-2.3-5.4-4.2c-1.5-2.2-1.7-4.9-1.8-7.6
					c-0.2-7.2,5-10.6,8.5-16.2C34.1,72.8,42.2,69.7,44.3,76.2z"/>
				<path class="st36" d="M129.6,76.2c-0.7,2-0.1,4.5-1.4,6.2c-1.2,1.5-3.4,1.7-5.3,1.9c-1.9,0.2-4.1,0.8-4.9,2.6
					c-0.7,1.8,0.4,4.1-0.6,5.8c-0.6,1-1.7,1.4-2.7,2c-1.5,0.9-2.8,2.1-3.4,3.7c-0.6,1.6-0.4,3.6,0.7,4.9c2.2,2.5,6.2,1.4,9.5,1.8
					c3.4,0.4,6.5,2.5,9.9,3.1c4.2,0.7,8.4-1.2,12.2-3.2c2-1.1,4.1-2.3,5.4-4.2c1.5-2.2,1.7-4.9,1.8-7.6c0.2-7.2-5-10.6-8.5-16.2
					C139.7,72.8,131.7,69.7,129.6,76.2z"/>
				<path class="st36" d="M69.6,39.8c1.3,2.2,3.3,4,3.9,6.4c0.4,1.5,0.2,3.1,0.4,4.7c0.2,1.5,1.1,3.2,2.6,3.5
					c0.9,0.1,1.8-0.2,2.6,0.2c0.5,0.3,0.9,0.9,1.4,1.2c1.6,1.2,3.8,0,5.8-0.1c2.5-0.1,5.3,1.6,7.2,0c0.5-0.4,0.9-1.1,1.5-1.5
					c1.1-0.9,2.6-0.8,4-1c1.4-0.2,3-1,3-2.5c0-1.1-1-1.9-1-3c0-1,0.9-1.8,1.5-2.7c0.9-1.3,1-3,1-4.6c0.2-6.5,0.1-13-0.3-19.4
					c-0.1-1.2-0.2-2.5-0.8-3.5c-0.7-1.2-2.1-1.9-3.3-2.4c-10.1-4-27.6,0.3-30.3,12.4C67.6,31.7,67.3,36.1,69.6,39.8z"/>
			</g>
		</g>
		<path class="st22" d="M127.9,88.7c8.9-3.7,9.6-7.3,9.6-7.3s-1.4,0.4-2.7,0.2c-1.7-0.2-3.6-0.9-3.2-1c3.4-1,4.6-3.4,4.6-3.4
			c-1.4-0.4-2.9-1.5-3-2.2c0.1-1.6,0.1-2.8,0.1-3.5c0.3-14.4-8.8-22.9-8.8-22.9s-6.4-8.9-24.8-12.5c0.2-1.1,0.3-2.1,0.3-3.1
			c0.1-2.7-2.2-5.5-2.2-5.5c-0.3,4.6-2.4,5.5-2.4,5.5c1.1-3.1-1.3-6.6-3.8-9.2c-2.6-2.6-8.5-5.7-8.5-5.7s0.4,2.8,0.2,4.8
			c-0.1,2-2.9,4.2-4.7,6.1c-1.8,2-0.9,5.8-0.9,5.8c-1.8-0.2-3.2-3.8-3.2-3.8l-0.7,1.9c-0.2,0.9,0,1.8,0.3,2.7
			c-0.2,0-0.4,0.1-0.6,0.1c0,0-10.6,1.3-21.2,9.2c-2.1,1.5-3.2,3.7-5.3,5.8c0,0-2.3,2-3.7,5.7c-1.7,4.6-3.5,11.1-3,17.6
			c0,0.3,0.1,0.6,0.1,0.9c-0.1,0.7-1.1,1.4-3,2.1c0,0,1.6,2.3,4.6,3.4c0,0-1.5,1-5.9,0.7c-0.4,0,2.3,4.4,9.6,7.3l-3.6,0.4l-3.6-0.4
			c3.1,4,10.2,6.8,10.2,6.8l6.6,1.3c1.4,0.9,3.3,2,4.8,2.7c0.6,0.3,1.2,0.6,1.9,0.9c1.5,0.8,2.8,1.4,3.3,1.5
			c-1.1,2.6-11.9,26.3-9.7,35.3c-1,7.6,14.4,8.6,22.5,8.1c0,0,0.6,3.2,4.4,3.6c2.2,0.2,2.8-4.3,3.1-3.9c0.2,0.2,2.9,0,2.9,0
			c0,0,1.2,3.2,2.9,4.1c2.1,1.1,3.7-3.3,4.6-3.9c0,0,18,1.8,21.5-4.8c2-3.9-0.6-16.3-3.8-25.8c-1.8-5.4-4.4-10.7-5.4-12.6
			c0.3-0.1,0.9-0.3,1.6-0.6c0.8-0.2,1.8-0.6,2.8-1.2c1.3-0.7,3.9-2.2,5.6-3.2c0,0,13.8-2,16.8-8.2c0.3-0.5-1.8,0.9-4.6,0.2
			C130.1,88.8,127.5,88.9,127.9,88.7z"/>
		<g>
			<path class="st24" d="M116.1,94.5c0,0-3.5,4.7-7.6,7.3c0,0,0.1,0.1,0.1,0.1c0.7-0.2,1.8-0.8,3-1.4c0.7-0.3,1.3-0.6,1.9-0.9
				c1.5-0.8,3.4-1.8,4.8-2.7l6.6-1.3c0,0,7.1-2.8,10.2-6.8C135,88.7,125,94.9,116.1,94.5z"/>
			<path class="st24" d="M127.7,88.7l-3.6-0.7c4.7-0.8,13.2-6.6,13.2-6.6l0,0.1C137.1,82.3,134.2,86.1,127.7,88.7z"/>
			<g>
				<path class="st24" d="M132.6,81.2l-0.4-0.2c0.1,0,0.3,0.1,0.5,0.2L132.6,81.2z"/>
				<path class="st24" d="M131.5,80.6l-2.7-1.6c3.1,0,7.2-1.7,7.2-1.7S134.4,79.6,131.5,80.6z"/>
			</g>
			<g>
				<path class="st37" d="M81.4,145.2c2.9-0.1,7.2-0.1,11.1,0"/>
				<path class="st24" d="M109.5,104.9c3,7,10.4,24.8,8.5,32.3c0.5,3.7-2.9,5.8-7.4,7C120.7,137.3,112.7,113.3,109.5,104.9z"/>
				<path class="st24" d="M88.6,145c0.3-1.6-0.4-3.3-0.5-4.9c0-0.5,0-0.9,0-1.4c0-0.6-0.2-1.2-0.3-1.8c-0.2-0.8-0.3-1.6-0.3-2.4
					c-0.3,0.4-0.4,0.9-0.4,1.4c-0.2,2.1-0.5,4.2-0.9,6.3c-0.1,0.5-0.7,2.4-0.4,2.8C85.9,145.1,88.6,145,88.6,145z"/>
				<path class="st26" d="M78.1,145.7c0,0,2.4-2,7.2-0.7c0,0-0.4,3.3-2.7,4.1S78.1,145.7,78.1,145.7z"/>
				<path class="st26" d="M96.1,145.7c0,0-2.4-2-7.1-0.7c0,0,0.4,3.3,2.6,4.1S96.1,145.7,96.1,145.7z"/>
				<g>
					<path class="st26" d="M108.6,101.8c2.4,4.7,4.5,9.6,6.2,14.5c1.8,5,3.3,10.1,3.9,15.4c0.3,2.6,0.3,5.3-0.4,8
						c-0.4,1.4-1.5,2.5-2.7,3.2c-1.2,0.7-2.5,1.2-3.7,1.5c-2.6,0.7-5.2,0.9-7.9,1.1c-2.6,0.1-5.3,0.1-7.9,0c-0.1,0-0.2-0.1-0.2-0.2
						c0-0.1,0.1-0.2,0.2-0.2c2.6,0,5.3,0,7.9-0.2c2.6-0.2,5.2-0.5,7.7-1.2c1.2-0.4,2.5-0.8,3.5-1.5c1.1-0.7,1.9-1.6,2.3-2.7
						c0.6-2.4,0.6-5.1,0.3-7.7c-0.5-5.2-2-10.3-3.7-15.2c-1.7-4.9-3.7-9.8-6-14.5l0,0c-0.1-0.1,0-0.3,0.1-0.4
						C108.3,101.6,108.5,101.7,108.6,101.8z"/>
				</g>
				<g>
					<path class="st26" d="M65.7,102.1c-2.2,4.8-4.2,9.6-6,14.6c-1.7,5-3.1,10.1-3.6,15.3c-0.3,2.6-0.3,5.3,0.4,7.7
						c0.4,1.1,1.3,2.1,2.3,2.7c1.1,0.7,2.3,1.1,3.5,1.5c2.5,0.7,5.1,1,7.7,1.2c2.6,0.2,5.3,0.2,7.9,0.2c0.1,0,0.2,0.1,0.2,0.2
						c0,0.1-0.1,0.2-0.2,0.2c-2.6,0.1-5.3,0.1-7.9,0c-2.6-0.1-5.3-0.4-7.9-1c-1.3-0.3-2.6-0.8-3.8-1.5c-1.2-0.7-2.3-1.7-2.8-3.1
						c-0.4-1.4-0.6-2.7-0.6-4c0-1.3,0-2.7,0.1-4c0.6-5.3,2.1-10.4,3.8-15.4c1.8-5,3.8-9.9,6.2-14.6c0.1-0.1,0.2-0.2,0.3-0.1
						C65.7,101.8,65.7,102,65.7,102.1L65.7,102.1z"/>
				</g>
				<g>
					<path class="st26" d="M87.2,120.9c0.2,4.2,0.2,8.4,0,12.6c-0.1,2.1-0.2,4.2-0.5,6.3c-0.3,2.1-0.6,4.2-1.2,6.3
						c-0.4,1-0.8,2.1-1.7,2.9l-0.4,0.3c-0.1,0.1-0.3,0.1-0.5,0.2c-0.2,0.1-0.3,0.1-0.5,0.1c-0.2,0-0.3,0-0.5,0
						c-0.6-0.1-1.2-0.4-1.6-0.7c-0.9-0.7-1.5-1.6-2.1-2.5c-0.6-0.9-1-1.9-1.5-2.8c-1.7-3.9-2.9-8-3.9-12.1c0-0.1,0-0.2,0.1-0.2
						c0.1,0,0.2,0,0.2,0.1c1.1,4,2.4,8.1,4.2,11.8c0.4,0.9,0.9,1.9,1.5,2.7c0.6,0.9,1.2,1.7,1.9,2.3c0.7,0.6,1.7,0.8,2.3,0.2
						c0.7-0.6,1.1-1.6,1.4-2.5c0.7-1.9,1-4,1.3-6.1c0.3-2.1,0.5-4.2,0.6-6.3c0.3-4.2,0.4-8.4,0.4-12.6c0-0.1,0.1-0.1,0.1-0.1
						C87.1,120.7,87.2,120.8,87.2,120.9z"/>
				</g>
				<g>
					<path class="st26" d="M87.2,120.9c0,4.2,0.1,8.4,0.4,12.6c0.1,2.1,0.3,4.2,0.6,6.3c0.3,2.1,0.7,4.1,1.3,6.1
						c0.3,0.9,0.7,1.9,1.4,2.5c0.6,0.6,1.6,0.4,2.3-0.2c0.8-0.6,1.4-1.4,1.9-2.3c0.6-0.9,1-1.8,1.5-2.7c1.8-3.8,3.1-7.8,4.2-11.8
						c0-0.1,0.1-0.1,0.2-0.1c0.1,0,0.1,0.1,0.1,0.2c-1,4.1-2.2,8.2-3.9,12.1c-0.4,1-0.9,1.9-1.5,2.8c-0.6,0.9-1.2,1.8-2.1,2.5
						c-0.4,0.4-1,0.7-1.6,0.7c-0.2,0-0.3,0-0.5,0c-0.2,0-0.3,0-0.5-0.1c-0.2-0.1-0.3-0.1-0.5-0.2l-0.4-0.3c-0.9-0.8-1.3-1.9-1.7-2.9
						c-0.7-2.1-1-4.2-1.2-6.3c-0.2-2.1-0.4-4.2-0.5-6.3c-0.2-4.2-0.2-8.4,0-12.6c0-0.1,0.1-0.1,0.1-0.1
						C87.2,120.8,87.2,120.8,87.2,120.9z"/>
				</g>
				<path class="st24" d="M101.2,131.3c0,0,2.4,12.9,9.7,13.1c0,0-6.1,1.3-14.8,0.9l2.9-6.8L101.2,131.3z"/>
				<path class="st24" d="M73.1,131.3c0,0-2.5,13.6-9.7,13.1l6.5,1H78C76.5,144,73.1,131.3,73.1,131.3z"/>
			</g>
			<path class="st24" d="M64.2,104.9c-3,7-10.4,24.8-8.5,32.3c-0.5,3.7,2.9,5.8,7.4,7C53,137.3,61,113.3,64.2,104.9z"/>
			<g>
				<path class="st26" d="M40.3,74.1c-0.1-4.7,0.4-9.5,1.8-14c1.4-4.5,3.8-8.8,7-12.2c3.3-3.4,7.3-6.1,11.6-8.1
					c4.3-2,8.8-3.3,13.4-4.2c0.1,0,0.3,0.1,0.3,0.2c0,0.1-0.1,0.2-0.2,0.3c-4.5,1-9,2.4-13.2,4.4c-4.2,2-8,4.7-11.1,8.1
					c-3.2,3.3-5.5,7.4-6.9,11.8c-1.4,4.4-1.9,9-1.9,13.6v0c0,0.3-0.2,0.5-0.5,0.5C40.5,74.6,40.3,74.4,40.3,74.1z"/>
			</g>
			<g>
				<path class="st26" d="M65.4,102.2c-1.8-0.7-3.5-1.5-5.2-2.3c-1.7-0.8-3.4-1.8-5-2.8c-0.2-0.1-0.3-0.4-0.2-0.6
					c0.1-0.2,0.4-0.3,0.6-0.2c0,0,0,0,0,0c1.5,1.1,3.1,2.1,4.8,3c1.7,0.9,3.4,1.7,5.1,2.4l0,0c0.1,0,0.2,0.2,0.1,0.3
					C65.6,102.2,65.5,102.2,65.4,102.2C65.4,102.2,65.4,102.2,65.4,102.2z"/>
			</g>
			<g>
				<path class="st26" d="M132.5,74.1c0-4.6-0.5-9.2-1.8-13.5c-1.4-4.3-3.7-8.4-6.8-11.7c-3-3.4-6.8-6.1-10.9-8.1
					c-4.1-2.1-8.5-3.5-13-4.5c-0.1,0-0.2-0.2-0.2-0.3c0-0.1,0.2-0.2,0.3-0.2c4.5,0.9,9,2.3,13.2,4.3c4.2,2,8.2,4.7,11.4,8.1
					c3.2,3.5,5.5,7.7,6.9,12.2c1.4,4.5,1.8,9.2,1.8,13.8c0,0.3-0.2,0.5-0.5,0.5C132.7,74.6,132.5,74.4,132.5,74.1L132.5,74.1z"/>
			</g>
			<g>
				<path class="st26" d="M108.2,101.8c1.8-0.6,3.5-1.5,5.1-2.4c1.6-0.9,3.3-1.9,4.8-3c0.2-0.1,0.5-0.1,0.6,0.1
					c0.1,0.2,0.1,0.5-0.1,0.6c0,0,0,0,0,0c-1.6,1-3.3,1.9-5,2.8c-1.7,0.9-3.4,1.6-5.2,2.3c-0.1,0-0.2,0-0.3-0.1
					C108,102,108.1,101.8,108.2,101.8C108.2,101.8,108.2,101.8,108.2,101.8L108.2,101.8z"/>
			</g>
			<g>
				<path class="st26" d="M118.4,96.3c1.5-0.1,3.1-0.3,4.6-0.6c1.5-0.4,3-0.8,4.5-1.5c1.5-0.6,2.8-1.4,4.1-2.3
					c1.3-0.9,2.4-2.1,3.4-3.3l0,0c0.1-0.1,0.2-0.1,0.4,0c0.1,0.1,0.1,0.2,0,0.3c-1,1.3-2.1,2.5-3.4,3.5c-1.3,1-2.7,1.9-4.2,2.5
					c-1.5,0.7-3,1.2-4.6,1.6c-1.6,0.4-3.2,0.7-4.8,0.8c-0.3,0-0.5-0.2-0.5-0.4C117.9,96.6,118.1,96.3,118.4,96.3
					C118.3,96.3,118.3,96.3,118.4,96.3L118.4,96.3z"/>
			</g>
			<g>
				<path class="st26" d="M128.1,88.3c0.5,0.2,1.1,0.3,1.7,0.4c0.6,0.1,1.2,0.1,1.8,0.1c1.2,0,2.4-0.1,3.6-0.3
					c0.1,0,0.3,0.1,0.3,0.2c0,0.1-0.1,0.3-0.2,0.3c-1.2,0.3-2.4,0.5-3.7,0.5c-0.6,0-1.2,0-1.9,0c-0.6-0.1-1.2-0.1-1.9-0.3
					c-0.2-0.1-0.4-0.3-0.3-0.6C127.5,88.3,127.8,88.2,128.1,88.3C128,88.3,128,88.3,128.1,88.3L128.1,88.3z"/>
			</g>
			<g>
				<path class="st26" d="M127.7,88.3c1.9-0.7,3.7-1.7,5.4-2.8c0.8-0.6,1.7-1.2,2.4-1.9c0.7-0.7,1.3-1.5,1.8-2.4l0,0
					c0.1-0.1,0.2-0.2,0.3-0.1c0.1,0.1,0.2,0.2,0.1,0.3c-0.4,1-1.1,1.8-1.8,2.6c-0.7,0.8-1.5,1.4-2.4,2c-0.8,0.6-1.7,1.2-2.6,1.7
					c-0.9,0.5-1.8,1-2.8,1.4c-0.2,0.1-0.5,0-0.6-0.2C127.4,88.7,127.5,88.4,127.7,88.3C127.7,88.3,127.7,88.3,127.7,88.3L127.7,88.3
					z"/>
			</g>
			<g>
				<path class="st26" d="M131.8,80.2c0.4,0.2,0.8,0.4,1.3,0.6c0.5,0.2,0.9,0.3,1.4,0.4c1,0.2,2,0.2,2.9-0.1l0,0
					c0.1,0,0.3,0.1,0.3,0.2c0,0.1,0,0.3-0.2,0.3c-1,0.3-2.1,0.4-3.1,0.3c-0.5-0.1-1.1-0.2-1.6-0.3c-0.5-0.1-1-0.3-1.5-0.6
					c-0.2-0.1-0.3-0.4-0.2-0.6S131.5,80.1,131.8,80.2C131.7,80.2,131.7,80.2,131.8,80.2L131.8,80.2z"/>
			</g>
			<g>
				<path class="st26" d="M131.4,80.2c0.9-0.3,1.8-0.7,2.6-1.2c0.8-0.5,1.6-1.1,2-1.9l0,0c0.1-0.1,0.2-0.2,0.3-0.1
					c0.1,0.1,0.2,0.2,0.1,0.3c-0.5,1-1.2,1.7-2.1,2.2c-0.8,0.6-1.7,1-2.6,1.4c-0.2,0.1-0.5,0-0.6-0.2
					C131,80.6,131.1,80.3,131.4,80.2C131.3,80.2,131.3,80.2,131.4,80.2L131.4,80.2z"/>
			</g>
			<g>
				<path class="st26" d="M133.5,74.2c0,0.3,0,0.7,0.1,1c0.1,0.3,0.3,0.7,0.6,0.9c0.3,0.3,0.6,0.5,0.9,0.6c0.3,0.2,0.7,0.2,1.1,0.3
					l0,0c0.1,0,0.2,0.2,0.2,0.3c0,0.1-0.1,0.2-0.3,0.2c-0.4,0-0.9-0.1-1.3-0.3c-0.4-0.1-0.8-0.4-1.2-0.7c-0.4-0.3-0.6-0.7-0.8-1.1
					c-0.2-0.4-0.3-0.9-0.3-1.4c0-0.3,0.2-0.5,0.5-0.5C133.2,73.6,133.5,73.8,133.5,74.2C133.5,74.1,133.5,74.1,133.5,74.2
					L133.5,74.2z"/>
			</g>
			<g>
				<g>
					<path class="st26" d="M55.3,97.2c-1.7-0.1-3.2-0.4-4.8-0.8c-1.6-0.4-3.1-0.9-4.6-1.6c-1.5-0.7-2.9-1.5-4.2-2.5
						c-1.3-1-2.4-2.2-3.4-3.5c-0.1-0.1-0.1-0.3,0-0.4c0.1-0.1,0.3-0.1,0.3,0l0,0c1,1.2,2.1,2.4,3.4,3.3c1.3,0.9,2.6,1.7,4.1,2.3
						c1.4,0.6,2.9,1.1,4.5,1.5c1.5,0.3,3.1,0.6,4.6,0.6l0,0c0.3,0,0.5,0.2,0.4,0.5C55.8,97.1,55.6,97.3,55.3,97.2
						C55.3,97.2,55.3,97.2,55.3,97.2z"/>
				</g>
				<g>
					<path class="st26" d="M46,89.2c-0.7,0.2-1.3,0.3-1.9,0.3c-0.6,0-1.3,0.1-1.9,0c-1.2-0.1-2.5-0.2-3.7-0.5
						c-0.1,0-0.2-0.2-0.2-0.3c0-0.1,0.2-0.2,0.3-0.2c1.2,0.2,2.4,0.3,3.6,0.3c0.6,0,1.2-0.1,1.8-0.1c0.6-0.1,1.2-0.2,1.7-0.4l0,0
						c0.2-0.1,0.5,0,0.6,0.3C46.4,88.8,46.2,89.1,46,89.2C46,89.2,46,89.2,46,89.2z"/>
				</g>
				<g>
					<path class="st26" d="M45.6,89.2c-1-0.4-1.9-0.9-2.8-1.4c-0.9-0.5-1.8-1-2.6-1.7c-0.8-0.6-1.7-1.3-2.4-2
						c-0.7-0.8-1.4-1.6-1.8-2.6c-0.1-0.1,0-0.3,0.1-0.3c0.1-0.1,0.3,0,0.3,0.1l0,0c0.4,0.9,1,1.7,1.8,2.4c0.7,0.7,1.5,1.3,2.4,1.9
						c1.7,1.1,3.5,2,5.4,2.8l0,0c0.2,0.1,0.4,0.4,0.3,0.6S45.9,89.3,45.6,89.2C45.6,89.2,45.6,89.2,45.6,89.2z"/>
				</g>
				<g>
					<path class="st26" d="M42.4,81.1c-0.5,0.3-1,0.4-1.5,0.6c-0.5,0.1-1,0.2-1.6,0.3c-1.1,0.1-2.1,0-3.1-0.3
						c-0.1,0-0.2-0.2-0.2-0.3c0-0.1,0.2-0.2,0.3-0.2l0,0c1,0.2,2,0.2,2.9,0.1c0.5-0.1,1-0.2,1.4-0.4c0.5-0.2,0.9-0.4,1.3-0.6l0,0
						c0.2-0.1,0.5-0.1,0.6,0.2C42.7,80.6,42.7,80.9,42.4,81.1C42.4,81,42.4,81,42.4,81.1z"/>
				</g>
				<g>
					<path class="st26" d="M42,81.1c-0.9-0.4-1.8-0.9-2.6-1.4c-0.8-0.6-1.6-1.3-2.1-2.2c-0.1-0.1,0-0.3,0.1-0.3
						c0.1-0.1,0.3,0,0.3,0.1l0,0c0.4,0.8,1.2,1.4,2,1.9c0.8,0.5,1.7,0.9,2.6,1.2l0,0c0.2,0.1,0.4,0.3,0.3,0.6
						C42.6,81.1,42.3,81.2,42,81.1C42,81.1,42,81.1,42,81.1z"/>
				</g>
				<g>
					<path class="st26" d="M41.2,74.1c0,0.5-0.1,1-0.3,1.4c-0.2,0.4-0.5,0.8-0.8,1.1c-0.4,0.3-0.8,0.5-1.2,0.7
						c-0.4,0.1-0.9,0.2-1.3,0.3c-0.1,0-0.3-0.1-0.3-0.2c0-0.1,0.1-0.2,0.2-0.3l0,0c0.4-0.1,0.8-0.2,1.1-0.3c0.4-0.1,0.7-0.4,0.9-0.6
						c0.3-0.3,0.4-0.6,0.6-0.9c0.1-0.3,0.2-0.7,0.1-1l0,0c0-0.3,0.2-0.5,0.4-0.5C40.9,73.6,41.2,73.8,41.2,74.1
						C41.2,74.1,41.2,74.1,41.2,74.1z"/>
				</g>
			</g>
			<g>
				<g>
					<g>
						<path class="st26" d="M77.7,41.9c-0.8-0.6-1.4-1.4-2-2.2c-0.6-0.8-1.1-1.7-1.5-2.6c-0.4-0.9-0.6-2-0.6-3c0-1,0.4-2.1,1-2.9
							c0-0.1,0.1-0.1,0.2,0c0,0,0.1,0.1,0,0.1l0,0c-0.4,0.9-0.5,1.8-0.5,2.8c0.1,0.9,0.3,1.8,0.7,2.7c0.3,0.9,0.8,1.7,1.3,2.5
							c0.5,0.8,1.1,1.6,1.7,2.4l0,0c0.1,0.1,0,0.2,0,0.2C77.9,42,77.8,42,77.7,41.9z"/>
					</g>
					<g>
						<path class="st26" d="M74.8,31.2c0.4,0.8,0.8,1.5,1.3,2.2c0.5,0.7,1,1.2,1.8,1.5l0,0c0.1,0,0.1,0.1,0.1,0.2
							c0,0-0.1,0.1-0.1,0.1c-0.5,0.1-1-0.1-1.4-0.3c-0.4-0.2-0.7-0.6-1-1c-0.3-0.4-0.5-0.8-0.6-1.2c-0.1-0.4-0.3-0.9-0.3-1.3
							c0-0.1,0.1-0.2,0.1-0.2C74.7,31.1,74.8,31.2,74.8,31.2L74.8,31.2z"/>
					</g>
					<g>
						<path class="st26" d="M77.7,35.1c-0.4-1.5-0.5-3.2,0.1-4.8c0.3-0.8,0.8-1.4,1.3-2c0.5-0.6,1.1-1.1,1.6-1.7
							c1.1-1.1,2.1-2.3,2.3-3.7c0.1-1.4,0.1-3.1-0.3-4.4l0,0c-0.1-0.2,0.1-0.4,0.3-0.5c0.1,0,0.2,0,0.3,0c1.6,0.8,3.1,1.7,4.5,2.7
							c1.4,1,2.9,2,4.1,3.3c1.2,1.3,2.3,2.7,3.1,4.2c0.4,0.8,0.7,1.6,0.8,2.5c0.1,0.9,0,1.8-0.4,2.6c0,0.1-0.1,0.1-0.2,0.1
							c-0.1,0-0.1-0.1-0.1-0.1c0.7-1.6,0.1-3.4-0.7-4.8c-0.8-1.5-1.9-2.8-3.2-4c-2.5-2.3-5.5-4.1-8.5-5.7l0.6-0.5
							c0.3,0.9,0.3,1.6,0.4,2.5c0,0.8,0,1.6-0.1,2.4c-0.3,1.7-1.5,3-2.6,4.1c-0.6,0.5-1.1,1.1-1.7,1.6c-0.5,0.6-1,1.1-1.3,1.8
							c-0.6,1.4-0.7,3-0.3,4.5l0,0c0,0.1,0,0.2-0.1,0.2C77.8,35.2,77.7,35.2,77.7,35.1z"/>
					</g>
					<g>
						<path class="st26" d="M95.5,33c0.4-0.3,0.7-0.7,1-1.1c0.3-0.4,0.5-0.9,0.6-1.3c0.2-0.5,0.3-0.9,0.4-1.4l0.3-1.5
							c0-0.1,0.1-0.1,0.1-0.1c0,0,0.1,0,0.1,0.1c0.1,0.3,0.1,0.5,0.1,0.8l0,0.8c0,0.5-0.1,1.1-0.3,1.6c-0.2,0.5-0.5,1-0.8,1.5
							c-0.4,0.4-0.8,0.8-1.4,0.9c-0.1,0-0.2,0-0.2-0.1C95.4,33.1,95.4,33.1,95.5,33L95.5,33z"/>
					</g>
					<g>
						<path class="st26" d="M98,27.5c0.9,0.9,1.5,2,1.9,3.1c0.4,1.2,0.6,2.4,0.6,3.6c0,1.2-0.2,2.5-0.6,3.6
							c-0.2,0.6-0.4,1.1-0.7,1.7c-0.3,0.5-0.6,1.1-0.9,1.6c0,0.1-0.1,0.1-0.2,0c0,0-0.1-0.1-0.1-0.1l0,0c0.2-0.6,0.4-1.1,0.6-1.7
							c0.2-0.6,0.4-1.1,0.5-1.7c0.3-1.1,0.4-2.3,0.5-3.4c0-1.2-0.1-2.3-0.5-3.4c-0.3-1.1-0.8-2.2-1.5-3.1l0,0c0-0.1,0-0.2,0-0.2
							C97.9,27.5,98,27.5,98,27.5z"/>
					</g>
				</g>
			</g>
			<path class="st24" d="M65.3,102.2c0.1-0.1,0.1-0.1,0.2-0.2c-4.3-2.6-8-7.5-8-7.5c-8.9,0.4-18.9-5.7-18.9-5.7
				c3.1,4,10.2,6.8,10.2,6.8l6.6,1.3c1.4,0.9,3.3,2,4.8,2.7c0.6,0.3,1.2,0.6,1.9,0.9c1.5,0.8,2.8,1.4,3.3,1.5
				C65.3,102,65.3,102.1,65.3,102.2z"/>
			<path class="st24" d="M45.8,88.7l3.6-0.7c-4.7-0.8-13.2-6.6-13.2-6.6l0,0.1C36.5,82.3,39.3,86.1,45.8,88.7z"/>
			<g>
				<path class="st24" d="M41.2,81.2l0.4-0.2c-0.1,0-0.3,0.1-0.5,0.2L41.2,81.2z"/>
				<path class="st24" d="M42.1,80.6l2.7-1.6c-3.1,0-7.2-1.7-7.2-1.7S39.1,79.6,42.1,80.6z"/>
			</g>
			<path class="st24" d="M83.5,23.1c-0.1,2-2.9,4.2-4.7,6.1c-0.5,0.5-0.7,1.1-0.9,1.7c1.5-3.4,6.1-3.8,7.7-5.6
				c1.5-1.8-2.3-7.1-2.3-7.1S83.6,21.1,83.5,23.1z"/>
			<path class="st24" d="M79.1,37.8l-1.3-2.7c-1.8-0.2-3.2-3.8-3.2-3.8S73.7,36,79.1,37.8z"/>
			<g>
				<path class="st24" d="M95.2,28.9c0.4,1.1,0.8,2.2,0.3,4.2C96,31.8,95.8,30.4,95.2,28.9z"/>
				<path class="st24" d="M95.5,33.2c-0.2,0.9-0.5,2.2-1.2,3.4c0,0,5.7-2.7,3.5-8.9C97.6,32.2,95.5,33.2,95.5,33.2z"/>
			</g>
		</g>
		<path class="st30" d="M54.5,65.6c0-6.2,3.5-8.9,9-8.9S75,61.7,75,67.1c0,5.5-4.6,10.3-10.1,10.3S54.5,71,54.5,65.6z"/>
		<path class="st21" d="M55.9,67.6c0-5.3,4.3-9.6,9.7-9.6c5.3,0,10.5,4.6,10.5,10s-5.2,9.3-10.5,9.3C60.2,77.3,55.9,72.9,55.9,67.6z
			"/>
		<g>
			<path class="st38" d="M55.7,60.8c2.2-3.4,9.8-5.7,15-2.3c5.2,3.4,6.8,9.9,3.7,14.6c-1.5,2.2-3.8,3.6-6.3,4.1
				c-2.8,0.5-5.9,0-8.6-1.8C54.3,72.1,53.4,64.4,55.7,60.8z"/>
			<path class="st26" d="M66.7,56.6c0,0-6-1.3-9.8-1.2c0,0-0.4,0.9,0,2.4c0,0-2.4,0.1-2.9,0.7c0,0-0.4,6.7,0.5,10.1
				c0,0-0.6-5.8,1.9-8.6C57.5,58.8,61.5,56.1,66.7,56.6z"/>
			<g>
				<ellipse class="st26" cx="67.8" cy="66.9" rx="8.4" ry="8.3"/>
				<ellipse class="st30" cx="67.7" cy="63.6" rx="3.3" ry="3.3"/>
				<ellipse class="st30" cx="60.9" cy="63.6" rx="1.8" ry="1.8"/>
			</g>
		</g>
		<path class="st30" d="M117.9,66.5c0-6-3.4-9.9-8.9-9.9s-11.5,5.1-11.5,10.5c0,5.5,4.6,10.3,10.1,10.3
			C113,77.4,117.9,72,117.9,66.5z"/>
		<path class="st21" d="M116.6,67.6c0-5.3-4.3-9.6-9.7-9.6s-10.6,4.6-10.6,10s5.3,9.3,10.6,9.3S116.6,72.9,116.6,67.6z"/>
		<g>
			<path class="st38" d="M116.7,60.8c-2.2-3.4-9.8-5.7-15-2.3c-5.2,3.4-6.8,9.9-3.7,14.6c1.5,2.2,3.8,3.6,6.3,4.1
				c2.8,0.5,5.9,0,8.6-1.8C118.2,72.1,119.1,64.4,116.7,60.8z"/>
			<path class="st26" d="M105.8,56.6c0,0,6-1.3,9.8-1.2c0,0,0.4,0.9,0,2.4c0,0,2.4,0.1,2.9,0.7c0,0,0.4,6.7-0.5,10.1
				c0,0,0.6-5.8-1.9-8.6C114.9,58.8,110.9,56.1,105.8,56.6z"/>
			<g>
				<ellipse class="st26" cx="104.7" cy="66.9" rx="8.4" ry="8.3"/>
				<ellipse class="st30" cx="104.8" cy="63.6" rx="3.3" ry="3.3"/>
				<ellipse class="st30" cx="111.5" cy="63.6" rx="1.8" ry="1.8"/>
			</g>
		</g>
		<g>
			<g>
				<path class="st30" d="M75.2,91.3c0,0,0.9,4.1,1.4,4c0.5-0.1,1.5-4,1.5-4"/>
				<path class="st26" d="M75.3,91.3l0.6,2.1c0.1,0.3,0.2,0.7,0.3,1c0.1,0.2,0.1,0.3,0.2,0.5c0,0.1,0.1,0.1,0.1,0.2
					c0,0.1,0.1,0.1,0,0.1c0,0,0,0,0,0l0.1-0.1c0-0.1,0.1-0.1,0.1-0.2c0.1-0.2,0.1-0.3,0.2-0.5c0.1-0.3,0.2-0.7,0.4-1l0.7-2.1
					c0,0,0.1-0.1,0.1-0.1c0,0,0.1,0.1,0.1,0.1c-0.1,0.7-0.3,1.4-0.5,2.1c-0.1,0.4-0.2,0.7-0.3,1c-0.1,0.2-0.1,0.3-0.2,0.5
					c-0.1,0.1-0.1,0.2-0.2,0.3l-0.1,0.1c-0.1,0-0.1,0.1-0.2,0.1c-0.3,0-0.3-0.2-0.4-0.2c-0.1-0.1-0.1-0.2-0.1-0.3
					c-0.1-0.2-0.1-0.3-0.2-0.5c-0.1-0.3-0.2-0.7-0.3-1c-0.2-0.7-0.3-1.4-0.4-2.1C75.2,91.3,75.2,91.3,75.3,91.3
					C75.3,91.3,75.3,91.3,75.3,91.3z"/>
			</g>
			<path class="st26" d="M80.6,80.3c-0.1,0.5,0.3,1,0.8,1.3c0.5,0.3,1,0.3,1.6,0.4c1.8,0.1,4.9,0.5,6.5-0.4c1.2-0.7,1.1-1.9,0-2.4
				C87.7,78.4,80.8,77.9,80.6,80.3z"/>
			<g>
				<path class="st26" d="M85.3,81.1c0.1,1.7,0,3.5-0.5,5.2c-0.2,0.8-0.5,1.7-0.9,2.5c-0.4,0.8-1,1.6-1.9,2c-1.7,0.7-3.4,1-5.2,1
					c-0.9,0-1.7,0-2.6-0.3c-0.4-0.1-0.9-0.3-1.2-0.5c-0.4-0.3-0.7-0.7-0.8-1.1c0-0.1,0-0.2,0.1-0.2c0.1,0,0.2,0,0.2,0.1
					c0.2,0.7,1,1.1,1.8,1.3c0.8,0.2,1.6,0.2,2.5,0.1c1.7-0.1,3.4-0.4,4.8-1.1c1.4-0.6,2-2.4,2.5-3.9c0.5-1.6,0.7-3.3,0.6-5
					c0-0.1,0.1-0.2,0.2-0.2C85.2,80.9,85.3,81,85.3,81.1z"/>
			</g>
			<g>
				<path class="st26" d="M85.4,81.1c-0.1,1.7,0.2,3.4,0.6,5c0.5,1.5,1.1,3.3,2.5,3.9c1.4,0.7,3.2,1,4.8,1.1c0.8,0,1.7,0,2.5-0.1
					c0.8-0.2,1.6-0.6,1.8-1.3c0-0.1,0.1-0.2,0.2-0.1c0.1,0,0.2,0.1,0.1,0.2c-0.1,0.5-0.4,0.9-0.8,1.1c-0.4,0.3-0.8,0.4-1.2,0.5
					c-0.9,0.2-1.7,0.3-2.6,0.3c-1.7,0-3.5-0.3-5.2-1c-0.9-0.4-1.5-1.2-1.9-2c-0.4-0.8-0.6-1.6-0.9-2.5c-0.4-1.7-0.6-3.4-0.5-5.2
					c0-0.1,0.1-0.2,0.2-0.2C85.4,80.9,85.4,81,85.4,81.1z"/>
			</g>
			<g>
				<g>
					<path class="st26" d="M72,82.1c-7.7,0.8-15.3,3.8-21.5,8.5c6.2-4.8,13.6-8,21.4-9c0.1,0,0.3,0.1,0.3,0.2S72.1,82.1,72,82.1
						C72,82.1,72,82.1,72,82.1z"/>
				</g>
				<g>
					<path class="st26" d="M71.7,84c-4.5,0.4-8.7,2.7-11.6,6.2c2.7-3.7,6.9-6.2,11.5-6.8c0.1,0,0.3,0.1,0.3,0.2
						C72,83.9,71.9,84,71.7,84C71.7,84,71.7,84,71.7,84z"/>
				</g>
				<g>
					<path class="st26" d="M71.8,85.6c-4.4,1.8-8.1,5.4-9.9,9.8c1.7-4.5,5.2-8.3,9.7-10.3c0.1-0.1,0.3,0,0.4,0.1
						C72,85.4,71.9,85.6,71.8,85.6C71.8,85.6,71.8,85.6,71.8,85.6z"/>
				</g>
			</g>
			<g>
				<g>
					<path class="st26" d="M98.5,81.6c7.8,1,15.3,4.2,21.4,9c-6.3-4.7-13.8-7.6-21.5-8.5c-0.1,0-0.3-0.1-0.2-0.3
						C98.2,81.7,98.4,81.5,98.5,81.6C98.5,81.6,98.5,81.6,98.5,81.6z"/>
				</g>
				<g>
					<path class="st26" d="M98.8,83.5c4.6,0.6,8.8,3.1,11.5,6.8c-2.8-3.5-7.1-5.8-11.6-6.2c-0.1,0-0.3-0.1-0.2-0.3
						C98.5,83.6,98.6,83.5,98.8,83.5C98.8,83.5,98.8,83.5,98.8,83.5z"/>
				</g>
				<g>
					<path class="st26" d="M98.9,85.1c4.5,2,8,5.8,9.7,10.3c-1.8-4.4-5.5-8.1-9.9-9.8c-0.1-0.1-0.2-0.2-0.2-0.3
						C98.6,85.1,98.7,85.1,98.9,85.1C98.9,85.1,98.9,85.1,98.9,85.1z"/>
				</g>
			</g>
		</g>
		<g>
			<path class="st26" d="M81.4,149.1c-0.3-0.1-0.5-0.2-0.6-0.4c-0.1-0.2-0.3-0.3-0.4-0.5c-0.2-0.4-0.3-0.7-0.4-1.1
				c-0.1-0.8-0.2-1.5-0.1-2.3c0-0.1,0.1-0.1,0.1-0.1c0.1,0,0.1,0,0.1,0.1c0.2,0.7,0.4,1.4,0.7,2.1c0.1,0.3,0.2,0.7,0.3,1
				c0.1,0.3,0.2,0.7,0.3,0.8l0.1,0.2C81.6,149,81.6,149.1,81.4,149.1C81.5,149.1,81.5,149.1,81.4,149.1z"/>
		</g>
		<g>
			<path class="st26" d="M83.2,148.7c-0.2-0.3-0.4-0.6-0.5-1c-0.1-0.3-0.2-0.7-0.2-1.1c0-0.7,0-1.5,0.2-2.1c0-0.1,0.1-0.1,0.2-0.1
				c0.1,0,0.1,0.1,0.1,0.1c0,0.7,0.1,1.3,0.3,2c0.1,0.3,0.2,0.6,0.2,1c0,0.3,0.1,0.7,0.1,1l0,0c0,0.1-0.1,0.2-0.2,0.2
				C83.2,148.8,83.2,148.7,83.2,148.7z"/>
		</g>
		<g>
			<path class="st26" d="M92.4,148.8c0.1-0.2,0.2-0.5,0.3-0.8c0.1-0.3,0.2-0.7,0.3-1c0.3-0.7,0.4-1.4,0.7-2.1c0-0.1,0.1-0.1,0.2-0.1
				c0.1,0,0.1,0.1,0.1,0.1c0,0.8,0,1.5-0.1,2.3c-0.1,0.4-0.2,0.8-0.4,1.1c-0.1,0.2-0.2,0.3-0.4,0.5c-0.2,0.2-0.3,0.3-0.6,0.4
				c-0.1,0-0.1,0-0.2-0.1c0,0,0-0.1,0-0.1L92.4,148.8z"/>
		</g>
		<g>
			<path class="st26" d="M90.4,148.6c0-0.4,0-0.7,0.1-1c0-0.3,0.1-0.7,0.2-1c0.2-0.7,0.3-1.3,0.3-2c0-0.1,0.1-0.1,0.1-0.1
				c0.1,0,0.1,0,0.1,0.1c0.2,0.7,0.2,1.4,0.2,2.1c0,0.4-0.1,0.7-0.2,1.1c-0.1,0.3-0.3,0.7-0.5,1c-0.1,0.1-0.2,0.1-0.3,0
				C90.4,148.7,90.4,148.6,90.4,148.6L90.4,148.6z"/>
		</g>
	</g>
</g>
<g id="mask" class="st0">
</g>
</svg>
