<?xml version="1.0" encoding="utf-8"?>
<!-- Generator: Adobe Illustrator 21.0.0, SVG Export Plug-In . SVG Version: 6.00 Build 0)  -->
<svg version="1.1" xmlns="http://www.w3.org/2000/svg" xmlns:xlink="http://www.w3.org/1999/xlink" x="0px" y="0px"
	 viewBox="0 0 176.8 172.4" style="enable-background:new 0 0 176.8 172.4;" xml:space="preserve">
<style type="text/css">
	.st0{display:none;}
	.st1{display:inline;fill:#FD9994;}
	.st2{display:inline;fill:#FFFFFF;}
	.st3{display:inline;fill:none;stroke:#FFFFFF;stroke-width:2.2363;stroke-miterlimit:10;}
	.st4{display:inline;}
	.st5{fill:none;stroke:#FFFFFF;stroke-width:2.2363;stroke-miterlimit:10;}
	.st6{fill:#FFB380;}
	.st7{fill:#D2C3DB;}
	.st8{fill:#F9ECDC;}
	.st9{fill:#FFF58B;}
	.st10{fill:#F6BC60;}
	.st11{fill:#ECF784;}
	.st12{fill:#FFDEFF;}
	.st13{fill:#AED5D2;}
	.st14{fill:#F4BD9F;}
	.st15{fill:#B9DCFF;}
	.st16{fill:#D7FFFB;}
	.st17{fill:#81D8F7;}
	.st18{fill:#E57777;}
	.st19{fill:#D9FFDB;}
	.st20{opacity:0.1;}
	.st21{fill:#5CCDFF;}
	.st22{fill:none;}
	.st23{opacity:0.2;fill:#FFFFFF;}
	.st24{opacity:0.1;fill:#002CBF;}
	.st25{fill:#1A1A1A;}
	.st26{fill:#333333;}
	.st27{fill:#FFFFDE;}
	.st28{clip-path:url(#SVGID_4_);}
	.st29{fill:none;stroke:#333333;stroke-width:0.4917;stroke-linecap:round;stroke-linejoin:round;stroke-miterlimit:10;}
	.st30{fill:#FFFFFF;}
	.st31{fill:none;stroke:#333333;stroke-width:0.8543;stroke-miterlimit:10;}
	.st32{clip-path:url(#SVGID_6_);}
	.st33{fill:#FFD7B9;}
	.st34{fill:#F0FFFF;}
	.st35{clip-path:url(#SVGID_8_);}
	.st36{fill:#FF5C5C;}
	.st37{fill:none;stroke:#333333;stroke-width:0.466;stroke-linecap:round;stroke-linejoin:round;stroke-miterlimit:10;}
	.st38{fill:none;stroke:#333333;stroke-width:0.8095;stroke-miterlimit:10;}
	.st39{clip-path:url(#SVGID_10_);}
	.st40{fill:none;stroke:#333333;stroke-width:0.7381;stroke-linecap:round;stroke-linejoin:round;stroke-miterlimit:10;}
	.st41{fill:none;stroke:#333333;stroke-width:0.8857;stroke-linecap:round;stroke-linejoin:round;stroke-miterlimit:10;}
	.st42{fill:none;stroke:#333333;stroke-width:2.6852;stroke-linecap:round;stroke-linejoin:round;stroke-miterlimit:10;}
	.st43{fill:#72B5C4;}
	.st44{fill:#5E96A5;}
	.st45{fill:none;stroke:#FFFFFF;stroke-width:2.6852;stroke-linecap:round;stroke-linejoin:round;stroke-miterlimit:10;}
	.st46{fill:none;stroke:#FFFFFF;stroke-width:1.2942;stroke-linecap:round;stroke-linejoin:round;stroke-miterlimit:10;}
	.st47{fill:none;stroke:#FFFFFF;stroke-width:0.8311;stroke-linecap:round;stroke-linejoin:round;stroke-miterlimit:10;}
	.st48{fill:#FF5C00;}
	.st49{fill:#00B4FF;}
	.st50{fill:#FF5592;}
	.st51{fill:#733FFF;}
	.st52{fill:#DDFF15;}
	.st53{fill:#BF5855;}
	.st54{fill:none;stroke:#333333;stroke-width:0.5718;stroke-miterlimit:10;}
	.st55{fill:#C8F982;}
	.st56{fill:#AEF9C0;}
	.st57{fill:none;stroke:#FFFFFF;stroke-width:1.8326;stroke-miterlimit:10;}
	.st58{fill:#9AF6F9;}
	.st59{fill:#FFACA2;}
	.st60{fill:#F9E582;}
	.st61{fill:#FFC08B;}
	.st62{fill:#EFEB6A;}
	.st63{fill:#EC987F;}
	.st64{fill:#B5FFCC;}
	.st65{fill:#FFEDA2;}
	.st66{fill:#CCE7CC;}
	.st67{fill:#ABE7AB;}
	.st68{fill:#A6A6A6;}
	.st69{clip-path:url(#SVGID_60_);}
	.st70{fill:none;stroke:#333333;stroke-width:0.4706;stroke-linecap:round;stroke-linejoin:round;stroke-miterlimit:10;}
	.st71{fill:#FFEC55;}
	.st72{fill:none;stroke:#333333;stroke-width:0.8177;stroke-miterlimit:10;}
	.st73{clip-path:url(#SVGID_62_);}
	.st74{clip-path:url(#SVGID_64_);}
	.st75{fill:#FF7A59;}
	.st76{clip-path:url(#SVGID_66_);}
	.st77{clip-path:url(#SVGID_68_);}
	.st78{fill:#B45FFF;}
	.st79{clip-path:url(#SVGID_70_);}
	.st80{opacity:0.2;fill:#002CBF;}
	.st81{fill:none;stroke:#333333;stroke-width:0.5506;stroke-linecap:round;stroke-linejoin:round;stroke-miterlimit:10;}
	.st82{clip-path:url(#SVGID_72_);}
	.st83{fill:#EAA871;}
	.st84{fill:#FFD836;}
	.st85{fill:#FF846B;}
	.st86{fill:none;stroke:#333333;stroke-width:0.804;stroke-linecap:round;stroke-linejoin:round;stroke-miterlimit:10;}
	.st87{fill:#FEFF4A;}
	.st88{fill:none;stroke:#333333;stroke-width:0.7645;stroke-linecap:round;stroke-linejoin:round;stroke-miterlimit:10;}
	.st89{fill:none;stroke:#333333;stroke-width:0.7645;stroke-miterlimit:10;}
	.st90{fill:none;stroke:#333333;stroke-width:2.9248;stroke-linecap:round;stroke-linejoin:round;stroke-miterlimit:10;}
	.st91{fill:none;stroke:#333333;stroke-width:0.945;stroke-linecap:round;stroke-linejoin:round;stroke-miterlimit:10;}
	.st92{fill:none;stroke:#333333;stroke-width:0.945;stroke-miterlimit:10;}
	.st93{fill:none;stroke:#333333;stroke-width:3.6155;stroke-linecap:round;stroke-linejoin:round;stroke-miterlimit:10;}
	.st94{fill:none;stroke:#333333;stroke-width:0.6228;stroke-miterlimit:10;}
	.st95{fill:none;stroke:#333333;stroke-width:0.7778;stroke-linecap:round;stroke-linejoin:round;stroke-miterlimit:10;}
	.st96{fill:#FF712A;}
	.st97{fill:none;stroke:#333333;stroke-width:0.7396;stroke-linecap:round;stroke-linejoin:round;stroke-miterlimit:10;}
	.st98{fill:none;stroke:#333333;stroke-width:0.7396;stroke-miterlimit:10;}
	.st99{fill:none;stroke:#333333;stroke-width:2.8295;stroke-linecap:round;stroke-linejoin:round;stroke-miterlimit:10;}
	.st100{fill:none;stroke:#333333;stroke-width:0.9142;stroke-linecap:round;stroke-linejoin:round;stroke-miterlimit:10;}
	.st101{fill:none;stroke:#333333;stroke-width:0.9142;stroke-miterlimit:10;}
	.st102{fill:none;stroke:#333333;stroke-width:3.4977;stroke-linecap:round;stroke-linejoin:round;stroke-miterlimit:10;}
	.st103{fill:none;stroke:#333333;stroke-width:0.6025;stroke-miterlimit:10;}
	.st104{fill:url(#SVGID_89_);}
	.st105{fill:url(#SVGID_90_);}
	.st106{fill:none;stroke:#333333;stroke-width:0.7438;stroke-linecap:round;stroke-linejoin:round;stroke-miterlimit:10;}
	.st107{fill:none;stroke:#333333;stroke-width:0.8926;stroke-linecap:round;stroke-linejoin:round;stroke-miterlimit:10;}
	.st108{clip-path:url(#SVGID_92_);fill:url(#SVGID_93_);}
	.st109{fill:url(#SVGID_94_);}
	.st110{fill:#52C5FF;}
	.st111{fill:none;stroke:#333333;stroke-width:0.6367;stroke-linecap:round;stroke-linejoin:round;stroke-miterlimit:10;}
	.st112{fill:none;stroke:#333333;stroke-width:2.7061;stroke-linecap:round;stroke-linejoin:round;stroke-miterlimit:10;}
	.st113{fill:none;stroke:#333333;stroke-width:0.5763;stroke-miterlimit:10;}
	.st114{fill:none;stroke:#FFFFFF;stroke-width:1.3042;stroke-linecap:round;stroke-linejoin:round;stroke-miterlimit:10;}
	.st115{fill:none;stroke:#FFFFFF;stroke-width:0.8375;stroke-linecap:round;stroke-linejoin:round;stroke-miterlimit:10;}
	.st116{clip-path:url(#SVGID_96_);}
	.st117{opacity:0.2;fill:#2E3192;}
	.st118{fill:#FEFF78;}
	.st119{opacity:0.1;fill:#2E3192;}
	.st120{fill:#FF5A50;}
	.st121{fill:none;stroke:#333333;stroke-width:0.567;stroke-linecap:round;stroke-linejoin:round;stroke-miterlimit:10;}
	.st122{fill:none;stroke:#333333;stroke-width:2.5786;stroke-linecap:round;stroke-linejoin:round;stroke-miterlimit:10;}
	.st123{fill:none;stroke:#333333;stroke-width:0.5491;stroke-miterlimit:10;}
	.st124{clip-path:url(#SVGID_98_);}
	.st125{fill:#2AD2FF;}
	.st126{fill:none;stroke:#333333;stroke-width:0.2435;stroke-miterlimit:10;}
	.st127{fill:#FFFFFF;stroke:#333333;stroke-width:0.487;stroke-linecap:round;stroke-linejoin:round;stroke-miterlimit:10;}
	.st128{clip-path:url(#SVGID_100_);}
	.st129{fill:url(#SVGID_101_);}
	.st130{opacity:0.4;fill:#FFFFFF;}
	.st131{fill:#FFDC48;}
	.st132{fill:none;stroke:#333333;stroke-width:0.5835;stroke-linecap:round;stroke-linejoin:round;stroke-miterlimit:10;}
	.st133{fill:none;stroke:#333333;stroke-width:2.6537;stroke-linecap:round;stroke-linejoin:round;stroke-miterlimit:10;}
	.st134{fill:#F0F462;}
	.st135{fill:url(#SVGID_102_);}
	.st136{fill:url(#SVGID_103_);}
	.st137{fill:#D1DADF;}
	.st138{fill:#57FFA3;}
	.st139{clip-path:url(#SVGID_105_);}
	.st140{clip-path:url(#SVGID_107_);}
	.st141{fill:#D0BBF9;}
	.st142{clip-path:url(#SVGID_109_);}
	.st143{fill:none;stroke:#333333;stroke-width:0.5867;stroke-linecap:round;stroke-linejoin:round;stroke-miterlimit:10;}
	.st144{clip-path:url(#SVGID_111_);}
	.st145{fill:none;stroke:#333333;stroke-width:0.5514;stroke-linecap:round;stroke-linejoin:round;stroke-miterlimit:10;}
	.st146{fill:#D1E9D3;}
	.st147{clip-path:url(#SVGID_113_);}
	.st148{fill:none;stroke:#333333;stroke-width:0.7684;stroke-linecap:round;stroke-linejoin:round;stroke-miterlimit:10;}
	.st149{fill:none;stroke:#333333;stroke-width:0.7684;stroke-miterlimit:10;}
	.st150{fill:none;stroke:#333333;stroke-width:2.9398;stroke-linecap:round;stroke-linejoin:round;stroke-miterlimit:10;}
	.st151{clip-path:url(#SVGID_115_);}
	.st152{fill:#FF66F8;}
	.st153{fill:none;stroke:#333333;stroke-width:0.7542;stroke-linecap:round;stroke-linejoin:round;stroke-miterlimit:10;}
	.st154{fill:none;stroke:#333333;stroke-width:0.9051;stroke-linecap:round;stroke-linejoin:round;stroke-miterlimit:10;}
	.st155{fill:none;stroke:#333333;stroke-width:0.5146;stroke-linecap:round;stroke-linejoin:round;stroke-miterlimit:10;}
	.st156{fill:none;stroke:#333333;stroke-width:0.6033;stroke-linecap:round;stroke-linejoin:round;stroke-miterlimit:10;}
	.st157{fill:none;stroke:#333333;stroke-width:2.7439;stroke-linecap:round;stroke-linejoin:round;stroke-miterlimit:10;}
	.st158{fill:#333333;stroke:#333333;stroke-width:1.0293;stroke-linecap:round;stroke-linejoin:round;stroke-miterlimit:10;}
	.st159{fill:#FF5F2A;}
	.st160{fill:none;stroke:#333333;stroke-width:0.5965;stroke-linecap:round;stroke-linejoin:round;stroke-miterlimit:10;}
	.st161{fill:#F9CC3E;}
	.st162{clip-path:url(#SVGID_121_);}
	.st163{fill:#70E1FF;}
	.st164{fill:none;stroke:#333333;stroke-width:0.5717;stroke-linecap:round;stroke-linejoin:round;stroke-miterlimit:10;}
	.st165{fill:none;stroke:#333333;stroke-width:2.6004;stroke-linecap:round;stroke-linejoin:round;stroke-miterlimit:10;}
	.st166{clip-path:url(#SVGID_123_);}
	.st167{fill:#8F61FF;}
	.st168{clip-path:url(#SVGID_125_);}
	.st169{clip-path:url(#SVGID_127_);}
	.st170{fill:#FFEBEB;}
	.st171{clip-path:url(#SVGID_129_);}
	.st172{clip-path:url(#SVGID_131_);}
	.st173{fill:#F47D62;}
	.st174{fill:none;stroke:#333333;stroke-width:0.7188;stroke-linecap:round;stroke-linejoin:round;stroke-miterlimit:10;}
	.st175{fill:none;stroke:#333333;stroke-width:0.7188;stroke-miterlimit:10;}
	.st176{fill:none;stroke:#333333;stroke-width:2.7502;stroke-linecap:round;stroke-linejoin:round;stroke-miterlimit:10;}
	.st177{fill:#85ACB5;}
	.st178{clip-path:url(#SVGID_133_);}
	.st179{fill:#D5F2F7;}
	.st180{fill:#FF694A;}
	.st181{fill:none;stroke:#333333;stroke-width:0.5693;stroke-linecap:round;stroke-linejoin:round;stroke-miterlimit:10;}
	.st182{fill:#FFDF15;}
	.st183{fill:none;stroke:#333333;stroke-width:0.6674;stroke-linecap:round;stroke-linejoin:round;stroke-miterlimit:10;}
	.st184{fill:none;stroke:#333333;stroke-width:3.0352;stroke-linecap:round;stroke-linejoin:round;stroke-miterlimit:10;}
	.st185{clip-path:url(#SVGID_135_);}
	.st186{clip-path:url(#SVGID_137_);}
	.st187{fill:none;stroke:#333333;stroke-width:0.5248;stroke-linecap:round;stroke-linejoin:round;stroke-miterlimit:10;}
	.st188{fill:#FFD33A;}
	.st189{fill:none;stroke:#333333;stroke-width:2.7983;stroke-linecap:round;stroke-linejoin:round;stroke-miterlimit:10;}
	.st190{fill:none;stroke:#333333;stroke-width:0.7692;stroke-linecap:round;stroke-linejoin:round;stroke-miterlimit:10;}
	.st191{fill:none;stroke:#333333;stroke-width:0.5959;stroke-miterlimit:10;}
	.st192{clip-path:url(#SVGID_143_);}
	.st193{fill:#FFE267;}
	.st194{clip-path:url(#SVGID_149_);}
	.st195{fill:#FFEEAA;}
	.st196{opacity:0.7;fill:url(#SVGID_152_);}
	.st197{fill:none;stroke:#333333;stroke-width:0.611;stroke-miterlimit:10;}
	.st198{clip-path:url(#SVGID_154_);}
	.st199{opacity:0.7;fill:url(#SVGID_157_);}
	.st200{fill:#EABBFC;}
	.st201{opacity:0.7;fill:url(#SVGID_160_);}
	.st202{opacity:0.7;fill:url(#SVGID_163_);}
	.st203{opacity:0.7;fill:url(#SVGID_166_);}
	.st204{opacity:0.7;fill:url(#SVGID_169_);}
	.st205{clip-path:url(#SVGID_171_);}
	.st206{fill:none;stroke:#333333;stroke-width:0.5899;stroke-linecap:round;stroke-linejoin:round;stroke-miterlimit:10;}
	.st207{fill:none;stroke:#333333;stroke-width:2.6828;stroke-linecap:round;stroke-linejoin:round;stroke-miterlimit:10;}
	.st208{fill:none;stroke:#333333;stroke-width:0.5713;stroke-miterlimit:10;}
	.st209{clip-path:url(#SVGID_173_);}
	.st210{clip-path:url(#SVGID_175_);}
	.st211{clip-path:url(#SVGID_177_);}
	.st212{fill:#FFAFC3;}
	.st213{fill:#A0D3FF;}
	.st214{fill:none;stroke:#333333;stroke-width:0.7262;stroke-linecap:round;stroke-linejoin:round;stroke-miterlimit:10;}
	.st215{fill:none;stroke:#333333;stroke-width:0.6906;stroke-miterlimit:10;}
	.st216{fill:none;stroke:#333333;stroke-width:0.8536;stroke-miterlimit:10;}
	.st217{fill:#333333;stroke:#333333;stroke-width:0.991;stroke-linecap:round;stroke-linejoin:round;stroke-miterlimit:10;}
	.st218{clip-path:url(#SVGID_179_);}
	.st219{clip-path:url(#SVGID_181_);}
	.st220{fill:#FD9994;}
	.st221{opacity:0.2;}
	.st222{fill:#2E3192;}
	.st223{display:inline;fill:#FF5B00;}
</style>
<g id="site">
</g>
<g id="kitties">
	<g>
		<g>
			<path class="st17" d="M63.3,12.8c0,0,1.5-2.4,9,9.1s11.2,21.5,11.2,21.5l-28-2.7C55.5,40.8,58.1,17.5,63.3,12.8z"/>
			<path class="st17" d="M120.8,12.8c0,0-1.6-2.5-9,9.1c-6.7,10.6-11.3,21.5-11.3,21.5l28.1-2.7C128.6,40.8,126.1,17.5,120.8,12.8z"
				/>
			<g>
				<path class="st26" d="M54.8,43.9c0.7-5.9,1.6-11.8,2.8-17.7c0.6-2.9,1.3-5.8,2.4-8.7c0.5-1.4,1.1-2.8,2.1-4.1
					c0.2-0.3,0.5-0.6,0.9-0.9c0.4-0.3,1-0.4,1.5-0.3c0.9,0.2,1.6,0.7,2.2,1.2c1.2,1.1,2.1,2.3,3,3.5c0.9,1.2,1.7,2.5,2.5,3.7
					c1.6,2.6,3,5.2,4.4,7.8c2.8,5.3,5.4,10.7,7.8,16.1c0,0.1,0,0.2-0.1,0.3c-0.1,0-0.2,0-0.3-0.1c-2.6-5.4-5.3-10.7-8.2-15.9
					c-1.5-2.6-2.9-5.2-4.6-7.7c-1.6-2.5-3.3-5-5.3-6.9c-0.5-0.5-1.1-0.9-1.6-1c-0.3,0-0.4,0-0.6,0.1c-0.2,0.2-0.5,0.4-0.7,0.7
					c-0.8,1.1-1.4,2.5-1.9,3.8c-1,2.8-1.8,5.6-2.4,8.5c-0.7,2.9-1.2,5.8-1.7,8.8c-0.5,2.9-1,5.9-1.4,8.8c0,0.2-0.2,0.3-0.3,0.3
					C54.9,44.2,54.8,44,54.8,43.9z"/>
			</g>
			<g>
				<path class="st26" d="M65,18.4c-0.5,1.8-1,3.6-1.4,5.5c-0.4,1.8-0.8,3.7-1.1,5.6c-0.3,1.9-0.6,3.7-0.7,5.6
					c-0.2,1.9-0.2,3.8-0.1,5.6l0,0c0,0.1-0.1,0.2-0.2,0.2c-0.1,0-0.2-0.1-0.2-0.2c-0.3-1.9-0.4-3.8-0.4-5.7c0-1.9,0.2-3.8,0.5-5.7
					c0.7-3.8,1.6-7.5,3-11.1c0.1-0.2,0.2-0.2,0.4-0.2C65,18,65.1,18.2,65,18.4L65,18.4z"/>
			</g>
			<path class="st26" d="M64,20.8c0,0,7,6.3,8.9,16.3l-11.5,0.3C61.4,37.4,61.6,27.7,64,20.8z"/>
			<g>
				<path class="st26" d="M128.7,43.9c-0.4-2.9-0.9-5.9-1.4-8.8c-0.5-2.9-1.1-5.9-1.7-8.8c-0.7-2.9-1.4-5.8-2.4-8.5
					c-0.5-1.4-1.1-2.7-1.9-3.8c-0.2-0.3-0.4-0.5-0.7-0.7c-0.2-0.1-0.4-0.2-0.6-0.1c-0.5,0.1-1.1,0.5-1.6,1c-2.1,1.9-3.7,4.5-5.3,6.9
					c-1.6,2.5-3.1,5.1-4.6,7.7c-2.9,5.2-5.6,10.5-8.2,15.9c0,0.1-0.2,0.1-0.3,0.1c-0.1,0-0.1-0.2-0.1-0.3c2.4-5.5,5-10.8,7.8-16.1
					c1.4-2.6,2.9-5.3,4.4-7.8c0.8-1.3,1.6-2.5,2.5-3.7c0.9-1.2,1.8-2.4,3-3.5c0.6-0.5,1.2-1,2.2-1.2c0.5-0.1,1.1,0,1.5,0.3
					c0.4,0.3,0.7,0.6,0.9,0.9c1,1.3,1.5,2.7,2.1,4.1c1,2.9,1.7,5.8,2.4,8.7c1.3,5.9,2.1,11.8,2.8,17.7c0,0.2-0.1,0.3-0.3,0.3
					C128.9,44.2,128.8,44.1,128.7,43.9z"/>
			</g>
			<g>
				<path class="st26" d="M119.7,18.1c1.4,3.6,2.3,7.3,3,11.1c0.3,1.9,0.4,3.8,0.5,5.7c0,1.9-0.1,3.8-0.4,5.7c0,0.1-0.1,0.2-0.2,0.2
					c-0.1,0-0.2-0.1-0.2-0.2l0,0c0.1-1.9,0.1-3.8-0.1-5.6c-0.2-1.9-0.4-3.7-0.7-5.6c-0.3-1.9-0.6-3.7-1.1-5.6
					c-0.4-1.8-0.9-3.7-1.4-5.5l0,0c0-0.2,0-0.3,0.2-0.4C119.5,17.9,119.7,18,119.7,18.1z"/>
			</g>
			<path class="st26" d="M120.2,20.8c0,0-7,6.3-8.9,16.3l11.5,0.3C122.8,37.4,122.5,27.7,120.2,20.8z"/>
			<g>
				<path class="st21" d="M42.4,73.6c-2.1-3.2-5.9-4.8-9.6-5.5c-4.6-0.8-9.5-0.3-13.9,1.4c-0.4,0.2-0.9,0.3-1.2,0.6
					c-0.5,0.4-0.8,0.9-0.9,1.5c-0.5,1.6-0.3,3.3,0.4,4.8c0.6,1.5,1.6,2.9,2.6,4.2c4.8,6.5,18.1,18.4,18.3,18.6
					c1.8,1.8,3.8,3.2,5.8,4.7c0.8,0.5,0.7,0.8,1.5,1.1l-0.2-7.7l1-8.8c-0.8-1.2-1-3.2-1.2-4.6C44.5,80.4,44.4,76.7,42.4,73.6z"/>
				<path class="st24" d="M46.2,88.5c-0.4-0.6-0.7-1.5-0.8-2.3c-1.3,2.2-3.2,4-5.6,4.8c-4,1.3-8.4-0.5-12.1-2.6
					c-0.9-0.5-1.8-1.1-2.7-1.6c5.7,6,12.9,12.3,13,12.5c1.8,1.8,3.8,3.2,5.8,4.7c0.8,0.5,0.7,0.8,1.5,1.1l-0.2-7.7L46.2,88.5z"/>
				<g>
					<path class="st26" d="M45.8,88.6l-2.2-11C43,74,40.4,70.8,37,69.5c-0.8-0.3-1.7-0.5-2.6-0.7c-0.9-0.2-1.8-0.3-2.7-0.4
						c-1.8-0.2-3.7-0.3-5.5-0.1c-1.8,0.1-3.6,0.5-5.3,1.2c-0.8,0.4-1.6,0.8-2.3,1.3l-0.5,0.4c-0.1,0.1-0.3,0.3-0.4,0.4
						c-0.2,0.3-0.4,0.6-0.5,1c-0.4,1.6,0.4,3.4,1.2,4.9c0.9,1.6,2,3.1,3.1,4.6c2.3,2.9,4.9,5.6,7.5,8.3c5.3,5.2,11,10.1,16.8,14.8
						c0.1,0.1,0.1,0.2,0,0.3c-0.1,0.1-0.2,0.1-0.3,0C39.5,101,33.8,96.1,28.3,91c-2.7-2.6-5.3-5.3-7.7-8.2c-1.2-1.5-2.3-3-3.3-4.7
						c-0.5-0.8-0.9-1.7-1.2-2.7c-0.3-0.9-0.5-2-0.2-3.1c0.2-1.1,1.1-2,1.9-2.5c0.8-0.6,1.7-1,2.6-1.4c1.8-0.7,3.7-1,5.6-1.2
						c1.9-0.1,3.8,0,5.7,0.2c0.9,0.1,1.9,0.3,2.8,0.5c0.9,0.2,1.9,0.4,2.8,0.7c3.6,1.4,6.3,4.9,6.9,8.7l2,11c0,0.1-0.1,0.3-0.2,0.3
						C45.9,88.8,45.8,88.7,45.8,88.6z"/>
				</g>
			</g>
			<path class="st17" d="M137.9,68.7c-0.5-5.9-4.8-25.9-9.1-31.1c-8.6-10.4-20.9-12.6-22.5-13c-0.8-0.2-4.7-1.2-10.2-1.5
				c-0.2-0.4-0.4-1-0.5-1.6c-1-6.1,3.9-7.1,3.9-7.1c-3.2-2.3-10.1-1.7-12.7,4c-0.9,1.9-1,3.6-0.7,5c-2.5,0.3-5,0.8-7.6,1.5
				c-13.5,3.9-22.2,10.7-19.8,9.7c0,0-1.4,1.3-2.7,3c-1.4,1.7-4.8,17.7-5.9,23.7c-1.5,8.7-4.7,34.8-4.7,34.8s-1.4,6.6,1.3,10.8
				s9.2,8.9,20.3,16.9c11.1,7.9,16.8,7.9,23.6,8.5c6.8,0.6,18.9-5.3,18.9-5.3s16.8-9.3,24.2-23.3S137.9,68.7,137.9,68.7z"/>
			<g>
				<defs>
					<path id="SVGID_167_" d="M137.9,68.7c-0.5-5.9-4.8-25.9-9.1-31.1c-8.6-10.4-20.9-12.6-22.5-13c-0.8-0.2-4.7-1.2-10.2-1.5
						c-0.2-0.4-0.4-1-0.5-1.6c-1-6.1,3.9-7.1,3.9-7.1c-3.2-2.3-10.1-1.7-12.7,4c-0.9,1.9-1,3.6-0.7,5c-2.5,0.3-5,0.8-7.6,1.5
						c-13.5,3.9-22.2,10.7-19.8,9.7c0,0-1.4,1.3-2.7,3c-1.4,1.7-4.8,17.7-5.9,23.7c-1.5,8.7-4.7,34.8-4.7,34.8s-1.4,6.6,1.3,10.8
						s9.2,8.9,20.3,16.9c11.1,7.9,16.8,7.9,23.6,8.5c6.8,0.6,18.9-5.3,18.9-5.3s16.8-9.3,24.2-23.3S137.9,68.7,137.9,68.7z"/>
				</defs>
				<clipPath id="SVGID_2_">
					<use xlink:href="#SVGID_167_"  style="overflow:visible;"/>
				</clipPath>
			</g>
			<g>
				<path class="st195" d="M98.9,131.3l8.8-3l2.9,22.4c0,0-4.3-10.7-6.6-13.8C101.7,133.8,98.9,131.3,98.9,131.3z"/>
				<g>
					<g>
						<path class="st26" d="M107.9,128.3c0.6,4.5,1.3,8.9,2,13.4c0.4,2.2,0.7,4.4,1.2,6.6c0.2,1.1,0.4,2.2,0.7,3.3
							c0.2,1.1,0.5,2.2,0.9,3.1l-1.1,0.4c-1.5-4.3-3.1-8.6-5-12.7c-1-2.1-2-4.1-3.2-6c-0.6-1-1.3-1.9-2-2.8
							c-0.7-0.9-1.5-1.7-2.5-2.2l0,0c-0.1-0.1-0.2-0.2-0.1-0.3c0.1-0.1,0.2-0.2,0.3-0.1c1.1,0.5,1.9,1.4,2.7,2.2
							c0.8,0.9,1.5,1.8,2.1,2.8c1.3,1.9,2.4,4,3.4,6c2,4.1,3.8,8.4,5.4,12.7c0.1,0.3,0,0.6-0.3,0.7c-0.3,0.1-0.6,0-0.7-0.3
							c-0.4-1.1-0.6-2.2-0.9-3.4c-0.2-1.1-0.4-2.2-0.6-3.3c-0.4-2.2-0.7-4.5-1-6.7c-0.6-4.5-1.2-8.9-1.7-13.4c0-0.1,0.1-0.2,0.2-0.3
							C107.7,128.1,107.9,128.2,107.9,128.3z"/>
					</g>
					<g>
						<path class="st26" d="M112.3,154.6c1.1,0.7,2.3,1.4,3.5,2c1.2,0.6,2.4,1.3,3.6,1.8c1.2,0.6,2.5,1,3.7,1.5
							c1.3,0.4,2.6,0.7,3.9,1c-1.4,0-2.7-0.1-4.1-0.4c-1.3-0.3-2.7-0.7-3.9-1.2c-1.3-0.5-2.5-1.1-3.7-1.8c-1.2-0.7-2.4-1.4-3.5-2.3
							c-0.2-0.1-0.2-0.4-0.1-0.6C111.9,154.6,112.1,154.5,112.3,154.6L112.3,154.6z"/>
					</g>
					<g>
						<path class="st26" d="M112.3,154.8c0.7,1,1.3,2,2,3c0.7,1,1.4,1.8,2.4,2.6c-0.6-0.1-1.2-0.4-1.8-0.7c-0.5-0.4-1-0.8-1.4-1.3
							c-0.8-1-1.4-2.1-1.7-3.3c0-0.2,0.1-0.3,0.2-0.4C112.1,154.7,112.3,154.7,112.3,154.8L112.3,154.8z"/>
					</g>
					<g>
						<path class="st26" d="M112.3,155c-0.2,1.2-0.7,2.3-1.4,3.3c-0.4,0.5-0.8,0.9-1.2,1.3c-0.5,0.4-1,0.6-1.6,0.8
							c0.9-0.8,1.5-1.6,2.1-2.6c0.6-0.9,1.1-1.9,1.6-2.9l0,0c0.1-0.1,0.3-0.2,0.4-0.1C112.3,154.8,112.4,154.9,112.3,155z"/>
					</g>
				</g>
			</g>
			<g>
				<path class="st30" d="M95.2,131.8c1,1.5,3,2.2,4.7,1.4c0,0,0,0,0,0c1,1.6,3,2.4,4.8,1.6c1.6-0.7,2.6-2.3,2.4-4
					c0.9,0.3,1.9,0.4,2.9,0c2-0.8,3-3.1,2.1-5.1c0,0-4.1,2.4-8.8,4.2C98.8,131.8,95.2,131.8,95.2,131.8z"/>
				<path class="st26" d="M95.4,131.9c0.1,0,0.1,0,0.1,0.1l0.2,0.2c0.1,0.2,0.3,0.3,0.5,0.4c0.3,0.3,0.7,0.5,1.1,0.6
					c0.8,0.3,1.7,0.2,2.6-0.1l0,0c0,0,0.1,0,0.1,0l0,0c0.9,1.4,2.8,2.1,4.4,1.6c0.8-0.2,1.5-0.8,2-1.4c0.5-0.7,0.7-1.5,0.7-2.4l0,0
					c0,0,0-0.1,0.1-0.1c0,0,0,0,0,0c0.7,0.2,1.5,0.3,2.2,0.1c0.7-0.2,1.3-0.6,1.8-1.1c0.5-0.5,0.8-1.2,0.9-1.9
					c0.1-0.7,0.1-1.4-0.2-2.1l0.4,0.1c-2.7,1.5-5.4,2.8-8.2,4c-1.4,0.6-2.9,1-4.4,1.4c-0.7,0.2-1.5,0.3-2.3,0.4
					c-0.4,0.1-0.8,0.1-1.1,0.2l-0.6,0.1l-0.3,0l-0.1,0l-0.1,0c0,0-0.1,0,0,0C95.4,132.1,95.4,132,95.4,131.9L95.4,131.9z M95,131.7
					c0,0,0.1-0.1,0.2-0.1l0.1,0l0.1,0l0.1,0l0.3,0l0.6-0.1c0.4,0,0.7-0.1,1.1-0.1c0.7-0.1,1.5-0.3,2.2-0.4c1.5-0.3,2.9-0.8,4.3-1.4
					c2.8-1.1,5.5-2.5,8.1-4c0.1-0.1,0.3,0,0.4,0.1l0,0c0.3,0.7,0.4,1.6,0.2,2.4c-0.1,0.8-0.6,1.5-1.1,2.1c-0.6,0.6-1.3,0.9-2.1,1.1
					c-0.8,0.1-1.6,0.1-2.3-0.2l0.1-0.1l0,0c0.1,0.9-0.1,1.8-0.6,2.6c-0.5,0.8-1.3,1.4-2.2,1.7c-0.9,0.3-1.9,0.3-2.7-0.1
					c-0.9-0.3-1.6-1-2-1.8l0.1,0l0,0c-0.8,0.4-1.8,0.4-2.7,0.2c-0.4-0.1-0.9-0.3-1.3-0.6c-0.2-0.1-0.4-0.3-0.5-0.5l-0.2-0.3
					C95.2,132.1,95.1,131.9,95,131.7L95,131.7z"/>
			</g>
			<g>
				<path class="st195" d="M73.1,127.6l-3.6,23.6c0,0,3.5-8.4,6.1-12.5c1.9-3,3.5-5.5,5.4-7.3L73.1,127.6z"/>
				<g>
					<path class="st26" d="M73.3,127.6c-0.5,4.6-1.1,9.2-1.7,13.8c-0.3,2.3-0.7,4.6-1,6.9c-0.2,1.1-0.4,2.3-0.6,3.4
						c-0.2,1.1-0.4,2.3-0.9,3.5c-0.1,0.3-0.4,0.4-0.7,0.3c-0.3-0.1-0.4-0.4-0.3-0.7l0,0c1.6-4.3,3.4-8.6,5.4-12.7
						c1-2.1,2.1-4.1,3.4-6c0.6-1,1.3-1.9,2.1-2.8c0.8-0.9,1.6-1.7,2.7-2.2c0.1-0.1,0.3,0,0.3,0.1c0.1,0.1,0,0.3-0.1,0.3l0,0
						c-1,0.5-1.8,1.3-2.5,2.2c-0.7,0.9-1.4,1.8-2,2.8c-1.2,1.9-2.2,4-3.2,6c-1.9,4.1-3.6,8.4-5,12.7l-1.1-0.4c0.4-1,0.7-2.1,0.9-3.2
						c0.3-1.1,0.5-2.3,0.7-3.4c0.4-2.3,0.8-4.5,1.2-6.8c0.7-4.6,1.4-9.1,2-13.7c0-0.1,0.1-0.2,0.3-0.2
						C73.3,127.4,73.3,127.5,73.3,127.6z"/>
				</g>
				<g>
					<path class="st26" d="M68.7,155.2c-1.1,0.9-2.2,1.6-3.4,2.3c-1.2,0.7-2.4,1.3-3.7,1.8c-1.3,0.5-2.6,0.9-3.9,1.2
						c-1.3,0.3-2.7,0.4-4.1,0.4c1.3-0.3,2.6-0.6,3.9-1.1c1.3-0.4,2.5-0.9,3.8-1.5c1.2-0.5,2.4-1.1,3.6-1.7c1.2-0.6,2.4-1.3,3.5-2
						l0,0c0.1-0.1,0.3,0,0.3,0.1C68.8,154.9,68.8,155.1,68.7,155.2z"/>
				</g>
				<g>
					<path class="st26" d="M68.8,155.1c-0.3,1.2-1,2.3-1.8,3.3c-0.4,0.5-0.9,0.9-1.4,1.3c-0.5,0.4-1.1,0.6-1.8,0.7
						c1-0.8,1.7-1.6,2.4-2.6c0.7-0.9,1.3-2,1.9-3l0,0c0.1-0.1,0.3-0.2,0.4-0.1C68.8,154.8,68.9,154.9,68.8,155.1z"/>
				</g>
				<g>
					<path class="st26" d="M68.9,154.9c0.5,1,1,2,1.6,2.9c0.6,0.9,1.2,1.8,2.1,2.6c-0.6-0.1-1.1-0.4-1.6-0.8
						c-0.5-0.4-0.9-0.8-1.3-1.3c-0.7-1-1.2-2.1-1.4-3.2c0-0.2,0.1-0.3,0.3-0.4C68.6,154.6,68.8,154.7,68.9,154.9L68.9,154.9z"/>
				</g>
			</g>
			<g>
				<path class="st30" d="M86.9,132.2c-1,1.5-3,1.8-4.7,1.1c0,0,0,0,0,0c-1,1.6-3,2.4-4.8,1.6c-1.6-0.7-2.6-2.3-2.4-4
					c-0.9,0.3-1.9,0.4-2.9,0c-2-0.8-3-3.1-2.1-5.1c0,0,4.1,2.4,8.8,4.2C83.3,131.8,86.9,132.2,86.9,132.2z"/>
				<path class="st26" d="M87,132L87,132c0,0.2-0.1,0.4-0.2,0.5l-0.2,0.3c-0.2,0.2-0.4,0.3-0.6,0.4c-0.4,0.2-0.8,0.4-1.3,0.5
					c-0.9,0.2-1.8,0-2.7-0.4l0.1,0c-0.4,0.8-1.1,1.5-2,1.8c-0.9,0.4-1.8,0.4-2.7,0.1c-0.9-0.3-1.7-0.9-2.2-1.7
					c-0.5-0.8-0.7-1.7-0.6-2.6l0.1,0.1h0c-0.7,0.3-1.5,0.4-2.3,0.2c-0.8-0.1-1.5-0.5-2.1-1.1c-0.6-0.6-1-1.3-1.1-2.1
					c-0.2-0.8-0.1-1.6,0.2-2.4c0.1-0.1,0.2-0.2,0.3-0.1c0,0,0,0,0,0c2.6,1.5,5.4,2.9,8.2,4c1.4,0.6,2.8,1,4.3,1.4
					c0.7,0.2,1.5,0.4,2.2,0.5l1.1,0.2l0.6,0.1l0.3,0l0.1,0l0.1,0l0.1,0C86.9,131.9,87,132,87,132z M86.6,132.3L86.6,132.3
					c0,0.1,0.1,0.1,0.1,0.1c0,0,0,0,0,0l-0.1,0l-0.1,0l-0.3,0l-0.6-0.1l-1.1-0.2c-0.8-0.2-1.5-0.3-2.2-0.5c-1.5-0.4-2.9-0.9-4.4-1.4
					c-2.8-1.1-5.6-2.5-8.3-4l0.4-0.1c-0.3,0.7-0.3,1.4-0.2,2.1c0.2,0.7,0.5,1.3,0.9,1.9c0.5,0.5,1.1,0.9,1.8,1.1
					c0.7,0.2,1.5,0.1,2.2-0.1l0,0c0,0,0.1,0,0.1,0c0,0,0,0,0,0l0,0c0,0.9,0.2,1.7,0.7,2.4c0.5,0.7,1.2,1.2,2,1.4
					c1.6,0.5,3.5-0.1,4.4-1.6c0,0,0.1-0.1,0.1,0c0.8,0.3,1.7,0.4,2.5,0.2c0.4-0.1,0.8-0.3,1.2-0.5c0.2-0.1,0.3-0.3,0.5-0.4l0.2-0.2
					C86.5,132.3,86.6,132.3,86.6,132.3z"/>
			</g>
			<path class="st24" d="M125.8,114.3c-11.1,5.4-23.3,8.4-35.5,8c-12.4-0.4-24.7-4.4-34.7-11.8c-2.2-1.6-7-8-10.6-8.5
				c0.2,1.7,0.6,3.4,1.6,4.9c2.7,4.2,9.2,8.9,20.3,16.9s16.8,7.9,23.6,8.5c6.8,0.6,18.9-5.3,18.9-5.3S118.2,122.2,125.8,114.3z"/>
			<path class="st30" d="M137.2,64.4c0,0-13,9.4-14.1,23.1s8,20.8,8,20.8s6.1-9,7.2-22.5C139.3,73.5,137.2,64.4,137.2,64.4z"/>
			<path class="st30" d="M49.6,64c0,0,10.6,9.5,14.4,21.3c3.8,11.9-7.2,16.3-8.4,16.5c-1.3,0.2-6.3,0.6-10.4-0.8
				c0,0,1.2-15.1,1.6-18.4C47.2,79.4,49.6,64,49.6,64z"/>
			<g>
				<path class="st26" d="M96.1,22.7c6.6,0.5,13.2,1.8,19.3,4.5c3.1,1.3,6,3,8.6,5c1.3,1,2.6,2.1,3.7,3.4c0.6,0.6,1.1,1.3,1.6,2
					c0.5,0.7,0.9,1.5,1.2,2.2c1.4,3,2.5,6.1,3.6,9.3c1,3.2,1.8,6.4,2.6,9.6c1.4,6.5,2.3,13,2.4,19.7c0.1,6.6-0.6,13.3-2.6,19.7
					c-2,6.3-5.4,12.3-10.2,17c-4.7,4.6-9.9,8.8-15.8,12c-5.8,3.2-12.3,5.4-18.9,5.7c-3.3,0.1-6.7-0.2-9.9-1
					c-1.6-0.4-3.2-0.9-4.7-1.6c-1.5-0.7-3-1.5-4.4-2.3c-5.7-3.3-11.2-7-16.4-11.1c-2.6-2-5.1-4.2-7.4-6.6c-1.1-1.2-2.2-2.5-3.2-3.9
					l-0.3-0.5c-0.1-0.2-0.2-0.5-0.3-0.7c-0.1-0.4-0.2-0.9-0.2-1.3c-0.1-0.8-0.1-1.7-0.1-2.5c0-3.3,0.3-6.6,0.6-9.9
					c0.3-3.3,0.7-6.6,1.2-9.8c0.9-6.5,1.9-13,3-19.5c1.2-6.5,2.4-13,4.1-19.3c0.5-1.6,0.9-3.2,1.7-4.7c0.9-1.5,2.1-2.7,3.4-3.8
					c2.6-2.1,5.4-3.9,8.4-5.3c5.9-2.9,12.4-4.9,18.9-5.7c0.2,0,0.4,0.1,0.4,0.3c0,0.2-0.1,0.4-0.3,0.4c-6.5,0.8-12.8,2.8-18.7,5.6
					c-2.9,1.5-5.7,3.1-8.2,5.2c-1.2,1-2.4,2.2-3.2,3.5c-0.7,1.4-1.1,3-1.6,4.6c-1.7,6.3-2.9,12.8-4.1,19.3c-1.1,6.5-2.2,13-3,19.5
					c-0.8,6.5-1.7,13.1-1.8,19.6c0,0.8,0,1.6,0.1,2.4c0,0.4,0.1,0.8,0.2,1.1c0.1,0.2,0.1,0.3,0.2,0.5l0.3,0.5
					c0.9,1.3,1.9,2.6,3.1,3.8c2.3,2.3,4.8,4.5,7.3,6.5c5.2,4,10.6,7.7,16.3,11c1.4,0.8,2.9,1.6,4.3,2.3c1.5,0.7,3,1.1,4.6,1.6
					c3.1,0.8,6.4,1.1,9.7,0.9c6.5-0.3,12.8-2.5,18.5-5.7c5.7-3.2,10.8-7.3,15.5-11.9c4.7-4.5,7.9-10.4,9.9-16.6
					c1.9-6.2,2.6-12.8,2.5-19.3c-0.1-6.5-0.9-13.1-2.3-19.5c-0.7-3.2-1.5-6.4-2.5-9.5c-1-3.1-2.1-6.2-3.5-9.2
					c-0.4-0.7-0.7-1.5-1.1-2.1c-0.5-0.6-0.9-1.3-1.5-1.9c-1.1-1.2-2.3-2.3-3.6-3.3c-2.6-2-5.4-3.6-8.4-4.9c-6-2.6-12.5-3.9-19-4.4
					l0,0c-0.3,0-0.4-0.2-0.4-0.5C95.6,22.9,95.9,22.7,96.1,22.7z"/>
			</g>
			<g>
				<path class="st26" d="M49.7,63.8c3.5,3.3,6.7,6.9,9.5,10.9c1.4,2,2.6,4.1,3.6,6.3c1,2.2,1.8,4.5,2.1,7
					c0.8,4.9-1.4,10.3-5.7,12.9c-2.2,1.3-4.7,1.8-7.1,1.8c-2.4,0-4.8-0.5-7.1-1.3c-0.1,0-0.2-0.2-0.1-0.3c0-0.1,0.2-0.2,0.3-0.1l0,0
					c2.2,0.7,4.6,1.1,7,1c2.3-0.1,4.7-0.6,6.6-1.8c2-1.2,3.4-3.1,4.3-5.2c0.9-2.1,1.1-4.5,0.9-6.8c-0.5-4.6-2.8-9-5.4-13
					c-2.6-4-5.7-7.6-9.2-10.9l0,0c-0.1-0.1-0.1-0.2,0-0.3C49.5,63.7,49.6,63.7,49.7,63.8z"/>
			</g>
			<g>
				<path class="st26" d="M137.4,64.6c-3.3,2.6-6.2,5.7-8.6,9.2c-2.3,3.5-4.1,7.4-4.8,11.5c-0.3,2-0.4,4.1-0.3,6.2
					c0.2,2.1,0.6,4.1,1.1,6.2c0.6,2,1.3,4,2.3,5.8c1,1.8,2.3,3.5,4.1,4.6l0,0c0.1,0.1,0.1,0.2,0.1,0.3c-0.1,0.1-0.2,0.1-0.3,0.1
					c-1.9-1.1-3.3-2.9-4.4-4.7c-1.1-1.8-2-3.8-2.6-5.9c-0.6-2.1-1.1-4.2-1.3-6.3c-0.2-2.2-0.1-4.3,0.3-6.5c0.8-4.3,2.7-8.2,5.2-11.7
					c2.5-3.5,5.5-6.6,8.9-9.1c0.1-0.1,0.3-0.1,0.3,0C137.5,64.4,137.5,64.5,137.4,64.6L137.4,64.6z"/>
			</g>
			<g>
				<path class="st26" d="M51.2,102.1c0.7-0.6,1.4-1.3,2-2.1c0.6-0.8,1.1-1.6,1.5-2.5c0.4-0.9,0.8-1.8,1-2.7
					c0.3-0.9,0.4-1.9,0.5-2.9l0,0c0,0,0-0.1,0.1-0.1c0,0,0.1,0,0.1,0.1c0,0.5,0,1,0,1.5c-0.1,0.5-0.1,1-0.2,1.5
					c-0.2,1-0.5,2-0.9,2.9c-0.4,0.9-1,1.8-1.6,2.6c-0.7,0.8-1.4,1.5-2.3,2c-0.1,0-0.1,0-0.2,0C51.2,102.2,51.2,102.2,51.2,102.1
					L51.2,102.1z"/>
			</g>
			<g>
				<path class="st26" d="M47,101.4c0.4-0.4,0.8-0.9,1.1-1.4c0.3-0.5,0.6-1,0.9-1.5c0.6-1,1-2.1,1.4-3.2c0-0.1,0.1-0.1,0.1-0.1
					c0,0,0.1,0.1,0.1,0.1c0,0.6-0.2,1.2-0.3,1.8c-0.2,0.6-0.4,1.1-0.7,1.7c-0.3,0.5-0.6,1-1.1,1.5c-0.4,0.5-0.9,0.9-1.4,1.2
					C47.1,101.6,47,101.5,47,101.4C47,101.5,47,101.4,47,101.4L47,101.4z"/>
			</g>
			<g>
				<path class="st26" d="M128.1,105.5c0.5-0.8,0.9-1.7,1.2-2.6c0.4-0.9,0.7-1.8,1-2.7c0.6-1.8,1.1-3.7,1.5-5.6c0,0,0.1-0.1,0.1-0.1
					c0,0,0.1,0,0.1,0.1c0,1-0.2,1.9-0.3,2.9c-0.2,1-0.4,1.9-0.7,2.8c-0.3,0.9-0.7,1.8-1.1,2.7c-0.4,0.9-0.9,1.7-1.6,2.5
					c0,0.1-0.1,0.1-0.2,0C128.1,105.6,128.1,105.6,128.1,105.5L128.1,105.5z"/>
			</g>
			<g>
				<path class="st26" d="M124.5,98.4c0.7-1.3,1.4-2.6,2-4c0.3-0.7,0.6-1.3,0.9-2c0.3-0.7,0.5-1.4,0.8-2.1c0,0,0.1-0.1,0.1-0.1
					c0,0,0.1,0.1,0.1,0.1c-0.2,1.5-0.6,2.9-1.2,4.3c-0.6,1.4-1.4,2.7-2.4,3.8c-0.1,0.1-0.1,0.1-0.2,0
					C124.5,98.5,124.5,98.4,124.5,98.4L124.5,98.4z"/>
			</g>
			<g>
				<linearGradient id="SVGID_4_" gradientUnits="userSpaceOnUse" x1="93.9653" y1="28.2232" x2="93.9653" y2="13.1916">
					<stop  offset="0.3484" style="stop-color:#FFFFFF;stop-opacity:0"/>
					<stop  offset="0.999" style="stop-color:#FFFFFF"/>
				</linearGradient>
				<path style="opacity:0.7;fill:url(#SVGID_4_);" d="M88.5,27.9c0,0-4.4-3.7-1.7-9.4s9.6-6.3,12.7-4c0,0-5,1-3.9,7.1
					c0.8,4.8,6.5,4.5,6.5,4.5S93.5,29.3,88.5,27.9z"/>
				<g>
					<path class="st26" d="M88.4,28c-1-0.5-1.7-1.4-2.2-2.4c-0.5-1-0.7-2.1-0.7-3.2c0-2.2,0.8-4.4,2.3-6.1c1.4-1.7,3.5-2.8,5.6-3.1
						c2.1-0.3,4.4,0.1,6.2,1.2c0,0,0.1,0.1,0,0.1c0,0-0.1,0.1-0.1,0c-1.8-1-4-1.3-6-1c-2,0.4-3.9,1.5-5.1,3.1
						c-1.3,1.6-1.9,3.7-1.9,5.7c0,2,0.6,4.1,2.2,5.4c0.1,0,0.1,0.1,0,0.2C88.6,28,88.5,28,88.4,28z"/>
				</g>
				<g>
					<path class="st26" d="M102.1,26.2c-0.7,0.2-1.5,0.2-2.3,0.1c-0.8-0.2-1.5-0.5-2.2-0.9c-1.3-0.8-2.3-2.3-2.6-3.9
						c-0.3-1.6,0-3.2,0.8-4.6c0.4-0.7,0.9-1.3,1.5-1.8c0.6-0.5,1.4-0.8,2.1-0.8c0,0,0.1,0,0.1,0.1c0,0,0,0.1-0.1,0.1
						c-0.7,0.2-1.3,0.6-1.8,1.1c-0.5,0.5-0.9,1.1-1.1,1.7c-0.6,1.3-0.7,2.7-0.5,4c0.2,1.3,1,2.5,2.1,3.4c1.1,0.8,2.5,1.3,3.9,1.2
						c0.1,0,0.1,0.1,0.1,0.1C102.2,26.1,102.2,26.2,102.1,26.2z"/>
				</g>
			</g>
			
				<ellipse transform="matrix(0.6946 -0.7194 0.7194 0.6946 -18.455 67.6294)" class="st30" cx="70.4" cy="55.6" rx="9.9" ry="11.2"/>
			<path class="st138" d="M77.1,48.3c-1.9-1.8-4.2-2.8-6.5-3.1c-0.1,0-0.2,0-0.3,0c-8.2,0.1-10.7,10.2-7.6,16.6
				c0.3,0.3,0.6,0.6,0.9,0.9c3.4,3.3,8.1,4.2,11.8,2.8C80.4,61.9,80.9,53.1,77.1,48.3z"/>
			<g>
				<g>
					<path class="st26" d="M68.8,45L68.8,45c0,0-6.4-1.2-10.2,0.9c0,0,0.6,1.3,2.2,1.3c0,0-1.8,0.5-2.5,1.8c0,0,0.4,1.1,2.5,1
						c0.4-0.9,0.9-1.7,1.6-2.4C64.1,46,66.4,45.1,68.8,45z"/>
				</g>
				<path class="st26" d="M70.3,46.1c7.5-0.1,7.9,19.6,0.3,19.8C63.2,66,62.8,46.2,70.3,46.1z"/>
				<path class="st30" d="M73.4,48.5c4.6-0.1,4.7,6.5,0.1,6.5C69,55.1,68.9,48.6,73.4,48.5z"/>
				<g>
					<path class="st26" d="M63.3,63c-2-2-3.4-4.7-3.6-7.5c-0.3-2.8,0.6-5.8,2.6-7.8c2-2.1,4.9-2.9,7.7-2.8c2.8,0.1,5.6,1.3,7.7,3.3
						c2,2,3.5,4.7,3.7,7.6c0.3,2.8-0.6,5.8-2.7,7.8c-2,2.1-4.9,2.9-7.7,2.8C68.1,66.1,65.4,64.9,63.3,63z M63.9,62.3
						c1.9,1.9,4.4,3.2,7.1,3.5c2.7,0.3,5.5-0.7,7.3-2.7c1.9-2,2.6-4.8,2.2-7.4c-0.4-2.6-1.7-5.1-3.6-6.9c-1.9-1.8-4.3-3.2-7-3.5
						c-2.7-0.3-5.5,0.6-7.4,2.6c-1.9,2-2.6,4.8-2.3,7.5C60.6,58,62,60.5,63.9,62.3z"/>
				</g>
			</g>
			
				<ellipse transform="matrix(0.7194 -0.6946 0.6946 0.7194 -6.3517 95.38)" class="st30" cx="114.9" cy="55.6" rx="11.2" ry="9.9"/>
			<path class="st138" d="M108.2,48.3c1.9-1.8,4.2-2.8,6.5-3.1c0.1,0,0.2,0,0.3,0c8.2,0.1,10.7,10.2,7.6,16.6
				c-0.3,0.3-0.6,0.6-0.9,0.9c-3.4,3.3-8.1,4.2-11.8,2.8C104.9,61.9,104.4,53.1,108.2,48.3z"/>
			<g>
				<g>
					<path class="st26" d="M116.5,45L116.5,45c0,0,6.4-1.2,10.2,0.9c0,0-0.6,1.3-2.2,1.3c0,0,1.8,0.5,2.5,1.8c0,0-0.4,1.1-2.5,1
						c-0.4-0.9-0.9-1.7-1.6-2.4C121.2,46,118.9,45.1,116.5,45z"/>
				</g>
				<path class="st26" d="M115,46.1c-7.5-0.1-7.9,19.6-0.3,19.8C122.1,66,122.5,46.2,115,46.1z"/>
				<path class="st30" d="M111.9,48.5c-4.6-0.1-4.7,6.5-0.1,6.5C116.3,55.1,116.4,48.6,111.9,48.5z"/>
				<g>
					<path class="st26" d="M121.4,62.3c1.9-1.8,3.3-4.3,3.7-7c0.4-2.6-0.4-5.5-2.3-7.5c-1.9-2-4.7-2.9-7.4-2.6
						c-2.7,0.3-5.1,1.7-7,3.5c-1.9,1.8-3.2,4.3-3.6,6.9c-0.4,2.6,0.3,5.5,2.2,7.4c1.8,2,4.7,2.9,7.3,2.7
						C117,65.6,119.5,64.2,121.4,62.3z M122,63c-2.1,1.9-4.9,3.1-7.7,3.3c-2.8,0.2-5.7-0.7-7.7-2.8c-2-2-3-5-2.7-7.8
						c0.2-2.9,1.7-5.6,3.7-7.6c2.1-2,4.9-3.2,7.7-3.3c2.8-0.1,5.7,0.7,7.7,2.8c2,2,2.9,5,2.6,7.8C125.4,58.3,124,60.9,122,63z"/>
				</g>
			</g>
		</g>
		<g>
			<path class="st26" d="M88.3,69.6c-0.2-0.9,0.5-1.8,1.4-1.8c1.2,0,4-0.1,5.1,0.2c1.1,0.3,1.2,1.9,0.3,2.6l-2.6,1.7
				c-0.6,0.4-0.8,0.4-1.3,0l-2.5-1.8C88.5,70.2,88.3,69.9,88.3,69.6z"/>
			<g>
				<path class="st26" d="M92.2,72.6c-0.3,1.3-0.7,2.6-1.4,3.8c-0.6,1.2-1.4,2.3-2.4,3.2c-1,0.9-2.3,1.5-3.6,1.8
					c-1.3,0.3-2.7,0.1-4-0.1c-0.1,0-0.1-0.1-0.1-0.2c0-0.1,0.1-0.1,0.1-0.1l0,0c1.3,0.2,2.6,0.3,3.9-0.1c1.2-0.3,2.4-0.9,3.3-1.8
					c0.9-0.9,1.7-1.9,2.3-3.1c0.6-1.1,1-2.4,1.3-3.6l0,0c0-0.2,0.2-0.3,0.4-0.3S92.2,72.4,92.2,72.6L92.2,72.6z"/>
			</g>
			<g>
				<path class="st26" d="M92.2,72.5c0.2,1.3,0.5,2.5,1,3.7c0.5,1.2,1.2,2.3,2.1,3.2c0.9,1,2,1.6,3.2,2c1.2,0.4,2.6,0.4,3.9,0.3l0,0
					c0.1,0,0.1,0,0.1,0.1c0,0.1,0,0.1-0.1,0.1c-1.3,0.2-2.7,0.3-4-0.1c-1.3-0.3-2.6-1-3.5-2c-1-1-1.7-2.1-2.3-3.4
					c-0.5-1.2-1-2.5-1.2-3.9c0-0.2,0.1-0.4,0.3-0.4S92.2,72.3,92.2,72.5C92.2,72.5,92.2,72.5,92.2,72.5L92.2,72.5z"/>
			</g>
			<g>
				<g>
					<path class="st26" d="M101.6,75.4c12.7,7.3,27.2,11.4,41.8,11.7c-14.6-0.1-29.3-4.1-42-11.3c-0.1-0.1-0.1-0.2-0.1-0.3
						S101.5,75.4,101.6,75.4L101.6,75.4z"/>
				</g>
				<g>
					<path class="st26" d="M102.2,71.1c14.9,7,32.6,8,48.3,2.7c-15.6,5.4-33.4,4.5-48.5-2.4c-0.1,0-0.2-0.2-0.1-0.3
						C102,71.1,102.1,71,102.2,71.1L102.2,71.1z"/>
				</g>
				<g>
					<path class="st26" d="M100.5,72.6c2.7,1.5,5.6,2.8,8.5,3.9c2.9,1.1,5.9,2.1,9,2.9c1.5,0.4,3.1,0.7,4.6,1.1
						c1.5,0.2,3.1,0.6,4.7,0.7c3.1,0.4,6.3,0.5,9.4,0.5c-3.1,0-6.3,0-9.4-0.4c-1.6-0.1-3.1-0.4-4.7-0.7c-1.5-0.3-3.1-0.6-4.6-1
						c-3.1-0.8-6.1-1.7-9-2.8c-2.9-1.1-5.8-2.4-8.6-3.9c-0.1-0.1-0.1-0.2-0.1-0.3S100.4,72.6,100.5,72.6
						C100.5,72.6,100.5,72.6,100.5,72.6L100.5,72.6z"/>
				</g>
			</g>
			<g>
				<g>
					<path class="st26" d="M82.9,75.3c-13.2,6.5-28,9.6-42.6,8.9c14.6,0.5,29.4-2.7,42.4-9.3c0.1-0.1,0.2,0,0.3,0.1
						C83.1,75.1,83,75.2,82.9,75.3L82.9,75.3z"/>
				</g>
				<g>
					<path class="st26" d="M82.5,70.9c-4.1,1.6-8.4,2.8-12.7,3.6c-4.3,0.8-8.7,1.3-13.1,1.5c-4.4,0.1-8.8-0.1-13.2-0.7
						c-4.4-0.7-8.7-1.7-12.7-3.4c4.1,1.6,8.4,2.7,12.8,3.3c4.4,0.6,8.8,0.8,13.2,0.6c4.4-0.2,8.8-0.7,13.1-1.6
						c4.3-0.9,8.5-2.1,12.6-3.7c0.1,0,0.2,0,0.3,0.1C82.7,70.7,82.7,70.9,82.5,70.9L82.5,70.9z"/>
				</g>
				<g>
					<path class="st26" d="M84.2,72.6c-2.9,1.3-5.8,2.4-8.8,3.4c-3,0.9-6.1,1.7-9.2,2.3c-1.5,0.3-3.1,0.5-4.7,0.7
						c-1.6,0.1-3.1,0.4-4.7,0.4c-3.1,0.2-6.3,0.1-9.4-0.1c3.1,0.2,6.3,0.3,9.4,0c1.6-0.1,3.1-0.3,4.7-0.5c1.5-0.3,3.1-0.5,4.6-0.8
						c3.1-0.6,6.1-1.4,9.1-2.4c3-1,5.9-2.1,8.7-3.4l0,0c0.1-0.1,0.2,0,0.3,0.1C84.3,72.4,84.3,72.5,84.2,72.6
						C84.2,72.6,84.2,72.6,84.2,72.6z"/>
				</g>
			</g>
			<g>
				<path class="st26" d="M84.5,89.5c0.5-1.1,1.3-2.1,2.3-2.9c0.5-0.4,1-0.7,1.6-0.9c0.6-0.2,1.2-0.3,1.8-0.3c0,0,0.1,0,0.1,0.1
					c0,0,0,0.1-0.1,0.1l0,0c-0.6,0.1-1.1,0.3-1.7,0.5c-0.5,0.3-1,0.5-1.5,0.9c-0.9,0.7-1.7,1.6-2.4,2.5l0,0c0,0.1-0.1,0.1-0.2,0
					C84.5,89.6,84.5,89.6,84.5,89.5z"/>
			</g>
			<g>
				<path class="st26" d="M90.3,85.6c0.3,0.7,0.4,1.5,0.3,2.3c-0.1,0.4-0.2,0.8-0.4,1.1c-0.2,0.3-0.5,0.6-0.8,0.8c0,0-0.1,0-0.1,0
					c0,0,0-0.1,0-0.1l0,0c0.2-0.3,0.4-0.6,0.5-0.9c0.1-0.3,0.2-0.6,0.3-1c0.1-0.7,0.1-1.4,0-2.1l0,0c0-0.1,0-0.1,0.1-0.1
					C90.3,85.5,90.3,85.5,90.3,85.6z"/>
			</g>
			<g>
				<path class="st26" d="M89.3,89.6c0.8-0.7,1.8-1.3,2.8-1.7c0.5-0.2,1.1-0.4,1.6-0.4c0.6-0.1,1.2-0.1,1.7,0.3c0,0,0,0.1,0,0.1
					c0,0-0.1,0-0.1,0c-0.5-0.2-1-0.1-1.5,0c-0.5,0.1-1,0.3-1.5,0.5c-1,0.4-1.9,0.9-2.9,1.4c-0.1,0-0.1,0-0.2-0.1
					C89.3,89.7,89.3,89.7,89.3,89.6z"/>
			</g>
			<g>
				<path class="st26" d="M95.5,87.7c0.3,0.2,0.4,0.5,0.4,0.8c0,0.3-0.2,0.6-0.3,0.8c-0.4,0.4-0.8,0.7-1.3,0.8c0,0-0.1,0-0.1-0.1
					c0,0,0-0.1,0-0.1c0.3-0.4,0.7-0.7,0.9-1.1c0.1-0.2,0.2-0.3,0.3-0.5c0.1-0.2,0-0.4,0-0.6l0,0c0-0.1,0-0.1,0.1-0.2
					C95.5,87.7,95.5,87.7,95.5,87.7z"/>
			</g>
		</g>
	</g>
</g>
<g id="mask" class="st0">
</g>
</svg>
