<?xml version="1.0" encoding="utf-8"?>
<!-- Generator: Adobe Illustrator 21.0.0, SVG Export Plug-In . SVG Version: 6.00 Build 0)  -->
<svg version="1.1" xmlns="http://www.w3.org/2000/svg" xmlns:xlink="http://www.w3.org/1999/xlink" x="0px" y="0px"
	 viewBox="0 0 176.8 172.4" style="enable-background:new 0 0 176.8 172.4;" xml:space="preserve">
<style type="text/css">
	.st0{display:none;}
	.st1{display:inline;fill:#FD9994;}
	.st2{display:inline;fill:#FFFFFF;}
	.st3{display:inline;fill:none;stroke:#FFFFFF;stroke-width:2.2363;stroke-miterlimit:10;}
	.st4{display:inline;}
	.st5{fill:none;stroke:#FFFFFF;stroke-width:2.2363;stroke-miterlimit:10;}
	.st6{fill:#FFB380;}
	.st7{fill:#D2C3DB;}
	.st8{fill:#F9ECDC;}
	.st9{fill:#FFF58B;}
	.st10{fill:#F6BC60;}
	.st11{fill:#ECF784;}
	.st12{fill:#FFDEFF;}
	.st13{fill:#AED5D2;}
	.st14{fill:#F4BD9F;}
	.st15{fill:#B9DCFF;}
	.st16{fill:#D7FFFB;}
	.st17{fill:#81D8F7;}
	.st18{fill:#E57777;}
	.st19{fill:#D9FFDB;}
	.st20{opacity:0.1;}
	.st21{fill:#5CCDFF;}
	.st22{fill:none;}
	.st23{opacity:0.2;fill:#FFFFFF;}
	.st24{opacity:0.1;fill:#002CBF;}
	.st25{fill:#1A1A1A;}
	.st26{fill:#333333;}
	.st27{fill:#FFFFDE;}
	.st28{clip-path:url(#SVGID_4_);}
	.st29{fill:none;stroke:#333333;stroke-width:0.4917;stroke-linecap:round;stroke-linejoin:round;stroke-miterlimit:10;}
	.st30{fill:#FFFFFF;}
	.st31{fill:none;stroke:#333333;stroke-width:0.8543;stroke-miterlimit:10;}
	.st32{clip-path:url(#SVGID_6_);}
	.st33{fill:#FFD7B9;}
	.st34{fill:#F0FFFF;}
	.st35{clip-path:url(#SVGID_8_);}
	.st36{fill:#FF5C5C;}
	.st37{fill:none;stroke:#333333;stroke-width:0.466;stroke-linecap:round;stroke-linejoin:round;stroke-miterlimit:10;}
	.st38{fill:none;stroke:#333333;stroke-width:0.8095;stroke-miterlimit:10;}
	.st39{clip-path:url(#SVGID_10_);}
	.st40{fill:none;stroke:#333333;stroke-width:0.7381;stroke-linecap:round;stroke-linejoin:round;stroke-miterlimit:10;}
	.st41{fill:none;stroke:#333333;stroke-width:0.8857;stroke-linecap:round;stroke-linejoin:round;stroke-miterlimit:10;}
	.st42{fill:none;stroke:#333333;stroke-width:2.6852;stroke-linecap:round;stroke-linejoin:round;stroke-miterlimit:10;}
	.st43{fill:#72B5C4;}
	.st44{fill:#5E96A5;}
	.st45{fill:none;stroke:#FFFFFF;stroke-width:2.6852;stroke-linecap:round;stroke-linejoin:round;stroke-miterlimit:10;}
	.st46{fill:none;stroke:#FFFFFF;stroke-width:1.2942;stroke-linecap:round;stroke-linejoin:round;stroke-miterlimit:10;}
	.st47{fill:none;stroke:#FFFFFF;stroke-width:0.8311;stroke-linecap:round;stroke-linejoin:round;stroke-miterlimit:10;}
	.st48{fill:#FF5C00;}
	.st49{fill:#00B4FF;}
	.st50{fill:#FF5592;}
	.st51{fill:#733FFF;}
	.st52{fill:#DDFF15;}
	.st53{fill:#BF5855;}
	.st54{fill:none;stroke:#333333;stroke-width:0.5718;stroke-miterlimit:10;}
	.st55{fill:#C8F982;}
	.st56{fill:#AEF9C0;}
	.st57{fill:none;stroke:#FFFFFF;stroke-width:1.8326;stroke-miterlimit:10;}
	.st58{fill:#9AF6F9;}
	.st59{fill:#FFACA2;}
	.st60{fill:#F9E582;}
	.st61{fill:#FFC08B;}
	.st62{fill:#EFEB6A;}
	.st63{fill:#EC987F;}
	.st64{fill:#B5FFCC;}
	.st65{fill:#FFEDA2;}
	.st66{fill:#CCE7CC;}
	.st67{fill:#ABE7AB;}
	.st68{fill:#A6A6A6;}
	.st69{clip-path:url(#SVGID_60_);}
	.st70{fill:none;stroke:#333333;stroke-width:0.4706;stroke-linecap:round;stroke-linejoin:round;stroke-miterlimit:10;}
	.st71{fill:#FFEC55;}
	.st72{fill:none;stroke:#333333;stroke-width:0.8177;stroke-miterlimit:10;}
	.st73{clip-path:url(#SVGID_62_);}
	.st74{clip-path:url(#SVGID_64_);}
	.st75{fill:#FF7A59;}
	.st76{clip-path:url(#SVGID_66_);}
	.st77{clip-path:url(#SVGID_68_);}
	.st78{fill:#B45FFF;}
	.st79{clip-path:url(#SVGID_70_);}
	.st80{opacity:0.2;fill:#002CBF;}
	.st81{fill:none;stroke:#333333;stroke-width:0.5506;stroke-linecap:round;stroke-linejoin:round;stroke-miterlimit:10;}
	.st82{clip-path:url(#SVGID_72_);}
	.st83{fill:#EAA871;}
	.st84{fill:#FFD836;}
	.st85{fill:#FF846B;}
	.st86{fill:none;stroke:#333333;stroke-width:0.804;stroke-linecap:round;stroke-linejoin:round;stroke-miterlimit:10;}
	.st87{fill:#FEFF4A;}
	.st88{fill:none;stroke:#333333;stroke-width:0.7645;stroke-linecap:round;stroke-linejoin:round;stroke-miterlimit:10;}
	.st89{fill:none;stroke:#333333;stroke-width:0.7645;stroke-miterlimit:10;}
	.st90{fill:none;stroke:#333333;stroke-width:2.9248;stroke-linecap:round;stroke-linejoin:round;stroke-miterlimit:10;}
	.st91{fill:none;stroke:#333333;stroke-width:0.945;stroke-linecap:round;stroke-linejoin:round;stroke-miterlimit:10;}
	.st92{fill:none;stroke:#333333;stroke-width:0.945;stroke-miterlimit:10;}
	.st93{fill:none;stroke:#333333;stroke-width:3.6155;stroke-linecap:round;stroke-linejoin:round;stroke-miterlimit:10;}
	.st94{fill:none;stroke:#333333;stroke-width:0.6228;stroke-miterlimit:10;}
	.st95{fill:none;stroke:#333333;stroke-width:0.7778;stroke-linecap:round;stroke-linejoin:round;stroke-miterlimit:10;}
	.st96{fill:#FF712A;}
	.st97{fill:none;stroke:#333333;stroke-width:0.7396;stroke-linecap:round;stroke-linejoin:round;stroke-miterlimit:10;}
	.st98{fill:none;stroke:#333333;stroke-width:0.7396;stroke-miterlimit:10;}
	.st99{fill:none;stroke:#333333;stroke-width:2.8295;stroke-linecap:round;stroke-linejoin:round;stroke-miterlimit:10;}
	.st100{fill:none;stroke:#333333;stroke-width:0.9142;stroke-linecap:round;stroke-linejoin:round;stroke-miterlimit:10;}
	.st101{fill:none;stroke:#333333;stroke-width:0.9142;stroke-miterlimit:10;}
	.st102{fill:none;stroke:#333333;stroke-width:3.4977;stroke-linecap:round;stroke-linejoin:round;stroke-miterlimit:10;}
	.st103{fill:none;stroke:#333333;stroke-width:0.6025;stroke-miterlimit:10;}
	.st104{fill:url(#SVGID_89_);}
	.st105{fill:url(#SVGID_90_);}
	.st106{fill:none;stroke:#333333;stroke-width:0.7438;stroke-linecap:round;stroke-linejoin:round;stroke-miterlimit:10;}
	.st107{fill:none;stroke:#333333;stroke-width:0.8926;stroke-linecap:round;stroke-linejoin:round;stroke-miterlimit:10;}
	.st108{clip-path:url(#SVGID_92_);fill:url(#SVGID_93_);}
	.st109{fill:url(#SVGID_94_);}
	.st110{fill:#52C5FF;}
	.st111{fill:none;stroke:#333333;stroke-width:0.6367;stroke-linecap:round;stroke-linejoin:round;stroke-miterlimit:10;}
	.st112{fill:none;stroke:#333333;stroke-width:2.7061;stroke-linecap:round;stroke-linejoin:round;stroke-miterlimit:10;}
	.st113{fill:none;stroke:#333333;stroke-width:0.5763;stroke-miterlimit:10;}
	.st114{fill:none;stroke:#FFFFFF;stroke-width:1.3042;stroke-linecap:round;stroke-linejoin:round;stroke-miterlimit:10;}
	.st115{fill:none;stroke:#FFFFFF;stroke-width:0.8375;stroke-linecap:round;stroke-linejoin:round;stroke-miterlimit:10;}
	.st116{clip-path:url(#SVGID_96_);}
	.st117{opacity:0.2;fill:#2E3192;}
	.st118{fill:#FEFF78;}
	.st119{opacity:0.1;fill:#2E3192;}
	.st120{fill:#FF5A50;}
	.st121{fill:none;stroke:#333333;stroke-width:0.567;stroke-linecap:round;stroke-linejoin:round;stroke-miterlimit:10;}
	.st122{fill:none;stroke:#333333;stroke-width:2.5786;stroke-linecap:round;stroke-linejoin:round;stroke-miterlimit:10;}
	.st123{fill:none;stroke:#333333;stroke-width:0.5491;stroke-miterlimit:10;}
	.st124{clip-path:url(#SVGID_98_);}
	.st125{fill:#2AD2FF;}
	.st126{fill:none;stroke:#333333;stroke-width:0.2435;stroke-miterlimit:10;}
	.st127{fill:#FFFFFF;stroke:#333333;stroke-width:0.487;stroke-linecap:round;stroke-linejoin:round;stroke-miterlimit:10;}
	.st128{clip-path:url(#SVGID_100_);}
	.st129{fill:url(#SVGID_101_);}
	.st130{opacity:0.4;fill:#FFFFFF;}
	.st131{fill:#FFDC48;}
	.st132{fill:none;stroke:#333333;stroke-width:0.5835;stroke-linecap:round;stroke-linejoin:round;stroke-miterlimit:10;}
	.st133{fill:none;stroke:#333333;stroke-width:2.6537;stroke-linecap:round;stroke-linejoin:round;stroke-miterlimit:10;}
	.st134{fill:#F0F462;}
	.st135{fill:url(#SVGID_102_);}
	.st136{fill:url(#SVGID_103_);}
	.st137{fill:#D1DADF;}
	.st138{fill:#57FFA3;}
	.st139{clip-path:url(#SVGID_105_);}
	.st140{clip-path:url(#SVGID_107_);}
	.st141{fill:#D0BBF9;}
	.st142{clip-path:url(#SVGID_109_);}
	.st143{fill:none;stroke:#333333;stroke-width:0.5867;stroke-linecap:round;stroke-linejoin:round;stroke-miterlimit:10;}
	.st144{clip-path:url(#SVGID_111_);}
	.st145{fill:none;stroke:#333333;stroke-width:0.5514;stroke-linecap:round;stroke-linejoin:round;stroke-miterlimit:10;}
	.st146{fill:#D1E9D3;}
	.st147{clip-path:url(#SVGID_113_);}
	.st148{fill:none;stroke:#333333;stroke-width:0.7684;stroke-linecap:round;stroke-linejoin:round;stroke-miterlimit:10;}
	.st149{fill:none;stroke:#333333;stroke-width:0.7684;stroke-miterlimit:10;}
	.st150{fill:none;stroke:#333333;stroke-width:2.9398;stroke-linecap:round;stroke-linejoin:round;stroke-miterlimit:10;}
	.st151{clip-path:url(#SVGID_115_);}
	.st152{fill:#FF66F8;}
	.st153{fill:none;stroke:#333333;stroke-width:0.7542;stroke-linecap:round;stroke-linejoin:round;stroke-miterlimit:10;}
	.st154{fill:none;stroke:#333333;stroke-width:0.9051;stroke-linecap:round;stroke-linejoin:round;stroke-miterlimit:10;}
	.st155{fill:none;stroke:#333333;stroke-width:0.5146;stroke-linecap:round;stroke-linejoin:round;stroke-miterlimit:10;}
	.st156{fill:none;stroke:#333333;stroke-width:0.6033;stroke-linecap:round;stroke-linejoin:round;stroke-miterlimit:10;}
	.st157{fill:none;stroke:#333333;stroke-width:2.7439;stroke-linecap:round;stroke-linejoin:round;stroke-miterlimit:10;}
	.st158{fill:#333333;stroke:#333333;stroke-width:1.0293;stroke-linecap:round;stroke-linejoin:round;stroke-miterlimit:10;}
	.st159{fill:#FF5F2A;}
	.st160{fill:none;stroke:#333333;stroke-width:0.5965;stroke-linecap:round;stroke-linejoin:round;stroke-miterlimit:10;}
	.st161{fill:#F9CC3E;}
	.st162{clip-path:url(#SVGID_121_);}
	.st163{fill:#70E1FF;}
	.st164{fill:none;stroke:#333333;stroke-width:0.5717;stroke-linecap:round;stroke-linejoin:round;stroke-miterlimit:10;}
	.st165{fill:none;stroke:#333333;stroke-width:2.6004;stroke-linecap:round;stroke-linejoin:round;stroke-miterlimit:10;}
	.st166{clip-path:url(#SVGID_123_);}
	.st167{fill:#8F61FF;}
	.st168{clip-path:url(#SVGID_125_);}
	.st169{clip-path:url(#SVGID_127_);}
	.st170{fill:#FFEBEB;}
	.st171{clip-path:url(#SVGID_129_);}
	.st172{clip-path:url(#SVGID_131_);}
	.st173{fill:#F47D62;}
	.st174{fill:none;stroke:#333333;stroke-width:0.7188;stroke-linecap:round;stroke-linejoin:round;stroke-miterlimit:10;}
	.st175{fill:none;stroke:#333333;stroke-width:0.7188;stroke-miterlimit:10;}
	.st176{fill:none;stroke:#333333;stroke-width:2.7502;stroke-linecap:round;stroke-linejoin:round;stroke-miterlimit:10;}
	.st177{fill:#85ACB5;}
	.st178{clip-path:url(#SVGID_133_);}
	.st179{fill:#D5F2F7;}
	.st180{fill:#FF694A;}
	.st181{fill:none;stroke:#333333;stroke-width:0.5693;stroke-linecap:round;stroke-linejoin:round;stroke-miterlimit:10;}
	.st182{fill:#FFDF15;}
	.st183{fill:none;stroke:#333333;stroke-width:0.6674;stroke-linecap:round;stroke-linejoin:round;stroke-miterlimit:10;}
	.st184{fill:none;stroke:#333333;stroke-width:3.0352;stroke-linecap:round;stroke-linejoin:round;stroke-miterlimit:10;}
	.st185{clip-path:url(#SVGID_135_);}
	.st186{clip-path:url(#SVGID_137_);}
	.st187{fill:none;stroke:#333333;stroke-width:0.5248;stroke-linecap:round;stroke-linejoin:round;stroke-miterlimit:10;}
	.st188{fill:#FFD33A;}
	.st189{fill:none;stroke:#333333;stroke-width:2.7983;stroke-linecap:round;stroke-linejoin:round;stroke-miterlimit:10;}
	.st190{fill:none;stroke:#333333;stroke-width:0.7692;stroke-linecap:round;stroke-linejoin:round;stroke-miterlimit:10;}
	.st191{fill:none;stroke:#333333;stroke-width:0.5959;stroke-miterlimit:10;}
	.st192{clip-path:url(#SVGID_143_);}
	.st193{fill:#FFE267;}
	.st194{clip-path:url(#SVGID_149_);}
	.st195{fill:#FFEEAA;}
	.st196{opacity:0.7;fill:url(#SVGID_152_);}
	.st197{fill:none;stroke:#333333;stroke-width:0.611;stroke-miterlimit:10;}
	.st198{clip-path:url(#SVGID_154_);}
	.st199{opacity:0.7;fill:url(#SVGID_157_);}
	.st200{fill:#EABBFC;}
	.st201{opacity:0.7;fill:url(#SVGID_160_);}
	.st202{opacity:0.7;fill:url(#SVGID_163_);}
	.st203{opacity:0.7;fill:url(#SVGID_166_);}
	.st204{opacity:0.7;fill:url(#SVGID_169_);}
	.st205{clip-path:url(#SVGID_171_);}
	.st206{fill:none;stroke:#333333;stroke-width:0.5899;stroke-linecap:round;stroke-linejoin:round;stroke-miterlimit:10;}
	.st207{fill:none;stroke:#333333;stroke-width:2.6828;stroke-linecap:round;stroke-linejoin:round;stroke-miterlimit:10;}
	.st208{fill:none;stroke:#333333;stroke-width:0.5713;stroke-miterlimit:10;}
	.st209{clip-path:url(#SVGID_173_);}
	.st210{clip-path:url(#SVGID_175_);}
	.st211{clip-path:url(#SVGID_177_);}
	.st212{fill:#FFAFC3;}
	.st213{fill:#A0D3FF;}
	.st214{fill:none;stroke:#333333;stroke-width:0.7262;stroke-linecap:round;stroke-linejoin:round;stroke-miterlimit:10;}
	.st215{fill:none;stroke:#333333;stroke-width:0.6906;stroke-miterlimit:10;}
	.st216{fill:none;stroke:#333333;stroke-width:0.8536;stroke-miterlimit:10;}
	.st217{fill:#333333;stroke:#333333;stroke-width:0.991;stroke-linecap:round;stroke-linejoin:round;stroke-miterlimit:10;}
	.st218{clip-path:url(#SVGID_179_);}
	.st219{clip-path:url(#SVGID_181_);}
	.st220{fill:#FD9994;}
	.st221{opacity:0.2;}
	.st222{fill:#2E3192;}
	.st223{display:inline;fill:#FF5B00;}
</style>
<g id="site">
</g>
<g id="kitties">
	<g>
		<g>
			<path class="st78" d="M148.4,101.1c0,0-9.1-1.9-14,11.2c-4.8,13-5,15.9-19.5,18.1l2,12.7c0,0,12.8,5.2,23.2,0.1
				c10.4-5,8.4-16.1,8.5-19.1c0-0.4-0.2,1.5-1.2,2.9c-1.2,1.7-2.9,2.8-2.5,2c2.3-4.3,2.8-13.2,2.8-13.2
				C146.6,109.9,146,103.4,148.4,101.1z"/>
			<path class="st24" d="M135.1,110.4c0,0,0.4,11.8-5.3,16.4c-6.1,4.9-11.6,3.1-11.6,3.1s7-1.1,10.4-4.7
				C133.2,120.2,135.1,110.4,135.1,110.4z"/>
			<g>
				<path class="st26" d="M148.4,101.5c-3.9-0.2-7.9,1.5-10.4,4.6c-1.3,1.5-2.1,3.3-2.7,5.2c-0.7,1.9-1.2,3.8-1.9,5.8
					c-0.7,1.9-1.4,3.9-2.5,5.6c-1.1,1.8-2.5,3.3-4.3,4.4c-1.7,1.1-3.7,1.9-5.7,2.4c-2,0.5-4,0.8-6,1c-0.1,0-0.2-0.1-0.2-0.2
					c0-0.1,0.1-0.2,0.2-0.2c2-0.2,4-0.6,5.9-1.1c1.9-0.5,3.8-1.3,5.4-2.4c1.7-1.1,3-2.6,4-4.3c1-1.7,1.7-3.6,2.3-5.5
					c0.6-1.9,1.2-3.9,1.9-5.8c0.7-1.9,1.6-3.8,2.9-5.4c2.7-3.3,6.9-5,11.1-4.8c0.2,0,0.4,0.2,0.3,0.4
					C148.8,101.3,148.6,101.5,148.4,101.5L148.4,101.5z"/>
			</g>
			<g>
				<path class="st26" d="M148.9,123.5c0.5,4.2,0.3,8.6-1.4,12.5c-0.8,2-2,3.8-3.7,5.3c-0.8,0.7-1.7,1.3-2.7,1.8c-1,0.5-2,0.9-3,1.2
					c-4,1.4-8.4,1.6-12.6,1.1c-4.2-0.5-8.3-1.7-12.1-3.7c-0.1,0-0.1-0.2-0.1-0.2c0-0.1,0.2-0.1,0.2-0.1l0,0c3.7,1.9,7.8,3,12,3.5
					c4.1,0.4,8.4,0.1,12.3-1.3c4-1.2,7.2-4.1,8.9-7.9c1.7-3.8,2-8.1,1.7-12.2c0-0.1,0.1-0.2,0.2-0.2
					C148.8,123.3,148.9,123.4,148.9,123.5z"/>
			</g>
			<g>
				<path class="st26" d="M148.7,101.3c-0.6,0.9-1,2.1-1.3,3.2c-0.3,1.2-0.4,2.4-0.4,3.6c0,1.2,0.1,2.4,0.3,3.6
					c0.2,1.2,0.4,2.4,0.5,3.6c0.4,4.9-0.7,10-3.1,14.3c-0.1,0.1-0.2,0.1-0.3,0.1c-0.1,0-0.1-0.2-0.1-0.2c2.3-4.3,3.1-9.3,2.6-14
					c-0.1-1.2-0.3-2.4-0.5-3.6c-0.2-1.2-0.3-2.5-0.2-3.7c0-1.2,0.1-2.5,0.4-3.7c0.3-1.2,0.7-2.4,1.5-3.5c0.1-0.2,0.3-0.2,0.5-0.1
					C148.8,100.9,148.9,101.1,148.7,101.3L148.7,101.3z"/>
			</g>
			<g>
				<path class="st26" d="M148.9,123.5c-0.1,1.3-0.6,2.5-1.3,3.7c-0.4,0.6-0.8,1.1-1.3,1.5c-0.5,0.4-1.1,0.8-1.7,1
					c-0.1,0-0.2,0-0.2-0.1c0-0.1,0-0.2,0.1-0.2l0,0c0.5-0.4,1-0.7,1.4-1.2c0.4-0.4,0.8-0.9,1.1-1.4c0.7-1,1.1-2.2,1.5-3.4l0,0
					c0-0.1,0.1-0.2,0.2-0.1C148.9,123.3,148.9,123.4,148.9,123.5z"/>
			</g>
			<path class="st24" d="M144.4,129.6l-0.9,1.9c-0.2,0.4,0.2,0.8,0.6,0.6c1.6-0.9,4.2-3,4.5-8C148.6,124.1,147.2,128.8,144.4,129.6z
				"/>
		</g>
		<path class="st78" d="M44.8,47.6c0,0-40.3-33.2,25.4-13.4"/>
		<path class="st78" d="M129.5,47.6c0,0,40.3-33.2-25.4-13.4L129.5,47.6z"/>
		<g>
			<g>
				<path class="st26" d="M44.7,47.8c-3.9-3.3-7.6-6.7-10.5-11c-0.7-1.1-1.3-2.2-1.7-3.5c-0.2-0.6-0.3-1.3-0.2-2
					c0.1-0.7,0.4-1.4,0.9-1.9c0.5-0.5,1.1-0.9,1.7-1.1c0.6-0.3,1.3-0.4,1.9-0.5c1.3-0.2,2.6-0.3,3.9-0.3c5.1,0.2,10.1,1.2,15,2.4
					c4.9,1.2,9.8,2.7,14.6,4.2c0.1,0,0.2,0.1,0.1,0.2c0,0.1-0.1,0.1-0.2,0.1c-4.9-1.4-9.7-2.7-14.7-3.8c-2.5-0.5-4.9-1-7.4-1.4
					c-2.5-0.4-5-0.7-7.5-0.8c-1.2,0-2.5,0-3.7,0.2c-1.2,0.2-2.4,0.6-3.2,1.3c-0.8,0.8-0.8,2-0.5,3.1c0.3,1.1,0.9,2.2,1.6,3.3
					c1.3,2.1,3,4,4.7,5.8c1.7,1.8,3.6,3.6,5.5,5.2l0,0c0.1,0.1,0.1,0.3,0,0.4C44.9,47.8,44.8,47.9,44.7,47.8z"/>
			</g>
			<g>
				<path class="st26" d="M61.3,36.4c-2.1-0.5-4.2-0.9-6.3-1.3c-2.1-0.3-4.2-0.6-6.4-0.8c-2.1-0.2-4.3-0.4-6.4-0.5
					c-2.1-0.1-4.3-0.1-6.5,0c-0.1,0-0.2-0.1-0.2-0.2c0-0.1,0.1-0.2,0.2-0.2c2.2-0.3,4.3-0.4,6.5-0.4c2.2,0,4.3,0,6.5,0.3
					c2.2,0.3,4.3,0.6,6.4,1.1c2.1,0.5,4.2,1,6.3,1.7c0.1,0,0.1,0.1,0.1,0.2C61.4,36.3,61.4,36.4,61.3,36.4z"/>
			</g>
			<path class="st26" d="M50.4,42.8c0.6,0.1,1.3,0.2,1.9,0.1c0.6-0.1,1.1-0.5,1.6-0.9c2.1-1.4,4.1-3,6.1-4.5
				c0.3-0.2,0.6-0.5,0.5-0.9c0-0.2,3.9,0.5,1-0.3c-1.1-0.3-3.3-1.1-4.3-1.3c-4.6-0.8-9.3-1.5-13.9-1.8c-5-0.4,0.2,5.8,1.7,7
				C46.6,41.5,48.4,42.4,50.4,42.8z"/>
		</g>
		<g>
			<g>
				<path class="st26" d="M129.4,47.3c1.9-1.6,3.7-3.4,5.5-5.2c1.7-1.8,3.4-3.7,4.7-5.8c0.7-1,1.3-2.1,1.6-3.3
					c0.3-1.1,0.3-2.4-0.5-3.1c-0.8-0.8-2-1.2-3.2-1.4c-1.2-0.2-2.4-0.2-3.7-0.2c-2.5,0.1-5,0.4-7.5,0.8c-2.5,0.4-5,0.9-7.4,1.4
					c-4.9,1.1-9.8,2.4-14.7,3.8c-0.1,0-0.2,0-0.2-0.1c0-0.1,0-0.2,0.1-0.2c4.8-1.5,9.7-3,14.6-4.2c4.9-1.2,9.9-2.3,15-2.4
					c1.3,0,2.6,0,3.9,0.3c0.6,0.1,1.3,0.3,1.9,0.5c0.6,0.2,1.2,0.6,1.7,1.1c0.5,0.5,0.8,1.2,0.9,1.9c0.1,0.7,0,1.4-0.2,2
					c-0.4,1.3-1,2.4-1.7,3.5c-2.9,4.3-6.6,7.7-10.5,11c-0.1,0.1-0.3,0.1-0.4,0C129.2,47.6,129.2,47.4,129.4,47.3L129.4,47.3z"/>
			</g>
			<g>
				<path class="st26" d="M113,36.1c2.1-0.7,4.1-1.3,6.3-1.7c2.1-0.5,4.3-0.8,6.4-1.1c2.2-0.3,4.3-0.3,6.5-0.3
					c2.2,0,4.3,0.2,6.5,0.4c0.1,0,0.2,0.1,0.2,0.2c0,0.1-0.1,0.2-0.2,0.2c-2.2-0.1-4.3-0.1-6.5,0c-2.1,0.1-4.3,0.3-6.4,0.5
					c-2.1,0.2-4.3,0.5-6.4,0.8c-2.1,0.4-4.2,0.8-6.3,1.3c-0.1,0-0.1,0-0.2-0.1C112.9,36.2,112.9,36.1,113,36.1z"/>
			</g>
			<path class="st26" d="M123.9,42.8c-0.6,0.1-1.3,0.2-1.9,0.1c-0.6-0.1-1.1-0.5-1.6-0.9c-2.1-1.4-4.1-3-6.1-4.5
				c-0.3-0.2-0.6-0.5-0.5-0.9c0-0.2,0.2-0.3,0.3-0.4c0.8-0.8,2-1,3.1-1.2c4.6-0.8,9.3-1.5,13.9-1.8c5-0.4-0.2,5.8-1.7,7
				C127.8,41.5,125.9,42.4,123.9,42.8z"/>
		</g>
		<path class="st6" d="M138.1,81.2c0,0,1.3-5.7-1.6-13.8c-1.7-4.7-5.4-8.8-8.1-11.7c0,0,4.6,2.7,7.7,6.4c0,0-2.2-9.4-7.6-15
			c-4.7-4.8-9.3-6.1-9.3-6.1s5.9,0.9,9,1.9c0,0-2.3-2.9-9.1-5.7c-6.7-2.9-9.1-2.5-9.1-2.5s3-1,7.2-0.5c0,0-1.7-2.3-7.3-3.1
			c-5.6-0.8-12.9,0.1-12.9,0.1s4.3-2.7,11.3-3.1c0,0-3.8-2.9-9.6-2.7c-5.8,0.2-10.8,4.1-10.8,4.1s-5.3-3.4-10.2-4.1
			c-4.8-0.7-9,0.7-10.4,1.7c0,0,6.9,0.6,11.3,3.3c0,0-6.7-0.7-11.2-0.4c-4.5,0.3-7.7,1-9.5,2.7c0,0,4.9-0.2,7,0.6
			c0,0-7.5,1.4-11.1,3.2c-3.5,1.7-4.9,2.3-6.7,4c0,0,6.3-1.2,8.4-1.3c0,0-6.8,3.5-9.3,6.2c-2.5,2.7-5.1,6.4-6.2,9
			c-1.1,2.5-2.2,5-2.2,5s5.1-4.8,7.4-5.6c0,0-5.1,5.4-6.5,8c-1,1.9-3.1,5.7-4,12.3c-0.5,3.7-0.1,4.1-0.2,4.4
			c0.2-0.4,3.2-5.1,4.3-5.6c0,0-2.2,7-1.8,11.8c0.4,5.4,3.4,11.4,3.4,11.4s0.9-6.1,1.5-7.1c0,0-0.3,4.1,1.2,8.9
			c1.5,4.8,3.4,6.6,3.4,6.6s0.5-0.4,0.8-3.5l0.5-3.6c0,0,1.7,4.4,3.9,7.8c2.2,3.4,3.4,4.2,3.4,4.2s5.3-2.8,9.4-7.7l1,1.7
			c-1.3,3.8-6.5,15.1-8.8,22.2c-2.9,8.7-4.7,14.3-2.6,20s8.1,6.7,15.6,7l0.1,1.5c0,0-3,1.1-1.8,2.9c1.2,1.9,4.1,1.7,4.7,0.9
			c0.6-0.8,2.1-5.4,2.1-5.4l10.5,0.1l12.7-0.1h2.1c0,0,1.2,5.1,2,5.5c0.8,0.4,3.4,0.2,3.9-0.3c0.5-0.5,1.1-1.7,0.4-2.5
			c-0.7-0.8-1.5-1.2-1.5-1.2l-0.1-1.4c0,0,7.8-0.3,10.5-1.5c2.6-1.1,5.2-4.8,5.6-6.8c0.4-2,0.4-6-0.1-7.9c-0.6-1.9-2.5-9.2-2.5-9.2
			l-3.2-10.1l-3.8-9.3c0.2-0.8,1.5,1.1,5,3.2c0,0,6.4-6.1,8-11.7c0,0,0,5.2,0.8,7.6c0,0,3.1-3.2,4.7-9.6c0.7-2.9,0.6-5.1,0.7-5.9
			l1.1,7.5c0,0,3.5-7.1,4.3-12.6c0.6-4.1-1.5-11-1.5-11S136.2,77.2,138.1,81.2z"/>
		<g>
			<defs>
				<path id="SVGID_172_" d="M138.1,81.2c0,0,1.3-5.7-1.6-13.8c-1.7-4.7-5.4-8.8-8.1-11.7c0,0,4.6,2.7,7.7,6.4c0,0-2.2-9.4-7.6-15
					c-4.7-4.8-9.3-6.1-9.3-6.1s5.9,0.9,9,1.9c0,0-2.3-2.9-9.1-5.7c-6.7-2.9-9.1-2.5-9.1-2.5s3-1,7.2-0.5c0,0-1.7-2.3-7.3-3.1
					c-5.6-0.8-12.9,0.1-12.9,0.1s4.3-2.7,11.3-3.1c0,0-3.8-2.9-9.6-2.7c-5.8,0.2-10.8,4.1-10.8,4.1s-5.3-3.4-10.2-4.1
					c-4.8-0.7-9,0.7-10.4,1.7c0,0,6.9,0.6,11.3,3.3c0,0-6.7-0.7-11.2-0.4c-4.5,0.3-7.7,1-9.5,2.7c0,0,4.9-0.2,7,0.6
					c0,0-7.5,1.4-11.1,3.2c-3.5,1.7-4.9,2.3-6.7,4c0,0,6.3-1.2,8.4-1.3c0,0-6.8,3.5-9.3,6.2c-2.5,2.7-5.1,6.4-6.2,9
					c-1.1,2.5-2.2,5-2.2,5s5.1-4.8,7.4-5.6c0,0-5.1,5.4-6.5,8c-1,1.9-3.1,5.7-4,12.3c-0.5,3.7-0.1,4.1-0.2,4.4
					c0.2-0.4,3.2-5.1,4.3-5.6c0,0-2.2,7-1.8,11.8c0.4,5.4,3.4,11.4,3.4,11.4s0.9-6.1,1.5-7.1c0,0-0.3,4.1,1.2,8.9
					c1.5,4.8,3.4,6.6,3.4,6.6s0.5-0.4,0.8-3.5l0.5-3.6c0,0,1.7,4.4,3.9,7.8c2.2,3.4,3.4,4.2,3.4,4.2s5.3-2.8,9.4-7.7l1,1.7
					c-1.3,3.8-6.5,15.1-8.8,22.2c-2.9,8.7-4.7,14.3-2.6,20s8.1,6.7,15.6,7l0.1,1.5c0,0-3,1.1-1.8,2.9c1.2,1.9,4.1,1.7,4.7,0.9
					c0.6-0.8,2.1-5.4,2.1-5.4l10.5,0.1l12.7-0.1h2.1c0,0,1.2,5.1,2,5.5c0.8,0.4,3.4,0.2,3.9-0.3c0.5-0.5,1.1-1.7,0.4-2.5
					c-0.7-0.8-1.5-1.2-1.5-1.2l-0.1-1.4c0,0,7.8-0.3,10.5-1.5c2.6-1.1,5.2-4.8,5.6-6.8c0.4-2,0.4-6-0.1-7.9
					c-0.6-1.9-2.5-9.2-2.5-9.2l-3.2-10.1l-3.8-9.3c0.2-0.8,1.5,1.1,5,3.2c0,0,6.4-6.1,8-11.7c0,0,0,5.2,0.8,7.6c0,0,3.1-3.2,4.7-9.6
					c0.7-2.9,0.6-5.1,0.7-5.9l1.1,7.5c0,0,3.5-7.1,4.3-12.6c0.6-4.1-1.5-11-1.5-11S136.2,77.2,138.1,81.2z"/>
			</defs>
			<clipPath id="SVGID_2_">
				<use xlink:href="#SVGID_172_"  style="overflow:visible;"/>
			</clipPath>
			<g style="clip-path:url(#SVGID_2_);">
				<g>
					<g>
						<path class="st78" d="M68.9,112.9c-0.1-0.3-0.2-0.4-0.3-0.6c-0.1-0.2-0.2-0.4-0.4-0.5c-0.2-0.3-0.5-0.6-0.8-0.9
							c-0.3-0.3-0.6-0.6-0.9-0.8c-0.2-0.1-0.3-0.2-0.5-0.4c-0.2-0.1-0.3-0.2-0.5-0.3c-0.2-0.1-0.3-0.2-0.5-0.3
							c-0.2-0.1-0.3-0.2-0.5-0.3c-0.3-0.2-0.7-0.4-1-0.5c-0.3-0.2-0.7-0.3-1-0.4l-0.5-0.2l-0.2-0.1c-0.9,1.4-1.9,2.9-3,4
							c0.1,0,0.1,0.1,0.2,0.1l1,0.4l0.5,0.2l0.5,0.2c0.3,0.1,0.6,0.2,1,0.3c0.3,0.1,0.6,0.2,1,0.3c0.2,0,0.3,0.1,0.5,0.1
							c0.2,0,0.3,0.1,0.5,0.1c0.2,0,0.3,0.1,0.5,0.1c0.2,0,0.3,0.1,0.5,0.1c0.3,0.1,0.7,0.1,1,0.2c0.3,0.1,0.7,0.1,1,0.1l0.5,0.1
							l0.3,0l0.1,0l0.1,0c0,0,0,0,0.1,0l0.4,0c0.1,0,0.1,0,0.2-0.1C68.9,113.6,69,113.2,68.9,112.9z"/>
						<path class="st78" d="M70.8,120.6c-0.3,0-0.6,0-0.9,0l-0.9,0c-0.6,0-1.1,0-1.7,0l-3.3,0c-2.2,0-4.3,0-6.4,0
							c-1.1,0-2.1,0.1-3.2,0.1c-0.5,0-1.1,0-1.6,0.1c-0.3,0-0.5,0-0.8,0c-0.3,0-0.5,0-0.8,0.1l-1.6,0.1c-0.5,0.1-1.1,0.1-1.7,0.1
							c-0.3,0-0.6,0-0.9,0.1c-0.3,0-0.6,0.1-0.9,0.1c-0.3,0-0.6,0-0.9,0.1c-0.3,0-0.6,0-0.9,0c0.2-0.2,0.4-0.4,0.6-0.7
							c0.2-0.2,0.4-0.4,0.7-0.6c0.2-0.2,0.5-0.4,0.7-0.6c0.1-0.1,0.2-0.2,0.4-0.3l0.4-0.3c1-0.7,2.1-1.2,3.2-1.7
							c1.1-0.5,2.3-0.8,3.5-1.1c1.2-0.3,2.4-0.4,3.6-0.5c2.4-0.2,4.8,0,7.2,0.5c1.2,0.3,2.3,0.6,3.4,1.1c0.6,0.2,1.1,0.5,1.6,0.8
							c0.3,0.1,0.5,0.3,0.8,0.5c0.3,0.2,0.5,0.3,0.8,0.6c0.3,0.2,0.3,0.7,0.1,1C71.3,120.5,71.1,120.5,70.8,120.6L70.8,120.6z"/>
						<path class="st78" d="M68.3,128.1c-0.5,0.1-1,0.2-1.5,0.3c-0.5,0.1-1,0.2-1.5,0.3c-0.5,0.1-1,0.1-1.5,0.2
							c-0.5,0.1-1,0.1-1.5,0.2c-2,0.2-3.9,0.4-5.8,0.5l-0.7,0l-0.4,0c-0.1,0-0.2,0-0.4,0c-0.5,0-1,0.1-1.5,0.1c-0.5,0-1,0.1-1.5,0.1
							c-0.2,0-0.5,0-0.7,0l-0.7,0c-2,0-4,0.2-6.2,0c0.4-0.4,0.8-0.7,1.2-1.1c0.2-0.2,0.4-0.3,0.7-0.5c0.2-0.1,0.5-0.3,0.7-0.4
							c0.5-0.3,0.9-0.5,1.4-0.8c0.5-0.2,1-0.4,1.5-0.6c0.2-0.1,0.5-0.2,0.7-0.3c0.3-0.1,0.5-0.2,0.8-0.2c0.3-0.1,0.5-0.2,0.8-0.2
							c0.3-0.1,0.5-0.2,0.8-0.2c0.5-0.1,1-0.2,1.6-0.3c0.5-0.1,1-0.2,1.6-0.2c2.1-0.2,4.2-0.3,6.3,0c0.5,0.1,1,0.2,1.6,0.3
							c0.5,0.1,1,0.2,1.5,0.4c0.3,0.1,0.5,0.2,0.8,0.2c0.3,0.1,0.5,0.2,0.8,0.3c0.5,0.2,1,0.4,1.5,0.7c0.3,0.2,0.4,0.6,0.2,0.9
							C68.7,128,68.5,128.1,68.3,128.1L68.3,128.1z"/>
						<path class="st78" d="M65.6,137.7c-0.5,0.1-1.1,0.1-1.6,0.1c-0.5,0-1.1,0.1-1.6,0.1c-1.1,0.1-2.1,0.1-3.1,0.2l-3.1,0.2
							l-3.1,0.2c-1,0.1-2,0.1-3.1,0.2l-3.1,0.2c-1,0.1-2.1,0.2-3.2,0.3c-0.5,0-1.1,0.1-1.6,0.1c-0.6,0-1.1,0.1-1.7,0.1
							c0.2-0.2,0.4-0.4,0.6-0.6c0.2-0.2,0.4-0.4,0.7-0.5c0.2-0.2,0.5-0.3,0.7-0.5c0.1-0.1,0.2-0.2,0.4-0.2l0.4-0.2
							c1-0.6,2-1.1,3-1.5c2.1-0.8,4.3-1.3,6.5-1.6c2.2-0.2,4.5-0.2,6.7,0.1c1.1,0.2,2.2,0.4,3.3,0.8c0.5,0.2,1.1,0.4,1.6,0.6
							c0.5,0.2,1,0.5,1.5,0.8c0.3,0.2,0.4,0.5,0.2,0.8C66,137.5,65.8,137.6,65.6,137.7L65.6,137.7z"/>
						<path class="st78" d="M63.3,143.6c-0.5,0.2-1,0.3-1.6,0.4c-0.5,0.1-1,0.2-1.6,0.3l-0.8,0.2l-0.8,0.2c-0.3,0.1-0.5,0.1-0.8,0.1
							c-0.3,0-0.5,0.1-0.8,0.1c-0.5,0.1-1,0.2-1.5,0.3c-0.5,0.1-1,0.2-1.5,0.3c-0.5,0.1-1,0.2-1.5,0.3l-0.4,0.1l-0.4,0.1L51,146
							l-0.8,0.1c-0.3,0-0.5,0.1-0.8,0.1c-0.5,0.1-1,0.2-1.5,0.2c-0.5,0.1-1,0.2-1.5,0.2c-0.3,0-0.5,0.1-0.8,0.1
							c-0.3,0-0.5,0.1-0.8,0.1c-0.3,0-0.5,0.1-0.8,0.1l-0.4,0l-0.2,0l-0.2,0c-0.5,0.1-1,0.1-1.6,0.2c-0.3,0-0.5,0.1-0.8,0.1
							c-0.3,0-0.5,0.1-0.8,0.1c-0.5,0.1-1.1,0.1-1.7,0.1c0.4-0.4,0.8-0.8,1.3-1.1c0.2-0.2,0.4-0.3,0.7-0.5c0.1-0.1,0.2-0.2,0.3-0.2
							l0.3-0.2c0.5-0.3,0.9-0.6,1.4-0.9c0.5-0.3,1-0.5,1.5-0.7c0.3-0.1,0.5-0.2,0.8-0.3c0.1-0.1,0.3-0.1,0.4-0.2l0.4-0.1
							c0.5-0.2,1-0.4,1.6-0.6c0.5-0.2,1.1-0.3,1.6-0.5c0.3-0.1,0.5-0.1,0.8-0.2l0.8-0.2c0.5-0.1,1.1-0.2,1.6-0.3
							c0.5-0.1,1.1-0.1,1.6-0.2c0.5,0,1.1-0.1,1.6-0.1c0.5,0,1.1,0,1.6,0c0.5,0,1.1,0.1,1.6,0.1c0.5,0,1.1,0.1,1.6,0.2
							c0.5,0.1,1.1,0.2,1.6,0.3c0.3,0.1,0.5,0.1,0.8,0.2c0.3,0.1,0.5,0.2,0.8,0.3c0.3,0.1,0.4,0.5,0.3,0.8
							C63.6,143.5,63.5,143.6,63.3,143.6L63.3,143.6z"/>
						<path class="st78" d="M60.6,147.9c-0.2,0.2-0.5,0.4-0.7,0.5c-0.2,0.2-0.5,0.3-0.7,0.4c-0.3,0.1-0.5,0.3-0.8,0.4
							c-0.3,0.1-0.5,0.2-0.8,0.3c-1.1,0.4-2.1,0.7-3.3,1c-0.6,0.1-1.1,0.2-1.7,0.3c-0.3,0-0.6,0-0.9,0.1c-0.1,0-0.3,0-0.4,0l-0.4,0
							c-0.3,0-0.6,0-0.9,0c-0.3,0-0.6-0.1-0.9-0.1c-0.1,0-0.3,0-0.4-0.1c-0.1,0-0.3-0.1-0.4-0.1c-0.3-0.1-0.6-0.1-0.9-0.2
							c1.1-0.5,2.1-0.8,3.2-1.2c1.1-0.3,2.1-0.6,3.2-0.9c1.1-0.3,2.1-0.5,3.2-0.7c1.1-0.2,2.2-0.4,3.3-0.4l0,0
							c0.2,0,0.3,0.1,0.3,0.3C60.7,147.8,60.7,147.9,60.6,147.9z"/>
						<path class="st78" d="M55,131.6c0.5-0.3,1.1-0.4,1.7-0.6l0.4-0.1c0.1,0,0.3-0.1,0.4-0.1c0.3-0.1,0.6-0.1,0.9-0.1
							c1.1-0.2,2.3-0.2,3.5-0.2c1.2,0.1,2.3,0.2,3.5,0.6c0.1,0,0.3,0.1,0.4,0.1c0.1,0,0.3,0.1,0.4,0.1c0.1,0.1,0.3,0.1,0.4,0.2
							l0.4,0.2c0.1,0.1,0.3,0.1,0.4,0.2l0.2,0.1c0.1,0,0.1,0.1,0.2,0.1c0.3,0.2,0.5,0.3,0.7,0.5c0.1,0.1,0.1,0.2,0,0.3
							c0,0.1-0.1,0.1-0.2,0.1l0,0c-1.2-0.1-2.2-0.1-3.3-0.2l-3.3-0.1c-1.1,0-2.2-0.1-3.3-0.2c-1.1-0.1-2.2-0.2-3.4-0.4l0,0
							c-0.2,0-0.3-0.2-0.3-0.4C54.9,131.7,54.9,131.6,55,131.6z"/>
						<path class="st78" d="M62.3,122.4c0.4-0.2,0.8-0.3,1.3-0.4c0.4-0.1,0.8-0.2,1.3-0.2c0.8-0.1,1.7-0.1,2.5-0.1
							c0.4,0,0.8,0.1,1.3,0.1c0.4,0.1,0.8,0.1,1.3,0.3c0.4,0.1,0.8,0.3,1.2,0.4c0.2,0.1,0.4,0.2,0.6,0.3c0.2,0.1,0.4,0.2,0.6,0.4
							c0.1,0.1,0.1,0.2,0,0.3c0,0-0.1,0.1-0.1,0.1l0,0c-0.9,0.2-1.7,0.2-2.5,0.3c-0.8,0-1.6,0.1-2.4,0c-0.8,0-1.6-0.1-2.5-0.2
							c-0.8-0.1-1.6-0.3-2.5-0.6c-0.2-0.1-0.2-0.3-0.2-0.4C62.1,122.5,62.2,122.5,62.3,122.4z"/>
						<path class="st78" d="M70.5,125.6c0.3-0.1,0.6-0.2,1-0.2c0.3,0,0.6,0,0.9,0c0.3,0,0.6,0.1,0.9,0.2c0.3,0.1,0.6,0.3,0.8,0.5
							c0,0,0,0.1,0,0.1c0,0,0,0-0.1,0l0,0c-0.3,0.1-0.6,0.1-0.9,0.1c-0.3,0-0.6,0-0.9,0c-0.3,0-0.6-0.1-0.9-0.2
							c-0.3-0.1-0.6-0.2-0.9-0.4l0,0C70.4,125.8,70.4,125.7,70.5,125.6C70.4,125.6,70.4,125.6,70.5,125.6z"/>
						<path class="st78" d="M67.7,115.4c0.7-0.3,1.4-0.3,2.2-0.3c0.7,0,1.4,0.1,2.1,0.3c0.7,0.2,1.3,0.5,2,0.9
							c0.6,0.4,1.2,0.8,1.6,1.4c0.1,0.1,0,0.2,0,0.2c0,0-0.1,0-0.1,0l0,0c-0.4,0-0.7-0.1-1-0.2c-0.3-0.1-0.7-0.1-1-0.2
							c-0.6-0.2-1.3-0.3-1.9-0.5c-0.6-0.2-1.2-0.4-1.9-0.6c-0.6-0.2-1.3-0.4-1.9-0.7l0,0c-0.1-0.1-0.2-0.2-0.1-0.3
							C67.6,115.5,67.7,115.4,67.7,115.4z"/>
						<path class="st78" d="M73.1,119.3c0.1-0.1,0.3-0.1,0.4-0.1c0.1,0,0.3-0.1,0.4-0.1c0.3,0,0.5,0,0.7,0c0.5,0,0.9,0.2,1.4,0.4
							c0.4,0.2,0.8,0.4,1.2,0.8c0.2,0.2,0.3,0.3,0.5,0.5c0.1,0.2,0.3,0.4,0.4,0.6c0,0.1,0,0.2-0.1,0.3c0,0,0,0-0.1,0l0,0
							c-0.3,0-0.5,0-0.7,0c-0.2,0-0.5-0.1-0.7-0.1c-0.4-0.1-0.8-0.2-1.2-0.4c-0.4-0.2-0.7-0.3-1.1-0.5c-0.2-0.1-0.4-0.2-0.5-0.3
							c-0.2-0.1-0.4-0.3-0.5-0.4l-0.1-0.1C72.9,119.6,72.9,119.5,73.1,119.3C73,119.3,73.1,119.3,73.1,119.3z"/>
					</g>
					<g>
						<path class="st78" d="M112.2,110.2c-0.4-0.6-0.8-1.3-0.9-2c-0.3,0.1-0.7,0.3-1,0.5c-0.2,0.1-0.3,0.2-0.5,0.3
							c-0.2,0.1-0.3,0.2-0.5,0.3c-0.2,0.1-0.3,0.2-0.5,0.3c-0.2,0.1-0.3,0.2-0.5,0.4c-0.3,0.2-0.6,0.5-0.9,0.8
							c-0.3,0.3-0.5,0.6-0.8,0.9c-0.1,0.2-0.2,0.3-0.4,0.5c-0.1,0.2-0.2,0.4-0.3,0.6c0,0.1,0,0.1-0.1,0.2c0,0.4,0.2,0.7,0.6,0.7
							l0.4,0c0,0,0,0,0.1,0l0.1,0l0.1,0l0.3,0l0.5-0.1c0.4,0,0.7-0.1,1-0.1c0.3,0,0.7-0.1,1-0.2c0.2,0,0.3-0.1,0.5-0.1
							c0.2,0,0.3-0.1,0.5-0.1c0.2,0,0.3-0.1,0.5-0.1c0.2,0,0.3-0.1,0.5-0.1c0.3-0.1,0.6-0.2,1-0.3c0,0,0,0,0.1,0
							C112.6,112,112.3,111.1,112.2,110.2C112.2,110.2,112.2,110.2,112.2,110.2z"/>
						<path class="st78" d="M103.5,119.3c0.3-0.2,0.5-0.4,0.8-0.6c0.3-0.2,0.5-0.3,0.8-0.5c0.5-0.3,1.1-0.6,1.6-0.8
							c1.1-0.5,2.3-0.8,3.4-1.1c2.3-0.6,4.8-0.7,7.2-0.5c1.2,0.1,2.4,0.3,3.6,0.5c1.2,0.3,2.3,0.6,3.5,1.1c1.1,0.5,2.2,1,3.2,1.7
							l0.4,0.3c0.1,0.1,0.2,0.2,0.4,0.3c0.2,0.2,0.5,0.4,0.7,0.6c0.2,0.2,0.5,0.4,0.7,0.6c0.2,0.2,0.4,0.4,0.6,0.7
							c-0.3,0-0.6,0-0.9,0c-0.3,0-0.6-0.1-0.9-0.1c-0.3,0-0.6,0-0.9-0.1c-0.3,0-0.6,0-0.9-0.1c-0.6-0.1-1.1-0.1-1.7-0.1l-1.6-0.1
							c-0.3,0-0.5,0-0.8-0.1c-0.3,0-0.5,0-0.8,0c-0.5,0-1.1-0.1-1.6-0.1c-1.1,0-2.1-0.1-3.2-0.1c-2.1,0-4.2-0.1-6.4,0l-3.3,0
							c-0.6,0-1.1,0-1.7,0l-0.9,0c-0.3,0-0.6,0-0.9,0l-0.1,0c-0.4,0-0.7-0.4-0.6-0.8C103.3,119.6,103.4,119.4,103.5,119.3z"/>
						<path class="st78" d="M106.3,126.9c0.5-0.3,1-0.5,1.5-0.7c0.2-0.1,0.5-0.2,0.8-0.3c0.3-0.1,0.5-0.2,0.8-0.2
							c0.5-0.1,1-0.3,1.5-0.4c0.5-0.1,1-0.2,1.6-0.3c2.1-0.3,4.2-0.3,6.3,0c0.5,0.1,1,0.1,1.6,0.2c0.5,0.1,1,0.2,1.6,0.3
							c0.3,0.1,0.5,0.1,0.8,0.2c0.3,0.1,0.5,0.2,0.8,0.2c0.3,0.1,0.5,0.2,0.8,0.2c0.2,0.1,0.5,0.2,0.7,0.3c0.5,0.2,1,0.4,1.5,0.6
							c0.5,0.2,0.9,0.5,1.4,0.8c0.2,0.1,0.5,0.3,0.7,0.4c0.2,0.2,0.4,0.3,0.7,0.5c0.4,0.3,0.8,0.7,1.2,1.1c-2.2,0.1-4.2,0-6.2,0
							l-0.7,0c-0.2,0-0.5,0-0.7,0c-0.5,0-1-0.1-1.5-0.1c-0.5,0-1,0-1.5-0.1c-0.1,0-0.2,0-0.4,0l-0.4,0l-0.7,0
							c-1.9-0.1-3.9-0.3-5.8-0.5c-0.5,0-1-0.1-1.5-0.2c-0.5-0.1-1-0.1-1.5-0.2c-0.5-0.1-1-0.2-1.5-0.3c-0.5-0.1-1-0.2-1.5-0.3l0,0
							c-0.4-0.1-0.6-0.5-0.5-0.8C106.1,127.1,106.2,127,106.3,126.9z"/>
						<path class="st78" d="M109,136.6c0.5-0.3,1-0.6,1.5-0.8c0.5-0.2,1.1-0.4,1.6-0.6c1.1-0.3,2.2-0.6,3.3-0.8
							c2.2-0.3,4.5-0.4,6.7-0.1c2.2,0.2,4.4,0.8,6.5,1.6c1,0.4,2.1,0.9,3,1.5l0.4,0.2c0.1,0.1,0.2,0.1,0.4,0.2
							c0.2,0.2,0.5,0.3,0.7,0.5c0.2,0.2,0.5,0.3,0.7,0.5c0.2,0.2,0.4,0.4,0.6,0.6c-0.6,0-1.1,0-1.7-0.1c-0.6,0-1.1-0.1-1.6-0.1
							c-1.1-0.1-2.1-0.2-3.2-0.3l-3.1-0.2c-1-0.1-2-0.2-3.1-0.2l-3.1-0.2l-3.1-0.2c-1,0-2.1-0.1-3.1-0.2c-0.5,0-1.1-0.1-1.6-0.1
							c-0.5,0-1.1-0.1-1.6-0.1l0,0c-0.3,0-0.6-0.3-0.5-0.7C108.7,136.8,108.8,136.7,109,136.6z"/>
						<path class="st78" d="M111.5,142.5c0.3-0.1,0.5-0.2,0.8-0.3c0.3-0.1,0.5-0.2,0.8-0.2c0.5-0.1,1.1-0.2,1.6-0.3
							c0.5-0.1,1.1-0.2,1.6-0.2c0.5,0,1.1-0.1,1.6-0.1c0.5,0,1.1,0,1.6,0c0.5,0,1.1,0.1,1.6,0.1c0.5,0.1,1.1,0.1,1.6,0.2
							c0.5,0.1,1.1,0.2,1.6,0.3l0.8,0.2c0.3,0.1,0.5,0.1,0.8,0.2c0.5,0.1,1.1,0.3,1.6,0.5c0.5,0.2,1,0.4,1.6,0.6l0.4,0.1
							c0.1,0,0.3,0.1,0.4,0.2c0.3,0.1,0.5,0.2,0.8,0.3c0.5,0.2,1,0.5,1.5,0.7c0.5,0.3,1,0.6,1.4,0.9l0.3,0.2
							c0.1,0.1,0.2,0.1,0.3,0.2c0.2,0.2,0.4,0.3,0.7,0.5c0.4,0.3,0.9,0.7,1.3,1.1c-0.6,0-1.1-0.1-1.7-0.1c-0.3,0-0.5-0.1-0.8-0.1
							c-0.3,0-0.5-0.1-0.8-0.1c-0.5-0.1-1.1-0.1-1.6-0.2l-0.2,0l-0.2,0l-0.4,0c-0.3,0-0.5-0.1-0.8-0.1c-0.3,0-0.5-0.1-0.8-0.1
							c-0.3,0-0.5-0.1-0.8-0.1c-0.5-0.1-1-0.1-1.5-0.2c-0.5-0.1-1-0.1-1.5-0.2c-0.3,0-0.5-0.1-0.8-0.1l-0.8-0.1l-0.8-0.1l-0.4-0.1
							l-0.4-0.1c-0.5-0.1-1-0.2-1.5-0.3c-0.5-0.1-1-0.2-1.5-0.3c-0.5-0.1-1-0.2-1.5-0.3c-0.3-0.1-0.5-0.1-0.8-0.1
							c-0.3,0-0.5-0.1-0.8-0.1l-0.8-0.2l-0.8-0.2c-0.5-0.1-1-0.2-1.6-0.3c-0.5-0.1-1-0.3-1.6-0.4l0,0c-0.3-0.1-0.5-0.4-0.4-0.7
							C111.2,142.7,111.3,142.6,111.5,142.5z"/>
						<path class="st78" d="M114.4,147.4c1.2,0,2.2,0.2,3.3,0.4c1.1,0.2,2.1,0.4,3.2,0.7c1.1,0.3,2.1,0.5,3.2,0.9
							c1.1,0.3,2.1,0.7,3.2,1.2c-0.3,0.1-0.6,0.2-0.9,0.2c-0.1,0-0.3,0.1-0.4,0.1c-0.1,0-0.3,0-0.4,0.1c-0.3,0-0.6,0.1-0.9,0.1
							c-0.3,0-0.6,0-0.9,0l-0.4,0c-0.1,0-0.3,0-0.4,0c-0.3,0-0.6,0-0.9-0.1c-0.6-0.1-1.1-0.1-1.7-0.3c-1.1-0.2-2.2-0.5-3.3-1
							c-0.3-0.1-0.5-0.2-0.8-0.3c-0.3-0.1-0.5-0.3-0.8-0.4c-0.3-0.1-0.5-0.3-0.7-0.4c-0.2-0.2-0.5-0.3-0.7-0.5
							c-0.1-0.1-0.2-0.3,0-0.4C114.2,147.4,114.3,147.4,114.4,147.4L114.4,147.4z"/>
						<path class="st78" d="M119.7,132.2c-1.1,0.2-2.3,0.3-3.4,0.4c-1.1,0.1-2.2,0.1-3.3,0.2l-3.3,0.1c-1.1,0-2.2,0.1-3.3,0.2l0,0
							c-0.1,0-0.2-0.1-0.2-0.2c0-0.1,0-0.1,0.1-0.2c0.2-0.2,0.5-0.4,0.7-0.5c0.1,0,0.1-0.1,0.2-0.1l0.2-0.1c0.1-0.1,0.3-0.1,0.4-0.2
							l0.4-0.2c0.1-0.1,0.3-0.1,0.4-0.2c0.1-0.1,0.3-0.1,0.4-0.1c0.1,0,0.3-0.1,0.4-0.1c1.1-0.3,2.3-0.5,3.5-0.6
							c1.2-0.1,2.3,0,3.5,0.2c0.3,0,0.6,0.1,0.9,0.1c0.1,0,0.3,0.1,0.4,0.1l0.4,0.1c0.6,0.1,1.1,0.3,1.7,0.6
							c0.2,0.1,0.2,0.3,0.2,0.4C119.9,132.1,119.8,132.1,119.7,132.2L119.7,132.2z"/>
						<path class="st78" d="M112.6,123c-0.8,0.3-1.7,0.5-2.5,0.6c-0.8,0.1-1.6,0.2-2.5,0.2c-0.8,0-1.6,0-2.4,0
							c-0.8-0.1-1.6-0.1-2.5-0.3l0,0c-0.1,0-0.2-0.1-0.2-0.3c0-0.1,0-0.1,0.1-0.1c0.2-0.1,0.4-0.3,0.6-0.4c0.2-0.1,0.4-0.2,0.6-0.3
							c0.4-0.2,0.8-0.3,1.2-0.4c0.4-0.1,0.8-0.2,1.3-0.3c0.4-0.1,0.8-0.1,1.3-0.1c0.8,0,1.7,0,2.5,0.1c0.4,0.1,0.8,0.1,1.3,0.2
							c0.4,0.1,0.8,0.2,1.3,0.4c0.2,0.1,0.2,0.3,0.2,0.4C112.7,123,112.6,123,112.6,123z"/>
						<path class="st78" d="M104.4,125.9c-0.3,0.2-0.6,0.3-0.9,0.4c-0.3,0.1-0.6,0.1-0.9,0.2c-0.3,0-0.6,0.1-0.9,0
							c-0.3,0-0.6,0-0.9-0.1l0,0c-0.1,0-0.1-0.1-0.1-0.1c0,0,0,0,0-0.1c0.2-0.3,0.5-0.4,0.8-0.5c0.3-0.1,0.6-0.2,0.9-0.2
							c0.3,0,0.6-0.1,0.9,0c0.3,0,0.6,0.1,1,0.2C104.4,125.6,104.5,125.7,104.4,125.9C104.4,125.8,104.4,125.9,104.4,125.9
							L104.4,125.9z"/>
						<path class="st78" d="M107.1,115.9c-0.6,0.3-1.3,0.5-1.9,0.7c-0.6,0.2-1.2,0.4-1.9,0.6c-0.6,0.2-1.3,0.3-1.9,0.5
							c-0.3,0.1-0.6,0.2-1,0.2c-0.3,0.1-0.7,0.1-1,0.2l0,0c-0.1,0-0.2-0.1-0.2-0.2c0,0,0-0.1,0-0.1c0.5-0.6,1-1,1.6-1.4
							c0.6-0.4,1.3-0.7,2-0.9c0.7-0.2,1.4-0.3,2.1-0.3c0.7,0,1.4,0,2.2,0.3c0.1,0.1,0.2,0.2,0.1,0.3
							C107.2,115.8,107.2,115.8,107.1,115.9L107.1,115.9z"/>
						<path class="st78" d="M101.8,119.8c-0.2,0.2-0.4,0.3-0.5,0.4c-0.2,0.1-0.4,0.2-0.5,0.3c-0.4,0.2-0.7,0.4-1.1,0.5
							c-0.4,0.2-0.8,0.3-1.2,0.4c-0.2,0.1-0.4,0.1-0.7,0.1c-0.2,0-0.5,0.1-0.7,0l0,0c-0.1,0-0.2-0.1-0.2-0.2c0,0,0,0,0-0.1
							c0.1-0.2,0.3-0.4,0.4-0.6c0.2-0.2,0.3-0.4,0.5-0.5c0.4-0.3,0.7-0.6,1.2-0.8c0.4-0.2,0.9-0.3,1.4-0.4c0.2,0,0.5,0,0.7,0
							c0.1,0,0.3,0,0.4,0.1c0.1,0,0.2,0.1,0.4,0.1c0.1,0.1,0.2,0.2,0.1,0.3C101.9,119.7,101.8,119.7,101.8,119.8L101.8,119.8z"/>
					</g>
				</g>
				<g>
					<path class="st78" d="M44.5,59.5c-0.5,0.9-1,1.8-1.4,2.7c-0.4,0.9-0.9,1.7-1.3,2.6c-0.4,0.8-0.8,1.7-1.2,2.5
						c-0.4,0.8-0.7,1.7-1.1,2.5c-0.4,0.8-0.7,1.7-1.1,2.6l-1,2.6c-0.4,0.9-0.7,1.8-1.1,2.6c-0.1,0.2-0.2,0.4-0.3,0.7
						c-0.1,0.2-0.2,0.4-0.3,0.7c-0.2,0.5-0.4,0.9-0.7,1.4l0,0c-0.2,0.3-0.5,0.4-0.8,0.2c-0.2-0.1-0.3-0.2-0.3-0.4
						c-0.1-0.5-0.2-1-0.2-1.5c0-0.5-0.1-1-0.1-1.5c0-0.5,0-1,0.1-1.5c0-0.3,0-0.5,0.1-0.8c0-0.3,0.1-0.5,0.1-0.8c0.2-1,0.4-2,0.7-3
						c0.3-1,0.7-2,1.2-2.9c0.5-0.9,1-1.8,1.6-2.7c0.6-0.9,1.2-1.7,2-2.4c0.7-0.8,1.5-1.4,2.4-2c0.4-0.3,0.9-0.6,1.4-0.8
						C43.5,59.9,44,59.7,44.5,59.5z"/>
					<path class="st78" d="M43.4,75.1c-0.1,1-0.2,2-0.4,2.9c-0.1,0.9-0.3,1.9-0.4,2.8c-0.3,1.8-0.6,3.6-0.8,5.3
						c-0.2,1.8-0.5,3.5-0.6,5.3l0,0.3l0,0.3l-0.1,0.7c0,0.2,0,0.4-0.1,0.7c0,0.1,0,0.2,0,0.3c0,0.1,0,0.2,0,0.3
						c-0.1,0.9-0.1,1.8-0.3,2.8l0,0c-0.1,0.3-0.4,0.6-0.7,0.5c-0.2,0-0.3-0.1-0.4-0.3c-0.1-0.2-0.3-0.4-0.4-0.7L39,96.1
						c-0.1-0.1-0.1-0.2-0.2-0.3c-0.1-0.2-0.2-0.5-0.3-0.7c-0.1-0.2-0.2-0.5-0.3-0.7c-0.2-0.5-0.3-1-0.4-1.5
						c-0.1-0.2-0.1-0.5-0.1-0.7l-0.1-0.4c0-0.1,0-0.3,0-0.4c-0.3-2-0.2-4,0.2-6c0.4-2,1-3.9,2-5.6c0.5-0.9,1-1.7,1.6-2.5
						c0.3-0.4,0.6-0.8,1-1.1C42.7,75.7,43,75.4,43.4,75.1z"/>
					<path class="st78" d="M44.5,89.3c0.2,0.4,0.4,0.7,0.5,1.1c0.2,0.4,0.3,0.7,0.4,1c0.3,0.7,0.5,1.4,0.7,2.1
						c0.4,1.4,0.6,2.8,0.8,4.1c0.2,1.4,0.3,2.7,0.3,4.1c0,0.7,0,1.4-0.1,2.1c0,0.4-0.1,0.7-0.1,1.1c0,0.4-0.1,0.7-0.2,1.1l0,0
						c-0.1,0.3-0.4,0.5-0.8,0.5c-0.1,0-0.2-0.1-0.3-0.2c-0.3-0.3-0.5-0.6-0.7-0.9c-0.2-0.3-0.4-0.7-0.6-1c-0.4-0.7-0.6-1.4-0.8-2.1
						c-0.4-1.4-0.7-2.9-0.8-4.3c-0.1-1.5,0-2.9,0.2-4.4c0.1-0.7,0.3-1.5,0.5-2.2c0.1-0.4,0.2-0.7,0.4-1.1
						C44.1,90,44.3,89.7,44.5,89.3z"/>
					<path class="st78" d="M44.7,67.7c-0.2,0.7-0.5,1.4-0.8,2c-0.3,0.6-0.6,1.2-0.9,1.8c-0.2,0.3-0.3,0.6-0.5,0.9
						c-0.2,0.3-0.3,0.6-0.5,0.9c-0.4,0.6-0.7,1.1-1.2,1.7l0,0c-0.1,0.1-0.3,0.1-0.4,0c0,0-0.1-0.1-0.1-0.2c0-0.2-0.1-0.4-0.1-0.6
						c0-0.1,0-0.2,0-0.3c0-0.1,0-0.2,0-0.3c0-0.2,0-0.4,0.1-0.6c0-0.2,0.1-0.4,0.1-0.5c0.1-0.4,0.2-0.7,0.3-1.1
						c0.1-0.3,0.3-0.7,0.5-1c0.4-0.6,0.8-1.2,1.3-1.8c0.5-0.5,1.1-1,1.8-1.3c0.1-0.1,0.3,0,0.3,0.1C44.7,67.5,44.7,67.6,44.7,67.7
						L44.7,67.7z"/>
					<path class="st78" d="M45.2,83.5c0,0.5,0,0.9-0.1,1.3C45,85.2,45,85.6,44.9,86c-0.1,0.4-0.2,0.8-0.3,1.2
						c-0.1,0.2-0.1,0.4-0.2,0.6c-0.1,0.2-0.2,0.4-0.3,0.6l0,0c-0.1,0.1-0.2,0.1-0.3,0.1c0,0-0.1,0-0.1-0.1c-0.1-0.2-0.2-0.4-0.2-0.7
						c0-0.2-0.1-0.5-0.1-0.7c0-0.5,0-0.9,0.1-1.4c0.1-0.4,0.3-0.9,0.5-1.3c0.1-0.2,0.3-0.4,0.4-0.6c0.2-0.2,0.3-0.3,0.6-0.5
						c0.1,0,0.2,0,0.2,0.1C45.2,83.4,45.2,83.5,45.2,83.5L45.2,83.5z"/>
					<path class="st78" d="M48.5,48.1c-0.2,0.3-0.5,0.6-0.7,0.9l-0.3,0.4c-0.1,0.1-0.2,0.3-0.3,0.4l-0.7,0.9l-0.7,0.8
						c-0.9,1.1-1.8,2.2-2.7,3.2l-0.7,0.8L42.1,56l-0.3,0.4c-0.2,0.3-0.5,0.5-0.7,0.8c-0.2,0.3-0.5,0.5-0.7,0.8c-0.5,0.5-1,1-1.5,1.5
						c-0.5,0.5-1,1-1.6,1.5l0,0c-0.2,0.1-0.5,0.1-0.6-0.1c-0.1-0.1-0.1-0.2-0.1-0.4c0.1-0.4,0.2-0.8,0.3-1.1
						c0.1-0.4,0.2-0.7,0.4-1.1c0.1-0.3,0.3-0.7,0.5-1c0.1-0.2,0.2-0.3,0.3-0.5c0.1-0.2,0.2-0.3,0.3-0.5c0.2-0.3,0.4-0.6,0.6-1
						c0.2-0.3,0.4-0.6,0.7-0.9c0.1-0.2,0.2-0.3,0.3-0.5l0.4-0.4c0.2-0.3,0.5-0.6,0.8-0.8c1-1.1,2.2-2.1,3.5-2.9
						c0.2-0.1,0.3-0.2,0.5-0.3c0.2-0.1,0.3-0.2,0.5-0.3c0.3-0.2,0.7-0.3,1-0.5c0.4-0.1,0.7-0.3,1.1-0.4
						C47.7,48.2,48.1,48.1,48.5,48.1z"/>
					<path class="st78" d="M46.7,56.1c-0.3,0.4-0.6,0.7-0.9,1c-0.3,0.3-0.6,0.6-1,0.8c-0.3,0.3-0.7,0.5-1,0.7
						c-0.4,0.2-0.7,0.4-1.1,0.6l0,0c-0.1,0-0.2,0-0.3-0.1c0,0,0-0.1,0-0.1c0.1-0.5,0.3-1,0.6-1.3c0.3-0.4,0.6-0.7,1-1
						c0.4-0.3,0.8-0.5,1.2-0.7c0.4-0.2,0.9-0.3,1.4-0.3c0.1,0,0.2,0.1,0.2,0.2C46.7,56,46.7,56,46.7,56.1L46.7,56.1z"/>
					<path class="st78" d="M50.5,44.2c-0.3,0.5-0.6,0.8-0.9,1.1c-0.3,0.3-0.7,0.6-1.1,0.9c-0.4,0.3-0.8,0.5-1.2,0.7
						c-0.4,0.2-0.8,0.4-1.3,0.6l0,0c-0.1,0-0.2,0-0.2-0.1c0,0,0-0.1,0-0.1c0.2-0.5,0.5-0.9,0.8-1.3c0.3-0.4,0.7-0.7,1.1-1
						c0.4-0.3,0.8-0.5,1.3-0.7c0.5-0.2,0.9-0.4,1.5-0.4c0.1,0,0.2,0.1,0.2,0.2C50.5,44.2,50.5,44.2,50.5,44.2L50.5,44.2z"/>
				</g>
				<g>
					<path class="st78" d="M127.6,59.5c0.5,0.1,1,0.3,1.5,0.6c0.5,0.2,0.9,0.5,1.4,0.8c0.9,0.6,1.7,1.3,2.5,2
						c1.5,1.5,2.7,3.3,3.7,5.1c0.9,1.9,1.6,3.9,2,6c0,0.3,0.1,0.5,0.1,0.8c0,0.3,0.1,0.5,0.1,0.8c0.1,0.5,0.1,1,0.1,1.6
						c0,0.5,0,1-0.1,1.6c0,0.5-0.1,1-0.2,1.6c-0.1,0.3-0.4,0.5-0.7,0.5c-0.2,0-0.3-0.1-0.4-0.3l0,0c-0.3-0.5-0.5-0.9-0.7-1.4
						c-0.1-0.2-0.2-0.5-0.3-0.7c-0.1-0.2-0.2-0.5-0.3-0.7l-0.6-1.3l-0.6-1.3l-1.1-2.6c-0.4-0.9-0.7-1.7-1.1-2.6
						c-0.8-1.7-1.6-3.4-2.4-5.1c-0.4-0.8-0.9-1.7-1.4-2.6C128.6,61.3,128.1,60.4,127.6,59.5z"/>
					<path class="st78" d="M128.6,75.1c0.4,0.3,0.8,0.7,1.1,1.1c0.3,0.4,0.7,0.8,1,1.2c0.6,0.8,1.1,1.7,1.6,2.7
						c0.5,0.9,0.9,1.9,1.2,2.9c0.3,1,0.6,2,0.8,3c0.2,1,0.3,2.1,0.4,3.1l0,0.4l0,0.4c0,0.3,0,0.5,0,0.8c0,0.5-0.1,1-0.1,1.6
						c-0.1,0.5-0.2,1-0.3,1.6c-0.1,0.3-0.1,0.5-0.2,0.8c-0.1,0.3-0.1,0.5-0.2,0.8c-0.1,0.3-0.2,0.5-0.3,0.7
						c-0.1,0.2-0.2,0.5-0.3,0.7c-0.1,0.1-0.1,0.2-0.2,0.4l-0.2,0.4c-0.1,0.2-0.3,0.5-0.4,0.7c-0.2,0.3-0.6,0.3-0.8,0.2
						c-0.1-0.1-0.2-0.2-0.3-0.4l0,0c-0.1-1-0.2-2-0.3-2.9c0-0.2,0-0.5-0.1-0.7l-0.1-0.7c-0.1-0.5-0.1-0.9-0.1-1.4
						c0-0.5-0.1-0.9-0.1-1.4c-0.1-0.5-0.1-0.9-0.2-1.4c-0.1-0.9-0.2-1.8-0.4-2.8c-0.2-1.8-0.5-3.7-0.8-5.6c-0.1-1-0.3-1.9-0.4-2.9
						C128.9,77.1,128.7,76.1,128.6,75.1z"/>
					<path class="st78" d="M127.6,89.3c0.2,0.4,0.4,0.7,0.5,1.1c0.1,0.4,0.3,0.7,0.4,1.1c0.2,0.7,0.4,1.5,0.5,2.2
						c0.2,1.5,0.2,2.9,0.1,4.4c-0.1,1.5-0.4,2.9-0.8,4.3c-0.2,0.7-0.5,1.4-0.9,2.1c-0.2,0.3-0.4,0.7-0.6,1c-0.2,0.3-0.4,0.6-0.7,1
						c-0.2,0.3-0.6,0.3-0.9,0.1c-0.1-0.1-0.2-0.2-0.2-0.3l0,0c-0.1-0.4-0.2-0.8-0.2-1.1c0-0.4-0.1-0.7-0.1-1.1
						c0-0.7-0.1-1.4-0.1-2.1c0-1.4,0.1-2.8,0.3-4.2c0.2-1.4,0.5-2.8,0.9-4.2c0.2-0.7,0.4-1.4,0.7-2.1c0.1-0.3,0.3-0.7,0.5-1
						C127.2,90,127.4,89.7,127.6,89.3z"/>
					<path class="st78" d="M127.7,67.4c0.7,0.3,1.3,0.8,1.8,1.3c0.5,0.5,1,1.1,1.3,1.8c0.2,0.3,0.3,0.7,0.5,1
						c0.1,0.4,0.2,0.7,0.3,1.1c0,0.2,0.1,0.4,0.1,0.5c0,0.2,0,0.4,0.1,0.6c0,0.1,0,0.2,0,0.3c0,0.1,0,0.2,0,0.3c0,0.2,0,0.4-0.1,0.6
						c0,0.1-0.2,0.2-0.3,0.2c-0.1,0-0.1,0-0.2-0.1l0,0c-0.5-0.6-0.8-1.2-1.2-1.7c-0.2-0.3-0.4-0.6-0.5-0.9c-0.2-0.3-0.3-0.6-0.5-0.9
						c-0.3-0.6-0.6-1.2-0.9-1.8c-0.3-0.6-0.6-1.3-0.8-2l0,0c0-0.1,0-0.3,0.2-0.3C127.6,67.3,127.7,67.3,127.7,67.4z"/>
					<path class="st78" d="M127.2,83.3c0.2,0.1,0.4,0.3,0.6,0.5c0.2,0.2,0.3,0.4,0.4,0.6c0.2,0.4,0.4,0.8,0.5,1.3
						c0.1,0.4,0.1,0.9,0.1,1.4c0,0.2,0,0.5-0.1,0.7c-0.1,0.2-0.1,0.5-0.2,0.7c0,0.1-0.2,0.1-0.3,0.1c0,0-0.1,0-0.1-0.1l0,0
						c-0.1-0.2-0.2-0.4-0.3-0.6c-0.1-0.2-0.2-0.4-0.2-0.6c-0.1-0.4-0.2-0.8-0.3-1.2c-0.1-0.4-0.2-0.8-0.2-1.2
						c-0.1-0.4-0.1-0.8-0.1-1.3l0,0C126.9,83.4,127,83.3,127.2,83.3C127.1,83.3,127.1,83.3,127.2,83.3z"/>
					<path class="st78" d="M123.6,48.1c0.4,0,0.8,0.1,1.2,0.2c0.2,0.1,0.4,0.1,0.6,0.2c0.2,0.1,0.4,0.1,0.6,0.2
						c0.2,0.1,0.4,0.2,0.6,0.2c0.2,0.1,0.4,0.2,0.5,0.3c0.2,0.1,0.4,0.2,0.5,0.3c0.2,0.1,0.3,0.2,0.5,0.3c1.4,0.9,2.6,1.9,3.7,3.1
						c0.3,0.3,0.5,0.6,0.8,0.9c0.1,0.2,0.3,0.3,0.4,0.5c0.1,0.2,0.2,0.3,0.4,0.5c0.2,0.3,0.5,0.7,0.7,1c0.2,0.3,0.4,0.7,0.6,1.1
						c0.1,0.2,0.2,0.4,0.3,0.5c0.1,0.2,0.2,0.4,0.2,0.6c0.2,0.4,0.3,0.7,0.5,1.1c0.1,0.4,0.2,0.8,0.4,1.2c0.1,0.4,0.2,0.8,0.3,1.2
						c0,0.2-0.1,0.5-0.4,0.5c-0.1,0-0.3,0-0.4-0.1l0,0c-0.6-0.5-1.1-1.1-1.6-1.7c-0.3-0.3-0.5-0.6-0.8-0.9l-0.4-0.4
						c-0.1-0.1-0.3-0.3-0.4-0.4c-0.2-0.3-0.5-0.6-0.7-0.9c-0.2-0.3-0.5-0.6-0.7-0.8c-0.1-0.1-0.2-0.3-0.3-0.4l-0.4-0.4l-0.4-0.4
						c-0.1-0.1-0.2-0.3-0.3-0.4l-2.9-3.4L123.6,48.1z"/>
					<path class="st78" d="M125.6,55.8c0.5,0,1,0.1,1.4,0.3c0.4,0.2,0.8,0.4,1.2,0.7c0.4,0.3,0.7,0.6,1,1c0.3,0.4,0.5,0.8,0.6,1.3
						c0,0.1-0.1,0.2-0.2,0.2c0,0-0.1,0-0.1,0l0,0c-0.4-0.2-0.8-0.4-1.1-0.6c-0.3-0.2-0.7-0.4-1-0.7c-0.3-0.3-0.7-0.5-1-0.8
						c-0.3-0.3-0.6-0.6-0.9-1l0,0C125.4,56,125.4,55.9,125.6,55.8C125.5,55.8,125.5,55.8,125.6,55.8z"/>
					<path class="st78" d="M121.8,44c0.5,0,1,0.2,1.5,0.4c0.4,0.2,0.9,0.4,1.3,0.7c0.4,0.3,0.8,0.6,1.1,1c0.3,0.4,0.6,0.8,0.8,1.3
						c0,0.1,0,0.2-0.1,0.2c0,0-0.1,0-0.1,0l0,0c-0.5-0.2-0.9-0.4-1.3-0.6c-0.4-0.2-0.8-0.5-1.2-0.7c-0.4-0.3-0.7-0.6-1.1-0.9
						c-0.3-0.3-0.7-0.7-0.9-1.1l0,0c-0.1-0.1,0-0.2,0.1-0.2C121.7,44,121.7,44,121.8,44z"/>
				</g>
			</g>
		</g>
		<path class="st117" d="M65.5,103.4l-1.6,3.9c0,0,6.6,5.1,11.5,5.7c0,0,0-0.9-0.3-1.7c0,0,3.2,3.8,7.2,4.3c0,0,0.5-0.4,0.6-0.8
			c0,0,1.9,2.3,2.7,2.3c0.8,0,2.7-1.6,2.9-2.2c0,0,0.7,0.9,1.1,0.9c0.4,0,4.8-1.6,7.1-4.2c0,0,0.3,0.7,0.6,0.7
			c0.3,0,6.1,0.7,10.7-4.9l5.3,5.5l-2.4-5.8l-3.6-4.1c0,0-3.4,4-6.2,5.9l-3.5,1.9l0.6-2.6l-3.8,3.5c0,0-3.9,2.5-4.7,2.6
			c0,0-0.6-0.9-0.8-2.1c0,0-2.6,3.3-3.3,3.6c0,0-2.4-2.1-2.9-3.9c0,0-0.5,1.7-1,2.2c0,0-3.2-1.7-4.9-3.3s-3.6-3.7-3.6-3.7l0.8,3
			c0,0-2.2-1-4.6-3.1C66.9,105,65.5,103.4,65.5,103.4z"/>
		<path class="st118" d="M35.3,79.7C35.3,79.7,35.3,79.8,35.3,79.7C35.3,79.8,35.3,79.9,35.3,79.7z"/>
		<path class="st117" d="M47,40.6c0,0,6.8-3.4,13.7-2.6l-4.5,1.3L47,40.6"/>
		<path class="st117" d="M57.9,32.8c0,0,4.3-2.3,14.9,1.1c-0.4-0.1-7.3-0.2-7.3-0.2S61.1,32.3,57.9,32.8"/>
		<path class="st117" d="M34.6,78.5c0,0,1-6.9,6.4-9.6l-1.9,3.9l-1.1,0.8l-3.1,4.8L34.6,78.5"/>
		<path class="st117" d="M37.7,59.5c0,0,2.9-6.8,11.4-8.1c0,0-2.6,1.6-3.8,2.8l-1.2,0.2l-3.7,2.7L37.7,59.5z"/>
		<path class="st117" d="M40.4,95.9c0.1,0.2-2.5-8,3.3-13.2l0,0.1c-0.4,1.1-0.7,2.3-0.9,3.4l0,0L40.4,95.9"/>
		<path class="st117" d="M46.6,104.6c0,0-1.3-6.5,0.4-10.1l0.6,2.3L46.6,104.6z"/>
		<path class="st117" d="M61.4,105.3c-1.9,2.1-6,4.3-6,4.3l-0.4-0.1c0,0,3.1-2.5,5.4-5c2.1-2.3,3.3-4.2,3.3-4.2
			c0.6,1.4,0.9,1.6,0.9,1.6L61.4,105.3z"/>
		<path class="st117" d="M67.2,27.1c0,0,7.4-2.3,15.7,4.5c-0.5,0-4.4-1.1-4.4-1.1s-3.8-1.7-5.2-2.1c-1.5-0.4-6.4-1.1-6.4-1.1
			L67.2,27.1z"/>
		<g>
			<path class="st117" d="M131.3,98.4c-0.1,0.2,3-7.8-2.3-13.4l0,0.1c0.3,1.1,0.6,2.3,0.7,3.5l0,0L131.3,98.4"/>
			<path class="st117" d="M124.7,106.5c0,0,1.7-6.4,0.3-10.1l-0.8,2.2L124.7,106.5z"/>
			<path class="st117" d="M110.2,106.6c1.8,2.1,5.8,4.5,5.8,4.5l0.4-0.1c0,0-3-2.6-5.2-5.2c-2-2.4-3.2-4.3-3.2-4.3
				c-0.7,1.3-1,1.5-1,1.5L110.2,106.6z"/>
			<path class="st117" d="M108.4,28.4c0,0-7.2-2.8-16,3.4c0.5,0,4.5-0.8,4.5-0.8s3.9-1.5,5.3-1.8c1.6-0.3,6.4-0.6,6.4-0.6
				L108.4,28.4z"/>
			<path class="st117" d="M127.8,42.8c0,0-6.6-3.8-13.5-3.5l4.4,1.6L127.8,42.8"/>
			<path class="st117" d="M117.3,34.4c0,0-4.1-2.6-14.9,0.1c0.4-0.1,7.3,0.3,7.3,0.3S114.1,33.6,117.3,34.4"/>
			<path class="st117" d="M138.2,81c0,0-0.5-6.9-5.7-10l1.6,4l1.1,0.9l2.8,5L138.2,81"/>
			<path class="st117" d="M135.8,61.8c0,0-2.5-7-10.8-8.9c0,0,2.5,1.7,3.6,3l1.2,0.3l3.6,2.9L135.8,61.8z"/>
		</g>
		<g>
			<path class="st26" d="M87.7,29.7c-1.5-1-3.2-1.9-4.9-2.5c-1.7-0.7-3.5-1.2-5.3-1.4c-0.9-0.2-1.8-0.2-2.7-0.2
				c-0.9,0.1-1.8,0.1-2.7,0.3c-1.8,0.2-3.5,0.9-5.3,1.6l0,0c-0.1,0-0.2,0-0.2-0.1c0-0.1,0-0.2,0.1-0.2c1.7-0.9,3.4-1.7,5.3-2
				c0.5-0.1,0.9-0.2,1.4-0.2c0.5,0,0.9-0.1,1.4-0.1c1,0,1.9,0,2.9,0.2c1.9,0.3,3.7,0.8,5.5,1.5c1.7,0.8,3.4,1.7,4.8,2.9
				c0.1,0.1,0.1,0.2,0,0.2C87.9,29.7,87.8,29.7,87.7,29.7L87.7,29.7z"/>
		</g>
		<g>
			<path class="st26" d="M66.7,27.1c1.1-0.1,2.2,0,3.3,0.1c1.1,0.1,2.2,0.4,3.2,0.7c1,0.3,2.1,0.7,3.1,1.1c1,0.4,2,1,2.9,1.6
				c0.1,0.1,0.1,0.2,0.1,0.3c0,0.1-0.1,0.1-0.2,0.1l0,0c-1-0.4-2-0.9-3-1.2c-1-0.4-2-0.7-3-1c-1-0.3-2.1-0.5-3.1-0.8
				c-1-0.2-2.1-0.4-3.2-0.5l0,0c-0.1,0-0.2-0.1-0.2-0.2C66.5,27.2,66.6,27.1,66.7,27.1z"/>
		</g>
		<g>
			<path class="st26" d="M79,30.9c-1.8-0.2-3.7-0.3-5.5-0.4c-1.8-0.1-3.7-0.1-5.5,0c-1.8,0.1-3.6,0.3-5.4,0.6c-1.8,0.4-3.5,1-5,2.1
				c-0.1,0.1-0.2,0-0.3,0c-0.1-0.1,0-0.2,0-0.2c1.4-1.3,3.2-2,5-2.5c1.8-0.5,3.7-0.7,5.6-0.8c1.9-0.1,3.7,0,5.6,0.1
				c1.9,0.2,3.7,0.4,5.5,0.8c0.1,0,0.1,0.1,0.1,0.2C79.2,30.9,79.1,30.9,79,30.9z"/>
		</g>
		<g>
			<path class="st26" d="M57.5,32.8c1.4-0.4,2.8-0.4,4.1-0.4c1.4,0.1,2.8,0.3,4.1,0.9c0.1,0,0.1,0.1,0.1,0.2c0,0.1-0.1,0.1-0.2,0.1
				l0,0c-0.7-0.1-1.3-0.2-2-0.3c-0.7-0.1-1.3-0.1-2-0.2c-1.3-0.1-2.7-0.1-4-0.1l0,0c-0.1,0-0.2-0.1-0.2-0.2
				C57.4,32.9,57.4,32.8,57.5,32.8z"/>
		</g>
		<g>
			<path class="st26" d="M65.7,33.7c-1.7,0.1-3.4,0.4-5.1,0.8c-1.7,0.4-3.3,0.9-4.9,1.6c-1.6,0.6-3.2,1.4-4.7,2.2
				c-1.5,0.8-3,1.8-4.4,2.7l0,0c-0.1,0.1-0.2,0-0.3-0.1c-0.1-0.1,0-0.2,0-0.2c0.7-0.6,1.4-1.1,2.1-1.6c0.7-0.5,1.5-1,2.2-1.4
				c1.5-0.9,3.1-1.7,4.8-2.3c1.7-0.6,3.4-1.1,5.1-1.5c1.7-0.3,3.5-0.6,5.3-0.5c0.1,0,0.2,0.1,0.2,0.2C65.8,33.6,65.8,33.7,65.7,33.7
				L65.7,33.7z"/>
		</g>
		<g>
			<path class="st26" d="M46.3,40.8c1.6-0.7,3.3-1.1,4.9-1.4c0.8-0.1,1.7-0.3,2.6-0.3c0.9-0.1,1.7-0.1,2.6,0c0.1,0,0.2,0.1,0.2,0.2
				c0,0.1-0.1,0.2-0.2,0.2c-1.7,0.2-3.3,0.4-5,0.7c-1.7,0.3-3.3,0.7-5,0.9c-0.1,0-0.2,0-0.2-0.1C46.2,40.9,46.2,40.8,46.3,40.8z"/>
		</g>
		<g>
			<path class="st26" d="M56.4,39.4c-2.3,0.8-4.5,1.9-6.5,3.3c-2,1.3-3.9,2.9-5.4,4.8c-1.5,1.9-2.8,4-3.9,6.1
				c-1.1,2.2-2.2,4.4-3,6.7l0,0c0,0.1-0.1,0.1-0.2,0.1c-0.1,0-0.1-0.1-0.1-0.2c0.7-2.4,1.7-4.6,2.8-6.9c1.1-2.2,2.4-4.3,3.9-6.3
				c0.8-1,1.7-1.9,2.6-2.7c0.9-0.8,2-1.6,3-2.2c2.1-1.3,4.4-2.3,6.8-3c0.1,0,0.2,0,0.2,0.1C56.6,39.3,56.5,39.4,56.4,39.4L56.4,39.4
				z"/>
		</g>
		<g>
			<path class="st26" d="M37.3,60.1c1-1.5,2.3-2.8,3.7-4c0.7-0.6,1.5-1.1,2.3-1.6c0.8-0.5,1.6-0.9,2.5-1.1c0.1,0,0.2,0,0.2,0.1
				c0,0.1,0,0.2-0.1,0.2l0,0c-1.6,0.8-3,1.8-4.4,3c-1.4,1.1-2.7,2.3-4,3.6l0,0c-0.1,0.1-0.2,0.1-0.2,0
				C37.2,60.2,37.2,60.1,37.3,60.1z"/>
		</g>
		<g>
			<path class="st26" d="M46,53.7c-0.9,0.8-1.7,1.7-2.5,2.6c-0.8,0.9-1.6,1.8-2.3,2.7c-1.4,1.9-2.7,3.9-3.6,6.1
				c-0.9,2.2-1.5,4.5-2,6.8c-0.4,2.3-0.7,4.7-0.8,7.1l0,0c0,0.1-0.1,0.2-0.2,0.2c-0.1,0-0.2-0.1-0.2-0.2c-0.1-2.4,0.1-4.8,0.5-7.2
				c0.4-2.4,1-4.7,1.9-7c1-2.2,2.3-4.3,3.8-6.2c1.5-1.9,3.2-3.6,5.1-5.1c0.1-0.1,0.2,0,0.2,0C46,53.5,46,53.6,46,53.7L46,53.7z"/>
		</g>
		<g>
			<path class="st26" d="M34.4,78.9c0.4-1.3,1.1-2.5,1.8-3.6c0.4-0.6,0.8-1.1,1.2-1.6c0.5-0.5,0.9-1,1.5-1.4c0.1-0.1,0.2,0,0.3,0.1
				c0,0.1,0,0.2,0,0.2l0,0c-0.8,1-1.6,2-2.3,3.2c-0.7,1.1-1.4,2.2-2.2,3.3c-0.1,0.1-0.2,0.1-0.2,0C34.4,79,34.4,78.9,34.4,78.9z"/>
		</g>
		<g>
			<path class="st26" d="M39.2,72.5c-0.7,2-1.2,4-1.5,6c-0.3,2-0.5,4.1-0.3,6.1c0.2,2,0.7,4.1,1.2,6c0.6,2,1.2,4,2,5.9l0,0
				c0,0.1,0,0.2-0.1,0.2c-0.1,0-0.2,0-0.2-0.1c-1-1.9-1.7-3.8-2.4-5.8c-0.6-2-1.1-4-1.4-6.2c-0.2-2.1,0-4.3,0.4-6.3
				c0.4-2.1,1-4.1,1.9-6c0-0.1,0.1-0.1,0.2-0.1C39.2,72.3,39.3,72.4,39.2,72.5L39.2,72.5z"/>
		</g>
		<g>
			<path class="st26" d="M40.4,96.5c0-1.8,0.2-3.5,0.5-5.3c0.2-0.9,0.4-1.7,0.6-2.6c0.3-0.9,0.6-1.7,1-2.5c0.1-0.1,0.2-0.1,0.3-0.1
				c0.1,0,0.1,0.1,0.1,0.2c-0.3,0.8-0.5,1.7-0.7,2.5c-0.2,0.8-0.4,1.7-0.5,2.6c-0.3,1.7-0.6,3.5-0.9,5.2c0,0.1-0.1,0.2-0.2,0.1
				C40.5,96.7,40.4,96.6,40.4,96.5z"/>
		</g>
		<g>
			<path class="st26" d="M42.9,86.3c-0.4,1.5-0.6,3.2-0.5,4.8c0,1.6,0.3,3.2,0.7,4.8c0.4,1.6,0.9,3.1,1.6,4.6c0.3,0.7,0.7,1.5,1,2.2
				l1.2,2.1l0,0c0,0.1,0,0.2-0.1,0.2c-0.1,0-0.2,0-0.2-0.1c-0.5-0.7-0.9-1.4-1.4-2.1c-0.4-0.7-0.8-1.4-1.2-2.2
				c-0.7-1.5-1.3-3.1-1.7-4.7c-0.4-1.6-0.6-3.3-0.6-5c0-1.7,0.3-3.3,0.9-4.9c0-0.1,0.1-0.1,0.2-0.1C42.9,86.1,42.9,86.2,42.9,86.3
				L42.9,86.3z"/>
		</g>
		<g>
			<path class="st26" d="M46.4,104.8c0.2-1.3,0.4-2.7,0.6-4c0.2-1.3,0.2-2.7,0.4-4c0-0.1,0.1-0.2,0.2-0.2c0.1,0,0.1,0.1,0.2,0.2
				c0.1,0.7,0.1,1.4,0.1,2.1c0,0.7-0.1,1.4-0.1,2.1c-0.1,0.7-0.2,1.4-0.4,2c-0.2,0.7-0.4,1.3-0.7,2c0,0.1-0.1,0.1-0.2,0.1
				C46.4,104.9,46.4,104.9,46.4,104.8L46.4,104.8z"/>
		</g>
		<g>
			<path class="st26" d="M47.8,96.7c0.4,1.2,0.9,2.3,1.5,3.4c0.5,1.1,1.1,2.2,1.8,3.3c0.6,1.1,1.3,2.1,2,3.1c0.7,1,1.5,2,2.3,2.9
				l0,0c0.1,0.1,0.1,0.2,0,0.3c-0.1,0.1-0.2,0.1-0.2,0c-0.9-0.8-1.8-1.7-2.6-2.7c-0.8-1-1.5-2-2.2-3.1c-0.6-1.1-1.2-2.2-1.7-3.4
				c-0.5-1.2-0.9-2.4-1.2-3.6c0-0.1,0-0.2,0.1-0.2C47.6,96.6,47.7,96.6,47.8,96.7L47.8,96.7z"/>
		</g>
		<g>
			<path class="st26" d="M55.1,109.3c0.9-0.4,1.7-1,2.6-1.5c0.8-0.6,1.6-1.2,2.4-1.8c1.5-1.3,2.9-2.8,4.3-4.2c0.1-0.1,0.2-0.1,0.3,0
				c0.1,0.1,0.1,0.2,0,0.2c-0.3,0.4-0.6,0.8-0.9,1.3c-0.3,0.4-0.6,0.8-1,1.2c-0.7,0.8-1.4,1.5-2.2,2.2c-0.8,0.7-1.6,1.3-2.5,1.8
				c-0.9,0.5-1.8,1-2.8,1.3c-0.1,0-0.2,0-0.2-0.1C55,109.4,55,109.4,55.1,109.3L55.1,109.3z"/>
		</g>
		<g>
			<path class="st26" d="M64.7,101.7c0.7,0.8,1.3,1.6,2,2.4c0.7,0.8,1.4,1.5,2.2,2.2c0.7,0.7,1.5,1.4,2.4,2c0.8,0.6,1.7,1.2,2.6,1.6
				l0,0c0.1,0,0.1,0.2,0.1,0.2c0,0.1-0.1,0.1-0.2,0.1c-1-0.3-2-0.8-2.9-1.4c-0.9-0.6-1.7-1.3-2.5-2c-1.5-1.5-2.9-3.1-3.9-5
				c0-0.1,0-0.2,0.1-0.2C64.5,101.6,64.6,101.7,64.7,101.7L64.7,101.7z"/>
		</g>
		<g>
			<path class="st26" d="M73.6,110.1c-0.2-0.6-0.3-1.2-0.5-1.7c-0.1-0.3-0.2-0.6-0.3-0.8c-0.1-0.3-0.2-0.6-0.3-0.9l0,0
				c0-0.1,0-0.2,0.1-0.2c0.1,0,0.1,0,0.2,0c0.5,0.5,0.8,1.1,1,1.7c0.2,0.6,0.3,1.3,0.1,1.9c0,0.1-0.1,0.1-0.2,0.1
				C73.7,110.2,73.6,110.2,73.6,110.1L73.6,110.1z"/>
		</g>
		<g>
			<path class="st26" d="M72.9,106.5c1.3,1.4,2.7,2.8,4.1,4.1c1.4,1.3,3,2.5,4.7,3.4l0,0c0.1,0,0.1,0.2,0.1,0.2
				c0,0.1-0.1,0.1-0.2,0.1c-1-0.3-1.9-0.8-2.7-1.3c-0.8-0.5-1.6-1.2-2.4-1.8c-1.4-1.4-2.8-2.8-3.9-4.5c-0.1-0.1,0-0.2,0.1-0.2
				C72.7,106.4,72.8,106.4,72.9,106.5L72.9,106.5z"/>
		</g>
		<g>
			<path class="st26" d="M81.5,114.1c0-0.2,0.1-0.4,0.1-0.6c0-0.2,0.1-0.4,0.1-0.6c0.1-0.4,0.2-0.9,0.4-1.3c0-0.1,0.2-0.1,0.3-0.1
				c0,0,0.1,0.1,0.1,0.1c0.1,0.2,0.1,0.5,0.1,0.7c0,0.2-0.1,0.5-0.1,0.7c-0.1,0.2-0.1,0.5-0.3,0.7c-0.1,0.2-0.3,0.4-0.5,0.6
				c-0.1,0.1-0.2,0-0.2,0C81.5,114.2,81.5,114.2,81.5,114.1L81.5,114.1z"/>
		</g>
		<g>
			<path class="st26" d="M82.5,111.4c0.5,0.7,1,1.5,1.5,2.2c0.2,0.4,0.5,0.7,0.8,1.1c0.3,0.4,0.6,0.7,0.8,1.1l0,0
				c0.1,0.1,0,0.2,0,0.3c-0.1,0-0.1,0-0.2,0c-0.8-0.5-1.5-1.2-2-1.9c-0.5-0.8-1-1.6-1.1-2.6c0-0.1,0-0.2,0.1-0.2
				C82.4,111.3,82.5,111.4,82.5,111.4L82.5,111.4z"/>
		</g>
		<g>
			<g>
				<path class="st26" d="M87.7,29.4c1.5-1.1,3.2-2,5-2.7c1.8-0.7,3.6-1.1,5.5-1.2c1-0.1,1.9,0,2.9,0c0.5,0,0.9,0.1,1.4,0.2
					c0.5,0,0.9,0.2,1.4,0.3c1.9,0.4,3.6,1.3,5.2,2.3c0.1,0.1,0.1,0.2,0.1,0.2c0,0.1-0.1,0.1-0.2,0.1l0,0c-1.7-0.8-3.4-1.6-5.2-1.9
					c-0.9-0.2-1.8-0.3-2.7-0.4c-0.9,0-1.8-0.1-2.7,0c-1.8,0.1-3.6,0.5-5.4,1.1c-1.7,0.6-3.4,1.3-5,2.3l0,0c-0.1,0-0.2,0-0.2-0.1
					C87.6,29.5,87.6,29.4,87.7,29.4z"/>
			</g>
			<g>
				<path class="st26" d="M109,28.6c-1.1,0-2.1,0.1-3.2,0.3c-1.1,0.2-2.1,0.3-3.1,0.6c-1,0.2-2.1,0.5-3.1,0.8c-1,0.3-2,0.7-3,1.1
					l0,0c-0.1,0-0.2,0-0.2-0.1c0-0.1,0-0.2,0.1-0.2c0.9-0.5,1.9-1,3-1.4c1-0.4,2.1-0.7,3.1-1c1.1-0.2,2.2-0.4,3.2-0.5
					c1.1-0.1,2.2-0.1,3.3,0.1c0.1,0,0.2,0.1,0.1,0.2C109.1,28.5,109.1,28.6,109,28.6L109,28.6z"/>
			</g>
			<g>
				<path class="st26" d="M96.4,31c1.8-0.3,3.7-0.4,5.5-0.5c1.9-0.1,3.7,0,5.6,0.2c1.9,0.2,3.7,0.5,5.5,1.1c1.8,0.6,3.6,1.4,4.9,2.7
					c0.1,0.1,0.1,0.2,0,0.3c-0.1,0.1-0.2,0.1-0.2,0c-1.4-1.2-3.1-1.8-4.9-2.3c-1.7-0.5-3.6-0.8-5.4-0.9c-1.8-0.2-3.7-0.3-5.5-0.3
					c-1.8,0-3.7,0-5.5,0.1c-0.1,0-0.2-0.1-0.2-0.2C96.3,31.1,96.4,31,96.4,31z"/>
			</g>
			<g>
				<path class="st26" d="M117.8,34.8c-1.4,0-2.7-0.1-4-0.1c-0.7,0-1.3,0-2,0.1c-0.7,0-1.3,0.1-2,0.2l0,0c-0.1,0-0.2-0.1-0.2-0.2
					c0-0.1,0-0.2,0.1-0.2c1.3-0.5,2.7-0.7,4.1-0.7c1.4,0,2.8,0.1,4.1,0.6c0.1,0,0.1,0.1,0.1,0.2C118,34.7,117.9,34.8,117.8,34.8
					L117.8,34.8z"/>
			</g>
			<g>
				<path class="st26" d="M109.7,34.6c1.8,0,3.5,0.3,5.3,0.8c1.7,0.4,3.4,1.1,5,1.8c1.6,0.8,3.2,1.6,4.6,2.6c0.7,0.5,1.4,1,2.1,1.6
					c0.7,0.6,1.3,1.1,2,1.7c0.1,0.1,0.1,0.2,0,0.3c-0.1,0.1-0.2,0.1-0.2,0l0,0c-1.4-1-2.8-2.1-4.3-3c-1.5-0.9-3-1.7-4.6-2.5
					c-1.6-0.7-3.2-1.3-4.9-1.8c-1.7-0.5-3.4-0.9-5.1-1.1l0,0c-0.1,0-0.2-0.1-0.1-0.2C109.5,34.6,109.6,34.6,109.7,34.6z"/>
			</g>
			<g>
				<path class="st26" d="M128.5,43.3c-1.7-0.4-3.3-0.8-4.9-1.2c-1.6-0.4-3.3-0.7-4.9-1c-0.1,0-0.2-0.1-0.2-0.2
					c0-0.1,0.1-0.2,0.2-0.2c0.9-0.1,1.7,0,2.6,0.1c0.9,0.1,1.7,0.3,2.5,0.5c1.7,0.4,3.3,0.9,4.9,1.7c0.1,0,0.1,0.1,0.1,0.2
					C128.7,43.3,128.6,43.3,128.5,43.3z"/>
			</g>
			<g>
				<path class="st26" d="M118.7,40.7c2.3,0.8,4.6,1.9,6.6,3.3c1,0.7,2,1.5,2.9,2.3c0.9,0.9,1.7,1.8,2.5,2.8c1.4,2,2.6,4.2,3.6,6.5
					c1,2.3,1.8,4.6,2.4,7c0,0.1,0,0.2-0.1,0.2c-0.1,0-0.2,0-0.2-0.1l0,0c-0.8-2.3-1.7-4.6-2.7-6.8c-1-2.2-2.2-4.4-3.6-6.3
					c-1.4-2-3.2-3.6-5.1-5.1c-2-1.4-4.1-2.6-6.3-3.6l0,0c-0.1,0-0.1-0.1-0.1-0.2C118.5,40.8,118.6,40.7,118.7,40.7z"/>
			</g>
			<g>
				<path class="st26" d="M136.3,62.9c-1.2-1.3-2.5-2.6-3.8-3.8c-1.3-1.2-2.7-2.3-4.2-3.2l0,0c-0.1-0.1-0.1-0.2-0.1-0.3
					c0-0.1,0.1-0.1,0.2-0.1c0.9,0.3,1.7,0.7,2.5,1.2c0.8,0.5,1.5,1.1,2.2,1.7c1.3,1.3,2.6,2.6,3.5,4.2c0,0.1,0,0.2-0.1,0.2
					C136.5,63,136.4,63,136.3,62.9L136.3,62.9z"/>
			</g>
			<g>
				<path class="st26" d="M128.5,55.6c1.8,1.6,3.4,3.4,4.8,5.4c1.4,1.9,2.6,4.1,3.5,6.4c0.8,2.3,1.3,4.7,1.5,7.1
					c0.3,2.4,0.3,4.8,0.1,7.2c0,0.1-0.1,0.2-0.2,0.2c-0.1,0-0.2-0.1-0.2-0.2l0,0c0.1-2.4-0.1-4.8-0.4-7.1c-0.3-2.3-0.8-4.7-1.6-6.9
					c-0.8-2.2-2-4.3-3.3-6.2c-0.7-1-1.4-1.9-2.1-2.9c-0.7-0.9-1.5-1.8-2.4-2.7l0,0c-0.1-0.1-0.1-0.2,0-0.2
					C128.3,55.6,128.5,55.6,128.5,55.6z"/>
			</g>
			<g>
				<path class="st26" d="M138.1,81.8c-0.7-1.1-1.3-2.3-2-3.4c-0.6-1.1-1.3-2.2-2.1-3.3l0,0c-0.1-0.1,0-0.2,0-0.3c0.1,0,0.2,0,0.2,0
					c0.6,0.4,1,0.9,1.4,1.4c0.4,0.5,0.8,1.1,1.1,1.7c0.7,1.2,1.2,2.4,1.6,3.7c0,0.1,0,0.2-0.1,0.2C138.3,81.9,138.2,81.8,138.1,81.8
					z"/>
			</g>
			<g>
				<path class="st26" d="M134.3,74.9c0.8,2,1.3,4,1.6,6.1c0.3,2.1,0.4,4.2,0.1,6.3c-0.4,2.1-1,4.1-1.7,6.1c-0.7,2-1.6,3.9-2.7,5.7
					c-0.1,0.1-0.2,0.1-0.2,0.1c-0.1,0-0.1-0.2-0.1-0.2l0,0c0.9-1.9,1.7-3.8,2.3-5.7c0.6-2,1.2-4,1.6-6c0.3-2,0.3-4.1,0.1-6.1
					c-0.2-2-0.6-4.1-1.2-6.1l0,0c0-0.1,0-0.2,0.1-0.2C134.2,74.8,134.3,74.8,134.3,74.9z"/>
			</g>
			<g>
				<path class="st26" d="M131.2,99c-0.3-1.7-0.4-3.5-0.7-5.2c-0.1-0.9-0.2-1.7-0.4-2.6c-0.1-0.9-0.3-1.7-0.6-2.5
					c0-0.1,0-0.2,0.1-0.2c0.1,0,0.2,0,0.2,0.1c0.4,0.8,0.7,1.7,0.9,2.5c0.2,0.9,0.4,1.8,0.5,2.6c0.2,1.8,0.3,3.5,0.2,5.3
					c0,0.1-0.1,0.2-0.2,0.2C131.3,99.1,131.2,99.1,131.2,99z"/>
			</g>
			<g>
				<path class="st26" d="M130,88.5c0.6,1.6,0.7,3.3,0.7,4.9c-0.1,1.7-0.4,3.3-0.8,4.9c-0.5,1.6-1.1,3.1-1.9,4.6
					c-0.4,0.7-0.9,1.4-1.3,2.1c-0.5,0.7-1,1.3-1.5,2c-0.1,0.1-0.2,0.1-0.3,0c-0.1-0.1-0.1-0.2,0-0.2l0,0l1.3-2.1
					c0.4-0.7,0.8-1.4,1.2-2.1c0.7-1.4,1.3-2.9,1.8-4.5c0.5-1.5,0.8-3.1,0.9-4.7c0.1-1.6,0.1-3.2-0.3-4.8l0,0c0-0.1,0-0.2,0.1-0.2
					C129.8,88.4,129.9,88.4,130,88.5z"/>
			</g>
			<g>
				<path class="st26" d="M124.8,107c-0.3-0.7-0.4-1.3-0.6-2c-0.1-0.7-0.2-1.4-0.3-2.1c0-0.7,0-1.4,0-2.1c0-0.7,0.1-1.4,0.2-2.1
					c0-0.1,0.1-0.2,0.2-0.1c0.1,0,0.1,0.1,0.1,0.2c0.1,1.4,0.1,2.7,0.2,4.1c0.1,1.3,0.2,2.7,0.3,4l0,0c0,0.1-0.1,0.2-0.2,0.2
					C124.9,107.1,124.8,107,124.8,107z"/>
			</g>
			<g>
				<path class="st26" d="M124.5,98.8c-0.3,1.2-0.8,2.4-1.4,3.5c-0.5,1.1-1.2,2.2-1.9,3.3c-0.7,1-1.5,2.1-2.3,3
					c-0.8,0.9-1.8,1.8-2.7,2.6c-0.1,0.1-0.2,0.1-0.3,0c-0.1-0.1-0.1-0.2,0-0.2l0,0c0.8-0.9,1.7-1.8,2.4-2.8c0.8-1,1.5-1.9,2.2-3
					c0.7-1,1.3-2.1,1.9-3.2c0.6-1.1,1.2-2.2,1.6-3.3l0,0c0-0.1,0.1-0.1,0.2-0.1C124.5,98.7,124.5,98.8,124.5,98.8z"/>
			</g>
			<g>
				<path class="st26" d="M116,111.3c-1-0.3-1.9-0.9-2.8-1.4c-0.9-0.6-1.6-1.3-2.4-1.9c-0.7-0.7-1.4-1.5-2.1-2.3
					c-0.3-0.4-0.6-0.8-0.9-1.2c-0.3-0.4-0.6-0.9-0.8-1.3c-0.1-0.1,0-0.2,0.1-0.2c0.1,0,0.2,0,0.2,0c1.3,1.5,2.6,3.1,4.1,4.4
					c0.7,0.7,1.5,1.4,2.3,2c0.8,0.6,1.6,1.2,2.5,1.7l0,0c0.1,0,0.1,0.1,0.1,0.2C116.2,111.3,116.1,111.3,116,111.3z"/>
			</g>
			<g>
				<path class="st26" d="M107.3,103.1c-1.1,1.8-2.6,3.4-4.2,4.8c-0.8,0.7-1.7,1.3-2.6,1.9c-0.9,0.5-1.9,1-3,1.2
					c-0.1,0-0.2,0-0.2-0.1c0-0.1,0-0.2,0.1-0.2l0,0c0.9-0.4,1.8-0.9,2.7-1.5c0.9-0.6,1.7-1.2,2.5-1.9c0.8-0.7,1.5-1.4,2.3-2.1
					c0.7-0.7,1.5-1.5,2.2-2.3l0,0c0.1-0.1,0.2-0.1,0.2,0C107.3,102.9,107.4,103,107.3,103.1z"/>
			</g>
			<g>
				<path class="st26" d="M97.3,110.8c-0.1-0.7,0-1.3,0.2-1.9c0.2-0.6,0.5-1.2,1.1-1.6c0.1-0.1,0.2-0.1,0.3,0c0,0,0.1,0.1,0,0.2l0,0
					c-0.1,0.3-0.2,0.6-0.3,0.9c-0.1,0.3-0.2,0.5-0.3,0.8c-0.2,0.5-0.4,1.1-0.6,1.7l0,0c0,0.1-0.1,0.1-0.2,0.1
					C97.4,110.9,97.3,110.8,97.3,110.8z"/>
			</g>
			<g>
				<path class="st26" d="M98.8,107.4c-1.2,1.6-2.6,3-4.1,4.3c-0.8,0.6-1.6,1.2-2.5,1.7c-0.9,0.5-1.8,0.9-2.8,1.2
					c-0.1,0-0.2,0-0.2-0.1c0-0.1,0-0.2,0.1-0.2l0,0c1.7-0.8,3.3-1.9,4.8-3.1c1.5-1.2,2.9-2.5,4.3-3.9l0,0c0.1-0.1,0.2-0.1,0.2,0
					C98.9,107.3,98.9,107.3,98.8,107.4z"/>
			</g>
			<g>
				<path class="st26" d="M89.3,114.5c-0.2-0.2-0.4-0.4-0.5-0.6c-0.1-0.2-0.2-0.5-0.2-0.7c0-0.2-0.1-0.5-0.1-0.7
					c0-0.2,0-0.5,0.1-0.7c0-0.1,0.1-0.2,0.2-0.1c0.1,0,0.1,0.1,0.1,0.1c0.2,0.5,0.3,0.9,0.4,1.3c0,0.2,0.1,0.4,0.1,0.7
					c0,0.2,0.1,0.4,0.1,0.6l0,0.1c0,0.1-0.1,0.2-0.2,0.2C89.4,114.5,89.4,114.5,89.3,114.5z"/>
			</g>
			<g>
				<path class="st26" d="M89,111.7c-0.2,0.9-0.7,1.7-1.3,2.5c-0.6,0.7-1.3,1.4-2.1,1.8c-0.1,0-0.2,0-0.2-0.1c0-0.1,0-0.1,0-0.2l0,0
					c0.3-0.4,0.6-0.7,0.9-1c0.3-0.3,0.6-0.7,0.8-1c0.6-0.7,1.1-1.4,1.6-2.1l0,0c0.1-0.1,0.2-0.1,0.2,0C89,111.6,89,111.7,89,111.7z"
					/>
			</g>
		</g>
		<g>
			<g>
				<path class="st26" d="M65.8,103.4c-2.1,4.8-4,9.7-5.9,14.6c-1.8,4.9-3.5,9.9-4.8,14.9c-0.6,2.5-1.2,5.1-1.2,7.6
					c0,2.5,0.3,5.2,1.7,7.2c1.4,2.1,3.8,3.2,6.3,3.7c1.3,0.2,2.6,0.4,3.9,0.6c1.3,0.2,2.6,0.4,3.8,0.4l0.1,0c0.2,0,0.3,0.1,0.3,0.3
					c0,0.2-0.1,0.3-0.3,0.3c-1.4,0-2.7-0.2-4-0.3c-1.3-0.2-2.6-0.3-3.9-0.5c-1.3-0.2-2.6-0.6-3.9-1.2c-1.2-0.6-2.3-1.5-3.1-2.7
					c-1.6-2.3-2-5.2-1.9-7.8c0-2.7,0.6-5.3,1.2-7.9c1.4-5.1,3.1-10.1,5-15c1.9-4.9,4-9.7,6.2-14.5c0.1-0.1,0.2-0.2,0.3-0.1
					C65.8,103.1,65.9,103.3,65.8,103.4z"/>
			</g>
			<g>
				<path class="st26" d="M74.6,152.4l12.6-0.1l6.3,0l6.3,0.1c0.1,0,0.3,0.1,0.3,0.3c0,0.1-0.1,0.3-0.3,0.3l-6.3,0.1l-6.3,0
					L74.6,153c-0.2,0-0.3-0.1-0.3-0.3C74.3,152.6,74.5,152.4,74.6,152.4z"/>
			</g>
			<path class="st30" d="M73.2,155.4c0.1,0.1,0.2,0.2,0.3,0.3c0,0.1,0,0.3,0,0.4c-0.1,0.7-0.2,1.6-0.8,2c-0.4,0.3-1,0.3-1.5,0.3
				c-0.5,0-1-0.1-1.6-0.2c-0.6-0.1-1.2-0.3-1.5-0.7c-0.4-0.4-0.4-1-0.4-1.6c0-0.2,0-0.4,0.1-0.6c0.1-0.2,0.3-0.3,0.5-0.4
				c0.8-0.4,1.4-0.8,2.4-0.6C71.5,154.5,72.6,154.8,73.2,155.4z"/>
			<path class="st30" d="M101.2,155.4c-0.1,0.1-0.2,0.2-0.3,0.3c0,0.1,0,0.3,0,0.4c0.1,0.7,0.2,1.6,0.8,2c0.4,0.3,1,0.3,1.5,0.3
				c0.5,0,1-0.1,1.6-0.2c0.6-0.1,1.2-0.3,1.5-0.7c0.4-0.4,0.4-1,0.4-1.6c0-0.2,0-0.4-0.1-0.6c-0.1-0.2-0.3-0.3-0.5-0.4
				c-0.8-0.4-1.4-0.8-2.4-0.6C102.9,154.5,101.8,154.8,101.2,155.4z"/>
			<g>
				<path class="st26" d="M111,106.9c2,4.5,3.9,9,5.6,13.6c1.7,4.6,3.3,9.3,4.3,14.1c0.5,2.4,0.8,4.9,0.6,7.4
					c-0.1,2.5-0.8,5.1-2.6,7.1c-1.8,2-4.4,2.8-6.8,3.1c-1.2,0.2-2.4,0.3-3.7,0.4c-1.2,0.1-2.4,0.3-3.7,0.2c-0.2,0-0.3-0.1-0.3-0.3
					c0-0.2,0.1-0.3,0.3-0.3l0.1,0c1.1,0,2.4-0.2,3.6-0.4c1.2-0.2,2.4-0.3,3.6-0.5c2.4-0.4,4.7-1.2,6.2-3c1.6-1.7,2.2-4.1,2.3-6.5
					c0.1-2.4-0.2-4.8-0.7-7.2c-1-4.8-2.5-9.4-4.1-14.1c-1.6-4.6-3.4-9.2-5.3-13.7c-0.1-0.1,0-0.3,0.1-0.4
					C110.8,106.7,111,106.8,111,106.9z"/>
			</g>
			<path class="st117" d="M64.6,106.3c0,0-8,17-10.2,27.3c-2.2,10.3,0.4,14.2,2.9,16.4c1.8,1.6,6.5,2.4,12.4,2.6
				c0.1,0,0.2,0,0.2,0.1c0.2-0.1-0.5-4.4-0.5-4.4c-2.5,2.8-8.3,2-10.9-0.4C50.1,140.3,64.6,106.3,64.6,106.3z"/>
			<path class="st117" d="M110.8,107.5c0,0,7.4,15.9,9.6,26.2c2.2,10.3-0.4,14.2-2.9,16.4c-1.8,1.6-6.5,2.4-12.4,2.6
				c-0.1,0-0.2,0-0.2,0.1c-0.2-0.1,0.5-4.4,0.5-4.4c2.5,2.8,8.3,2,10.9-0.4C124.7,140.3,110.8,107.5,110.8,107.5z"/>
			<path class="st30" d="M75,152.5l5.8-20.7c1.9-6.7,11.5-6.7,13.4,0l5.8,20.7H75z"/>
			<path class="st119" d="M76.5,146.7c0,0,0.1,4.6,10.4,4.6c10.3,0,11.5-4.6,11.5-4.6l1.6,6H74.6L76.5,146.7z"/>
			<g>
				<path class="st26" d="M68.5,141.1c0.5,3.3,1,6.6,1.4,10c0.1,0.8,0.2,1.7,0.2,2.5c0,0.2,0,0.4-0.1,0.8c0,0-0.1,0.2-0.3,0.2
					l-0.1,0l-0.1,0c-0.1,0-0.2,0.1-0.3,0.1c-0.3,0.2-0.7,0.4-0.9,0.6c-0.5,0.5-0.4,1.3,0,1.9c0.2,0.3,0.5,0.4,0.9,0.5
					c0.4,0.1,0.8,0.2,1.2,0.3c0.8,0.1,1.6,0.1,2-0.4c0.2-0.2,0.3-0.7,0.5-1l0.4-1.2c0.5-1.6,1-3.2,1.5-4.8l3-9.6
					c0-0.1,0.2-0.2,0.3-0.1c0.1,0,0.2,0.1,0.1,0.3c-0.9,3.2-1.8,6.5-2.7,9.7c-0.5,1.6-1,3.2-1.5,4.8l-0.4,1.2
					c-0.2,0.4-0.3,0.8-0.6,1.2c-0.3,0.4-0.9,0.6-1.3,0.7c-0.5,0.1-0.9,0-1.4,0c-0.4-0.1-0.9-0.2-1.3-0.3c-0.4-0.1-0.9-0.4-1.2-0.8
					c-0.7-0.7-0.7-2,0-2.8c0.3-0.4,0.7-0.6,1.1-0.8c0.1,0,0.2-0.1,0.3-0.1l0.2,0l0.1,0c-0.1,0-0.2,0.1-0.2,0.1c0,0,0-0.3,0-0.5
					c0-0.8-0.1-1.6-0.2-2.5c-0.4-3.3-0.8-6.6-1.3-9.9c0-0.1,0.1-0.3,0.2-0.3C68.4,140.9,68.5,141,68.5,141.1z"/>
			</g>
			<g>
				<path class="st26" d="M106.4,141.2c-0.4,3.3-0.9,6.6-1.2,9.9c-0.1,0.8-0.1,1.7-0.2,2.5c0,0.2,0,0.4,0,0.5c0,0,0,0-0.1-0.1
					c0,0-0.1,0-0.1,0l0,0l0,0l0.2,0c0.1,0,0.2,0.1,0.3,0.1c0.4,0.2,0.8,0.4,1.2,0.8c0.7,0.7,0.7,2,0,2.7c-0.3,0.4-0.8,0.7-1.2,0.8
					c-0.4,0.1-0.8,0.2-1.3,0.3c-0.4,0.1-0.9,0.1-1.4,0c-0.5-0.1-1-0.3-1.3-0.7c-0.3-0.4-0.4-0.9-0.6-1.3l-0.4-1.2
					c-0.5-1.6-1-3.2-1.4-4.8c-0.9-3.2-1.7-6.5-2.5-9.7c0-0.1,0-0.2,0.2-0.3c0.1,0,0.2,0,0.3,0.1l2.8,9.6c0.5,1.6,0.9,3.2,1.4,4.8
					l0.4,1.2c0.1,0.4,0.3,0.8,0.5,1c0.4,0.5,1.2,0.5,2,0.4c0.4-0.1,0.8-0.2,1.2-0.3c0.4-0.1,0.6-0.3,0.9-0.6c0.4-0.5,0.5-1.3,0-1.8
					c-0.2-0.3-0.5-0.5-0.9-0.6c-0.1,0-0.2-0.1-0.3-0.1l-0.1,0l0,0l0,0c0,0-0.1,0-0.1-0.1c-0.2-0.1-0.1-0.2-0.2-0.2
					c-0.1-0.3-0.1-0.5-0.1-0.7c0-0.9,0.1-1.7,0.2-2.5c0.4-3.3,0.8-6.6,1.3-9.9c0-0.1,0.2-0.2,0.3-0.2
					C106.3,141,106.4,141.1,106.4,141.2z"/>
			</g>
		</g>
		<path class="st30" d="M100,60.4c0.3-0.1,0.5-0.2,0.8-0.3c0.3-0.1,0.6-0.2,0.8-0.4c0.2-0.1,0.4-0.2,0.6-0.3
			c0.2-0.1,0.3-0.1,0.5-0.2c0.2-0.1,0.5-0.1,0.7-0.2c0.4-0.1,0.8-0.2,1.1-0.5c0.4,0,0.9-0.1,1.2-0.3c0.5,0,1-0.2,1.4-0.4
			c0.3,0,0.6-0.1,0.9-0.2c0.5,0,1-0.2,1.5-0.4c5,0.8,8.8,5.1,8.8,10.3c0,5.8-4.7,10.5-10.5,10.5c-5.8,0-10.5-4.7-10.5-10.5
			C97.2,64.8,98.3,62.3,100,60.4z"/>
		<path class="st120" d="M97.1,66.9c0.1-0.3,0.1-0.6,0.1-0.9c0-0.2,0-0.3,0-0.5c0.1-0.3,0.2-0.6,0.2-0.9c0.2-0.3,0.3-0.7,0.4-1.1
			c1.5-3,4.5-5.1,8.1-5.1c5,0,9,4,9,9c0,5-4,9-9,9c-3.8,0-7-2.3-8.3-5.6c0-0.6-0.1-1.1-0.3-1.6c0-0.4,0-0.8-0.1-1.3
			c0-0.2,0-0.4,0-0.6c0-0.1,0-0.3,0-0.4C97.1,67,97.1,66.9,97.1,66.9z"/>
		<g>
			<circle class="st26" cx="105.9" cy="67.5" r="7.3"/>
			
				<ellipse transform="matrix(0.7071 -0.7071 0.7071 0.7071 -11.88 97.0871)" class="st30" cx="111.3" cy="62.9" rx="2.7" ry="2.7"/>
			<path class="st206" d="M118.2,67.6c0-4.9-3.3-9-7.9-10.2c-0.8-0.2-9.7,2-11.1,4c-1.2,1.7-2,3.8-2,6.1c0,5.8,4.7,10.5,10.5,10.5
				C113.5,78.1,118.2,73.4,118.2,67.6z"/>
			<path class="st207" d="M111.9,55.9c0,0-7.5,4.6-14.7,5.4"/>
		</g>
		<circle class="st30" cx="65.1" cy="67.6" r="10.5"/>
		<path class="st120" d="M75.7,66.9c-0.1-0.3-0.1-0.6-0.1-0.9c0-0.2,0-0.3,0-0.5c-0.1-0.3-0.2-0.6-0.2-0.9c-0.2-0.3-0.3-0.7-0.4-1.1
			c-1.5-3-4.5-5.1-8.1-5.1c-5,0-9,4-9,9c0,5,4,9,9,9c3.8,0,7-2.3,8.3-5.6c0-0.6,0.1-1.1,0.3-1.6c0-0.4,0-0.8,0.1-1.3
			c0-0.2,0-0.4,0-0.6c0-0.1,0-0.3,0-0.4C75.7,67,75.7,66.9,75.7,66.9z"/>
		<g>
			<circle class="st26" cx="66.8" cy="67.5" r="7.3"/>
			
				<ellipse transform="matrix(0.7071 -0.7071 0.7071 0.7071 -26.4429 61.9291)" class="st30" cx="61.5" cy="62.9" rx="2.7" ry="2.7"/>
			<circle class="st206" cx="65.1" cy="67.6" r="10.5"/>
			<path class="st207" d="M55.3,52.4c0,0,8.5,0.8,11.5-6.5"/>
		</g>
		<g>
			<g>
				<g>
					<path class="st26" d="M93.4,85.7c2.6-0.9,5.2-1.2,7.9-1.4c2.7-0.1,5.4-0.1,8,0.3c0.7,0.1,1.3,0.2,2,0.3c0.7,0.1,1.3,0.2,2,0.4
						l1.9,0.5l1.9,0.6c1.3,0.4,2.5,0.9,3.7,1.4c1.2,0.5,2.4,1.2,3.6,1.7c-1.2-0.6-2.4-1.2-3.6-1.7c-1.2-0.5-2.5-1-3.7-1.4l-1.9-0.6
						l-1.9-0.4c-0.6-0.2-1.3-0.3-2-0.4c-0.7-0.1-1.3-0.2-2-0.3c-2.6-0.3-5.3-0.4-7.9-0.2c-2.6,0.2-5.3,0.7-7.7,1.5l0,0
						c-0.2,0.1-0.3,0-0.4-0.2C93.2,85.9,93.3,85.8,93.4,85.7C93.4,85.7,93.4,85.7,93.4,85.7z"/>
				</g>
				<g>
					<path class="st26" d="M95.1,87.1c1.6-0.2,3.1,0,4.6,0.4c1.5,0.4,2.9,1,4.2,1.8c1.3,0.8,2.5,1.8,3.5,2.9c0.5,0.5,1,1.1,1.5,1.7
						c0.4,0.6,0.9,1.2,1.3,1.9c-0.4-0.6-0.9-1.2-1.3-1.8c-0.5-0.6-1-1.2-1.5-1.7c-1.1-1.1-2.3-2-3.6-2.7c-1.3-0.7-2.7-1.3-4.2-1.6
						c-1.4-0.3-3-0.4-4.4-0.2l0,0c-0.2,0-0.3-0.1-0.3-0.2C94.8,87.2,94.9,87.1,95.1,87.1C95.1,87.1,95.1,87.1,95.1,87.1z"/>
				</g>
				<g>
					<path class="st26" d="M94.5,82.9c2.7-0.6,5.5-1,8.2-1.2c2.8-0.2,5.5-0.3,8.3-0.2c2.8,0.1,5.5,0.5,8.2,1
						c2.7,0.5,5.3,1.4,7.9,2.4c-2.6-1-5.2-1.8-7.9-2.2c-2.7-0.5-5.4-0.8-8.2-0.8c-2.7-0.1-5.5,0-8.2,0.3c-2.7,0.3-5.5,0.7-8.1,1.3
						l0,0c-0.2,0-0.3-0.1-0.4-0.2S94.4,83,94.5,82.9C94.5,82.9,94.5,82.9,94.5,82.9z"/>
				</g>
				<g>
					<path class="st26" d="M75.9,82.6c-2.5-0.8-5.2-1.2-7.8-1.4c-2.7-0.2-5.3-0.3-8,0c-5.3,0.4-10.6,1.7-15.5,3.8
						c4.9-2.2,10.2-3.6,15.5-4.1c2.7-0.3,5.4-0.3,8.1-0.1c2.7,0.2,5.4,0.6,8,1.3c0.2,0,0.2,0.2,0.2,0.4S76.1,82.6,75.9,82.6
						C75.9,82.6,75.9,82.6,75.9,82.6L75.9,82.6z"/>
				</g>
				<g>
					<path class="st26" d="M79,84.8c-2-0.5-4.2-0.6-6.3-0.5c-2.1,0.1-4.2,0.5-6.2,1.2c-2,0.7-3.9,1.7-5.6,3
						c-0.9,0.6-1.6,1.4-2.4,2.1c-0.8,0.7-1.4,1.6-2.1,2.4c0.7-0.8,1.3-1.7,2.1-2.5c0.8-0.7,1.5-1.5,2.4-2.2c1.7-1.4,3.6-2.4,5.6-3.1
						c2-0.8,4.2-1.2,6.3-1.4c2.2-0.1,4.3,0,6.5,0.4c0.2,0,0.3,0.2,0.2,0.3C79.4,84.8,79.2,84.9,79,84.8C79,84.8,79,84.8,79,84.8
						L79,84.8z"/>
				</g>
				<g>
					<path class="st26" d="M77.7,86.6c-1.4-0.2-2.9-0.1-4.3,0.2c-1.4,0.3-2.8,0.9-4,1.6c-1.2,0.8-2.3,1.7-3.3,2.9
						c-0.5,0.5-0.9,1.2-1.3,1.8c-0.4,0.6-0.7,1.3-1.1,1.9c0.3-0.6,0.7-1.3,1-1.9c0.4-0.6,0.8-1.3,1.3-1.8c0.9-1.2,2-2.2,3.2-3
						c1.2-0.8,2.6-1.4,4-1.8c1.4-0.4,2.9-0.5,4.5-0.4c0.2,0,0.3,0.2,0.3,0.3C78,86.5,77.9,86.7,77.7,86.6
						C77.7,86.6,77.7,86.6,77.7,86.6L77.7,86.6z"/>
				</g>
				<g>
					<g>
						<path class="st26" d="M86.1,82.8c0,0.8-0.4,1.5-0.8,2.2c-0.4,0.7-0.8,1.4-1.3,2c-0.9,1.3-2.1,2.4-3.5,3.1
							c-1.4,0.7-3.1,1-4.7,0.7c-1.6-0.3-3-1-4.3-2c-0.1-0.1-0.1-0.2,0-0.3c0.1-0.1,0.2-0.1,0.2,0c1.3,0.8,2.7,1.5,4.2,1.8
							c1.5,0.3,3,0,4.4-0.7c1.4-0.7,2.5-1.7,3.5-2.9c0.5-0.6,0.9-1.2,1.3-1.9C85.5,84.2,86,83.6,86.1,82.8
							C86.1,82.8,86.1,82.8,86.1,82.8C86.1,82.8,86.1,82.8,86.1,82.8z"/>
					</g>
					<g>
						<path class="st26" d="M86.5,83.3c0.7,1.3,1.6,2.5,2.5,3.6c1,1.1,2.1,2.1,3.3,2.8c1.3,0.7,2.7,1,4.1,0.9c1.4,0,2.8-0.7,4.1-1.4
							l0,0c0.1,0,0.2,0,0.2,0.1c0,0.1,0,0.2-0.1,0.2c-1.3,0.8-2.7,1.5-4.2,1.6c-1.5,0.1-3.1-0.3-4.4-1c-1.3-0.8-2.4-1.8-3.3-3
							C87.8,86,87,84.7,86.5,83.3z"/>
					</g>
					<path class="st26" d="M82.1,79.3c-0.1,0.5,0.2,1,0.6,1.4c0.6,0.5,1.3,0.6,2,0.7c1.1,0.1,1.2,0.6,1.4,1.7c0,0.3,0.8,0.2,0.8,0.1
						c0.3-1.9,2-1.5,3.1-2.1c1.4-0.7,1.3-2.1,0-2.7C88.2,77.2,82.6,76.5,82.1,79.3z"/>
					<path class="st26" d="M77.7,90.6c0,0,2.2,2.7,4.5,2.9c2,0.1,3-1.6,3.9-1.6c1.9,0,2.5,1.6,4.6,1.8c2.1,0.2,3.9-2.9,3.9-2.9
						s-3.3-1-5.6-3.5c-1-1.1-2.1-3.4-2.1-4.3c0,0-0.8-1.2-0.8,0C86.1,84.1,82.5,89.5,77.7,90.6z"/>
					<g>
						<path class="st30" d="M80,92.5c0,0,0.7-2,0.9-1.9c0.2,0.1,0.6,2.8,0.6,2.8S80.9,93.3,80,92.5z"/>
						<path class="st26" d="M79.9,92.7l0-0.2c0.1-0.4,0.2-0.8,0.4-1.2c0.1-0.2,0.1-0.4,0.2-0.6c0-0.1,0.1-0.1,0.1-0.2
							c0,0,0-0.1,0.1-0.1c0,0,0.2,0,0.2,0c0.1,0,0.1,0.1,0.1,0.1c0.1,0.1,0.1,0.2,0.1,0.3c0.2,0.8,0.4,1.7,0.5,2.5l0,0
							c0,0.1-0.1,0.2-0.2,0.3c0,0-0.1,0-0.1,0c-0.2,0-0.3-0.1-0.5-0.2c-0.1-0.1-0.3-0.1-0.4-0.2c-0.1-0.1-0.3-0.2-0.4-0.3L80,92.8
							C80,92.7,80,92.7,79.9,92.7z M80,92.4l0.1,0c0.1,0,0.1,0,0.1,0l0.2,0.1c0.1,0.1,0.2,0.2,0.4,0.2c0.1,0.1,0.2,0.1,0.4,0.2
							c0.1,0.1,0.3,0.1,0.4,0.1l-0.3,0.3c-0.1-0.8-0.3-1.7-0.4-2.5c0-0.1-0.1-0.2-0.1-0.3c0,0,0,0,0,0c0,0,0.2,0,0.1,0c0,0,0,0,0,0
							c0,0-0.1,0.1-0.1,0.1c-0.1,0.2-0.2,0.3-0.3,0.5L80,92.4z"/>
					</g>
					<path class="st53" d="M90.6,93.7c-0.2-0.8-0.7-3-1.8-3.5c-1.2-0.6-2.7,0.3-2.7,0.3c-2.9-2.5-4.5,2.9-4.5,2.9l0,0
						c0.2,0.1,0.4,0.1,0.7,0.1c2,0.1,3-1.6,3.9-1.6C88,91.9,88.6,93.5,90.6,93.7z"/>
					<path class="st208" d="M77.8,90.7c0.6,0.7,2.4,2.7,4.3,2.8c2,0.1,3-1.6,3.9-1.6c1.9,0,2.5,1.6,4.6,1.8c2.1,0.2,3.9-2.9,3.9-2.9
						"/>
				</g>
			</g>
			<g>
				<path class="st26" d="M81.8,96.8c0.7,0.4,1.4,0.8,2.1,1c0.7,0.2,1.5,0.4,2.2,0.3c0.7,0,1.5-0.1,2.2-0.4c0.7-0.2,1.4-0.6,2.1-1
					l0,0c0.1,0,0.2,0,0.2,0.1c0,0.1,0,0.2,0,0.2c-0.3,0.2-0.6,0.5-1,0.7c-0.4,0.2-0.7,0.4-1.1,0.5c-0.8,0.3-1.6,0.4-2.4,0.5
					c-1.7,0-3.3-0.7-4.4-1.8c0,0,0-0.1,0-0.1C81.7,96.8,81.8,96.8,81.8,96.8L81.8,96.8z"/>
			</g>
		</g>
	</g>
</g>
<g id="mask" class="st0">
</g>
</svg>
