<?xml version="1.0" encoding="utf-8"?>
<!-- Generator: Adobe Illustrator 21.0.0, SVG Export Plug-In . SVG Version: 6.00 Build 0)  -->
<svg version="1.1" xmlns="http://www.w3.org/2000/svg" xmlns:xlink="http://www.w3.org/1999/xlink" x="0px" y="0px"
	 viewBox="0 0 176.8 172.4" style="enable-background:new 0 0 176.8 172.4;" xml:space="preserve">
<style type="text/css">
	.st0{display:none;}
	.st1{display:inline;fill:#FD9994;}
	.st2{display:inline;fill:#FFFFFF;}
	.st3{display:inline;fill:none;stroke:#FFFFFF;stroke-width:2.2363;stroke-miterlimit:10;}
	.st4{display:inline;}
	.st5{fill:none;stroke:#FFFFFF;stroke-width:2.2363;stroke-miterlimit:10;}
	.st6{fill:#FFB380;}
	.st7{fill:#D2C3DB;}
	.st8{fill:#F9ECDC;}
	.st9{fill:#FFF58B;}
	.st10{fill:#F6BC60;}
	.st11{fill:#ECF784;}
	.st12{fill:#FFDEFF;}
	.st13{fill:#AED5D2;}
	.st14{fill:#F4BD9F;}
	.st15{fill:#B9DCFF;}
	.st16{fill:#D7FFFB;}
	.st17{fill:#81D8F7;}
	.st18{fill:#E57777;}
	.st19{fill:#D9FFDB;}
	.st20{opacity:0.1;}
	.st21{fill:#5CCDFF;}
	.st22{fill:none;}
	.st23{opacity:0.2;fill:#FFFFFF;}
	.st24{opacity:0.1;fill:#002CBF;}
	.st25{fill:#1A1A1A;}
	.st26{fill:#333333;}
	.st27{fill:#FFFFDE;}
	.st28{clip-path:url(#SVGID_4_);}
	.st29{fill:none;stroke:#333333;stroke-width:0.4917;stroke-linecap:round;stroke-linejoin:round;stroke-miterlimit:10;}
	.st30{fill:#FFFFFF;}
	.st31{fill:none;stroke:#333333;stroke-width:0.8543;stroke-miterlimit:10;}
	.st32{clip-path:url(#SVGID_6_);}
	.st33{fill:#FFD7B9;}
	.st34{fill:#F0FFFF;}
	.st35{clip-path:url(#SVGID_8_);}
	.st36{fill:#FF5C5C;}
	.st37{fill:none;stroke:#333333;stroke-width:0.466;stroke-linecap:round;stroke-linejoin:round;stroke-miterlimit:10;}
	.st38{fill:none;stroke:#333333;stroke-width:0.8095;stroke-miterlimit:10;}
	.st39{clip-path:url(#SVGID_10_);}
	.st40{fill:none;stroke:#333333;stroke-width:0.7381;stroke-linecap:round;stroke-linejoin:round;stroke-miterlimit:10;}
	.st41{fill:none;stroke:#333333;stroke-width:0.8857;stroke-linecap:round;stroke-linejoin:round;stroke-miterlimit:10;}
	.st42{fill:none;stroke:#333333;stroke-width:2.6852;stroke-linecap:round;stroke-linejoin:round;stroke-miterlimit:10;}
	.st43{fill:#72B5C4;}
	.st44{fill:#5E96A5;}
	.st45{fill:none;stroke:#FFFFFF;stroke-width:2.6852;stroke-linecap:round;stroke-linejoin:round;stroke-miterlimit:10;}
	.st46{fill:none;stroke:#FFFFFF;stroke-width:1.2942;stroke-linecap:round;stroke-linejoin:round;stroke-miterlimit:10;}
	.st47{fill:none;stroke:#FFFFFF;stroke-width:0.8311;stroke-linecap:round;stroke-linejoin:round;stroke-miterlimit:10;}
	.st48{fill:#FF5C00;}
	.st49{fill:#00B4FF;}
	.st50{fill:#FF5592;}
	.st51{fill:#733FFF;}
	.st52{fill:#DDFF15;}
	.st53{fill:#BF5855;}
	.st54{fill:none;stroke:#333333;stroke-width:0.5718;stroke-miterlimit:10;}
	.st55{fill:#C8F982;}
	.st56{fill:#AEF9C0;}
	.st57{fill:none;stroke:#FFFFFF;stroke-width:1.8326;stroke-miterlimit:10;}
	.st58{fill:#9AF6F9;}
	.st59{fill:#FFACA2;}
	.st60{fill:#F9E582;}
	.st61{fill:#FFC08B;}
	.st62{fill:#EFEB6A;}
	.st63{fill:#EC987F;}
	.st64{fill:#B5FFCC;}
	.st65{fill:#FFEDA2;}
	.st66{fill:#CCE7CC;}
	.st67{fill:#ABE7AB;}
	.st68{fill:#A6A6A6;}
	.st69{clip-path:url(#SVGID_60_);}
	.st70{fill:none;stroke:#333333;stroke-width:0.4706;stroke-linecap:round;stroke-linejoin:round;stroke-miterlimit:10;}
	.st71{fill:#FFEC55;}
	.st72{fill:none;stroke:#333333;stroke-width:0.8177;stroke-miterlimit:10;}
	.st73{clip-path:url(#SVGID_62_);}
	.st74{clip-path:url(#SVGID_64_);}
	.st75{fill:#FF7A59;}
	.st76{clip-path:url(#SVGID_66_);}
	.st77{clip-path:url(#SVGID_68_);}
	.st78{fill:#B45FFF;}
	.st79{clip-path:url(#SVGID_70_);}
	.st80{opacity:0.2;fill:#002CBF;}
	.st81{fill:none;stroke:#333333;stroke-width:0.5506;stroke-linecap:round;stroke-linejoin:round;stroke-miterlimit:10;}
	.st82{clip-path:url(#SVGID_72_);}
	.st83{fill:#EAA871;}
	.st84{fill:#FFD836;}
	.st85{fill:#FF846B;}
	.st86{fill:none;stroke:#333333;stroke-width:0.804;stroke-linecap:round;stroke-linejoin:round;stroke-miterlimit:10;}
	.st87{fill:#FEFF4A;}
	.st88{fill:none;stroke:#333333;stroke-width:0.7645;stroke-linecap:round;stroke-linejoin:round;stroke-miterlimit:10;}
	.st89{fill:none;stroke:#333333;stroke-width:0.7645;stroke-miterlimit:10;}
	.st90{fill:none;stroke:#333333;stroke-width:2.9248;stroke-linecap:round;stroke-linejoin:round;stroke-miterlimit:10;}
	.st91{fill:none;stroke:#333333;stroke-width:0.945;stroke-linecap:round;stroke-linejoin:round;stroke-miterlimit:10;}
	.st92{fill:none;stroke:#333333;stroke-width:0.945;stroke-miterlimit:10;}
	.st93{fill:none;stroke:#333333;stroke-width:3.6155;stroke-linecap:round;stroke-linejoin:round;stroke-miterlimit:10;}
	.st94{fill:none;stroke:#333333;stroke-width:0.6228;stroke-miterlimit:10;}
	.st95{fill:none;stroke:#333333;stroke-width:0.7778;stroke-linecap:round;stroke-linejoin:round;stroke-miterlimit:10;}
	.st96{fill:#FF712A;}
	.st97{fill:none;stroke:#333333;stroke-width:0.7396;stroke-linecap:round;stroke-linejoin:round;stroke-miterlimit:10;}
	.st98{fill:none;stroke:#333333;stroke-width:0.7396;stroke-miterlimit:10;}
	.st99{fill:none;stroke:#333333;stroke-width:2.8295;stroke-linecap:round;stroke-linejoin:round;stroke-miterlimit:10;}
	.st100{fill:none;stroke:#333333;stroke-width:0.9142;stroke-linecap:round;stroke-linejoin:round;stroke-miterlimit:10;}
	.st101{fill:none;stroke:#333333;stroke-width:0.9142;stroke-miterlimit:10;}
	.st102{fill:none;stroke:#333333;stroke-width:3.4977;stroke-linecap:round;stroke-linejoin:round;stroke-miterlimit:10;}
	.st103{fill:none;stroke:#333333;stroke-width:0.6025;stroke-miterlimit:10;}
	.st104{fill:url(#SVGID_89_);}
	.st105{fill:url(#SVGID_90_);}
	.st106{fill:none;stroke:#333333;stroke-width:0.7438;stroke-linecap:round;stroke-linejoin:round;stroke-miterlimit:10;}
	.st107{fill:none;stroke:#333333;stroke-width:0.8926;stroke-linecap:round;stroke-linejoin:round;stroke-miterlimit:10;}
	.st108{clip-path:url(#SVGID_92_);fill:url(#SVGID_93_);}
	.st109{fill:url(#SVGID_94_);}
	.st110{fill:#52C5FF;}
	.st111{fill:none;stroke:#333333;stroke-width:0.6367;stroke-linecap:round;stroke-linejoin:round;stroke-miterlimit:10;}
	.st112{fill:none;stroke:#333333;stroke-width:2.7061;stroke-linecap:round;stroke-linejoin:round;stroke-miterlimit:10;}
	.st113{fill:none;stroke:#333333;stroke-width:0.5763;stroke-miterlimit:10;}
	.st114{fill:none;stroke:#FFFFFF;stroke-width:1.3042;stroke-linecap:round;stroke-linejoin:round;stroke-miterlimit:10;}
	.st115{fill:none;stroke:#FFFFFF;stroke-width:0.8375;stroke-linecap:round;stroke-linejoin:round;stroke-miterlimit:10;}
	.st116{clip-path:url(#SVGID_96_);}
	.st117{opacity:0.2;fill:#2E3192;}
	.st118{fill:#FEFF78;}
	.st119{opacity:0.1;fill:#2E3192;}
	.st120{fill:#FF5A50;}
	.st121{fill:none;stroke:#333333;stroke-width:0.567;stroke-linecap:round;stroke-linejoin:round;stroke-miterlimit:10;}
	.st122{fill:none;stroke:#333333;stroke-width:2.5786;stroke-linecap:round;stroke-linejoin:round;stroke-miterlimit:10;}
	.st123{fill:none;stroke:#333333;stroke-width:0.5491;stroke-miterlimit:10;}
	.st124{clip-path:url(#SVGID_98_);}
	.st125{fill:#2AD2FF;}
	.st126{fill:none;stroke:#333333;stroke-width:0.2435;stroke-miterlimit:10;}
	.st127{fill:#FFFFFF;stroke:#333333;stroke-width:0.487;stroke-linecap:round;stroke-linejoin:round;stroke-miterlimit:10;}
	.st128{clip-path:url(#SVGID_100_);}
	.st129{fill:url(#SVGID_101_);}
	.st130{opacity:0.4;fill:#FFFFFF;}
	.st131{fill:#FFDC48;}
	.st132{fill:none;stroke:#333333;stroke-width:0.5835;stroke-linecap:round;stroke-linejoin:round;stroke-miterlimit:10;}
	.st133{fill:none;stroke:#333333;stroke-width:2.6537;stroke-linecap:round;stroke-linejoin:round;stroke-miterlimit:10;}
	.st134{fill:#F0F462;}
	.st135{fill:url(#SVGID_102_);}
	.st136{fill:url(#SVGID_103_);}
	.st137{fill:#D1DADF;}
	.st138{fill:#57FFA3;}
	.st139{clip-path:url(#SVGID_105_);}
	.st140{clip-path:url(#SVGID_107_);}
	.st141{fill:#D0BBF9;}
	.st142{clip-path:url(#SVGID_109_);}
	.st143{fill:none;stroke:#333333;stroke-width:0.5867;stroke-linecap:round;stroke-linejoin:round;stroke-miterlimit:10;}
	.st144{clip-path:url(#SVGID_111_);}
	.st145{fill:none;stroke:#333333;stroke-width:0.5514;stroke-linecap:round;stroke-linejoin:round;stroke-miterlimit:10;}
	.st146{fill:#D1E9D3;}
	.st147{clip-path:url(#SVGID_113_);}
	.st148{fill:none;stroke:#333333;stroke-width:0.7684;stroke-linecap:round;stroke-linejoin:round;stroke-miterlimit:10;}
	.st149{fill:none;stroke:#333333;stroke-width:0.7684;stroke-miterlimit:10;}
	.st150{fill:none;stroke:#333333;stroke-width:2.9398;stroke-linecap:round;stroke-linejoin:round;stroke-miterlimit:10;}
	.st151{clip-path:url(#SVGID_115_);}
	.st152{fill:#FF66F8;}
	.st153{fill:none;stroke:#333333;stroke-width:0.7542;stroke-linecap:round;stroke-linejoin:round;stroke-miterlimit:10;}
	.st154{fill:none;stroke:#333333;stroke-width:0.9051;stroke-linecap:round;stroke-linejoin:round;stroke-miterlimit:10;}
	.st155{fill:none;stroke:#333333;stroke-width:0.5146;stroke-linecap:round;stroke-linejoin:round;stroke-miterlimit:10;}
	.st156{fill:none;stroke:#333333;stroke-width:0.6033;stroke-linecap:round;stroke-linejoin:round;stroke-miterlimit:10;}
	.st157{fill:none;stroke:#333333;stroke-width:2.7439;stroke-linecap:round;stroke-linejoin:round;stroke-miterlimit:10;}
	.st158{fill:#333333;stroke:#333333;stroke-width:1.0293;stroke-linecap:round;stroke-linejoin:round;stroke-miterlimit:10;}
	.st159{fill:#FF5F2A;}
	.st160{fill:none;stroke:#333333;stroke-width:0.5965;stroke-linecap:round;stroke-linejoin:round;stroke-miterlimit:10;}
	.st161{fill:#F9CC3E;}
	.st162{clip-path:url(#SVGID_121_);}
	.st163{fill:#70E1FF;}
	.st164{fill:none;stroke:#333333;stroke-width:0.5717;stroke-linecap:round;stroke-linejoin:round;stroke-miterlimit:10;}
	.st165{fill:none;stroke:#333333;stroke-width:2.6004;stroke-linecap:round;stroke-linejoin:round;stroke-miterlimit:10;}
	.st166{clip-path:url(#SVGID_123_);}
	.st167{fill:#8F61FF;}
	.st168{clip-path:url(#SVGID_125_);}
	.st169{clip-path:url(#SVGID_127_);}
	.st170{fill:#FFEBEB;}
	.st171{clip-path:url(#SVGID_129_);}
	.st172{clip-path:url(#SVGID_131_);}
	.st173{fill:#F47D62;}
	.st174{fill:none;stroke:#333333;stroke-width:0.7188;stroke-linecap:round;stroke-linejoin:round;stroke-miterlimit:10;}
	.st175{fill:none;stroke:#333333;stroke-width:0.7188;stroke-miterlimit:10;}
	.st176{fill:none;stroke:#333333;stroke-width:2.7502;stroke-linecap:round;stroke-linejoin:round;stroke-miterlimit:10;}
	.st177{fill:#85ACB5;}
	.st178{clip-path:url(#SVGID_133_);}
	.st179{fill:#D5F2F7;}
	.st180{fill:#FF694A;}
	.st181{fill:none;stroke:#333333;stroke-width:0.5693;stroke-linecap:round;stroke-linejoin:round;stroke-miterlimit:10;}
	.st182{fill:#FFDF15;}
	.st183{fill:none;stroke:#333333;stroke-width:0.6674;stroke-linecap:round;stroke-linejoin:round;stroke-miterlimit:10;}
	.st184{fill:none;stroke:#333333;stroke-width:3.0352;stroke-linecap:round;stroke-linejoin:round;stroke-miterlimit:10;}
	.st185{clip-path:url(#SVGID_135_);}
	.st186{clip-path:url(#SVGID_137_);}
	.st187{fill:none;stroke:#333333;stroke-width:0.5248;stroke-linecap:round;stroke-linejoin:round;stroke-miterlimit:10;}
	.st188{fill:#FFD33A;}
	.st189{fill:none;stroke:#333333;stroke-width:2.7983;stroke-linecap:round;stroke-linejoin:round;stroke-miterlimit:10;}
	.st190{fill:none;stroke:#333333;stroke-width:0.7692;stroke-linecap:round;stroke-linejoin:round;stroke-miterlimit:10;}
	.st191{fill:none;stroke:#333333;stroke-width:0.5959;stroke-miterlimit:10;}
	.st192{clip-path:url(#SVGID_143_);}
	.st193{fill:#FFE267;}
	.st194{clip-path:url(#SVGID_149_);}
	.st195{fill:#FFEEAA;}
	.st196{opacity:0.7;fill:url(#SVGID_152_);}
	.st197{fill:none;stroke:#333333;stroke-width:0.611;stroke-miterlimit:10;}
	.st198{clip-path:url(#SVGID_154_);}
	.st199{opacity:0.7;fill:url(#SVGID_157_);}
	.st200{fill:#EABBFC;}
	.st201{opacity:0.7;fill:url(#SVGID_160_);}
	.st202{opacity:0.7;fill:url(#SVGID_163_);}
	.st203{opacity:0.7;fill:url(#SVGID_166_);}
	.st204{opacity:0.7;fill:url(#SVGID_169_);}
	.st205{clip-path:url(#SVGID_171_);}
	.st206{fill:none;stroke:#333333;stroke-width:0.5899;stroke-linecap:round;stroke-linejoin:round;stroke-miterlimit:10;}
	.st207{fill:none;stroke:#333333;stroke-width:2.6828;stroke-linecap:round;stroke-linejoin:round;stroke-miterlimit:10;}
	.st208{fill:none;stroke:#333333;stroke-width:0.5713;stroke-miterlimit:10;}
	.st209{clip-path:url(#SVGID_173_);}
	.st210{clip-path:url(#SVGID_175_);}
	.st211{clip-path:url(#SVGID_177_);}
	.st212{fill:#FFAFC3;}
	.st213{fill:#A0D3FF;}
	.st214{fill:none;stroke:#333333;stroke-width:0.7262;stroke-linecap:round;stroke-linejoin:round;stroke-miterlimit:10;}
	.st215{fill:none;stroke:#333333;stroke-width:0.6906;stroke-miterlimit:10;}
	.st216{fill:none;stroke:#333333;stroke-width:0.8536;stroke-miterlimit:10;}
	.st217{fill:#333333;stroke:#333333;stroke-width:0.991;stroke-linecap:round;stroke-linejoin:round;stroke-miterlimit:10;}
	.st218{clip-path:url(#SVGID_179_);}
	.st219{clip-path:url(#SVGID_181_);}
	.st220{fill:#FD9994;}
	.st221{opacity:0.2;}
	.st222{fill:#2E3192;}
	.st223{display:inline;fill:#FF5B00;}
</style>
<g id="site">
</g>
<g id="kitties">
	<g>
		<g>
			<path class="st84" d="M145.7,101.8c0,0-9.2-1.9-14.1,11.3c-4.9,13.2-5,16-19.7,18.2l2,12.8c0,0,12.9,5.2,23.4,0.1
				c10.5-5.1,8.5-16.3,8.6-19.2c0-0.4-0.2,1.6-1.2,2.9c-1.2,1.7-2.9,2.8-2.5,2.1c2.3-4.4,2.9-13.3,2.9-13.3
				C143.8,110.7,143.2,104,145.7,101.8z"/>
			<path class="st24" d="M132.3,111.1c0,0,0.4,11.9-5.4,16.6c-6.2,5-11.7,3.1-11.7,3.1s7.1-1.2,10.5-4.8
				C130.3,121,132.3,111.1,132.3,111.1z"/>
			<g>
				<path class="st26" d="M145.7,102.1c-3.9-0.2-8,1.5-10.5,4.6c-1.3,1.5-2.1,3.3-2.8,5.3c-0.7,1.9-1.2,3.9-1.9,5.8
					c-0.7,1.9-1.4,3.9-2.5,5.7c-1.1,1.8-2.5,3.4-4.3,4.5c-1.8,1.1-3.7,1.9-5.7,2.4c-2,0.5-4,0.8-6.1,1c-0.1,0-0.2-0.1-0.2-0.2
					c0-0.1,0.1-0.2,0.2-0.2c2-0.2,4-0.6,6-1.1c1.9-0.5,3.8-1.3,5.5-2.4c1.7-1.1,3-2.6,4-4.4c1-1.7,1.7-3.6,2.3-5.6
					c0.6-1.9,1.2-3.9,1.9-5.8c0.7-1.9,1.6-3.9,3-5.5c2.7-3.3,7-5.1,11.2-4.9c0.2,0,0.4,0.2,0.4,0.4
					C146.1,102,145.9,102.1,145.7,102.1L145.7,102.1z"/>
			</g>
			<g>
				<path class="st26" d="M146.2,124.3c0.5,4.2,0.3,8.6-1.4,12.7c-0.8,2-2.1,3.9-3.7,5.3c-0.8,0.7-1.8,1.3-2.7,1.8
					c-1,0.5-2,0.9-3,1.2c-4.1,1.4-8.5,1.7-12.7,1.1c-4.2-0.5-8.4-1.8-12.2-3.7c-0.1,0-0.1-0.2-0.1-0.3c0-0.1,0.2-0.1,0.2-0.1l0,0
					c3.8,1.9,7.9,3,12.1,3.5c4.2,0.4,8.5,0.1,12.4-1.3c4-1.2,7.3-4.1,9-8c1.7-3.8,2-8.1,1.7-12.3c0-0.1,0.1-0.2,0.2-0.2
					C146.1,124.1,146.2,124.2,146.2,124.3z"/>
			</g>
			<g>
				<path class="st26" d="M146,102c-0.6,0.9-1,2.1-1.3,3.3c-0.3,1.2-0.4,2.4-0.4,3.6c0,1.2,0.1,2.4,0.3,3.6c0.2,1.2,0.4,2.4,0.5,3.7
					c0.4,5-0.7,10.1-3.2,14.4c-0.1,0.1-0.2,0.1-0.3,0.1c-0.1-0.1-0.1-0.2-0.1-0.2c2.3-4.3,3.1-9.4,2.6-14.2
					c-0.1-1.2-0.3-2.4-0.5-3.6c-0.2-1.2-0.3-2.5-0.2-3.8c0-1.3,0.1-2.5,0.4-3.8c0.3-1.2,0.7-2.4,1.5-3.6c0.1-0.2,0.3-0.2,0.5-0.1
					C146.1,101.5,146.1,101.8,146,102L146,102z"/>
			</g>
			<g>
				<path class="st26" d="M146.2,124.4c-0.1,1.3-0.6,2.6-1.3,3.7c-0.4,0.6-0.8,1.1-1.3,1.5c-0.5,0.5-1.1,0.8-1.7,1
					c-0.1,0-0.2,0-0.2-0.1c0-0.1,0-0.2,0.1-0.2l0,0c0.5-0.4,1-0.7,1.4-1.2c0.4-0.4,0.8-0.9,1.1-1.5c0.7-1,1.2-2.2,1.5-3.4l0,0
					c0-0.1,0.1-0.2,0.2-0.1C146.2,124.2,146.2,124.3,146.2,124.4z"/>
			</g>
			<path class="st24" d="M141.7,130.5l-0.9,2c-0.2,0.4,0.2,0.8,0.6,0.6c1.6-0.9,4.2-3.1,4.6-8.1C145.9,125,144.5,129.7,141.7,130.5z
				"/>
		</g>
		<path class="st84" d="M41.1,47.7c0,0-40.7-33.5,25.6-13.6"/>
		<path class="st84" d="M126.6,47.7c0,0,40.7-33.5-25.6-13.6L126.6,47.7z"/>
		<g>
			<g>
				<path class="st26" d="M40.9,47.9c-3.9-3.3-7.7-6.8-10.6-11.1c-0.7-1.1-1.4-2.2-1.7-3.5c-0.2-0.6-0.3-1.3-0.2-2.1
					c0.1-0.7,0.4-1.4,0.9-2c0.5-0.5,1.1-0.9,1.8-1.1c0.6-0.3,1.3-0.4,1.9-0.5c1.3-0.2,2.6-0.3,3.9-0.3c5.2,0.2,10.2,1.2,15.2,2.5
					c5,1.2,9.9,2.7,14.7,4.2c0.1,0,0.2,0.1,0.1,0.2c0,0.1-0.1,0.1-0.2,0.1c-4.9-1.4-9.8-2.7-14.8-3.8c-2.5-0.5-5-1-7.5-1.4
					c-2.5-0.4-5-0.7-7.5-0.8c-1.3,0-2.5,0-3.7,0.2c-1.2,0.2-2.4,0.6-3.2,1.4c-0.8,0.8-0.9,2-0.5,3.2c0.3,1.2,0.9,2.3,1.6,3.3
					c1.4,2.1,3,4,4.8,5.9c1.7,1.8,3.6,3.6,5.5,5.3l0,0c0.1,0.1,0.1,0.3,0,0.4C41.2,48,41,48,40.9,47.9z"/>
			</g>
			<g>
				<path class="st26" d="M57.7,36.4c-2.1-0.5-4.3-0.9-6.4-1.3c-2.1-0.3-4.3-0.6-6.4-0.8c-2.2-0.2-4.3-0.4-6.5-0.5
					c-2.2-0.1-4.3-0.1-6.5,0c-0.1,0-0.2-0.1-0.2-0.2c0-0.1,0.1-0.2,0.2-0.2c2.2-0.3,4.4-0.4,6.6-0.4c2.2,0,4.4,0,6.6,0.3
					c2.2,0.3,4.3,0.6,6.5,1.1c2.1,0.5,4.3,1.1,6.3,1.8c0.1,0,0.1,0.1,0.1,0.2C57.9,36.3,57.8,36.4,57.7,36.4z"/>
			</g>
			<path class="st26" d="M46.7,42.9c0.6,0.1,1.3,0.2,1.9,0.1c0.6-0.1,1.1-0.5,1.7-0.9c2.1-1.5,4.1-3,6.1-4.6
				c0.3-0.2,0.6-0.5,0.5-0.9c0-0.2,3.9,0.5,1-0.3c-1.1-0.3-3.3-1.1-4.4-1.3c-4.7-0.8-9.4-1.5-14.1-1.9c-5.1-0.4,0.2,5.8,1.8,7.1
				C42.8,41.6,44.7,42.5,46.7,42.9z"/>
		</g>
		<g>
			<g>
				<path class="st26" d="M126.4,47.5c1.9-1.7,3.8-3.4,5.5-5.3c1.7-1.8,3.4-3.8,4.8-5.9c0.7-1.1,1.3-2.2,1.6-3.3
					c0.3-1.1,0.3-2.4-0.5-3.2c-0.8-0.8-2-1.2-3.2-1.4c-1.2-0.2-2.5-0.2-3.7-0.2c-2.5,0.1-5,0.4-7.5,0.8c-2.5,0.4-5,0.9-7.5,1.4
					c-5,1.1-9.9,2.4-14.8,3.8c-0.1,0-0.2,0-0.2-0.1c0-0.1,0-0.2,0.1-0.2c4.9-1.5,9.8-3,14.7-4.2c5-1.2,10-2.3,15.2-2.5
					c1.3,0,2.6,0,3.9,0.3c0.7,0.1,1.3,0.3,1.9,0.5c0.6,0.2,1.3,0.6,1.8,1.1c0.5,0.5,0.8,1.2,0.9,2c0.1,0.7,0,1.4-0.2,2.1
					c-0.4,1.3-1,2.5-1.7,3.5c-2.9,4.3-6.7,7.8-10.6,11.1c-0.1,0.1-0.3,0.1-0.4,0C126.3,47.7,126.3,47.6,126.4,47.5L126.4,47.5z"/>
			</g>
			<g>
				<path class="st26" d="M109.9,36.1c2.1-0.7,4.2-1.3,6.3-1.8c2.1-0.5,4.3-0.8,6.5-1.1c2.2-0.3,4.4-0.3,6.6-0.3
					c2.2,0,4.4,0.2,6.6,0.4c0.1,0,0.2,0.1,0.2,0.2c0,0.1-0.1,0.2-0.2,0.2c-2.2-0.1-4.3-0.1-6.5,0c-2.2,0.1-4.3,0.3-6.5,0.5
					c-2.2,0.2-4.3,0.5-6.4,0.8c-2.1,0.4-4.3,0.8-6.4,1.3c-0.1,0-0.1,0-0.2-0.1C109.8,36.2,109.9,36.1,109.9,36.1z"/>
			</g>
			<path class="st26" d="M121,42.9c-0.6,0.1-1.3,0.2-1.9,0.1c-0.6-0.1-1.1-0.5-1.7-0.9c-2.1-1.5-4.1-3-6.1-4.6
				c-0.3-0.2-0.6-0.5-0.5-0.9c0-0.2,0.2-0.3,0.3-0.4c0.8-0.8,2-1,3.1-1.2c4.7-0.8,9.4-1.5,14.1-1.9c5.1-0.4-0.2,5.8-1.8,7.1
				C124.9,41.6,123,42.5,121,42.9z"/>
		</g>
		<path class="st141" d="M135.2,81.6c0,0,1.3-5.7-1.6-13.9c-1.7-4.8-5.5-8.9-8.1-11.8c0,0,4.6,2.8,7.8,6.5c0,0-2.2-9.5-7.7-15.1
			c-4.7-4.8-9.4-6.2-9.4-6.2s5.9,0.9,9,1.9c0,0-2.4-2.9-9.2-5.8c-6.8-2.9-9.1-2.5-9.1-2.5s3-1,7.2-0.5c0,0-1.7-2.3-7.4-3.1
			c-5.7-0.8-13,0.1-13,0.1s4.3-2.8,11.4-3.1c0,0-3.9-2.9-9.7-2.7c-5.8,0.2-11,4.1-11,4.1s-5.4-3.4-10.3-4.1
			c-4.9-0.7-9.1,0.7-10.5,1.7c0,0,6.9,0.6,11.4,3.4c0,0-6.7-0.7-11.3-0.4c-4.5,0.3-7.8,1-9.6,2.8c0,0,4.9-0.2,7.1,0.6
			c0,0-7.6,1.4-11.2,3.2c-3.5,1.7-5,2.3-6.8,4c0,0,6.3-1.2,8.5-1.3c0,0-6.8,3.6-9.3,6.3c-2.5,2.7-5.1,6.5-6.3,9.1
			c-1.1,2.5-2.2,5.1-2.2,5.1s5.2-4.9,7.5-5.7c0,0-5.1,5.4-6.5,8c-1,1.9-3.1,5.7-4,12.4c-0.5,3.8-0.1,4.2-0.2,4.4
			c0.2-0.4,3.2-5.2,4.3-5.7c0,0-2.2,7.1-1.8,11.9c0.4,5.4,3.5,11.5,3.5,11.5s0.9-6.1,1.5-7.2c0,0-0.3,4.2,1.2,9
			c1.5,4.8,3.4,6.7,3.4,6.7s0.5-0.4,0.8-3.5l0.5-3.6c0,0,1.7,4.4,3.9,7.9c2.2,3.4,3.5,4.2,3.5,4.2s5.4-2.8,9.4-7.7l1,1.7
			c-1.3,3.9-6.5,15.2-8.9,22.4c-2.9,8.7-4.8,14.5-2.6,20.2c2.2,5.7,8.1,6.8,15.8,7.1l0.1,1.5c0,0-3,1.1-1.8,3s4.1,1.7,4.7,1
			c0.6-0.8,2.2-5.4,2.2-5.4l10.6,0.1l12.8-0.1h2.1c0,0,1.2,5.1,2,5.5c0.9,0.4,3.4,0.2,3.9-0.3c0.5-0.5,1.1-1.7,0.4-2.5
			c-0.7-0.8-1.5-1.2-1.5-1.2l-0.1-1.5c0,0,7.9-0.3,10.6-1.5c2.7-1.2,5.2-4.8,5.6-6.8c0.4-2,0.4-6.1-0.1-8s-2.5-9.3-2.5-9.3
			l-3.3-10.2l-3.8-9.4c0.2-0.8,1.5,1.1,5,3.2c0,0,6.5-6.1,8.1-11.9c0,0,0,5.3,0.8,7.6c0,0,3.1-3.2,4.8-9.7c0.8-2.9,0.6-5.1,0.7-5.9
			l1.1,7.6c0,0,3.6-7.2,4.3-12.7c0.6-4.1-1.5-11.1-1.5-11.1S133.4,77.6,135.2,81.6z"/>
		<g>
			<defs>
				<path id="SVGID_110_" d="M135.2,81.6c0,0,1.3-5.7-1.6-13.9c-1.7-4.8-5.5-8.9-8.1-11.8c0,0,4.6,2.8,7.8,6.5c0,0-2.2-9.5-7.7-15.1
					c-4.7-4.8-9.4-6.2-9.4-6.2s5.9,0.9,9,1.9c0,0-2.4-2.9-9.2-5.8c-6.8-2.9-9.1-2.5-9.1-2.5s3-1,7.2-0.5c0,0-1.7-2.3-7.4-3.1
					c-5.7-0.8-13,0.1-13,0.1s4.3-2.8,11.4-3.1c0,0-3.9-2.9-9.7-2.7c-5.8,0.2-11,4.1-11,4.1s-5.4-3.4-10.3-4.1
					c-4.9-0.7-9.1,0.7-10.5,1.7c0,0,6.9,0.6,11.4,3.4c0,0-6.7-0.7-11.3-0.4c-4.5,0.3-7.8,1-9.6,2.8c0,0,4.9-0.2,7.1,0.6
					c0,0-7.6,1.4-11.2,3.2c-3.5,1.7-5,2.3-6.8,4c0,0,6.3-1.2,8.5-1.3c0,0-6.8,3.6-9.3,6.3c-2.5,2.7-5.1,6.5-6.3,9.1
					c-1.1,2.5-2.2,5.1-2.2,5.1s5.2-4.9,7.5-5.7c0,0-5.1,5.4-6.5,8c-1,1.9-3.1,5.7-4,12.4c-0.5,3.8-0.1,4.2-0.2,4.4
					c0.2-0.4,3.2-5.2,4.3-5.7c0,0-2.2,7.1-1.8,11.9c0.4,5.4,3.5,11.5,3.5,11.5s0.9-6.1,1.5-7.2c0,0-0.3,4.2,1.2,9
					c1.5,4.8,3.4,6.7,3.4,6.7s0.5-0.4,0.8-3.5l0.5-3.6c0,0,1.7,4.4,3.9,7.9c2.2,3.4,3.5,4.2,3.5,4.2s5.4-2.8,9.4-7.7l1,1.7
					c-1.3,3.9-6.5,15.2-8.9,22.4c-2.9,8.7-4.8,14.5-2.6,20.2c2.2,5.7,8.1,6.8,15.8,7.1l0.1,1.5c0,0-3,1.1-1.8,3s4.1,1.7,4.7,1
					c0.6-0.8,2.2-5.4,2.2-5.4l10.6,0.1l12.8-0.1h2.1c0,0,1.2,5.1,2,5.5c0.9,0.4,3.4,0.2,3.9-0.3c0.5-0.5,1.1-1.7,0.4-2.5
					c-0.7-0.8-1.5-1.2-1.5-1.2l-0.1-1.5c0,0,7.9-0.3,10.6-1.5c2.7-1.2,5.2-4.8,5.6-6.8c0.4-2,0.4-6.1-0.1-8s-2.5-9.3-2.5-9.3
					l-3.3-10.2l-3.8-9.4c0.2-0.8,1.5,1.1,5,3.2c0,0,6.5-6.1,8.1-11.9c0,0,0,5.3,0.8,7.6c0,0,3.1-3.2,4.8-9.7
					c0.8-2.9,0.6-5.1,0.7-5.9l1.1,7.6c0,0,3.6-7.2,4.3-12.7c0.6-4.1-1.5-11.1-1.5-11.1S133.4,77.6,135.2,81.6z"/>
			</defs>
			<clipPath id="SVGID_2_">
				<use xlink:href="#SVGID_110_"  style="overflow:visible;"/>
			</clipPath>
			<g style="clip-path:url(#SVGID_2_);">
				<g>
					<path class="st84" d="M137.3,67.8c-0.8-1.5-2.4-2.6-4.1-2.7c-1.6-0.1-2.8,1.4-3.6,2.7c-0.6,1.1-1,2.3-0.8,3.5
						c0.1,1,0.6,1.9,1.2,2.8c0.7,1.1,1.4,2.1,2.2,3.1c0.4,0.5,1.3,1.8,1.4,2.2c0.1,1,1.9,3.1,2.5,4
						C136.5,84.5,138.1,69.4,137.3,67.8z"/>
					<path class="st84" d="M126.7,58.2c-0.2,1.1,0,2.2,0.5,3.1c0.3,0.5,0.6,1.1,1.1,1.4c0.7,0.5,1.6,0.7,2.5,0.7
						c1.1,0.1,2.3-0.1,3-0.9c0.4-0.5,0.6-1.2,0.5-1.9c-0.1-0.7-0.4-1.3-0.8-1.9c-0.9-1.3-2.3-2.3-3.8-2.7c-0.7-0.2-1.2-0.4-1.8,0
						C127.3,56.5,126.8,57.4,126.7,58.2z"/>
					<path class="st84" d="M126.1,66.9c0.1,0.2,0.3,0.4,0.5,0.5c0.2,0.1,0.3,0.3,0.5,0.4c0.5,0.2,1.1,0,1.5-0.3
						c0.4-0.3,0.7-0.8,0.9-1.3c0.2-0.4,0.3-0.8,0.3-1.2c-0.2-1-2-1.8-2.8-1.3C126,64.3,125.6,66.1,126.1,66.9z"/>
					<path class="st84" d="M123,61.3c0.3,0.4,0.7,0.8,1.2,1c0.2,0.1,0.3,0.1,0.5,0c0.1,0,0.2-0.1,0.3-0.2c0.4-0.6,0.5-1.4,0.2-2.1
						c-0.3-0.6-1.2-1.4-1.9-1.1C122.3,59.3,122.6,60.7,123,61.3z"/>
					<path class="st84" d="M121.2,57.8c0.3,0.3,0.6,0.5,1,0.5c0.4,0,0.8-0.2,0.9-0.6c0.1-0.2,0.1-0.4,0-0.5c-0.1-0.7-0.8-2-1.7-1.8
						C120.5,55.6,120.6,57.1,121.2,57.8z"/>
					<path class="st84" d="M121.8,65.7c0.2,0.2,0.5,0.3,0.7,0.3c0.2,0,0.5,0.1,0.7,0.1c0.2,0,0.4,0.1,0.6,0c0.2-0.1,0.4-0.2,0.4-0.5
						c0-0.1-0.1-0.3-0.2-0.4c-0.4-0.4-0.9-0.7-1.3-1c-0.2-0.1-0.3-0.2-0.5-0.2C121.6,64.3,121.5,65.4,121.8,65.7z"/>
					<path class="st84" d="M123,71.7c0,0.3,0,0.6,0,0.9c0,0.5,0.1,1,0.3,1.4c0.4,0.7,1.3,1.1,2.1,1c0.8-0.2,1.4-0.9,1.5-1.7
						c0-0.5-0.2-1.1,0.1-1.6c0.1-0.1,0.2-0.3,0.2-0.4c0.6-1.1-0.7-3-1.9-2.9C124.1,68.6,123.1,70.7,123,71.7z"/>
					<path class="st84" d="M127.5,78.1c0.8,0.3,1.7,0.2,2.5,0.1c0.2,0,0.4-0.1,0.5-0.2c0.3-0.6-1.8-1.5-2.3-1.5
						C127.3,76.3,126.4,77.6,127.5,78.1z"/>
				</g>
				<g>
					<path class="st84" d="M31.6,78.6c0.7-0.6,1.2-1.4,1.7-2.2c0.4-0.6,0.8-1.3,1.1-2c0.4-1.1,0.3-2.3,0.2-3.5
						c-0.1-0.6-0.2-1.2-0.5-1.7c-0.3-0.4-0.7-0.8-1.2-1.1c-0.5-0.4-1.2-0.8-1.7-0.5c-0.2,0.1-0.4,0.3-0.5,0.5
						c-1.1,1.7-1.9,3.6-2.2,5.7c-0.2,1-0.2,2.1-0.1,3.1c0,0.7,0,2.2,0.6,2.7C29.7,80.1,31,79.1,31.6,78.6z"/>
					<path class="st84" d="M37.1,64.9c0.5-0.2,1-0.6,1.4-1c0.4-0.4,0.8-0.8,0.9-1.3c0.2-0.5,0.2-1,0.2-1.5c0-0.7-0.1-1.3-0.2-2
						c0-0.2-0.1-0.4-0.2-0.6c-0.2-0.5-0.9-0.7-1.4-0.6c-0.5,0.1-1,0.5-1.3,0.9c-0.3,0.4-0.6,0.9-0.9,1.4c-0.6,1.1-2,2.5-2,3.8
						C33.9,65.4,36.3,65.2,37.1,64.9z"/>
					<path class="st84" d="M40.8,55.9c-0.2,0.4-0.4,0.9-0.2,1.4c0.1,0.2,0.4,0.4,0.7,0.4c0.4,0.1,0.8,0,1.2-0.2
						c0.3-0.2,0.6-0.6,0.6-1c0-0.2-0.1-0.4-0.2-0.6c-0.1-0.3-0.3-0.5-0.6-0.7C41.7,54.9,41.1,55.4,40.8,55.9z"/>
					<path class="st84" d="M40.8,64.8C41,65,41.3,65,41.6,65c0.4-0.1,0.8-0.3,1.2-0.6c0.2-0.2,0.5-0.4,0.6-0.6
						c1-1.3-0.1-2.7-1.6-2.2C40.7,61.9,40.1,64,40.8,64.8z"/>
					<path class="st84" d="M37.1,68c0.2,0.3,0.4,0.7,0.6,1c0.1,0.1,0.1,0.2,0.2,0.2c0.1,0.1,0.3,0.1,0.4,0.1c0.5,0,1-0.1,1.3-0.4
						c0.2-0.2,0.4-0.5,0.5-0.8c0.2-0.5,0.3-1,0.2-1.5c-0.1-0.5-0.4-0.9-0.9-1.1c-0.3-0.1-0.7-0.1-1.1,0C36.9,65.8,36.4,66.7,37.1,68
						z"/>
					<path class="st84" d="M44.1,68.2c0.3-0.2,0.5-0.6,0.4-1c0-0.1-0.1-0.1-0.1-0.2c0,0-0.1-0.1-0.2-0.1c-0.6-0.2-2.2,0-2.2,0.9
						C41.9,68.7,43.6,68.5,44.1,68.2z"/>
					<path class="st84" d="M38.5,73.2c0.1,0.3,0.4,0.6,0.5,1c0.3,0.8-0.1,1.8,0.5,2.5c0.2,0.2,0.4,0.4,0.7,0.5
						c0.4,0.2,0.8,0.3,1.3,0.2c0.9-0.2,1.4-1.1,1.5-2c0.1-0.9-0.3-1.7-0.6-2.6c-0.1-0.3-0.2-0.6-0.4-0.9c-0.1-0.3-0.2-0.6-0.4-0.8
						C40.3,69.6,37.7,71.5,38.5,73.2z"/>
					<path class="st84" d="M38,79.7c0.7-0.6-0.1-1.1-0.7-1.1c-0.6,0-1.1,0.2-1.5,0.7C35,80.7,37.5,80.1,38,79.7z"/>
				</g>
				<g>
					<path class="st84" d="M107.2,111.1c-0.2,0.4-0.2,0.9-0.2,1.3c0,0.3,0,0.6,0.1,0.9c0.2,0.5,0.7,0.7,1.2,0.8c0.5,0.1,1,0,1.5-0.2
						c0.3-0.1,0.7-0.3,0.9-0.6c0.2-0.3,0.2-0.7,0.1-1.1C110.5,110.6,108.4,109.1,107.2,111.1z"/>
					<path class="st84" d="M109.2,118.7c0,1.3,0.4,2.5,1.2,3.5c0.8,1,2,1.7,3.3,1.7c0.3,0,0.7,0,1-0.2c0.5-0.2,0.8-0.7,0.9-1.3
						c0.1-0.5,0.1-1.1,0-1.6c-0.3-1.8-1.1-3.5-2.2-4.9c-0.8-1-1.7-1.6-2.7-0.7C109.6,116.2,109.2,117.4,109.2,118.7z"/>
					<path class="st84" d="M108.1,115.6c-0.5-0.5-1.6-0.3-1.9,0c-0.3,0.2,0,0.7,0.4,0.9c0.3,0.1,0.7,0.1,1,0c0.3,0,0.8-0.2,0.7-0.5
						C108.3,115.8,108.2,115.7,108.1,115.6z"/>
					<path class="st84" d="M106.9,119.9c-0.4-0.4-0.9-0.5-1.4-0.5c-0.4,0-0.8,0.5-0.9,0.9c0,0.1-0.1,0.3,0,0.6
						c0.1,0.3,0.3,0.6,0.6,0.7c0.2,0.1,0.3,0.1,0.5,0.1c0.5,0,1.1,0,1.4-0.4C107.4,120.9,107.3,120.3,106.9,119.9z"/>
					<path class="st84" d="M102.1,123.9c-0.2,0.2,0,0.6,0.3,0.8c0.2,0.2,0.5,0.3,0.9,0.3c0.4,0,0.7-0.1,1-0.4c0.2-0.3,0.2-0.7,0-1
						c-0.2-0.1-0.4-0.2-0.6-0.2C103.1,123.5,102.4,123.6,102.1,123.9z"/>
					<path class="st84" d="M110.5,127.6c0.4-0.2,0.6-0.6,0.7-1c0.1-0.4,0.1-0.9,0.1-1.3c0-1.4-2.9-0.8-3.4,0.1
						C107,127.1,109,128.5,110.5,127.6z"/>
					<path class="st84" d="M113.2,126.3c-0.2,0.1-0.4,0.3-0.6,0.5c-0.4,0.5-0.5,1.3-0.2,1.9c0.3,0.6,0.9,1,1.6,1.2
						c0.7,0.2,1.4,0.1,2,0c0.5-0.1,1.1-0.3,1.3-0.8c0.1-0.2,0.2-0.5,0.2-0.8c0.1-1-0.1-2.4-1-3C115.7,124.8,114,125.8,113.2,126.3z"
						/>
					<path class="st84" d="M108.3,132.2c0.1,0.2,0.2,0.3,0.3,0.5c0.2,0.2,0.5,0.2,0.7,0.2c0.6,0,1.1-0.1,1.7-0.2
						c0.4-0.1,0.8-0.3,1.1-0.5c0.3-0.2,0.6-0.6,0.6-1c0-0.5-0.3-1-0.8-1.3c-0.5-0.3-1-0.3-1.5-0.3c-0.7,0-1.9,0.1-2.4,0.6
						C107.4,130.8,108,131.5,108.3,132.2z"/>
					<path class="st84" d="M113.4,134.9c0.6,0.5,1.4,0.6,2.2,0.7c0.6,0,1.3,0,1.7-0.4c0.5-0.4,0.7-1.1,0.7-1.7c0-0.2,0-0.4-0.1-0.6
						c-0.2-0.4-0.8-0.6-1.3-0.6c-1-0.1-2.4-0.3-3.3,0.4C112.5,133.3,112.7,134.3,113.4,134.9z"/>
					<path class="st84" d="M110.3,140.6c0.1,0.1,0.2,0.2,0.3,0.2c0.2,0.1,0.4,0,0.6,0c0.4-0.1,0.7-0.1,1.1-0.2
						c0.3-0.1,0.6-0.1,0.9-0.3c0.4-0.3,0.5-1,0.5-1.5c0-0.4,0-0.7,0-1.1c-0.1-0.3-0.3-0.7-0.6-0.9c-0.2-0.1-0.4-0.1-0.5-0.2
						C109.7,136.2,108.2,138.5,110.3,140.6z"/>
					<path class="st84" d="M107.2,136.1c0.5,0,0.9-0.1,1.3-0.3c0.2-0.1,0.5-0.2,0.6-0.5c0.1-0.3,0-0.6-0.1-0.9
						c-0.3-0.5-0.9-0.7-1.5-0.7C106.1,133.9,105.4,135.9,107.2,136.1z"/>
					<path class="st84" d="M104.1,127.9c-0.3,0.3-0.2,0.9,0.1,1.1c0.4,0.3,0.8,0.3,1.3,0.1c0.4-0.1,0.7-0.3,0.8-0.7
						c0.1-0.4-0.3-0.8-0.7-0.9s-0.8,0-1.3,0.1"/>
					<path class="st84" d="M115.7,138.5c-0.9,1.2-1.1,2.9-0.4,4.2c0.2,0.4,0.5,0.8,0.9,1.1c0.8,0.7,1.8,1.2,2.9,1.3
						c0.4,0.1,0.8,0.1,1.1-0.1c0.4-0.2,0.6-0.7,0.7-1.1c0.5-2.1-0.1-4.3-1.1-6.2C118.7,136,116.7,137.2,115.7,138.5z"/>
				</g>
				<g>
					<path class="st84" d="M62.2,108.9c0.2,0.4,0.2,0.9,0.2,1.3c0,0.3,0,0.6-0.1,0.9c-0.2,0.5-0.7,0.7-1.2,0.8s-1,0-1.5-0.2
						c-0.3-0.1-0.7-0.3-0.9-0.6c-0.2-0.3-0.2-0.7-0.1-1.1C59,108.3,61,106.9,62.2,108.9z"/>
					<path class="st84" d="M60.3,116.4c0,1.3-0.4,2.5-1.2,3.5c-0.8,1-2,1.7-3.3,1.7c-0.3,0-0.7,0-1-0.2c-0.5-0.2-0.8-0.7-0.9-1.3
						c-0.1-0.5-0.1-1.1,0-1.6c0.3-1.8,1.1-3.5,2.2-4.9c0.8-1,1.7-1.6,2.7-0.7C59.8,114,60.2,115.2,60.3,116.4z"/>
					<path class="st84" d="M61.3,113.3c0.5-0.5,1.6-0.3,1.9,0c0.3,0.2,0,0.7-0.4,0.9c-0.3,0.1-0.7,0.1-1,0c-0.3,0-0.8-0.2-0.7-0.5
						C61.2,113.6,61.2,113.4,61.3,113.3z"/>
					<path class="st84" d="M62.5,117.6c0.4-0.4,0.9-0.5,1.4-0.5c0.4,0,0.8,0.5,0.9,0.9c0,0.1,0.1,0.3,0,0.6
						c-0.1,0.3-0.3,0.6-0.6,0.7c-0.2,0.1-0.3,0.1-0.5,0.1c-0.5,0-1.1,0-1.4-0.4C62,118.7,62.1,118,62.5,117.6z"/>
					<path class="st84" d="M67.3,121.6c0.2,0.2,0,0.6-0.3,0.8c-0.2,0.2-0.5,0.3-0.9,0.3c-0.4,0-0.7-0.1-1-0.4c-0.2-0.3-0.2-0.7,0-1
						c0.2-0.1,0.4-0.2,0.6-0.2C66.4,121.2,67.1,121.4,67.3,121.6z"/>
					<path class="st84" d="M58.9,125.4c-0.4-0.2-0.6-0.6-0.7-1c-0.1-0.4-0.1-0.9-0.1-1.3c0-1.4,2.9-0.8,3.4,0.1
						C62.4,124.9,60.4,126.2,58.9,125.4z"/>
					<path class="st84" d="M56.2,124.1c0.2,0.1,0.4,0.3,0.6,0.5c0.4,0.5,0.5,1.3,0.2,1.9s-0.9,1-1.6,1.2c-0.7,0.2-1.4,0.1-2,0
						c-0.5-0.1-1.1-0.3-1.3-0.8c-0.1-0.2-0.2-0.5-0.2-0.8c-0.1-1,0.1-2.4,1-3C53.8,122.6,55.4,123.5,56.2,124.1z"/>
					<path class="st84" d="M61.1,129.9c-0.1,0.2-0.2,0.3-0.3,0.5c-0.2,0.2-0.5,0.2-0.7,0.2c-0.6,0-1.1-0.1-1.7-0.2
						c-0.4-0.1-0.8-0.3-1.1-0.5s-0.6-0.6-0.6-1c0-0.5,0.3-1,0.8-1.3c0.5-0.3,1-0.3,1.5-0.3c0.7,0,1.9,0.1,2.4,0.6
						C62,128.6,61.4,129.3,61.1,129.9z"/>
					<path class="st84" d="M56,132.7c-0.6,0.5-1.4,0.6-2.2,0.7c-0.6,0-1.3,0-1.7-0.4c-0.5-0.4-0.7-1.1-0.7-1.7c0-0.2,0-0.4,0.1-0.6
						c0.2-0.4,0.8-0.6,1.3-0.6c1-0.1,2.4-0.3,3.3,0.4C57,131,56.7,132.1,56,132.7z"/>
					<path class="st84" d="M59.2,138.3c-0.1,0.1-0.2,0.2-0.3,0.2c-0.2,0.1-0.4,0-0.6,0c-0.4-0.1-0.7-0.1-1.1-0.2
						c-0.3-0.1-0.6-0.1-0.9-0.3c-0.4-0.3-0.5-1-0.5-1.5c0-0.4,0-0.7,0-1.1c0.1-0.3,0.3-0.7,0.6-0.9c0.2-0.1,0.4-0.1,0.5-0.2
						C59.7,134,61.2,136.2,59.2,138.3z"/>
					<path class="st84" d="M62.2,133.8c-0.5,0-0.9-0.1-1.3-0.3c-0.2-0.1-0.5-0.2-0.6-0.5c-0.1-0.3,0-0.6,0.1-0.9
						c0.3-0.5,0.9-0.7,1.5-0.7C63.4,131.6,64.1,133.7,62.2,133.8z"/>
					<path class="st84" d="M65.4,125.7c0.3,0.3,0.2,0.9-0.1,1.1c-0.4,0.3-0.8,0.3-1.3,0.1c-0.4-0.1-0.7-0.3-0.8-0.7
						c-0.1-0.4,0.3-0.8,0.7-0.9s0.8,0,1.3,0.1"/>
					<path class="st84" d="M53.7,136.3c0.9,1.2,1.1,2.9,0.4,4.2c-0.2,0.4-0.5,0.8-0.9,1.1c-0.8,0.7-1.8,1.2-2.9,1.3
						c-0.4,0.1-0.8,0.1-1.1-0.1c-0.4-0.2-0.6-0.7-0.7-1.1c-0.5-2.1,0.1-4.3,1.1-6.2C50.7,133.7,52.7,135,53.7,136.3z"/>
				</g>
			</g>
		</g>
		<path class="st117" d="M61.9,104l-1.6,3.9c0,0,6.7,5.2,11.6,5.7c0,0,0-0.9-0.3-1.8c0,0,3.2,3.9,7.2,4.4c0,0,0.5-0.4,0.6-0.8
			c0,0,1.9,2.3,2.7,2.3c0.8,0,2.7-1.6,2.9-2.2c0,0,0.7,0.9,1.1,0.9s4.9-1.6,7.2-4.2c0,0,0.3,0.7,0.6,0.7s6.1,0.7,10.8-4.9l5.4,5.6
			l-2.4-5.9l-3.6-4.1c0,0-3.4,4-6.2,6l-3.6,1.9l0.6-2.7l-3.8,3.6c0,0-4,2.6-4.8,2.7c0,0-0.7-0.9-0.8-2.1c0,0-2.6,3.3-3.4,3.6
			c0,0-2.4-2.1-2.9-4c0,0-0.5,1.7-1,2.2c0,0-3.3-1.7-5-3.4c-1.7-1.6-3.7-3.7-3.7-3.7l0.8,3c0,0-2.3-1-4.6-3.1
			C63.4,105.7,61.9,104,61.9,104z"/>
		<path class="st118" d="M31.5,80.1C31.5,80.2,31.4,80.2,31.5,80.1C31.4,80.2,31.5,80.3,31.5,80.1z"/>
		<path class="st117" d="M43.3,40.6c0,0,6.9-3.4,13.8-2.6l-4.5,1.3L43.3,40.6"/>
		<path class="st117" d="M54.3,32.8c0,0,4.3-2.3,15,1.1c-0.4-0.1-7.3-0.2-7.3-0.2S57.6,32.3,54.3,32.8"/>
		<path class="st117" d="M30.8,78.9c0,0,1-7,6.4-9.7l-1.9,3.9L34.1,74L31,78.8L30.8,78.9"/>
		<path class="st117" d="M33.9,59.8c0,0,3-6.9,11.5-8.2c0,0-2.6,1.6-3.9,2.8l-1.2,0.2l-3.8,2.7L33.9,59.8z"/>
		<path class="st117" d="M36.7,96.5c0.1,0.2-2.5-8.1,3.3-13.4l0,0.1c-0.4,1.1-0.7,2.3-1,3.5l0,0L36.7,96.5"/>
		<path class="st117" d="M42.9,105.2c0,0-1.3-6.5,0.4-10.2l0.6,2.3L42.9,105.2z"/>
		<path class="st117" d="M57.8,105.9c-1.9,2.1-6,4.3-6,4.3l-0.4-0.1c0,0,3.1-2.6,5.4-5.1c2.1-2.3,3.3-4.2,3.3-4.2
			c0.6,1.4,1,1.6,1,1.6L57.8,105.9z"/>
		<path class="st117" d="M63.7,27.1c0,0,7.4-2.4,15.9,4.5c-0.5,0-4.4-1.1-4.4-1.1s-3.9-1.8-5.2-2.2c-1.6-0.4-6.4-1.1-6.4-1.1
			L63.7,27.1z"/>
		<g>
			<path class="st117" d="M128.5,99c-0.1,0.2,3.1-7.9-2.4-13.6l0,0.1c0.3,1.2,0.6,2.3,0.7,3.5l0,0L128.5,99"/>
			<path class="st117" d="M121.8,107.2c0,0,1.8-6.4,0.3-10.2l-0.8,2.2L121.8,107.2z"/>
			<path class="st117" d="M107.1,107.3c1.8,2.2,5.9,4.5,5.9,4.5l0.4-0.1c0,0-3-2.7-5.3-5.3c-2-2.4-3.2-4.4-3.2-4.4
				c-0.7,1.4-1,1.5-1,1.5L107.1,107.3z"/>
			<path class="st117" d="M105.3,28.4c0,0-7.3-2.9-16.2,3.4c0.5,0,4.5-0.8,4.5-0.8s4-1.5,5.4-1.8c1.6-0.3,6.5-0.6,6.5-0.6
				L105.3,28.4z"/>
			<path class="st117" d="M124.8,42.9c0,0-6.7-3.9-13.6-3.6l4.4,1.6L124.8,42.9"/>
			<path class="st117" d="M114.3,34.3c0,0-4.1-2.6-15,0.1c0.4-0.1,7.3,0.3,7.3,0.3S111,33.6,114.3,34.3"/>
			<path class="st117" d="M135.4,81.4c0,0-0.5-7-5.7-10.1l1.6,4l1.1,0.9l2.8,5.1L135.4,81.4"/>
			<path class="st117" d="M132.9,62.1c0,0-2.5-7-11-9c0,0,2.5,1.8,3.7,3.1l1.2,0.3l3.6,3L132.9,62.1z"/>
		</g>
		<g>
			<path class="st26" d="M84.4,29.6c-1.5-1-3.2-1.9-4.9-2.6c-1.7-0.7-3.5-1.2-5.4-1.4c-0.9-0.2-1.8-0.2-2.8-0.2
				c-0.9,0.1-1.8,0.1-2.8,0.3c-1.8,0.2-3.6,0.9-5.3,1.6l0,0c-0.1,0-0.2,0-0.2-0.1c0-0.1,0-0.2,0.1-0.2c1.7-0.9,3.4-1.7,5.4-2
				c0.5-0.1,0.9-0.2,1.4-0.2c0.5,0,1-0.1,1.4-0.1c1,0,1.9,0,2.9,0.2c1.9,0.3,3.8,0.8,5.5,1.5c1.8,0.8,3.4,1.7,4.9,3
				c0.1,0.1,0.1,0.2,0,0.2C84.6,29.6,84.5,29.7,84.4,29.6L84.4,29.6z"/>
		</g>
		<g>
			<path class="st26" d="M63.2,27c1.1-0.1,2.2,0,3.3,0.1c1.1,0.1,2.2,0.4,3.2,0.7c1.1,0.3,2.1,0.7,3.1,1.1c1,0.4,2,1,2.9,1.6
				c0.1,0.1,0.1,0.2,0.1,0.3c0,0.1-0.1,0.1-0.2,0.1l0,0c-1-0.4-2-0.9-3-1.2c-1-0.4-2-0.7-3.1-1c-1-0.3-2.1-0.5-3.1-0.8
				c-1.1-0.2-2.1-0.4-3.2-0.5l0,0c-0.1,0-0.2-0.1-0.2-0.2C63,27.1,63.1,27,63.2,27z"/>
		</g>
		<g>
			<path class="st26" d="M75.6,30.8c-1.8-0.2-3.7-0.4-5.6-0.4c-1.9-0.1-3.7-0.1-5.5,0c-1.8,0.1-3.7,0.3-5.5,0.7
				c-1.8,0.4-3.5,1-5,2.1c-0.1,0.1-0.2,0-0.3,0c-0.1-0.1,0-0.2,0-0.2c1.4-1.3,3.3-2,5.1-2.5c1.8-0.5,3.7-0.7,5.6-0.8
				c1.9-0.1,3.8,0,5.6,0.1c1.9,0.2,3.7,0.4,5.6,0.8c0.1,0,0.2,0.1,0.1,0.2C75.8,30.8,75.7,30.9,75.6,30.8z"/>
		</g>
		<g>
			<path class="st26" d="M53.9,32.8c1.4-0.4,2.8-0.4,4.2-0.4c1.4,0.1,2.8,0.3,4.1,0.9c0.1,0,0.1,0.2,0.1,0.2c0,0.1-0.1,0.1-0.2,0.1
				l0,0c-0.7-0.1-1.3-0.2-2-0.3c-0.7-0.1-1.3-0.2-2-0.2c-1.4-0.1-2.7-0.1-4.1-0.1l0,0c-0.1,0-0.2-0.1-0.2-0.2
				C53.8,32.9,53.8,32.8,53.9,32.8z"/>
		</g>
		<g>
			<path class="st26" d="M62.1,33.7c-1.7,0.1-3.5,0.4-5.2,0.8c-1.7,0.4-3.4,0.9-5,1.6c-1.6,0.6-3.2,1.4-4.8,2.2
				c-1.6,0.8-3,1.8-4.5,2.8l0,0c-0.1,0.1-0.2,0-0.3-0.1c-0.1-0.1,0-0.2,0-0.2c0.7-0.6,1.4-1.1,2.1-1.6c0.7-0.5,1.5-1,2.2-1.5
				c1.5-0.9,3.2-1.7,4.8-2.4c1.7-0.6,3.4-1.2,5.1-1.5c1.8-0.3,3.5-0.6,5.3-0.5c0.1,0,0.2,0.1,0.2,0.2C62.3,33.6,62.2,33.7,62.1,33.7
				L62.1,33.7z"/>
		</g>
		<g>
			<path class="st26" d="M42.6,40.8c1.6-0.7,3.3-1.1,5-1.4c0.9-0.1,1.7-0.3,2.6-0.3c0.9-0.1,1.7-0.1,2.6,0c0.1,0,0.2,0.1,0.2,0.2
				c0,0.1-0.1,0.2-0.2,0.2c-1.7,0.2-3.4,0.4-5,0.7c-1.7,0.3-3.3,0.7-5,0.9c-0.1,0-0.2,0-0.2-0.1C42.4,40.9,42.5,40.8,42.6,40.8z"/>
		</g>
		<g>
			<path class="st26" d="M52.8,39.4c-2.3,0.8-4.5,2-6.6,3.3c-2,1.3-3.9,2.9-5.4,4.8c-1.5,1.9-2.8,4-4,6.2c-1.1,2.2-2.2,4.4-3.1,6.7
				l0,0c0,0.1-0.1,0.1-0.2,0.1c-0.1,0-0.1-0.1-0.1-0.2c0.7-2.4,1.7-4.7,2.8-6.9c1.1-2.2,2.4-4.4,4-6.4c0.8-1,1.7-1.9,2.6-2.7
				c1-0.8,2-1.6,3.1-2.2c2.1-1.3,4.4-2.3,6.9-3c0.1,0,0.2,0,0.2,0.1C52.9,39.3,52.9,39.4,52.8,39.4L52.8,39.4z"/>
		</g>
		<g>
			<path class="st26" d="M33.5,60.3c1.1-1.5,2.4-2.8,3.8-4c0.7-0.6,1.5-1.1,2.3-1.6c0.8-0.5,1.7-0.9,2.5-1.1c0.1,0,0.2,0,0.2,0.1
				c0,0.1,0,0.2-0.1,0.2l0,0c-1.6,0.9-3.1,1.9-4.4,3c-1.4,1.1-2.7,2.4-4,3.6l0,0c-0.1,0.1-0.2,0.1-0.2,0
				C33.4,60.5,33.4,60.4,33.5,60.3z"/>
		</g>
		<g>
			<path class="st26" d="M42.2,53.9c-0.9,0.8-1.7,1.7-2.5,2.6c-0.8,0.9-1.6,1.8-2.3,2.8c-1.5,1.9-2.8,3.9-3.7,6.1
				c-0.9,2.2-1.5,4.5-2,6.9c-0.4,2.4-0.8,4.8-0.8,7.2l0,0c0,0.1-0.1,0.2-0.2,0.2c-0.1,0-0.2-0.1-0.2-0.2c-0.1-2.4,0.1-4.9,0.5-7.3
				c0.4-2.4,1-4.8,1.9-7.1c1-2.3,2.3-4.3,3.9-6.2c1.5-1.9,3.3-3.6,5.2-5.2c0.1-0.1,0.2,0,0.2,0C42.3,53.7,42.3,53.8,42.2,53.9
				L42.2,53.9z"/>
		</g>
		<g>
			<path class="st26" d="M30.6,79.3c0.4-1.3,1.1-2.5,1.8-3.6c0.4-0.6,0.8-1.1,1.2-1.6c0.5-0.5,0.9-1,1.5-1.4c0.1-0.1,0.2,0,0.3,0.1
				c0,0.1,0,0.2,0,0.2l0,0c-0.8,1-1.6,2.1-2.3,3.2c-0.7,1.1-1.4,2.2-2.2,3.3c-0.1,0.1-0.2,0.1-0.2,0C30.6,79.4,30.6,79.3,30.6,79.3z
				"/>
		</g>
		<g>
			<path class="st26" d="M35.5,72.8c-0.7,2-1.2,4-1.5,6.1c-0.3,2-0.5,4.1-0.3,6.2c0.2,2,0.7,4.1,1.2,6.1c0.6,2,1.2,4,2,5.9l0,0
				c0,0.1,0,0.2-0.1,0.2c-0.1,0-0.2,0-0.2-0.1c-1-1.9-1.8-3.9-2.4-5.9c-0.6-2-1.1-4.1-1.4-6.2c-0.2-2.1,0-4.3,0.4-6.4
				c0.4-2.1,1-4.1,1.9-6.1c0-0.1,0.1-0.1,0.2-0.1C35.5,72.6,35.5,72.7,35.5,72.8L35.5,72.8z"/>
		</g>
		<g>
			<path class="st26" d="M36.6,97.1c0-1.8,0.2-3.6,0.5-5.4c0.2-0.9,0.4-1.8,0.6-2.6c0.3-0.9,0.6-1.7,1.1-2.5
				c0.1-0.1,0.2-0.1,0.3-0.1c0.1,0,0.1,0.1,0.1,0.2c-0.3,0.8-0.5,1.7-0.7,2.5c-0.2,0.9-0.4,1.7-0.5,2.6c-0.3,1.7-0.6,3.5-0.9,5.2
				c0,0.1-0.1,0.2-0.2,0.1C36.7,97.3,36.6,97.2,36.6,97.1z"/>
		</g>
		<g>
			<path class="st26" d="M39.1,86.8c-0.4,1.5-0.6,3.2-0.5,4.8c0,1.6,0.3,3.2,0.7,4.8c0.4,1.6,0.9,3.1,1.6,4.6c0.3,0.8,0.7,1.5,1,2.2
				l1.2,2.2l0,0c0,0.1,0,0.2-0.1,0.2c-0.1,0-0.2,0-0.2-0.1c-0.5-0.7-0.9-1.4-1.4-2.1c-0.4-0.7-0.8-1.4-1.2-2.2
				c-0.7-1.5-1.3-3.1-1.7-4.7c-0.4-1.6-0.6-3.3-0.6-5c0-1.7,0.3-3.4,0.9-4.9c0-0.1,0.1-0.1,0.2-0.1C39.1,86.6,39.1,86.7,39.1,86.8
				L39.1,86.8z"/>
		</g>
		<g>
			<path class="st26" d="M42.7,105.4c0.2-1.3,0.4-2.7,0.6-4c0.2-1.3,0.3-2.7,0.4-4.1c0-0.1,0.1-0.2,0.2-0.2c0.1,0,0.1,0.1,0.2,0.2
				c0.1,0.7,0.1,1.4,0.1,2.1c0,0.7-0.1,1.4-0.1,2.1c-0.1,0.7-0.2,1.4-0.4,2.1c-0.2,0.7-0.4,1.3-0.7,2c0,0.1-0.1,0.1-0.2,0.1
				C42.7,105.6,42.7,105.5,42.7,105.4L42.7,105.4z"/>
		</g>
		<g>
			<path class="st26" d="M44.1,97.3c0.4,1.2,0.9,2.3,1.5,3.4c0.5,1.1,1.1,2.2,1.8,3.3c0.6,1.1,1.3,2.1,2,3.1c0.7,1,1.5,2,2.3,2.9
				l0,0c0.1,0.1,0.1,0.2,0,0.3c-0.1,0.1-0.2,0.1-0.2,0c-0.9-0.9-1.8-1.8-2.6-2.8c-0.8-1-1.5-2.1-2.2-3.1c-0.6-1.1-1.2-2.2-1.7-3.4
				c-0.5-1.2-0.9-2.4-1.2-3.6c0-0.1,0-0.2,0.1-0.2C43.9,97.2,44,97.2,44.1,97.3L44.1,97.3z"/>
		</g>
		<g>
			<path class="st26" d="M51.5,110c0.9-0.4,1.8-1,2.6-1.6c0.8-0.6,1.6-1.2,2.4-1.9c1.6-1.3,3-2.8,4.4-4.3c0.1-0.1,0.2-0.1,0.3,0
				c0.1,0.1,0.1,0.2,0,0.2c-0.3,0.4-0.6,0.8-0.9,1.3c-0.3,0.4-0.7,0.8-1,1.2c-0.7,0.8-1.4,1.5-2.2,2.2c-0.8,0.7-1.6,1.3-2.5,1.8
				c-0.9,0.5-1.8,1-2.9,1.3c-0.1,0-0.2,0-0.2-0.1C51.4,110.2,51.4,110.1,51.5,110L51.5,110z"/>
		</g>
		<g>
			<path class="st26" d="M61.1,102.4c0.7,0.8,1.3,1.6,2.1,2.4c0.7,0.8,1.4,1.5,2.2,2.2c0.7,0.7,1.6,1.4,2.4,2
				c0.8,0.6,1.7,1.2,2.6,1.7l0,0c0.1,0,0.1,0.2,0.1,0.2c0,0.1-0.1,0.1-0.2,0.1c-1-0.3-2-0.8-2.9-1.4c-0.9-0.6-1.7-1.3-2.5-2
				c-1.5-1.5-2.9-3.2-4-5.1c0-0.1,0-0.2,0.1-0.2C61,102.3,61.1,102.3,61.1,102.4L61.1,102.4z"/>
		</g>
		<g>
			<path class="st26" d="M70.2,110.8c-0.2-0.6-0.3-1.2-0.5-1.7c-0.1-0.3-0.2-0.6-0.3-0.9c-0.1-0.3-0.2-0.6-0.3-0.9l0,0
				c0-0.1,0-0.2,0.1-0.2c0.1,0,0.1,0,0.2,0c0.5,0.5,0.8,1.1,1,1.7c0.2,0.6,0.3,1.3,0.1,2c0,0.1-0.1,0.1-0.2,0.1
				C70.2,111,70.2,110.9,70.2,110.8L70.2,110.8z"/>
		</g>
		<g>
			<path class="st26" d="M69.4,107.2c1.4,1.4,2.7,2.8,4.2,4.1c1.4,1.3,3,2.5,4.7,3.4l0,0c0.1,0,0.1,0.2,0.1,0.2
				c0,0.1-0.1,0.1-0.2,0.1c-1-0.3-1.9-0.8-2.7-1.3c-0.8-0.5-1.6-1.2-2.4-1.8c-1.5-1.4-2.8-2.9-3.9-4.5c-0.1-0.1,0-0.2,0.1-0.2
				C69.3,107.1,69.4,107.1,69.4,107.2L69.4,107.2z"/>
		</g>
		<g>
			<path class="st26" d="M78.1,114.8c0-0.2,0.1-0.4,0.1-0.6c0-0.2,0.1-0.4,0.1-0.7c0.1-0.4,0.2-0.9,0.5-1.3c0-0.1,0.2-0.1,0.3-0.1
				c0,0,0.1,0.1,0.1,0.1c0.1,0.2,0.1,0.5,0.1,0.7c0,0.2-0.1,0.5-0.1,0.7c-0.1,0.2-0.2,0.5-0.3,0.7c-0.1,0.2-0.3,0.4-0.5,0.6
				c-0.1,0.1-0.2,0-0.2,0C78.1,115,78.1,114.9,78.1,114.8L78.1,114.8z"/>
		</g>
		<g>
			<path class="st26" d="M79.2,112.2c0.5,0.8,1,1.5,1.5,2.2c0.2,0.4,0.5,0.7,0.8,1.1c0.3,0.4,0.6,0.7,0.8,1.1l0,0
				c0.1,0.1,0,0.2,0,0.3c-0.1,0-0.1,0-0.2,0c-0.8-0.5-1.5-1.2-2.1-1.9c-0.5-0.8-1-1.6-1.1-2.6c0-0.1,0-0.2,0.1-0.2
				C79,112.1,79.1,112.1,79.2,112.2L79.2,112.2z"/>
		</g>
		<g>
			<g>
				<path class="st26" d="M84.4,29.3c1.5-1.1,3.3-2,5-2.7c1.8-0.7,3.7-1.1,5.6-1.2c1-0.1,1.9,0,2.9,0c0.5,0,1,0.1,1.4,0.2
					c0.5,0,0.9,0.2,1.4,0.3c1.9,0.4,3.6,1.3,5.2,2.3c0.1,0.1,0.1,0.2,0.1,0.3c0,0.1-0.2,0.1-0.2,0.1l0,0c-1.7-0.8-3.4-1.6-5.2-1.9
					c-0.9-0.2-1.8-0.3-2.7-0.4c-0.9,0-1.8-0.1-2.8,0c-1.8,0.1-3.7,0.5-5.4,1.1c-1.8,0.6-3.5,1.4-5.1,2.3l0,0c-0.1,0-0.2,0-0.2-0.1
					C84.3,29.5,84.3,29.4,84.4,29.3z"/>
			</g>
			<g>
				<path class="st26" d="M105.9,28.5c-1.1,0-2.2,0.2-3.2,0.3c-1.1,0.2-2.1,0.3-3.2,0.6c-1.1,0.2-2.1,0.5-3.1,0.8
					c-1,0.3-2,0.7-3.1,1.1l0,0c-0.1,0-0.2,0-0.2-0.1c0-0.1,0-0.2,0.1-0.2c1-0.6,2-1,3-1.4c1-0.4,2.1-0.7,3.2-1
					c1.1-0.2,2.2-0.4,3.3-0.5c1.1-0.1,2.2-0.1,3.3,0.1c0.1,0,0.2,0.1,0.1,0.2C106,28.4,106,28.5,105.9,28.5L105.9,28.5z"/>
			</g>
			<g>
				<path class="st26" d="M93.2,31c1.9-0.3,3.7-0.4,5.6-0.5c1.9-0.1,3.8,0,5.6,0.2c1.9,0.2,3.7,0.5,5.6,1.1c1.8,0.6,3.6,1.4,4.9,2.8
					c0.1,0.1,0.1,0.2,0,0.3c-0.1,0.1-0.2,0.1-0.2,0c-1.4-1.2-3.1-1.8-4.9-2.3c-1.8-0.5-3.6-0.8-5.4-0.9c-1.8-0.2-3.7-0.3-5.5-0.3
					c-1.9,0-3.7,0-5.6,0.1c-0.1,0-0.2-0.1-0.2-0.2C93.1,31.1,93.1,31,93.2,31z"/>
			</g>
			<g>
				<path class="st26" d="M114.8,34.8c-1.4,0-2.7-0.1-4.1-0.1c-0.7,0-1.4,0-2,0.1c-0.7,0-1.3,0.1-2,0.2l0,0c-0.1,0-0.2-0.1-0.2-0.2
					c0-0.1,0-0.2,0.1-0.2c1.3-0.5,2.7-0.7,4.2-0.7c1.4,0,2.8,0.1,4.2,0.6c0.1,0,0.1,0.1,0.1,0.2C114.9,34.7,114.9,34.8,114.8,34.8
					L114.8,34.8z"/>
			</g>
			<g>
				<path class="st26" d="M106.6,34.5c1.8,0,3.6,0.3,5.3,0.8c1.7,0.4,3.4,1.1,5.1,1.8c1.6,0.8,3.2,1.6,4.7,2.6
					c0.8,0.5,1.4,1,2.2,1.6c0.7,0.6,1.4,1.2,2,1.8c0.1,0.1,0.1,0.2,0,0.3c-0.1,0.1-0.2,0.1-0.2,0l0,0c-1.4-1-2.8-2.1-4.3-3
					c-1.5-0.9-3-1.7-4.6-2.5c-1.6-0.7-3.2-1.3-4.9-1.9c-1.7-0.5-3.4-0.9-5.1-1.1l0,0c-0.1,0-0.2-0.1-0.1-0.2
					C106.4,34.6,106.5,34.5,106.6,34.5z"/>
			</g>
			<g>
				<path class="st26" d="M125.6,43.4c-1.7-0.4-3.3-0.8-5-1.2c-1.7-0.4-3.3-0.7-5-1c-0.1,0-0.2-0.1-0.2-0.2c0-0.1,0.1-0.2,0.2-0.2
					c0.9-0.1,1.7,0,2.6,0.1c0.9,0.1,1.7,0.3,2.6,0.5c1.7,0.4,3.3,0.9,4.9,1.7c0.1,0,0.1,0.1,0.1,0.2
					C125.8,43.3,125.7,43.4,125.6,43.4z"/>
			</g>
			<g>
				<path class="st26" d="M115.7,40.8c2.4,0.8,4.6,2,6.7,3.4c1,0.7,2,1.5,2.9,2.4c0.9,0.9,1.8,1.8,2.5,2.9c1.4,2.1,2.6,4.3,3.6,6.6
					c1,2.3,1.8,4.7,2.4,7.1c0,0.1,0,0.2-0.1,0.2c-0.1,0-0.2,0-0.2-0.1l0,0c-0.8-2.3-1.7-4.6-2.7-6.9c-1-2.2-2.2-4.4-3.6-6.4
					c-1.4-2-3.2-3.7-5.2-5.1c-2-1.4-4.1-2.7-6.4-3.6l0,0c-0.1,0-0.1-0.1-0.1-0.2C115.5,40.8,115.6,40.8,115.7,40.8z"/>
			</g>
			<g>
				<path class="st26" d="M133.5,63.2c-1.3-1.3-2.5-2.6-3.8-3.8c-1.3-1.2-2.7-2.3-4.3-3.2l0,0c-0.1-0.1-0.1-0.2-0.1-0.3
					c0-0.1,0.1-0.1,0.2-0.1c0.9,0.3,1.7,0.8,2.5,1.3c0.8,0.5,1.5,1.1,2.2,1.7c1.3,1.3,2.6,2.6,3.6,4.2c0,0.1,0,0.2-0.1,0.2
					C133.7,63.3,133.6,63.2,133.5,63.2L133.5,63.2z"/>
			</g>
			<g>
				<path class="st26" d="M125.6,55.8c1.8,1.6,3.4,3.5,4.9,5.4c1.4,2,2.7,4.1,3.5,6.4c0.8,2.3,1.3,4.7,1.5,7.2
					c0.3,2.4,0.3,4.9,0.1,7.3c0,0.1-0.1,0.2-0.2,0.2c-0.1,0-0.2-0.1-0.2-0.2l0,0c0.1-2.4-0.1-4.8-0.4-7.2c-0.3-2.4-0.8-4.7-1.6-7
					c-0.8-2.2-2-4.3-3.4-6.3c-0.7-1-1.4-1.9-2.2-2.9c-0.8-0.9-1.5-1.9-2.4-2.7l0,0c-0.1-0.1-0.1-0.2,0-0.2
					C125.4,55.8,125.5,55.8,125.6,55.8z"/>
			</g>
			<g>
				<path class="st26" d="M135.3,82.2c-0.7-1.1-1.3-2.3-2-3.4c-0.7-1.2-1.4-2.3-2.1-3.3l0,0c-0.1-0.1,0-0.2,0-0.3c0.1,0,0.2,0,0.2,0
					c0.6,0.4,1,0.9,1.5,1.5c0.4,0.5,0.8,1.1,1.1,1.7c0.7,1.2,1.3,2.4,1.6,3.7c0,0.1,0,0.2-0.1,0.2C135.4,82.3,135.4,82.3,135.3,82.2
					z"/>
			</g>
			<g>
				<path class="st26" d="M131.4,75.3c0.7,2,1.3,4,1.6,6.2c0.3,2.1,0.4,4.3,0.1,6.4c-0.4,2.1-1,4.1-1.7,6.1c-0.7,2-1.6,3.9-2.7,5.7
					c-0.1,0.1-0.2,0.1-0.3,0.1c-0.1,0-0.1-0.2-0.1-0.2l0,0c0.9-1.9,1.7-3.8,2.4-5.8c0.7-2,1.2-4,1.6-6c0.3-2,0.3-4.1,0.1-6.2
					c-0.2-2.1-0.6-4.1-1.2-6.1l0,0c0-0.1,0-0.2,0.1-0.2C131.3,75.1,131.4,75.2,131.4,75.3z"/>
			</g>
			<g>
				<path class="st26" d="M128.3,99.6c-0.3-1.8-0.4-3.5-0.7-5.3c-0.1-0.9-0.2-1.7-0.4-2.6c-0.2-0.9-0.3-1.7-0.6-2.6
					c0-0.1,0-0.2,0.1-0.2c0.1,0,0.2,0,0.2,0.1c0.4,0.8,0.7,1.7,0.9,2.6c0.2,0.9,0.4,1.8,0.5,2.7c0.2,1.8,0.3,3.6,0.2,5.4
					c0,0.1-0.1,0.2-0.2,0.2C128.4,99.7,128.3,99.7,128.3,99.6z"/>
			</g>
			<g>
				<path class="st26" d="M127.1,89c0.6,1.6,0.7,3.3,0.7,5c-0.1,1.7-0.4,3.3-0.8,5c-0.5,1.6-1.2,3.2-2,4.6c-0.4,0.7-0.9,1.4-1.3,2.1
					c-0.5,0.7-1,1.3-1.5,2c-0.1,0.1-0.2,0.1-0.3,0c-0.1-0.1-0.1-0.2,0-0.2l0,0l1.3-2.1c0.4-0.7,0.8-1.4,1.2-2.2
					c0.7-1.5,1.4-3,1.8-4.5c0.5-1.6,0.8-3.2,0.9-4.8c0.1-1.6,0.1-3.3-0.3-4.8l0,0c0-0.1,0-0.2,0.1-0.2C126.9,88.9,127,88.9,127.1,89
					z"/>
			</g>
			<g>
				<path class="st26" d="M121.8,107.7c-0.3-0.7-0.4-1.3-0.6-2c-0.1-0.7-0.2-1.4-0.3-2.1c0-0.7,0-1.4,0-2.1c0-0.7,0.1-1.4,0.2-2.1
					c0-0.1,0.1-0.2,0.2-0.1c0.1,0,0.1,0.1,0.1,0.2c0.1,1.4,0.1,2.7,0.2,4.1c0.1,1.4,0.2,2.7,0.3,4.1l0,0c0,0.1-0.1,0.2-0.2,0.2
					C121.9,107.8,121.8,107.7,121.8,107.7z"/>
			</g>
			<g>
				<path class="st26" d="M121.6,99.5c-0.3,1.2-0.8,2.4-1.4,3.6c-0.5,1.1-1.2,2.2-1.9,3.3c-0.7,1-1.5,2.1-2.3,3
					c-0.8,1-1.8,1.8-2.8,2.6c-0.1,0.1-0.2,0.1-0.3,0c-0.1-0.1-0.1-0.2,0-0.2l0,0c0.8-0.9,1.7-1.8,2.5-2.8c0.8-1,1.5-2,2.2-3
					c0.7-1,1.3-2.1,1.9-3.2c0.6-1.1,1.2-2.2,1.7-3.3l0,0c0-0.1,0.1-0.1,0.2-0.1C121.5,99.3,121.6,99.4,121.6,99.5z"/>
			</g>
			<g>
				<path class="st26" d="M113,112c-1-0.3-1.9-0.9-2.8-1.4c-0.9-0.6-1.7-1.3-2.4-2c-0.7-0.7-1.5-1.5-2.1-2.3
					c-0.3-0.4-0.6-0.8-0.9-1.2c-0.3-0.4-0.6-0.9-0.8-1.3c-0.1-0.1,0-0.2,0.1-0.3c0.1,0,0.2,0,0.2,0c1.3,1.6,2.7,3.1,4.1,4.5
					c0.7,0.7,1.5,1.4,2.3,2c0.8,0.6,1.6,1.2,2.5,1.7l0,0c0.1,0,0.1,0.1,0.1,0.2C113.2,112,113.1,112,113,112z"/>
			</g>
			<g>
				<path class="st26" d="M104.2,103.7c-1.1,1.8-2.6,3.4-4.2,4.8c-0.8,0.7-1.7,1.3-2.6,1.9c-0.9,0.5-1.9,1-3,1.2
					c-0.1,0-0.2,0-0.2-0.1c0-0.1,0-0.2,0.1-0.2l0,0c1-0.4,1.9-0.9,2.7-1.5c0.9-0.6,1.7-1.2,2.5-1.9c0.8-0.7,1.6-1.4,2.3-2.1
					c0.7-0.7,1.5-1.5,2.2-2.3l0,0c0.1-0.1,0.2-0.1,0.2,0C104.2,103.5,104.2,103.6,104.2,103.7z"/>
			</g>
			<g>
				<path class="st26" d="M94.1,111.5c-0.1-0.7,0-1.3,0.2-1.9c0.2-0.6,0.5-1.2,1.1-1.6c0.1-0.1,0.2-0.1,0.3,0c0,0,0.1,0.1,0,0.2l0,0
					c-0.1,0.3-0.2,0.6-0.3,0.9c-0.1,0.3-0.2,0.6-0.3,0.8c-0.2,0.5-0.4,1.1-0.6,1.7l0,0c0,0.1-0.1,0.1-0.2,0.1
					C94.1,111.6,94.1,111.5,94.1,111.5z"/>
			</g>
			<g>
				<path class="st26" d="M95.6,108.1c-1.2,1.6-2.6,3-4.1,4.3c-0.8,0.6-1.6,1.2-2.5,1.7c-0.9,0.5-1.8,0.9-2.8,1.2
					c-0.1,0-0.2,0-0.2-0.1c0-0.1,0-0.2,0.1-0.2l0,0c1.8-0.8,3.4-1.9,4.9-3.2c1.5-1.2,3-2.6,4.4-3.9l0,0c0.1-0.1,0.2-0.1,0.2,0
					C95.7,108,95.7,108,95.6,108.1z"/>
			</g>
			<g>
				<path class="st26" d="M86,115.2c-0.2-0.2-0.4-0.4-0.5-0.6c-0.1-0.2-0.2-0.5-0.2-0.7c0-0.2-0.1-0.5-0.1-0.7c0-0.2,0-0.5,0.1-0.7
					c0-0.1,0.1-0.2,0.2-0.1c0.1,0,0.1,0.1,0.1,0.1c0.2,0.5,0.3,0.9,0.4,1.3c0,0.2,0.1,0.4,0.1,0.7c0,0.2,0.1,0.4,0.1,0.7l0,0.1
					c0,0.1-0.1,0.2-0.2,0.2C86.1,115.3,86.1,115.3,86,115.2z"/>
			</g>
			<g>
				<path class="st26" d="M85.7,112.5c-0.2,0.9-0.7,1.8-1.3,2.5c-0.6,0.7-1.3,1.4-2.2,1.8c-0.1,0-0.2,0-0.3-0.1c0-0.1,0-0.1,0-0.2
					l0,0c0.3-0.4,0.6-0.7,0.9-1c0.3-0.3,0.6-0.7,0.8-1c0.6-0.7,1.1-1.4,1.6-2.2l0,0c0.1-0.1,0.2-0.1,0.2,0
					C85.7,112.3,85.7,112.4,85.7,112.5z"/>
			</g>
		</g>
		<g>
			<g>
				<path class="st26" d="M62.3,104.1c-2.1,4.9-4.1,9.8-5.9,14.7c-1.8,5-3.6,10-4.9,15.1c-0.6,2.6-1.2,5.1-1.2,7.7
					c0,2.6,0.3,5.2,1.8,7.3c1.4,2.1,3.9,3.2,6.4,3.7c1.3,0.2,2.6,0.4,3.9,0.6c1.3,0.2,2.7,0.4,3.9,0.4l0.1,0c0.2,0,0.3,0.1,0.3,0.3
					c0,0.2-0.1,0.3-0.3,0.3c-1.4,0-2.7-0.2-4-0.3c-1.3-0.2-2.6-0.3-4-0.5c-1.3-0.2-2.7-0.6-3.9-1.2c-1.2-0.6-2.4-1.5-3.2-2.7
					c-1.6-2.3-2-5.2-2-7.9c0-2.7,0.6-5.4,1.2-8c1.4-5.2,3.2-10.2,5.1-15.1c1.9-4.9,4-9.8,6.2-14.7c0.1-0.1,0.2-0.2,0.3-0.1
					C62.3,103.8,62.3,103.9,62.3,104.1z"/>
			</g>
			<g>
				<path class="st26" d="M71.2,153.6l12.8-0.1l6.4,0l6.4,0.1c0.1,0,0.3,0.1,0.3,0.3c0,0.1-0.1,0.3-0.3,0.3l-6.4,0.1l-6.4,0
					l-12.8-0.1c-0.2,0-0.3-0.1-0.3-0.3C70.9,153.7,71,153.6,71.2,153.6z"/>
			</g>
			<path class="st30" d="M69.8,156.6c0.1,0.1,0.2,0.2,0.3,0.3c0,0.1,0,0.3,0,0.4c-0.1,0.7-0.2,1.6-0.8,2c-0.4,0.3-1,0.3-1.6,0.3
				c-0.5,0-1.1-0.1-1.6-0.2c-0.6-0.1-1.2-0.3-1.6-0.7c-0.4-0.4-0.4-1-0.4-1.6c0-0.2,0-0.4,0.1-0.6c0.1-0.2,0.3-0.3,0.5-0.4
				c0.9-0.4,1.4-0.8,2.4-0.6C68,155.7,69.2,156,69.8,156.6z"/>
			<path class="st30" d="M98,156.6c-0.1,0.1-0.2,0.2-0.3,0.3c0,0.1,0,0.3,0,0.4c0.1,0.7,0.2,1.6,0.8,2c0.4,0.3,1,0.3,1.6,0.3
				c0.5,0,1.1-0.1,1.6-0.2c0.6-0.1,1.2-0.3,1.6-0.7c0.4-0.4,0.4-1,0.4-1.6c0-0.2,0-0.4-0.1-0.6c-0.1-0.2-0.3-0.3-0.5-0.4
				c-0.9-0.4-1.4-0.8-2.4-0.6C99.7,155.7,98.6,156,98,156.6z"/>
			<g>
				<path class="st26" d="M108,107.6c2,4.5,3.9,9.1,5.6,13.8c1.7,4.7,3.3,9.4,4.3,14.3c0.5,2.4,0.8,5,0.7,7.5
					c-0.1,2.5-0.8,5.2-2.6,7.1c-1.8,2-4.4,2.8-6.9,3.2c-1.2,0.2-2.5,0.3-3.7,0.4c-1.3,0.1-2.4,0.3-3.8,0.2c-0.2,0-0.3-0.1-0.3-0.3
					c0-0.2,0.1-0.3,0.3-0.3l0.1,0c1.1,0,2.4-0.2,3.6-0.4c1.2-0.2,2.5-0.3,3.7-0.5c2.4-0.4,4.8-1.3,6.3-3c1.6-1.7,2.2-4.2,2.3-6.6
					c0.1-2.4-0.2-4.8-0.7-7.2c-1-4.8-2.5-9.5-4.1-14.2c-1.7-4.7-3.5-9.3-5.4-13.8c-0.1-0.1,0-0.3,0.1-0.4
					C107.7,107.4,107.9,107.5,108,107.6z"/>
			</g>
			<path class="st117" d="M61.1,107c0,0-8.1,17.2-10.3,27.6c-2.2,10.4,0.4,14.3,3,16.6c1.8,1.6,6.5,2.4,12.6,2.7
				c0.1,0,0.2,0,0.2,0.1c0.2-0.1-0.6-4.4-0.6-4.4c-2.5,2.8-8.3,2-11-0.4C46.4,141.3,61.1,107,61.1,107z"/>
			<path class="st117" d="M107.7,108.2c0,0,7.5,16,9.7,26.4c2.2,10.4-0.4,14.3-3,16.6c-1.8,1.6-6.5,2.4-12.6,2.7
				c-0.1,0-0.2,0-0.2,0.1c-0.2-0.1,0.6-4.4,0.6-4.4c2.5,2.8,8.3,2,11-0.4C121.7,141.3,107.7,108.2,107.7,108.2z"/>
			<path class="st30" d="M71.5,153.7l5.9-20.9c1.9-6.8,11.6-6.8,13.5,0l5.9,20.9H71.5z"/>
			<path class="st119" d="M73.1,147.8c0,0,0.1,4.6,10.5,4.6c10.4,0,11.6-4.6,11.6-4.6l1.6,6.1H71.2L73.1,147.8z"/>
			<g>
				<path class="st26" d="M65,142.2c0.5,3.3,1.1,6.7,1.4,10.1c0.1,0.8,0.2,1.7,0.2,2.6c0,0.2,0,0.4-0.1,0.8c0,0-0.1,0.2-0.3,0.2
					l-0.1,0l-0.1,0c-0.1,0-0.2,0.1-0.3,0.1c-0.4,0.2-0.7,0.4-0.9,0.6c-0.5,0.5-0.4,1.3,0,1.9c0.2,0.3,0.5,0.4,0.9,0.5
					c0.4,0.1,0.8,0.2,1.2,0.3c0.8,0.1,1.6,0.1,2-0.4c0.2-0.2,0.3-0.7,0.5-1.1l0.4-1.2c0.5-1.6,1-3.2,1.5-4.8l3-9.7
					c0-0.1,0.2-0.2,0.3-0.1c0.1,0,0.2,0.1,0.1,0.3c-0.9,3.3-1.8,6.5-2.8,9.8c-0.5,1.6-1,3.2-1.5,4.9l-0.4,1.2
					c-0.2,0.4-0.3,0.8-0.6,1.3c-0.3,0.4-0.9,0.6-1.3,0.7c-0.5,0.1-0.9,0-1.4,0c-0.4-0.1-0.9-0.2-1.3-0.3c-0.4-0.1-0.9-0.4-1.2-0.8
					c-0.7-0.8-0.7-2,0-2.8c0.3-0.4,0.7-0.6,1.2-0.8c0.1,0,0.2-0.1,0.3-0.1l0.2,0l0.1,0c-0.1,0-0.2,0.1-0.2,0.1c0,0,0-0.3,0-0.5
					c0-0.8-0.1-1.7-0.2-2.5c-0.4-3.4-0.8-6.7-1.3-10c0-0.1,0.1-0.3,0.2-0.3C64.9,141.9,65,142,65,142.2z"/>
			</g>
			<g>
				<path class="st26" d="M103.3,142.2c-0.5,3.3-0.9,6.7-1.2,10c-0.1,0.8-0.2,1.7-0.2,2.5c0,0.2,0,0.4,0,0.5c0,0,0,0-0.1-0.1
					c0,0-0.1,0-0.1,0c0,0,0,0,0,0l0,0l0.2,0c0.1,0,0.2,0.1,0.3,0.1c0.4,0.2,0.8,0.4,1.2,0.8c0.7,0.7,0.7,2,0,2.8
					c-0.3,0.4-0.8,0.7-1.2,0.8c-0.4,0.1-0.8,0.3-1.3,0.3c-0.4,0.1-0.9,0.1-1.4,0c-0.5-0.1-1-0.3-1.3-0.7c-0.3-0.4-0.4-0.9-0.6-1.3
					l-0.4-1.2c-0.5-1.6-1-3.2-1.4-4.9c-0.9-3.3-1.7-6.5-2.5-9.8c0-0.1,0-0.2,0.2-0.3c0.1,0,0.2,0,0.3,0.1l2.8,9.7
					c0.5,1.6,0.9,3.2,1.4,4.8l0.4,1.2c0.1,0.4,0.3,0.8,0.5,1c0.4,0.5,1.3,0.5,2,0.4c0.4-0.1,0.8-0.2,1.2-0.3
					c0.4-0.1,0.6-0.3,0.9-0.6c0.5-0.5,0.5-1.4,0-1.9c-0.2-0.3-0.6-0.5-0.9-0.6c-0.1,0-0.2-0.1-0.3-0.1l-0.1,0l0,0l0,0
					c0,0-0.1,0-0.1-0.1c-0.1-0.1-0.1-0.2-0.1-0.2c-0.1-0.3-0.1-0.5-0.1-0.7c0-0.9,0.1-1.7,0.2-2.6c0.4-3.4,0.9-6.7,1.3-10
					c0-0.1,0.2-0.2,0.3-0.2C103.2,142,103.3,142.1,103.3,142.2z"/>
			</g>
		</g>
		<g>
			<path class="st26" d="M79.3,79.4c-0.2-0.9,0.5-1.8,1.4-1.8c1.2,0,4-0.1,5.1,0.2c1.1,0.3,1.2,1.9,0.3,2.6l-2.6,1.7
				c-0.6,0.4-0.8,0.4-1.3,0l-2.5-1.8C79.5,80,79.4,79.7,79.3,79.4z"/>
			<g>
				<path class="st26" d="M83.2,82.4c-0.3,1.3-0.7,2.6-1.4,3.8c-0.6,1.2-1.4,2.3-2.4,3.2c-1,0.9-2.3,1.5-3.6,1.8
					c-1.3,0.3-2.7,0.1-4-0.1c-0.1,0-0.1-0.1-0.1-0.2c0-0.1,0.1-0.1,0.1-0.1l0,0c1.3,0.2,2.6,0.3,3.9-0.1c1.2-0.3,2.4-0.9,3.3-1.8
					c0.9-0.9,1.7-1.9,2.3-3.1c0.6-1.1,1-2.4,1.3-3.6l0,0c0-0.2,0.2-0.3,0.4-0.3S83.3,82.2,83.2,82.4C83.2,82.4,83.2,82.4,83.2,82.4z
					"/>
			</g>
			<g>
				<path class="st26" d="M83.3,82.3c0.2,1.3,0.5,2.5,1,3.7c0.5,1.2,1.2,2.3,2.1,3.2c0.9,1,2,1.6,3.2,2c1.2,0.4,2.6,0.4,3.9,0.3l0,0
					c0.1,0,0.1,0,0.1,0.1c0,0.1,0,0.1-0.1,0.1c-1.3,0.2-2.7,0.3-4-0.1c-1.3-0.3-2.6-1-3.5-2c-1-1-1.7-2.1-2.3-3.4
					c-0.5-1.2-1-2.5-1.2-3.9c0-0.2,0.1-0.4,0.3-0.4C83,82,83.2,82.1,83.3,82.3C83.3,82.3,83.3,82.3,83.3,82.3L83.3,82.3z"/>
			</g>
			<g>
				<g>
					<path class="st26" d="M92.7,85.2c12.7,7.3,27.2,11.4,41.8,11.7c-14.6-0.1-29.3-4.1-42-11.3c-0.1-0.1-0.1-0.2-0.1-0.3
						C92.5,85.2,92.6,85.2,92.7,85.2L92.7,85.2z"/>
				</g>
				<g>
					<path class="st26" d="M93.3,80.8c14.9,7,32.6,8,48.3,2.7c-15.6,5.4-33.4,4.5-48.5-2.4c-0.1,0-0.2-0.2-0.1-0.3
						C93,80.8,93.2,80.8,93.3,80.8L93.3,80.8z"/>
				</g>
				<g>
					<path class="st26" d="M91.6,82.4c2.7,1.5,5.6,2.8,8.5,3.9c2.9,1.1,5.9,2.1,9,2.9c1.5,0.4,3.1,0.7,4.6,1.1
						c1.5,0.2,3.1,0.6,4.7,0.7c3.1,0.4,6.3,0.5,9.4,0.5c-3.1,0-6.3,0-9.4-0.4c-1.6-0.1-3.1-0.4-4.7-0.7c-1.5-0.3-3.1-0.6-4.6-1
						c-3.1-0.8-6.1-1.7-9-2.8c-2.9-1.1-5.8-2.4-8.6-3.9c-0.1-0.1-0.1-0.2-0.1-0.3S91.5,82.4,91.6,82.4
						C91.6,82.4,91.6,82.4,91.6,82.4L91.6,82.4z"/>
				</g>
			</g>
			<g>
				<g>
					<path class="st26" d="M74,85.1c-13.2,6.5-28,9.6-42.6,8.9c14.6,0.5,29.4-2.7,42.4-9.3c0.1-0.1,0.2,0,0.3,0.1S74.1,85,74,85.1
						L74,85.1z"/>
				</g>
				<g>
					<path class="st26" d="M73.6,80.7c-4.1,1.6-8.4,2.8-12.7,3.6c-4.3,0.8-8.7,1.3-13.1,1.5c-4.4,0.1-8.8-0.1-13.2-0.7
						c-4.4-0.7-8.7-1.7-12.7-3.4c4.1,1.6,8.4,2.7,12.8,3.3c4.4,0.6,8.8,0.8,13.2,0.6c4.4-0.2,8.8-0.7,13.1-1.6
						c4.3-0.9,8.5-2.1,12.6-3.7c0.1,0,0.2,0,0.3,0.1C73.7,80.5,73.7,80.6,73.6,80.7L73.6,80.7z"/>
				</g>
				<g>
					<path class="st26" d="M75.2,82.3c-2.9,1.3-5.8,2.4-8.8,3.4c-3,0.9-6.1,1.7-9.2,2.3c-1.5,0.3-3.1,0.5-4.7,0.7
						c-1.6,0.1-3.1,0.4-4.7,0.4c-3.1,0.2-6.3,0.1-9.4-0.1c3.1,0.2,6.3,0.3,9.4,0c1.6-0.1,3.1-0.3,4.7-0.5c1.5-0.3,3.1-0.5,4.6-0.8
						c3.1-0.6,6.1-1.4,9.1-2.4c3-1,5.9-2.1,8.7-3.4l0,0c0.1-0.1,0.2,0,0.3,0.1C75.4,82.2,75.3,82.3,75.2,82.3
						C75.2,82.3,75.2,82.3,75.2,82.3z"/>
				</g>
			</g>
			<g>
				<path class="st26" d="M75.5,99.3c0.5-1.1,1.3-2.1,2.3-2.9c0.5-0.4,1-0.7,1.6-0.9c0.6-0.2,1.2-0.3,1.8-0.3c0,0,0.1,0,0.1,0.1
					c0,0,0,0.1-0.1,0.1l0,0c-0.6,0.1-1.1,0.3-1.7,0.5c-0.5,0.3-1,0.5-1.5,0.9c-0.9,0.7-1.7,1.6-2.4,2.5l0,0c0,0.1-0.1,0.1-0.2,0
					C75.5,99.4,75.5,99.4,75.5,99.3z"/>
			</g>
			<g>
				<path class="st26" d="M81.4,95.4c0.3,0.7,0.4,1.5,0.3,2.3c-0.1,0.4-0.2,0.8-0.4,1.1c-0.2,0.3-0.5,0.6-0.8,0.8c0,0-0.1,0-0.1,0
					c0,0,0-0.1,0-0.1l0,0c0.2-0.3,0.4-0.6,0.5-0.9c0.1-0.3,0.2-0.6,0.3-1c0.1-0.7,0.1-1.4,0-2.1l0,0c0-0.1,0-0.1,0.1-0.1
					C81.3,95.3,81.4,95.3,81.4,95.4z"/>
			</g>
			<g>
				<path class="st26" d="M80.4,99.4c0.8-0.7,1.8-1.3,2.8-1.7c0.5-0.2,1.1-0.4,1.6-0.4c0.6-0.1,1.2-0.1,1.7,0.3c0,0,0,0.1,0,0.1
					c0,0-0.1,0-0.1,0c-0.5-0.2-1-0.1-1.5,0c-0.5,0.1-1,0.3-1.5,0.5c-1,0.4-1.9,0.9-2.9,1.4c-0.1,0-0.1,0-0.2-0.1
					C80.3,99.5,80.3,99.4,80.4,99.4z"/>
			</g>
			<g>
				<path class="st26" d="M86.6,97.5c0.3,0.2,0.4,0.5,0.4,0.8c0,0.3-0.2,0.6-0.3,0.8c-0.4,0.4-0.8,0.7-1.3,0.8c0,0-0.1,0-0.1-0.1
					c0,0,0-0.1,0-0.1c0.3-0.4,0.7-0.7,0.9-1.1c0.1-0.2,0.2-0.3,0.3-0.5c0.1-0.2,0-0.4,0-0.6l0,0c0-0.1,0-0.1,0.1-0.2
					C86.5,97.5,86.5,97.5,86.6,97.5z"/>
			</g>
		</g>
		<g>
			<circle class="st30" cx="104.9" cy="65.4" r="11"/>
			<circle class="st17" cx="106.1" cy="65.1" r="8.6"/>
			<g>
				<circle class="st143" cx="104.9" cy="65.4" r="11"/>
				<circle class="st26" cx="107.6" cy="64.4" r="6.9"/>
				
					<ellipse transform="matrix(0.8978 -0.4405 0.4405 0.8978 -18.8762 51.5307)" class="st30" cx="101.6" cy="66.4" rx="2.3" ry="2.3"/>
			</g>
			<circle class="st30" cx="61.9" cy="65.4" r="11"/>
			<circle class="st17" cx="61.1" cy="66.6" r="8.6"/>
			<g>
				<circle class="st143" cx="61.9" cy="65.4" r="11"/>
				<circle class="st26" cx="60" cy="67.9" r="6.9"/>
				<ellipse transform="matrix(0.4405 -0.8978 0.8978 0.4405 -25.8627 98.4051)" class="st30" cx="66" cy="70" rx="2.3" ry="2.3"/>
			</g>
		</g>
	</g>
</g>
<g id="mask" class="st0">
</g>
</svg>
