<?xml version="1.0" encoding="utf-8"?>
<!-- Generator: Adobe Illustrator 21.0.0, SVG Export Plug-In . SVG Version: 6.00 Build 0)  -->
<svg version="1.1" xmlns="http://www.w3.org/2000/svg" xmlns:xlink="http://www.w3.org/1999/xlink" x="0px" y="0px"
	 viewBox="0 0 176.8 172.4" style="enable-background:new 0 0 176.8 172.4;" xml:space="preserve">
<style type="text/css">
	.st0{display:none;}
	.st1{display:inline;fill:#FD9994;}
	.st2{display:inline;fill:#FFFFFF;}
	.st3{display:inline;fill:none;stroke:#FFFFFF;stroke-width:2.2363;stroke-miterlimit:10;}
	.st4{display:inline;}
	.st5{fill:none;stroke:#FFFFFF;stroke-width:2.2363;stroke-miterlimit:10;}
	.st6{fill:#FFB380;}
	.st7{fill:#D2C3DB;}
	.st8{fill:#F9ECDC;}
	.st9{fill:#FFF58B;}
	.st10{fill:#F6BC60;}
	.st11{fill:#ECF784;}
	.st12{fill:#FFDEFF;}
	.st13{fill:#AED5D2;}
	.st14{fill:#F4BD9F;}
	.st15{fill:#B9DCFF;}
	.st16{fill:#D7FFFB;}
	.st17{fill:#81D8F7;}
	.st18{fill:#E57777;}
	.st19{fill:#D9FFDB;}
	.st20{opacity:0.1;}
	.st21{fill:#5CCDFF;}
	.st22{fill:none;}
	.st23{opacity:0.2;fill:#FFFFFF;}
	.st24{opacity:0.1;fill:#002CBF;}
	.st25{fill:#1A1A1A;}
	.st26{fill:#333333;}
	.st27{fill:#FFFFDE;}
	.st28{clip-path:url(#SVGID_4_);}
	.st29{fill:none;stroke:#333333;stroke-width:0.4917;stroke-linecap:round;stroke-linejoin:round;stroke-miterlimit:10;}
	.st30{fill:#FFFFFF;}
	.st31{fill:none;stroke:#333333;stroke-width:0.8543;stroke-miterlimit:10;}
	.st32{clip-path:url(#SVGID_6_);}
	.st33{fill:#FFD7B9;}
	.st34{fill:#F0FFFF;}
	.st35{clip-path:url(#SVGID_8_);}
	.st36{fill:#FF5C5C;}
	.st37{fill:none;stroke:#333333;stroke-width:0.466;stroke-linecap:round;stroke-linejoin:round;stroke-miterlimit:10;}
	.st38{fill:none;stroke:#333333;stroke-width:0.8095;stroke-miterlimit:10;}
	.st39{clip-path:url(#SVGID_10_);}
	.st40{fill:none;stroke:#333333;stroke-width:0.7381;stroke-linecap:round;stroke-linejoin:round;stroke-miterlimit:10;}
	.st41{fill:none;stroke:#333333;stroke-width:0.8857;stroke-linecap:round;stroke-linejoin:round;stroke-miterlimit:10;}
	.st42{fill:none;stroke:#333333;stroke-width:2.6852;stroke-linecap:round;stroke-linejoin:round;stroke-miterlimit:10;}
	.st43{fill:#72B5C4;}
	.st44{fill:#5E96A5;}
	.st45{fill:none;stroke:#FFFFFF;stroke-width:2.6852;stroke-linecap:round;stroke-linejoin:round;stroke-miterlimit:10;}
	.st46{fill:none;stroke:#FFFFFF;stroke-width:1.2942;stroke-linecap:round;stroke-linejoin:round;stroke-miterlimit:10;}
	.st47{fill:none;stroke:#FFFFFF;stroke-width:0.8311;stroke-linecap:round;stroke-linejoin:round;stroke-miterlimit:10;}
	.st48{fill:#FF5C00;}
	.st49{fill:#00B4FF;}
	.st50{fill:#FF5592;}
	.st51{fill:#733FFF;}
	.st52{fill:#DDFF15;}
	.st53{fill:#BF5855;}
	.st54{fill:none;stroke:#333333;stroke-width:0.5718;stroke-miterlimit:10;}
	.st55{fill:#C8F982;}
	.st56{fill:#AEF9C0;}
	.st57{fill:none;stroke:#FFFFFF;stroke-width:1.8326;stroke-miterlimit:10;}
	.st58{fill:#9AF6F9;}
	.st59{fill:#FFACA2;}
	.st60{fill:#F9E582;}
	.st61{fill:#FFC08B;}
	.st62{fill:#EFEB6A;}
	.st63{fill:#EC987F;}
	.st64{fill:#B5FFCC;}
	.st65{fill:#FFEDA2;}
	.st66{fill:#CCE7CC;}
	.st67{fill:#ABE7AB;}
	.st68{fill:#A6A6A6;}
	.st69{clip-path:url(#SVGID_60_);}
	.st70{fill:none;stroke:#333333;stroke-width:0.4706;stroke-linecap:round;stroke-linejoin:round;stroke-miterlimit:10;}
	.st71{fill:#FFEC55;}
	.st72{fill:none;stroke:#333333;stroke-width:0.8177;stroke-miterlimit:10;}
	.st73{clip-path:url(#SVGID_62_);}
	.st74{clip-path:url(#SVGID_64_);}
	.st75{fill:#FF7A59;}
	.st76{clip-path:url(#SVGID_66_);}
	.st77{clip-path:url(#SVGID_68_);}
	.st78{fill:#B45FFF;}
	.st79{clip-path:url(#SVGID_70_);}
	.st80{opacity:0.2;fill:#002CBF;}
	.st81{fill:none;stroke:#333333;stroke-width:0.5506;stroke-linecap:round;stroke-linejoin:round;stroke-miterlimit:10;}
	.st82{clip-path:url(#SVGID_72_);}
	.st83{fill:#EAA871;}
	.st84{fill:#FFD836;}
	.st85{fill:#FF846B;}
	.st86{fill:none;stroke:#333333;stroke-width:0.804;stroke-linecap:round;stroke-linejoin:round;stroke-miterlimit:10;}
	.st87{fill:#FEFF4A;}
	.st88{fill:none;stroke:#333333;stroke-width:0.7645;stroke-linecap:round;stroke-linejoin:round;stroke-miterlimit:10;}
	.st89{fill:none;stroke:#333333;stroke-width:0.7645;stroke-miterlimit:10;}
	.st90{fill:none;stroke:#333333;stroke-width:2.9248;stroke-linecap:round;stroke-linejoin:round;stroke-miterlimit:10;}
	.st91{fill:none;stroke:#333333;stroke-width:0.945;stroke-linecap:round;stroke-linejoin:round;stroke-miterlimit:10;}
	.st92{fill:none;stroke:#333333;stroke-width:0.945;stroke-miterlimit:10;}
	.st93{fill:none;stroke:#333333;stroke-width:3.6155;stroke-linecap:round;stroke-linejoin:round;stroke-miterlimit:10;}
	.st94{fill:none;stroke:#333333;stroke-width:0.6228;stroke-miterlimit:10;}
	.st95{fill:none;stroke:#333333;stroke-width:0.7778;stroke-linecap:round;stroke-linejoin:round;stroke-miterlimit:10;}
	.st96{fill:#FF712A;}
	.st97{fill:none;stroke:#333333;stroke-width:0.7396;stroke-linecap:round;stroke-linejoin:round;stroke-miterlimit:10;}
	.st98{fill:none;stroke:#333333;stroke-width:0.7396;stroke-miterlimit:10;}
	.st99{fill:none;stroke:#333333;stroke-width:2.8295;stroke-linecap:round;stroke-linejoin:round;stroke-miterlimit:10;}
	.st100{fill:none;stroke:#333333;stroke-width:0.9142;stroke-linecap:round;stroke-linejoin:round;stroke-miterlimit:10;}
	.st101{fill:none;stroke:#333333;stroke-width:0.9142;stroke-miterlimit:10;}
	.st102{fill:none;stroke:#333333;stroke-width:3.4977;stroke-linecap:round;stroke-linejoin:round;stroke-miterlimit:10;}
	.st103{fill:none;stroke:#333333;stroke-width:0.6025;stroke-miterlimit:10;}
	.st104{fill:url(#SVGID_89_);}
	.st105{fill:url(#SVGID_90_);}
	.st106{fill:none;stroke:#333333;stroke-width:0.7438;stroke-linecap:round;stroke-linejoin:round;stroke-miterlimit:10;}
	.st107{fill:none;stroke:#333333;stroke-width:0.8926;stroke-linecap:round;stroke-linejoin:round;stroke-miterlimit:10;}
	.st108{clip-path:url(#SVGID_92_);fill:url(#SVGID_93_);}
	.st109{fill:url(#SVGID_94_);}
	.st110{fill:#52C5FF;}
	.st111{fill:none;stroke:#333333;stroke-width:0.6367;stroke-linecap:round;stroke-linejoin:round;stroke-miterlimit:10;}
	.st112{fill:none;stroke:#333333;stroke-width:2.7061;stroke-linecap:round;stroke-linejoin:round;stroke-miterlimit:10;}
	.st113{fill:none;stroke:#333333;stroke-width:0.5763;stroke-miterlimit:10;}
	.st114{fill:none;stroke:#FFFFFF;stroke-width:1.3042;stroke-linecap:round;stroke-linejoin:round;stroke-miterlimit:10;}
	.st115{fill:none;stroke:#FFFFFF;stroke-width:0.8375;stroke-linecap:round;stroke-linejoin:round;stroke-miterlimit:10;}
	.st116{clip-path:url(#SVGID_96_);}
	.st117{opacity:0.2;fill:#2E3192;}
	.st118{fill:#FEFF78;}
	.st119{opacity:0.1;fill:#2E3192;}
	.st120{fill:#FF5A50;}
	.st121{fill:none;stroke:#333333;stroke-width:0.567;stroke-linecap:round;stroke-linejoin:round;stroke-miterlimit:10;}
	.st122{fill:none;stroke:#333333;stroke-width:2.5786;stroke-linecap:round;stroke-linejoin:round;stroke-miterlimit:10;}
	.st123{fill:none;stroke:#333333;stroke-width:0.5491;stroke-miterlimit:10;}
	.st124{clip-path:url(#SVGID_98_);}
	.st125{fill:#2AD2FF;}
	.st126{fill:none;stroke:#333333;stroke-width:0.2435;stroke-miterlimit:10;}
	.st127{fill:#FFFFFF;stroke:#333333;stroke-width:0.487;stroke-linecap:round;stroke-linejoin:round;stroke-miterlimit:10;}
	.st128{clip-path:url(#SVGID_100_);}
	.st129{fill:url(#SVGID_101_);}
	.st130{opacity:0.4;fill:#FFFFFF;}
	.st131{fill:#FFDC48;}
	.st132{fill:none;stroke:#333333;stroke-width:0.5835;stroke-linecap:round;stroke-linejoin:round;stroke-miterlimit:10;}
	.st133{fill:none;stroke:#333333;stroke-width:2.6537;stroke-linecap:round;stroke-linejoin:round;stroke-miterlimit:10;}
	.st134{fill:#F0F462;}
	.st135{fill:url(#SVGID_102_);}
	.st136{fill:url(#SVGID_103_);}
	.st137{fill:#D1DADF;}
	.st138{fill:#57FFA3;}
	.st139{clip-path:url(#SVGID_105_);}
	.st140{clip-path:url(#SVGID_107_);}
	.st141{fill:#D0BBF9;}
	.st142{clip-path:url(#SVGID_109_);}
	.st143{fill:none;stroke:#333333;stroke-width:0.5867;stroke-linecap:round;stroke-linejoin:round;stroke-miterlimit:10;}
	.st144{clip-path:url(#SVGID_111_);}
	.st145{fill:none;stroke:#333333;stroke-width:0.5514;stroke-linecap:round;stroke-linejoin:round;stroke-miterlimit:10;}
	.st146{fill:#D1E9D3;}
	.st147{clip-path:url(#SVGID_113_);}
	.st148{fill:none;stroke:#333333;stroke-width:0.7684;stroke-linecap:round;stroke-linejoin:round;stroke-miterlimit:10;}
	.st149{fill:none;stroke:#333333;stroke-width:0.7684;stroke-miterlimit:10;}
	.st150{fill:none;stroke:#333333;stroke-width:2.9398;stroke-linecap:round;stroke-linejoin:round;stroke-miterlimit:10;}
	.st151{clip-path:url(#SVGID_115_);}
	.st152{fill:#FF66F8;}
	.st153{fill:none;stroke:#333333;stroke-width:0.7542;stroke-linecap:round;stroke-linejoin:round;stroke-miterlimit:10;}
	.st154{fill:none;stroke:#333333;stroke-width:0.9051;stroke-linecap:round;stroke-linejoin:round;stroke-miterlimit:10;}
	.st155{fill:none;stroke:#333333;stroke-width:0.5146;stroke-linecap:round;stroke-linejoin:round;stroke-miterlimit:10;}
	.st156{fill:none;stroke:#333333;stroke-width:0.6033;stroke-linecap:round;stroke-linejoin:round;stroke-miterlimit:10;}
	.st157{fill:none;stroke:#333333;stroke-width:2.7439;stroke-linecap:round;stroke-linejoin:round;stroke-miterlimit:10;}
	.st158{fill:#333333;stroke:#333333;stroke-width:1.0293;stroke-linecap:round;stroke-linejoin:round;stroke-miterlimit:10;}
	.st159{fill:#FF5F2A;}
	.st160{fill:none;stroke:#333333;stroke-width:0.5965;stroke-linecap:round;stroke-linejoin:round;stroke-miterlimit:10;}
	.st161{fill:#F9CC3E;}
	.st162{clip-path:url(#SVGID_121_);}
	.st163{fill:#70E1FF;}
	.st164{fill:none;stroke:#333333;stroke-width:0.5717;stroke-linecap:round;stroke-linejoin:round;stroke-miterlimit:10;}
	.st165{fill:none;stroke:#333333;stroke-width:2.6004;stroke-linecap:round;stroke-linejoin:round;stroke-miterlimit:10;}
	.st166{clip-path:url(#SVGID_123_);}
	.st167{fill:#8F61FF;}
	.st168{clip-path:url(#SVGID_125_);}
	.st169{clip-path:url(#SVGID_127_);}
	.st170{fill:#FFEBEB;}
	.st171{clip-path:url(#SVGID_129_);}
	.st172{clip-path:url(#SVGID_131_);}
	.st173{fill:#F47D62;}
	.st174{fill:none;stroke:#333333;stroke-width:0.7188;stroke-linecap:round;stroke-linejoin:round;stroke-miterlimit:10;}
	.st175{fill:none;stroke:#333333;stroke-width:0.7188;stroke-miterlimit:10;}
	.st176{fill:none;stroke:#333333;stroke-width:2.7502;stroke-linecap:round;stroke-linejoin:round;stroke-miterlimit:10;}
	.st177{fill:#85ACB5;}
	.st178{clip-path:url(#SVGID_133_);}
	.st179{fill:#D5F2F7;}
	.st180{fill:#FF694A;}
	.st181{fill:none;stroke:#333333;stroke-width:0.5693;stroke-linecap:round;stroke-linejoin:round;stroke-miterlimit:10;}
	.st182{fill:#FFDF15;}
	.st183{fill:none;stroke:#333333;stroke-width:0.6674;stroke-linecap:round;stroke-linejoin:round;stroke-miterlimit:10;}
	.st184{fill:none;stroke:#333333;stroke-width:3.0352;stroke-linecap:round;stroke-linejoin:round;stroke-miterlimit:10;}
	.st185{clip-path:url(#SVGID_135_);}
	.st186{clip-path:url(#SVGID_137_);}
	.st187{fill:none;stroke:#333333;stroke-width:0.5248;stroke-linecap:round;stroke-linejoin:round;stroke-miterlimit:10;}
	.st188{fill:#FFD33A;}
	.st189{fill:none;stroke:#333333;stroke-width:2.7983;stroke-linecap:round;stroke-linejoin:round;stroke-miterlimit:10;}
	.st190{fill:none;stroke:#333333;stroke-width:0.7692;stroke-linecap:round;stroke-linejoin:round;stroke-miterlimit:10;}
	.st191{fill:none;stroke:#333333;stroke-width:0.5959;stroke-miterlimit:10;}
	.st192{clip-path:url(#SVGID_143_);}
	.st193{fill:#FFE267;}
	.st194{clip-path:url(#SVGID_149_);}
	.st195{fill:#FFEEAA;}
	.st196{opacity:0.7;fill:url(#SVGID_152_);}
	.st197{fill:none;stroke:#333333;stroke-width:0.611;stroke-miterlimit:10;}
	.st198{clip-path:url(#SVGID_154_);}
	.st199{opacity:0.7;fill:url(#SVGID_157_);}
	.st200{fill:#EABBFC;}
	.st201{opacity:0.7;fill:url(#SVGID_160_);}
	.st202{opacity:0.7;fill:url(#SVGID_163_);}
	.st203{opacity:0.7;fill:url(#SVGID_166_);}
	.st204{opacity:0.7;fill:url(#SVGID_169_);}
	.st205{clip-path:url(#SVGID_171_);}
	.st206{fill:none;stroke:#333333;stroke-width:0.5899;stroke-linecap:round;stroke-linejoin:round;stroke-miterlimit:10;}
	.st207{fill:none;stroke:#333333;stroke-width:2.6828;stroke-linecap:round;stroke-linejoin:round;stroke-miterlimit:10;}
	.st208{fill:none;stroke:#333333;stroke-width:0.5713;stroke-miterlimit:10;}
	.st209{clip-path:url(#SVGID_173_);}
	.st210{clip-path:url(#SVGID_175_);}
	.st211{clip-path:url(#SVGID_177_);}
	.st212{fill:#FFAFC3;}
	.st213{fill:#A0D3FF;}
	.st214{fill:none;stroke:#333333;stroke-width:0.7262;stroke-linecap:round;stroke-linejoin:round;stroke-miterlimit:10;}
	.st215{fill:none;stroke:#333333;stroke-width:0.6906;stroke-miterlimit:10;}
	.st216{fill:none;stroke:#333333;stroke-width:0.8536;stroke-miterlimit:10;}
	.st217{fill:#333333;stroke:#333333;stroke-width:0.991;stroke-linecap:round;stroke-linejoin:round;stroke-miterlimit:10;}
	.st218{clip-path:url(#SVGID_179_);}
	.st219{clip-path:url(#SVGID_181_);}
	.st220{fill:#FD9994;}
	.st221{opacity:0.2;}
	.st222{fill:#2E3192;}
	.st223{display:inline;fill:#FF5B00;}
</style>
<g id="site">
</g>
<g id="kitties">
	<g>
		<ellipse class="st20" cx="81.6" cy="147.2" rx="51" ry="7"/>
		<path class="st68" d="M113.1,133.2c0,0,9.9-1.6,10.9-3.7c0,0-3.6-7.7,1-13c4.6-5.2,7.9-5.4,7.9-5.4l-7.9,1.4c0,0,7.2-6.9,13.4-7.4
			c6.3-0.5,11,2.1,13.6,5.4c2.5,3.3,9.9,14.5,0.6,26.8c-9.2,12.3-29.1,7.7-29.1,7.7l-11.8-3.4L113.1,133.2"/>
		<path class="st22" d="M113.1,133.2c0,0,9.9-1.6,10.9-3.7c0,0-3.6-7.7,1-13c4.6-5.2,7.9-5.4,7.9-5.4l-7.9,1.4c0,0,7.2-6.9,13.4-7.4
			c6.3-0.5,11,2.1,13.6,5.4c2.5,3.3,9.9,14.5,0.6,26.8c-9.2,12.3-29.1,7.7-29.1,7.7l-11.8-3.4L113.1,133.2"/>
		<path class="st23" d="M155.8,117.5c-1.2-3.3-2.9-5.7-3.9-7c-2.5-3.3-7.3-5.9-13.6-5.4c-6.3,0.5-13.4,7.4-13.4,7.4
			s10.3-6.3,15.9-5.8C149,107.5,154.1,114.7,155.8,117.5z"/>
		<path class="st24" d="M123.5,144.9c0,0,16.1,3.7,26.1-4.6c-2.4,0.9-6.3,1.8-12.3,2.3c-6.8,0.6-23.3-1.6-19-10.2l-5.3,0.8l-1.4,8.3
			L123.5,144.9z"/>
		<path class="st24" d="M123.6,129.8c0,0,2,6.8,7.2,7.3c0,0,1.5-4.8,4.5-5.1c2.7-0.2,4.1-2,4.1-2l-2,3.7c0,0,4.1,0.8,7.6-1.5
			c3.4-2.3,2.5-8.2,2.5-8.2s0,6.7-8.6,8.7l1.9-5.5c0,0-0.3,2.1-5,3.3c-3.7,0.9-4.6,2.5-5.4,5.2l0,0c0,0-4.5-2.5-6.5-6.2
			c-0.2-0.3-1.3,0.8-1.3,0.8"/>
		<g>
			<g>
				<path class="st25" d="M109.8,132.1c1.1,0.5,2.4,0.7,3.6,0.7c1.2,0,2.5-0.1,3.7-0.5c1.2-0.3,2.4-0.8,3.5-1.3l1.7-0.8
					c0.6-0.3,1.1-0.6,1.7-0.9l0,0c0.1,0,0.2,0,0.2,0.1c0,0.1,0,0.2-0.1,0.2c-0.5,0.4-1,0.8-1.6,1.1l-1.7,1c-1.2,0.6-2.4,1.1-3.6,1.4
					c-1.3,0.3-2.6,0.5-3.9,0.4c-1.3-0.1-2.6-0.4-3.7-1.2c-0.1-0.1-0.1-0.2,0-0.2C109.6,132.1,109.6,132,109.8,132.1L109.8,132.1z"/>
			</g>
			<g>
				<path class="st25" d="M110.6,140.8c4,1.8,8.2,3,12.5,3.8c4.3,0.7,8.7,1.1,13,0.7c4.3-0.3,8.6-1.5,12.1-4.1
					c3.5-2.5,5.8-6.4,7.2-10.4c1.4-4.1,1.7-8.6,0.5-12.7c-1.2-4.1-3.9-7.8-7.6-10.1c-1.8-1.2-3.8-2-5.9-2.4
					c-2.1-0.4-4.3-0.2-6.4,0.3c-4.2,1.1-7.8,3.7-10.9,6.8c-0.1,0.1-0.2,0.1-0.2,0c-0.1-0.1-0.1-0.2,0-0.2c3.1-3.1,6.7-5.9,11-7.1
					c2.1-0.6,4.4-0.7,6.6-0.4c2.2,0.4,4.3,1.2,6.2,2.4c1.9,1.2,3.6,2.7,4.9,4.5c1.4,1.8,2.4,3.8,3,5.9c1.3,4.3,1,9-0.5,13.2
					c-1.4,4.2-3.8,8.2-7.5,10.8c-3.6,2.7-8.1,3.9-12.5,4.2c-4.4,0.3-8.8-0.1-13.2-0.8c-4.3-0.8-8.6-2.1-12.5-4
					c-0.1-0.1-0.2-0.2-0.1-0.3C110.4,140.7,110.5,140.7,110.6,140.8z"/>
			</g>
			<g>
				<path class="st25" d="M132.9,111.2c-2.6,0.8-4.9,2.3-6.7,4.3c-1.7,2-2.8,4.5-3.2,7.2c-0.2,1.3-0.1,2.6,0.1,3.9
					c0.3,1.3,0.8,2.5,1.6,3.6c1.4,2.2,3.6,4,5.9,5.4c0.1,0,0.1,0.1,0.1,0.2c0,0.1-0.1,0.1-0.2,0.1c-1.2-0.6-2.4-1.4-3.5-2.2
					c-1.1-0.9-2-1.9-2.8-3.1c-0.8-1.1-1.4-2.5-1.7-3.8c-0.3-1.4-0.4-2.8-0.2-4.2c0.2-1.4,0.6-2.7,1.2-4c0.6-1.3,1.3-2.5,2.3-3.5
					c1.9-2,4.4-3.5,7.1-4c0.1,0,0.1,0,0.1,0.1C133,111.1,132.9,111.2,132.9,111.2L132.9,111.2z"/>
			</g>
			<g>
				<path class="st25" d="M130.3,135.7c0.2-1.2,0.6-2.4,1.3-3.5c0.3-0.5,0.8-1,1.4-1.4c0.3-0.2,0.6-0.3,0.9-0.4
					c0.4-0.1,0.7-0.1,0.9-0.1c1.1-0.1,2.3-0.5,3.3-0.9c0.5-0.2,1-0.5,1.5-0.9c0.5-0.3,0.8-0.8,1.1-1.3l0,0c0-0.1,0.1-0.1,0.2-0.1
					c0.1,0,0.1,0.1,0.1,0.2c-0.4,1.3-1.5,2.1-2.6,2.7c-1.1,0.6-2.3,0.9-3.5,1.1c-0.3,0-0.6,0.1-0.9,0.1c-0.3,0.1-0.5,0.1-0.7,0.3
					c-0.5,0.3-0.8,0.7-1.2,1.1c-0.7,0.9-1.2,2-1.5,3.1l0,0c0,0.1-0.1,0.1-0.2,0.1C130.4,135.9,130.3,135.8,130.3,135.7z"/>
			</g>
			<g>
				<path class="st25" d="M141.1,127.3c-0.1,1-0.4,1.9-0.7,2.9c-0.2,0.5-0.3,0.9-0.6,1.4c-0.2,0.4-0.4,0.9-0.8,1.3
					c-0.1,0.1-0.2,0.1-0.2,0c-0.1,0-0.1-0.1-0.1-0.2l0,0c0.2-0.9,0.5-1.9,0.8-2.8c0.3-0.9,0.6-1.8,1.1-2.7c0.1-0.1,0.2-0.1,0.3-0.1
					C141.1,127.1,141.1,127.2,141.1,127.3z"/>
			</g>
			<g>
				<path class="st25" d="M138.9,132.6c1-0.3,2.1-0.7,3-1.1c0.9-0.5,1.8-1.1,2.6-1.8c0.8-0.7,1.4-1.6,1.9-2.5c0.5-0.9,0.8-2,1-3l0,0
					c0-0.1,0.1-0.1,0.2-0.1c0.1,0,0.1,0.1,0.1,0.2c0,0.6-0.1,1.1-0.2,1.7c-0.1,0.5-0.3,1.1-0.5,1.6c-0.2,0.5-0.5,1-0.8,1.5
					c-0.4,0.5-0.7,0.9-1.1,1.3c-0.8,0.8-1.8,1.4-2.8,1.9c-1,0.4-2.1,0.8-3.3,0.8c-0.1,0-0.2-0.1-0.2-0.2
					C138.8,132.7,138.8,132.6,138.9,132.6L138.9,132.6z"/>
			</g>
		</g>
		<g>
			<path class="st25" d="M124.9,112.3c1.3-0.3,2.6-0.6,3.9-0.8c1.3-0.2,2.7-0.4,4-0.5c0.1,0,0.1,0,0.1,0.1c0,0.1,0,0.1-0.1,0.1l0,0
				c-1.3,0.4-2.6,0.6-3.9,0.9c-1.3,0.2-2.6,0.4-4,0.6c-0.1,0-0.2-0.1-0.2-0.1C124.8,112.4,124.8,112.4,124.9,112.3z"/>
		</g>
		<path class="st68" d="M121.1,51.2c0,0,37.7-31-23.7-12.6L121.1,51.2z"/>
		<path class="st68" d="M41.9,51.2c0,0-37.7-31,23.7-12.6"/>
		<g>
			<path class="st26" d="M41.8,51.3c-3.6-3-7.2-6.2-9.9-10.2c-0.7-1-1.3-2.1-1.6-3.3c-0.2-0.6-0.3-1.2-0.2-1.9
				c0.1-0.7,0.4-1.3,0.8-1.8c0.5-0.5,1-0.8,1.6-1.1c0.6-0.2,1.2-0.4,1.8-0.5c1.2-0.2,2.4-0.3,3.6-0.3c4.8,0.1,9.5,1.1,14.1,2.3
				c4.6,1.1,9.1,2.5,13.7,3.9c0.1,0,0.1,0.1,0.1,0.2c0,0.1-0.1,0.1-0.2,0.1c-4.5-1.3-9.1-2.5-13.7-3.5c-2.3-0.5-4.6-1-6.9-1.3
				c-2.3-0.4-4.7-0.7-7-0.7c-1.2,0-2.3,0-3.5,0.2c-1.1,0.2-2.2,0.5-3,1.3c-0.7,0.7-0.8,1.9-0.5,3c0.3,1.1,0.8,2.1,1.5,3.1
				c1.3,2,2.8,3.8,4.4,5.5c1.6,1.7,3.3,3.4,5.1,4.9c0.1,0,0.1,0.1,0,0.2C41.9,51.4,41.9,51.4,41.8,51.3z"/>
		</g>
		<g>
			<path class="st26" d="M57.3,40.8c-2-0.5-3.9-0.9-5.9-1.2c-2-0.3-4-0.6-6-0.7c-2-0.2-4-0.4-6-0.4c-2-0.1-4-0.1-6,0
				c-0.1,0-0.2-0.1-0.2-0.2c0-0.1,0.1-0.2,0.2-0.2c2-0.2,4-0.3,6.1-0.4c2,0,4.1,0,6.1,0.2c2,0.2,4,0.6,6,1c2,0.4,3.9,1,5.9,1.6
				c0.1,0,0.1,0.1,0.1,0.2C57.4,40.7,57.4,40.8,57.3,40.8z"/>
		</g>
		<path class="st26" d="M47.1,46.8c0.6,0.1,1.2,0.2,1.7,0.1c0.6-0.1,1.1-0.5,1.5-0.8c1.9-1.4,3.8-2.8,5.7-4.2
			c0.3-0.2,0.6-0.5,0.5-0.8c0-0.1,3.6,0.5,1-0.2c-1-0.3-3-1-4.1-1.2c-4.3-0.8-8.7-1.4-13-1.7c-4.7-0.4,0.1,5.4,1.6,6.6
			C43.5,45.6,45.3,46.4,47.1,46.8z"/>
		<g>
			<path class="st26" d="M121,51.1c1.8-1.6,3.5-3.2,5.1-4.9c1.6-1.7,3.2-3.5,4.4-5.5c0.6-1,1.2-2,1.5-3.1c0.3-1.1,0.2-2.2-0.5-3
				c-0.7-0.7-1.9-1.1-3-1.3c-1.1-0.2-2.3-0.2-3.5-0.2c-2.3,0.1-4.7,0.4-7,0.7c-2.3,0.4-4.6,0.8-6.9,1.3c-4.6,1-9.2,2.2-13.7,3.5
				c-0.1,0-0.2,0-0.2-0.1c0-0.1,0-0.2,0.1-0.2c4.5-1.4,9-2.8,13.7-3.9c4.6-1.1,9.3-2.1,14.1-2.3c1.2,0,2.4,0,3.6,0.3
				c0.6,0.1,1.2,0.3,1.8,0.5c0.6,0.2,1.2,0.6,1.6,1.1c0.5,0.5,0.8,1.1,0.8,1.8c0.1,0.7,0,1.3-0.2,1.9c-0.3,1.2-1,2.3-1.6,3.3
				c-2.7,4-6.2,7.2-9.9,10.2c-0.1,0-0.1,0-0.2,0C121,51.3,121,51.2,121,51.1z"/>
		</g>
		<g>
			<path class="st26" d="M105.6,40.5c1.9-0.6,3.9-1.2,5.9-1.6c2-0.4,4-0.8,6-1c2-0.2,4.1-0.3,6.1-0.2c2,0,4.1,0.1,6.1,0.4
				c0.1,0,0.2,0.1,0.1,0.2c0,0.1-0.1,0.2-0.2,0.2c-2-0.1-4-0.1-6,0c-2,0.1-4,0.3-6,0.4c-2,0.2-4,0.4-6,0.7c-2,0.3-4,0.7-5.9,1.2
				c-0.1,0-0.1,0-0.1-0.1C105.5,40.6,105.6,40.6,105.6,40.5z"/>
		</g>
		<path class="st26" d="M115.9,46.8c-0.6,0.1-1.2,0.2-1.7,0.1c-0.6-0.1-1.1-0.5-1.5-0.8c-1.9-1.4-3.8-2.8-5.7-4.2
			c-0.3-0.2-0.6-0.5-0.5-0.8c0-0.1,0.1-0.3,0.3-0.4c0.8-0.7,1.8-0.9,2.9-1.1c4.3-0.8,8.7-1.4,13-1.7c4.7-0.4-0.1,5.4-1.6,6.6
			C119.5,45.6,117.7,46.4,115.9,46.8z"/>
		<path class="st30" d="M122.9,90c9-3.7,9.6-7.4,9.6-7.4s-1.4,0.4-2.8,0.2c-1.8-0.2-3.6-0.9-3.2-1c3.4-1,4.7-3.4,4.7-3.4
			c-1.4-0.4-3-1.5-3.1-2.3c0.1-1.6,0.1-2.9,0.1-3.6c0.3-14.6-8.8-23.1-8.8-23.1s-6.4-9-25-12.6c0.2-1.1,0.3-2.1,0.3-3.1
			c0.1-2.7-2.2-5.6-2.2-5.6c-0.3,4.6-2.4,5.6-2.4,5.6c1.1-3.1-1.3-6.6-3.9-9.2c-2.6-2.6-8.6-5.8-8.6-5.8s0.4,2.9,0.2,4.9
			c-0.1,2-2.9,4.2-4.8,6.2c-1.9,2-0.9,5.9-0.9,5.9c-1.8-0.2-3.2-3.8-3.2-3.8l-0.7,1.9c-0.2,0.9,0,1.8,0.3,2.8
			c-0.2,0-0.4,0.1-0.6,0.1c0,0-10.7,1.4-21.4,9.3c-2.1,1.6-3.3,3.7-5.3,5.8c0,0-2.3,2-3.7,5.7c-1.7,4.6-3.5,11.2-3,17.8
			c0,0.3,0.1,0.6,0.1,0.9c-0.1,0.7-1.1,1.5-3.1,2.1c0,0,1.6,2.4,4.7,3.4c0,0-1.5,1-6,0.8c-0.4,0,2.3,4.5,9.6,7.4l-3.7,0.4L32.6,90
			c3.1,4.1,10.3,6.9,10.3,6.9l6.7,1.3c1.4,0.9,3.4,2,4.8,2.7c0.6,0.3,1.2,0.6,1.9,0.9c1.5,0.8,2.8,1.4,3.4,1.5
			c-1.1,2.6-12,26.6-9.8,35.6c-1,7.6,14.5,8.6,22.7,8.2c0,0,0.6,3.2,4.5,3.6c2.3,0.2,2.8-4.3,3.1-4c0.2,0.2,2.9,0,2.9,0
			c0,0,1.2,3.3,3,4.2c2.2,1.1,3.8-3.3,4.6-3.9c0,0,18.2,1.8,21.7-4.9c2.1-4-0.6-16.5-3.8-26.1c-1.8-5.4-4.4-10.8-5.4-12.7
			c0.3-0.1,0.9-0.3,1.6-0.7c0.8-0.2,1.8-0.6,2.8-1.2c1.3-0.7,3.9-2.2,5.6-3.3c0,0,13.9-2,16.9-8.3c0.3-0.6-1.8,0.9-4.6,0.2
			C125.1,90.2,122.5,90.2,122.9,90z"/>
		<g>
			<defs>
				<path id="SVGID_61_" d="M122.9,90c9-3.7,9.6-7.4,9.6-7.4s-1.4,0.4-2.8,0.2c-1.8-0.2-3.6-0.9-3.2-1c3.4-1,4.7-3.4,4.7-3.4
					c-1.4-0.4-3-1.5-3.1-2.3c0.1-1.6,0.1-2.9,0.1-3.6c0.3-14.6-8.8-23.1-8.8-23.1s-6.4-9-25-12.6c0.2-1.1,0.3-2.1,0.3-3.1
					c0.1-2.7-2.2-5.6-2.2-5.6c-0.3,4.6-2.4,5.6-2.4,5.6c1.1-3.1-1.3-6.6-3.9-9.2c-2.6-2.6-8.6-5.8-8.6-5.8s0.4,2.9,0.2,4.9
					c-0.1,2-2.9,4.2-4.8,6.2c-1.9,2-0.9,5.9-0.9,5.9c-1.8-0.2-3.2-3.8-3.2-3.8l-0.7,1.9c-0.2,0.9,0,1.8,0.3,2.8
					c-0.2,0-0.4,0.1-0.6,0.1c0,0-10.7,1.4-21.4,9.3c-2.1,1.6-3.3,3.7-5.3,5.8c0,0-2.3,2-3.7,5.7c-1.7,4.6-3.5,11.2-3,17.8
					c0,0.3,0.1,0.6,0.1,0.9c-0.1,0.7-1.1,1.5-3.1,2.1c0,0,1.6,2.4,4.7,3.4c0,0-1.5,1-6,0.8c-0.4,0,2.3,4.5,9.6,7.4l-3.7,0.4L32.6,90
					c3.1,4.1,10.3,6.9,10.3,6.9l6.7,1.3c1.4,0.9,3.4,2,4.8,2.7c0.6,0.3,1.2,0.6,1.9,0.9c1.5,0.8,2.8,1.4,3.4,1.5
					c-1.1,2.6-12,26.6-9.8,35.6c-1,7.6,14.5,8.6,22.7,8.2c0,0,0.6,3.2,4.5,3.6c2.3,0.2,2.8-4.3,3.1-4c0.2,0.2,2.9,0,2.9,0
					c0,0,1.2,3.3,3,4.2c2.2,1.1,3.8-3.3,4.6-3.9c0,0,18.2,1.8,21.7-4.9c2.1-4-0.6-16.5-3.8-26.1c-1.8-5.4-4.4-10.8-5.4-12.7
					c0.3-0.1,0.9-0.3,1.6-0.7c0.8-0.2,1.8-0.6,2.8-1.2c1.3-0.7,3.9-2.2,5.6-3.3c0,0,13.9-2,16.9-8.3c0.3-0.6-1.8,0.9-4.6,0.2
					C125.1,90.2,122.5,90.2,122.9,90z"/>
			</defs>
			<clipPath id="SVGID_2_">
				<use xlink:href="#SVGID_61_"  style="overflow:visible;"/>
			</clipPath>
			<g style="clip-path:url(#SVGID_2_);">
				<path class="st68" d="M77,48c0,0-2.1,4.7-0.1,7c2,2.3,3.9,1.7,4.6,1.1c0.7-0.6,1.7-1.1,3-1.1c1.3,0,2.7-2.6,2.4-5
					c-0.3-2.4-1.5-1.7-2.2-2.3c-0.8-0.7-1.3-1.7-1.3-2.9c0,0-0.6,1-0.4,2.4c0.2,1,1,1.9,0.2,2s-2.1,0-2.3-1.8s0.2-1.2,0.1-2.6
					s-0.2-2.4,0.2-2.3c0.4,0.1,0.8,1.5,0.8,2c0,0,0.4-0.7,0-2.3c-0.4-1.6,0.3-3,0.3-3s-1.1,0.7-1.4,2c-0.3,1.3-0.7,0.9-0.8,2.1
					s0.3,2.4-0.1,2.3s-1.4-0.7-1.8-2.4c0,0-0.5,1.9-0.4,2.9c0.1,1,0.5,1.9,0.5,1.9s0.5-1.4,0.8-1.2s0.8,3.7,0.4,4.3
					c0,0-0.8-0.4-0.8-1.3c0,0-0.6,0.1-0.8,1.4C77.9,51,76.9,50.2,77,48z"/>
				<path class="st68" d="M62.5,130.3c0,0-0.5,1-1.9,1.5c-1.4,0.5-1.3-2.5-1.3-2.5c-0.9,2-1.7,2.1-2.4,1.7c-0.7-0.4,1.2-4,1.2-4
					s-0.8,0.9-1.6,0c-0.8-0.9,1-3.2,1.8-3.7c0.8-0.5,1.2,0.3,1.4,0.4c0.2,0,0.6-1,0.9-2.9c0.2-1.9,1.2-3.8,1.2-3.8
					c-0.9,0.1-1.6,2.9-2.7,3.3c-1,0.4-1.2-0.8-1-1.6c0.2-0.8,0.5-2.6,0.2-3c-0.3-0.5-1.6-1.5-0.3-3.3c1.3-1.8,1-3.1,1-3.1
					c-0.3,0.8-0.9,1.4-1.6,1.7c-0.8,0.3-1.5-0.4-1.5-0.4c-0.5-0.3-0.4-1.4-0.4-1.4s-1,2.9-2.4,6.8c0.3,0,1.1-0.1,1.5-0.5
					c0.5-0.5,2-0.3,2.2,0.9c0.1,1.2-2.2-0.9-1,3.7c0.3,1.1-1,1-0.9,3.2c0,1-1.1-2.3-0.7-3.4c0.5-1.1,0.1-1.6-0.4-1.4
					c-0.5,0.2-1.2,2-2.3,2.2c-0.2,0.7-0.5,1.4-0.7,2.1c-2.4,7-2.1,10.4-2.1,10.4s-0.8,7.1,1.6,9.7c2.4,2.6,7.4,3.2,7.4,3.2
					c-1.6-1.5,2.2-7.9,2.2-7.9c-1.7-0.2,0.5-3.8,1.5-4.9C62.4,132.3,62.5,130.3,62.5,130.3z M52.7,137.2c0.1-0.7-0.1-1.3-0.4-1.8
					c-0.2-0.5,0-1.7,0-1.7c-1.8,0.1-2-1.9-1.3-2.9c0.6-1,0.8-2.2,0.8-2.2c0.7,1.3-0.3,2.6,0.8,3.1c1.1,0.5,2.4-3.3,2.4-3.3
					c1,3.6-1.4,5.6-1.4,5.6C54,136,52.7,137.2,52.7,137.2z M55.3,139.2c-1,0.6-1.6-1-1.6-1s0.9,0.2,1.3-0.2c0.4-0.4,0.4-3.2,0.4-3.2
					S56.2,138.6,55.3,139.2z"/>
				<path class="st68" d="M101.5,133.4c1,1,3.2,4.7,1.5,4.9c0,0,3.8,6.5,2.2,7.9c0,0,5-0.7,7.4-3.2c2.4-2.6,1.6-9.7,1.6-9.7
					s0.3-3.4-2.1-10.4c-0.2-0.7-0.5-1.4-0.7-2.1c-1.1-0.2-1.8-2-2.3-2.2c-0.5-0.2-0.9,0.3-0.4,1.4c0.5,1.1-0.7,4.4-0.7,3.4
					c0.1-2.2-1.2-2.1-0.9-3.2c1.2-4.6-1.1-2.5-1-3.7c0.1-1.2,1.7-1.4,2.2-0.9c0.4,0.4,1.3,0.5,1.5,0.5c-1.4-3.9-2.4-6.8-2.4-6.8
					s0.1,1.1-0.4,1.4c0,0-0.7,0.7-1.5,0.4s-1.3-0.9-1.6-1.7c0,0-0.4,1.3,1,3.1c1.3,1.8,0,2.9-0.3,3.3c-0.3,0.5,0,2.3,0.2,3
					c0.2,0.8,0.1,2-1,1.6c-1-0.4-1.8-3.2-2.7-3.3c0,0,1,1.9,1.2,3.8c0.2,1.9,0.6,2.9,0.9,2.9c0.2,0,0.7-0.9,1.4-0.4
					c0.8,0.5,2.6,2.8,1.8,3.7c-0.8,0.9-1.6,0-1.6,0s1.9,3.5,1.2,4c-0.7,0.4-1.5,0.3-2.4-1.7c0,0,0.1,3-1.3,2.5
					c-1.4-0.5-1.9-1.5-1.9-1.5S100.5,132.3,101.5,133.4z M109.3,133.9c0,0-2.5-2-1.4-5.6c0,0,1.3,3.8,2.4,3.3
					c1.1-0.5,0.1-1.8,0.8-3.1c0,0,0.1,1.2,0.8,2.2c0.6,1,0.5,3-1.3,2.9c0,0,0.3,1.2,0,1.7c-0.2,0.5-0.5,1.1-0.4,1.8
					C110.2,137.2,108.9,136,109.3,133.9z M107.6,134.8c0,0,0,2.8,0.4,3.2s1.3,0.2,1.3,0.2s-0.7,1.6-1.6,1S107.6,134.8,107.6,134.8z"
					/>
				<path class="st68" d="M82.2,138.3c0,0,0.5-3.4,1.9-3.5c0,0,1.1,2.8,2.8-0.2c0.6-1.2,1.4-1.7,2.1-1.8s2-0.9,2.5-1.5
					c0,0,0.1,1.1-0.4,1.6c-0.5,0.5-1.4,0.9-1.5,2.1s-0.7,2-0.8,2.1c-0.1,0,0.6,0.4,1.1,0s1.1-2.1,1.6-2.3c0,0,0.3,1.3-0.1,2.3
					c-0.4,1-2,2.1-1.1,3.4c0.9,1.2,1.8,0.4,3.2,0.6l-3.2,6.9l-6.7-1C83.6,147.1,82.5,142.9,82.2,138.3z"/>
				<path class="st68" d="M80.9,140.5c0-0.1-2.2-1-2.4-2.9c0,0-1.3,3-2.4,1.9c-1.1-1,0-1.9,0.9-2.3c0.9-0.4,1.1-2.2,0.9-3.1
					c0,0-0.5,0.9-1,1c-0.6,0.1-1.3,0.4-1.6,0.7c0,0,1.1-0.9,0.7-2s-1.4-1-1.6-2.4c0,0,0.4,2-0.3,2.4c-0.6,0.4-2.4,1.3-2,2.6
					c0.5,1.3,0.4,1.9-0.1,2.2c-0.5,0.3-2-0.3-2-0.3s-0.1,1-0.6,1.6c0,0,2.7,7.2,3.3,7.5c0.6,0.4,7.1-0.7,7.1-0.7L80.9,140.5z"/>
				<path class="st68" d="M37,53.1c0,0,1.2,1.4,2.1,0.9c0.9-0.5,1.4-1.9,2.7-2.3c0,0-0.6,1.8-1.4,3.2s-1,2.8-0.7,4.2
					c0.3,1.4-1.1,3.3-1.3,3.4s0.3-2.8-2.3-2.8c0,0,0.5,1,0,1.8c-0.5,0.9-1.7,3.2-1.5,4.1c0.2,0.9,0.9,0.7,1,1.6s-0.8,2.4-0.3,2.7
					s1.5,0.4,1.6,0.6s-1.2,2.1,0.2,1.9c1.4-0.3,2.3-2.1,1.6-3c-0.8-0.9-1.4-0.8-0.7-2.4c0.7-1.7,0.9-0.9,1.2-3c0,0,0.9-1.4,1.4-1.9
					c0,0,0.3,1.6-0.4,2.8c-0.7,1.2-0.3,4.6,1.4,3.1c1.8-1.5,1.6-3.8,3.5-4.7c0,0-0.8,1.5-0.8,2.7c0,1.1-1.6,3.2-1.6,3.2
					s0.7,3-0.5,3.9c0,0-0.3-1.5-1.8-0.8c-1.5,0.7-5.5,5.9-2.6,6.4c1.4,0.2,2-0.8,2-0.8s-0.2,2.9-1.5,3.6s-1.3,3.1,0.5,3
					s2.2-1.6,2.3-3.3c0,0,0.3,4.3,2.1,4s3-2.1,3-2.1s-0.3,4.1-1.5,4.6c0,0-0.6-1.2-1.6-0.5c-1,0.7-1.1,5-1.1,5
					c-0.2,0.3-1,0.4-0.4,2.8c0,0-1.8,16.5-4.1,11.9c0,0-14.2-20-11.9-21c0,0,3.1-2.9,2.9-5.6c0,0-3.4-0.7-1.1-2.1
					c0,0,2.6-0.5,2.4-2.4c0,0,2.8-0.1,3.2-2.7C33.6,70.4,33.2,58.5,37,53.1z"/>
				<path class="st68" d="M125.8,53.1c0,0-1.2,1.4-2.1,0.9c-0.9-0.5-1.4-1.9-2.7-2.3c0,0,0.6,1.8,1.4,3.2s1,2.8,0.7,4.2
					s1.1,3.3,1.3,3.4s-0.3-2.8,2.3-2.8c0,0-0.5,1,0,1.8c0.5,0.9,1.7,3.2,1.5,4.1c-0.2,0.9-0.9,0.7-1,1.6s0.8,2.4,0.3,2.7
					c-0.5,0.3-1.5,0.4-1.6,0.6s1.2,2.1-0.2,1.9c-1.4-0.3-2.3-2.1-1.6-3c0.8-0.9,1.4-0.8,0.7-2.4c-0.7-1.7-0.9-0.9-1.2-3
					c0,0-0.9-1.4-1.4-1.9c0,0-0.3,1.6,0.4,2.8c0.7,1.2,0.3,4.6-1.4,3.1c-1.8-1.5-1.6-3.8-3.5-4.7c0,0,0.8,1.5,0.8,2.7
					c0,1.1,1.6,3.2,1.6,3.2s-0.7,3,0.5,3.9c0,0,0.3-1.5,1.8-0.8c1.5,0.7,5.5,5.9,2.6,6.4c-1.4,0.2-2-0.8-2-0.8s0.2,2.9,1.5,3.6
					s1.3,3.1-0.5,3c-1.8-0.2-2.2-1.6-2.3-3.3c0,0-0.3,4.3-2.1,4c-1.8-0.3-3-2.1-3-2.1s0.3,4.1,1.5,4.6c0,0,0.6-1.2,1.6-0.5
					s1.6,3.4,1.4,4.9c0,0.4,1.6,0.8,0.1,2.9c0,0-0.3,10.1,2,5.6c0,0,13.8-14.1,11.5-15c0,0-0.7-2.5-0.4-5.2c0,0,3.6-0.6,1.3-2
					c0,0-2.8-0.6-2.6-2.5c0,0-2.8-0.1-3.2-2.7C129.3,70.4,129.7,58.5,125.8,53.1z"/>
			</g>
		</g>
		<path class="st22" d="M122.9,90c9-3.7,9.6-7.4,9.6-7.4s-1.4,0.4-2.8,0.2c-1.8-0.2-3.6-0.9-3.2-1c3.4-1,4.7-3.4,4.7-3.4
			c-1.4-0.4-3-1.5-3.1-2.3c0.1-1.6,0.1-2.9,0.1-3.6c0.3-14.6-8.8-23.1-8.8-23.1s-6.4-9-25-12.6c0.2-1.1,0.3-2.1,0.3-3.1
			c0.1-2.7-2.2-5.6-2.2-5.6c-0.3,4.6-2.4,5.6-2.4,5.6c1.1-3.1-1.3-6.6-3.9-9.2c-2.6-2.6-8.6-5.8-8.6-5.8s0.4,2.9,0.2,4.9
			c-0.1,2-2.9,4.2-4.8,6.2c-1.9,2-0.9,5.9-0.9,5.9c-1.8-0.2-3.2-3.8-3.2-3.8l-0.7,1.9c-0.2,0.9,0,1.8,0.3,2.8
			c-0.2,0-0.4,0.1-0.6,0.1c0,0-10.7,1.4-21.4,9.3c-2.1,1.6-3.3,3.7-5.3,5.8c0,0-2.3,2-3.7,5.7c-1.7,4.6-3.5,11.2-3,17.8
			c0,0.3,0.1,0.6,0.1,0.9c-0.1,0.7-1.1,1.5-3.1,2.1c0,0,1.6,2.4,4.7,3.4c0,0-1.5,1-6,0.8c-0.4,0,2.3,4.5,9.6,7.4l-3.7,0.4L32.6,90
			c3.1,4.1,10.3,6.9,10.3,6.9l6.7,1.3c1.4,0.9,3.4,2,4.8,2.7c0.6,0.3,1.2,0.6,1.9,0.9c1.5,0.8,2.8,1.4,3.4,1.5
			c-1.1,2.6-12,26.6-9.8,35.6c-1,7.6,14.5,8.6,22.7,8.2c0,0,0.6,3.2,4.5,3.6c2.3,0.2,2.8-4.3,3.1-4c0.2,0.2,2.9,0,2.9,0
			c0,0,1.2,3.3,3,4.2c2.2,1.1,3.8-3.3,4.6-3.9c0,0,18.2,1.8,21.7-4.9c2.1-4-0.6-16.5-3.8-26.1c-1.8-5.4-4.4-10.8-5.4-12.7
			c0.3-0.1,0.9-0.3,1.6-0.7c0.8-0.2,1.8-0.6,2.8-1.2c1.3-0.7,3.9-2.2,5.6-3.3c0,0,13.9-2,16.9-8.3c0.3-0.6-1.8,0.9-4.6,0.2
			C125.1,90.2,122.5,90.2,122.9,90z"/>
		<g>
			<path class="st24" d="M111,95.8c0,0-3.6,4.7-7.7,7.4c0,0,0.1,0.1,0.1,0.1c0.7-0.2,1.8-0.8,3-1.4c0.7-0.3,1.3-0.6,1.9-0.9
				c1.5-0.8,3.4-1.9,4.8-2.7l6.7-1.3c0,0,7.2-2.8,10.3-6.9C130,90,119.9,96.2,111,95.8z"/>
			<path class="st24" d="M122.7,90l-3.7-0.7c4.7-0.9,13.3-6.7,13.3-6.7l0,0.1C132.2,83.5,129.3,87.4,122.7,90z"/>
			<g>
				<path class="st24" d="M127.7,82.4l-0.4-0.2c0.1,0,0.3,0.1,0.5,0.2L127.7,82.4z"/>
				<path class="st24" d="M126.5,81.8l-2.8-1.7c3.1,0,7.3-1.7,7.3-1.7S129.5,80.8,126.5,81.8z"/>
			</g>
			<g>
				<path class="st70" d="M72.3,147.3c0,0,11.1-0.6,18.5,0.1"/>
				<path class="st24" d="M104.3,106.4c3.1,7.1,10.5,25.1,8.6,32.7c0.5,3.7-2.9,5.8-7.5,7C115.6,139.1,107.5,114.9,104.3,106.4z"/>
				<path class="st24" d="M83.1,146.9c0.3-1.6-0.4-3.3-0.5-5c0-0.5,0-0.9,0-1.4c0-0.6-0.2-1.2-0.3-1.9c-0.2-0.8-0.3-1.6-0.3-2.4
					c-0.3,0.4-0.4,0.9-0.4,1.4c-0.2,2.1-0.5,4.2-0.9,6.3c-0.1,0.5-0.7,2.5-0.4,2.8C80.4,147,83.1,146.9,83.1,146.9z"/>
				<path class="st26" d="M72.6,147.5c0,0,2.4-2,7.2-0.7c0,0-0.4,3.4-2.7,4.2C74.9,151.8,72.6,147.5,72.6,147.5z"/>
				<path class="st26" d="M90.7,147.5c0,0-2.4-2-7.2-0.7c0,0,0.4,3.4,2.7,4.2S90.7,147.5,90.7,147.5z"/>
				<g>
					<path class="st26" d="M103.4,103.3c2.4,4.8,4.5,9.7,6.3,14.7c1.8,5,3.3,10.2,3.9,15.5c0.3,2.7,0.3,5.4-0.4,8.1
						c-0.5,1.4-1.6,2.5-2.7,3.2c-1.2,0.7-2.5,1.2-3.8,1.5c-2.6,0.7-5.3,0.9-7.9,1.1c-2.7,0.1-5.3,0.1-8,0c-0.1,0-0.2-0.1-0.2-0.2
						c0-0.1,0.1-0.2,0.2-0.2c2.7,0,5.3,0,7.9-0.2c2.6-0.2,5.3-0.5,7.8-1.3c1.2-0.4,2.5-0.8,3.6-1.5c1.1-0.7,2-1.6,2.3-2.8
						c0.6-2.5,0.6-5.1,0.3-7.7c-0.5-5.2-2-10.4-3.7-15.4c-1.8-5-3.8-9.9-6.1-14.7l0,0c-0.1-0.1,0-0.3,0.1-0.4
						C103.1,103.1,103.3,103.1,103.4,103.3z"/>
				</g>
				<g>
					<path class="st26" d="M60,103.5c-2.3,4.8-4.3,9.7-6,14.7c-1.7,5-3.1,10.2-3.7,15.4c-0.3,2.6-0.3,5.3,0.4,7.7
						c0.4,1.1,1.3,2.1,2.4,2.7c1.1,0.7,2.3,1.1,3.6,1.5c2.5,0.7,5.2,1,7.8,1.2c2.6,0.2,5.3,0.2,8,0.2c0.1,0,0.2,0.1,0.2,0.2
						c0,0.1-0.1,0.2-0.2,0.2c-2.7,0.1-5.3,0.1-8,0c-2.7-0.1-5.4-0.4-8-1c-1.3-0.3-2.6-0.8-3.8-1.5c-1.2-0.7-2.3-1.8-2.8-3.1
						c-0.4-1.4-0.6-2.7-0.6-4.1c0-1.4,0-2.7,0.1-4.1c0.6-5.4,2.1-10.5,3.9-15.6c1.8-5,3.9-9.9,6.3-14.7c0.1-0.1,0.2-0.2,0.3-0.1
						C60.1,103.3,60.1,103.4,60,103.5L60,103.5z"/>
				</g>
				<g>
					<path class="st26" d="M81.8,122.5c0.2,4.3,0.2,8.5,0,12.8c-0.1,2.1-0.2,4.3-0.5,6.4c-0.3,2.1-0.6,4.2-1.2,6.3
						c-0.4,1-0.8,2.1-1.7,2.9l-0.4,0.3c-0.1,0.1-0.3,0.1-0.5,0.2c-0.2,0.1-0.3,0.1-0.5,0.1c-0.2,0-0.3,0-0.5,0
						c-0.6-0.1-1.2-0.4-1.7-0.7c-0.9-0.7-1.5-1.6-2.1-2.6c-0.6-0.9-1-1.9-1.5-2.9c-1.7-3.9-2.9-8-3.9-12.2c0-0.1,0-0.2,0.1-0.2
						c0.1,0,0.2,0,0.2,0.1c1.1,4.1,2.4,8.1,4.2,12c0.5,0.9,0.9,1.9,1.5,2.8c0.6,0.9,1.2,1.7,2,2.3c0.7,0.6,1.7,0.8,2.3,0.2
						c0.7-0.6,1.1-1.6,1.4-2.5c0.7-2,1-4,1.3-6.1c0.3-2.1,0.5-4.2,0.6-6.3c0.3-4.2,0.4-8.5,0.4-12.7c0-0.1,0.1-0.1,0.1-0.1
						C81.7,122.4,81.7,122.4,81.8,122.5z"/>
				</g>
				<g>
					<path class="st26" d="M81.8,122.5c0,4.2,0.1,8.5,0.4,12.7c0.1,2.1,0.3,4.2,0.6,6.3c0.3,2.1,0.7,4.2,1.3,6.1
						c0.3,0.9,0.7,2,1.4,2.5c0.6,0.6,1.6,0.4,2.3-0.2c0.8-0.6,1.4-1.4,2-2.3c0.6-0.9,1.1-1.8,1.5-2.8c1.8-3.8,3.1-7.9,4.2-12
						c0-0.1,0.1-0.1,0.2-0.1c0.1,0,0.1,0.1,0.1,0.2c-1,4.1-2.2,8.2-3.9,12.2c-0.4,1-0.9,1.9-1.5,2.9c-0.6,0.9-1.2,1.8-2.1,2.6
						c-0.4,0.4-1,0.7-1.7,0.7c-0.2,0-0.3,0-0.5,0c-0.2,0-0.3,0-0.5-0.1c-0.2-0.1-0.3-0.1-0.5-0.2l-0.4-0.3c-0.9-0.8-1.3-1.9-1.7-2.9
						c-0.7-2.1-1-4.2-1.2-6.3c-0.2-2.1-0.4-4.3-0.5-6.4c-0.2-4.3-0.2-8.5,0-12.8c0-0.1,0.1-0.1,0.1-0.1
						C81.8,122.4,81.8,122.4,81.8,122.5z"/>
				</g>
				<path class="st24" d="M95.9,133.1c0,0,2.4,13.1,9.8,13.2c0,0-6.1,1.3-15,0.9l2.9-6.9L95.9,133.1z"/>
				<path class="st24" d="M67.5,133.1c0,0-2.5,13.8-9.8,13.2l6.6,1h8.2C71,145.9,67.5,133.1,67.5,133.1z"/>
			</g>
			<path class="st24" d="M58.5,106.4c-3.1,7.1-10.5,25.1-8.6,32.7c-0.5,3.7,2.9,5.8,7.5,7C47.2,139.1,55.3,114.9,58.5,106.4z"/>
			<g>
				<path class="st26" d="M34.4,75.3c-0.1-4.8,0.4-9.5,1.8-14.1c1.4-4.6,3.8-8.8,7.1-12.3c3.3-3.5,7.4-6.2,11.7-8.1
					c4.3-2,8.9-3.3,13.5-4.2c0.1,0,0.3,0.1,0.3,0.2c0,0.1-0.1,0.3-0.2,0.3c-4.6,1-9.1,2.4-13.3,4.5c-4.2,2-8.1,4.8-11.2,8.2
					c-3.2,3.4-5.6,7.5-7,11.9c-1.4,4.4-1.9,9.1-1.9,13.8l0,0c0,0.3-0.2,0.5-0.5,0.5C34.6,75.8,34.4,75.6,34.4,75.3z"/>
			</g>
			<g>
				<path class="st26" d="M59.7,103.6c-1.8-0.7-3.6-1.5-5.3-2.3c-1.7-0.8-3.4-1.8-5.1-2.8c-0.2-0.1-0.3-0.4-0.2-0.6
					c0.1-0.2,0.4-0.3,0.6-0.2c0,0,0,0,0,0c1.5,1.1,3.2,2.1,4.8,3.1c1.7,0.9,3.4,1.8,5.2,2.4l0,0c0.1,0,0.2,0.2,0.1,0.3
					S59.9,103.7,59.7,103.6C59.7,103.6,59.7,103.6,59.7,103.6z"/>
			</g>
			<g>
				<path class="st26" d="M127.6,75.3c0-4.6-0.5-9.3-1.9-13.7c-1.4-4.4-3.7-8.5-6.8-11.8c-3.1-3.4-6.9-6.1-11-8.2
					c-4.1-2.1-8.6-3.5-13.1-4.6c-0.1,0-0.2-0.2-0.2-0.3c0-0.1,0.2-0.2,0.3-0.2c4.6,0.9,9.1,2.3,13.4,4.3c4.2,2,8.2,4.7,11.5,8.2
					c3.2,3.5,5.6,7.7,7,12.3c1.4,4.5,1.9,9.3,1.8,14c0,0.3-0.2,0.5-0.5,0.5C127.8,75.8,127.6,75.5,127.6,75.3L127.6,75.3z"/>
			</g>
			<g>
				<path class="st26" d="M103,103.2c1.8-0.7,3.5-1.5,5.2-2.4c1.7-0.9,3.3-1.9,4.8-3.1c0.2-0.1,0.5-0.1,0.6,0.1
					c0.1,0.2,0.1,0.5-0.1,0.6c0,0,0,0,0,0c-1.7,1-3.3,2-5.1,2.8c-1.7,0.9-3.5,1.6-5.3,2.3c-0.1,0-0.2,0-0.3-0.1
					C102.8,103.4,102.9,103.3,103,103.2C103,103.2,103,103.2,103,103.2L103,103.2z"/>
			</g>
			<g>
				<path class="st26" d="M113.3,97.7c1.6-0.1,3.2-0.3,4.7-0.7c1.6-0.4,3.1-0.9,4.5-1.5c1.5-0.6,2.8-1.4,4.1-2.4
					c1.3-0.9,2.4-2.1,3.4-3.3l0,0c0.1-0.1,0.2-0.1,0.4,0c0.1,0.1,0.1,0.2,0,0.4c-1,1.3-2.1,2.5-3.4,3.5c-1.3,1-2.7,1.9-4.2,2.5
					c-1.5,0.7-3,1.2-4.6,1.6c-1.6,0.4-3.2,0.7-4.9,0.8c-0.3,0-0.5-0.2-0.5-0.4S113,97.7,113.3,97.7
					C113.2,97.7,113.2,97.7,113.3,97.7L113.3,97.7z"/>
			</g>
			<g>
				<path class="st26" d="M123.1,89.6c0.5,0.2,1.1,0.3,1.7,0.4c0.6,0.1,1.2,0.1,1.8,0.1c1.2,0,2.4-0.1,3.6-0.3
					c0.1,0,0.3,0.1,0.3,0.2c0,0.1-0.1,0.3-0.2,0.3c-1.2,0.3-2.5,0.5-3.7,0.5c-0.6,0-1.3,0-1.9,0c-0.6-0.1-1.2-0.1-1.9-0.3
					c-0.3-0.1-0.4-0.3-0.3-0.6C122.5,89.7,122.8,89.5,123.1,89.6C123,89.6,123,89.6,123.1,89.6L123.1,89.6z"/>
			</g>
			<g>
				<path class="st26" d="M122.7,89.6c1.9-0.7,3.7-1.7,5.4-2.8c0.8-0.6,1.7-1.2,2.4-1.9c0.7-0.7,1.4-1.5,1.8-2.4l0,0
					c0.1-0.1,0.2-0.2,0.3-0.1c0.1,0.1,0.2,0.2,0.1,0.3c-0.4,1-1.1,1.9-1.8,2.6c-0.7,0.8-1.6,1.4-2.4,2c-0.9,0.6-1.7,1.2-2.7,1.7
					c-0.9,0.5-1.8,1-2.8,1.4c-0.2,0.1-0.5,0-0.6-0.2C122.4,90,122.5,89.7,122.7,89.6C122.7,89.6,122.7,89.6,122.7,89.6L122.7,89.6z"
					/>
			</g>
			<g>
				<path class="st26" d="M126.8,81.5c0.4,0.2,0.9,0.4,1.3,0.6c0.5,0.2,0.9,0.3,1.4,0.4c1,0.2,2,0.2,2.9-0.1l0,0
					c0.1,0,0.3,0.1,0.3,0.2c0,0.1,0,0.3-0.2,0.3c-1,0.3-2.1,0.4-3.2,0.3c-0.5-0.1-1.1-0.2-1.6-0.3c-0.5-0.1-1-0.3-1.5-0.6
					c-0.2-0.1-0.3-0.4-0.2-0.6C126.2,81.4,126.5,81.3,126.8,81.5C126.8,81.4,126.8,81.4,126.8,81.5L126.8,81.5z"/>
			</g>
			<g>
				<path class="st26" d="M126.4,81.4c0.9-0.3,1.8-0.7,2.6-1.2c0.8-0.5,1.6-1.1,2-1.9l0,0c0.1-0.1,0.2-0.2,0.3-0.1
					c0.1,0.1,0.2,0.2,0.1,0.3c-0.5,1-1.3,1.7-2.1,2.3c-0.8,0.6-1.7,1.1-2.7,1.5c-0.2,0.1-0.5,0-0.6-0.2
					C126,81.8,126.1,81.6,126.4,81.4C126.4,81.4,126.4,81.4,126.4,81.4L126.4,81.4z"/>
			</g>
			<g>
				<path class="st26" d="M128.5,75.3c0,0.3,0,0.7,0.1,1c0.1,0.3,0.3,0.7,0.6,0.9c0.3,0.3,0.6,0.5,0.9,0.6c0.4,0.2,0.7,0.3,1.1,0.3
					l0,0c0.1,0,0.2,0.2,0.2,0.3c0,0.1-0.1,0.2-0.3,0.2c-0.4,0-0.9-0.1-1.3-0.3c-0.4-0.1-0.8-0.4-1.2-0.7c-0.4-0.3-0.6-0.7-0.8-1.1
					c-0.2-0.4-0.3-0.9-0.3-1.4c0-0.3,0.2-0.5,0.5-0.5C128.3,74.8,128.5,75,128.5,75.3C128.5,75.3,128.5,75.3,128.5,75.3L128.5,75.3z
					"/>
			</g>
			<g>
				<g>
					<path class="st26" d="M49.6,98.6c-1.7-0.1-3.3-0.4-4.9-0.8c-1.6-0.4-3.1-0.9-4.6-1.6c-1.5-0.7-2.9-1.5-4.2-2.5
						c-1.3-1-2.4-2.2-3.4-3.5c-0.1-0.1-0.1-0.3,0-0.4c0.1-0.1,0.3-0.1,0.4,0l0,0c1,1.2,2.1,2.4,3.4,3.3c1.3,0.9,2.7,1.8,4.1,2.4
						c1.5,0.6,3,1.1,4.5,1.5c1.5,0.4,3.1,0.6,4.7,0.7l0,0c0.3,0,0.5,0.2,0.5,0.5C50.1,98.4,49.9,98.6,49.6,98.6
						C49.6,98.6,49.6,98.6,49.6,98.6z"/>
				</g>
				<g>
					<path class="st26" d="M40.1,90.5c-0.7,0.2-1.3,0.3-1.9,0.3c-0.6,0-1.3,0.1-1.9,0c-1.3-0.1-2.5-0.2-3.7-0.5
						c-0.1,0-0.2-0.2-0.2-0.3c0-0.1,0.2-0.2,0.3-0.2c1.2,0.2,2.4,0.3,3.6,0.3c0.6,0,1.2-0.1,1.8-0.1c0.6-0.1,1.2-0.2,1.7-0.4l0,0
						c0.2-0.1,0.5,0,0.6,0.3C40.5,90.1,40.4,90.4,40.1,90.5C40.1,90.5,40.1,90.5,40.1,90.5z"/>
				</g>
				<g>
					<path class="st26" d="M39.8,90.5c-1-0.4-1.9-0.9-2.8-1.4c-0.9-0.5-1.8-1.1-2.7-1.7c-0.9-0.6-1.7-1.3-2.4-2
						c-0.7-0.8-1.4-1.6-1.8-2.6c-0.1-0.1,0-0.3,0.1-0.3c0.1-0.1,0.3,0,0.3,0.1l0,0c0.4,0.9,1.1,1.7,1.8,2.4c0.7,0.7,1.5,1.3,2.4,1.9
						c1.7,1.1,3.6,2,5.4,2.8l0,0c0.2,0.1,0.4,0.4,0.3,0.6C40.3,90.5,40,90.6,39.8,90.5C39.8,90.5,39.8,90.5,39.8,90.5z"/>
				</g>
				<g>
					<path class="st26" d="M36.5,82.3c-0.5,0.3-1,0.4-1.5,0.6c-0.5,0.1-1,0.2-1.6,0.3c-1.1,0.1-2.2,0-3.2-0.3
						c-0.1,0-0.2-0.2-0.2-0.3c0-0.1,0.2-0.2,0.3-0.2l0,0c1,0.2,2,0.2,2.9,0.1c0.5-0.1,1-0.2,1.4-0.4c0.5-0.2,0.9-0.4,1.3-0.6l0,0
						c0.2-0.1,0.5-0.1,0.6,0.2C36.9,81.8,36.8,82.1,36.5,82.3C36.6,82.3,36.6,82.3,36.5,82.3z"/>
				</g>
				<g>
					<path class="st26" d="M36.1,82.3c-0.9-0.4-1.8-0.9-2.7-1.5c-0.8-0.6-1.6-1.3-2.1-2.3c-0.1-0.1,0-0.3,0.1-0.3
						c0.1-0.1,0.3,0,0.3,0.1l0,0c0.4,0.8,1.2,1.4,2,1.9c0.8,0.5,1.7,0.9,2.6,1.2l0,0c0.2,0.1,0.4,0.4,0.3,0.6
						C36.7,82.3,36.4,82.4,36.1,82.3C36.2,82.3,36.2,82.3,36.1,82.3z"/>
				</g>
				<g>
					<path class="st26" d="M35.3,75.2c0,0.5-0.1,1-0.3,1.4c-0.2,0.4-0.5,0.8-0.8,1.1c-0.4,0.3-0.8,0.5-1.2,0.7
						c-0.4,0.2-0.9,0.2-1.3,0.3c-0.1,0-0.3-0.1-0.3-0.2c0-0.1,0.1-0.2,0.2-0.3l0,0c0.4-0.1,0.8-0.2,1.1-0.3c0.4-0.2,0.7-0.4,0.9-0.6
						c0.3-0.3,0.4-0.6,0.6-0.9c0.1-0.3,0.2-0.7,0.1-1l0,0c0-0.3,0.2-0.5,0.4-0.5S35.3,74.9,35.3,75.2C35.3,75.2,35.3,75.2,35.3,75.2
						z"/>
				</g>
			</g>
			<g>
				<g>
					<g>
						<path class="st26" d="M72.2,42.8c-0.8-0.6-1.4-1.4-2.1-2.2c-0.6-0.8-1.1-1.7-1.5-2.7c-0.4-1-0.6-2-0.6-3c0-1.1,0.4-2.1,1-2.9
							c0-0.1,0.1-0.1,0.2,0c0,0,0.1,0.1,0,0.1l0,0c-0.4,0.9-0.5,1.8-0.5,2.8c0.1,0.9,0.3,1.9,0.7,2.7c0.3,0.9,0.8,1.7,1.3,2.6
							c0.5,0.8,1.1,1.6,1.7,2.4l0,0c0.1,0.1,0,0.2,0,0.2C72.3,42.8,72.3,42.8,72.2,42.8z"/>
					</g>
					<g>
						<path class="st26" d="M69.3,32c0.4,0.8,0.8,1.5,1.3,2.2c0.5,0.7,1,1.3,1.8,1.6l0,0c0.1,0,0.1,0.1,0.1,0.2c0,0-0.1,0.1-0.1,0.1
							c-0.5,0.1-1-0.1-1.4-0.3c-0.4-0.2-0.8-0.6-1-1c-0.3-0.4-0.5-0.8-0.6-1.2C69.1,32.9,69,32.5,69,32c0-0.1,0.1-0.2,0.2-0.2
							C69.2,31.9,69.2,31.9,69.3,32L69.3,32z"/>
					</g>
					<g>
						<path class="st26" d="M72.2,35.9c-0.4-1.6-0.5-3.2,0.1-4.8c0.3-0.8,0.8-1.5,1.4-2.1c0.5-0.6,1.1-1.2,1.7-1.7
							c1.1-1.1,2.1-2.3,2.4-3.8c0.1-1.5,0.1-3.2-0.3-4.5l0,0c-0.1-0.2,0.1-0.4,0.3-0.5c0.1,0,0.2,0,0.3,0c1.6,0.8,3.1,1.7,4.6,2.7
							c1.5,1,2.9,2,4.1,3.3c1.2,1.3,2.3,2.7,3.2,4.3c0.4,0.8,0.7,1.6,0.8,2.5c0.1,0.9,0,1.8-0.4,2.6c0,0.1-0.1,0.1-0.2,0.1
							c-0.1,0-0.1-0.1-0.1-0.2c0.7-1.6,0.1-3.4-0.7-4.8c-0.8-1.5-2-2.8-3.2-4c-2.5-2.3-5.5-4.1-8.6-5.7l0.6-0.5
							c0.3,0.9,0.3,1.7,0.4,2.5c0,0.8,0,1.6-0.1,2.4c-0.3,1.7-1.5,3.1-2.6,4.1c-0.6,0.6-1.2,1.1-1.7,1.6c-0.5,0.6-1,1.1-1.3,1.8
							c-0.6,1.4-0.7,3-0.3,4.5l0,0c0,0.1,0,0.2-0.1,0.2C72.3,36,72.2,36,72.2,35.9z"/>
					</g>
					<g>
						<path class="st26" d="M90.1,33.8c0.4-0.3,0.7-0.7,1-1.1c0.3-0.4,0.5-0.9,0.6-1.3c0.2-0.5,0.3-1,0.4-1.5l0.3-1.5
							c0-0.1,0.1-0.1,0.1-0.1c0,0,0.1,0,0.1,0.1c0.1,0.3,0.1,0.5,0.1,0.8l0,0.8c0,0.6-0.1,1.1-0.3,1.6c-0.2,0.5-0.5,1-0.8,1.5
							c-0.4,0.4-0.8,0.8-1.4,1c-0.1,0-0.2,0-0.2-0.1C90,33.9,90.1,33.8,90.1,33.8L90.1,33.8z"/>
					</g>
					<g>
						<path class="st26" d="M92.7,28.2c0.9,0.9,1.5,2,1.9,3.2c0.4,1.2,0.6,2.4,0.6,3.7c0,1.2-0.2,2.5-0.6,3.6
							c-0.2,0.6-0.5,1.1-0.7,1.7C93.6,41,93.3,41.5,93,42c0,0.1-0.1,0.1-0.2,0c0,0-0.1-0.1-0.1-0.1l0,0c0.2-0.6,0.4-1.1,0.6-1.7
							c0.2-0.6,0.4-1.1,0.5-1.7c0.3-1.1,0.4-2.3,0.5-3.5c0-1.2-0.1-2.3-0.5-3.4c-0.3-1.1-0.8-2.2-1.5-3.2l0,0c0-0.1,0-0.2,0-0.2
							C92.6,28.2,92.6,28.2,92.7,28.2z"/>
					</g>
				</g>
			</g>
			<path class="st24" d="M59.6,103.6c0.1-0.1,0.1-0.1,0.2-0.2c-4.3-2.6-8.1-7.6-8.1-7.6c-9,0.4-19.1-5.8-19.1-5.8
				c3.1,4.1,10.3,6.9,10.3,6.9l6.7,1.3c1.4,0.9,3.4,2,4.8,2.7c0.6,0.3,1.2,0.6,1.9,0.9c1.5,0.8,2.8,1.4,3.4,1.5
				C59.7,103.5,59.7,103.5,59.6,103.6z"/>
			<path class="st24" d="M40,90l3.7-0.7c-4.7-0.9-13.3-6.7-13.3-6.7l0,0.1C30.5,83.5,33.4,87.4,40,90z"/>
			<g>
				<path class="st24" d="M35.3,82.4l0.4-0.2c-0.1,0-0.3,0.1-0.5,0.2L35.3,82.4z"/>
				<path class="st24" d="M36.2,81.8l2.8-1.7c-3.1,0-7.3-1.7-7.3-1.7S33.2,80.8,36.2,81.8z"/>
			</g>
			<path class="st24" d="M78,23.8c-0.1,2-2.9,4.2-4.8,6.2c-0.5,0.5-0.8,1.1-0.9,1.8c1.5-3.4,6.2-3.9,7.7-5.7
				c1.6-1.8-2.3-7.1-2.3-7.1S78.1,21.7,78,23.8z"/>
			<path class="st24" d="M73.6,38.6l-1.3-2.7c-1.8-0.2-3.2-3.8-3.2-3.8S68.1,36.8,73.6,38.6z"/>
			<g>
				<path class="st24" d="M89.9,29.6c0.4,1.1,0.8,2.2,0.3,4.3C90.7,32.5,90.5,31.1,89.9,29.6z"/>
				<path class="st24" d="M90.2,33.9c-0.2,0.9-0.5,2.2-1.2,3.4c0,0,5.7-2.7,3.6-9C92.3,33,90.2,33.9,90.2,33.9z"/>
			</g>
		</g>
		<path class="st30" d="M48.7,66.6c0-6.3,3.5-9,9.1-9s11.7,5.1,11.7,10.7s-4.7,10.4-10.2,10.4S48.7,72.1,48.7,66.6z"/>
		<path class="st71" d="M50.2,68.7c0-5.4,4.4-9.7,9.8-9.7s10.6,4.7,10.6,10.1s-5.2,9.4-10.6,9.4S50.2,74.1,50.2,68.7z"/>
		<g>
			<path class="st72" d="M50,61.9c2.3-3.5,9.9-5.8,15.1-2.3c5.2,3.4,6.9,10,3.8,14.8c-1.5,2.2-3.8,3.7-6.4,4.2c-2.8,0.5-6,0-8.7-1.8
				C48.5,73.2,47.6,65.5,50,61.9z"/>
			<path class="st26" d="M61.1,57.6c0,0-6.1-1.3-9.9-1.3c0,0-0.4,0.9,0,2.4c0,0-2.4,0.1-2.9,0.7c0,0-0.4,6.7,0.5,10.2
				c0,0-0.6-5.9,1.9-8.7C51.8,59.8,55.8,57.1,61.1,57.6z"/>
			<g>
				<ellipse class="st26" cx="62.2" cy="68" rx="8.4" ry="8.4"/>
				<ellipse class="st30" cx="62" cy="64.6" rx="3.4" ry="3.3"/>
				<ellipse class="st30" cx="55.2" cy="64.6" rx="1.8" ry="1.8"/>
			</g>
		</g>
		<path class="st30" d="M112.8,67.6c0-6-3.4-10-9-10c-5.5,0-11.7,5.1-11.7,10.7s4.7,10.4,10.2,10.4
			C107.9,78.6,112.8,73.1,112.8,67.6z"/>
		<path class="st71" d="M111.4,68.7c0-5.4-4.4-9.7-9.8-9.7c-5.4,0-10.7,4.7-10.7,10.1s5.3,9.4,10.7,9.4
			C107.1,78.5,111.4,74.1,111.4,68.7z"/>
		<g>
			<path class="st72" d="M111.6,61.9c-2.3-3.5-9.9-5.8-15.1-2.3c-5.2,3.4-6.9,10-3.8,14.8c1.5,2.2,3.8,3.7,6.4,4.2
				c2.8,0.5,6,0,8.7-1.8C113,73.2,114,65.5,111.6,61.9z"/>
			<path class="st26" d="M100.5,57.6c0,0,6.1-1.3,9.9-1.3c0,0,0.4,0.9,0,2.4c0,0,2.4,0.1,2.9,0.7c0,0,0.4,6.7-0.5,10.2
				c0,0,0.6-5.9-1.9-8.7C109.8,59.8,105.8,57.1,100.5,57.6z"/>
			<g>
				<ellipse class="st26" cx="99.4" cy="68" rx="8.4" ry="8.4"/>
				<ellipse class="st30" cx="99.6" cy="64.6" rx="3.4" ry="3.3"/>
				<ellipse class="st30" cx="106.4" cy="64.6" rx="1.8" ry="1.8"/>
			</g>
		</g>
		<g>
			<g>
				<path class="st30" d="M69.7,92.7c0,0,0.9,4.1,1.4,4c0.5-0.1,1.5-4,1.5-4"/>
				<path class="st26" d="M69.8,92.7l0.6,2.1c0.1,0.3,0.2,0.7,0.3,1c0.1,0.2,0.1,0.3,0.2,0.5c0,0.1,0.1,0.1,0.1,0.2
					c0,0.1,0.1,0.1,0,0.1c0,0,0,0,0,0l0.1-0.1c0-0.1,0.1-0.1,0.1-0.2c0.1-0.2,0.1-0.3,0.2-0.5c0.1-0.3,0.2-0.7,0.4-1l0.7-2.1
					c0,0,0.1-0.1,0.1-0.1c0,0,0.1,0.1,0.1,0.1c-0.1,0.7-0.3,1.4-0.5,2.1c-0.1,0.4-0.2,0.7-0.3,1.1c-0.1,0.2-0.1,0.3-0.2,0.5
					c-0.1,0.1-0.1,0.2-0.2,0.3l-0.1,0.1c-0.1,0-0.1,0.1-0.2,0.1c-0.3,0-0.3-0.2-0.4-0.2c-0.1-0.1-0.1-0.2-0.2-0.3
					c-0.1-0.2-0.2-0.4-0.2-0.5c-0.1-0.4-0.2-0.7-0.3-1.1c-0.2-0.7-0.3-1.4-0.4-2.2C69.6,92.7,69.6,92.6,69.8,92.7
					C69.7,92.6,69.7,92.6,69.8,92.7z"/>
			</g>
			<path class="st26" d="M75.1,81.5c-0.1,0.5,0.3,1.1,0.8,1.3c0.5,0.3,1,0.3,1.6,0.4c1.8,0.1,4.9,0.5,6.6-0.5c1.2-0.7,1.1-1.9,0-2.4
				C82.3,79.6,75.3,79.1,75.1,81.5z"/>
			<g>
				<path class="st26" d="M79.8,82.3c0.1,1.7,0,3.5-0.5,5.2c-0.2,0.9-0.5,1.7-0.9,2.5c-0.4,0.8-1,1.6-1.9,2c-1.7,0.7-3.4,1-5.2,1
					c-0.9,0-1.8,0-2.6-0.3c-0.4-0.1-0.9-0.3-1.3-0.6c-0.4-0.3-0.7-0.7-0.8-1.1c0-0.1,0-0.2,0.1-0.2c0.1,0,0.2,0,0.2,0.1
					c0.2,0.7,1,1.1,1.8,1.3c0.8,0.2,1.7,0.2,2.5,0.1c1.7-0.1,3.4-0.4,4.9-1.1c1.4-0.6,2-2.4,2.5-4c0.5-1.6,0.7-3.3,0.6-5
					c0-0.1,0.1-0.2,0.2-0.2C79.7,82.1,79.8,82.2,79.8,82.3z"/>
			</g>
			<g>
				<path class="st26" d="M80,82.3c-0.1,1.7,0.2,3.4,0.6,5c0.5,1.6,1.1,3.4,2.5,4c1.5,0.7,3.2,1,4.9,1.1c0.8,0,1.7,0,2.5-0.1
					c0.8-0.2,1.6-0.6,1.8-1.3c0-0.1,0.1-0.2,0.2-0.1c0.1,0,0.2,0.1,0.1,0.2c-0.1,0.5-0.4,0.9-0.8,1.1c-0.4,0.3-0.8,0.4-1.3,0.6
					C89.8,93,88.9,93,88,93.1c-1.8,0-3.5-0.3-5.2-1c-0.9-0.4-1.5-1.2-1.9-2c-0.4-0.8-0.6-1.6-0.9-2.5c-0.4-1.7-0.6-3.5-0.5-5.2
					c0-0.1,0.1-0.2,0.2-0.2C79.9,82.1,80,82.2,80,82.3z"/>
			</g>
			<g>
				<g>
					<path class="st26" d="M66.4,83.3c-7.8,0.8-15.4,3.8-21.7,8.6c6.2-4.9,13.8-8.1,21.7-9.1c0.1,0,0.3,0.1,0.3,0.2
						C66.7,83.2,66.6,83.3,66.4,83.3C66.4,83.3,66.4,83.3,66.4,83.3z"/>
				</g>
				<g>
					<path class="st26" d="M66.1,85.3c-4.5,0.4-8.8,2.7-11.7,6.3c2.7-3.7,7-6.2,11.6-6.8c0.1,0,0.3,0.1,0.3,0.2
						C66.4,85.1,66.3,85.3,66.1,85.3C66.2,85.3,66.1,85.3,66.1,85.3z"/>
				</g>
				<g>
					<path class="st26" d="M66.2,86.9c-4.4,1.8-8.2,5.4-10,9.9c1.7-4.6,5.3-8.4,9.8-10.4c0.1-0.1,0.3,0,0.4,0.1
						C66.4,86.7,66.4,86.8,66.2,86.9C66.2,86.9,66.2,86.9,66.2,86.9z"/>
				</g>
			</g>
			<g>
				<g>
					<path class="st26" d="M93.2,82.8c7.9,1,15.5,4.2,21.7,9.1c-6.3-4.7-13.9-7.7-21.7-8.6c-0.1,0-0.3-0.1-0.2-0.3
						C92.9,82.9,93.1,82.8,93.2,82.8C93.2,82.8,93.2,82.8,93.2,82.8z"/>
				</g>
				<g>
					<path class="st26" d="M93.5,84.7c4.6,0.6,8.9,3.2,11.6,6.8c-2.9-3.6-7.2-5.9-11.7-6.3c-0.1,0-0.3-0.1-0.2-0.3
						C93.2,84.8,93.3,84.7,93.5,84.7C93.5,84.7,93.5,84.7,93.5,84.7z"/>
				</g>
				<g>
					<path class="st26" d="M93.6,86.4c4.5,2,8.1,5.8,9.8,10.4c-1.9-4.5-5.6-8.1-10-9.9c-0.1-0.1-0.2-0.2-0.2-0.4
						C93.3,86.4,93.4,86.3,93.6,86.4C93.6,86.4,93.6,86.4,93.6,86.4z"/>
				</g>
			</g>
		</g>
	</g>
</g>
<g id="mask" class="st0">
</g>
</svg>
