<?xml version="1.0" encoding="utf-8"?>
<!-- Generator: Adobe Illustrator 21.0.0, SVG Export Plug-In . SVG Version: 6.00 Build 0)  -->
<svg version="1.1" xmlns="http://www.w3.org/2000/svg" xmlns:xlink="http://www.w3.org/1999/xlink" x="0px" y="0px"
	 viewBox="0 0 176.8 172.4" style="enable-background:new 0 0 176.8 172.4;" xml:space="preserve">
<style type="text/css">
	.st0{display:none;}
	.st1{display:inline;fill:#FD9994;}
	.st2{display:inline;fill:#FFFFFF;}
	.st3{display:inline;fill:none;stroke:#FFFFFF;stroke-width:2.2363;stroke-miterlimit:10;}
	.st4{display:inline;}
	.st5{fill:none;stroke:#FFFFFF;stroke-width:2.2363;stroke-miterlimit:10;}
	.st6{fill:#FFB380;}
	.st7{fill:#D2C3DB;}
	.st8{fill:#F9ECDC;}
	.st9{fill:#FFF58B;}
	.st10{fill:#F6BC60;}
	.st11{fill:#ECF784;}
	.st12{fill:#FFDEFF;}
	.st13{fill:#AED5D2;}
	.st14{fill:#F4BD9F;}
	.st15{fill:#B9DCFF;}
	.st16{fill:#D7FFFB;}
	.st17{fill:#81D8F7;}
	.st18{fill:#E57777;}
	.st19{fill:#D9FFDB;}
	.st20{opacity:0.1;}
	.st21{fill:#5CCDFF;}
	.st22{fill:none;}
	.st23{opacity:0.2;fill:#FFFFFF;}
	.st24{opacity:0.1;fill:#002CBF;}
	.st25{fill:#1A1A1A;}
	.st26{fill:#333333;}
	.st27{fill:#FFFFDE;}
	.st28{clip-path:url(#SVGID_4_);}
	.st29{fill:none;stroke:#333333;stroke-width:0.4917;stroke-linecap:round;stroke-linejoin:round;stroke-miterlimit:10;}
	.st30{fill:#FFFFFF;}
	.st31{fill:none;stroke:#333333;stroke-width:0.8543;stroke-miterlimit:10;}
	.st32{clip-path:url(#SVGID_6_);}
	.st33{fill:#FFD7B9;}
	.st34{fill:#F0FFFF;}
	.st35{clip-path:url(#SVGID_8_);}
	.st36{fill:#FF5C5C;}
	.st37{fill:none;stroke:#333333;stroke-width:0.466;stroke-linecap:round;stroke-linejoin:round;stroke-miterlimit:10;}
	.st38{fill:none;stroke:#333333;stroke-width:0.8095;stroke-miterlimit:10;}
	.st39{clip-path:url(#SVGID_10_);}
	.st40{fill:none;stroke:#333333;stroke-width:0.7381;stroke-linecap:round;stroke-linejoin:round;stroke-miterlimit:10;}
	.st41{fill:none;stroke:#333333;stroke-width:0.8857;stroke-linecap:round;stroke-linejoin:round;stroke-miterlimit:10;}
	.st42{fill:none;stroke:#333333;stroke-width:2.6852;stroke-linecap:round;stroke-linejoin:round;stroke-miterlimit:10;}
	.st43{fill:#72B5C4;}
	.st44{fill:#5E96A5;}
	.st45{fill:none;stroke:#FFFFFF;stroke-width:2.6852;stroke-linecap:round;stroke-linejoin:round;stroke-miterlimit:10;}
	.st46{fill:none;stroke:#FFFFFF;stroke-width:1.2942;stroke-linecap:round;stroke-linejoin:round;stroke-miterlimit:10;}
	.st47{fill:none;stroke:#FFFFFF;stroke-width:0.8311;stroke-linecap:round;stroke-linejoin:round;stroke-miterlimit:10;}
	.st48{fill:#FF5C00;}
	.st49{fill:#00B4FF;}
	.st50{fill:#FF5592;}
	.st51{fill:#733FFF;}
	.st52{fill:#DDFF15;}
	.st53{fill:#BF5855;}
	.st54{fill:none;stroke:#333333;stroke-width:0.5718;stroke-miterlimit:10;}
	.st55{fill:#C8F982;}
	.st56{fill:#AEF9C0;}
	.st57{fill:none;stroke:#FFFFFF;stroke-width:1.8326;stroke-miterlimit:10;}
	.st58{fill:#9AF6F9;}
	.st59{fill:#FFACA2;}
	.st60{fill:#F9E582;}
	.st61{fill:#FFC08B;}
	.st62{fill:#EFEB6A;}
	.st63{fill:#EC987F;}
	.st64{fill:#B5FFCC;}
	.st65{fill:#FFEDA2;}
	.st66{fill:#CCE7CC;}
	.st67{fill:#ABE7AB;}
	.st68{fill:#A6A6A6;}
	.st69{clip-path:url(#SVGID_60_);}
	.st70{fill:none;stroke:#333333;stroke-width:0.4706;stroke-linecap:round;stroke-linejoin:round;stroke-miterlimit:10;}
	.st71{fill:#FFEC55;}
	.st72{fill:none;stroke:#333333;stroke-width:0.8177;stroke-miterlimit:10;}
	.st73{clip-path:url(#SVGID_62_);}
	.st74{clip-path:url(#SVGID_64_);}
	.st75{fill:#FF7A59;}
	.st76{clip-path:url(#SVGID_66_);}
	.st77{clip-path:url(#SVGID_68_);}
	.st78{fill:#B45FFF;}
	.st79{clip-path:url(#SVGID_70_);}
	.st80{opacity:0.2;fill:#002CBF;}
	.st81{fill:none;stroke:#333333;stroke-width:0.5506;stroke-linecap:round;stroke-linejoin:round;stroke-miterlimit:10;}
	.st82{clip-path:url(#SVGID_72_);}
	.st83{fill:#EAA871;}
	.st84{fill:#FFD836;}
	.st85{fill:#FF846B;}
	.st86{fill:none;stroke:#333333;stroke-width:0.804;stroke-linecap:round;stroke-linejoin:round;stroke-miterlimit:10;}
	.st87{fill:#FEFF4A;}
	.st88{fill:none;stroke:#333333;stroke-width:0.7645;stroke-linecap:round;stroke-linejoin:round;stroke-miterlimit:10;}
	.st89{fill:none;stroke:#333333;stroke-width:0.7645;stroke-miterlimit:10;}
	.st90{fill:none;stroke:#333333;stroke-width:2.9248;stroke-linecap:round;stroke-linejoin:round;stroke-miterlimit:10;}
	.st91{fill:none;stroke:#333333;stroke-width:0.945;stroke-linecap:round;stroke-linejoin:round;stroke-miterlimit:10;}
	.st92{fill:none;stroke:#333333;stroke-width:0.945;stroke-miterlimit:10;}
	.st93{fill:none;stroke:#333333;stroke-width:3.6155;stroke-linecap:round;stroke-linejoin:round;stroke-miterlimit:10;}
	.st94{fill:none;stroke:#333333;stroke-width:0.6228;stroke-miterlimit:10;}
	.st95{fill:none;stroke:#333333;stroke-width:0.7778;stroke-linecap:round;stroke-linejoin:round;stroke-miterlimit:10;}
	.st96{fill:#FF712A;}
	.st97{fill:none;stroke:#333333;stroke-width:0.7396;stroke-linecap:round;stroke-linejoin:round;stroke-miterlimit:10;}
	.st98{fill:none;stroke:#333333;stroke-width:0.7396;stroke-miterlimit:10;}
	.st99{fill:none;stroke:#333333;stroke-width:2.8295;stroke-linecap:round;stroke-linejoin:round;stroke-miterlimit:10;}
	.st100{fill:none;stroke:#333333;stroke-width:0.9142;stroke-linecap:round;stroke-linejoin:round;stroke-miterlimit:10;}
	.st101{fill:none;stroke:#333333;stroke-width:0.9142;stroke-miterlimit:10;}
	.st102{fill:none;stroke:#333333;stroke-width:3.4977;stroke-linecap:round;stroke-linejoin:round;stroke-miterlimit:10;}
	.st103{fill:none;stroke:#333333;stroke-width:0.6025;stroke-miterlimit:10;}
	.st104{fill:url(#SVGID_89_);}
	.st105{fill:url(#SVGID_90_);}
	.st106{fill:none;stroke:#333333;stroke-width:0.7438;stroke-linecap:round;stroke-linejoin:round;stroke-miterlimit:10;}
	.st107{fill:none;stroke:#333333;stroke-width:0.8926;stroke-linecap:round;stroke-linejoin:round;stroke-miterlimit:10;}
	.st108{clip-path:url(#SVGID_92_);fill:url(#SVGID_93_);}
	.st109{fill:url(#SVGID_94_);}
	.st110{fill:#52C5FF;}
	.st111{fill:none;stroke:#333333;stroke-width:0.6367;stroke-linecap:round;stroke-linejoin:round;stroke-miterlimit:10;}
	.st112{fill:none;stroke:#333333;stroke-width:2.7061;stroke-linecap:round;stroke-linejoin:round;stroke-miterlimit:10;}
	.st113{fill:none;stroke:#333333;stroke-width:0.5763;stroke-miterlimit:10;}
	.st114{fill:none;stroke:#FFFFFF;stroke-width:1.3042;stroke-linecap:round;stroke-linejoin:round;stroke-miterlimit:10;}
	.st115{fill:none;stroke:#FFFFFF;stroke-width:0.8375;stroke-linecap:round;stroke-linejoin:round;stroke-miterlimit:10;}
	.st116{clip-path:url(#SVGID_96_);}
	.st117{opacity:0.2;fill:#2E3192;}
	.st118{fill:#FEFF78;}
	.st119{opacity:0.1;fill:#2E3192;}
	.st120{fill:#FF5A50;}
	.st121{fill:none;stroke:#333333;stroke-width:0.567;stroke-linecap:round;stroke-linejoin:round;stroke-miterlimit:10;}
	.st122{fill:none;stroke:#333333;stroke-width:2.5786;stroke-linecap:round;stroke-linejoin:round;stroke-miterlimit:10;}
	.st123{fill:none;stroke:#333333;stroke-width:0.5491;stroke-miterlimit:10;}
	.st124{clip-path:url(#SVGID_98_);}
	.st125{fill:#2AD2FF;}
	.st126{fill:none;stroke:#333333;stroke-width:0.2435;stroke-miterlimit:10;}
	.st127{fill:#FFFFFF;stroke:#333333;stroke-width:0.487;stroke-linecap:round;stroke-linejoin:round;stroke-miterlimit:10;}
	.st128{clip-path:url(#SVGID_100_);}
	.st129{fill:url(#SVGID_101_);}
	.st130{opacity:0.4;fill:#FFFFFF;}
	.st131{fill:#FFDC48;}
	.st132{fill:none;stroke:#333333;stroke-width:0.5835;stroke-linecap:round;stroke-linejoin:round;stroke-miterlimit:10;}
	.st133{fill:none;stroke:#333333;stroke-width:2.6537;stroke-linecap:round;stroke-linejoin:round;stroke-miterlimit:10;}
	.st134{fill:#F0F462;}
	.st135{fill:url(#SVGID_102_);}
	.st136{fill:url(#SVGID_103_);}
	.st137{fill:#D1DADF;}
	.st138{fill:#57FFA3;}
	.st139{clip-path:url(#SVGID_105_);}
	.st140{clip-path:url(#SVGID_107_);}
	.st141{fill:#D0BBF9;}
	.st142{clip-path:url(#SVGID_109_);}
	.st143{fill:none;stroke:#333333;stroke-width:0.5867;stroke-linecap:round;stroke-linejoin:round;stroke-miterlimit:10;}
	.st144{clip-path:url(#SVGID_111_);}
	.st145{fill:none;stroke:#333333;stroke-width:0.5514;stroke-linecap:round;stroke-linejoin:round;stroke-miterlimit:10;}
	.st146{fill:#D1E9D3;}
	.st147{clip-path:url(#SVGID_113_);}
	.st148{fill:none;stroke:#333333;stroke-width:0.7684;stroke-linecap:round;stroke-linejoin:round;stroke-miterlimit:10;}
	.st149{fill:none;stroke:#333333;stroke-width:0.7684;stroke-miterlimit:10;}
	.st150{fill:none;stroke:#333333;stroke-width:2.9398;stroke-linecap:round;stroke-linejoin:round;stroke-miterlimit:10;}
	.st151{clip-path:url(#SVGID_115_);}
	.st152{fill:#FF66F8;}
	.st153{fill:none;stroke:#333333;stroke-width:0.7542;stroke-linecap:round;stroke-linejoin:round;stroke-miterlimit:10;}
	.st154{fill:none;stroke:#333333;stroke-width:0.9051;stroke-linecap:round;stroke-linejoin:round;stroke-miterlimit:10;}
	.st155{fill:none;stroke:#333333;stroke-width:0.5146;stroke-linecap:round;stroke-linejoin:round;stroke-miterlimit:10;}
	.st156{fill:none;stroke:#333333;stroke-width:0.6033;stroke-linecap:round;stroke-linejoin:round;stroke-miterlimit:10;}
	.st157{fill:none;stroke:#333333;stroke-width:2.7439;stroke-linecap:round;stroke-linejoin:round;stroke-miterlimit:10;}
	.st158{fill:#333333;stroke:#333333;stroke-width:1.0293;stroke-linecap:round;stroke-linejoin:round;stroke-miterlimit:10;}
	.st159{fill:#FF5F2A;}
	.st160{fill:none;stroke:#333333;stroke-width:0.5965;stroke-linecap:round;stroke-linejoin:round;stroke-miterlimit:10;}
	.st161{fill:#F9CC3E;}
	.st162{clip-path:url(#SVGID_121_);}
	.st163{fill:#70E1FF;}
	.st164{fill:none;stroke:#333333;stroke-width:0.5717;stroke-linecap:round;stroke-linejoin:round;stroke-miterlimit:10;}
	.st165{fill:none;stroke:#333333;stroke-width:2.6004;stroke-linecap:round;stroke-linejoin:round;stroke-miterlimit:10;}
	.st166{clip-path:url(#SVGID_123_);}
	.st167{fill:#8F61FF;}
	.st168{clip-path:url(#SVGID_125_);}
	.st169{clip-path:url(#SVGID_127_);}
	.st170{fill:#FFEBEB;}
	.st171{clip-path:url(#SVGID_129_);}
	.st172{clip-path:url(#SVGID_131_);}
	.st173{fill:#F47D62;}
	.st174{fill:none;stroke:#333333;stroke-width:0.7188;stroke-linecap:round;stroke-linejoin:round;stroke-miterlimit:10;}
	.st175{fill:none;stroke:#333333;stroke-width:0.7188;stroke-miterlimit:10;}
	.st176{fill:none;stroke:#333333;stroke-width:2.7502;stroke-linecap:round;stroke-linejoin:round;stroke-miterlimit:10;}
	.st177{fill:#85ACB5;}
	.st178{clip-path:url(#SVGID_133_);}
	.st179{fill:#D5F2F7;}
	.st180{fill:#FF694A;}
	.st181{fill:none;stroke:#333333;stroke-width:0.5693;stroke-linecap:round;stroke-linejoin:round;stroke-miterlimit:10;}
	.st182{fill:#FFDF15;}
	.st183{fill:none;stroke:#333333;stroke-width:0.6674;stroke-linecap:round;stroke-linejoin:round;stroke-miterlimit:10;}
	.st184{fill:none;stroke:#333333;stroke-width:3.0352;stroke-linecap:round;stroke-linejoin:round;stroke-miterlimit:10;}
	.st185{clip-path:url(#SVGID_135_);}
	.st186{clip-path:url(#SVGID_137_);}
	.st187{fill:none;stroke:#333333;stroke-width:0.5248;stroke-linecap:round;stroke-linejoin:round;stroke-miterlimit:10;}
	.st188{fill:#FFD33A;}
	.st189{fill:none;stroke:#333333;stroke-width:2.7983;stroke-linecap:round;stroke-linejoin:round;stroke-miterlimit:10;}
	.st190{fill:none;stroke:#333333;stroke-width:0.7692;stroke-linecap:round;stroke-linejoin:round;stroke-miterlimit:10;}
	.st191{fill:none;stroke:#333333;stroke-width:0.5959;stroke-miterlimit:10;}
	.st192{clip-path:url(#SVGID_143_);}
	.st193{fill:#FFE267;}
	.st194{clip-path:url(#SVGID_149_);}
	.st195{fill:#FFEEAA;}
	.st196{opacity:0.7;fill:url(#SVGID_152_);}
	.st197{fill:none;stroke:#333333;stroke-width:0.611;stroke-miterlimit:10;}
	.st198{clip-path:url(#SVGID_154_);}
	.st199{opacity:0.7;fill:url(#SVGID_157_);}
	.st200{fill:#EABBFC;}
	.st201{opacity:0.7;fill:url(#SVGID_160_);}
	.st202{opacity:0.7;fill:url(#SVGID_163_);}
	.st203{opacity:0.7;fill:url(#SVGID_166_);}
	.st204{opacity:0.7;fill:url(#SVGID_169_);}
	.st205{clip-path:url(#SVGID_171_);}
	.st206{fill:none;stroke:#333333;stroke-width:0.5899;stroke-linecap:round;stroke-linejoin:round;stroke-miterlimit:10;}
	.st207{fill:none;stroke:#333333;stroke-width:2.6828;stroke-linecap:round;stroke-linejoin:round;stroke-miterlimit:10;}
	.st208{fill:none;stroke:#333333;stroke-width:0.5713;stroke-miterlimit:10;}
	.st209{clip-path:url(#SVGID_173_);}
	.st210{clip-path:url(#SVGID_175_);}
	.st211{clip-path:url(#SVGID_177_);}
	.st212{fill:#FFAFC3;}
	.st213{fill:#A0D3FF;}
	.st214{fill:none;stroke:#333333;stroke-width:0.7262;stroke-linecap:round;stroke-linejoin:round;stroke-miterlimit:10;}
	.st215{fill:none;stroke:#333333;stroke-width:0.6906;stroke-miterlimit:10;}
	.st216{fill:none;stroke:#333333;stroke-width:0.8536;stroke-miterlimit:10;}
	.st217{fill:#333333;stroke:#333333;stroke-width:0.991;stroke-linecap:round;stroke-linejoin:round;stroke-miterlimit:10;}
	.st218{clip-path:url(#SVGID_179_);}
	.st219{clip-path:url(#SVGID_181_);}
	.st220{fill:#FD9994;}
	.st221{opacity:0.2;}
	.st222{fill:#2E3192;}
	.st223{display:inline;fill:#FF5B00;}
</style>
<g id="site">
</g>
<g id="kitties">
	<g>
		<path class="st193" d="M61.6,14.9c0,0,1.5-2.4,9,9.1s11.2,21.5,11.2,21.5l-28-2.7C53.8,42.8,56.4,19.6,61.6,14.9z"/>
		<path class="st193" d="M119.1,14.9c0,0-1.6-2.5-9,9.1c-6.7,10.6-11.3,21.5-11.3,21.5l28.1-2.7C126.9,42.8,124.3,19.6,119.1,14.9z"
			/>
		<g>
			<path class="st26" d="M53.1,45.9c0.7-5.9,1.6-11.8,2.8-17.7c0.6-2.9,1.3-5.8,2.4-8.7c0.5-1.4,1.1-2.8,2.1-4.1
				c0.2-0.3,0.5-0.6,0.9-0.9c0.4-0.3,1-0.4,1.5-0.3c0.9,0.2,1.6,0.7,2.2,1.2c1.2,1.1,2.1,2.3,3,3.5c0.9,1.2,1.7,2.5,2.5,3.7
				c1.6,2.6,3,5.2,4.4,7.8c2.8,5.3,5.4,10.7,7.8,16.1c0,0.1,0,0.2-0.1,0.3c-0.1,0-0.2,0-0.3-0.1c-2.6-5.4-5.3-10.7-8.2-15.9
				c-1.5-2.6-2.9-5.2-4.6-7.7c-1.6-2.5-3.3-5-5.3-6.9c-0.5-0.5-1.1-0.9-1.6-1c-0.3,0-0.4,0-0.6,0.1c-0.2,0.2-0.5,0.4-0.7,0.7
				c-0.8,1.1-1.4,2.5-1.9,3.8c-1,2.8-1.8,5.6-2.4,8.5c-0.7,2.9-1.2,5.8-1.7,8.8c-0.5,2.9-1,5.9-1.4,8.8c0,0.2-0.2,0.3-0.3,0.3
				C53.2,46.3,53,46.1,53.1,45.9z"/>
		</g>
		<g>
			<path class="st26" d="M63.3,20.4c-0.5,1.8-1,3.6-1.4,5.5c-0.4,1.8-0.8,3.7-1.1,5.6c-0.3,1.9-0.6,3.7-0.7,5.6
				c-0.2,1.9-0.2,3.8-0.1,5.6l0,0c0,0.1-0.1,0.2-0.2,0.2c-0.1,0-0.2-0.1-0.2-0.2c-0.3-1.9-0.4-3.8-0.4-5.7c0-1.9,0.2-3.8,0.5-5.7
				c0.7-3.8,1.6-7.5,3-11.1c0.1-0.2,0.2-0.2,0.4-0.2C63.3,20.1,63.3,20.3,63.3,20.4L63.3,20.4z"/>
		</g>
		<path class="st26" d="M62.2,22.8c0,0,7,6.3,8.9,16.3l-11.5,0.3C59.6,39.5,59.9,29.8,62.2,22.8z"/>
		<g>
			<path class="st26" d="M127,46c-0.4-2.9-0.9-5.9-1.4-8.8c-0.5-2.9-1.1-5.9-1.7-8.8c-0.7-2.9-1.4-5.8-2.4-8.5
				c-0.5-1.4-1.1-2.7-1.9-3.8c-0.2-0.3-0.4-0.5-0.7-0.7c-0.2-0.1-0.4-0.2-0.6-0.1c-0.5,0.1-1.1,0.5-1.6,1c-2.1,1.9-3.7,4.5-5.3,6.9
				c-1.6,2.5-3.1,5.1-4.6,7.7c-2.9,5.2-5.6,10.5-8.2,15.9c0,0.1-0.2,0.1-0.3,0.1c-0.1,0-0.1-0.2-0.1-0.3c2.4-5.5,5-10.8,7.8-16.1
				c1.4-2.6,2.9-5.3,4.4-7.8c0.8-1.3,1.6-2.5,2.5-3.7c0.9-1.2,1.8-2.4,3-3.5c0.6-0.5,1.2-1,2.2-1.2c0.5-0.1,1.1,0,1.5,0.3
				c0.4,0.3,0.7,0.6,0.9,0.9c1,1.3,1.5,2.7,2.1,4.1c1,2.9,1.7,5.8,2.4,8.7c1.3,5.9,2.1,11.8,2.8,17.7c0,0.2-0.1,0.3-0.3,0.3
				C127.2,46.3,127,46.2,127,46z"/>
		</g>
		<g>
			<path class="st26" d="M118,20.2c1.4,3.6,2.3,7.3,3,11.1c0.3,1.9,0.4,3.8,0.5,5.7c0,1.9-0.1,3.8-0.4,5.7c0,0.1-0.1,0.2-0.2,0.2
				c-0.1,0-0.2-0.1-0.2-0.2l0,0c0.1-1.9,0.1-3.8-0.1-5.6c-0.2-1.9-0.4-3.7-0.7-5.6c-0.3-1.9-0.6-3.7-1.1-5.6
				c-0.4-1.8-0.9-3.7-1.4-5.5l0,0c0-0.2,0-0.3,0.2-0.4C117.7,20,117.9,20.1,118,20.2z"/>
		</g>
		<path class="st26" d="M118.5,22.8c0,0-7,6.3-8.9,16.3l11.5,0.3C121,39.5,120.8,29.8,118.5,22.8z"/>
		<g>
			<path class="st193" d="M40.6,75.7c-2.1-3.2-5.9-4.8-9.6-5.5c-4.6-0.8-9.5-0.3-13.9,1.4c-0.4,0.2-0.9,0.3-1.2,0.6
				c-0.5,0.4-0.8,0.9-0.9,1.5c-0.5,1.6-0.3,3.3,0.4,4.8c0.6,1.5,1.6,2.9,2.6,4.2c4.8,6.5,18.1,18.4,18.3,18.6
				c1.8,1.8,3.8,3.2,5.8,4.7c0.8,0.5,0.7,0.8,1.5,1.1l-0.2-7.7l1-8.8c-0.8-1.2-1-3.2-1.2-4.6C42.7,82.5,42.6,78.7,40.6,75.7z"/>
			<path class="st24" d="M44.5,90.6c-0.4-0.6-0.7-1.5-0.8-2.3c-1.3,2.2-3.2,4-5.6,4.8c-4,1.3-8.4-0.5-12.1-2.6
				c-0.9-0.5-1.8-1.1-2.7-1.6c5.7,6,12.9,12.3,13,12.5c1.8,1.8,3.8,3.2,5.8,4.7c0.8,0.5,0.7,0.8,1.5,1.1l-0.2-7.7L44.5,90.6z"/>
			<g>
				<path class="st26" d="M44,90.7l-2.2-11c-0.6-3.6-3.2-6.8-6.5-8.1c-0.8-0.3-1.7-0.5-2.6-0.7c-0.9-0.2-1.8-0.3-2.7-0.4
					c-1.8-0.2-3.7-0.3-5.5-0.1c-1.8,0.1-3.6,0.5-5.3,1.2c-0.8,0.4-1.6,0.8-2.3,1.3l-0.5,0.4c-0.1,0.1-0.3,0.3-0.4,0.4
					c-0.2,0.3-0.4,0.6-0.5,1c-0.4,1.6,0.4,3.4,1.2,4.9c0.9,1.6,2,3.1,3.1,4.6c2.3,2.9,4.9,5.6,7.5,8.3c5.3,5.2,11,10.1,16.8,14.8
					c0.1,0.1,0.1,0.2,0,0.3c-0.1,0.1-0.2,0.1-0.3,0C37.8,103,32,98.2,26.6,93c-2.7-2.6-5.3-5.3-7.7-8.2c-1.2-1.5-2.3-3-3.3-4.7
					c-0.5-0.8-0.9-1.7-1.2-2.7c-0.3-0.9-0.5-2-0.2-3.1c0.2-1.1,1.1-2,1.9-2.5c0.8-0.6,1.7-1,2.6-1.4c1.8-0.7,3.7-1,5.6-1.2
					c1.9-0.1,3.8,0,5.7,0.2c0.9,0.1,1.9,0.3,2.8,0.5c0.9,0.2,1.9,0.4,2.8,0.7c3.6,1.4,6.3,4.9,6.9,8.7l2,11c0,0.1-0.1,0.3-0.2,0.3
					C44.2,90.9,44.1,90.8,44,90.7z"/>
			</g>
		</g>
		<path class="st85" d="M136.1,70.8c-0.5-5.9-4.8-25.9-9.1-31.1c-8.6-10.4-20.9-12.6-22.5-13c-0.8-0.2-4.7-1.2-10.2-1.5
			c-0.2-0.4-0.4-1-0.5-1.6c-1-6.1,3.9-7.1,3.9-7.1c-3.2-2.3-10.1-1.7-12.7,4c-0.9,1.9-1,3.6-0.7,5c-2.5,0.3-5,0.8-7.6,1.5
			c-13.5,3.9-22.2,10.7-19.8,9.7c0,0-1.4,1.3-2.7,3c-1.4,1.7-4.8,17.7-5.9,23.7c-1.5,8.7-4.7,34.8-4.7,34.8s-1.4,6.6,1.3,10.8
			c2.7,4.2,9.2,8.9,20.3,16.9s16.8,7.9,23.6,8.5c6.8,0.6,18.9-5.3,18.9-5.3s16.8-9.3,24.2-23.3S136.1,70.8,136.1,70.8z"/>
		<g>
			<defs>
				<path id="SVGID_153_" d="M136.1,70.8c-0.5-5.9-4.8-25.9-9.1-31.1c-8.6-10.4-20.9-12.6-22.5-13c-0.8-0.2-4.7-1.2-10.2-1.5
					c-0.2-0.4-0.4-1-0.5-1.6c-1-6.1,3.9-7.1,3.9-7.1c-3.2-2.3-10.1-1.7-12.7,4c-0.9,1.9-1,3.6-0.7,5c-2.5,0.3-5,0.8-7.6,1.5
					c-13.5,3.9-22.2,10.7-19.8,9.7c0,0-1.4,1.3-2.7,3c-1.4,1.7-4.8,17.7-5.9,23.7c-1.5,8.7-4.7,34.8-4.7,34.8s-1.4,6.6,1.3,10.8
					c2.7,4.2,9.2,8.9,20.3,16.9s16.8,7.9,23.6,8.5c6.8,0.6,18.9-5.3,18.9-5.3s16.8-9.3,24.2-23.3S136.1,70.8,136.1,70.8z"/>
			</defs>
			<clipPath id="SVGID_2_">
				<use xlink:href="#SVGID_153_"  style="overflow:visible;"/>
			</clipPath>
			<g style="clip-path:url(#SVGID_2_);">
				<g>
					<g>
						<path class="st193" d="M72.7,125.5c-2.3,7.8-10.5,12.3-18.3,9.9c-7.8-2.3-12.3-10.5-9.9-18.3c0.5-1.8,2.1-3.5,4.5-4.9
							c2-1.2,4.6-2.1,7.3-2.6c4.9-1,7.6-0.1,8.5,1c0.3,0.4,0.7,1.2,0.1,2.3l0,0c-1.5,3.3,0.7,4.4,3.4,5.7
							C70.9,119.9,73.9,121.4,72.7,125.5z M45.2,117.3c-2.2,7.4,2,15.2,9.4,17.4c7.4,2.2,15.2-2,17.4-9.4c1-3.5-1.5-4.7-4.1-6
							c-2.6-1.3-5.6-2.8-3.8-6.7l0,0c0.3-0.6,0.3-1.1,0-1.5c-0.9-1.1-4.1-1.4-7.7-0.7C51.5,111.2,46.2,113.7,45.2,117.3z"/>
					</g>
					<g>
						<path class="st193" d="M61.6,114.9c-2.1,4.7,6.6,3.3,5.1,8.3c-1.5,5-6.7,7.8-11.6,6.3c-5-1.5-7.8-6.7-6.3-11.6
							C50.3,112.9,63.3,111.1,61.6,114.9z"/>
					</g>
					<g>
						<path class="st193" d="M66.6,112.8c1-0.4,2.7,0.2,3.1,1.2s-0.6,2-1.6,2.4s-2.1-0.1-2.5-1.1S65.6,113.2,66.6,112.8z"/>
					</g>
				</g>
				<g>
					<g>
						<path class="st193" d="M72.1,35.8c-0.3-0.2-0.6-0.4-0.9-0.7c-4.7-4.2-7.2-10.4-6.9-17.2C64.7,9,69.4,0,76.6-5.5
							c6.1-4.7,13.8-6.7,21.4-5.7s14.5,5,19.1,11.1c9.7,12.7,7.2,30.9-5.5,40.5l-0.2-0.3l0.2,0.3c-6.6,5-16.4,0.1-24.2-3.9
							c-3.7-1.9-7-3.5-9-3.6c-1.6-0.1-2.4,0.9-3.2,1.7c-0.6,0.7-1.2,1.3-2,1.3C72.9,36.2,72.6,36.1,72.1,35.8z M108-7.1
							c-3.1-1.7-6.4-2.8-10-3.3c-7.5-1-14.9,1-20.9,5.5C70,0.5,65.4,9.2,65.1,17.9c-0.3,6.7,2.1,12.6,6.6,16.7
							c0.6,0.6,1.2,0.8,1.6,0.8c0.5,0,1-0.5,1.5-1.1c0.8-0.9,1.8-2.1,3.8-2c2.2,0.1,5.5,1.8,9.3,3.7c7.6,3.9,17.2,8.7,23.4,3.9
							c12.4-9.4,14.8-27.2,5.3-39.5C114.2-2.7,111.3-5.2,108-7.1z"/>
					</g>
					<g>
						<path class="st193" d="M104.9,36.4c-8.6,5.1-21.1-8.4-26.4-9.2c-3.2-0.5-3.5,3.9-6,1.1C63.9,18.6,69.4,2.7,80.6-4
							S106.2-7.1,113,4S116,29.7,104.9,36.4z"/>
					</g>
					<g>
						
							<ellipse transform="matrix(0.7954 -0.6061 0.6061 0.7954 -8.1905 57.3802)" class="st193" cx="80.9" cy="40.8" rx="4.3" ry="4.3"/>
					</g>
					<g>
						
							<ellipse transform="matrix(0.7954 -0.6061 0.6061 0.7954 -7.5205 62.7419)" class="st193" cx="89.2" cy="42.5" rx="2.8" ry="2.8"/>
					</g>
					<g>
						
							<ellipse transform="matrix(0.7954 -0.6061 0.6061 0.7954 -7.2188 66.9884)" class="st193" cx="95.6" cy="44.2" rx="2.3" ry="2.3"/>
					</g>
				</g>
				<g>
					<g>
						<g>
							<path class="st193" d="M90.6,142.9c-0.1-0.2-0.1-0.3-0.2-0.4c-0.2-1.1,1.1-2.4,2.8-4.3c2.1-2.3,4.7-5.1,4.7-7.6
								c0-1.1-0.2-2.2-0.4-3.3c-0.4-2.3-0.8-4.6,0.4-6.8c2.7-5.2,7.1-4.8,10.5-4.4c3.5,0.3,6,0.6,6.6-4l0,0c0.2-1.6,1.1-2.2,1.7-2.5
								c1.7-0.6,5.2,0.3,10,4.7c2.6,2.4,4.8,5.1,6.2,7.8c1.7,3.1,2.2,6,1.6,8.4c-1.3,4.9-4.5,9-8.8,11.6c-4.4,2.5-9.5,3.2-14.4,1.9
								c-1.7-0.4-4.6-0.1-7.7,0.2c-4.5,0.5-9.7,1-12.6-0.7C90.9,143.2,90.7,143.1,90.6,142.9z M131.5,121.3
								c-1.4-2.3-3.4-4.6-5.4-6.4c-3.6-3.3-7.2-5.1-9-4.5c-0.6,0.2-1,0.8-1.1,1.7l0,0c-0.7,5.6-4.3,5.2-7.7,4.9
								c-3.5-0.3-7.1-0.7-9.5,3.9c-1,1.9-0.6,4-0.3,6.2c0.2,1.1,0.4,2.3,0.4,3.5c0,2.9-2.8,5.9-5,8.3c-1.2,1.3-2.6,2.9-2.5,3.4
								c0,0,0,0.1,0.1,0.2c2.6,1.5,7.6,1,11.9,0.5c3.2-0.3,6.2-0.7,8.1-0.2c9.6,2.6,19.5-3.2,22-12.8
								C134.4,127.5,133.4,124.3,131.5,121.3z"/>
						</g>
						<g>
							<path class="st193" d="M118.2,115c-1.6,8-18.8,1-17,9.1c3.3,14.8-10.4,16.2-4,17.9c6.4,1.7,30.9-8.7,32.6-15.2
								C131.6,120.5,119.3,109.6,118.2,115z"/>
						</g>
						<g>
							<path class="st193" d="M108.8,114.7c1.2,0.6,3.9,0.2,4.5-1c0.6-1.2-1-2.8-2.3-3.4c-1.2-0.6-2.7-0.2-3.4,1.1
								C107.1,112.6,107.6,114.1,108.8,114.7z"/>
						</g>
					</g>
				</g>
				<g>
					<g>
						<path class="st193" d="M53.9,56.6c0.5-0.9,0.8-1.8,1-2.8C56,48.4,52.5,43,47,41.9c-4.4-0.9-8.8,1.2-10.9,4.9
							C36,47,35.8,47.1,35.5,47c-0.9-0.3-1.8-0.5-2.7-0.7C16.4,42.6,0.2,52.7-3.8,69c-4.1,16.8,6.6,33.8,23.5,37.3
							C36.1,109.7,52.3,99.4,56,83c1.6-7,0.6-13.9-2.2-19.9C52.8,61.1,52.9,58.6,53.9,56.6z"/>
					</g>
					<g>
						<path class="st193" d="M15.1,112.4c-0.3-0.1-0.5-0.1-0.8-0.2c-4.8-1.2-9.3-3.3-13.2-6.4c-3.8-2.9-6.9-6.5-9.3-10.6
							c-2.4-4.2-3.9-8.7-4.6-13.4c-0.7-4.9-0.3-9.8,1.1-14.6c2.6-9.2,8.6-16.8,16.9-21.5c8.3-4.7,18-6,27.2-3.5
							c1.1,0.3,2.1,0.6,3.2,1c0.1,0,0.2,0,0.2-0.1c1-1.6,4.1-4.3,9.8-6.8c4.9-2.2,9.3-3.1,11.7-2.5c6.5,1.6,10.5,8.2,8.9,14.7
							c-0.3,1.2-0.7,2.3-1.3,3.3c-0.5,0.9-1.9,2.8-4.2,5.7c-2.5,3.2-3.4,7.4-2.4,11.4c1.3,5.7,1.2,11.7-0.3,17.4
							c-2.5,9.2-8.4,17-16.6,21.8C33.4,113,24.1,114.5,15.1,112.4z M30.8,42.6c-8.6-2-17.5-0.6-25.3,3.8c-8.1,4.6-14,12.1-16.5,21.1
							c-2.6,9.3-1.4,19,3.4,27.4c4.8,8.4,12.7,14.3,22,16.6c9,2.3,18.5,0.9,26.5-3.8c8.1-4.7,13.8-12.3,16.2-21.4
							c1.5-5.6,1.6-11.5,0.3-17c-1-4.3,0-8.7,2.6-12.1c2.2-2.9,3.6-4.8,4.1-5.6l0.3,0.2l-0.3-0.2c0.6-1,1-2,1.2-3.1
							c1.5-6.1-2.3-12.3-8.4-13.8c-2.2-0.6-6.5,0.4-11.2,2.5c-4.5,2-8.2,4.6-9.5,6.5c-0.2,0.4-0.7,0.6-1.2,0.4c-1-0.4-2.1-0.7-3.1-1
							C31.7,42.9,31.3,42.7,30.8,42.6z"/>
					</g>
				</g>
			</g>
		</g>
		<g>
			<defs>
				<path id="SVGID_155_" d="M136.1,70.8c-0.5-5.9-4.8-25.9-9.1-31.1c-8.6-10.4-20.9-12.6-22.5-13c-0.8-0.2-4.7-1.2-10.2-1.5
					c-0.2-0.4-0.4-1-0.5-1.6c-1-6.1,3.9-7.1,3.9-7.1c-3.2-2.3-10.1-1.7-12.7,4c-0.9,1.9-1,3.6-0.7,5c-2.5,0.3-5,0.8-7.6,1.5
					c-13.5,3.9-22.2,10.7-19.8,9.7c0,0-1.4,1.3-2.7,3c-1.4,1.7-4.8,17.7-5.9,23.7c-1.5,8.7-4.7,34.8-4.7,34.8s-1.4,6.6,1.3,10.8
					c2.7,4.2,9.2,8.9,20.3,16.9s16.8,7.9,23.6,8.5c6.8,0.6,18.9-5.3,18.9-5.3s16.8-9.3,24.2-23.3S136.1,70.8,136.1,70.8z"/>
			</defs>
			<clipPath id="SVGID_4_">
				<use xlink:href="#SVGID_155_"  style="overflow:visible;"/>
			</clipPath>
		</g>
		<g>
			<path class="st195" d="M97.1,133.4l8.8-3l2.9,22.4c0,0-4.3-10.7-6.6-13.8S97.1,133.4,97.1,133.4z"/>
			<g>
				<g>
					<path class="st26" d="M106.1,130.4c0.6,4.5,1.3,8.9,2,13.4c0.4,2.2,0.7,4.4,1.2,6.6c0.2,1.1,0.4,2.2,0.7,3.3
						c0.2,1.1,0.5,2.2,0.9,3.1l-1.1,0.4c-1.5-4.3-3.1-8.6-5-12.7c-1-2.1-2-4.1-3.2-6c-0.6-1-1.3-1.9-2-2.8c-0.7-0.9-1.5-1.7-2.5-2.2
						l0,0c-0.1-0.1-0.2-0.2-0.1-0.3c0.1-0.1,0.2-0.2,0.3-0.1c1.1,0.5,1.9,1.4,2.7,2.2c0.8,0.9,1.5,1.8,2.1,2.8c1.3,1.9,2.4,4,3.4,6
						c2,4.1,3.8,8.4,5.4,12.7c0.1,0.3,0,0.6-0.3,0.7c-0.3,0.1-0.6,0-0.7-0.3c-0.4-1.1-0.6-2.2-0.9-3.4c-0.2-1.1-0.4-2.2-0.6-3.3
						c-0.4-2.2-0.7-4.5-1-6.7c-0.6-4.5-1.2-8.9-1.7-13.4c0-0.1,0.1-0.2,0.2-0.3C106,130.2,106.1,130.2,106.1,130.4z"/>
				</g>
				<g>
					<path class="st26" d="M110.6,156.7c1.1,0.7,2.3,1.4,3.5,2c1.2,0.6,2.4,1.3,3.6,1.8c1.2,0.6,2.5,1,3.7,1.5
						c1.3,0.4,2.6,0.7,3.9,1c-1.4,0-2.7-0.1-4.1-0.4c-1.3-0.3-2.7-0.7-3.9-1.2c-1.3-0.5-2.5-1.1-3.7-1.8c-1.2-0.7-2.4-1.4-3.5-2.3
						c-0.2-0.1-0.2-0.4-0.1-0.6C110.1,156.6,110.4,156.6,110.6,156.7L110.6,156.7z"/>
				</g>
				<g>
					<path class="st26" d="M110.6,156.9c0.7,1,1.3,2,2,3c0.7,0.9,1.4,1.8,2.4,2.6c-0.6-0.1-1.2-0.4-1.8-0.7c-0.5-0.4-1-0.8-1.4-1.3
						c-0.8-1-1.4-2.1-1.7-3.3c0-0.2,0.1-0.3,0.2-0.4C110.4,156.8,110.5,156.8,110.6,156.9L110.6,156.9z"/>
				</g>
				<g>
					<path class="st26" d="M110.6,157.1c-0.2,1.2-0.7,2.3-1.4,3.3c-0.4,0.5-0.8,0.9-1.2,1.3c-0.5,0.4-1,0.6-1.6,0.8
						c0.9-0.8,1.5-1.6,2.1-2.6c0.6-0.9,1.1-1.9,1.6-2.9l0,0c0.1-0.1,0.3-0.2,0.4-0.1C110.6,156.9,110.6,157,110.6,157.1z"/>
				</g>
			</g>
		</g>
		<g>
			<path class="st30" d="M93.5,133.9c1,1.5,3,2.2,4.7,1.4c0,0,0,0,0,0c1,1.6,3,2.4,4.8,1.6c1.6-0.7,2.6-2.3,2.4-4
				c0.9,0.3,1.9,0.4,2.9,0c2-0.8,3-3.1,2.1-5.1c0,0-4.1,2.4-8.8,4.2C97.1,133.9,93.5,133.9,93.5,133.9z"/>
			<path class="st26" d="M93.7,134c0.1,0,0.1,0,0.1,0.1l0.2,0.2c0.1,0.2,0.3,0.3,0.5,0.4c0.3,0.3,0.7,0.5,1.1,0.6
				c0.8,0.3,1.7,0.2,2.6-0.1l0,0c0,0,0.1,0,0.1,0l0,0c0.9,1.4,2.8,2.1,4.4,1.6c0.8-0.2,1.5-0.8,2-1.4c0.5-0.7,0.7-1.5,0.7-2.4l0,0
				c0,0,0-0.1,0.1-0.1c0,0,0,0,0,0c0.7,0.2,1.5,0.3,2.2,0.1c0.7-0.2,1.3-0.6,1.8-1.1c0.5-0.5,0.8-1.2,0.9-1.9
				c0.1-0.7,0.1-1.4-0.2-2.1l0.4,0.1c-2.7,1.5-5.4,2.8-8.2,4c-1.4,0.6-2.9,1-4.4,1.4c-0.7,0.2-1.5,0.3-2.3,0.4
				c-0.4,0.1-0.8,0.1-1.1,0.2l-0.6,0.1l-0.3,0l-0.1,0l-0.1,0c0,0-0.1,0,0,0C93.6,134.2,93.7,134.1,93.7,134L93.7,134z M93.3,133.8
				c0,0,0.1-0.1,0.2-0.1l0.1,0l0.1,0l0.1,0l0.3,0l0.6-0.1c0.4,0,0.7-0.1,1.1-0.1c0.7-0.1,1.5-0.3,2.2-0.4c1.5-0.3,2.9-0.8,4.3-1.4
				c2.8-1.1,5.5-2.5,8.1-4c0.1-0.1,0.3,0,0.4,0.1l0,0c0.3,0.7,0.4,1.6,0.2,2.4c-0.1,0.8-0.6,1.5-1.1,2.1c-0.6,0.6-1.3,0.9-2.1,1.1
				c-0.8,0.1-1.6,0.1-2.3-0.2l0.1-0.1l0,0c0.1,0.9-0.1,1.8-0.6,2.6c-0.5,0.8-1.3,1.4-2.2,1.7c-0.9,0.3-1.9,0.3-2.7-0.1
				c-0.9-0.3-1.6-1-2-1.8l0.1,0l0,0c-0.8,0.4-1.8,0.4-2.7,0.2c-0.4-0.1-0.9-0.3-1.3-0.6c-0.2-0.1-0.4-0.3-0.5-0.5l-0.2-0.3
				C93.4,134.2,93.3,134,93.3,133.8L93.3,133.8z"/>
		</g>
		<g>
			<path class="st195" d="M71.3,129.7l-3.6,23.6c0,0,3.5-8.4,6.1-12.5c1.9-3,3.5-5.5,5.4-7.3L71.3,129.7z"/>
			<g>
				<path class="st26" d="M71.6,129.7c-0.5,4.6-1.1,9.2-1.7,13.8c-0.3,2.3-0.7,4.6-1,6.9c-0.2,1.1-0.4,2.3-0.6,3.4
					c-0.2,1.1-0.4,2.3-0.9,3.5c-0.1,0.3-0.4,0.4-0.7,0.3c-0.3-0.1-0.4-0.4-0.3-0.7l0,0c1.6-4.3,3.4-8.6,5.4-12.7
					c1-2.1,2.1-4.1,3.4-6c0.6-1,1.3-1.9,2.1-2.8c0.8-0.9,1.6-1.7,2.7-2.2c0.1-0.1,0.3,0,0.3,0.1c0.1,0.1,0,0.3-0.1,0.3l0,0
					c-1,0.5-1.8,1.3-2.5,2.2c-0.7,0.9-1.4,1.8-2,2.8c-1.2,1.9-2.2,4-3.2,6c-1.9,4.1-3.6,8.4-5,12.7l-1.1-0.4c0.4-1,0.7-2.1,0.9-3.2
					c0.3-1.1,0.5-2.3,0.7-3.4c0.4-2.3,0.8-4.5,1.2-6.8c0.7-4.6,1.4-9.1,2-13.7c0-0.1,0.1-0.2,0.3-0.2
					C71.5,129.5,71.6,129.6,71.6,129.7z"/>
			</g>
			<g>
				<path class="st26" d="M66.9,157.2c-1.1,0.9-2.2,1.6-3.4,2.3c-1.2,0.7-2.4,1.3-3.7,1.8c-1.3,0.5-2.6,0.9-3.9,1.2
					c-1.3,0.3-2.7,0.4-4.1,0.4c1.3-0.3,2.6-0.6,3.9-1.1c1.3-0.4,2.5-0.9,3.8-1.5c1.2-0.5,2.4-1.1,3.6-1.7c1.2-0.6,2.4-1.3,3.5-2l0,0
					c0.1-0.1,0.3,0,0.3,0.1C67.1,157,67,157.2,66.9,157.2z"/>
			</g>
			<g>
				<path class="st26" d="M67.1,157.1c-0.3,1.2-1,2.3-1.8,3.3c-0.4,0.5-0.9,0.9-1.4,1.3c-0.5,0.4-1.1,0.6-1.8,0.7
					c1-0.8,1.7-1.6,2.4-2.6c0.7-0.9,1.3-2,1.9-3l0,0c0.1-0.1,0.3-0.2,0.4-0.1C67.1,156.9,67.1,157,67.1,157.1z"/>
			</g>
			<g>
				<path class="st26" d="M67.1,156.9c0.5,1,1,2,1.6,2.9c0.6,0.9,1.2,1.8,2.1,2.6c-0.6-0.1-1.1-0.4-1.6-0.8
					c-0.5-0.4-0.9-0.8-1.3-1.3c-0.7-1-1.2-2.1-1.4-3.2c0-0.2,0.1-0.3,0.3-0.4C66.9,156.7,67,156.8,67.1,156.9L67.1,156.9z"/>
			</g>
		</g>
		<g>
			<path class="st30" d="M85.1,134.2c-1,1.5-3,1.8-4.7,1.1c0,0,0,0,0,0c-1,1.6-3,2.4-4.8,1.6c-1.6-0.7-2.6-2.3-2.4-4
				c-0.9,0.3-1.9,0.4-2.9,0c-2-0.8-3-3.1-2.1-5.1c0,0,4.1,2.4,8.8,4.2C81.5,133.9,85.1,134.2,85.1,134.2z"/>
			<path class="st26" d="M85.3,134.1L85.3,134.1c0,0.2-0.1,0.4-0.2,0.5l-0.2,0.3c-0.2,0.2-0.4,0.3-0.6,0.4c-0.4,0.2-0.8,0.4-1.3,0.5
				c-0.9,0.2-1.8,0-2.7-0.4l0.1,0c-0.4,0.8-1.1,1.5-2,1.8c-0.9,0.4-1.8,0.4-2.7,0.1c-0.9-0.3-1.7-0.9-2.2-1.7
				c-0.5-0.8-0.7-1.7-0.6-2.6l0.1,0.1c-0.7,0.3-1.5,0.4-2.3,0.2c-0.8-0.1-1.5-0.5-2.1-1.1c-0.6-0.6-1-1.3-1.1-2.1
				c-0.2-0.8-0.1-1.6,0.2-2.4c0.1-0.1,0.2-0.2,0.3-0.1c0,0,0,0,0,0c2.6,1.5,5.4,2.9,8.2,4c1.4,0.6,2.8,1,4.3,1.4
				c0.7,0.2,1.5,0.4,2.2,0.5l1.1,0.2l0.6,0.1l0.3,0l0.1,0l0.1,0l0.1,0C85.2,134,85.3,134.1,85.3,134.1z M84.9,134.3L84.9,134.3
				c0,0.1,0.1,0.1,0.1,0.1c0,0,0,0,0,0l-0.1,0l-0.1,0l-0.3,0l-0.6-0.1l-1.1-0.2c-0.8-0.2-1.5-0.3-2.2-0.5c-1.5-0.4-2.9-0.9-4.4-1.4
				c-2.8-1.1-5.6-2.5-8.3-4l0.4-0.1c-0.3,0.7-0.3,1.4-0.2,2.1c0.2,0.7,0.5,1.3,0.9,1.9c0.5,0.5,1.1,0.9,1.8,1.1
				c0.7,0.2,1.5,0.1,2.2-0.1v0c0,0,0.1,0,0.1,0c0,0,0,0,0,0l0,0c0,0.9,0.2,1.7,0.7,2.4c0.5,0.7,1.2,1.2,2,1.4
				c1.6,0.5,3.5-0.1,4.4-1.6c0,0,0.1-0.1,0.1,0c0.8,0.3,1.7,0.4,2.5,0.2c0.4-0.1,0.8-0.3,1.2-0.5c0.2-0.1,0.3-0.3,0.5-0.4l0.2-0.2
				C84.8,134.3,84.8,134.4,84.9,134.3z"/>
		</g>
		<path class="st24" d="M124.1,116.4c-11.1,5.4-23.3,8.4-35.5,8c-12.4-0.4-24.7-4.4-34.7-11.8c-2.2-1.6-7-8-10.6-8.5
			c0.2,1.7,0.6,3.4,1.6,4.9c2.7,4.2,9.2,8.9,20.3,16.9s16.8,7.9,23.6,8.5c6.8,0.6,18.9-5.3,18.9-5.3S116.4,124.3,124.1,116.4z"/>
		<path class="st30" d="M135.5,66.5c0,0-13,9.4-14.1,23.1s8,20.8,8,20.8s6.1-9,7.2-22.5C137.6,75.6,135.5,66.5,135.5,66.5z"/>
		<path class="st30" d="M47.8,66c0,0,10.6,9.5,14.4,21.3s-7.2,16.3-8.4,16.5c-1.3,0.2-6.3,0.6-10.4-0.8c0,0,1.2-15.1,1.6-18.4
			C45.4,81.5,47.8,66,47.8,66z"/>
		<g>
			<path class="st26" d="M94.4,24.8c6.6,0.5,13.2,1.8,19.3,4.5c3.1,1.3,6,3,8.6,5c1.3,1,2.6,2.1,3.7,3.4c0.6,0.6,1.1,1.3,1.6,2
				c0.5,0.7,0.9,1.5,1.2,2.2c1.4,3,2.5,6.1,3.6,9.3c1,3.2,1.8,6.4,2.6,9.6c1.4,6.5,2.3,13,2.4,19.7c0.1,6.6-0.6,13.3-2.6,19.7
				c-2,6.3-5.4,12.3-10.2,17c-4.7,4.6-9.9,8.8-15.8,12c-5.8,3.2-12.3,5.4-18.9,5.7c-3.3,0.1-6.7-0.2-9.9-1c-1.6-0.4-3.2-0.9-4.7-1.6
				c-1.5-0.7-3-1.5-4.4-2.3c-5.7-3.3-11.2-7-16.4-11.1c-2.6-2-5.1-4.2-7.4-6.6c-1.1-1.2-2.2-2.5-3.2-3.9l-0.3-0.5
				c-0.1-0.2-0.2-0.5-0.3-0.7c-0.1-0.4-0.2-0.9-0.2-1.3c-0.1-0.8-0.1-1.7-0.1-2.5c0-3.3,0.3-6.6,0.6-9.9c0.3-3.3,0.7-6.6,1.2-9.8
				c0.9-6.5,1.9-13,3-19.5c1.2-6.5,2.4-13,4.1-19.3c0.5-1.6,0.9-3.2,1.7-4.7c0.9-1.5,2.1-2.7,3.4-3.8c2.6-2.1,5.4-3.9,8.4-5.3
				c5.9-2.9,12.4-4.9,18.9-5.7c0.2,0,0.4,0.1,0.4,0.3c0,0.2-0.1,0.4-0.3,0.4c-6.5,0.8-12.8,2.8-18.7,5.6c-2.9,1.5-5.7,3.1-8.2,5.2
				c-1.2,1-2.4,2.2-3.2,3.5c-0.7,1.4-1.1,3-1.6,4.6c-1.7,6.3-2.9,12.8-4.1,19.3c-1.1,6.5-2.2,13-3,19.5c-0.8,6.5-1.7,13.1-1.8,19.6
				c0,0.8,0,1.6,0.1,2.4c0,0.4,0.1,0.8,0.2,1.1c0.1,0.2,0.1,0.3,0.2,0.5l0.3,0.5c0.9,1.3,1.9,2.6,3.1,3.8c2.3,2.3,4.8,4.5,7.3,6.5
				c5.2,4,10.6,7.7,16.3,11c1.4,0.8,2.9,1.6,4.3,2.3c1.5,0.7,3,1.1,4.6,1.6c3.1,0.8,6.4,1.1,9.7,0.9c6.5-0.3,12.8-2.5,18.5-5.7
				c5.7-3.2,10.8-7.3,15.5-11.9c4.7-4.5,7.9-10.4,9.9-16.6c1.9-6.2,2.6-12.8,2.5-19.3c-0.1-6.5-0.9-13.1-2.3-19.5
				c-0.7-3.2-1.5-6.4-2.5-9.5c-1-3.1-2.1-6.2-3.5-9.2c-0.4-0.7-0.7-1.5-1.1-2.1c-0.5-0.6-0.9-1.3-1.5-1.9c-1.1-1.2-2.3-2.3-3.6-3.3
				c-2.6-2-5.4-3.6-8.4-4.9c-6-2.6-12.5-3.9-19-4.4l0,0c-0.3,0-0.4-0.2-0.4-0.5S94.1,24.8,94.4,24.8z"/>
		</g>
		<g>
			<path class="st26" d="M48,65.9c3.5,3.3,6.7,6.9,9.5,10.9c1.4,2,2.6,4.1,3.6,6.3c1,2.2,1.8,4.5,2.1,7c0.8,4.9-1.4,10.3-5.7,12.9
				c-2.2,1.3-4.7,1.8-7.1,1.8c-2.4,0-4.8-0.5-7.1-1.3c-0.1,0-0.2-0.2-0.1-0.3c0-0.1,0.2-0.2,0.3-0.1l0,0c2.2,0.7,4.6,1.1,7,1
				c2.3-0.1,4.7-0.6,6.6-1.8c2-1.2,3.4-3.1,4.3-5.2c0.9-2.1,1.1-4.5,0.9-6.8c-0.5-4.6-2.8-9-5.4-13c-2.6-4-5.7-7.6-9.2-10.9l0,0
				c-0.1-0.1-0.1-0.2,0-0.3C47.7,65.8,47.9,65.8,48,65.9z"/>
		</g>
		<g>
			<path class="st26" d="M135.6,66.7c-3.3,2.6-6.2,5.7-8.6,9.2c-2.3,3.5-4.1,7.4-4.8,11.5c-0.3,2-0.4,4.1-0.3,6.2
				c0.2,2.1,0.6,4.1,1.1,6.2c0.6,2,1.3,4,2.3,5.8c1,1.8,2.3,3.5,4.1,4.6l0,0c0.1,0.1,0.1,0.2,0.1,0.3c-0.1,0.1-0.2,0.1-0.3,0.1
				c-1.9-1.1-3.3-2.9-4.4-4.7c-1.1-1.8-2-3.8-2.6-5.9c-0.6-2.1-1.1-4.2-1.3-6.3c-0.2-2.2-0.1-4.3,0.3-6.5c0.8-4.3,2.7-8.2,5.2-11.7
				c2.5-3.5,5.5-6.6,8.9-9.1c0.1-0.1,0.3-0.1,0.3,0C135.8,66.5,135.7,66.6,135.6,66.7L135.6,66.7z"/>
		</g>
		<g>
			<path class="st26" d="M49.5,104.2c0.7-0.6,1.4-1.3,2-2.1c0.6-0.8,1.1-1.6,1.5-2.5c0.4-0.9,0.8-1.8,1-2.7c0.3-0.9,0.4-1.9,0.5-2.9
				l0,0c0,0,0-0.1,0.1-0.1c0,0,0.1,0,0.1,0.1c0,0.5,0,1,0,1.5c-0.1,0.5-0.1,1-0.2,1.5c-0.2,1-0.5,2-0.9,2.9c-0.4,0.9-1,1.8-1.6,2.6
				c-0.7,0.8-1.4,1.5-2.3,2c-0.1,0-0.1,0-0.2,0C49.4,104.3,49.4,104.2,49.5,104.2L49.5,104.2z"/>
		</g>
		<g>
			<path class="st26" d="M45.3,103.5c0.4-0.4,0.8-0.9,1.1-1.4c0.3-0.5,0.6-1,0.9-1.5c0.6-1,1-2.1,1.4-3.2c0-0.1,0.1-0.1,0.1-0.1
				c0,0,0.1,0.1,0.1,0.1c0,0.6-0.2,1.2-0.3,1.8c-0.2,0.6-0.4,1.1-0.7,1.7c-0.3,0.5-0.6,1-1.1,1.5c-0.4,0.5-0.9,0.9-1.4,1.2
				C45.3,103.6,45.3,103.6,45.3,103.5C45.3,103.6,45.3,103.5,45.3,103.5L45.3,103.5z"/>
		</g>
		<g>
			<path class="st26" d="M126.4,107.6c0.5-0.8,0.9-1.7,1.2-2.6c0.4-0.9,0.7-1.8,1-2.7c0.6-1.8,1.1-3.7,1.5-5.6c0,0,0.1-0.1,0.1-0.1
				c0,0,0.1,0,0.1,0.1c0,1-0.2,1.9-0.3,2.9c-0.2,1-0.4,1.9-0.7,2.8c-0.3,0.9-0.7,1.8-1.1,2.7c-0.4,0.9-0.9,1.7-1.6,2.5
				c0,0.1-0.1,0.1-0.2,0C126.3,107.7,126.3,107.6,126.4,107.6L126.4,107.6z"/>
		</g>
		<g>
			<path class="st26" d="M122.8,100.4c0.7-1.3,1.4-2.6,2-4c0.3-0.7,0.6-1.3,0.9-2c0.3-0.7,0.5-1.4,0.8-2.1c0,0,0.1-0.1,0.1-0.1
				c0,0,0.1,0.1,0.1,0.1c-0.2,1.5-0.6,2.9-1.2,4.3c-0.6,1.4-1.4,2.7-2.4,3.8c-0.1,0.1-0.1,0.1-0.2,0
				C122.7,100.6,122.7,100.5,122.8,100.4L122.8,100.4z"/>
		</g>
		<g>
			<linearGradient id="SVGID_6_" gradientUnits="userSpaceOnUse" x1="92.2164" y1="30.307" x2="92.2164" y2="15.2754">
				<stop  offset="0.3484" style="stop-color:#FFFFFF;stop-opacity:0"/>
				<stop  offset="0.999" style="stop-color:#FFFFFF"/>
			</linearGradient>
			<path style="opacity:0.7;fill:url(#SVGID_6_);" d="M86.7,30c0,0-4.4-3.7-1.7-9.4s9.6-6.3,12.7-4c0,0-5,1-3.9,7.1
				c0.8,4.8,6.5,4.5,6.5,4.5S91.7,31.3,86.7,30z"/>
			<g>
				<path class="st26" d="M86.7,30.1c-1-0.5-1.7-1.4-2.2-2.4c-0.5-1-0.7-2.1-0.7-3.2c0-2.2,0.8-4.4,2.3-6.1c1.4-1.7,3.5-2.8,5.6-3.1
					c2.1-0.3,4.4,0.1,6.2,1.2c0,0,0.1,0.1,0,0.1c0,0-0.1,0.1-0.1,0c-1.8-1-4-1.3-6-1c-2,0.4-3.9,1.5-5.1,3.1
					c-1.3,1.6-1.9,3.7-1.9,5.7c0,2,0.6,4.1,2.2,5.4c0.1,0,0.1,0.1,0,0.2C86.8,30.1,86.7,30.1,86.7,30.1z"/>
			</g>
			<g>
				<path class="st26" d="M100.4,28.3c-0.7,0.2-1.5,0.2-2.3,0.1c-0.8-0.2-1.5-0.5-2.2-0.9c-1.3-0.8-2.3-2.3-2.6-3.9
					c-0.3-1.6,0-3.2,0.8-4.6c0.4-0.7,0.9-1.3,1.5-1.8c0.6-0.5,1.4-0.8,2.1-0.8c0,0,0.1,0,0.1,0.1c0,0,0,0.1-0.1,0.1
					c-0.7,0.2-1.3,0.6-1.8,1.1c-0.5,0.5-0.9,1.1-1.1,1.7c-0.6,1.3-0.7,2.7-0.5,4c0.2,1.3,1,2.5,2.1,3.4c1.1,0.8,2.5,1.3,3.9,1.2
					c0.1,0,0.1,0.1,0.1,0.1C100.5,28.2,100.4,28.3,100.4,28.3z"/>
			</g>
		</g>
		
			<ellipse transform="matrix(0.6946 -0.7194 0.7194 0.6946 -20.4882 67.0076)" class="st30" cx="68.7" cy="57.6" rx="9.9" ry="11.2"/>
		<path class="st138" d="M75.3,50.4c-1.9-1.8-4.2-2.8-6.5-3.1c-0.1,0-0.2,0-0.3,0c-8.2,0.1-10.7,10.2-7.6,16.6
			c0.3,0.3,0.6,0.6,0.9,0.9c3.4,3.3,8.1,4.2,11.8,2.8C78.6,64,79.1,55.1,75.3,50.4z"/>
		<g>
			<g>
				<path class="st26" d="M67,47.1L67,47.1c0,0-6.4-1.2-10.2,0.9c0,0,0.6,1.3,2.2,1.3c0,0-1.8,0.5-2.5,1.8c0,0,0.4,1.1,2.5,1
					c0.4-0.9,0.9-1.7,1.6-2.4C62.3,48.1,64.6,47.2,67,47.1z"/>
			</g>
			<path class="st26" d="M68.6,48.2c7.5-0.1,7.9,19.6,0.3,19.8C61.4,68.1,61.1,48.3,68.6,48.2z"/>
			<path class="st30" d="M71.7,50.6c4.6-0.1,4.7,6.5,0.1,6.5C67.2,57.2,67.1,50.7,71.7,50.6z"/>
			<g>
				<path class="st26" d="M61.5,65.1c-2-2-3.4-4.7-3.6-7.5c-0.3-2.8,0.6-5.8,2.6-7.8c2-2.1,4.9-2.9,7.7-2.8c2.8,0.1,5.6,1.3,7.7,3.3
					c2,2,3.5,4.7,3.7,7.6c0.3,2.8-0.6,5.8-2.7,7.8c-2,2.1-4.9,2.9-7.7,2.8C66.4,68.2,63.6,67,61.5,65.1z M62.1,64.4
					c1.9,1.9,4.4,3.2,7.1,3.5c2.7,0.3,5.5-0.7,7.3-2.7c1.9-2,2.6-4.8,2.2-7.4c-0.4-2.6-1.7-5.1-3.6-6.9c-1.9-1.8-4.3-3.2-7-3.5
					C65.5,47,62.6,48,60.8,50c-1.9,2-2.6,4.8-2.3,7.5C58.8,60.1,60.2,62.6,62.1,64.4z"/>
			</g>
		</g>
		
			<ellipse transform="matrix(0.7194 -0.6946 0.6946 0.7194 -8.2899 94.7499)" class="st30" cx="113.1" cy="57.6" rx="11.2" ry="9.9"/>
		<path class="st138" d="M106.5,50.4c1.9-1.8,4.2-2.8,6.5-3.1c0.1,0,0.2,0,0.3,0c8.2,0.1,10.7,10.2,7.6,16.6
			c-0.3,0.3-0.6,0.6-0.9,0.9c-3.4,3.3-8.1,4.2-11.8,2.8C103.2,64,102.7,55.1,106.5,50.4z"/>
		<g>
			<g>
				<path class="st26" d="M114.8,47.1L114.8,47.1c0,0,6.4-1.2,10.2,0.9c0,0-0.6,1.3-2.2,1.3c0,0,1.8,0.5,2.5,1.8c0,0-0.4,1.1-2.5,1
					c-0.4-0.9-0.9-1.7-1.6-2.4C119.5,48.1,117.2,47.2,114.8,47.1z"/>
			</g>
			<path class="st26" d="M113.2,48.2c-7.5-0.1-7.9,19.6-0.3,19.8C120.4,68.1,120.7,48.3,113.2,48.2z"/>
			<path class="st30" d="M110.1,50.6c-4.6-0.1-4.7,6.5-0.1,6.5C114.6,57.2,114.7,50.7,110.1,50.6z"/>
			<g>
				<path class="st26" d="M119.7,64.4c1.9-1.8,3.3-4.3,3.7-7c0.4-2.6-0.4-5.5-2.3-7.5c-1.9-2-4.7-2.9-7.4-2.6
					c-2.7,0.3-5.1,1.7-7,3.5c-1.9,1.8-3.2,4.3-3.6,6.9c-0.4,2.6,0.3,5.5,2.2,7.4c1.8,2,4.7,2.9,7.3,2.7
					C115.3,67.6,117.8,66.3,119.7,64.4z M120.3,65.1c-2.1,1.9-4.9,3.1-7.7,3.3c-2.8,0.2-5.7-0.7-7.7-2.8c-2-2-3-5-2.7-7.8
					c0.2-2.9,1.7-5.6,3.7-7.6c2.1-2,4.9-3.2,7.7-3.3c2.8-0.1,5.7,0.7,7.7,2.8c2,2,2.9,5,2.6,7.8C123.7,60.3,122.3,63,120.3,65.1z"/>
			</g>
		</g>
		<g>
			<g>
				<g>
					<path class="st26" d="M97.8,76.2c2.8-0.9,5.6-1.3,8.5-1.5c2.9-0.2,5.7-0.1,8.6,0.3c0.7,0.1,1.4,0.2,2.1,0.4
						c0.7,0.1,1.4,0.3,2.1,0.4l2.1,0.5l2,0.7c1.4,0.4,2.7,1,4,1.5c1.3,0.6,2.6,1.2,3.8,1.8c-1.3-0.6-2.6-1.2-3.9-1.8
						c-1.3-0.5-2.6-1.1-4-1.4l-2-0.6L119,76c-0.7-0.2-1.4-0.3-2.1-0.4c-0.7-0.1-1.4-0.3-2.1-0.3c-2.8-0.4-5.7-0.4-8.5-0.2
						c-2.8,0.2-5.6,0.7-8.3,1.6l0,0c-0.2,0.1-0.3,0-0.4-0.2C97.6,76.4,97.7,76.2,97.8,76.2C97.8,76.2,97.8,76.2,97.8,76.2z"/>
				</g>
				<g>
					<path class="st26" d="M99.6,77.6c1.7-0.2,3.3,0,4.9,0.4c1.6,0.4,3.1,1,4.5,1.9c1.4,0.9,2.7,1.9,3.8,3.1c0.6,0.6,1,1.2,1.6,1.8
						c0.5,0.6,0.9,1.3,1.4,2c-0.5-0.6-0.9-1.3-1.4-1.9c-0.5-0.6-1-1.2-1.6-1.8c-1.1-1.1-2.4-2.1-3.8-2.9c-1.4-0.8-2.9-1.4-4.4-1.7
						c-1.5-0.3-3.2-0.5-4.7-0.2l0,0c-0.2,0-0.3-0.1-0.4-0.3S99.5,77.6,99.6,77.6C99.6,77.6,99.6,77.6,99.6,77.6z"/>
				</g>
				<g>
					<path class="st26" d="M99,73.2c2.9-0.6,5.8-1,8.8-1.3c2.9-0.2,5.9-0.3,8.8-0.2c3,0.1,5.9,0.5,8.8,1c2.9,0.5,5.7,1.5,8.5,2.5
						c-2.8-1-5.6-1.9-8.5-2.4c-2.9-0.5-5.8-0.8-8.8-0.9c-2.9-0.1-5.9,0-8.8,0.3c-2.9,0.3-5.8,0.7-8.7,1.4l0,0
						c-0.2,0-0.3-0.1-0.4-0.2S98.9,73.2,99,73.2C99,73.2,99,73.2,99,73.2z"/>
				</g>
				<g>
					<path class="st26" d="M79.1,72.8c-2.7-0.8-5.5-1.3-8.4-1.5C67.9,71,65,71,62.1,71.2c-5.7,0.4-11.4,1.8-16.6,4.1
						c5.2-2.4,10.9-3.8,16.6-4.4c2.9-0.3,5.8-0.3,8.6-0.1c2.9,0.2,5.7,0.6,8.5,1.4c0.2,0,0.3,0.2,0.2,0.4S79.3,72.8,79.1,72.8
						C79.1,72.8,79.1,72.8,79.1,72.8L79.1,72.8z"/>
				</g>
				<g>
					<path class="st26" d="M82.4,75.2c-2.2-0.5-4.5-0.7-6.7-0.6c-2.3,0.1-4.5,0.5-6.7,1.3c-2.1,0.7-4.2,1.8-6,3.2
						c-1,0.6-1.8,1.5-2.6,2.2c-0.8,0.8-1.5,1.7-2.3,2.6c0.7-0.9,1.4-1.8,2.2-2.6c0.8-0.8,1.6-1.6,2.6-2.3c1.8-1.4,3.8-2.6,6-3.4
						c2.2-0.8,4.4-1.3,6.7-1.5c2.3-0.2,4.6-0.1,6.9,0.4c0.2,0,0.3,0.2,0.2,0.4C82.8,75.1,82.6,75.2,82.4,75.2
						C82.5,75.2,82.5,75.2,82.4,75.2L82.4,75.2z"/>
				</g>
				<g>
					<path class="st26" d="M81,77.1c-1.5-0.2-3.1-0.1-4.6,0.2c-1.5,0.4-3,0.9-4.3,1.8c-1.3,0.9-2.5,1.8-3.5,3.1
						c-0.3,0.3-0.5,0.6-0.7,0.9l-0.7,1c-0.4,0.7-0.8,1.4-1.2,2c0.4-0.7,0.7-1.4,1.1-2.1l0.6-1c0.2-0.3,0.4-0.7,0.7-0.9
						c0.9-1.3,2.2-2.3,3.4-3.2c1.3-0.9,2.8-1.5,4.3-2c1.5-0.4,3.1-0.6,4.8-0.4c0.2,0,0.3,0.2,0.3,0.3C81.3,77,81.2,77.2,81,77.1
						C81,77.1,81,77.1,81,77.1L81,77.1z"/>
				</g>
				<g>
					<g>
						<path class="st26" d="M90.1,73c0,0.9-0.5,1.6-0.8,2.4c-0.4,0.7-0.8,1.5-1.3,2.1c-1,1.3-2.3,2.5-3.8,3.3
							c-1.5,0.8-3.3,1.1-5,0.8c-1.7-0.3-3.2-1.1-4.6-2.1c-0.1-0.1-0.1-0.2,0-0.3c0.1-0.1,0.2-0.1,0.3,0c1.4,0.9,2.9,1.6,4.5,1.9
							c1.6,0.3,3.2,0,4.7-0.7c1.5-0.7,2.7-1.9,3.7-3.1c0.5-0.6,1-1.3,1.4-2C89.4,74.6,89.9,73.9,90.1,73C90,73,90,73,90.1,73
							C90,73,90.1,73,90.1,73z"/>
					</g>
					<g>
						<path class="st26" d="M90.4,73.6c0.8,1.4,1.7,2.7,2.7,3.9c1,1.2,2.2,2.2,3.6,3c1.3,0.7,2.9,1.1,4.4,1c1.5-0.1,3-0.7,4.3-1.5
							c0.1-0.1,0.2,0,0.3,0.1c0.1,0.1,0,0.2-0.1,0.3c-1.3,0.9-2.9,1.6-4.5,1.7c-1.6,0.2-3.3-0.3-4.7-1.1c-1.4-0.8-2.6-2-3.6-3.2
							C91.8,76.4,91,75.1,90.4,73.6z"/>
					</g>
					<path class="st26" d="M85.7,69.2c-0.1,0.6,0.2,1.1,0.6,1.5c0.6,0.5,1.4,0.7,2.2,0.7c1.1,0.1,1.3,0.7,1.5,1.8
						c0,0.3,0.9,0.2,0.9,0.1c0.3-2,2.1-1.6,3.3-2.3c1.5-0.8,1.4-2.2,0-2.9C92.3,67.1,86.2,66.3,85.7,69.2z"/>
					<path class="st26" d="M81,81.4c0,0,2.4,2.9,4.8,3.1c2.2,0.1,3.2-1.7,4.2-1.7c2,0,2.7,1.8,4.9,2c2.2,0.2,4.2-3.1,4.2-3.1
						s-3.5-1.1-5.9-3.7c-1.1-1.2-2.3-3.7-2.3-4.6c0,0-0.9-1.3-0.9,0C90,74.4,86.1,80.1,81,81.4z"/>
					<g>
						<path class="st30" d="M83.5,83.4c0,0,0.8-2.2,1-2.1c0.2,0.1,0.7,3,0.7,3S84.5,84.2,83.5,83.4z"/>
						<path class="st26" d="M83.4,83.6l0-0.2c0.1-0.4,0.2-0.9,0.4-1.3c0.1-0.2,0.2-0.4,0.3-0.6c0-0.1,0.1-0.1,0.1-0.2
							c0,0,0-0.1,0.1-0.1c0,0,0.2,0,0.2,0c0.1,0.1,0.1,0.1,0.1,0.1c0.1,0.2,0.1,0.2,0.1,0.4c0.3,0.9,0.4,1.8,0.6,2.7l0,0
							c0,0.1-0.1,0.3-0.2,0.3c0,0-0.1,0-0.1,0c-0.2,0-0.4-0.1-0.5-0.2c-0.2-0.1-0.3-0.2-0.4-0.3c-0.1-0.1-0.3-0.2-0.4-0.3l-0.2-0.2
							C83.5,83.7,83.4,83.6,83.4,83.6z M83.5,83.3l0.1,0c0.1,0,0.1,0,0.1,0l0.2,0.1c0.1,0.1,0.3,0.2,0.4,0.2
							c0.1,0.1,0.3,0.1,0.4,0.2c0.1,0.1,0.3,0.1,0.4,0.1l-0.3,0.3c-0.2-0.9-0.3-1.8-0.5-2.6c0-0.1-0.1-0.2-0.1-0.3c0,0,0,0,0,0
							c0,0,0.2,0,0.2,0c0,0,0,0,0,0c0,0-0.1,0.1-0.1,0.1c-0.1,0.2-0.2,0.4-0.3,0.6L83.5,83.3z"/>
					</g>
					<path class="st53" d="M94.8,84.7c-0.2-0.9-0.8-3.2-2-3.8c-1.3-0.6-2.9,0.3-2.9,0.3c-3.1-2.7-4.8,3.1-4.8,3.1l0,0
						c0.2,0.1,0.5,0.1,0.7,0.1c2.2,0.1,3.2-1.7,4.2-1.7C92,82.8,92.7,84.5,94.8,84.7z"/>
					<path class="st197" d="M81.2,81.4c0.6,0.7,2.6,2.9,4.6,3c2.2,0.1,3.2-1.7,4.2-1.7c2,0,2.7,1.8,4.9,2c2.2,0.2,4.2-3.1,4.2-3.1"
						/>
				</g>
			</g>
			<g>
				<path class="st26" d="M85.4,88c0.7,0.4,1.5,0.8,2.2,1.1c0.8,0.2,1.6,0.4,2.4,0.4c0.8,0,1.6-0.1,2.4-0.4c0.8-0.2,1.5-0.6,2.2-1.1
					l0,0c0.1,0,0.2,0,0.2,0.1c0,0.1,0,0.2,0,0.2c-0.3,0.3-0.7,0.5-1,0.8c-0.4,0.2-0.8,0.4-1.2,0.6c-0.8,0.4-1.7,0.5-2.6,0.5
					c-1.8,0-3.5-0.8-4.7-2c0,0,0-0.1,0-0.1C85.3,88,85.4,88,85.4,88L85.4,88z"/>
			</g>
		</g>
	</g>
</g>
<g id="mask" class="st0">
</g>
</svg>
