<?xml version="1.0" encoding="utf-8"?>
<!-- Generator: Adobe Illustrator 21.0.0, SVG Export Plug-In . SVG Version: 6.00 Build 0)  -->
<svg version="1.1" xmlns="http://www.w3.org/2000/svg" xmlns:xlink="http://www.w3.org/1999/xlink" x="0px" y="0px"
	 viewBox="0 0 176.8 172.4" style="enable-background:new 0 0 176.8 172.4;" xml:space="preserve">
<style type="text/css">
	.st0{display:none;}
	.st1{display:inline;fill:#FD9994;}
	.st2{display:inline;fill:#FFFFFF;}
	.st3{display:inline;fill:none;stroke:#FFFFFF;stroke-width:2.2363;stroke-miterlimit:10;}
	.st4{display:inline;}
	.st5{fill:none;stroke:#FFFFFF;stroke-width:2.2363;stroke-miterlimit:10;}
	.st6{fill:#FFB380;}
	.st7{fill:#D2C3DB;}
	.st8{fill:#F9ECDC;}
	.st9{fill:#FFF58B;}
	.st10{fill:#F6BC60;}
	.st11{fill:#ECF784;}
	.st12{fill:#FFDEFF;}
	.st13{fill:#AED5D2;}
	.st14{fill:#F4BD9F;}
	.st15{fill:#B9DCFF;}
	.st16{fill:#D7FFFB;}
	.st17{fill:#81D8F7;}
	.st18{fill:#E57777;}
	.st19{fill:#D9FFDB;}
	.st20{opacity:0.1;}
	.st21{fill:#5CCDFF;}
	.st22{fill:none;}
	.st23{opacity:0.2;fill:#FFFFFF;}
	.st24{opacity:0.1;fill:#002CBF;}
	.st25{fill:#1A1A1A;}
	.st26{fill:#333333;}
	.st27{fill:#FFFFDE;}
	.st28{clip-path:url(#SVGID_4_);}
	.st29{fill:none;stroke:#333333;stroke-width:0.4917;stroke-linecap:round;stroke-linejoin:round;stroke-miterlimit:10;}
	.st30{fill:#FFFFFF;}
	.st31{fill:none;stroke:#333333;stroke-width:0.8543;stroke-miterlimit:10;}
	.st32{clip-path:url(#SVGID_6_);}
	.st33{fill:#FFD7B9;}
	.st34{fill:#F0FFFF;}
	.st35{clip-path:url(#SVGID_8_);}
	.st36{fill:#FF5C5C;}
	.st37{fill:none;stroke:#333333;stroke-width:0.466;stroke-linecap:round;stroke-linejoin:round;stroke-miterlimit:10;}
	.st38{fill:none;stroke:#333333;stroke-width:0.8095;stroke-miterlimit:10;}
	.st39{clip-path:url(#SVGID_10_);}
	.st40{fill:none;stroke:#333333;stroke-width:0.7381;stroke-linecap:round;stroke-linejoin:round;stroke-miterlimit:10;}
	.st41{fill:none;stroke:#333333;stroke-width:0.8857;stroke-linecap:round;stroke-linejoin:round;stroke-miterlimit:10;}
	.st42{fill:none;stroke:#333333;stroke-width:2.6852;stroke-linecap:round;stroke-linejoin:round;stroke-miterlimit:10;}
	.st43{fill:#72B5C4;}
	.st44{fill:#5E96A5;}
	.st45{fill:none;stroke:#FFFFFF;stroke-width:2.6852;stroke-linecap:round;stroke-linejoin:round;stroke-miterlimit:10;}
	.st46{fill:none;stroke:#FFFFFF;stroke-width:1.2942;stroke-linecap:round;stroke-linejoin:round;stroke-miterlimit:10;}
	.st47{fill:none;stroke:#FFFFFF;stroke-width:0.8311;stroke-linecap:round;stroke-linejoin:round;stroke-miterlimit:10;}
	.st48{fill:#FF5C00;}
	.st49{fill:#00B4FF;}
	.st50{fill:#FF5592;}
	.st51{fill:#733FFF;}
	.st52{fill:#DDFF15;}
	.st53{fill:#BF5855;}
	.st54{fill:none;stroke:#333333;stroke-width:0.5718;stroke-miterlimit:10;}
	.st55{fill:#C8F982;}
	.st56{fill:#AEF9C0;}
	.st57{fill:none;stroke:#FFFFFF;stroke-width:1.8326;stroke-miterlimit:10;}
	.st58{fill:#9AF6F9;}
	.st59{fill:#FFACA2;}
	.st60{fill:#F9E582;}
	.st61{fill:#FFC08B;}
	.st62{fill:#EFEB6A;}
	.st63{fill:#EC987F;}
	.st64{fill:#B5FFCC;}
	.st65{fill:#FFEDA2;}
	.st66{fill:#CCE7CC;}
	.st67{fill:#ABE7AB;}
	.st68{fill:#A6A6A6;}
	.st69{clip-path:url(#SVGID_60_);}
	.st70{fill:none;stroke:#333333;stroke-width:0.4706;stroke-linecap:round;stroke-linejoin:round;stroke-miterlimit:10;}
	.st71{fill:#FFEC55;}
	.st72{fill:none;stroke:#333333;stroke-width:0.8177;stroke-miterlimit:10;}
	.st73{clip-path:url(#SVGID_62_);}
	.st74{clip-path:url(#SVGID_64_);}
	.st75{fill:#FF7A59;}
	.st76{clip-path:url(#SVGID_66_);}
	.st77{clip-path:url(#SVGID_68_);}
	.st78{fill:#B45FFF;}
	.st79{clip-path:url(#SVGID_70_);}
	.st80{opacity:0.2;fill:#002CBF;}
	.st81{fill:none;stroke:#333333;stroke-width:0.5506;stroke-linecap:round;stroke-linejoin:round;stroke-miterlimit:10;}
	.st82{clip-path:url(#SVGID_72_);}
	.st83{fill:#EAA871;}
	.st84{fill:#FFD836;}
	.st85{fill:#FF846B;}
	.st86{fill:none;stroke:#333333;stroke-width:0.804;stroke-linecap:round;stroke-linejoin:round;stroke-miterlimit:10;}
	.st87{fill:#FEFF4A;}
	.st88{fill:none;stroke:#333333;stroke-width:0.7645;stroke-linecap:round;stroke-linejoin:round;stroke-miterlimit:10;}
	.st89{fill:none;stroke:#333333;stroke-width:0.7645;stroke-miterlimit:10;}
	.st90{fill:none;stroke:#333333;stroke-width:2.9248;stroke-linecap:round;stroke-linejoin:round;stroke-miterlimit:10;}
	.st91{fill:none;stroke:#333333;stroke-width:0.945;stroke-linecap:round;stroke-linejoin:round;stroke-miterlimit:10;}
	.st92{fill:none;stroke:#333333;stroke-width:0.945;stroke-miterlimit:10;}
	.st93{fill:none;stroke:#333333;stroke-width:3.6155;stroke-linecap:round;stroke-linejoin:round;stroke-miterlimit:10;}
	.st94{fill:none;stroke:#333333;stroke-width:0.6228;stroke-miterlimit:10;}
	.st95{fill:none;stroke:#333333;stroke-width:0.7778;stroke-linecap:round;stroke-linejoin:round;stroke-miterlimit:10;}
	.st96{fill:#FF712A;}
	.st97{fill:none;stroke:#333333;stroke-width:0.7396;stroke-linecap:round;stroke-linejoin:round;stroke-miterlimit:10;}
	.st98{fill:none;stroke:#333333;stroke-width:0.7396;stroke-miterlimit:10;}
	.st99{fill:none;stroke:#333333;stroke-width:2.8295;stroke-linecap:round;stroke-linejoin:round;stroke-miterlimit:10;}
	.st100{fill:none;stroke:#333333;stroke-width:0.9142;stroke-linecap:round;stroke-linejoin:round;stroke-miterlimit:10;}
	.st101{fill:none;stroke:#333333;stroke-width:0.9142;stroke-miterlimit:10;}
	.st102{fill:none;stroke:#333333;stroke-width:3.4977;stroke-linecap:round;stroke-linejoin:round;stroke-miterlimit:10;}
	.st103{fill:none;stroke:#333333;stroke-width:0.6025;stroke-miterlimit:10;}
	.st104{fill:url(#SVGID_89_);}
	.st105{fill:url(#SVGID_90_);}
	.st106{fill:none;stroke:#333333;stroke-width:0.7438;stroke-linecap:round;stroke-linejoin:round;stroke-miterlimit:10;}
	.st107{fill:none;stroke:#333333;stroke-width:0.8926;stroke-linecap:round;stroke-linejoin:round;stroke-miterlimit:10;}
	.st108{clip-path:url(#SVGID_92_);fill:url(#SVGID_93_);}
	.st109{fill:url(#SVGID_94_);}
	.st110{fill:#52C5FF;}
	.st111{fill:none;stroke:#333333;stroke-width:0.6367;stroke-linecap:round;stroke-linejoin:round;stroke-miterlimit:10;}
	.st112{fill:none;stroke:#333333;stroke-width:2.7061;stroke-linecap:round;stroke-linejoin:round;stroke-miterlimit:10;}
	.st113{fill:none;stroke:#333333;stroke-width:0.5763;stroke-miterlimit:10;}
	.st114{fill:none;stroke:#FFFFFF;stroke-width:1.3042;stroke-linecap:round;stroke-linejoin:round;stroke-miterlimit:10;}
	.st115{fill:none;stroke:#FFFFFF;stroke-width:0.8375;stroke-linecap:round;stroke-linejoin:round;stroke-miterlimit:10;}
	.st116{clip-path:url(#SVGID_96_);}
	.st117{opacity:0.2;fill:#2E3192;}
	.st118{fill:#FEFF78;}
	.st119{opacity:0.1;fill:#2E3192;}
	.st120{fill:#FF5A50;}
	.st121{fill:none;stroke:#333333;stroke-width:0.567;stroke-linecap:round;stroke-linejoin:round;stroke-miterlimit:10;}
	.st122{fill:none;stroke:#333333;stroke-width:2.5786;stroke-linecap:round;stroke-linejoin:round;stroke-miterlimit:10;}
	.st123{fill:none;stroke:#333333;stroke-width:0.5491;stroke-miterlimit:10;}
	.st124{clip-path:url(#SVGID_98_);}
	.st125{fill:#2AD2FF;}
	.st126{fill:none;stroke:#333333;stroke-width:0.2435;stroke-miterlimit:10;}
	.st127{fill:#FFFFFF;stroke:#333333;stroke-width:0.487;stroke-linecap:round;stroke-linejoin:round;stroke-miterlimit:10;}
	.st128{clip-path:url(#SVGID_100_);}
	.st129{fill:url(#SVGID_101_);}
	.st130{opacity:0.4;fill:#FFFFFF;}
	.st131{fill:#FFDC48;}
	.st132{fill:none;stroke:#333333;stroke-width:0.5835;stroke-linecap:round;stroke-linejoin:round;stroke-miterlimit:10;}
	.st133{fill:none;stroke:#333333;stroke-width:2.6537;stroke-linecap:round;stroke-linejoin:round;stroke-miterlimit:10;}
	.st134{fill:#F0F462;}
	.st135{fill:url(#SVGID_102_);}
	.st136{fill:url(#SVGID_103_);}
	.st137{fill:#D1DADF;}
	.st138{fill:#57FFA3;}
	.st139{clip-path:url(#SVGID_105_);}
	.st140{clip-path:url(#SVGID_107_);}
	.st141{fill:#D0BBF9;}
	.st142{clip-path:url(#SVGID_109_);}
	.st143{fill:none;stroke:#333333;stroke-width:0.5867;stroke-linecap:round;stroke-linejoin:round;stroke-miterlimit:10;}
	.st144{clip-path:url(#SVGID_111_);}
	.st145{fill:none;stroke:#333333;stroke-width:0.5514;stroke-linecap:round;stroke-linejoin:round;stroke-miterlimit:10;}
	.st146{fill:#D1E9D3;}
	.st147{clip-path:url(#SVGID_113_);}
	.st148{fill:none;stroke:#333333;stroke-width:0.7684;stroke-linecap:round;stroke-linejoin:round;stroke-miterlimit:10;}
	.st149{fill:none;stroke:#333333;stroke-width:0.7684;stroke-miterlimit:10;}
	.st150{fill:none;stroke:#333333;stroke-width:2.9398;stroke-linecap:round;stroke-linejoin:round;stroke-miterlimit:10;}
	.st151{clip-path:url(#SVGID_115_);}
	.st152{fill:#FF66F8;}
	.st153{fill:none;stroke:#333333;stroke-width:0.7542;stroke-linecap:round;stroke-linejoin:round;stroke-miterlimit:10;}
	.st154{fill:none;stroke:#333333;stroke-width:0.9051;stroke-linecap:round;stroke-linejoin:round;stroke-miterlimit:10;}
	.st155{fill:none;stroke:#333333;stroke-width:0.5146;stroke-linecap:round;stroke-linejoin:round;stroke-miterlimit:10;}
	.st156{fill:none;stroke:#333333;stroke-width:0.6033;stroke-linecap:round;stroke-linejoin:round;stroke-miterlimit:10;}
	.st157{fill:none;stroke:#333333;stroke-width:2.7439;stroke-linecap:round;stroke-linejoin:round;stroke-miterlimit:10;}
	.st158{fill:#333333;stroke:#333333;stroke-width:1.0293;stroke-linecap:round;stroke-linejoin:round;stroke-miterlimit:10;}
	.st159{fill:#FF5F2A;}
	.st160{fill:none;stroke:#333333;stroke-width:0.5965;stroke-linecap:round;stroke-linejoin:round;stroke-miterlimit:10;}
	.st161{fill:#F9CC3E;}
	.st162{clip-path:url(#SVGID_121_);}
	.st163{fill:#70E1FF;}
	.st164{fill:none;stroke:#333333;stroke-width:0.5717;stroke-linecap:round;stroke-linejoin:round;stroke-miterlimit:10;}
	.st165{fill:none;stroke:#333333;stroke-width:2.6004;stroke-linecap:round;stroke-linejoin:round;stroke-miterlimit:10;}
	.st166{clip-path:url(#SVGID_123_);}
	.st167{fill:#8F61FF;}
	.st168{clip-path:url(#SVGID_125_);}
	.st169{clip-path:url(#SVGID_127_);}
	.st170{fill:#FFEBEB;}
	.st171{clip-path:url(#SVGID_129_);}
	.st172{clip-path:url(#SVGID_131_);}
	.st173{fill:#F47D62;}
	.st174{fill:none;stroke:#333333;stroke-width:0.7188;stroke-linecap:round;stroke-linejoin:round;stroke-miterlimit:10;}
	.st175{fill:none;stroke:#333333;stroke-width:0.7188;stroke-miterlimit:10;}
	.st176{fill:none;stroke:#333333;stroke-width:2.7502;stroke-linecap:round;stroke-linejoin:round;stroke-miterlimit:10;}
	.st177{fill:#85ACB5;}
	.st178{clip-path:url(#SVGID_133_);}
	.st179{fill:#D5F2F7;}
	.st180{fill:#FF694A;}
	.st181{fill:none;stroke:#333333;stroke-width:0.5693;stroke-linecap:round;stroke-linejoin:round;stroke-miterlimit:10;}
	.st182{fill:#FFDF15;}
	.st183{fill:none;stroke:#333333;stroke-width:0.6674;stroke-linecap:round;stroke-linejoin:round;stroke-miterlimit:10;}
	.st184{fill:none;stroke:#333333;stroke-width:3.0352;stroke-linecap:round;stroke-linejoin:round;stroke-miterlimit:10;}
	.st185{clip-path:url(#SVGID_135_);}
	.st186{clip-path:url(#SVGID_137_);}
	.st187{fill:none;stroke:#333333;stroke-width:0.5248;stroke-linecap:round;stroke-linejoin:round;stroke-miterlimit:10;}
	.st188{fill:#FFD33A;}
	.st189{fill:none;stroke:#333333;stroke-width:2.7983;stroke-linecap:round;stroke-linejoin:round;stroke-miterlimit:10;}
	.st190{fill:none;stroke:#333333;stroke-width:0.7692;stroke-linecap:round;stroke-linejoin:round;stroke-miterlimit:10;}
	.st191{fill:none;stroke:#333333;stroke-width:0.5959;stroke-miterlimit:10;}
	.st192{clip-path:url(#SVGID_143_);}
	.st193{fill:#FFE267;}
	.st194{clip-path:url(#SVGID_149_);}
	.st195{fill:#FFEEAA;}
	.st196{opacity:0.7;fill:url(#SVGID_152_);}
	.st197{fill:none;stroke:#333333;stroke-width:0.611;stroke-miterlimit:10;}
	.st198{clip-path:url(#SVGID_154_);}
	.st199{opacity:0.7;fill:url(#SVGID_157_);}
	.st200{fill:#EABBFC;}
	.st201{opacity:0.7;fill:url(#SVGID_160_);}
	.st202{opacity:0.7;fill:url(#SVGID_163_);}
	.st203{opacity:0.7;fill:url(#SVGID_166_);}
	.st204{opacity:0.7;fill:url(#SVGID_169_);}
	.st205{clip-path:url(#SVGID_171_);}
	.st206{fill:none;stroke:#333333;stroke-width:0.5899;stroke-linecap:round;stroke-linejoin:round;stroke-miterlimit:10;}
	.st207{fill:none;stroke:#333333;stroke-width:2.6828;stroke-linecap:round;stroke-linejoin:round;stroke-miterlimit:10;}
	.st208{fill:none;stroke:#333333;stroke-width:0.5713;stroke-miterlimit:10;}
	.st209{clip-path:url(#SVGID_173_);}
	.st210{clip-path:url(#SVGID_175_);}
	.st211{clip-path:url(#SVGID_177_);}
	.st212{fill:#FFAFC3;}
	.st213{fill:#A0D3FF;}
	.st214{fill:none;stroke:#333333;stroke-width:0.7262;stroke-linecap:round;stroke-linejoin:round;stroke-miterlimit:10;}
	.st215{fill:none;stroke:#333333;stroke-width:0.6906;stroke-miterlimit:10;}
	.st216{fill:none;stroke:#333333;stroke-width:0.8536;stroke-miterlimit:10;}
	.st217{fill:#333333;stroke:#333333;stroke-width:0.991;stroke-linecap:round;stroke-linejoin:round;stroke-miterlimit:10;}
	.st218{clip-path:url(#SVGID_179_);}
	.st219{clip-path:url(#SVGID_181_);}
	.st220{fill:#FD9994;}
	.st221{opacity:0.2;}
	.st222{fill:#2E3192;}
	.st223{display:inline;fill:#FF5B00;}
</style>
<g id="site">
</g>
<g id="kitties">
	<g>
		<path class="st85" d="M123.4,145.3c0,0,10.8-0.9,14.2-6.4c3.4-5.5,3.4-20.6-16.8-24.7c0,0,7.3-2.6,13-0.7c5.7,1.8,8.9,5.5,8.9,5.5
			s-1-6.6-5-11.1c0,0,8,3.1,12.4,11.8s2.3,17.1,0,18.7c0,0,4.2-3,6.3-10.6c0,0,3.4,9.1-3.1,17.4c-6.6,8.3-17.7,9.5-22.5,9.3
			c-4.3-0.2-9-2.9-9-2.9S120.6,144.9,123.4,145.3z"/>
		<path class="st24" d="M137.5,108c0,0,6.9,4.5,5.8,12.6l-0.8-1.5C142.5,119.1,141.5,112.6,137.5,108z"/>
		<path class="st24" d="M156.2,127.9c0,0-0.3,10-6.8,11.5c-0.2,0-0.3-0.2-0.2-0.3l0.7-0.6C149.9,138.5,153.8,137,156.2,127.9z"/>
		<g>
			<path class="st26" d="M120.7,114.1c4.3,0.6,8.4,2.2,11.9,4.8c1.7,1.3,3.2,2.9,4.4,4.7l0.8,1.4c0.1,0.2,0.3,0.5,0.4,0.7l0.3,0.8
				c0.2,0.5,0.4,1,0.6,1.5l0.3,1.6c0.4,2.1,0.5,4.4-0.2,6.5c-0.3,1.1-0.8,2.1-1.4,3c-0.6,0.9-1.4,1.7-2.3,2.4
				c-1.7,1.4-3.7,2.3-5.8,2.9c-2.1,0.6-4.2,0.9-6.4,1c-0.1,0-0.2-0.1-0.2-0.2c0-0.1,0.1-0.2,0.2-0.2l0,0c2.1-0.1,4.2-0.5,6.2-1.2
				c2-0.6,3.9-1.6,5.5-2.9c0.8-0.7,1.5-1.4,2.1-2.3c0.6-0.9,1-1.8,1.3-2.8c0.6-2,0.6-4.1,0.1-6.2l-0.3-1.5c-0.2-0.5-0.3-1-0.5-1.5
				l-0.3-0.7c-0.1-0.2-0.2-0.5-0.4-0.7l-0.7-1.4c-1.1-1.8-2.6-3.3-4.2-4.6c-1.7-1.3-3.5-2.3-5.5-3.1c-1.9-0.8-4-1.5-6.1-1.8l0,0
				c-0.1,0-0.1-0.1-0.1-0.2C120.6,114.1,120.6,114.1,120.7,114.1z"/>
		</g>
		<g>
			<path class="st26" d="M120.6,114.1c1.8-0.8,3.8-1.3,5.8-1.5c2-0.2,4-0.1,6,0.2c1,0.2,2,0.5,2.9,0.8c0.9,0.4,1.9,0.8,2.7,1.3
				c1.8,1,3.2,2.4,4.6,3.9c0.1,0.1,0.1,0.2,0,0.3c-0.1,0.1-0.2,0.1-0.3,0l0,0c-1.4-1.3-2.9-2.7-4.6-3.6c-0.8-0.5-1.7-0.8-2.6-1.3
				c-0.9-0.3-1.8-0.6-2.8-0.8c-1.9-0.4-3.9-0.5-5.8-0.4c-1.9,0.1-3.9,0.5-5.8,1.1l0,0c-0.1,0-0.2,0-0.2-0.1
				C120.5,114.2,120.6,114.1,120.6,114.1z"/>
		</g>
		<g>
			<path class="st26" d="M137.7,107.9c1.5,1.5,2.6,3.3,3.5,5.1c0.4,0.9,0.8,1.9,1.1,2.9c0.3,1,0.4,2.1,0.5,3.1
				c0,0.1-0.1,0.2-0.2,0.2c-0.1,0-0.2-0.1-0.2-0.2l0,0c-0.2-1-0.4-2-0.8-2.9c-0.3-1-0.7-1.9-1.1-2.8c-0.4-0.9-0.9-1.8-1.4-2.7
				c-0.5-0.9-1-1.7-1.6-2.6l0,0c0-0.1,0-0.2,0-0.2C137.5,107.8,137.6,107.8,137.7,107.9z"/>
		</g>
		<g>
			<path class="st26" d="M137.6,107.8c2.8,1.3,5.4,3.1,7.7,5.3c2.3,2.1,4.2,4.7,5.5,7.6c0.4,0.7,0.6,1.5,0.9,2.2
				c0.3,0.7,0.4,1.5,0.7,2.3c0.4,1.5,0.6,3.1,0.7,4.7c0,1.6-0.1,3.2-0.5,4.7c-0.5,1.5-1.2,3-2.4,4.1c-0.1,0.1-0.2,0.1-0.3,0
				c-0.1-0.1-0.1-0.2,0-0.3l0,0c1-1,1.7-2.5,2-3.9c0.4-1.5,0.5-3,0.4-4.5c-0.1-3-0.9-6.1-2.2-8.8c-1.2-2.8-3.1-5.3-5.3-7.4
				c-1.1-1.1-2.2-2.1-3.5-3c-1.2-0.9-2.5-1.8-3.9-2.5l0,0c-0.1,0-0.1-0.1-0.1-0.2C137.5,107.8,137.5,107.8,137.6,107.8z"/>
		</g>
		<g>
			<path class="st26" d="M156.3,127.9c-0.3,2.1-1,4.1-2,6c-0.5,0.9-1.1,1.9-1.8,2.7c-0.7,0.8-1.5,1.5-2.5,2c-0.1,0.1-0.2,0-0.3-0.1
				c0-0.1,0-0.2,0.1-0.3l0,0c1.6-1.2,2.8-2.9,3.8-4.7c0.5-0.9,0.9-1.8,1.3-2.8c0.4-1,0.8-1.9,1.1-2.9l0,0c0-0.1,0.1-0.1,0.2-0.1
				C156.3,127.8,156.4,127.9,156.3,127.9z"/>
		</g>
		<g>
			<path class="st26" d="M156.3,127.9c1.2,4.2,1.1,8.7-0.4,12.8c-0.7,2.1-1.8,4-3.2,5.7c-1.4,1.7-3.1,3.1-4.9,4.3
				c-3.7,2.3-7.9,3.8-12.2,4.2c-4.3,0.4-8.8-0.1-12.6-2.2c-0.1-0.1-0.1-0.2-0.1-0.3c0.1-0.1,0.2-0.1,0.3-0.1
				c3.8,1.9,8.2,2.4,12.4,1.9c4.2-0.5,8.3-1.9,11.9-4.2c1.8-1.1,3.4-2.5,4.8-4.1c1.3-1.6,2.4-3.5,3.2-5.4c0.8-2,1.2-4.1,1.3-6.2
				c0.1-2.1,0-4.3-0.5-6.3l0,0c0-0.1,0-0.2,0.1-0.2C156.2,127.7,156.3,127.8,156.3,127.9z"/>
		</g>
		<path class="st24" d="M136.4,123.3c0,0,8.7,10.4,2.3,17.8c-5.4,6.3-17.1,5.7-17.1,5.7v-2c0,0,4.9,1.7,11.7-2.3
			S140.8,130.9,136.4,123.3z"/>
		<g>
			<g>
				<path class="st26" d="M48.9,41.4c0,0-14.1,1.9-15.7-4.5c-1.2-4.6,8.9-10.6,8.9-10.6s-9.8,2.4-13,7.6s1.2,13.4,9.6,16.7
					c8.4,3.2,9.7,3.1,9.7,3.1L48.9,41.4z"/>
				<g>
					<path class="st26" d="M42.2,26.6c-1.1,0.7-2.2,1.5-3.2,2.3c-1,0.8-2,1.7-2.9,2.6c-0.9,0.9-1.7,2-2.2,3.1
						c-0.2,0.6-0.4,1.1-0.3,1.7c0,0.5,0.3,1.1,0.6,1.5c0.7,0.9,1.8,1.6,3,2c1.2,0.5,2.5,0.8,3.8,1c2.6,0.4,5.3,0.5,7.9,0.3l0,0
						c0.1,0,0.2,0.1,0.2,0.2c0,0.1-0.1,0.2-0.2,0.2c-2.7,0.4-5.4,0.5-8,0.2c-1.3-0.2-2.7-0.4-4-0.9c-1.3-0.5-2.6-1.2-3.5-2.4
						c-0.4-0.6-0.8-1.3-0.8-2.1c0-0.8,0.2-1.5,0.5-2.2c0.6-1.3,1.5-2.4,2.5-3.3c1.9-1.9,4.1-3.5,6.4-4.9c0.1-0.1,0.3,0,0.4,0.1
						C42.4,26.4,42.4,26.5,42.2,26.6L42.2,26.6z"/>
				</g>
				<g>
					<path class="st26" d="M42.1,26.7c-1.9,0.4-3.7,1.1-5.4,2c-1.7,0.9-3.3,2-4.8,3.2c-0.7,0.6-1.5,1.2-2.1,2
						c-0.6,0.7-1,1.5-1.3,2.4c-0.5,1.7-0.2,3.7,0.6,5.3c0.8,1.7,2,3.2,3.4,4.5c1.4,1.3,2.9,2.5,4.6,3.4c1.7,1,3.4,1.8,5.3,2.4
						c1.8,0.6,3.8,1,5.7,0.8l0,0c0.1,0,0.2,0.1,0.2,0.2c0,0.1-0.1,0.2-0.2,0.2c-2,0.2-4-0.1-5.9-0.6c-1.9-0.5-3.8-1.3-5.5-2.2
						c-3.5-1.8-6.8-4.5-8.6-8.2c-0.9-1.8-1.2-4.1-0.6-6.1c0.3-1,0.9-1.9,1.5-2.7c0.7-0.8,1.5-1.4,2.2-2.1c3.1-2.5,6.7-4.4,10.7-5.1
						c0.2,0,0.3,0.1,0.3,0.2C42.4,26.5,42.3,26.6,42.1,26.7L42.1,26.7z"/>
				</g>
			</g>
			<g>
				<path class="st26" d="M109.4,33c0,0,14.1-2,13.9-8.6c-0.1-4.8-11.5-7.7-11.5-7.7s10-0.4,14.6,3.8s2.5,13.3-4.7,18.7
					s-8.4,5.6-8.4,5.6L109.4,33z"/>
				<g>
					<path class="st26" d="M111.9,16.4c2.6,0.7,5.1,1.6,7.5,2.9c1.2,0.7,2.3,1.4,3.3,2.5c0.5,0.5,0.9,1.2,1,2
						c0.2,0.8,0.1,1.5-0.2,2.3c-0.6,1.4-1.6,2.4-2.7,3.2c-1.1,0.8-2.4,1.4-3.6,1.9c-2.5,1-5.1,1.7-7.8,2c-0.1,0-0.2-0.1-0.2-0.2
						c0-0.1,0.1-0.2,0.2-0.2l0,0c2.6-0.5,5.1-1.3,7.5-2.4c1.2-0.6,2.3-1.2,3.3-2c1-0.8,1.9-1.7,2.3-2.8c0.2-0.5,0.3-1.1,0.2-1.7
						c-0.1-0.5-0.4-1.1-0.8-1.5c-0.8-0.9-1.9-1.7-3-2.4c-1.1-0.7-2.3-1.2-3.5-1.7c-1.2-0.5-2.4-1-3.7-1.4l0,0
						c-0.2-0.1-0.2-0.2-0.2-0.4C111.6,16.5,111.7,16.4,111.9,16.4z"/>
				</g>
				<g>
					<path class="st26" d="M111.8,16.4c4-0.4,8,0.5,11.7,2c0.9,0.4,1.8,0.8,2.7,1.4c0.9,0.6,1.6,1.3,2.2,2.2c1.2,1.8,1.4,4,1.1,6
						c-0.7,4.1-3.2,7.5-6,10.2c-1.4,1.4-3,2.6-4.7,3.6c-1.7,1-3.5,1.9-5.5,2.2c-0.1,0-0.2-0.1-0.2-0.2c0-0.1,0.1-0.2,0.2-0.2l0,0
						c1.9-0.4,3.6-1.3,5.2-2.3c1.6-1.1,3.1-2.3,4.4-3.7c1.4-1.4,2.6-2.9,3.5-4.5c1-1.6,1.7-3.4,2-5.3c0.3-1.8,0.1-3.8-0.9-5.3
						c-0.5-0.8-1.1-1.4-1.9-2c-0.7-0.5-1.6-0.9-2.5-1.3c-1.8-0.8-3.6-1.4-5.5-1.7c-1.9-0.4-3.8-0.6-5.7-0.4l0,0
						c-0.2,0-0.3-0.1-0.3-0.3C111.5,16.6,111.6,16.4,111.8,16.4z"/>
				</g>
			</g>
		</g>
		<path class="st85" d="M140.5,74.5c0-2.5-0.9-3.5-0.9-3.5s-0.7-9.2-1.2-10.4c-0.4-1.2-6.5-13.6-10.3-19.7c0,0-1.9-4.3-8.9-5.8
			s-8.7-2.5-10.9-4.3s-4.9-4.8-8.6-5.7c-3.7-0.9-8.2-2.3-8.2-2.3l-1.6-0.6l-0.5-3.6l-4.2-3.9c0,0-8.2,5.1-11,8.8L63.9,28
			c0,0-3.2-1.9-4.1-1.7c-0.1,0-0.1,0.1-0.2,0.1l0-0.1c0,0-0.1,0.1-0.3,0.3c-0.2,0.2-0.3,0.4-0.5,0.6c-1.3,1.5-4,4.5-6.6,5.5
			c-3.6,1.4-9.1,3.8-12.8,8.2c-1.3,1.6-3,6.1-4.5,11.2c-4-1.5-22.8-7.9-3.5,12.9c-1,4-1.7,7-1.7,7s-1.3,2.7-3.7,2.7
			c0,0,2.1,3.5,5.6,4L28.9,80h-3.7c0,0,1.7,6.2,10.5,8.2c2.1,0.5-7.7,0.5-7.7,0.5s2.8,6.4,12,8.4s6.5,1.5,10.4,3.7s4.2,2.7,4.2,2.7
			s0.8,2.8-0.6,5c-0.1,0.2-0.1,0.3-0.1,0.4c-0.1,0.1-0.1,0.2-0.2,0.4c0,0-2.3,5.6-1.1,9.5c0,0-2.1,2.2-2.6,5.4
			c-0.5,3.2-0.7,8-1.3,10.3c-0.6,2.3-2.3,7.7-2.3,7.7s-3.3,5.8-2.8,9.5c0.5,3.7,2,4.7,7,4.7s16-0.3,17.5-0.3
			c1.5-0.1,5.8-0.4,5.8-0.4s1.7,6,5.2,5c3.5-0.9,3.7-4.8,3.7-4.8h4.4c0,0,1.4,5.9,4.1,4.9c2.7-1,4.6-4.8,4.6-4.8s8.1,0.4,11.1-0.1
			c3-0.5,4.8-1.1,4.8-1.1s7.3,3.2,10.4,1.2c3.1-2,0.3-14.1,0.3-14.1l-2.3-16.3l-1.4-6.6l-1.7-4.7l-1.9-3.4l0.3-4.9l0.6-2.8
			c0,0,8.7-2.6,8.9-2.7c0.2-0.1,5.7-3.2,5.7-3.2l2.8-3.1c0,0,1.4-1.3,1.1-4.5c0,0,4.1-0.1,5-4.6c0.9-4.5-0.5-6.5-0.5-6.5
			S140.5,77.1,140.5,74.5z"/>
		<g>
			<g>
				<path class="st26" d="M35.6,52.7c-1.4-0.5-2.8-1-4.3-1.4c-1.4-0.4-2.9-0.7-4.3-0.8c-0.7-0.1-1.4,0-2.1,0.1
					c-0.7,0.1-1.2,0.5-1.3,1c-0.2,0.5,0,1.2,0.2,1.9c0.1,0.3,0.3,0.7,0.4,1l0.5,1c0.7,1.3,1.6,2.5,2.5,3.7c0.9,1.2,1.8,2.4,2.8,3.5
					c1.9,2.3,4,4.5,6,6.7c0.1,0.1,0.1,0.2,0,0.3c-0.1,0.1-0.2,0.1-0.3,0c-2.2-2.1-4.3-4.2-6.4-6.4c-2-2.2-4-4.5-5.6-7.2l-0.5-1
					c-0.2-0.4-0.3-0.7-0.4-1.1c-0.2-0.8-0.5-1.6-0.1-2.5c0.1-0.2,0.2-0.4,0.3-0.6c0.1-0.2,0.3-0.3,0.5-0.5c0.4-0.2,0.8-0.4,1.2-0.5
					c0.8-0.2,1.6-0.2,2.4-0.1c3.1,0.3,6,1.4,8.8,2.5c0.2,0.1,0.2,0.2,0.2,0.4C35.9,52.7,35.7,52.7,35.6,52.7L35.6,52.7z"/>
			</g>
			<path class="st26" d="M34.8,56.7c0.2,0.3,0.5,0.6,0.6,1c0.1,0.4,0.1,0.7,0,1.1c-0.2,1.5-0.4,3.1-0.8,4.5c0,0,0,0,0,0
				c-0.1,0.3-0.6,0.4-0.9,0.2c-1-0.8-3.5-3.1-5.9-7.8c-1.3-2.7,3.1-1.5,4.2-1.1C33,55,34,55.7,34.8,56.7z"/>
		</g>
		<path class="st26" d="M30.9,64.5c-0.6,2.4-1.1,4.9-1.7,7.3c-0.1,0.3,0.1,0.6,0.4,0.7s0.6-0.1,0.7-0.4l0,0c0.5-2.2,1-4.3,1.5-6.5
			C31.4,65.3,31.1,64.9,30.9,64.5z"/>
		<path class="st26" d="M94.2,26.3L94.2,26.3L94.2,26.3l-3.6-2l-0.7-5.7l0,0c0-0.1-0.1-0.2-0.1-0.2l0,0l-4.3-4.1
			c-0.1-0.1-0.3-0.2-0.5-0.1l0,0c-1,0.6-2,1.3-3,1.9c-1,0.7-2,1.4-2.9,2.1c-0.5,0.4-1,0.7-1.4,1.1c-0.5,0.4-0.9,0.8-1.4,1.2
			c-0.2,0.2-0.5,0.4-0.7,0.6c-0.2,0.2-0.4,0.4-0.6,0.7l-0.6,0.7l-0.5,0.6l-10.4,4.2c0,0-0.1-0.1-0.1-0.1c-0.1-0.1-0.3-0.3-0.4-0.4
			c-0.3-0.3-0.6-0.5-0.9-0.7c-0.3-0.2-0.7-0.4-1.1-0.5c-0.4-0.1-0.8-0.2-1.2-0.2c-0.2,0-0.3,0.1-0.5,0.2l0,0
			c-0.8,0.9-1.7,1.7-2.5,2.5c-0.9,0.8-1.8,1.6-2.7,2.4l-0.7,0.5c-0.2,0.2-0.5,0.3-0.7,0.5c-0.2,0.2-0.5,0.3-0.7,0.5l-0.4,0.2
			c-0.1,0-0.1,0.1-0.2,0.1l-0.2,0.1c-0.1,0.1-0.2,0.1-0.4,0.2l-0.4,0.2c-0.3,0.1-0.6,0.2-0.9,0.3c-0.6,0.2-1.1,0.5-1.7,0.7
			c-2.2,1-4.4,2.3-6.2,4c-1.9,1.6-3.5,3.6-4.5,5.9c-0.1,0.3-0.2,0.6-0.4,0.9l-0.2,0.4c-0.1,0.1-0.1,0.3-0.2,0.4
			c-0.2,0.6-0.4,1.1-0.6,1.7L35,49l-0.5,1.7c-0.1,0.3-0.2,0.7-0.3,1c0.4,0.1,0.8,0.2,1.1,0.4c0.1-0.4,0.2-0.7,0.3-1.1l0.5-1.7
			l0.6-1.7c0.2-0.6,0.4-1.1,0.6-1.7c0-0.1,0.1-0.3,0.2-0.4l0.2-0.4c0.1-0.3,0.2-0.5,0.4-0.8c1-2.1,2.5-3.9,4.3-5.5
			c1.8-1.5,3.8-2.8,6-3.7c0.5-0.2,1.1-0.5,1.6-0.7c0.3-0.1,0.6-0.2,0.8-0.3l0.4-0.1c0.1-0.1,0.3-0.1,0.5-0.2l0.2-0.1
			c0.1,0,0.1-0.1,0.2-0.1l0.4-0.2c0.3-0.2,0.5-0.3,0.8-0.5c0.3-0.2,0.5-0.4,0.8-0.5l0.7-0.6c1.8-1.5,3.5-3.1,5.1-4.8
			c0.2,0,0.4,0,0.6,0.1c0.3,0.1,0.6,0.2,0.8,0.4c0.3,0.2,0.5,0.3,0.8,0.5c0.1,0.1,0.2,0.2,0.3,0.3c0.1,0.1,0.1,0.1,0.2,0.2
			c0,0.1,0.1,0.1,0.1,0.2l0,0c0.2,0.2,0.5,0.3,0.7,0.2l10.9-4.6c0.1,0,0.2-0.1,0.2-0.2l0,0l0.5-0.7l0.6-0.7c0.2-0.2,0.4-0.4,0.6-0.6
			c0.2-0.2,0.4-0.4,0.6-0.6c0.4-0.4,0.9-0.8,1.3-1.2c0.5-0.4,0.9-0.8,1.4-1.1c0.9-0.7,1.9-1.4,2.9-2.1c0.9-0.6,1.8-1.2,2.7-1.8
			l4,3.7l0.5,5.8l0,0l0,0c0,0.1,0.1,0.3,0.3,0.3l3.7,1.7l-0.5,4.8c0,0.1,0.1,0.2,0.2,0.2c0.1,0,0.2-0.1,0.2-0.2l0.8-5
			C94.4,26.5,94.3,26.4,94.2,26.3z"/>
		<g>
			<path class="st26" d="M30.3,72.1c-0.2,0.5-0.4,0.9-0.6,1.2c-0.3,0.4-0.6,0.7-1,1c-0.4,0.3-0.8,0.5-1.2,0.7
				c-0.4,0.2-0.9,0.2-1.4,0.3l0.6-0.9c0.2,0.4,0.5,0.9,0.8,1.3c0.3,0.4,0.7,0.8,1.2,1.2c0.4,0.3,0.9,0.6,1.5,0.9
				c0.5,0.2,1.1,0.4,1.6,0.6l0,0c0.1,0,0.2,0.2,0.2,0.3c0,0.1-0.2,0.2-0.3,0.2c-0.6-0.1-1.2-0.2-1.8-0.4c-0.6-0.2-1.2-0.5-1.7-0.8
				c-0.6-0.3-1.1-0.7-1.5-1.2c-0.5-0.5-0.8-1-1.1-1.7c-0.1-0.3,0-0.7,0.4-0.8c0.1,0,0.1,0,0.2,0l0,0c0.7,0,1.4-0.2,1.9-0.6
				c0.3-0.2,0.5-0.4,0.8-0.7c0.2-0.3,0.4-0.6,0.5-0.9l0,0c0.1-0.3,0.4-0.4,0.7-0.3C30.2,71.5,30.4,71.8,30.3,72.1z"/>
		</g>
		<g>
			<path class="st26" d="M31.8,79c-0.5,0.4-1.1,0.7-1.7,0.9c-0.6,0.2-1.2,0.4-1.8,0.6c-1.3,0.3-2.6,0.2-3.9-0.1l0,0l0.8-0.8
				c0.5,1,1.2,1.9,1.9,2.8c0.7,0.9,1.6,1.7,2.5,2.4c0.9,0.7,1.9,1.3,3,1.8c1,0.5,2.2,0.9,3.3,1.2l0,0c0.2,0.1,0.4,0.3,0.3,0.6
				c-0.1,0.2-0.3,0.4-0.5,0.3c-1.2-0.3-2.4-0.6-3.5-1.1c-1.1-0.5-2.2-1.1-3.2-1.8c-1-0.7-1.9-1.5-2.8-2.5c-0.8-1-1.5-2-2.1-3.2
				c-0.1-0.3,0-0.7,0.3-0.8c0.1-0.1,0.3-0.1,0.4,0l0,0l0,0c1.1,0.3,2.2,0.5,3.4,0.3c0.6-0.1,1.1-0.2,1.7-0.4
				c0.5-0.2,1.1-0.4,1.6-0.7l0,0c0.2-0.1,0.4,0,0.5,0.1C32,78.7,31.9,78.9,31.8,79z"/>
		</g>
		<g>
			<path class="st26" d="M35.8,88.6c-0.7,0.2-1.4,0.4-2.2,0.6c-0.7,0.1-1.5,0.2-2.2,0.3c-1.5,0.1-3,0-4.5-0.4l0,0l0.6-0.9
				c0.9,1.3,2.2,2.6,3.5,3.6c1.3,1.1,2.7,2,4.3,2.8c1.5,0.8,3.1,1.4,4.7,1.9c0.8,0.2,1.6,0.4,2.5,0.6l2.6,0.5
				c1.8,0.4,3.5,1.3,4.9,2.3c1.4,1,2.9,1.8,4.4,2.6c3.1,1.5,6.3,2.7,9.7,3.3c0.2,0,0.3,0.2,0.2,0.3c0,0.1-0.2,0.2-0.3,0.2
				c-3.5-0.5-6.9-1.6-10.1-3c-1.6-0.7-3.1-1.6-4.6-2.5c-1.4-1-2.9-1.7-4.5-2l-2.6-0.4c-0.9-0.2-1.7-0.4-2.6-0.6
				c-1.7-0.5-3.4-1.2-4.9-2c-3.1-1.7-6-3.9-8.1-6.9c-0.2-0.3-0.1-0.6,0.1-0.8c0.1-0.1,0.3-0.1,0.5-0.1l0,0l0,0
				c1.3,0.3,2.7,0.5,4.1,0.5c0.7,0,1.4-0.1,2.1-0.2c0.7-0.1,1.4-0.3,2-0.4l0,0c0.2-0.1,0.5,0.1,0.6,0.3
				C36.2,88.3,36.1,88.6,35.8,88.6z"/>
		</g>
		<g>
			<path class="st26" d="M54.9,102.8c0.5,0.8,0.8,1.7,0.7,2.6c0,0.5-0.1,0.9-0.3,1.4c-0.1,0.4-0.3,0.8-0.5,1.2
				c-0.6,1.5-1.2,3-1.6,4.5c-0.5,1.5-0.7,3-0.6,4.6c0.1,1.5,0.6,3,1.6,4.3c0.1,0.1,0.1,0.3-0.1,0.4c-0.1,0.1-0.3,0.1-0.4,0
				c-1.1-1.2-1.8-2.9-2.1-4.5c-0.2-1.7-0.1-3.4,0.3-5c0.4-1.6,1.1-3.1,1.7-4.6c0.2-0.4,0.3-0.7,0.5-1.1c0.1-0.3,0.2-0.7,0.2-1
				c0-0.7-0.1-1.4-0.5-2l0-0.1c-0.2-0.3-0.1-0.6,0.2-0.8C54.4,102.5,54.7,102.6,54.9,102.8z"/>
		</g>
		<g>
			<path class="st26" d="M52.8,119c-1.6,2.2-2.6,4.9-2.8,7.6c-0.1,1.3,0,2.8-0.2,4.2c-0.2,1.4-0.4,2.8-0.7,4.2
				c-0.6,2.8-1.5,5.5-2.5,8.2c-0.6,1.3-1.2,2.6-1.6,3.9c-0.4,1.3-0.8,2.6-0.9,4c-0.1,1.3,0.1,2.6,0.9,3.5c0.8,0.9,2.1,1.1,3.5,1.1
				c2.8,0.2,5.6,0.2,8.4,0.1c5.6,0,11.3-0.2,16.9-0.4c0.2,0,0.4,0.2,0.4,0.4c0,0.2-0.2,0.4-0.4,0.4c-5.6,0.3-11.3,0.6-16.9,0.7
				c-2.8,0.1-5.7,0.1-8.5,0c-1.4,0-3.1-0.2-4.3-1.4c-0.6-0.6-1-1.4-1.2-2.1c-0.2-0.8-0.2-1.6-0.2-2.3c0.3-3,1.5-5.7,2.7-8.2
				c1.1-2.6,2-5.2,2.6-7.9c0.3-1.4,0.6-2.7,0.8-4.1c0.2-1.4,0.2-2.7,0.3-4.2c0.3-2.9,1.3-5.7,3.2-8c0.1-0.1,0.3-0.2,0.5-0.1
				C52.9,118.6,53,118.8,52.8,119L52.8,119z"/>
		</g>
		<g>
			<path class="st26" d="M57.5,153c0.3,0.3,0.7,0.7,1.1,1c0.4,0.3,0.8,0.5,1.2,0.7c0.4,0.2,0.9,0.4,1.3,0.6l1.4,0.5l0,0
				c0.2,0.1,0.3,0.3,0.3,0.5c-0.1,0.2-0.2,0.3-0.3,0.3c-0.6,0.1-1.1,0-1.7-0.1c-0.6-0.1-1.1-0.3-1.6-0.6c-1-0.6-1.9-1.5-2.3-2.6
				c0-0.1,0-0.3,0.2-0.3C57.3,152.9,57.4,152.9,57.5,153L57.5,153z"/>
		</g>
		<g>
			<path class="st26" d="M63.7,28l1,1.9c0,0.1,0.1,0.2,0.1,0.3l0,0l-0.4,5l-0.4-0.7c0.7,0.2,1.3,0.4,2,0.7l2,0.7l0,0
				c0.2,0.1,0.3,0.3,0.3,0.5L68,41.2c0,0.2-0.1,0.3-0.3,0.3c-0.1,0-0.3-0.1-0.3-0.3l-0.2-4.8l0.4,0.5l-2-0.5c-0.7-0.2-1.4-0.4-2-0.6
				l0,0c-0.3-0.1-0.5-0.4-0.4-0.7l0.6-5l0.1,0.3l-0.9-1.9c-0.1-0.3,0-0.6,0.3-0.7C63.2,27.6,63.5,27.7,63.7,28z"/>
		</g>
		<polygon class="st26" points="65,27.6 65.4,29.8 65.4,35.7 63.7,35.1 64.2,30.2 63.2,28.2 		"/>
		<g>
			<path class="st26" d="M90.4,21.9c1.8,0.6,3.6,1.1,5.4,1.6c0.9,0.3,1.8,0.5,2.7,0.7c0.5,0.1,0.9,0.2,1.3,0.3
				c0.2,0,0.5,0.1,0.7,0.2c0.3,0.1,0.5,0.2,0.7,0.3c1.8,0.9,3.3,2.1,4.8,3.3c1.5,1.2,2.9,2.4,4.5,3.4c0.8,0.5,1.6,0.9,2.4,1.2
				c0.9,0.3,1.8,0.5,2.7,0.8c1.8,0.4,3.7,0.8,5.5,1.4c1.8,0.6,3.7,1.2,5.3,2.5c0.4,0.3,0.8,0.7,1.1,1.1c0.3,0.4,0.6,0.8,0.8,1.2
				c0.5,0.8,1,1.6,1.5,2.4c1.9,3.3,3.7,6.6,5.4,9.9c0.9,1.7,1.7,3.4,2.5,5.1c0.4,0.9,0.8,1.7,1.1,2.6c0.2,0.5,0.3,0.9,0.4,1.5
				c0.1,0.5,0.1,0.9,0.2,1.4c0.2,1.9,0.3,3.8,0.5,5.6c0.1,0.9,0.2,1.9,0.3,2.7c0.1,0.4,0.3,0.8,0.4,1.3c0.2,0.5,0.3,1,0.3,1.5
				c0.1,1-0.1,2.1-0.6,3c-0.5,0.9-1.2,1.6-2,2.2c-1.6,1.2-3.4,1.8-5.2,2.4c-0.2,0.1-0.4-0.1-0.4-0.2c-0.1-0.2,0-0.4,0.2-0.4l0,0
				c1.8-0.5,3.5-1.2,5-2.3c0.7-0.5,1.4-1.2,1.7-2c0.4-0.8,0.5-1.6,0.4-2.5c0-0.4-0.2-0.9-0.3-1.3c-0.1-0.4-0.4-0.8-0.5-1.4
				c-0.2-1-0.3-1.9-0.4-2.9c-0.2-1.9-0.4-3.7-0.6-5.6l-0.2-1.4c-0.1-0.4-0.2-0.8-0.4-1.3c-0.3-0.9-0.7-1.7-1.1-2.5
				c-0.8-1.7-1.7-3.4-2.5-5c-1.8-3.3-3.6-6.6-5.5-9.8c-0.5-0.8-1-1.6-1.5-2.4c-0.3-0.4-0.5-0.8-0.8-1.1c-0.3-0.4-0.5-0.7-0.8-0.9
				c-1.3-1.1-3.1-1.8-4.8-2.3c-1.8-0.5-3.6-0.9-5.4-1.4c-0.9-0.2-1.8-0.5-2.8-0.8c-1-0.3-1.8-0.8-2.6-1.4c-1.6-1.1-3.1-2.3-4.5-3.5
				c-1.5-1.2-2.9-2.4-4.5-3.1c-0.2-0.1-0.4-0.2-0.6-0.2c-0.2-0.1-0.4-0.1-0.6-0.1c-0.5-0.1-0.9-0.2-1.4-0.3
				c-0.9-0.2-1.8-0.5-2.8-0.7c-1.8-0.5-3.6-1.1-5.4-1.7c-0.3-0.1-0.4-0.4-0.3-0.7C89.8,22,90.1,21.8,90.4,21.9z"/>
		</g>
		<g>
			<path class="st26" d="M139.1,78.2c0.6,1.4,0.9,2.9,1,4.5c0,1.5-0.3,3.1-1.1,4.5c-0.2,0.4-0.5,0.7-0.7,1c-0.3,0.3-0.5,0.6-0.9,0.8
				c-0.7,0.5-1.5,0.8-2.3,0.9c-1.6,0.2-3.1-0.1-4.5-0.6c-0.1-0.1-0.2-0.2-0.2-0.4c0-0.1,0.2-0.2,0.3-0.2l0,0
				c1.4,0.4,2.8,0.5,4.2,0.2c0.7-0.1,1.3-0.4,1.7-0.8c0.4-0.4,0.9-1,1.2-1.6c1.5-2.3,1.4-5.4,0.5-8l0,0c-0.1-0.2,0-0.5,0.3-0.5
				C138.8,77.9,139.1,78,139.1,78.2z"/>
		</g>
		<g>
			<path class="st26" d="M134.7,89.4c0.2,1.5-0.1,2.9-0.7,4.3c-0.3,0.6-0.7,1.3-1.1,1.8c-0.4,0.6-0.9,1.1-1.4,1.6
				c-2.1,1.9-4.6,3.2-7.2,4.3c-2.6,0.9-5.3,1.5-8,2c-1.4,0.2-2.7,0.5-4.1,0.6l-4.1,0.4c-0.2,0-0.3-0.1-0.3-0.3
				c0-0.1,0.1-0.3,0.2-0.3l0,0l4-0.6c1.3-0.2,2.7-0.5,4-0.7c2.6-0.5,5.2-1.3,7.7-2.3c2.5-1,4.9-2.1,6.9-3.8c0.5-0.4,1-0.9,1.4-1.4
				c0.4-0.5,0.7-1.1,1.1-1.6c0.6-1.1,0.9-2.5,0.8-3.7l0-0.1c0-0.2,0.1-0.4,0.4-0.5C134.4,89,134.6,89.2,134.7,89.4z"/>
		</g>
		<g>
			<path class="st26" d="M116.3,103c-0.5,1.9-0.8,3.9-0.8,5.8c0,1,0.1,1.9,0.4,2.8c0.2,0.9,0.7,1.7,1.2,2.6c0.9,1.7,2,3.6,2.1,5.8
				c0.1,2.1-0.6,4.2-1.6,5.9c-0.1,0.1-0.2,0.2-0.4,0.1c-0.1-0.1-0.2-0.2-0.1-0.4c0.9-1.8,1.4-3.7,1.2-5.6c-0.2-1.9-1.3-3.5-2.3-5.2
				c-0.5-0.9-1-1.8-1.3-2.9c-0.3-1-0.3-2.1-0.3-3.1c0.1-2.1,0.5-4.1,1.1-6c0.1-0.2,0.3-0.3,0.5-0.3
				C116.3,102.5,116.4,102.7,116.3,103L116.3,103z"/>
		</g>
		<g>
			<path class="st26" d="M119.2,120.6c1.1,3.8,2,7.6,2.7,11.4c0.7,3.8,1.3,7.7,1.6,11.6c0.1,1.9,0.3,3.9,0.3,5.8c0,1,0.1,2,0,3
				c-0.1,1-0.2,2.1-0.8,3c-0.3,0.5-0.8,0.9-1.3,1.1c-0.5,0.2-1.1,0.3-1.6,0.3c-1,0-2,0-3-0.1c-2-0.3-3.9-0.7-5.7-1.5
				c-0.1-0.1-0.2-0.2-0.2-0.4c0.1-0.1,0.2-0.2,0.3-0.2l0,0c1.8,0.6,3.7,1,5.6,1.2c0.9,0.1,1.9,0.1,2.8,0c0.9-0.1,1.7-0.4,2.1-1
				c0.4-0.7,0.5-1.7,0.5-2.6c0-0.9,0-1.9-0.1-2.9c-0.1-1.9-0.4-3.9-0.5-5.8c-0.2-3.9-0.6-7.7-1.3-11.5c-0.6-3.8-1.4-7.6-2.4-11.3
				l0,0c-0.1-0.2,0.1-0.4,0.3-0.5C118.9,120.2,119.2,120.3,119.2,120.6z"/>
		</g>
		<g>
			<path class="st26" d="M95.9,155.5c3.1,0.1,6.2,0.1,9.3-0.2c1.5-0.1,3.1-0.2,4.6-0.5c1.5-0.3,3-0.8,3.9-1.9l0,0
				c0.1-0.1,0.3-0.1,0.4,0c0.1,0.1,0.1,0.2,0.1,0.4c-0.5,0.7-1.2,1.2-1.9,1.6c-0.7,0.4-1.5,0.7-2.3,0.9c-1.5,0.4-3.1,0.7-4.7,0.9
				c-3.2,0.2-6.3,0-9.5-0.3c-0.2,0-0.4-0.2-0.4-0.5C95.4,155.6,95.6,155.5,95.9,155.5L95.9,155.5z"/>
		</g>
		<g>
			<path class="st26" d="M68.6,139.2c-0.2,1.2-0.2,2.5-0.1,3.7c0.1,1.2,0.4,2.4,1.1,3.4c1.4,2.2,2.6,4.5,3.7,6.8
				c0.6,1.2,1.1,2.4,1.6,3.5c0.5,1.1,1.1,2.2,1.9,3c0.4,0.4,0.9,0.6,1.4,0.7c0.2,0,0.5,0,0.8,0c0.3,0,0.5-0.1,0.7-0.2
				c0.8-0.5,1.3-1.7,1.8-2.8c0.8-2.3,1.2-4.9,1.6-7.4c0.4-2.5,0.6-5.1,0.8-7.6c0.4-5.1,0.6-10.2,0.8-15.3c0-0.2,0.1-0.3,0.3-0.3
				c0.2,0,0.3,0.1,0.3,0.3c0,5.1-0.1,10.2-0.4,15.4c-0.1,2.6-0.3,5.1-0.6,7.7c-0.3,2.6-0.7,5.1-1.5,7.7c-0.2,0.6-0.5,1.3-0.8,1.9
				c-0.4,0.6-0.8,1.2-1.5,1.6c-0.3,0.2-0.8,0.3-1.1,0.4c-0.4,0-0.8,0.1-1.1,0c-0.8-0.1-1.5-0.5-2-1c-1.1-1-1.7-2.2-2.2-3.4
				c-0.5-1.2-1-2.4-1.5-3.5c-1-2.3-2.2-4.6-3.5-6.7c-0.2-0.2-0.3-0.6-0.5-0.9c-0.1-0.3-0.3-0.6-0.3-1c-0.2-0.7-0.3-1.3-0.3-2
				c0-1.3,0.1-2.6,0.4-3.9c0-0.1,0.2-0.2,0.3-0.2C68.5,139,68.6,139.1,68.6,139.2L68.6,139.2z"/>
		</g>
		<g>
			<path class="st26" d="M85.3,127c0,4,0.1,8,0.3,12c0.2,4,0.5,8,1.2,11.9c0.3,2,0.6,3.9,1.2,5.8c0.3,0.9,0.6,1.8,1.1,2.6
				c0.5,0.8,1.2,1.3,2,1.1c0.8-0.2,1.6-0.8,2.2-1.5c0.6-0.7,1.2-1.5,1.7-2.4c1-1.7,1.7-3.6,2.4-5.5l0,0c0-0.1,0.2-0.2,0.4-0.2
				c0.1,0,0.2,0.2,0.2,0.3c-0.6,1.9-1.3,3.8-2.2,5.7c-0.5,0.9-1,1.8-1.7,2.6c-0.7,0.8-1.5,1.6-2.7,1.9c-0.6,0.1-1.3,0.1-1.8-0.2
				c-0.5-0.3-0.9-0.7-1.3-1.2c-0.6-0.9-1-1.9-1.4-2.8c-0.7-2-1.1-4-1.4-6c-0.6-4-0.8-8-0.9-12.1c-0.1-4-0.2-8-0.1-12.1
				c0-0.2,0.2-0.4,0.4-0.4C85.1,126.5,85.3,126.7,85.3,127L85.3,127z"/>
		</g>
		<g>
			<path class="st26" d="M96.7,150.8c0.6-0.1,1.2-0.4,1.7-0.7c0.5-0.4,0.7-0.8,0.8-1.4c0-0.6-0.1-1.2-0.2-1.9
				c-0.2-0.6-0.4-1.3-0.6-1.9l0,0c-0.1-0.1,0-0.3,0.2-0.4c0.1-0.1,0.3,0,0.3,0.1c0.3,0.6,0.6,1.3,0.9,1.9c0.2,0.7,0.4,1.4,0.4,2.2
				c0,0.8-0.5,1.6-1.1,2.1c-0.6,0.5-1.3,0.7-2.1,0.8c-0.2,0-0.4-0.1-0.5-0.4C96.4,151.1,96.5,150.9,96.7,150.8L96.7,150.8z"/>
		</g>
		<g>
			<path class="st26" d="M99.2,147.2c0.5-0.6,0.9-1.3,1.2-2c0.3-0.7,0.5-1.4,0.4-2.2c-0.2-1.7,0-3.5,0.9-5c0.1-0.1,0.2-0.2,0.4-0.1
				c0.1,0.1,0.2,0.2,0.1,0.3c-0.6,1.5-0.7,3.1-0.4,4.7c0.1,0.9-0.1,1.9-0.5,2.7c-0.4,0.8-0.9,1.5-1.5,2.2c-0.2,0.2-0.4,0.2-0.6,0
				C99.1,147.7,99.1,147.4,99.2,147.2L99.2,147.2z"/>
		</g>
		<polygon class="st26" points="94.4,24.2 96,26.5 93.6,31.6 94.1,26.6 90.2,24.7 90.2,22.4 		"/>
		<line class="st86" x1="82.6" y1="155.8" x2="87.1" y2="155.8"/>
		<g>
			<path class="st26" d="M124.7,57.6c0.1,0.6,0.2,1.3,0.3,2c0.1,0.7,0.1,1.4,0,2.1c-0.1,1.4-0.4,2.8-1,4.1c-0.3,0.7-0.8,1.2-1.2,1.8
				c-0.5,0.5-1,1.1-1.6,1.5c-1.1,0.9-2.4,1.5-3.7,2c-0.2,0.1-0.4,0-0.5-0.2c-0.1-0.2,0-0.4,0.2-0.5l0,0c1.2-0.6,2.3-1.2,3.3-2.1
				c0.5-0.4,0.9-0.9,1.3-1.4c0.3-0.5,0.7-1.1,0.9-1.7c0.6-1.1,1-2.4,1.1-3.6c0.1-0.6,0.1-1.3,0.1-2c0-0.7-0.1-1.3-0.1-2
				c0-0.2,0.1-0.4,0.3-0.4C124.4,57.2,124.6,57.4,124.7,57.6L124.7,57.6z"/>
		</g>
		<g>
			<path class="st26" d="M44.7,64.4c-0.3,0.9-0.5,1.9-0.6,2.9c-0.1,1-0.3,1.9-0.2,2.9c0,1,0,1.9,0.2,2.9c0.1,1,0.4,1.9,0.7,2.8l0,0
				c0,0.2,0,0.3-0.2,0.4c-0.1,0-0.3,0-0.4-0.2c-0.5-0.9-0.9-1.9-1.1-2.9c-0.2-1-0.3-2.1-0.3-3.1c0.1-2.1,0.5-4.1,1.4-6
				c0.1-0.2,0.3-0.2,0.4-0.1C44.6,64,44.7,64.2,44.7,64.4L44.7,64.4z"/>
		</g>
		<g>
			<g>
				<path class="st26" d="M57.5,43.9c-2.9-1.1-5.5-2.7-8-4.3c-2.5-1.7-4.9-3.6-7.1-5.7c-4.4-4.1-8.2-9-11-14.3
					c2.9,5.3,6.7,10.1,11.2,14.1c2.2,2,4.6,3.9,7.2,5.5c2.5,1.6,5.2,3.1,8,4.1l0,0c0.2,0.1,0.2,0.2,0.2,0.4
					C57.8,43.9,57.6,44,57.5,43.9C57.5,43.9,57.5,43.9,57.5,43.9z"/>
			</g>
			<g>
				<path class="st26" d="M61.8,44c-2.2-1.1-4.2-2.5-6-4.1c-1.8-1.6-3.4-3.5-4.7-5.6c-0.3-0.5-0.6-1-0.9-1.6
					c-0.3-0.5-0.6-1.1-0.8-1.6c-0.4-1.1-0.9-2.3-1.1-3.4c-0.4-1.2-0.5-2.4-0.6-3.6c-0.1-0.6-0.1-1.2-0.1-1.8l0-1.8l0.1,1.8
					c0,0.6,0,1.2,0.2,1.8c0.2,1.2,0.3,2.4,0.7,3.5c0.3,1.2,0.8,2.3,1.2,3.4c0.2,0.6,0.5,1.1,0.8,1.6c0.3,0.5,0.6,1,0.9,1.5
					c1.3,2,2.9,3.8,4.7,5.4c1.8,1.5,3.8,2.9,6,3.9l0,0c0.2,0.1,0.2,0.3,0.2,0.4C62.1,44,61.9,44.1,61.8,44C61.8,44,61.8,44,61.8,44z
					"/>
			</g>
			<g>
				<path class="st26" d="M61.7,41.4c-1.5-0.9-2.7-2.1-3.7-3.4c-1-1.3-1.8-2.8-2.3-4.4c-0.2-0.4-0.2-0.8-0.3-1.2
					c-0.1-0.4-0.2-0.8-0.2-1.2c-0.1-0.4-0.1-0.8-0.2-1.2l0-1.2l0-0.6l0-0.6l0.1-1.2c0.1-0.8,0.3-1.6,0.4-2.4
					c-0.1,0.8-0.3,1.6-0.3,2.4l-0.1,1.2l0,0.6l0,0.6l0.1,1.2c0.1,0.4,0.1,0.8,0.2,1.2c0.1,0.4,0.2,0.8,0.3,1.2
					c0.1,0.4,0.2,0.8,0.4,1.2c0.5,1.5,1.4,3,2.4,4.2c1,1.2,2.3,2.4,3.6,3.1l0,0c0.2,0.1,0.2,0.3,0.1,0.4
					C62.1,41.5,61.9,41.5,61.7,41.4C61.8,41.4,61.8,41.4,61.7,41.4z"/>
			</g>
		</g>
		<path class="st24" d="M52.6,119.1l1.4,2.3c0,0-1.2,2.3-0.5,7.2c0.8,5,0.6,10-2.6,13.5c-3.2,3.5-5.1,12.7-2.1,12.4
			c3.1-0.3,7.4,2.4,8.4-1.4c0,0,11.8,1.6,11.3-7.7l5.2,10.2l-17.5,0.7c0,0-12.6,0.8-12.7-2.9s0.5-7,1.3-8.4
			c0.8-1.4,4.2-10.1,4.4-13.6C49.5,127.9,50.1,119.8,52.6,119.1z"/>
		<polygon class="st24" points="84.8,140.5 82.7,155.8 87.1,155.8 		"/>
		<path class="st24" d="M101.3,143c0,0,6.5,13.7,12.5,10c0,0,8.4,5.3,9.4-5.5c0,0,1.9,7.9-2.5,8.8c-4.4,0.9-9-1.4-9-1.4
			s-9.3,2.1-15.8,1l1.7-4.7c0,0,1.5-1,1.8-1.5c0.3-0.6,0.1-2.6,0.1-2.6l1.3-1.4L101.3,143z"/>
		<path class="st24" d="M64.2,106c0,0-6.9-0.1-8.2,2.7s0.1,4.4-0.8,7s-1.7,2.5-1.2,5.7c0,0-3.4-3.4-1.3-9.2s2.6-7.7,1.8-9.1
			C54.6,103.2,61.5,105.9,64.2,106z"/>
		<path class="st24" d="M108,104c0,0,4.7,0,4.8,5c0.1,5,5.8,10.3,4.6,16.2c0,0,2.8-4.4-0.1-9.5c-2.9-5.1-3.1-7.8-1.5-12.9L108,104z"
			/>
		<path class="st24" d="M117.5,125.2c0,0,2.2,1.9,2.2,5.9s3.5,18.6,3.5,18.6s-1.3-18.4-2.9-22.8c-1.5-4.3-1.3-6.3-1.3-6.3
			L117.5,125.2z"/>
		<path class="st26" d="M74.3,156.8c0,0,2.8-2.4,8.4-0.8c0,0-0.5,3.9-3.1,4.9C76.9,161.8,74.3,156.8,74.3,156.8z"/>
		<path class="st26" d="M95.4,156.8c0,0-2.8-2.4-8.4-0.8c0,0,0.5,3.9,3.1,4.9C92.7,161.8,95.4,156.8,95.4,156.8z"/>
		<g>
			<g>
				<path class="st30" d="M55.3,58.1c-6.3,1.3-9.1,7-7.8,13.3c0.2,1.1,0.6,2.1,1.1,3.1c0.4,0,0.7,0.1,1.1,0.2
					c0.3,0.1,0.6,0.2,0.9,0.4c1.6,0.4,4.4,0.9,8,0.3c5-0.8,10.3-1.8,11.1-2.1c0,0,0,0,0,0c0,0,0,0,0,0c0.8-2,1-4.3,0.6-6.6
					C69.1,60.4,61.6,56.8,55.3,58.1z"/>
				<path class="st87" d="M69.8,73.3c0.5-1.4,0.6-2.9,0.3-4.4c-0.9-4.4-5.2-7.2-9.5-6.3s-7.2,5.2-6.3,9.5c0.3,1.5,1,2.8,2,3.8
					C60.8,75.5,65.2,73.9,69.8,73.3z"/>
				<g>
					<path class="st26" d="M67.7,73.8c0.7-1.2,1-2.7,0.7-4.2c-0.6-3.1-3.7-5.2-6.8-4.5c-3.1,0.6-5.2,3.7-4.5,6.8
						c0.3,1.5,1.2,2.8,2.4,3.6C62.3,75,65,74.5,67.7,73.8z"/>
					<path class="st88" d="M48.5,74.3c0,0,4.6,3.8,21.1-1"/>
					<ellipse transform="matrix(0.9798 -0.1998 0.1998 0.9798 -11.6152 13.642)" class="st30" cx="61.8" cy="64.4" rx="3" ry="3"/>
					<path class="st89" d="M47.5,71.4c-1.3-6.3,1.5-12,7.8-13.3c6.3-1.3,13.7,2.3,15,8.6c1.3,6.3-2.8,12.5-9.1,13.8
						S48.8,77.7,47.5,71.4z"/>
					<path class="st90" d="M49.4,57.6c14.1,1.9,17.2,2.2,17.2,2.2"/>
				</g>
			</g>
			<g>
				<path class="st30" d="M115.9,62.2c0.4-0.5,0.9-1,1.5-1.4c0.1-1.3,0-2.6-0.3-3.9c-1.6-7.8-7.5-12.9-15.3-11.3
					s-14.5,9.3-12.9,17.1c0.6,2.8,1.9,5.3,3.8,7.2c0,0,0,0,0,0c0,0,0,0,0,0c1.1-0.2,7.6-1.5,13.7-3
					C111.2,65.6,114.4,63.4,115.9,62.2z"/>
				<path class="st87" d="M92.7,69.8c-1.2-1.3-2.1-2.9-2.5-4.8c-1.1-5.4,2.4-10.7,7.8-11.8c5.4-1.1,10.7,2.4,11.8,7.8
					c0.4,1.8,0.2,3.7-0.4,5.3C104,68,98.2,68.2,92.7,69.8z"/>
				<g>
					<path class="st26" d="M95.3,69.4c-1.4-1-2.5-2.6-2.9-4.4c-0.8-3.9,1.7-7.6,5.6-8.4c3.9-0.8,7.6,1.7,8.4,5.6
						c0.4,1.9,0,3.8-1,5.3C102.1,68.1,98.7,68.9,95.3,69.4z"/>
					<path class="st91" d="M117.4,60.7c0,0-3.4,6.5-24.5,9.1"/>
					
						<ellipse transform="matrix(0.9798 -0.1998 0.1998 0.9798 -9.1807 20.6097)" class="st30" cx="97.5" cy="55.8" rx="3.8" ry="3.8"/>
					<path class="st92" d="M117.1,56.9c-1.6-7.8-7.5-12.9-15.3-11.3c-7.8,1.6-14.5,9.3-12.9,17.1s9.2,12.8,17,11.2
						C113.7,72.3,118.7,64.7,117.1,56.9z"/>
					<path class="st93" d="M108.3,42.1C93.2,51,89.8,52.9,89.8,52.9"/>
				</g>
			</g>
			<g>
				<g>
					<g>
						<path class="st26" d="M92.8,83.1c2.6-1.3,5.4-2.2,8.3-2.8c2.9-0.6,5.8-0.9,8.7-0.9c0.7,0,1.5,0,2.2,0c0.7,0,1.5,0,2.2,0.1
							l2.2,0.2l2.2,0.4c1.4,0.2,2.8,0.6,4.3,0.9c1.4,0.4,2.8,0.9,4.2,1.3c-1.4-0.4-2.8-0.9-4.2-1.2c-1.4-0.3-2.8-0.7-4.3-0.9
							l-2.1-0.3l-2.2-0.2c-0.7-0.1-1.4-0.1-2.2-0.1c-0.7,0-1.4,0-2.2,0c-2.9,0.1-5.8,0.5-8.6,1.1c-2.8,0.6-5.6,1.6-8.1,2.9l0,0
							c-0.2,0.1-0.4,0-0.4-0.1C92.5,83.4,92.6,83.2,92.8,83.1C92.8,83.1,92.8,83.1,92.8,83.1z"/>
					</g>
					<g>
						<path class="st26" d="M94.8,84.3c1.7-0.4,3.3-0.5,5-0.3c1.7,0.2,3.3,0.6,4.8,1.2c1.5,0.7,3,1.5,4.2,2.5
							c0.7,0.5,1.2,1.1,1.9,1.6c0.6,0.6,1.1,1.2,1.7,1.8c-0.6-0.6-1.1-1.2-1.7-1.7c-0.6-0.5-1.2-1.1-1.9-1.5c-1.3-1-2.8-1.7-4.3-2.4
							c-1.5-0.6-3.1-0.9-4.7-1c-1.6-0.1-3.3,0-4.8,0.5l0,0c-0.2,0.1-0.3,0-0.4-0.2S94.6,84.3,94.8,84.3
							C94.8,84.3,94.8,84.3,94.8,84.3z"/>
					</g>
					<g>
						<path class="st26" d="M93.5,79.9c2.8-1.1,5.7-1.9,8.7-2.6c2.9-0.7,5.9-1.2,8.9-1.5c3-0.3,6-0.4,9-0.3c3,0.1,6,0.6,8.9,1.3
							c-2.9-0.6-5.9-1.1-8.9-1.1c-3-0.1-6,0-9,0.4c-3,0.4-5.9,0.9-8.8,1.7c-2.9,0.7-5.8,1.6-8.5,2.7l0,0c-0.2,0.1-0.4,0-0.4-0.2
							C93.3,80.2,93.4,80,93.5,79.9C93.5,79.9,93.5,79.9,93.5,79.9z"/>
					</g>
					<g>
						<path class="st26" d="M73.4,82.5c-2.8-0.4-5.8-0.5-8.7-0.3c-2.9,0.2-5.8,0.6-8.6,1.2c-5.7,1.3-11.2,3.5-16.1,6.6
							c4.9-3.2,10.4-5.5,16.1-6.9c2.8-0.7,5.8-1.2,8.7-1.4c2.9-0.2,5.9-0.3,8.8,0.1c0.2,0,0.3,0.2,0.3,0.4S73.6,82.6,73.4,82.5
							C73.4,82.5,73.4,82.5,73.4,82.5L73.4,82.5z"/>
					</g>
					<g>
						<path class="st26" d="M77.1,84.5c-2.3-0.2-4.6,0-6.9,0.4c-2.3,0.5-4.5,1.2-6.5,2.3c-0.5,0.3-1,0.5-1.5,0.9
							c-0.5,0.3-1,0.6-1.4,1c-0.9,0.7-1.8,1.4-2.6,2.3c-0.9,0.8-1.6,1.7-2.3,2.6c-0.7,0.9-1.3,2-1.9,2.9c0.6-1,1.1-2,1.8-3
							c0.7-0.9,1.4-1.9,2.2-2.7c0.8-0.9,1.7-1.6,2.6-2.4c0.5-0.4,1-0.7,1.4-1c0.5-0.3,1-0.6,1.5-0.9c2.1-1.1,4.3-2,6.6-2.5
							c2.3-0.5,4.7-0.8,7.1-0.6c0.2,0,0.3,0.2,0.3,0.3C77.5,84.4,77.3,84.5,77.1,84.5C77.1,84.5,77.1,84.5,77.1,84.5L77.1,84.5z"/>
					</g>
					<g>
						<path class="st26" d="M75.9,86.7c-1.5,0-3.1,0.4-4.6,0.9c-1.5,0.6-2.8,1.4-4,2.4c-0.3,0.2-0.6,0.5-0.9,0.8
							c-0.3,0.3-0.6,0.6-0.8,0.9c-0.2,0.3-0.5,0.6-0.7,0.9l-0.6,1c-0.2,0.3-0.4,0.7-0.6,1l-0.5,1.1c-0.3,0.7-0.6,1.5-0.9,2.2
							c0.3-0.8,0.5-1.5,0.8-2.3l0.5-1.1c0.2-0.4,0.3-0.7,0.6-1.1l0.6-1c0.2-0.3,0.5-0.6,0.7-1c0.2-0.3,0.5-0.6,0.8-0.9
							c0.3-0.3,0.5-0.6,0.9-0.9c1.2-1.1,2.6-2,4.1-2.6c1.5-0.6,3.1-1.1,4.7-1.1c0.2,0,0.3,0.1,0.3,0.3
							C76.3,86.5,76.1,86.7,75.9,86.7C76,86.7,76,86.7,75.9,86.7L75.9,86.7z"/>
					</g>
					<g>
						<g>
							<path class="st26" d="M84.4,81.2c0.1,0.9-0.2,1.7-0.5,2.5c-0.3,0.8-0.6,1.6-1,2.4c-0.8,1.5-1.9,2.9-3.3,3.9
								c-1.4,1-3.2,1.6-4.9,1.5c-1.8,0-3.4-0.6-4.9-1.4c-0.1-0.1-0.1-0.2-0.1-0.3c0-0.1,0.2-0.1,0.3-0.1c1.5,0.7,3.1,1.2,4.8,1.2
								c1.6,0,3.3-0.5,4.6-1.4c1.4-0.9,2.4-2.3,3.3-3.7c0.4-0.7,0.8-1.5,1.1-2.3C84,82.8,84.4,82,84.4,81.2
								C84.3,81.1,84.4,81.1,84.4,81.2C84.4,81.1,84.4,81.1,84.4,81.2z"/>
						</g>
						<g>
							<path class="st26" d="M84.9,81.7c1,1.3,2.1,2.5,3.3,3.5c1.2,1,2.6,1.9,4,2.5c1.5,0.5,3.1,0.7,4.6,0.3
								c1.5-0.3,2.9-1.2,4.1-2.2c0.1-0.1,0.2-0.1,0.3,0c0.1,0.1,0.1,0.2,0,0.3c-1.2,1.1-2.6,2-4.3,2.4c-1.6,0.4-3.4,0.2-4.9-0.4
								c-1.5-0.6-2.9-1.6-4.1-2.7C86.8,84.3,85.7,83.1,84.9,81.7z"/>
						</g>
						<path class="st26" d="M79.5,78c0,0.6,0.3,1.1,0.8,1.4c0.7,0.4,1.5,0.5,2.3,0.4c1.2-0.1,1.4,0.5,1.7,1.6c0.1,0.3,0.9,0,0.9-0.1
							c0-2.1,1.9-2,3-2.8c1.4-1,1-2.5-0.4-3C85.8,74.8,79.6,75,79.5,78z"/>
						<path class="st26" d="M76.6,90.9c0,0,2.8,2.6,5.3,2.4c2.2-0.2,2.9-2.2,4-2.3c2.1-0.3,3,1.4,5.2,1.2c2.3-0.1,3.8-3.7,3.8-3.7
							s-3.7-0.6-6.6-2.9c-1.3-1-2.9-3.3-3-4.3c0,0-1.1-1.2-0.9,0.1C84.6,82.5,81.6,88.9,76.6,90.9z"/>
						<g>
							<path class="st30" d="M79.4,92.6c0,0,0.5-2.3,0.7-2.2c0.2,0.1,1.1,2.9,1.1,2.9S80.5,93.3,79.4,92.6z"/>
							<path class="st26" d="M79.3,92.8l0-0.2c0-0.5,0.1-0.9,0.2-1.4c0-0.2,0.1-0.5,0.2-0.7c0-0.1,0-0.1,0.1-0.2c0,0,0-0.1,0.1-0.1
								c0,0,0.2-0.1,0.2,0c0.1,0,0.1,0.1,0.1,0.1c0.1,0.1,0.1,0.2,0.2,0.3c0.4,0.9,0.7,1.7,1,2.6l0,0c0,0.1,0,0.3-0.2,0.3
								c0,0-0.1,0-0.1,0c-0.2,0-0.4-0.1-0.6-0.1c-0.2-0.1-0.3-0.1-0.5-0.2c-0.2-0.1-0.3-0.2-0.4-0.2l-0.2-0.1
								C79.4,92.9,79.4,92.8,79.3,92.8z M79.4,92.5l0.2,0c0.1,0,0.1,0,0.1,0l0.2,0.1c0.1,0.1,0.3,0.1,0.4,0.2
								c0.1,0.1,0.3,0.1,0.4,0.1c0.1,0,0.3,0.1,0.4,0.1l-0.2,0.3c-0.3-0.9-0.6-1.7-0.9-2.6c0-0.1-0.1-0.2-0.1-0.3c0,0,0,0,0,0
								c0,0,0.2,0,0.2,0c0,0,0,0,0,0c0,0,0,0.1-0.1,0.1c-0.1,0.2-0.2,0.4-0.2,0.6L79.4,92.5z"/>
						</g>
						<path class="st53" d="M91,92.2c-0.3-0.8-1.3-3.1-2.6-3.5c-1.4-0.4-2.9,0.8-2.9,0.8c-3.6-2.2-4.4,3.8-4.4,3.8l0,0
							c0.2,0,0.5,0,0.7,0c2.2-0.2,2.9-2.2,4-2.3C87.9,90.7,88.8,92.3,91,92.2z"/>
						<path class="st94" d="M76.8,91c0.7,0.6,3.1,2.5,5.1,2.3c2.2-0.2,2.9-2.2,4-2.3c2.1-0.3,3,1.4,5.2,1.2c2.3-0.1,3.8-3.7,3.8-3.7
							"/>
					</g>
				</g>
				<g>
					<path class="st26" d="M82.1,96.9c0.8,0.3,1.6,0.6,2.4,0.7c0.8,0.1,1.7,0.2,2.5,0c0.8-0.1,1.6-0.4,2.3-0.8
						c0.7-0.4,1.4-0.9,2.1-1.4l0,0c0.1-0.1,0.2,0,0.2,0c0.1,0.1,0,0.2,0,0.2c-0.3,0.3-0.6,0.6-0.9,0.9c-0.4,0.3-0.7,0.6-1.1,0.8
						c-0.8,0.5-1.7,0.7-2.5,0.9c-1.8,0.2-3.6-0.2-5.1-1.3c0,0-0.1-0.1,0-0.1C82,96.9,82,96.9,82.1,96.9L82.1,96.9z"/>
				</g>
			</g>
		</g>
	</g>
</g>
<g id="mask" class="st0">
</g>
</svg>
