<?xml version="1.0" encoding="utf-8"?>
<!-- Generator: Adobe Illustrator 21.0.0, SVG Export Plug-In . SVG Version: 6.00 Build 0)  -->
<svg version="1.1" xmlns="http://www.w3.org/2000/svg" xmlns:xlink="http://www.w3.org/1999/xlink" x="0px" y="0px"
	 viewBox="0 0 176.8 172.4" style="enable-background:new 0 0 176.8 172.4;" xml:space="preserve">
<style type="text/css">
	.st0{display:none;}
	.st1{display:inline;fill:#FD9994;}
	.st2{display:inline;fill:#FFFFFF;}
	.st3{display:inline;fill:none;stroke:#FFFFFF;stroke-width:2.2363;stroke-miterlimit:10;}
	.st4{display:inline;}
	.st5{fill:none;stroke:#FFFFFF;stroke-width:2.2363;stroke-miterlimit:10;}
	.st6{fill:#FFB380;}
	.st7{fill:#D2C3DB;}
	.st8{fill:#F9ECDC;}
	.st9{fill:#FFF58B;}
	.st10{fill:#F6BC60;}
	.st11{fill:#ECF784;}
	.st12{fill:#FFDEFF;}
	.st13{fill:#AED5D2;}
	.st14{fill:#F4BD9F;}
	.st15{fill:#B9DCFF;}
	.st16{fill:#D7FFFB;}
	.st17{fill:#81D8F7;}
	.st18{fill:#E57777;}
	.st19{fill:#D9FFDB;}
	.st20{opacity:0.1;}
	.st21{fill:#5CCDFF;}
	.st22{fill:none;}
	.st23{opacity:0.2;fill:#FFFFFF;}
	.st24{opacity:0.1;fill:#002CBF;}
	.st25{fill:#1A1A1A;}
	.st26{fill:#333333;}
	.st27{fill:#FFFFDE;}
	.st28{clip-path:url(#SVGID_4_);}
	.st29{fill:none;stroke:#333333;stroke-width:0.4917;stroke-linecap:round;stroke-linejoin:round;stroke-miterlimit:10;}
	.st30{fill:#FFFFFF;}
	.st31{fill:none;stroke:#333333;stroke-width:0.8543;stroke-miterlimit:10;}
	.st32{clip-path:url(#SVGID_6_);}
	.st33{fill:#FFD7B9;}
	.st34{fill:#F0FFFF;}
	.st35{clip-path:url(#SVGID_8_);}
	.st36{fill:#FF5C5C;}
	.st37{fill:none;stroke:#333333;stroke-width:0.466;stroke-linecap:round;stroke-linejoin:round;stroke-miterlimit:10;}
	.st38{fill:none;stroke:#333333;stroke-width:0.8095;stroke-miterlimit:10;}
	.st39{clip-path:url(#SVGID_10_);}
	.st40{fill:none;stroke:#333333;stroke-width:0.7381;stroke-linecap:round;stroke-linejoin:round;stroke-miterlimit:10;}
	.st41{fill:none;stroke:#333333;stroke-width:0.8857;stroke-linecap:round;stroke-linejoin:round;stroke-miterlimit:10;}
	.st42{fill:none;stroke:#333333;stroke-width:2.6852;stroke-linecap:round;stroke-linejoin:round;stroke-miterlimit:10;}
	.st43{fill:#72B5C4;}
	.st44{fill:#5E96A5;}
	.st45{fill:none;stroke:#FFFFFF;stroke-width:2.6852;stroke-linecap:round;stroke-linejoin:round;stroke-miterlimit:10;}
	.st46{fill:none;stroke:#FFFFFF;stroke-width:1.2942;stroke-linecap:round;stroke-linejoin:round;stroke-miterlimit:10;}
	.st47{fill:none;stroke:#FFFFFF;stroke-width:0.8311;stroke-linecap:round;stroke-linejoin:round;stroke-miterlimit:10;}
	.st48{fill:#FF5C00;}
	.st49{fill:#00B4FF;}
	.st50{fill:#FF5592;}
	.st51{fill:#733FFF;}
	.st52{fill:#DDFF15;}
	.st53{fill:#BF5855;}
	.st54{fill:none;stroke:#333333;stroke-width:0.5718;stroke-miterlimit:10;}
	.st55{fill:#C8F982;}
	.st56{fill:#AEF9C0;}
	.st57{fill:none;stroke:#FFFFFF;stroke-width:1.8326;stroke-miterlimit:10;}
	.st58{fill:#9AF6F9;}
	.st59{fill:#FFACA2;}
	.st60{fill:#F9E582;}
	.st61{fill:#FFC08B;}
	.st62{fill:#EFEB6A;}
	.st63{fill:#EC987F;}
	.st64{fill:#B5FFCC;}
	.st65{fill:#FFEDA2;}
	.st66{fill:#CCE7CC;}
	.st67{fill:#ABE7AB;}
	.st68{fill:#A6A6A6;}
	.st69{clip-path:url(#SVGID_60_);}
	.st70{fill:none;stroke:#333333;stroke-width:0.4706;stroke-linecap:round;stroke-linejoin:round;stroke-miterlimit:10;}
	.st71{fill:#FFEC55;}
	.st72{fill:none;stroke:#333333;stroke-width:0.8177;stroke-miterlimit:10;}
	.st73{clip-path:url(#SVGID_62_);}
	.st74{clip-path:url(#SVGID_64_);}
	.st75{fill:#FF7A59;}
	.st76{clip-path:url(#SVGID_66_);}
	.st77{clip-path:url(#SVGID_68_);}
	.st78{fill:#B45FFF;}
	.st79{clip-path:url(#SVGID_70_);}
	.st80{opacity:0.2;fill:#002CBF;}
	.st81{fill:none;stroke:#333333;stroke-width:0.5506;stroke-linecap:round;stroke-linejoin:round;stroke-miterlimit:10;}
	.st82{clip-path:url(#SVGID_72_);}
	.st83{fill:#EAA871;}
	.st84{fill:#FFD836;}
	.st85{fill:#FF846B;}
	.st86{fill:none;stroke:#333333;stroke-width:0.804;stroke-linecap:round;stroke-linejoin:round;stroke-miterlimit:10;}
	.st87{fill:#FEFF4A;}
	.st88{fill:none;stroke:#333333;stroke-width:0.7645;stroke-linecap:round;stroke-linejoin:round;stroke-miterlimit:10;}
	.st89{fill:none;stroke:#333333;stroke-width:0.7645;stroke-miterlimit:10;}
	.st90{fill:none;stroke:#333333;stroke-width:2.9248;stroke-linecap:round;stroke-linejoin:round;stroke-miterlimit:10;}
	.st91{fill:none;stroke:#333333;stroke-width:0.945;stroke-linecap:round;stroke-linejoin:round;stroke-miterlimit:10;}
	.st92{fill:none;stroke:#333333;stroke-width:0.945;stroke-miterlimit:10;}
	.st93{fill:none;stroke:#333333;stroke-width:3.6155;stroke-linecap:round;stroke-linejoin:round;stroke-miterlimit:10;}
	.st94{fill:none;stroke:#333333;stroke-width:0.6228;stroke-miterlimit:10;}
	.st95{fill:none;stroke:#333333;stroke-width:0.7778;stroke-linecap:round;stroke-linejoin:round;stroke-miterlimit:10;}
	.st96{fill:#FF712A;}
	.st97{fill:none;stroke:#333333;stroke-width:0.7396;stroke-linecap:round;stroke-linejoin:round;stroke-miterlimit:10;}
	.st98{fill:none;stroke:#333333;stroke-width:0.7396;stroke-miterlimit:10;}
	.st99{fill:none;stroke:#333333;stroke-width:2.8295;stroke-linecap:round;stroke-linejoin:round;stroke-miterlimit:10;}
	.st100{fill:none;stroke:#333333;stroke-width:0.9142;stroke-linecap:round;stroke-linejoin:round;stroke-miterlimit:10;}
	.st101{fill:none;stroke:#333333;stroke-width:0.9142;stroke-miterlimit:10;}
	.st102{fill:none;stroke:#333333;stroke-width:3.4977;stroke-linecap:round;stroke-linejoin:round;stroke-miterlimit:10;}
	.st103{fill:none;stroke:#333333;stroke-width:0.6025;stroke-miterlimit:10;}
	.st104{fill:url(#SVGID_89_);}
	.st105{fill:url(#SVGID_90_);}
	.st106{fill:none;stroke:#333333;stroke-width:0.7438;stroke-linecap:round;stroke-linejoin:round;stroke-miterlimit:10;}
	.st107{fill:none;stroke:#333333;stroke-width:0.8926;stroke-linecap:round;stroke-linejoin:round;stroke-miterlimit:10;}
	.st108{clip-path:url(#SVGID_92_);fill:url(#SVGID_93_);}
	.st109{fill:url(#SVGID_94_);}
	.st110{fill:#52C5FF;}
	.st111{fill:none;stroke:#333333;stroke-width:0.6367;stroke-linecap:round;stroke-linejoin:round;stroke-miterlimit:10;}
	.st112{fill:none;stroke:#333333;stroke-width:2.7061;stroke-linecap:round;stroke-linejoin:round;stroke-miterlimit:10;}
	.st113{fill:none;stroke:#333333;stroke-width:0.5763;stroke-miterlimit:10;}
	.st114{fill:none;stroke:#FFFFFF;stroke-width:1.3042;stroke-linecap:round;stroke-linejoin:round;stroke-miterlimit:10;}
	.st115{fill:none;stroke:#FFFFFF;stroke-width:0.8375;stroke-linecap:round;stroke-linejoin:round;stroke-miterlimit:10;}
	.st116{clip-path:url(#SVGID_96_);}
	.st117{opacity:0.2;fill:#2E3192;}
	.st118{fill:#FEFF78;}
	.st119{opacity:0.1;fill:#2E3192;}
	.st120{fill:#FF5A50;}
	.st121{fill:none;stroke:#333333;stroke-width:0.567;stroke-linecap:round;stroke-linejoin:round;stroke-miterlimit:10;}
	.st122{fill:none;stroke:#333333;stroke-width:2.5786;stroke-linecap:round;stroke-linejoin:round;stroke-miterlimit:10;}
	.st123{fill:none;stroke:#333333;stroke-width:0.5491;stroke-miterlimit:10;}
	.st124{clip-path:url(#SVGID_98_);}
	.st125{fill:#2AD2FF;}
	.st126{fill:none;stroke:#333333;stroke-width:0.2435;stroke-miterlimit:10;}
	.st127{fill:#FFFFFF;stroke:#333333;stroke-width:0.487;stroke-linecap:round;stroke-linejoin:round;stroke-miterlimit:10;}
	.st128{clip-path:url(#SVGID_100_);}
	.st129{fill:url(#SVGID_101_);}
	.st130{opacity:0.4;fill:#FFFFFF;}
	.st131{fill:#FFDC48;}
	.st132{fill:none;stroke:#333333;stroke-width:0.5835;stroke-linecap:round;stroke-linejoin:round;stroke-miterlimit:10;}
	.st133{fill:none;stroke:#333333;stroke-width:2.6537;stroke-linecap:round;stroke-linejoin:round;stroke-miterlimit:10;}
	.st134{fill:#F0F462;}
	.st135{fill:url(#SVGID_102_);}
	.st136{fill:url(#SVGID_103_);}
	.st137{fill:#D1DADF;}
	.st138{fill:#57FFA3;}
	.st139{clip-path:url(#SVGID_105_);}
	.st140{clip-path:url(#SVGID_107_);}
	.st141{fill:#D0BBF9;}
	.st142{clip-path:url(#SVGID_109_);}
	.st143{fill:none;stroke:#333333;stroke-width:0.5867;stroke-linecap:round;stroke-linejoin:round;stroke-miterlimit:10;}
	.st144{clip-path:url(#SVGID_111_);}
	.st145{fill:none;stroke:#333333;stroke-width:0.5514;stroke-linecap:round;stroke-linejoin:round;stroke-miterlimit:10;}
	.st146{fill:#D1E9D3;}
	.st147{clip-path:url(#SVGID_113_);}
	.st148{fill:none;stroke:#333333;stroke-width:0.7684;stroke-linecap:round;stroke-linejoin:round;stroke-miterlimit:10;}
	.st149{fill:none;stroke:#333333;stroke-width:0.7684;stroke-miterlimit:10;}
	.st150{fill:none;stroke:#333333;stroke-width:2.9398;stroke-linecap:round;stroke-linejoin:round;stroke-miterlimit:10;}
	.st151{clip-path:url(#SVGID_115_);}
	.st152{fill:#FF66F8;}
	.st153{fill:none;stroke:#333333;stroke-width:0.7542;stroke-linecap:round;stroke-linejoin:round;stroke-miterlimit:10;}
	.st154{fill:none;stroke:#333333;stroke-width:0.9051;stroke-linecap:round;stroke-linejoin:round;stroke-miterlimit:10;}
	.st155{fill:none;stroke:#333333;stroke-width:0.5146;stroke-linecap:round;stroke-linejoin:round;stroke-miterlimit:10;}
	.st156{fill:none;stroke:#333333;stroke-width:0.6033;stroke-linecap:round;stroke-linejoin:round;stroke-miterlimit:10;}
	.st157{fill:none;stroke:#333333;stroke-width:2.7439;stroke-linecap:round;stroke-linejoin:round;stroke-miterlimit:10;}
	.st158{fill:#333333;stroke:#333333;stroke-width:1.0293;stroke-linecap:round;stroke-linejoin:round;stroke-miterlimit:10;}
	.st159{fill:#FF5F2A;}
	.st160{fill:none;stroke:#333333;stroke-width:0.5965;stroke-linecap:round;stroke-linejoin:round;stroke-miterlimit:10;}
	.st161{fill:#F9CC3E;}
	.st162{clip-path:url(#SVGID_121_);}
	.st163{fill:#70E1FF;}
	.st164{fill:none;stroke:#333333;stroke-width:0.5717;stroke-linecap:round;stroke-linejoin:round;stroke-miterlimit:10;}
	.st165{fill:none;stroke:#333333;stroke-width:2.6004;stroke-linecap:round;stroke-linejoin:round;stroke-miterlimit:10;}
	.st166{clip-path:url(#SVGID_123_);}
	.st167{fill:#8F61FF;}
	.st168{clip-path:url(#SVGID_125_);}
	.st169{clip-path:url(#SVGID_127_);}
	.st170{fill:#FFEBEB;}
	.st171{clip-path:url(#SVGID_129_);}
	.st172{clip-path:url(#SVGID_131_);}
	.st173{fill:#F47D62;}
	.st174{fill:none;stroke:#333333;stroke-width:0.7188;stroke-linecap:round;stroke-linejoin:round;stroke-miterlimit:10;}
	.st175{fill:none;stroke:#333333;stroke-width:0.7188;stroke-miterlimit:10;}
	.st176{fill:none;stroke:#333333;stroke-width:2.7502;stroke-linecap:round;stroke-linejoin:round;stroke-miterlimit:10;}
	.st177{fill:#85ACB5;}
	.st178{clip-path:url(#SVGID_133_);}
	.st179{fill:#D5F2F7;}
	.st180{fill:#FF694A;}
	.st181{fill:none;stroke:#333333;stroke-width:0.5693;stroke-linecap:round;stroke-linejoin:round;stroke-miterlimit:10;}
	.st182{fill:#FFDF15;}
	.st183{fill:none;stroke:#333333;stroke-width:0.6674;stroke-linecap:round;stroke-linejoin:round;stroke-miterlimit:10;}
	.st184{fill:none;stroke:#333333;stroke-width:3.0352;stroke-linecap:round;stroke-linejoin:round;stroke-miterlimit:10;}
	.st185{clip-path:url(#SVGID_135_);}
	.st186{clip-path:url(#SVGID_137_);}
	.st187{fill:none;stroke:#333333;stroke-width:0.5248;stroke-linecap:round;stroke-linejoin:round;stroke-miterlimit:10;}
	.st188{fill:#FFD33A;}
	.st189{fill:none;stroke:#333333;stroke-width:2.7983;stroke-linecap:round;stroke-linejoin:round;stroke-miterlimit:10;}
	.st190{fill:none;stroke:#333333;stroke-width:0.7692;stroke-linecap:round;stroke-linejoin:round;stroke-miterlimit:10;}
	.st191{fill:none;stroke:#333333;stroke-width:0.5959;stroke-miterlimit:10;}
	.st192{clip-path:url(#SVGID_143_);}
	.st193{fill:#FFE267;}
	.st194{clip-path:url(#SVGID_149_);}
	.st195{fill:#FFEEAA;}
	.st196{opacity:0.7;fill:url(#SVGID_152_);}
	.st197{fill:none;stroke:#333333;stroke-width:0.611;stroke-miterlimit:10;}
	.st198{clip-path:url(#SVGID_154_);}
	.st199{opacity:0.7;fill:url(#SVGID_157_);}
	.st200{fill:#EABBFC;}
	.st201{opacity:0.7;fill:url(#SVGID_160_);}
	.st202{opacity:0.7;fill:url(#SVGID_163_);}
	.st203{opacity:0.7;fill:url(#SVGID_166_);}
	.st204{opacity:0.7;fill:url(#SVGID_169_);}
	.st205{clip-path:url(#SVGID_171_);}
	.st206{fill:none;stroke:#333333;stroke-width:0.5899;stroke-linecap:round;stroke-linejoin:round;stroke-miterlimit:10;}
	.st207{fill:none;stroke:#333333;stroke-width:2.6828;stroke-linecap:round;stroke-linejoin:round;stroke-miterlimit:10;}
	.st208{fill:none;stroke:#333333;stroke-width:0.5713;stroke-miterlimit:10;}
	.st209{clip-path:url(#SVGID_173_);}
	.st210{clip-path:url(#SVGID_175_);}
	.st211{clip-path:url(#SVGID_177_);}
	.st212{fill:#FFAFC3;}
	.st213{fill:#A0D3FF;}
	.st214{fill:none;stroke:#333333;stroke-width:0.7262;stroke-linecap:round;stroke-linejoin:round;stroke-miterlimit:10;}
	.st215{fill:none;stroke:#333333;stroke-width:0.6906;stroke-miterlimit:10;}
	.st216{fill:none;stroke:#333333;stroke-width:0.8536;stroke-miterlimit:10;}
	.st217{fill:#333333;stroke:#333333;stroke-width:0.991;stroke-linecap:round;stroke-linejoin:round;stroke-miterlimit:10;}
	.st218{clip-path:url(#SVGID_179_);}
	.st219{clip-path:url(#SVGID_181_);}
	.st220{fill:#FD9994;}
	.st221{opacity:0.2;}
	.st222{fill:#2E3192;}
	.st223{display:inline;fill:#FF5B00;}
</style>
<g id="site">
</g>
<g id="kitties">
	<g>
		<g>
			<path class="st212" d="M124.7,144.7c3.7-0.6,7.4-2.1,10.2-4.7s4.5-6.4,4-10.2c-3.9,0-7.5-3.1-8-7c-0.5-3.1,1-6.4,3.6-8.2
				c2.6-1.8,6.1-2,9-0.9c4.6,1.7,6.2,6.4,6.3,6.1c1.8,3.2,2.8,6.9,2.7,10.6c0,1.6-0.2,3.2-0.7,4.7c-1,2.9-3.1,5.4-5.7,7.2
				s-5.5,3-8.4,3.9c-5.6,1.8-11.4,2.7-17.3,2.4c-1-0.1-1.9-0.2-2.9-0.3c-1.4-0.1-3.5,0-4.8-0.5c-0.8-0.4-1.4-1.9-0.7-2.6
				c0.6-0.6,1.9-0.3,2.6-0.2c1.4,0.1,2.8,0.2,4.3,0.2C120.8,145.1,122.7,145,124.7,144.7z"/>
			<path class="st213" d="M124.7,144.7c3.7-0.6,7.4-2.1,10.2-4.7s4.5-6.4,4-10.2c-3.9,0-7.5-3.1-8-7c-0.5-3.1,1-6.4,3.6-8.2
				c2.6-1.8,6.1-2,9-0.9c4.6,1.7,6.2,6.4,6.3,6.1c1.8,3.2,2.8,6.9,2.7,10.6c0,1.6-0.2,3.2-0.7,4.7c-1,2.9-3.1,5.4-5.7,7.2
				s-5.5,3-8.4,3.9c-5.6,1.8-11.4,2.7-17.3,2.4c-1-0.1-1.9-0.2-2.9-0.3c-1.4-0.1-3.5,0-4.8-0.5c-0.8-0.4-1.4-1.9-0.7-2.6
				c0.6-0.6,1.9-0.3,2.6-0.2c1.4,0.1,2.8,0.2,4.3,0.2C120.8,145.1,122.7,145,124.7,144.7z"/>
			<g>
				<path class="st26" d="M109.7,143.9c3.2,1.1,6.7,1.3,10.1,1c1.7-0.1,3.4-0.4,5.1-0.7c1.7-0.3,3.3-0.8,4.9-1.4
					c1.6-0.6,3.1-1.4,4.3-2.5c1.3-1.1,2.3-2.4,3-3.9c0.7-1.5,1.2-3.2,1.4-4.8c0.1-1.7-0.1-3.4-0.6-5c0-0.1,0-0.2,0.1-0.3
					c0.1,0,0.2,0,0.3,0.1c0.6,1.6,0.8,3.4,0.8,5.2c-0.1,1.8-0.5,3.5-1.3,5.1c-0.8,1.6-1.8,3.1-3.1,4.3c-1.3,1.2-2.9,2.1-4.5,2.7
					c-1.7,0.6-3.4,1-5.1,1.3c-1.7,0.3-3.4,0.5-5.2,0.6c-3.5,0.2-7-0.1-10.3-1.3c-0.1,0-0.2-0.2-0.1-0.3
					C109.5,143.9,109.6,143.8,109.7,143.9z"/>
			</g>
			<g>
				<path class="st26" d="M113,147.9c8.1,1.3,16.5,0.7,24.3-1.8c3.9-1.3,7.7-2.9,10.6-5.8c1.4-1.4,2.6-3.1,3.2-5
					c0.7-1.9,0.9-3.9,0.8-5.9c-0.1-2-0.4-4-1.1-5.9c-0.6-1.9-1.5-3.7-2.8-5.3c-1.2-1.6-2.8-2.9-4.6-3.7c-1.8-0.8-3.9-1.2-5.8-0.8
					c-2,0.3-3.8,1.4-5,2.9c-1.2,1.6-1.9,3.6-1.8,5.6c0.1,4.1,3.8,7.5,7.8,7.7c0.1,0,0.2,0.1,0.2,0.2s-0.1,0.2-0.2,0.2
					c-2.1-0.1-4.2-1-5.7-2.5c-0.8-0.7-1.4-1.6-1.9-2.5c-0.5-1-0.7-2-0.8-3.1c-0.1-2.1,0.6-4.3,1.9-6c1.3-1.7,3.3-2.9,5.4-3.3
					c2.1-0.4,4.3,0,6.3,0.8c2,0.8,3.6,2.3,5,3.9c1.3,1.7,2.3,3.6,3,5.6c0.7,2,1.1,4.1,1.2,6.2c0.1,2.1-0.2,4.3-1,6.3
					c-0.7,2-2,3.8-3.5,5.3c-3.1,2.9-7,4.6-11,5.8c-7.9,2.4-16.4,3-24.6,1.5c-0.1,0-0.2-0.1-0.2-0.2
					C112.8,147.9,112.9,147.8,113,147.9z"/>
			</g>
			<g>
				<g>
					<path class="st213" d="M38.3,58.5c0,0-43.7-27,23-16.5"/>
					<g>
						<g>
							<path class="st26" d="M38.2,58.8c-4.2-2.7-8.3-5.5-11.7-9.3c-0.8-1-1.6-2-2.1-3.2c-0.3-0.6-0.5-1.3-0.5-2
								c0-0.7,0.2-1.4,0.6-2c0.4-0.6,1-1,1.5-1.3c0.6-0.3,1.2-0.6,1.8-0.8c1.2-0.4,2.5-0.6,3.7-0.8c5-0.5,10-0.1,15,0.4
								c5,0.5,9.9,1.3,14.8,2.1c0.1,0,0.2,0.1,0.1,0.2c0,0.1-0.1,0.2-0.2,0.1c-4.9-0.7-9.9-1.3-14.8-1.7c-2.5-0.2-5-0.4-7.4-0.4
								c-2.5-0.1-4.9,0-7.4,0.2c-1.2,0.1-2.4,0.3-3.6,0.7c-1.1,0.3-2.3,0.9-2.9,1.7c-0.7,0.9-0.6,2.1-0.1,3.1c0.5,1.1,1.2,2.1,2,3
								c1.6,1.9,3.5,3.5,5.4,5c1.9,1.5,3.9,3,6,4.4l0,0c0.1,0.1,0.2,0.2,0.1,0.4C38.5,58.8,38.3,58.8,38.2,58.8z"/>
						</g>
						<g>
							<path class="st26" d="M52.9,45.4c-2.1-0.2-4.2-0.3-6.3-0.4c-2.1-0.1-4.2,0-6.3,0.1c-2.1,0.1-4.2,0.2-6.3,0.4
								c-2.1,0.2-4.2,0.5-6.3,0.8c-0.1,0-0.2,0-0.2-0.1c0-0.1,0-0.2,0.1-0.2c2.1-0.5,4.2-0.9,6.3-1.3c2.1-0.3,4.2-0.6,6.4-0.6
								c2.1,0,4.3,0,6.4,0.2c2.1,0.2,4.2,0.5,6.3,0.9c0.1,0,0.1,0.1,0.1,0.1C53,45.4,53,45.4,52.9,45.4z"/>
						</g>
						<path class="st26" d="M43.2,53.2c0.6,0,1.2,0,1.8-0.2c0.6-0.2,1-0.6,1.5-1.1c1.8-1.7,3.6-3.4,5.3-5.2c0.2-0.3,0.5-0.6,0.4-0.9
							c-0.1-0.1,3.9,0,1-0.4c-1.1-0.1-3.3-0.7-4.4-0.7c-4.6-0.2-9.2-0.2-13.8,0.1c-4.9,0.3,0.9,5.6,2.6,6.6
							C39.2,52.4,41.2,53,43.2,53.2z"/>
					</g>
				</g>
				<g>
					<path class="st213" d="M121,47.3c0,0,34.9-37.7-26.5-9.7L121,47.3z"/>
					<g>
						<g>
							<path class="st26" d="M120.8,47.1c1.6-1.9,3.2-3.8,4.6-5.8c1.4-2,2.8-4.1,3.8-6.3c0.5-1.1,0.9-2.3,1.1-3.4
								c0.2-1.2-0.1-2.3-0.9-3c-0.8-0.7-2.1-0.9-3.3-0.9c-1.2,0-2.4,0.1-3.6,0.3c-2.4,0.4-4.8,1-7.2,1.7c-2.4,0.7-4.7,1.5-7,2.4
								c-4.7,1.7-9.3,3.6-13.8,5.6c-0.1,0-0.2,0-0.2-0.1c0-0.1,0-0.2,0.1-0.2c4.5-2.1,9-4.2,13.7-6c4.6-1.8,9.4-3.5,14.3-4.4
								c1.2-0.2,2.5-0.3,3.8-0.3c0.6,0,1.3,0.1,1.9,0.3c0.6,0.2,1.3,0.4,1.8,0.9c0.6,0.4,1,1.1,1.1,1.8c0.2,0.7,0.2,1.4,0.1,2
								c-0.2,1.3-0.7,2.5-1.2,3.7c-2.3,4.5-5.5,8.4-8.8,12.1c-0.1,0.1-0.3,0.1-0.4,0C120.7,47.4,120.7,47.2,120.8,47.1L120.8,47.1z"
								/>
						</g>
						<g>
							<path class="st26" d="M103.3,38.3c1.9-0.9,3.9-1.8,5.9-2.5c2-0.7,4.1-1.4,6.1-1.9c2.1-0.5,4.2-0.9,6.3-1.1
								c2.1-0.2,4.3-0.4,6.4-0.5c0.1,0,0.2,0.1,0.2,0.2c0,0.1-0.1,0.2-0.2,0.2c-2.1,0.2-4.2,0.5-6.3,0.9c-2.1,0.4-4.1,0.9-6.2,1.3
								c-2.1,0.5-4.1,1-6.1,1.6c-2,0.6-4,1.3-6,2.1c-0.1,0-0.1,0-0.2-0.1C103.2,38.4,103.3,38.3,103.3,38.3z"/>
						</g>
						<path class="st26" d="M114.9,43.4c-0.6,0.2-1.2,0.4-1.8,0.3c-0.6-0.1-1.2-0.3-1.7-0.6c-2.2-1.1-4.4-2.3-6.5-3.6
							c-0.3-0.2-0.6-0.4-0.6-0.8c0-0.2,0.1-0.3,0.2-0.4c0.7-0.8,1.8-1.2,2.8-1.6c4.4-1.4,8.8-2.7,13.4-3.6c4.8-1,0.6,5.7-0.8,7.1
							C118.5,41.6,116.8,42.7,114.9,43.4z"/>
					</g>
				</g>
				<path class="st213" d="M133.3,77.4c0-2.3-0.8-3.2-0.8-3.2s-0.7-8.3-1.1-9.4c-0.4-1.1-5.9-12.3-9.3-17.8c0,0-1.7-3.9-8-5.3
					c-6.3-1.4-7.8-2.3-9.8-3.9c-2-1.6-4.4-4.3-7.8-5.2c-3.3-0.8-7.4-2-7.4-2l-1.5-0.6l-0.5-3.3l-3.8-3.5c0,0-7.4,4.6-9.9,8l-9.3,4
					c0,0-2.9-1.7-3.7-1.5c-0.1,0-0.1,0.1-0.2,0.1l0-0.1c0,0-0.1,0.1-0.2,0.3c-0.2,0.1-0.3,0.3-0.4,0.5c-1.2,1.4-3.6,4-6,5
					c-3.2,1.3-8.2,3.4-11.5,7.4c-3.3,4-8.8,28.1-8.8,28.1s-1.2,2.5-3.3,2.5c0,0,1.9,3.2,5.1,3.6l-2.5,1.2h-3.3c0,0,1.5,5.6,9.4,7.4
					c1.9,0.4-7,0.4-7,0.4s2.6,5.8,10.9,7.6c8.3,1.8,5.9,1.3,9.4,3.3c3.5,2,3.8,2.4,3.8,2.4s0.7,2.6-0.6,4.5
					c-0.1,0.1-0.1,0.3-0.1,0.4c-0.1,0.1-0.1,0.2-0.2,0.3c0,0-2.1,5-1,8.6c0,0-1.9,2-2.3,4.9c-0.4,2.9-0.7,7.2-1.2,9.3
					c-0.5,2.1-2.1,6.9-2.1,6.9s-3,5.3-2.5,8.6c0.5,3.3,1.8,4.3,6.3,4.3c4.5,0,14.4-0.2,15.8-0.3c1.4-0.1,5.2-0.4,5.2-0.4
					s1.5,5.4,4.7,4.5c3.2-0.8,3.4-4.4,3.4-4.4h4c0,0,1.3,5.3,3.7,4.4c2.5-0.9,4.1-4.3,4.1-4.3s7.3,0.4,10-0.1s4.3-1,4.3-1
					s6.6,2.9,9.4,1.1c2.8-1.8,0.2-12.7,0.2-12.7l-2.1-14.7l-1.3-5.9l-1.6-4.2l-1.7-3.1l0.2-4.5l0.6-2.5c0,0,7.9-2.3,8-2.4
					c0.2-0.1,5.1-2.9,5.1-2.9l2.5-2.8c0,0,1.2-1.2,1-4.1c0,0,3.7-0.1,4.5-4.2c0.8-4.1-0.5-5.9-0.5-5.9S133.4,79.7,133.3,77.4z"/>
				<g>
					<path class="st26" d="M32.8,75c0.9-4.3,1.9-8.5,3-12.8c0.5-2.1,1.1-4.2,1.7-6.3c0.6-2.1,1.3-4.2,2.2-6.2c1-2,2.4-3.9,4.1-5.3
						c1.7-1.5,3.6-2.6,5.6-3.6c1-0.5,2.1-0.9,3-1.2c0.9-0.4,1.8-1,2.6-1.7c1.7-1.3,3.2-2.9,4.7-4.4l0,0c0.1-0.1,0.3-0.2,0.4-0.2
						c0.7,0,1.5,0.2,2.1,0.6c0.3,0.2,0.6,0.4,0.8,0.6c0.3,0.2,0.5,0.5,0.7,0.8l-0.7-0.2l9.9-4L73,31.2c0.7-1,1.5-1.7,2.3-2.5
						c0.8-0.7,1.7-1.4,2.5-2.1c1.7-1.3,3.6-2.5,5.4-3.7c0.2-0.1,0.3-0.1,0.5,0l3.9,3.7l0,0c0.1,0.1,0.1,0.1,0.1,0.2l0.7,5.4l0,0
						L88.1,32l3.4,1.9l0,0l0,0c0.1,0.1,0.2,0.2,0.1,0.3L91,38.7c0,0.1-0.1,0.2-0.2,0.1c-0.1,0-0.2-0.1-0.1-0.2l0.5-4.5l0.2,0.3l0,0
						l-3.5-1.6c-0.1-0.1-0.2-0.2-0.2-0.3l0,0l0,0L87,27l0.1,0.2l0,0l-3.9-3.6l0.5,0c-1.8,1.1-3.6,2.4-5.3,3.7
						c-0.8,0.7-1.7,1.3-2.4,2.1c-0.8,0.7-1.5,1.5-2.1,2.3c-0.1,0.1-0.1,0.1-0.2,0.2l-9.8,4.1c-0.2,0.1-0.5,0-0.6-0.2l0,0
						c-0.2-0.2-0.4-0.4-0.6-0.6c-0.2-0.2-0.4-0.3-0.7-0.5c-0.5-0.3-1-0.4-1.5-0.4l0.4-0.2c-1.5,1.6-3.1,3.2-4.8,4.5
						c-0.9,0.7-1.8,1.4-2.9,1.8c-1.1,0.4-2,0.7-3,1.2c-3.9,1.7-7.4,4.5-9.2,8.3c-0.9,1.9-1.6,4-2.2,6.1c-0.6,2.1-1.2,4.2-1.8,6.3
						c-1.1,4.2-2.1,8.4-3,12.7c-0.1,0.3-0.3,0.4-0.6,0.4C32.9,75.5,32.8,75.2,32.8,75z"/>
				</g>
				<g>
					<path class="st26" d="M33.8,75.2c-0.2,0.4-0.3,0.8-0.6,1.1c-0.2,0.3-0.5,0.6-0.9,0.9c-0.7,0.5-1.5,0.8-2.3,0.9l0.5-0.8
						c0.2,0.4,0.5,0.8,0.7,1.2c0.3,0.4,0.6,0.8,1,1.1c0.4,0.3,0.8,0.6,1.3,0.8c0.5,0.2,1,0.4,1.5,0.5l0,0c0.1,0,0.2,0.2,0.2,0.3
						c0,0.1-0.2,0.2-0.3,0.2c-0.6-0.1-1.1-0.2-1.6-0.4c-0.5-0.2-1.1-0.4-1.6-0.7c-0.5-0.3-1-0.7-1.4-1.1c-0.4-0.4-0.7-0.9-1-1.5
						c-0.1-0.3,0-0.6,0.3-0.7c0.1,0,0.1,0,0.2,0l0,0c0.6,0,1.3-0.2,1.8-0.6c0.3-0.2,0.5-0.4,0.7-0.7c0.2-0.2,0.4-0.6,0.5-0.8l0,0
						c0.1-0.3,0.4-0.4,0.6-0.3C33.7,74.7,33.9,75,33.8,75.2z"/>
				</g>
				<g>
					<path class="st26" d="M35.1,81.5c-0.5,0.4-1,0.6-1.5,0.8c-0.5,0.2-1.1,0.4-1.7,0.5c-1.1,0.2-2.3,0.2-3.5-0.1v0l0.7-0.8
						c0.4,0.9,1,1.7,1.7,2.5c0.7,0.8,1.4,1.5,2.2,2.1c0.8,0.6,1.7,1.2,2.7,1.6c0.9,0.5,1.9,0.8,3,1.1l0,0c0.2,0.1,0.3,0.3,0.3,0.5
						c-0.1,0.2-0.3,0.3-0.5,0.3c-1.1-0.3-2.1-0.6-3.2-1c-1-0.4-2-1-2.9-1.6c-0.9-0.6-1.8-1.4-2.5-2.2c-0.7-0.9-1.4-1.8-1.9-2.9
						c-0.1-0.3,0-0.6,0.3-0.7c0.1,0,0.1,0,0.2,0l0.2,0v0c1,0.3,2,0.4,3,0.3c0.5-0.1,1-0.2,1.5-0.3c0.5-0.2,1-0.4,1.4-0.6l0,0
						c0.1-0.1,0.3,0,0.4,0.1C35.3,81.2,35.3,81.4,35.1,81.5z"/>
				</g>
				<g>
					<path class="st26" d="M38.8,90.1c-1.3,0.4-2.6,0.7-3.9,0.7c-1.3,0.1-2.7,0-4-0.3l0,0l0.6-0.8c1.7,2.4,4.3,4.4,7,5.8
						c1.4,0.7,2.8,1.2,4.3,1.7c0.7,0.2,1.5,0.4,2.2,0.6l2.3,0.4c1.6,0.3,3.1,1.2,4.4,2.1c1.3,0.9,2.6,1.7,4,2.4
						c2.8,1.4,5.7,2.4,8.8,3c0.1,0,0.2,0.2,0.2,0.3c0,0.1-0.1,0.2-0.3,0.2c-3.1-0.4-6.2-1.4-9.1-2.7c-1.4-0.7-2.8-1.4-4.2-2.3
						c-1.3-0.9-2.6-1.5-4.1-1.8l-2.3-0.4c-0.8-0.1-1.6-0.3-2.3-0.6c-1.5-0.5-3-1.1-4.5-1.8c-2.8-1.5-5.4-3.5-7.3-6.2
						c-0.2-0.2-0.1-0.6,0.1-0.7c0.1-0.1,0.3-0.1,0.4-0.1l0,0l0,0c1.2,0.3,2.5,0.5,3.7,0.4c1.3,0,2.5-0.2,3.7-0.6l0,0
						c0.2-0.1,0.4,0.1,0.5,0.3C39.1,89.8,39,90.1,38.8,90.1z"/>
				</g>
				<g>
					<path class="st26" d="M56,102.9c0.5,0.8,0.7,1.5,0.7,2.4c0,0.4-0.1,0.8-0.2,1.2c-0.1,0.4-0.3,0.7-0.4,1.1
						c-0.6,1.3-1.1,2.7-1.4,4c-0.4,1.3-0.7,2.7-0.6,4.1c0.1,1.4,0.5,2.7,1.4,3.9c0.1,0.1,0.1,0.3,0,0.4c-0.1,0.1-0.3,0.1-0.3,0
						c-1-1.1-1.7-2.6-1.9-4.1c-0.2-1.5-0.1-3.1,0.3-4.5c0.4-1.5,1-2.8,1.6-4.2c0.3-0.7,0.6-1.3,0.6-1.9c0-0.6-0.1-1.3-0.4-1.8l0,0
						c-0.1-0.2-0.1-0.5,0.2-0.7C55.6,102.7,55.9,102.7,56,102.9z"/>
				</g>
				<g>
					<path class="st26" d="M54.2,117.6c-1.5,2-2.4,4.4-2.6,6.9c-0.1,1.2,0,2.6-0.2,3.8c-0.2,1.3-0.4,2.6-0.7,3.8
						c-0.6,2.5-1.3,5-2.3,7.4c-0.5,1.2-1,2.3-1.4,3.5c-0.4,1.2-0.7,2.4-0.8,3.6c-0.1,1.2,0.1,2.4,0.8,3.1c0.7,0.8,1.9,1,3.2,1
						c2.5,0.1,5.1,0.1,7.6,0.1c5.1,0,10.2-0.2,15.3-0.4c0.2,0,0.3,0.1,0.4,0.3c0,0.2-0.1,0.3-0.3,0.4c-5.1,0.3-10.2,0.5-15.3,0.7
						c-2.6,0.1-5.1,0.1-7.7,0c-1.3,0-2.8-0.2-3.9-1.3c-0.5-0.5-0.9-1.2-1.1-1.9c-0.2-0.7-0.2-1.4-0.1-2.1c0.3-2.7,1.4-5.1,2.5-7.4
						c1-2.3,1.8-4.7,2.4-7.2c0.3-1.2,0.6-2.5,0.7-3.7c0.2-1.3,0.2-2.5,0.3-3.8c0.3-2.6,1.2-5.1,2.8-7.2c0.1-0.1,0.3-0.2,0.4-0.1
						C54.3,117.2,54.3,117.4,54.2,117.6L54.2,117.6z"/>
				</g>
				<g>
					<path class="st26" d="M58.4,148.3c0.3,0.3,0.7,0.6,1,0.9c0.4,0.2,0.7,0.5,1.1,0.7c0.4,0.2,0.8,0.4,1.2,0.5
						c0.4,0.2,0.9,0.3,1.3,0.4l0,0c0.2,0.1,0.3,0.3,0.2,0.5c0,0.1-0.2,0.2-0.3,0.2c-0.3,0-0.5,0-0.8,0c-0.3,0-0.5,0-0.8-0.1
						c-0.5-0.1-1-0.3-1.5-0.5c-0.5-0.3-0.9-0.6-1.2-1c-0.4-0.4-0.6-0.8-0.8-1.4c0-0.1,0-0.3,0.2-0.3
						C58.2,148.2,58.3,148.2,58.4,148.3L58.4,148.3z"/>
				</g>
				<g>
					<path class="st26" d="M64,35.4l0.9,1.7c0,0.1,0.1,0.2,0.1,0.3l0,0l-0.4,4.5l-0.4-0.6c0.6,0.2,1.2,0.4,1.8,0.6l1.8,0.7l0,0
						c0.2,0.1,0.3,0.2,0.3,0.4l-0.2,4.4c0,0.1-0.1,0.2-0.3,0.2c-0.1,0-0.2-0.1-0.2-0.2L67.1,43l0.3,0.4l-1.8-0.5
						c-0.6-0.2-1.2-0.3-1.8-0.5l0,0c-0.3-0.1-0.4-0.3-0.4-0.6l0.5-4.5l0.1,0.3l-0.8-1.8c-0.1-0.2,0-0.5,0.2-0.7
						C63.5,35,63.8,35.1,64,35.4z"/>
				</g>
				<polygon class="st26" points="65.1,35 65.5,37 65.5,42.3 63.9,41.8 64.4,37.3 63.5,35.6 				"/>
				<g>
					<path class="st26" d="M88.1,29.9c1.6,0.5,3.2,1,4.9,1.5c0.8,0.2,1.6,0.4,2.4,0.6c0.4,0.1,0.8,0.2,1.2,0.3
						c0.2,0,0.4,0.1,0.7,0.1c0.2,0.1,0.5,0.2,0.7,0.2c1.7,0.8,3,1.9,4.3,3c1.3,1.1,2.6,2.1,4,3c0.7,0.4,1.4,0.8,2.1,1.1
						c0.8,0.3,1.6,0.5,2.4,0.7c1.6,0.4,3.3,0.8,5,1.3c1.6,0.5,3.3,1.1,4.8,2.3c0.4,0.3,0.7,0.7,0.9,1c0.3,0.4,0.5,0.7,0.7,1.1
						c0.5,0.7,0.9,1.4,1.4,2.2c1.7,2.9,3.4,5.9,4.9,9c0.8,1.5,1.5,3,2.2,4.6c0.4,0.8,0.7,1.6,1,2.4c0.1,0.4,0.3,0.8,0.4,1.3l0.2,1.3
						c0.2,1.7,0.3,3.4,0.5,5.1c0.1,0.8,0.1,1.7,0.3,2.5c0.1,0.3,0.3,0.7,0.4,1.2c0.1,0.4,0.2,0.9,0.3,1.3c0.1,0.9-0.1,1.9-0.5,2.7
						c-0.4,0.8-1.1,1.5-1.8,2c-1.4,1-3.1,1.6-4.7,2.1c-0.2,0.1-0.4,0-0.4-0.2c-0.1-0.2,0-0.3,0.2-0.4l0,0c1.6-0.5,3.2-1.1,4.5-2.1
						c0.6-0.5,1.2-1.1,1.6-1.8c0.4-0.7,0.5-1.5,0.4-2.3c0-0.4-0.1-0.8-0.3-1.2c-0.1-0.4-0.3-0.7-0.4-1.2c-0.2-0.9-0.2-1.7-0.3-2.6
						c-0.2-1.7-0.3-3.4-0.5-5.1l-0.2-1.2c-0.1-0.4-0.2-0.7-0.3-1.1c-0.3-0.8-0.6-1.5-1-2.3c-0.7-1.5-1.5-3-2.3-4.5
						c-1.6-3-3.3-6-5-8.8l-1.3-2.1c-0.2-0.4-0.5-0.7-0.7-1c-0.2-0.3-0.5-0.6-0.8-0.8c-1.2-1-2.8-1.6-4.3-2.1
						c-1.6-0.5-3.2-0.8-4.9-1.3c-0.8-0.2-1.7-0.4-2.5-0.7c-0.9-0.3-1.6-0.8-2.4-1.2c-1.5-1-2.8-2.1-4.1-3.1c-1.3-1-2.6-2.2-4.1-2.8
						c-0.2-0.1-0.4-0.1-0.5-0.2c-0.2,0-0.3-0.1-0.6-0.1c-0.4-0.1-0.9-0.2-1.3-0.3c-0.8-0.2-1.7-0.4-2.5-0.7c-1.6-0.5-3.3-1-4.9-1.5
						c-0.3-0.1-0.4-0.4-0.3-0.6C87.5,29.9,87.8,29.8,88.1,29.9z"/>
				</g>
				<g>
					<path class="st26" d="M132.1,80.7c0.6,1.3,0.8,2.6,0.9,4c0,1.4-0.3,2.8-1,4.1c-0.4,0.6-0.8,1.1-1.4,1.6
						c-0.6,0.5-1.4,0.7-2.1,0.8c-1.4,0.2-2.8-0.1-4.1-0.6c-0.1,0-0.2-0.2-0.1-0.3c0-0.1,0.2-0.2,0.3-0.2l0,0
						c1.2,0.3,2.6,0.5,3.8,0.2c0.6-0.1,1.1-0.4,1.6-0.8c0.4-0.4,0.8-0.9,1.1-1.4c1.3-2,1.3-4.9,0.4-7.2l0,0c-0.1-0.2,0-0.4,0.2-0.5
						C131.8,80.5,132,80.6,132.1,80.7z"/>
				</g>
				<g>
					<path class="st26" d="M128.1,90.8c0.2,1.4-0.1,2.7-0.6,3.8c-0.3,0.6-0.6,1.1-1,1.6c-0.4,0.5-0.8,1-1.3,1.4
						c-1.9,1.8-4.2,2.9-6.5,3.9c-2.4,0.8-4.8,1.4-7.2,1.8c-2.4,0.4-4.9,0.6-7.4,0.9c-0.1,0-0.3-0.1-0.3-0.2c0-0.1,0.1-0.3,0.2-0.3
						l0,0c2.4-0.3,4.9-0.6,7.2-1.2c2.4-0.5,4.7-1.2,7-2.1c2.2-0.9,4.5-1.9,6.2-3.5c0.4-0.4,0.9-0.8,1.2-1.3c0.4-0.4,0.7-1,1-1.5
						c0.5-1,0.8-2.2,0.7-3.3l0-0.1c0-0.2,0.1-0.4,0.3-0.4C127.9,90.5,128,90.6,128.1,90.8z"/>
				</g>
				<g>
					<path class="st26" d="M111.5,103.1c-0.5,1.7-0.7,3.5-0.7,5.2c0,0.9,0.1,1.7,0.3,2.5c0.2,0.8,0.7,1.5,1.1,2.3
						c0.8,1.5,1.8,3.3,1.9,5.2c0.1,1.9-0.6,3.8-1.5,5.3c-0.1,0.1-0.2,0.2-0.3,0.1c-0.1-0.1-0.2-0.2-0.1-0.3c0.8-1.6,1.3-3.3,1.1-5
						c-0.2-1.7-1.1-3.2-2.1-4.7c-0.5-0.8-0.9-1.6-1.1-2.6c-0.2-0.9-0.3-1.9-0.3-2.8c0.1-1.9,0.4-3.7,1-5.4c0.1-0.2,0.3-0.3,0.5-0.2
						C111.5,102.7,111.6,102.9,111.5,103.1L111.5,103.1z"/>
				</g>
				<g>
					<path class="st26" d="M114.1,119c1,3.4,1.8,6.8,2.4,10.3c0.7,3.5,1.1,7,1.4,10.5c0.1,1.7,0.2,3.5,0.3,5.3c0,0.9,0,1.8,0,2.7
						c-0.1,0.9-0.1,1.9-0.7,2.8c-0.3,0.4-0.7,0.8-1.2,1c-0.5,0.2-1,0.3-1.4,0.3c-0.9,0-1.8,0-2.7-0.1c-1.8-0.2-3.5-0.7-5.2-1.3
						c-0.1-0.1-0.2-0.2-0.1-0.3c0-0.1,0.2-0.2,0.3-0.1l0,0c1.6,0.6,3.3,0.9,5.1,1.1c0.9,0.1,1.7,0.1,2.6,0c0.8-0.1,1.6-0.3,1.9-0.9
						c0.4-0.6,0.4-1.5,0.5-2.3c0-0.9,0-1.7-0.1-2.6c-0.1-1.7-0.3-3.5-0.5-5.2c-0.2-3.5-0.6-7-1.2-10.4c-0.6-3.4-1.3-6.9-2.2-10.2
						l0,0c-0.1-0.2,0.1-0.4,0.3-0.5C113.9,118.7,114.1,118.8,114.1,119z"/>
				</g>
				<g>
					<path class="st26" d="M93,150.5c2.8,0.1,5.6,0.1,8.4-0.2c1.4-0.1,2.8-0.2,4.1-0.4c1.3-0.3,2.7-0.7,3.5-1.7l0,0
						c0.1-0.1,0.2-0.1,0.4,0c0.1,0.1,0.1,0.2,0.1,0.3c-0.4,0.7-1,1.1-1.7,1.5c-0.7,0.4-1.3,0.6-2,0.8c-1.4,0.4-2.8,0.6-4.2,0.8
						c-2.9,0.1-5.7,0-8.5-0.3c-0.2,0-0.4-0.2-0.3-0.4C92.6,150.7,92.8,150.5,93,150.5L93,150.5z"/>
				</g>
				<g>
					<path class="st26" d="M68.4,135.8c-0.1,1.1-0.2,2.3-0.1,3.4c0.1,1.1,0.3,2.2,1,3c1.3,2,2.4,4,3.4,6.1c0.5,1,1,2.1,1.4,3.2
						c0.5,1,1,2,1.8,2.7c0.4,0.3,0.8,0.5,1.2,0.6c0.5,0.1,1,0,1.3-0.2c0.7-0.5,1.2-1.5,1.6-2.5c0.7-2.1,1.1-4.4,1.5-6.6
						c0.3-2.3,0.5-4.6,0.7-6.9c0.4-4.6,0.6-9.2,0.7-13.8c0-0.1,0.1-0.2,0.3-0.2c0.1,0,0.2,0.1,0.2,0.3c0,4.6-0.1,9.3-0.4,13.9
						c-0.1,2.3-0.3,4.6-0.6,6.9c-0.3,2.3-0.6,4.6-1.3,6.9c-0.2,0.6-0.4,1.1-0.8,1.7c-0.3,0.5-0.7,1.1-1.4,1.5
						c-0.3,0.2-0.7,0.3-1,0.3c-0.3,0-0.7,0.1-1,0c-0.7-0.1-1.3-0.5-1.8-0.9c-1-0.9-1.5-2-2-3.1c-0.5-1.1-0.9-2.1-1.4-3.2
						c-0.9-2.1-2-4.2-3.2-6.1c-0.2-0.2-0.3-0.5-0.5-0.8c-0.1-0.3-0.2-0.6-0.3-0.9c-0.2-0.6-0.2-1.2-0.3-1.8c0-1.2,0.1-2.4,0.4-3.5
						c0-0.1,0.1-0.2,0.3-0.2C68.3,135.6,68.4,135.7,68.4,135.8L68.4,135.8z"/>
				</g>
				<g>
					<path class="st26" d="M83.5,124.8c0,3.6,0.1,7.2,0.3,10.8c0.2,3.6,0.5,7.2,1.1,10.8c0.3,1.8,0.6,3.5,1.1,5.2
						c0.3,0.8,0.6,1.7,1,2.3c0.5,0.7,1.1,1.2,1.8,1c0.7-0.1,1.4-0.7,2-1.3c0.6-0.6,1.1-1.4,1.5-2.2c0.9-1.6,1.6-3.2,2.1-4.9l0,0
						c0-0.1,0.2-0.2,0.3-0.2c0.1,0,0.2,0.2,0.2,0.3c-0.5,1.8-1.2,3.5-2,5.1c-0.4,0.8-0.9,1.6-1.5,2.3c-0.6,0.7-1.3,1.4-2.4,1.7
						c-0.5,0.1-1.1,0.1-1.6-0.2c-0.5-0.3-0.8-0.7-1.1-1.1c-0.6-0.8-0.9-1.7-1.2-2.6c-0.6-1.8-1-3.6-1.3-5.4
						c-0.5-3.6-0.7-7.3-0.8-10.9c-0.1-3.6-0.1-7.3,0-10.9c0-0.2,0.2-0.4,0.4-0.4C83.3,124.4,83.5,124.6,83.5,124.8z"/>
				</g>
				<g>
					<path class="st26" d="M93.8,146.3c0.5-0.1,1.1-0.3,1.5-0.7c0.4-0.3,0.7-0.7,0.7-1.3c0-0.5-0.1-1.1-0.2-1.7
						c-0.2-0.6-0.3-1.2-0.6-1.7l0,0c-0.1-0.1,0-0.3,0.1-0.3c0.1,0,0.3,0,0.3,0.1c0.3,0.6,0.6,1.1,0.8,1.7c0.2,0.6,0.4,1.2,0.4,1.9
						c0,0.7-0.4,1.5-1,1.9c-0.6,0.4-1.2,0.6-1.9,0.7c-0.2,0-0.4-0.1-0.4-0.3C93.5,146.5,93.6,146.4,93.8,146.3L93.8,146.3z"/>
				</g>
				<g>
					<path class="st26" d="M96.1,143.1c0.4-0.5,0.8-1.2,1.1-1.8c0.3-0.6,0.4-1.3,0.4-1.9c-0.2-1.5,0-3.2,0.8-4.5
						c0.1-0.1,0.2-0.2,0.3-0.1c0.1,0.1,0.1,0.2,0.1,0.3c-0.5,1.3-0.6,2.8-0.4,4.2c0.1,0.9-0.1,1.7-0.4,2.4c-0.3,0.7-0.8,1.4-1.3,2
						c-0.1,0.2-0.4,0.2-0.5,0C95.9,143.5,95.9,143.3,96.1,143.1L96.1,143.1z"/>
				</g>
				<polygon class="st26" points="91.7,31.9 93.1,34 91,38.6 91.4,34.1 87.9,32.4 87.9,30.3 				"/>
				<line class="st214" x1="81" y1="150.8" x2="85.1" y2="150.8"/>
			</g>
			<g>
				<path class="st26" d="M119,62.2c0.2,1.1,0.4,2.4,0.3,3.7c-0.1,1.3-0.3,2.6-0.9,3.7c-0.3,0.6-0.7,1.1-1.1,1.6
					c-0.5,0.5-0.9,1-1.4,1.3c-1,0.8-2.2,1.3-3.3,1.8c-0.2,0.1-0.4,0-0.4-0.2c-0.1-0.2,0-0.3,0.2-0.4l0,0c1.1-0.5,2.1-1.1,3-1.9
					c0.5-0.4,0.8-0.8,1.2-1.3c0.3-0.5,0.6-1,0.8-1.5c0.5-1,0.9-2.1,1-3.3c0.1-0.6,0.1-1.2,0.1-1.8c0-0.6-0.1-1.1-0.1-1.8
					c0-0.2,0.1-0.3,0.3-0.4C118.8,61.8,119,61.9,119,62.2L119,62.2z"/>
			</g>
			<g>
				<path class="st26" d="M46.8,68.2c-0.2,0.8-0.4,1.7-0.6,2.6c-0.1,0.9-0.2,1.7-0.2,2.6c0,0.9,0,1.8,0.2,2.6
					c0.1,0.9,0.4,1.7,0.6,2.6l0,0c0,0.1,0,0.3-0.2,0.3c-0.1,0-0.3,0-0.3-0.1c-0.4-0.8-0.8-1.7-1-2.6c-0.2-0.9-0.3-1.9-0.3-2.8
					c0.1-1.9,0.4-3.7,1.2-5.4c0.1-0.1,0.2-0.2,0.4-0.1C46.8,67.9,46.8,68.1,46.8,68.2L46.8,68.2z"/>
			</g>
			<g>
				<path class="st30" d="M111.5,51.1c0.7,1.1,1.3,2.3,1.7,3.7c2.1,7.1-2,14.6-9.2,16.7c-7.1,2.1-14.6-2-16.7-9.2
					c-0.8-2.7-0.7-5.4,0.1-7.9L111.5,51.1z"/>
				<path class="st30" d="M49,73.5c0,1,0.1,2,0.4,3.1c1.6,5.5,7.3,8.6,12.8,7c5.5-1.6,8.6-7.3,7-12.8c-0.6-2.1-1.8-3.8-3.3-5
					L49,73.5z"/>
				<path class="st159" d="M54.4,70.8c-0.3,0.2-0.6,0.3-0.8,0.5c-0.4,0.3-0.8,0.5-1.3,0.6c0,0.7,0.1,1.4,0.3,2.1
					c1.2,4,5.3,6.3,9.3,5.1c4-1.2,6.3-5.3,5.1-9.3c-0.4-1.3-1.1-2.4-2-3.3C61.3,67.8,57.9,69.4,54.4,70.8z"/>
				<path class="st159" d="M103.7,52c0.4,0,0.9,0,1.3,0c0.6,0.1,1.3,0,1.9-0.2c0.5,0.8,0.9,1.6,1.1,2.5c1.5,5.2-1.5,10.6-6.7,12.1
					c-5.2,1.5-10.6-1.5-12.1-6.7c-0.5-1.7-0.5-3.4-0.1-5C94,53.4,98.9,52.9,103.7,52z"/>
				<g>
					<path class="st26" d="M62.2,67.5c-0.1,0.1-0.2,0.1-0.3,0.2c-1.6,0.8-3.3,1.2-4.9,1.8c-0.2,0.1-0.5,0.3-0.7,0.4
						c-0.5,0.4-1.1,0.6-1.6,0.7c-0.3,0.9-0.3,2,0,3c0.8,2.8,3.7,4.4,6.5,3.6c2.8-0.8,4.4-3.7,3.6-6.5C64.4,69.2,63.5,68.1,62.2,67.5
						z"/>
					
						<ellipse transform="matrix(0.4815 -0.8765 0.8765 0.4815 -28.1425 92.4624)" class="st30" cx="64.1" cy="70" rx="1.9" ry="1.9"/>
					
						<ellipse transform="matrix(0.9602 -0.2793 0.2793 0.9602 -18.214 19.4874)" class="st215" cx="59.3" cy="73.7" rx="10.3" ry="10.3"/>
					<path class="st215" d="M49.1,73.4c0,0,8.3-4.2,16.9-7.5"/>
				</g>
				<g>
					<path class="st26" d="M92.7,53.8c0.2,0,0.3,0,0.5,0c2.3-0.3,4.4-0.9,6.6-1.4c0.4,0,0.7,0,1.1,0c0.8,0.1,1.6-0.1,2.3-0.4
						c1,0.8,1.7,1.9,2.1,3.3c1.1,3.6-1,7.5-4.7,8.5c-3.6,1.1-7.5-1-8.5-4.7C91.5,57.2,91.8,55.3,92.7,53.8z"/>
					
						<ellipse transform="matrix(0.4815 -0.8765 0.8765 0.4815 -2.7769 111.0535)" class="st30" cx="92.5" cy="57.9" rx="2.5" ry="2.5"/>
					
						<ellipse transform="matrix(0.9602 -0.2793 0.2793 0.9602 -12.3558 30.3428)" class="st216" cx="100.3" cy="58.5" rx="13.5" ry="13.5"/>
					<path class="st216" d="M111.2,51.2c0,0-11.8,1-23.5,3.4"/>
				</g>
			</g>
			<g>
				<path class="st217" d="M81.7,81.6c-0.7-0.5-1.3-1-1.7-1.8c-0.2-0.4-0.3-0.8-0.2-1.2c0.2-0.9,1.3-1.1,2.2-1.1c1,0,2.1,0,3.1,0.1
					c0.4,0,0.7,0.1,1,0.3c0.3,0.3,0.3,0.7,0.3,1c-0.1,0.7-0.7,1.3-1.2,1.8C83.6,82.2,83.3,82.9,81.7,81.6z"/>
				<path class="st26" d="M82,89.6c0.4,0.4,0.8,0.8,1.4,0.9c0.7,0.2,1.3-0.1,1.9-0.6c0.5-0.4,0.9-1,1.2-1.6c0.1-0.1,0.1-0.3,0.1-0.4
					c0-0.2-0.1-0.3-0.3-0.4c-1.4-1.3-2.5-2.8-3.3-4.5c-0.1,1-0.7,1.8-1.2,2.6c-0.3,0.5-1.3,1.6-1.2,2.1C80.6,88.3,81.7,89.2,82,89.6
					z"/>
				<path class="st30" d="M81.2,87.1l1,1c0.2,0.2,0.5,0.1,0.6-0.2l0.4-1.9c0-0.2,0.3-0.2,0.4,0l0.7,1.8c0.1,0.3,0.5,0.3,0.6,0
					l0.6-1.3L82.9,83L81.2,87.1z"/>
				<g>
					<path class="st26" d="M83.2,82.7c-0.1,1-0.5,1.8-0.9,2.6c-0.5,0.8-1,1.6-1.6,2.3c-0.6,0.7-1.2,1.4-1.8,2.1
						c-0.7,0.6-1.3,1.3-2,1.9c-0.1,0.1-0.2,0.1-0.2,0c-0.1-0.1-0.1-0.2,0-0.2c1.2-1.3,2.5-2.7,3.6-4.1c0.6-0.7,1.1-1.4,1.6-2.2
						c0.5-0.8,0.8-1.6,1-2.4l0,0c0-0.1,0.1-0.2,0.2-0.2C83.1,82.5,83.2,82.6,83.2,82.7z"/>
				</g>
				<g>
					<path class="st26" d="M83.4,82.6c-0.1,0.4,0.1,0.8,0.3,1.2l0.7,1.2c0.5,0.8,1.1,1.5,1.7,2.2c1.3,1.3,2.8,2.6,4.4,3.5
						c0.1,0,0.1,0.1,0.1,0.2c0,0.1-0.1,0.1-0.2,0.1c-0.9-0.4-1.7-0.9-2.5-1.5c-0.8-0.6-1.5-1.2-2.2-1.9c-0.7-0.7-1.3-1.5-1.8-2.3
						c-0.2-0.4-0.4-0.9-0.7-1.3c-0.2-0.4-0.4-1-0.2-1.5c0-0.1,0.1-0.2,0.2-0.1C83.4,82.4,83.4,82.5,83.4,82.6z"/>
				</g>
				<g>
					<g>
						<path class="st26" d="M71.6,81.4c-2.6-0.6-5.3-0.9-8.1-0.9c-2.7-0.1-5.4,0.1-8.1,0.5c-5.4,0.8-10.7,2.4-15.5,4.9
							c4.8-2.6,10.1-4.3,15.5-5.2c2.7-0.4,5.4-0.6,8.2-0.6c2.7,0,5.5,0.2,8.2,0.8c0.2,0,0.3,0.2,0.2,0.3
							C71.9,81.4,71.8,81.5,71.6,81.4C71.6,81.4,71.6,81.4,71.6,81.4L71.6,81.4z"/>
					</g>
					<g>
						<path class="st26" d="M74.9,83.5c-2.1-0.3-4.3-0.4-6.4-0.1c-2.1,0.2-4.3,0.8-6.2,1.6c-2,0.8-3.9,2-5.5,3.4
							c-0.9,0.7-1.6,1.5-2.3,2.3c-0.7,0.8-1.3,1.7-2,2.6c0.7-0.9,1.2-1.8,1.9-2.6c0.7-0.8,1.4-1.7,2.3-2.3c1.6-1.5,3.5-2.7,5.5-3.6
							c2-0.9,4.1-1.5,6.3-1.8c2.2-0.3,4.4-0.3,6.6,0c0.2,0,0.3,0.2,0.2,0.3C75.2,83.4,75.1,83.6,74.9,83.5
							C74.9,83.5,74.9,83.5,74.9,83.5L74.9,83.5z"/>
					</g>
					<g>
						<path class="st26" d="M73.6,85.5c-1.4-0.1-2.9,0.1-4.3,0.5c-1.4,0.4-2.8,1.1-3.9,1.9c-1.2,0.9-2.3,1.9-3.1,3.1
							c-0.5,0.6-0.8,1.2-1.2,1.9c-0.4,0.7-0.6,1.3-1,2c0.3-0.7,0.6-1.4,0.9-2c0.4-0.6,0.7-1.3,1.2-1.9c0.8-1.3,1.9-2.3,3.1-3.3
							c1.2-0.9,2.5-1.6,4-2.1c1.4-0.5,2.9-0.7,4.5-0.7c0.2,0,0.3,0.1,0.3,0.3S73.8,85.5,73.6,85.5C73.7,85.5,73.7,85.5,73.6,85.5
							L73.6,85.5z"/>
					</g>
				</g>
				<g>
					<g>
						<path class="st26" d="M93.9,80.9c2.7-0.6,5.4-0.8,8.2-0.8c2.7,0,5.5,0.2,8.2,0.6c5.4,0.9,10.7,2.6,15.5,5.2
							c-4.9-2.5-10.1-4.1-15.5-4.9c-2.7-0.4-5.4-0.5-8.1-0.5c-2.7,0.1-5.4,0.3-8.1,0.9l0,0c-0.2,0-0.3-0.1-0.3-0.2
							C93.7,81.1,93.8,80.9,93.9,80.9C93.9,80.9,93.9,80.9,93.9,80.9z"/>
					</g>
					<g>
						<path class="st26" d="M90.6,83c2.2-0.3,4.4-0.3,6.6,0c2.2,0.3,4.3,0.9,6.3,1.8c2,0.9,3.9,2.1,5.5,3.6c0.9,0.7,1.6,1.5,2.3,2.3
							c0.7,0.8,1.3,1.8,1.9,2.6c-0.7-0.9-1.3-1.8-2-2.6c-0.7-0.8-1.5-1.6-2.3-2.3c-1.6-1.4-3.5-2.6-5.5-3.4c-2-0.8-4.1-1.4-6.2-1.6
							c-2.1-0.2-4.3-0.2-6.4,0.1l0,0c-0.2,0-0.3-0.1-0.3-0.2S90.5,83,90.6,83C90.6,83,90.6,83,90.6,83z"/>
					</g>
					<g>
						<path class="st26" d="M91.9,84.9c1.6-0.1,3.1,0.2,4.5,0.7c1.4,0.5,2.8,1.2,4,2.1c1.2,0.9,2.2,2,3.1,3.3
							c0.5,0.6,0.8,1.3,1.2,1.9c0.3,0.7,0.6,1.4,0.9,2c-0.3-0.7-0.6-1.4-1-2c-0.4-0.6-0.7-1.3-1.2-1.9c-0.8-1.2-1.9-2.2-3.1-3.1
							c-1.2-0.9-2.5-1.5-3.9-1.9c-1.4-0.4-2.9-0.6-4.3-0.5l0,0c-0.2,0-0.3-0.1-0.3-0.3S91.8,84.9,91.9,84.9
							C91.9,84.9,91.9,84.9,91.9,84.9z"/>
					</g>
				</g>
			</g>
			<g>
				<g>
					<path class="st26" d="M58.3,49.7c-2.6-1-5-2.4-7.2-3.9c-2.3-1.5-4.4-3.2-6.4-5.1c-4-3.7-7.4-8.1-9.9-13
						c2.6,4.8,6.1,9.1,10.1,12.7c2,1.8,4.2,3.5,6.5,5c2.3,1.5,4.7,2.8,7.2,3.7l0,0c0.2,0.1,0.2,0.2,0.2,0.4
						C58.7,49.7,58.5,49.8,58.3,49.7C58.3,49.7,58.3,49.7,58.3,49.7z"/>
				</g>
				<g>
					<path class="st26" d="M62.2,49.8c-2-1-3.8-2.2-5.5-3.7c-1.6-1.5-3.1-3.2-4.2-5c-1.2-1.9-2.1-3.9-2.6-6c-0.3-1-0.4-2.1-0.6-3.2
						c-0.1-1.1-0.1-2.2-0.1-3.3c0.1,1.1,0.1,2.2,0.2,3.3c0.2,1.1,0.3,2.2,0.7,3.2c0.5,2.1,1.5,4.1,2.7,5.9c1.2,1.8,2.6,3.5,4.3,4.9
						c1.6,1.4,3.5,2.6,5.4,3.5l0,0c0.1,0.1,0.2,0.2,0.1,0.4C62.5,49.8,62.4,49.9,62.2,49.8C62.2,49.8,62.2,49.8,62.2,49.8z"/>
				</g>
				<g>
					<path class="st26" d="M62.2,47.5c-1.3-0.8-2.4-1.9-3.3-3.1c-0.9-1.2-1.7-2.5-2.1-4C56.3,39,56,37.5,56,36
						c-0.1-0.7,0.1-1.5,0.1-2.2c0.1-0.7,0.3-1.5,0.4-2.2c-0.1,0.7-0.2,1.5-0.3,2.2c0,0.7-0.1,1.5,0,2.2c0,1.5,0.4,2.9,0.8,4.3
						c0.5,1.4,1.3,2.7,2.2,3.8c0.9,1.1,2,2.1,3.3,2.8l0,0c0.1,0.1,0.2,0.3,0.1,0.4S62.4,47.6,62.2,47.5
						C62.2,47.5,62.2,47.5,62.2,47.5z"/>
				</g>
			</g>
			<path class="st24" d="M54,117.7l1.3,2.1c0,0-1.1,2-0.4,6.5c0.7,4.5,0.6,9-2.3,12.2c-2.9,3.2-4.6,11.5-1.9,11.2s6.7,2.2,7.6-1.3
				c0,0,10.7,1.4,10.2-6.9l4.7,9.3l-15.8,0.6c0,0-11.4,0.7-11.5-2.6c-0.1-3.3,0.5-6.3,1.2-7.6c0.7-1.3,3.8-9.1,4-12.3
				C51.2,125.6,51.7,118.3,54,117.7z"/>
			<polygon class="st24" points="83.1,137 81.2,150.8 85.1,150.8 			"/>
			<path class="st24" d="M97.9,139.3c0,0,5.9,12.3,11.3,9c0,0,7.6,4.8,8.4-4.9c0,0,1.7,7.1-2.2,8c-4,0.8-8.2-1.3-8.2-1.3
				s-8.4,1.9-14.2,0.9l1.6-4.2c0,0,1.4-0.9,1.6-1.4c0.3-0.5,0.1-2.3,0.1-2.3l1.2-1.2L97.9,139.3z"/>
			<path class="st24" d="M64.4,105.9c0,0-6.2,0-7.4,2.5s0.1,4-0.7,6.3c-0.8,2.3-1.5,2.2-1.1,5.2c0,0-3.1-3.1-1.2-8.3
				c1.9-5.2,2.3-7,1.6-8.2C55.7,103.3,62,105.7,64.4,105.9z"/>
			<path class="st24" d="M104,104c0,0,4.2,0,4.4,4.5c0.1,4.5,5.2,9.3,4.2,14.7c0,0,2.5-4-0.1-8.6c-2.6-4.6-2.8-7.1-1.4-11.6L104,104
				z"/>
			<path class="st24" d="M112.6,123.2c0,0,2,1.7,2,5.4c0,3.6,3.2,16.8,3.2,16.8s-1.2-16.6-2.6-20.6s-1.2-5.7-1.2-5.7L112.6,123.2z"
				/>
			<path class="st26" d="M73.5,151.7c0,0,2.5-2.1,7.6-0.7c0,0-0.5,3.6-2.8,4.4C75.9,156.2,73.5,151.7,73.5,151.7z"/>
			<path class="st26" d="M92.6,151.7c0,0-2.5-2.1-7.6-0.7c0,0,0.4,3.6,2.8,4.4S92.6,151.7,92.6,151.7z"/>
		</g>
		<g>
			<path class="st213" d="M38.6,57.4c0,0-26-10.7,0.1,15.4L38.6,57.4z"/>
			<g>
				<g>
					<path class="st26" d="M38.5,57.7c-1.3-0.5-2.6-0.9-3.9-1.2c-1.3-0.3-2.6-0.7-3.9-0.7c-0.7-0.1-1.3,0-1.9,0.1
						c-0.6,0.1-1.1,0.4-1.2,0.9c-0.2,0.5,0,1.1,0.2,1.7c0.1,0.3,0.2,0.6,0.4,0.9l0.5,0.9c0.7,1.1,1.4,2.3,2.2,3.3
						c0.8,1.1,1.7,2.1,2.5,3.2c1.7,2.1,3.6,4.1,5.4,6.1c0.1,0.1,0.1,0.2,0,0.3c-0.1,0.1-0.2,0.1-0.2,0c-2-1.9-3.9-3.8-5.8-5.8
						c-1.8-2-3.6-4.1-5-6.5l-0.5-0.9c-0.1-0.3-0.3-0.7-0.4-1c-0.2-0.7-0.4-1.5-0.1-2.3c0.1-0.2,0.2-0.4,0.3-0.6
						c0.1-0.2,0.3-0.3,0.5-0.4c0.3-0.2,0.7-0.4,1.1-0.4c0.7-0.1,1.5-0.1,2.2-0.1c2.8,0.3,5.4,1.2,7.9,2.3c0.1,0.1,0.2,0.2,0.1,0.4
						C38.8,57.7,38.7,57.7,38.5,57.7L38.5,57.7z"/>
				</g>
				<path class="st26" d="M37.8,61.3c0.2,0.3,0.4,0.5,0.5,0.9c0.1,0.3,0,0.7,0,1c-0.2,1.3-0.4,2.8-0.8,4c0,0,0,0,0,0
					c-0.1,0.3-0.5,0.4-0.8,0.2c-0.9-0.7-3.2-2.8-5.3-7.1c-1.2-2.4,2.8-1.4,3.8-1C36.2,59.8,37.1,60.4,37.8,61.3z"/>
			</g>
		</g>
	</g>
</g>
<g id="mask" class="st0">
</g>
</svg>
