<?xml version="1.0" encoding="utf-8"?>
<!-- Generator: Adobe Illustrator 21.0.0, SVG Export Plug-In . SVG Version: 6.00 Build 0)  -->
<svg version="1.1" xmlns="http://www.w3.org/2000/svg" xmlns:xlink="http://www.w3.org/1999/xlink" x="0px" y="0px"
	 viewBox="0 0 176.8 172.4" style="enable-background:new 0 0 176.8 172.4;" xml:space="preserve">
<style type="text/css">
	.st0{display:none;}
	.st1{display:inline;fill:#FD9994;}
	.st2{display:inline;fill:#FFFFFF;}
	.st3{display:inline;fill:none;stroke:#FFFFFF;stroke-width:2.2363;stroke-miterlimit:10;}
	.st4{display:inline;}
	.st5{fill:none;stroke:#FFFFFF;stroke-width:2.2363;stroke-miterlimit:10;}
	.st6{fill:#FFB380;}
	.st7{fill:#D2C3DB;}
	.st8{fill:#F9ECDC;}
	.st9{fill:#FFF58B;}
	.st10{fill:#F6BC60;}
	.st11{fill:#ECF784;}
	.st12{fill:#FFDEFF;}
	.st13{fill:#AED5D2;}
	.st14{fill:#F4BD9F;}
	.st15{fill:#B9DCFF;}
	.st16{fill:#D7FFFB;}
	.st17{fill:#81D8F7;}
	.st18{fill:#E57777;}
	.st19{fill:#D9FFDB;}
	.st20{opacity:0.1;}
	.st21{fill:#5CCDFF;}
	.st22{fill:none;}
	.st23{opacity:0.2;fill:#FFFFFF;}
	.st24{opacity:0.1;fill:#002CBF;}
	.st25{fill:#1A1A1A;}
	.st26{fill:#333333;}
	.st27{fill:#FFFFDE;}
	.st28{clip-path:url(#SVGID_4_);}
	.st29{fill:none;stroke:#333333;stroke-width:0.4917;stroke-linecap:round;stroke-linejoin:round;stroke-miterlimit:10;}
	.st30{fill:#FFFFFF;}
	.st31{fill:none;stroke:#333333;stroke-width:0.8543;stroke-miterlimit:10;}
	.st32{clip-path:url(#SVGID_6_);}
	.st33{fill:#FFD7B9;}
	.st34{fill:#F0FFFF;}
	.st35{clip-path:url(#SVGID_8_);}
	.st36{fill:#FF5C5C;}
	.st37{fill:none;stroke:#333333;stroke-width:0.466;stroke-linecap:round;stroke-linejoin:round;stroke-miterlimit:10;}
	.st38{fill:none;stroke:#333333;stroke-width:0.8095;stroke-miterlimit:10;}
	.st39{clip-path:url(#SVGID_10_);}
	.st40{fill:none;stroke:#333333;stroke-width:0.7381;stroke-linecap:round;stroke-linejoin:round;stroke-miterlimit:10;}
	.st41{fill:none;stroke:#333333;stroke-width:0.8857;stroke-linecap:round;stroke-linejoin:round;stroke-miterlimit:10;}
	.st42{fill:none;stroke:#333333;stroke-width:2.6852;stroke-linecap:round;stroke-linejoin:round;stroke-miterlimit:10;}
	.st43{fill:#72B5C4;}
	.st44{fill:#5E96A5;}
	.st45{fill:none;stroke:#FFFFFF;stroke-width:2.6852;stroke-linecap:round;stroke-linejoin:round;stroke-miterlimit:10;}
	.st46{fill:none;stroke:#FFFFFF;stroke-width:1.2942;stroke-linecap:round;stroke-linejoin:round;stroke-miterlimit:10;}
	.st47{fill:none;stroke:#FFFFFF;stroke-width:0.8311;stroke-linecap:round;stroke-linejoin:round;stroke-miterlimit:10;}
	.st48{fill:#FF5C00;}
	.st49{fill:#00B4FF;}
	.st50{fill:#FF5592;}
	.st51{fill:#733FFF;}
	.st52{fill:#DDFF15;}
	.st53{fill:#BF5855;}
	.st54{fill:none;stroke:#333333;stroke-width:0.5718;stroke-miterlimit:10;}
	.st55{fill:#C8F982;}
	.st56{fill:#AEF9C0;}
	.st57{fill:none;stroke:#FFFFFF;stroke-width:1.8326;stroke-miterlimit:10;}
	.st58{fill:#9AF6F9;}
	.st59{fill:#FFACA2;}
	.st60{fill:#F9E582;}
	.st61{fill:#FFC08B;}
	.st62{fill:#EFEB6A;}
	.st63{fill:#EC987F;}
	.st64{fill:#B5FFCC;}
	.st65{fill:#FFEDA2;}
	.st66{fill:#CCE7CC;}
	.st67{fill:#ABE7AB;}
	.st68{fill:#A6A6A6;}
	.st69{clip-path:url(#SVGID_60_);}
	.st70{fill:none;stroke:#333333;stroke-width:0.4706;stroke-linecap:round;stroke-linejoin:round;stroke-miterlimit:10;}
	.st71{fill:#FFEC55;}
	.st72{fill:none;stroke:#333333;stroke-width:0.8177;stroke-miterlimit:10;}
	.st73{clip-path:url(#SVGID_62_);}
	.st74{clip-path:url(#SVGID_64_);}
	.st75{fill:#FF7A59;}
	.st76{clip-path:url(#SVGID_66_);}
	.st77{clip-path:url(#SVGID_68_);}
	.st78{fill:#B45FFF;}
	.st79{clip-path:url(#SVGID_70_);}
	.st80{opacity:0.2;fill:#002CBF;}
	.st81{fill:none;stroke:#333333;stroke-width:0.5506;stroke-linecap:round;stroke-linejoin:round;stroke-miterlimit:10;}
	.st82{clip-path:url(#SVGID_72_);}
	.st83{fill:#EAA871;}
	.st84{fill:#FFD836;}
	.st85{fill:#FF846B;}
	.st86{fill:none;stroke:#333333;stroke-width:0.804;stroke-linecap:round;stroke-linejoin:round;stroke-miterlimit:10;}
	.st87{fill:#FEFF4A;}
	.st88{fill:none;stroke:#333333;stroke-width:0.7645;stroke-linecap:round;stroke-linejoin:round;stroke-miterlimit:10;}
	.st89{fill:none;stroke:#333333;stroke-width:0.7645;stroke-miterlimit:10;}
	.st90{fill:none;stroke:#333333;stroke-width:2.9248;stroke-linecap:round;stroke-linejoin:round;stroke-miterlimit:10;}
	.st91{fill:none;stroke:#333333;stroke-width:0.945;stroke-linecap:round;stroke-linejoin:round;stroke-miterlimit:10;}
	.st92{fill:none;stroke:#333333;stroke-width:0.945;stroke-miterlimit:10;}
	.st93{fill:none;stroke:#333333;stroke-width:3.6155;stroke-linecap:round;stroke-linejoin:round;stroke-miterlimit:10;}
	.st94{fill:none;stroke:#333333;stroke-width:0.6228;stroke-miterlimit:10;}
	.st95{fill:none;stroke:#333333;stroke-width:0.7778;stroke-linecap:round;stroke-linejoin:round;stroke-miterlimit:10;}
	.st96{fill:#FF712A;}
	.st97{fill:none;stroke:#333333;stroke-width:0.7396;stroke-linecap:round;stroke-linejoin:round;stroke-miterlimit:10;}
	.st98{fill:none;stroke:#333333;stroke-width:0.7396;stroke-miterlimit:10;}
	.st99{fill:none;stroke:#333333;stroke-width:2.8295;stroke-linecap:round;stroke-linejoin:round;stroke-miterlimit:10;}
	.st100{fill:none;stroke:#333333;stroke-width:0.9142;stroke-linecap:round;stroke-linejoin:round;stroke-miterlimit:10;}
	.st101{fill:none;stroke:#333333;stroke-width:0.9142;stroke-miterlimit:10;}
	.st102{fill:none;stroke:#333333;stroke-width:3.4977;stroke-linecap:round;stroke-linejoin:round;stroke-miterlimit:10;}
	.st103{fill:none;stroke:#333333;stroke-width:0.6025;stroke-miterlimit:10;}
	.st104{fill:url(#SVGID_89_);}
	.st105{fill:url(#SVGID_90_);}
	.st106{fill:none;stroke:#333333;stroke-width:0.7438;stroke-linecap:round;stroke-linejoin:round;stroke-miterlimit:10;}
	.st107{fill:none;stroke:#333333;stroke-width:0.8926;stroke-linecap:round;stroke-linejoin:round;stroke-miterlimit:10;}
	.st108{clip-path:url(#SVGID_92_);fill:url(#SVGID_93_);}
	.st109{fill:url(#SVGID_94_);}
	.st110{fill:#52C5FF;}
	.st111{fill:none;stroke:#333333;stroke-width:0.6367;stroke-linecap:round;stroke-linejoin:round;stroke-miterlimit:10;}
	.st112{fill:none;stroke:#333333;stroke-width:2.7061;stroke-linecap:round;stroke-linejoin:round;stroke-miterlimit:10;}
	.st113{fill:none;stroke:#333333;stroke-width:0.5763;stroke-miterlimit:10;}
	.st114{fill:none;stroke:#FFFFFF;stroke-width:1.3042;stroke-linecap:round;stroke-linejoin:round;stroke-miterlimit:10;}
	.st115{fill:none;stroke:#FFFFFF;stroke-width:0.8375;stroke-linecap:round;stroke-linejoin:round;stroke-miterlimit:10;}
	.st116{clip-path:url(#SVGID_96_);}
	.st117{opacity:0.2;fill:#2E3192;}
	.st118{fill:#FEFF78;}
	.st119{opacity:0.1;fill:#2E3192;}
	.st120{fill:#FF5A50;}
	.st121{fill:none;stroke:#333333;stroke-width:0.567;stroke-linecap:round;stroke-linejoin:round;stroke-miterlimit:10;}
	.st122{fill:none;stroke:#333333;stroke-width:2.5786;stroke-linecap:round;stroke-linejoin:round;stroke-miterlimit:10;}
	.st123{fill:none;stroke:#333333;stroke-width:0.5491;stroke-miterlimit:10;}
	.st124{clip-path:url(#SVGID_98_);}
	.st125{fill:#2AD2FF;}
	.st126{fill:none;stroke:#333333;stroke-width:0.2435;stroke-miterlimit:10;}
	.st127{fill:#FFFFFF;stroke:#333333;stroke-width:0.487;stroke-linecap:round;stroke-linejoin:round;stroke-miterlimit:10;}
	.st128{clip-path:url(#SVGID_100_);}
	.st129{fill:url(#SVGID_101_);}
	.st130{opacity:0.4;fill:#FFFFFF;}
	.st131{fill:#FFDC48;}
	.st132{fill:none;stroke:#333333;stroke-width:0.5835;stroke-linecap:round;stroke-linejoin:round;stroke-miterlimit:10;}
	.st133{fill:none;stroke:#333333;stroke-width:2.6537;stroke-linecap:round;stroke-linejoin:round;stroke-miterlimit:10;}
	.st134{fill:#F0F462;}
	.st135{fill:url(#SVGID_102_);}
	.st136{fill:url(#SVGID_103_);}
	.st137{fill:#D1DADF;}
	.st138{fill:#57FFA3;}
	.st139{clip-path:url(#SVGID_105_);}
	.st140{clip-path:url(#SVGID_107_);}
	.st141{fill:#D0BBF9;}
	.st142{clip-path:url(#SVGID_109_);}
	.st143{fill:none;stroke:#333333;stroke-width:0.5867;stroke-linecap:round;stroke-linejoin:round;stroke-miterlimit:10;}
	.st144{clip-path:url(#SVGID_111_);}
	.st145{fill:none;stroke:#333333;stroke-width:0.5514;stroke-linecap:round;stroke-linejoin:round;stroke-miterlimit:10;}
	.st146{fill:#D1E9D3;}
	.st147{clip-path:url(#SVGID_113_);}
	.st148{fill:none;stroke:#333333;stroke-width:0.7684;stroke-linecap:round;stroke-linejoin:round;stroke-miterlimit:10;}
	.st149{fill:none;stroke:#333333;stroke-width:0.7684;stroke-miterlimit:10;}
	.st150{fill:none;stroke:#333333;stroke-width:2.9398;stroke-linecap:round;stroke-linejoin:round;stroke-miterlimit:10;}
	.st151{clip-path:url(#SVGID_115_);}
	.st152{fill:#FF66F8;}
	.st153{fill:none;stroke:#333333;stroke-width:0.7542;stroke-linecap:round;stroke-linejoin:round;stroke-miterlimit:10;}
	.st154{fill:none;stroke:#333333;stroke-width:0.9051;stroke-linecap:round;stroke-linejoin:round;stroke-miterlimit:10;}
	.st155{fill:none;stroke:#333333;stroke-width:0.5146;stroke-linecap:round;stroke-linejoin:round;stroke-miterlimit:10;}
	.st156{fill:none;stroke:#333333;stroke-width:0.6033;stroke-linecap:round;stroke-linejoin:round;stroke-miterlimit:10;}
	.st157{fill:none;stroke:#333333;stroke-width:2.7439;stroke-linecap:round;stroke-linejoin:round;stroke-miterlimit:10;}
	.st158{fill:#333333;stroke:#333333;stroke-width:1.0293;stroke-linecap:round;stroke-linejoin:round;stroke-miterlimit:10;}
	.st159{fill:#FF5F2A;}
	.st160{fill:none;stroke:#333333;stroke-width:0.5965;stroke-linecap:round;stroke-linejoin:round;stroke-miterlimit:10;}
	.st161{fill:#F9CC3E;}
	.st162{clip-path:url(#SVGID_121_);}
	.st163{fill:#70E1FF;}
	.st164{fill:none;stroke:#333333;stroke-width:0.5717;stroke-linecap:round;stroke-linejoin:round;stroke-miterlimit:10;}
	.st165{fill:none;stroke:#333333;stroke-width:2.6004;stroke-linecap:round;stroke-linejoin:round;stroke-miterlimit:10;}
	.st166{clip-path:url(#SVGID_123_);}
	.st167{fill:#8F61FF;}
	.st168{clip-path:url(#SVGID_125_);}
	.st169{clip-path:url(#SVGID_127_);}
	.st170{fill:#FFEBEB;}
	.st171{clip-path:url(#SVGID_129_);}
	.st172{clip-path:url(#SVGID_131_);}
	.st173{fill:#F47D62;}
	.st174{fill:none;stroke:#333333;stroke-width:0.7188;stroke-linecap:round;stroke-linejoin:round;stroke-miterlimit:10;}
	.st175{fill:none;stroke:#333333;stroke-width:0.7188;stroke-miterlimit:10;}
	.st176{fill:none;stroke:#333333;stroke-width:2.7502;stroke-linecap:round;stroke-linejoin:round;stroke-miterlimit:10;}
	.st177{fill:#85ACB5;}
	.st178{clip-path:url(#SVGID_133_);}
	.st179{fill:#D5F2F7;}
	.st180{fill:#FF694A;}
	.st181{fill:none;stroke:#333333;stroke-width:0.5693;stroke-linecap:round;stroke-linejoin:round;stroke-miterlimit:10;}
	.st182{fill:#FFDF15;}
	.st183{fill:none;stroke:#333333;stroke-width:0.6674;stroke-linecap:round;stroke-linejoin:round;stroke-miterlimit:10;}
	.st184{fill:none;stroke:#333333;stroke-width:3.0352;stroke-linecap:round;stroke-linejoin:round;stroke-miterlimit:10;}
	.st185{clip-path:url(#SVGID_135_);}
	.st186{clip-path:url(#SVGID_137_);}
	.st187{fill:none;stroke:#333333;stroke-width:0.5248;stroke-linecap:round;stroke-linejoin:round;stroke-miterlimit:10;}
	.st188{fill:#FFD33A;}
	.st189{fill:none;stroke:#333333;stroke-width:2.7983;stroke-linecap:round;stroke-linejoin:round;stroke-miterlimit:10;}
	.st190{fill:none;stroke:#333333;stroke-width:0.7692;stroke-linecap:round;stroke-linejoin:round;stroke-miterlimit:10;}
	.st191{fill:none;stroke:#333333;stroke-width:0.5959;stroke-miterlimit:10;}
	.st192{clip-path:url(#SVGID_143_);}
	.st193{fill:#FFE267;}
	.st194{clip-path:url(#SVGID_149_);}
	.st195{fill:#FFEEAA;}
	.st196{opacity:0.7;fill:url(#SVGID_152_);}
	.st197{fill:none;stroke:#333333;stroke-width:0.611;stroke-miterlimit:10;}
	.st198{clip-path:url(#SVGID_154_);}
	.st199{opacity:0.7;fill:url(#SVGID_157_);}
	.st200{fill:#EABBFC;}
	.st201{opacity:0.7;fill:url(#SVGID_160_);}
	.st202{opacity:0.7;fill:url(#SVGID_163_);}
	.st203{opacity:0.7;fill:url(#SVGID_166_);}
	.st204{opacity:0.7;fill:url(#SVGID_169_);}
	.st205{clip-path:url(#SVGID_171_);}
	.st206{fill:none;stroke:#333333;stroke-width:0.5899;stroke-linecap:round;stroke-linejoin:round;stroke-miterlimit:10;}
	.st207{fill:none;stroke:#333333;stroke-width:2.6828;stroke-linecap:round;stroke-linejoin:round;stroke-miterlimit:10;}
	.st208{fill:none;stroke:#333333;stroke-width:0.5713;stroke-miterlimit:10;}
	.st209{clip-path:url(#SVGID_173_);}
	.st210{clip-path:url(#SVGID_175_);}
	.st211{clip-path:url(#SVGID_177_);}
	.st212{fill:#FFAFC3;}
	.st213{fill:#A0D3FF;}
	.st214{fill:none;stroke:#333333;stroke-width:0.7262;stroke-linecap:round;stroke-linejoin:round;stroke-miterlimit:10;}
	.st215{fill:none;stroke:#333333;stroke-width:0.6906;stroke-miterlimit:10;}
	.st216{fill:none;stroke:#333333;stroke-width:0.8536;stroke-miterlimit:10;}
	.st217{fill:#333333;stroke:#333333;stroke-width:0.991;stroke-linecap:round;stroke-linejoin:round;stroke-miterlimit:10;}
	.st218{clip-path:url(#SVGID_179_);}
	.st219{clip-path:url(#SVGID_181_);}
	.st220{fill:#FD9994;}
	.st221{opacity:0.2;}
	.st222{fill:#2E3192;}
	.st223{display:inline;fill:#FF5B00;}
</style>
<g id="site">
</g>
<g id="kitties">
	<g>
		<ellipse class="st20" cx="85.6" cy="149.7" rx="51" ry="7"/>
		<path class="st75" d="M116.4,135.7c0,0,9.9-1.6,10.9-3.7c0,0-3.6-7.7,1-13c4.6-5.2,7.9-5.4,7.9-5.4l-7.9,1.4c0,0,7.2-6.9,13.4-7.4
			s11,2.1,13.6,5.4s9.9,14.5,0.6,26.8c-9.2,12.3-29.1,7.7-29.1,7.7L115,144L116.4,135.7"/>
		<path class="st22" d="M116.4,135.7c0,0,9.9-1.6,10.9-3.7c0,0-3.6-7.7,1-13c4.6-5.2,7.9-5.4,7.9-5.4l-7.9,1.4c0,0,7.2-6.9,13.4-7.4
			s11,2.1,13.6,5.4s9.9,14.5,0.6,26.8c-9.2,12.3-29.1,7.7-29.1,7.7L115,144L116.4,135.7"/>
		<path class="st23" d="M159.1,119.9c-1.2-3.3-2.9-5.7-3.9-7c-2.5-3.3-7.3-5.9-13.6-5.4c-6.3,0.5-13.4,7.4-13.4,7.4
			s10.3-6.3,15.9-5.8C152.3,109.9,157.5,117.2,159.1,119.9z"/>
		<path class="st24" d="M126.8,147.4c0,0,16.1,3.7,26.1-4.6c-2.4,0.9-6.3,1.8-12.3,2.3c-6.8,0.6-23.3-1.6-19-10.2l-5.3,0.8L115,144
			L126.8,147.4z"/>
		<path class="st24" d="M126.9,132.3c0,0,2,6.8,7.2,7.3c0,0,1.5-4.8,4.5-5.1c2.7-0.2,4.1-2,4.1-2l-2,3.7c0,0,4.1,0.8,7.6-1.5
			s2.5-8.2,2.5-8.2s0,6.7-8.6,8.7l1.9-5.5c0,0-0.3,2.1-5,3.3c-3.7,0.9-4.6,2.5-5.4,5.2l0,0c0,0-4.5-2.5-6.5-6.2
			c-0.2-0.3-1.3,0.8-1.3,0.8"/>
		<g>
			<g>
				<path class="st25" d="M113.1,134.6c1.1,0.5,2.4,0.7,3.6,0.7c1.2,0,2.5-0.1,3.7-0.5c1.2-0.3,2.4-0.8,3.5-1.3l1.7-0.8
					c0.6-0.3,1.1-0.6,1.7-0.9l0,0c0.1,0,0.2,0,0.2,0.1c0,0.1,0,0.2-0.1,0.2c-0.5,0.4-1,0.8-1.6,1.1l-1.7,1c-1.2,0.6-2.4,1.1-3.6,1.4
					c-1.3,0.3-2.6,0.5-3.9,0.4c-1.3-0.1-2.6-0.4-3.7-1.2c-0.1-0.1-0.1-0.2,0-0.2C112.9,134.5,113,134.5,113.1,134.6L113.1,134.6z"/>
			</g>
			<g>
				<path class="st25" d="M113.9,143.2c4,1.8,8.2,3,12.5,3.8c4.3,0.7,8.7,1.1,13,0.7c4.3-0.3,8.6-1.5,12.1-4.1
					c3.5-2.5,5.8-6.4,7.2-10.4c1.4-4.1,1.7-8.6,0.5-12.7c-1.2-4.1-3.9-7.8-7.6-10.1c-1.8-1.2-3.8-2-5.9-2.4
					c-2.1-0.4-4.3-0.2-6.4,0.3c-4.2,1.1-7.8,3.7-10.9,6.8c-0.1,0.1-0.2,0.1-0.2,0c-0.1-0.1-0.1-0.2,0-0.2c3.1-3.1,6.7-5.9,11-7.1
					c2.1-0.6,4.4-0.7,6.6-0.4c2.2,0.4,4.3,1.2,6.2,2.4c1.9,1.2,3.6,2.7,4.9,4.5c1.4,1.8,2.4,3.8,3,5.9c1.3,4.3,1,9-0.5,13.2
					c-1.4,4.2-3.8,8.2-7.5,10.8c-3.6,2.7-8.1,3.9-12.5,4.2c-4.4,0.3-8.8-0.1-13.2-0.8c-4.3-0.8-8.6-2.1-12.5-4
					c-0.1-0.1-0.2-0.2-0.1-0.3C113.7,143.2,113.8,143.2,113.9,143.2z"/>
			</g>
			<g>
				<path class="st25" d="M136.2,113.7c-2.6,0.8-4.9,2.3-6.7,4.3c-1.7,2-2.8,4.5-3.2,7.2c-0.2,1.3-0.1,2.6,0.1,3.9
					c0.3,1.3,0.8,2.5,1.6,3.6c1.4,2.2,3.6,4,5.9,5.4c0.1,0,0.1,0.1,0.1,0.2c0,0.1-0.1,0.1-0.2,0.1c-1.2-0.6-2.4-1.4-3.5-2.2
					c-1.1-0.9-2-1.9-2.8-3.1c-0.8-1.1-1.4-2.5-1.7-3.8c-0.3-1.4-0.4-2.8-0.2-4.2c0.2-1.4,0.6-2.7,1.2-4c0.6-1.3,1.3-2.5,2.3-3.5
					c1.9-2,4.4-3.5,7.1-4c0.1,0,0.1,0,0.1,0.1C136.3,113.6,136.3,113.7,136.2,113.7L136.2,113.7z"/>
			</g>
			<g>
				<path class="st25" d="M133.6,138.2c0.2-1.2,0.6-2.4,1.3-3.5c0.3-0.5,0.8-1,1.4-1.4c0.3-0.2,0.6-0.3,0.9-0.4
					c0.4-0.1,0.7-0.1,0.9-0.1c1.1-0.1,2.3-0.5,3.3-0.9c0.5-0.2,1-0.5,1.5-0.9c0.5-0.3,0.8-0.8,1.1-1.3l0,0c0-0.1,0.1-0.1,0.2-0.1
					c0.1,0,0.1,0.1,0.1,0.2c-0.4,1.3-1.5,2.1-2.6,2.7c-1.1,0.6-2.3,0.9-3.5,1.1c-0.3,0-0.6,0.1-0.9,0.1c-0.3,0.1-0.5,0.1-0.7,0.3
					c-0.5,0.3-0.8,0.7-1.2,1.1c-0.7,0.9-1.2,2-1.5,3.1l0,0c0,0.1-0.1,0.1-0.2,0.1C133.7,138.3,133.6,138.3,133.6,138.2z"/>
			</g>
			<g>
				<path class="st25" d="M144.4,129.8c-0.1,1-0.4,1.9-0.7,2.9c-0.2,0.5-0.3,0.9-0.6,1.4c-0.2,0.4-0.4,0.9-0.8,1.3
					c-0.1,0.1-0.2,0.1-0.2,0c-0.1,0-0.1-0.1-0.1-0.2l0,0c0.2-0.9,0.5-1.9,0.8-2.8c0.3-0.9,0.6-1.8,1.1-2.7c0.1-0.1,0.2-0.1,0.3-0.1
					C144.4,129.6,144.4,129.7,144.4,129.8z"/>
			</g>
			<g>
				<path class="st25" d="M142.2,135.1c1-0.3,2.1-0.7,3-1.1c0.9-0.5,1.8-1.1,2.6-1.8c0.8-0.7,1.4-1.6,1.9-2.5c0.5-0.9,0.8-2,1-3l0,0
					c0-0.1,0.1-0.1,0.2-0.1c0.1,0,0.1,0.1,0.1,0.2c0,0.6-0.1,1.1-0.2,1.7c-0.1,0.5-0.3,1.1-0.5,1.6c-0.2,0.5-0.5,1-0.8,1.5
					c-0.4,0.5-0.7,0.9-1.1,1.3c-0.8,0.8-1.8,1.4-2.8,1.9c-1,0.4-2.1,0.8-3.3,0.8c-0.1,0-0.2-0.1-0.2-0.2
					C142.1,135.2,142.2,135.1,142.2,135.1L142.2,135.1z"/>
			</g>
		</g>
		<g>
			<path class="st25" d="M128.2,114.8c1.3-0.3,2.6-0.6,3.9-0.8c1.3-0.2,2.7-0.4,4-0.5c0.1,0,0.1,0,0.1,0.1c0,0.1,0,0.1-0.1,0.1l0,0
				c-1.3,0.4-2.6,0.6-3.9,0.9c-1.3,0.2-2.6,0.4-4,0.6c-0.1,0-0.2-0.1-0.2-0.1C128.1,114.9,128.1,114.8,128.2,114.8z"/>
		</g>
		<path class="st16" d="M124.4,53.7c0,0,37.7-31-23.7-12.6L124.4,53.7z"/>
		<path class="st16" d="M45.2,53.7c0,0-37.7-31,23.7-12.6"/>
		<g>
			<path class="st26" d="M45.1,53.8c-3.6-3-7.2-6.2-9.9-10.2c-0.7-1-1.3-2.1-1.6-3.3c-0.2-0.6-0.3-1.2-0.2-1.9
				c0.1-0.7,0.4-1.3,0.8-1.8c0.5-0.5,1-0.8,1.6-1.1c0.6-0.2,1.2-0.4,1.8-0.5c1.2-0.2,2.4-0.3,3.6-0.3c4.8,0.1,9.5,1.1,14.1,2.3
				c4.6,1.1,9.1,2.5,13.7,3.9c0.1,0,0.1,0.1,0.1,0.2c0,0.1-0.1,0.1-0.2,0.1c-4.5-1.3-9.1-2.5-13.7-3.5c-2.3-0.5-4.6-1-6.9-1.3
				c-2.3-0.4-4.7-0.7-7-0.7c-1.2,0-2.3,0-3.5,0.2c-1.1,0.2-2.2,0.5-3,1.3c-0.7,0.7-0.8,1.9-0.5,3c0.3,1.1,0.8,2.1,1.5,3.1
				c1.3,2,2.8,3.8,4.4,5.5c1.6,1.7,3.3,3.4,5.1,4.9c0.1,0,0.1,0.1,0,0.2C45.3,53.8,45.2,53.8,45.1,53.8z"/>
		</g>
		<g>
			<path class="st26" d="M60.6,43.2c-2-0.5-3.9-0.9-5.9-1.2c-2-0.3-4-0.6-6-0.7c-2-0.2-4-0.4-6-0.4c-2-0.1-4-0.1-6,0
				c-0.1,0-0.2-0.1-0.2-0.2c0-0.1,0.1-0.2,0.2-0.2c2-0.2,4-0.3,6.1-0.4c2,0,4.1,0,6.1,0.2c2,0.2,4,0.6,6,1c2,0.4,3.9,1,5.9,1.6
				c0.1,0,0.1,0.1,0.1,0.2C60.7,43.2,60.7,43.3,60.6,43.2z"/>
		</g>
		<path class="st26" d="M50.4,49.3c0.6,0.1,1.2,0.2,1.7,0.1c0.6-0.1,1.1-0.5,1.5-0.8c1.9-1.4,3.8-2.8,5.7-4.2
			c0.3-0.2,0.6-0.5,0.5-0.8c0-0.1,3.6,0.5,1-0.2c-1-0.3-3-1-4.1-1.2c-4.3-0.8-8.7-1.4-13-1.7c-4.7-0.4,0.1,5.4,1.6,6.6
			C46.8,48.1,48.6,48.9,50.4,49.3z"/>
		<g>
			<path class="st26" d="M124.4,53.6c1.8-1.6,3.5-3.2,5.1-4.9c1.6-1.7,3.2-3.5,4.4-5.5c0.6-1,1.2-2,1.5-3.1c0.3-1.1,0.2-2.2-0.5-3
				c-0.7-0.7-1.9-1.1-3-1.3c-1.1-0.2-2.3-0.2-3.5-0.2c-2.3,0.1-4.7,0.4-7,0.7c-2.3,0.4-4.6,0.8-6.9,1.3c-4.6,1-9.2,2.2-13.7,3.5
				c-0.1,0-0.2,0-0.2-0.1c0-0.1,0-0.2,0.1-0.2c4.5-1.4,9-2.8,13.7-3.9c4.6-1.1,9.3-2.1,14.1-2.3c1.2,0,2.4,0,3.6,0.3
				c0.6,0.1,1.2,0.3,1.8,0.5c0.6,0.2,1.2,0.6,1.6,1.1c0.5,0.5,0.8,1.1,0.8,1.8c0.1,0.7,0,1.3-0.2,1.9c-0.3,1.2-1,2.3-1.6,3.3
				c-2.7,4-6.2,7.2-9.9,10.2c-0.1,0-0.1,0-0.2,0C124.3,53.7,124.3,53.7,124.4,53.6z"/>
		</g>
		<g>
			<path class="st26" d="M109,43c1.9-0.6,3.9-1.2,5.9-1.6c2-0.4,4-0.8,6-1c2-0.2,4.1-0.3,6.1-0.2c2,0,4.1,0.1,6.1,0.4
				c0.1,0,0.2,0.1,0.2,0.2c0,0.1-0.1,0.2-0.2,0.2c-2-0.1-4-0.1-6,0c-2,0.1-4,0.3-6,0.4c-2,0.2-4,0.4-6,0.7c-2,0.3-4,0.7-5.9,1.2
				c-0.1,0-0.1,0-0.1-0.1C108.9,43.1,108.9,43,109,43z"/>
		</g>
		<path class="st26" d="M119.2,49.3c-0.6,0.1-1.2,0.2-1.7,0.1c-0.6-0.1-1.1-0.5-1.5-0.8c-1.9-1.4-3.8-2.8-5.7-4.2
			c-0.3-0.2-0.6-0.5-0.5-0.8c0-0.1,0.1-0.3,0.3-0.4c0.8-0.7,1.8-0.9,2.9-1.1c4.3-0.8,8.7-1.4,13-1.7c4.7-0.4-0.1,5.4-1.6,6.6
			C122.8,48.1,121.1,48.9,119.2,49.3z"/>
		<path class="st16" d="M126.2,92.5c9-3.7,9.6-7.4,9.6-7.4s-1.4,0.4-2.8,0.2c-1.8-0.2-3.6-0.9-3.2-1c3.4-1,4.7-3.4,4.7-3.4
			c-1.4-0.4-3-1.5-3.1-2.3c0.1-1.6,0.1-2.9,0.1-3.6c0.3-14.6-8.8-23.1-8.8-23.1s-6.4-9-25-12.6c0.2-1.1,0.3-2.1,0.3-3.1
			c0.1-2.7-2.2-5.6-2.2-5.6c-0.3,4.6-2.4,5.6-2.4,5.6c1.1-3.1-1.3-6.6-3.9-9.2c-2.6-2.6-8.6-5.8-8.6-5.8s0.4,2.9,0.2,4.9
			c-0.1,2-2.9,4.2-4.8,6.2c-1.9,2-0.9,5.9-0.9,5.9c-1.8-0.2-3.2-3.8-3.2-3.8l-0.7,1.9c-0.2,0.9,0,1.8,0.3,2.8
			c-0.2,0-0.4,0.1-0.6,0.1c0,0-10.7,1.4-21.4,9.3c-2.1,1.6-3.3,3.7-5.3,5.8c0,0-2.3,2-3.7,5.7c-1.7,4.6-3.5,11.2-3,17.8
			c0,0.3,0.1,0.6,0.1,0.9c-0.1,0.7-1.1,1.5-3.1,2.1c0,0,1.6,2.4,4.7,3.4c0,0-1.5,1-6,0.8c-0.4,0,2.3,4.5,9.6,7.4l-3.7,0.4L36,92.5
			c3.1,4.1,10.3,6.9,10.3,6.9l6.7,1.3c1.4,0.9,3.4,2,4.8,2.7c0.6,0.3,1.2,0.6,1.9,0.9c1.5,0.8,2.8,1.4,3.4,1.5
			c-1.1,2.6-12,26.6-9.8,35.6c-1,7.6,14.5,8.6,22.7,8.2c0,0,0.6,3.2,4.5,3.6c2.3,0.2,2.8-4.3,3.1-4c0.2,0.2,2.9,0,2.9,0
			c0,0,1.2,3.3,3,4.2c2.2,1.1,3.8-3.3,4.6-3.9c0,0,18.2,1.8,21.7-4.9c2.1-4-0.6-16.5-3.8-26.1c-1.8-5.4-4.4-10.8-5.4-12.7
			c0.3-0.1,0.9-0.3,1.6-0.7c0.8-0.2,1.8-0.6,2.8-1.2c1.3-0.7,3.9-2.2,5.6-3.3c0,0,13.9-2,16.9-8.3c0.3-0.6-1.8,0.9-4.6,0.2
			C128.5,92.6,125.8,92.7,126.2,92.5z"/>
		<g>
			<defs>
				<path id="SVGID_67_" d="M126.2,92.5c9-3.7,9.6-7.4,9.6-7.4s-1.4,0.4-2.8,0.2c-1.8-0.2-3.6-0.9-3.2-1c3.4-1,4.7-3.4,4.7-3.4
					c-1.4-0.4-3-1.5-3.1-2.3c0.1-1.6,0.1-2.9,0.1-3.6c0.3-14.6-8.8-23.1-8.8-23.1s-6.4-9-25-12.6c0.2-1.1,0.3-2.1,0.3-3.1
					c0.1-2.7-2.2-5.6-2.2-5.6c-0.3,4.6-2.4,5.6-2.4,5.6c1.1-3.1-1.3-6.6-3.9-9.2c-2.6-2.6-8.6-5.8-8.6-5.8s0.4,2.9,0.2,4.9
					c-0.1,2-2.9,4.2-4.8,6.2c-1.9,2-0.9,5.9-0.9,5.9c-1.8-0.2-3.2-3.8-3.2-3.8l-0.7,1.9c-0.2,0.9,0,1.8,0.3,2.8
					c-0.2,0-0.4,0.1-0.6,0.1c0,0-10.7,1.4-21.4,9.3c-2.1,1.6-3.3,3.7-5.3,5.8c0,0-2.3,2-3.7,5.7c-1.7,4.6-3.5,11.2-3,17.8
					c0,0.3,0.1,0.6,0.1,0.9c-0.1,0.7-1.1,1.5-3.1,2.1c0,0,1.6,2.4,4.7,3.4c0,0-1.5,1-6,0.8c-0.4,0,2.3,4.5,9.6,7.4l-3.7,0.4L36,92.5
					c3.1,4.1,10.3,6.9,10.3,6.9l6.7,1.3c1.4,0.9,3.4,2,4.8,2.7c0.6,0.3,1.2,0.6,1.9,0.9c1.5,0.8,2.8,1.4,3.4,1.5
					c-1.1,2.6-12,26.6-9.8,35.6c-1,7.6,14.5,8.6,22.7,8.2c0,0,0.6,3.2,4.5,3.6c2.3,0.2,2.8-4.3,3.1-4c0.2,0.2,2.9,0,2.9,0
					c0,0,1.2,3.3,3,4.2c2.2,1.1,3.8-3.3,4.6-3.9c0,0,18.2,1.8,21.7-4.9c2.1-4-0.6-16.5-3.8-26.1c-1.8-5.4-4.4-10.8-5.4-12.7
					c0.3-0.1,0.9-0.3,1.6-0.7c0.8-0.2,1.8-0.6,2.8-1.2c1.3-0.7,3.9-2.2,5.6-3.3c0,0,13.9-2,16.9-8.3c0.3-0.6-1.8,0.9-4.6,0.2
					C128.5,92.6,125.8,92.7,126.2,92.5z"/>
			</defs>
			<clipPath id="SVGID_2_">
				<use xlink:href="#SVGID_67_"  style="overflow:visible;"/>
			</clipPath>
			<g style="clip-path:url(#SVGID_2_);">
				<g>
					<path class="st75" d="M35.7,56.8c0.6-0.6,1.4-1,2.1-1.3c0.8-0.3,1.5-0.5,2.3-0.7c0.8-0.2,1.6-0.2,2.4-0.3c0.8,0,1.6,0,2.4,0.1
						l0.6,0.1l0.6,0.1c0.4,0.1,0.8,0.2,1.2,0.3c0.8,0.3,1.5,0.5,2.2,0.9c1.4,0.7,2.8,1.8,3.7,3.1c0.1,0.2,0.1,0.4-0.1,0.6
						c-0.1,0.1-0.2,0.1-0.2,0.1l0,0c-0.9,0-1.6-0.1-2.3-0.2c-0.4,0-0.7-0.1-1.1-0.2c-0.4-0.1-0.7-0.1-1.1-0.2
						c-0.7-0.1-1.4-0.2-2.1-0.3l-1-0.2c-0.3-0.1-0.7-0.1-1-0.2c-1.4-0.2-2.7-0.5-4.2-0.8C38.8,57.6,37.4,57.3,35.7,56.8z"/>
					<path class="st75" d="M38.1,47.1c1.5-0.6,3.1-0.7,4.7-0.6c1.6,0.1,3.1,0.4,4.6,0.9c0.8,0.2,1.5,0.6,2.2,0.9
						c0.7,0.4,1.4,0.8,2,1.3c1.3,0.9,2.4,2.1,3.2,3.5c0.1,0.2,0.1,0.4-0.1,0.5c-0.1,0.1-0.2,0.1-0.3,0l0,0c-0.8-0.2-1.4-0.6-2.1-0.9
						c-0.3-0.1-0.7-0.3-1-0.5c-0.3-0.2-0.7-0.3-1-0.4c-0.6-0.3-1.3-0.6-1.9-0.9l-1-0.4l-0.5-0.2l-0.5-0.2c-1.3-0.5-2.6-1-4-1.5
						C41,48.2,39.6,47.7,38.1,47.1z"/>
					<path class="st75" d="M33.4,64.9c0.7-0.6,1.4-1,2.1-1.3c0.7-0.4,1.5-0.6,2.3-0.8c1.6-0.4,3.2-0.6,4.8-0.5
						c1.6,0.1,3.2,0.4,4.8,1c0.4,0.2,0.8,0.3,1.1,0.5c0.4,0.2,0.7,0.4,1.1,0.6c0.2,0.1,0.3,0.2,0.5,0.3c0.2,0.1,0.3,0.3,0.5,0.4
						c0.3,0.3,0.6,0.6,0.9,0.9c0.2,0.2,0.2,0.5,0,0.7c-0.1,0.1-0.2,0.1-0.3,0.1l0,0c-1.7,0.1-3.1-0.1-4.5-0.1
						c-1.4-0.1-2.8-0.2-4.2-0.3c-1.4-0.1-2.8-0.3-4.3-0.5C36.5,65.6,35,65.3,33.4,64.9z"/>
					<path class="st75" d="M28.1,71c2-0.6,4-0.8,6-0.9c2-0.1,4-0.1,6,0.1c2,0.2,4,0.5,5.9,0.9c2,0.5,3.9,1.1,5.8,2
						c0.3,0.1,0.4,0.5,0.2,0.7c-0.1,0.2-0.2,0.3-0.4,0.3l0,0c-2.1,0.3-4,0.3-6,0.3c-2-0.1-3.9-0.2-5.9-0.5c-2-0.3-3.9-0.6-5.8-1
						C32,72.4,30,71.9,28.1,71z"/>
					<path class="st75" d="M24,77.1c2-0.7,4-1,6-1.3c2-0.2,4-0.3,6-0.2c2,0.1,4,0.2,6,0.6c2,0.4,4,0.8,5.9,1.7
						c0.3,0.1,0.4,0.4,0.3,0.7c-0.1,0.2-0.2,0.3-0.4,0.3l0,0c-2,0.4-4,0.5-6,0.6c-2,0.1-3.9,0-5.9-0.1c-2-0.1-3.9-0.4-5.9-0.7
						C27.9,78.3,26,77.9,24,77.1z"/>
					<path class="st75" d="M47,60.6c0.6-0.3,1.2-0.3,1.8-0.3c0.6,0,1.2,0.1,1.7,0.3c0.6,0.2,1.1,0.5,1.6,0.8
						c0.5,0.4,0.9,0.8,1.2,1.4c0.1,0.1,0,0.3-0.1,0.3c0,0-0.1,0-0.1,0l0,0c-0.6,0-1.1-0.2-1.7-0.3c-0.5-0.1-1-0.3-1.5-0.5
						c-0.5-0.2-1-0.4-1.5-0.6c-0.5-0.2-1-0.5-1.5-0.8l0,0C46.8,61,46.8,60.8,47,60.6C46.9,60.7,46.9,60.7,47,60.6z"/>
					<path class="st75" d="M50.2,54.2c0.6,0,1.1,0.2,1.6,0.3c0.5,0.2,1,0.4,1.4,0.7c0.4,0.3,0.8,0.6,1.2,0.9c0.4,0.4,0.7,0.8,1,1.3
						c0.1,0.1,0,0.2-0.1,0.3c0,0-0.1,0-0.1,0c-0.6-0.1-1.1-0.2-1.5-0.4c-0.5-0.2-0.9-0.4-1.3-0.7c-0.4-0.3-0.8-0.6-1.2-0.9
						c-0.4-0.3-0.7-0.7-1.1-1.2l0,0c-0.1-0.1,0-0.2,0.1-0.3C50.1,54.2,50.1,54.2,50.2,54.2z"/>
					<path class="st75" d="M44.5,68.2c0.7-0.3,1.3-0.4,2-0.5c0.7-0.1,1.3,0,2,0.1c0.7,0.1,1.3,0.3,2,0.5c0.6,0.3,1.3,0.6,1.8,1.1
						c0.1,0.1,0.1,0.3,0,0.3c0,0-0.1,0.1-0.2,0.1l0,0c-0.7,0.1-1.3,0.1-2,0c-0.6,0-1.3-0.1-1.9-0.2c-0.6-0.1-1.2-0.2-1.9-0.4
						c-0.6-0.2-1.3-0.4-1.9-0.7l0,0c-0.1-0.1-0.2-0.2-0.1-0.3C44.4,68.2,44.4,68.2,44.5,68.2z"/>
					<path class="st75" d="M45.6,75.7c0.4-0.2,0.8-0.3,1.2-0.4c0.4,0,0.8,0,1.2,0c0.4,0,0.8,0.1,1.2,0.3c0.4,0.2,0.7,0.3,1.1,0.7
						c0.1,0.1,0.1,0.2,0,0.3c0,0,0,0-0.1,0.1l0,0c-0.4,0.2-0.8,0.3-1.2,0.3c-0.4,0-0.8,0-1.2,0c-0.4-0.1-0.8-0.1-1.1-0.3
						c-0.4-0.1-0.7-0.3-1.1-0.6l0,0C45.5,76,45.4,75.9,45.6,75.7C45.5,75.8,45.5,75.7,45.6,75.7z"/>
				</g>
				<g>
					<path class="st75" d="M131.5,56.8c-1.6,0.5-3.1,0.8-4.5,1.1c-1.4,0.3-2.8,0.5-4.2,0.8c-0.3,0.1-0.7,0.1-1,0.2l-1,0.2
						c-0.7,0.1-1.4,0.2-2.1,0.3c-0.3,0.1-0.7,0.1-1.1,0.2c-0.4,0.1-0.7,0.1-1.1,0.2c-0.7,0.1-1.5,0.2-2.3,0.2l0,0
						c-0.2,0-0.4-0.2-0.4-0.4c0-0.1,0-0.2,0.1-0.2c1-1.4,2.3-2.4,3.7-3.1c0.7-0.4,1.5-0.7,2.2-0.9c0.4-0.1,0.8-0.2,1.2-0.3l0.6-0.1
						l0.6-0.1c0.8-0.1,1.6-0.1,2.4-0.1c0.8,0,1.6,0.1,2.4,0.3c0.8,0.2,1.6,0.4,2.3,0.7C130.2,55.9,130.9,56.2,131.5,56.8z"/>
					<path class="st75" d="M129.1,47.1c-1.5,0.6-2.9,1.1-4.2,1.6c-1.4,0.5-2.7,1-4,1.5l-0.5,0.2l-0.5,0.2l-1,0.4
						c-0.6,0.3-1.3,0.6-1.9,0.9c-0.3,0.2-0.7,0.3-1,0.4c-0.3,0.2-0.7,0.3-1,0.5c-0.7,0.3-1.3,0.6-2.1,0.9l0,0
						c-0.2,0.1-0.4,0-0.5-0.3c0-0.1,0-0.2,0-0.3c0.8-1.4,1.9-2.6,3.2-3.5c0.6-0.5,1.3-0.9,2-1.3c0.7-0.3,1.4-0.7,2.2-0.9
						c1.5-0.5,3.1-0.9,4.6-0.9C126,46.4,127.6,46.5,129.1,47.1z"/>
					<path class="st75" d="M133.9,64.9c-1.6,0.4-3.1,0.7-4.6,0.9c-1.5,0.2-2.9,0.4-4.3,0.5c-1.4,0.1-2.8,0.2-4.2,0.3
						c-1.4,0.1-2.9,0.2-4.5,0.1l0,0c-0.3,0-0.5-0.2-0.4-0.5c0-0.1,0-0.2,0.1-0.3c0.3-0.3,0.6-0.6,0.9-0.9c0.2-0.1,0.3-0.3,0.5-0.4
						c0.2-0.1,0.3-0.2,0.5-0.3c0.3-0.2,0.7-0.4,1.1-0.6c0.4-0.2,0.7-0.3,1.1-0.5c1.5-0.6,3.2-0.9,4.8-1c1.6-0.1,3.2,0.1,4.8,0.5
						c0.8,0.2,1.5,0.5,2.3,0.8C132.5,63.9,133.2,64.3,133.9,64.9z"/>
					<path class="st75" d="M139.2,71c-1.9,0.9-3.9,1.4-5.8,1.9c-1.9,0.5-3.9,0.8-5.8,1c-2,0.3-3.9,0.4-5.9,0.5c-2,0-4,0-6-0.3l0,0
						c-0.3,0-0.5-0.3-0.5-0.6c0-0.2,0.1-0.3,0.3-0.4c1.9-1,3.8-1.6,5.8-2c2-0.5,3.9-0.7,5.9-0.9c2-0.2,4-0.2,6-0.1
						C135.1,70.2,137.1,70.4,139.2,71z"/>
					<path class="st75" d="M143.3,77.1c-2,0.8-3.9,1.2-5.9,1.6c-2,0.3-3.9,0.6-5.9,0.7c-2,0.1-3.9,0.2-5.9,0.1c-2-0.1-3.9-0.2-6-0.6
						l0,0c-0.3-0.1-0.5-0.3-0.4-0.6c0-0.2,0.2-0.3,0.3-0.4c1.9-0.9,3.9-1.3,5.9-1.7c2-0.3,4-0.5,6-0.6c2-0.1,4,0,6,0.2
						C139.3,76.1,141.3,76.4,143.3,77.1z"/>
					<path class="st75" d="M120.3,61c-0.5,0.4-1,0.6-1.5,0.8c-0.5,0.2-1,0.4-1.5,0.6c-0.5,0.2-1,0.3-1.5,0.5c-0.5,0.1-1,0.3-1.7,0.3
						l0,0c-0.1,0-0.3-0.1-0.3-0.2c0-0.1,0-0.1,0-0.1c0.3-0.6,0.7-1,1.2-1.4c0.5-0.4,1-0.6,1.6-0.8c0.6-0.2,1.1-0.3,1.7-0.3
						c0.6,0,1.2,0,1.8,0.3c0.1,0,0.2,0.2,0.1,0.3C120.4,61,120.4,61,120.3,61L120.3,61z"/>
					<path class="st75" d="M117.3,54.5c-0.3,0.5-0.7,0.8-1.1,1.2c-0.4,0.3-0.8,0.6-1.2,0.9c-0.4,0.3-0.9,0.5-1.3,0.7
						c-0.5,0.2-1,0.4-1.5,0.4c-0.1,0-0.2-0.1-0.2-0.2c0,0,0-0.1,0-0.1c0.3-0.5,0.6-0.9,1-1.3c0.4-0.4,0.8-0.7,1.2-0.9
						c0.4-0.3,0.9-0.5,1.4-0.7c0.5-0.2,1-0.3,1.6-0.3c0.1,0,0.2,0.1,0.2,0.2C117.3,54.4,117.3,54.5,117.3,54.5L117.3,54.5z"/>
					<path class="st75" d="M122.8,68.6c-0.6,0.3-1.3,0.5-1.9,0.7c-0.6,0.2-1.2,0.3-1.9,0.4c-0.6,0.1-1.2,0.1-1.9,0.2
						c-0.6,0-1.3,0-2,0l0,0c-0.1,0-0.2-0.1-0.2-0.3c0-0.1,0-0.1,0.1-0.2c0.5-0.5,1.1-0.8,1.8-1.1c0.6-0.2,1.3-0.4,2-0.5
						c0.7-0.1,1.3-0.1,2-0.1c0.7,0.1,1.3,0.2,2,0.5c0.1,0,0.2,0.2,0.1,0.3C122.9,68.5,122.9,68.6,122.8,68.6L122.8,68.6z"/>
					<path class="st75" d="M121.7,76.1c-0.4,0.3-0.7,0.5-1.1,0.6c-0.4,0.1-0.8,0.2-1.1,0.3c-0.4,0.1-0.8,0.1-1.2,0
						c-0.4,0-0.8-0.1-1.2-0.3l0,0c-0.1-0.1-0.2-0.2-0.1-0.3c0,0,0-0.1,0.1-0.1c0.3-0.3,0.7-0.5,1.1-0.7c0.4-0.1,0.8-0.2,1.2-0.3
						c0.4,0,0.8-0.1,1.2,0c0.4,0.1,0.8,0.1,1.2,0.4C121.8,75.8,121.8,75.9,121.7,76.1C121.8,76,121.8,76.1,121.7,76.1L121.7,76.1z"
						/>
				</g>
				<g>
					<path class="st75" d="M69.1,113.1c-0.3,0-0.7,0-1-0.1c-0.3,0-0.6-0.1-1-0.1c-0.6-0.1-1.2-0.2-1.8-0.3c-1.2-0.3-2.4-0.6-3.6-1.1
						c-0.6-0.2-1.2-0.4-1.7-0.7c-0.6-0.3-1.2-0.6-1.7-0.9c-0.6-0.3-1.1-0.7-1.7-1.1c-0.6-0.4-1.1-0.8-1.7-1.4
						c1.4-0.6,2.8-0.7,4.2-0.7c0.7,0,1.4,0.1,2,0.2c0.7,0.1,1.3,0.2,2,0.4c1.3,0.4,2.6,0.9,3.7,1.7c0.6,0.4,1.1,0.8,1.7,1.4
						c0.3,0.3,0.5,0.5,0.7,0.9c0.2,0.3,0.4,0.6,0.6,1.1c0.1,0.3,0,0.7-0.3,0.8c-0.1,0-0.2,0.1-0.2,0.1L69.1,113.1z"/>
					<path class="st75" d="M71.8,119.3c-2.1,0.1-4.1,0.1-6.1,0.1c-2,0-3.9,0-5.9,0.1c-1,0-1.9,0.1-2.9,0.1c-1,0.1-2,0.1-2.9,0.2
						c-2,0.1-4,0.4-6.3,0.5c0.4-0.4,0.8-0.8,1.2-1.1c0.2-0.2,0.4-0.4,0.6-0.5c0.2-0.2,0.5-0.3,0.7-0.5c0.5-0.3,0.9-0.6,1.4-0.9
						c0.2-0.2,0.5-0.2,0.7-0.4c0.3-0.1,0.5-0.2,0.8-0.3l0.8-0.3c0.3-0.1,0.5-0.2,0.8-0.3c0.5-0.2,1.1-0.3,1.6-0.5
						c1.1-0.2,2.2-0.4,3.3-0.5c2.2-0.2,4.4,0,6.6,0.5c0.5,0.1,1.1,0.3,1.6,0.4c0.5,0.2,1,0.4,1.5,0.6c0.5,0.2,1,0.5,1.5,0.7
						c0.5,0.3,1,0.6,1.4,0.9c0.3,0.2,0.3,0.6,0.1,0.9C72.2,119.2,72,119.2,71.8,119.3L71.8,119.3z"/>
					<path class="st75" d="M69.4,126.2c-1.9,0.5-3.7,0.7-5.5,0.9c-1.8,0.2-3.6,0.3-5.3,0.5c-0.9,0-1.8,0.1-2.7,0.2
						c-0.4,0-0.9,0.1-1.3,0.1c-0.4,0-0.9,0-1.3,0.1c-1.8,0-3.6,0.2-5.7,0c0.4-0.3,0.7-0.7,1.1-1c0.2-0.2,0.4-0.3,0.6-0.4
						c0.2-0.1,0.4-0.3,0.6-0.4c0.4-0.2,0.9-0.5,1.3-0.7c0.4-0.2,0.9-0.4,1.3-0.6l0.7-0.3c0.2-0.1,0.5-0.1,0.7-0.2
						c0.5-0.1,0.9-0.3,1.4-0.4c0.9-0.2,1.9-0.4,2.9-0.5c1.9-0.2,3.9-0.2,5.8,0c0.5,0.1,1,0.1,1.4,0.2c0.5,0.1,0.9,0.2,1.4,0.3
						c0.9,0.3,1.9,0.6,2.8,1.1c0.3,0.2,0.4,0.5,0.2,0.8C69.8,126,69.6,126.1,69.4,126.2L69.4,126.2z"/>
					<path class="st75" d="M67,134.9c-2,0.2-3.9,0.3-5.8,0.4c-1.9,0.1-3.8,0.2-5.6,0.3l-0.7,0l-0.7,0.1l-1.4,0.1
						c-0.9,0.1-1.9,0.1-2.8,0.2c-0.5,0-1,0.1-1.4,0.1c-0.5,0.1-1,0.1-1.5,0.1c-0.5,0-1,0.1-1.5,0.1c-0.5,0-1,0.1-1.5,0.1
						c1.6-1.4,3.4-2.4,5.3-3.2c1-0.4,1.9-0.7,2.9-0.9c1-0.2,2-0.4,3-0.5c2-0.2,4.1-0.2,6.1,0.1c2,0.3,4,0.9,5.9,2
						c0.3,0.1,0.3,0.5,0.2,0.7C67.3,134.8,67.2,134.9,67,134.9L67,134.9z"/>
					<path class="st75" d="M64.8,140.4c-1.9,0.5-3.8,0.9-5.7,1.2c-1.9,0.3-3.7,0.6-5.6,0.9l-5.6,0.8c-1.9,0.2-3.8,0.6-5.9,0.7
						c1.5-1.4,3.2-2.5,5.1-3.4c0.5-0.2,0.9-0.4,1.4-0.6c0.5-0.2,0.9-0.3,1.4-0.5c1-0.3,1.9-0.6,2.9-0.8c2-0.4,4-0.6,6-0.5
						c2,0.1,4,0.3,6,1.1c0.3,0.1,0.4,0.4,0.3,0.7C65.1,140.2,65,140.3,64.8,140.4L64.8,140.4z"/>
					<path class="st75" d="M62.4,144.3c-0.9,0.7-1.8,1.2-2.8,1.6c-1,0.4-2,0.7-3,0.9c-1,0.2-2.1,0.3-3.1,0.3c-1,0-2.1-0.1-3.1-0.4
						c1-0.5,2-0.7,2.9-1.1c1-0.3,1.9-0.6,2.9-0.8c1-0.2,1.9-0.4,2.9-0.6c1-0.2,2-0.3,3-0.3l0,0c0.2,0,0.3,0.1,0.3,0.3
						C62.5,144.2,62.5,144.3,62.4,144.3z"/>
					<path class="st75" d="M57.3,129.3c1-0.4,2-0.7,3.1-0.8c1-0.1,2.1-0.2,3.2-0.1c1.1,0.1,2.1,0.2,3.2,0.5c1,0.3,2.1,0.7,2.9,1.4
						c0.1,0.1,0.1,0.2,0,0.3c0,0-0.1,0.1-0.2,0.1l0,0l-3-0.2l-3-0.1c-1,0-2-0.1-3-0.1c-1-0.1-2-0.2-3.1-0.4l0,0
						c-0.2,0-0.3-0.2-0.2-0.3C57.1,129.5,57.2,129.4,57.3,129.3z"/>
					<path class="st75" d="M63.9,121c0.8-0.3,1.5-0.5,2.3-0.6c0.8-0.1,1.5-0.1,2.3-0.1c0.8,0,1.6,0.2,2.3,0.4c0.8,0.2,1.5,0.5,2.2,1
						c0.1,0.1,0.1,0.2,0,0.3c0,0-0.1,0.1-0.1,0.1l0,0c-0.8,0.1-1.5,0.2-2.3,0.3c-0.7,0-1.5,0.1-2.2,0c-0.7,0-1.5-0.1-2.2-0.2
						c-0.8-0.1-1.5-0.3-2.3-0.6l0,0c-0.2-0.1-0.2-0.2-0.2-0.4C63.8,121.1,63.8,121,63.9,121z"/>
					<path class="st75" d="M71.4,123.9c0.3-0.1,0.6-0.2,0.9-0.2c0.3,0,0.6,0,0.9,0c0.3,0,0.6,0.1,0.8,0.2c0.3,0.1,0.5,0.3,0.8,0.5
						c0,0,0,0.1,0,0.1c0,0,0,0,0,0l0,0c-0.3,0.1-0.6,0.1-0.9,0.1c-0.3,0-0.6,0-0.8,0c-0.3,0-0.5-0.1-0.8-0.2
						c-0.3-0.1-0.5-0.2-0.8-0.3l0,0C71.3,124.1,71.3,124,71.4,123.9C71.4,123.9,71.4,123.9,71.4,123.9z"/>
					<path class="st75" d="M68.9,114.5c0.7-0.2,1.3-0.3,2-0.3c0.7,0,1.3,0.1,1.9,0.3c0.6,0.2,1.2,0.4,1.8,0.8
						c0.6,0.3,1.1,0.8,1.5,1.3c0.1,0.1,0,0.2,0,0.2c0,0-0.1,0-0.1,0l0,0c-0.7-0.1-1.3-0.2-1.9-0.3c-0.6-0.1-1.2-0.3-1.7-0.4
						c-0.6-0.2-1.1-0.3-1.7-0.5c-0.6-0.2-1.2-0.4-1.7-0.6l0,0c-0.1-0.1-0.2-0.2-0.1-0.3C68.8,114.6,68.8,114.5,68.9,114.5z"/>
					<path class="st75" d="M73.8,118.1c0.5-0.2,0.9-0.2,1.4-0.2c0.4,0,0.9,0.2,1.3,0.3c0.4,0.2,0.8,0.4,1.1,0.7
						c0.3,0.3,0.6,0.6,0.8,1.1c0,0.1,0,0.2-0.1,0.2c0,0,0,0-0.1,0l0,0c-0.5,0-0.9-0.1-1.3-0.1c-0.4-0.1-0.8-0.2-1.1-0.4
						c-0.4-0.1-0.7-0.3-1-0.5c-0.3-0.2-0.7-0.4-1-0.7l0,0C73.7,118.4,73.6,118.3,73.8,118.1C73.8,118.1,73.8,118.1,73.8,118.1z"/>
				</g>
				<g>
					<path class="st75" d="M98.6,112.2c0.2-0.4,0.4-0.7,0.6-1.1c0.2-0.3,0.5-0.6,0.7-0.9c0.5-0.5,1.1-1,1.7-1.4
						c1.2-0.8,2.4-1.3,3.7-1.7c0.7-0.2,1.3-0.3,2-0.4c0.7-0.1,1.4-0.1,2-0.2c1.4,0,2.8,0.2,4.2,0.7c-0.5,0.6-1.1,1-1.7,1.4
						c-0.6,0.4-1.1,0.8-1.7,1.1c-0.6,0.3-1.1,0.6-1.7,0.9c-0.6,0.3-1.2,0.5-1.7,0.7c-1.2,0.4-2.3,0.8-3.6,1.1
						c-0.6,0.1-1.2,0.3-1.8,0.3c-0.3,0-0.6,0.1-1,0.1c-0.3,0-0.7,0.1-1,0.1l-0.3,0c-0.3,0-0.6-0.3-0.6-0.6
						C98.5,112.4,98.5,112.3,98.6,112.2z"/>
					<path class="st75" d="M96.3,118.1c0.5-0.4,0.9-0.7,1.4-0.9c0.5-0.3,1-0.5,1.5-0.7c0.5-0.2,1-0.4,1.5-0.6
						c0.5-0.2,1.1-0.3,1.6-0.4c2.1-0.5,4.4-0.7,6.6-0.5c1.1,0.1,2.2,0.3,3.3,0.5c0.5,0.1,1.1,0.3,1.6,0.5c0.3,0.1,0.5,0.1,0.8,0.3
						l0.8,0.3c0.3,0.1,0.5,0.2,0.8,0.3c0.2,0.1,0.5,0.2,0.7,0.4c0.5,0.3,1,0.6,1.4,0.9c0.2,0.2,0.5,0.3,0.7,0.5
						c0.2,0.2,0.4,0.3,0.6,0.5c0.4,0.4,0.8,0.7,1.2,1.1c-2.3-0.1-4.2-0.4-6.3-0.5c-1-0.1-2-0.1-2.9-0.2c-1,0-1.9-0.1-2.9-0.1
						c-1.9,0-3.9-0.1-5.9-0.1c-2,0-4,0-6.1-0.1l-0.1,0c-0.4,0-0.6-0.3-0.6-0.7C96.1,118.4,96.2,118.2,96.3,118.1z"/>
					<path class="st75" d="M98.9,125.1c0.9-0.5,1.8-0.8,2.8-1.1c0.5-0.1,0.9-0.2,1.4-0.3c0.5-0.1,1-0.2,1.4-0.2
						c1.9-0.3,3.9-0.2,5.8,0c1,0.1,1.9,0.3,2.9,0.5c0.5,0.1,0.9,0.3,1.4,0.4c0.2,0.1,0.5,0.1,0.7,0.2l0.7,0.3
						c0.5,0.2,0.9,0.4,1.3,0.6c0.4,0.2,0.9,0.5,1.3,0.7c0.2,0.1,0.4,0.2,0.6,0.4c0.2,0.1,0.4,0.3,0.6,0.4c0.4,0.3,0.8,0.6,1.1,1
						c-2,0.1-3.8,0-5.7,0c-0.4,0-0.9,0-1.3-0.1c-0.5,0-0.9-0.1-1.3-0.1c-0.9,0-1.8-0.1-2.7-0.2c-1.8-0.1-3.5-0.3-5.3-0.5
						c-1.8-0.2-3.6-0.4-5.5-0.9l0,0c-0.3-0.1-0.5-0.4-0.4-0.7C98.6,125.3,98.7,125.1,98.9,125.1z"/>
					<path class="st75" d="M101.3,133.9c1.8-1.1,3.8-1.6,5.9-2c2-0.3,4.1-0.4,6.1-0.1c1,0.1,2,0.3,3,0.5c1,0.3,2,0.5,2.9,0.9
						c1.9,0.7,3.7,1.8,5.3,3.2c-0.5,0-1,0-1.5-0.1c-0.5,0-1-0.1-1.5-0.1c-0.5,0-1-0.1-1.5-0.1c-0.5-0.1-1-0.1-1.4-0.1
						c-0.9-0.1-1.9-0.1-2.8-0.2l-1.4-0.1l-0.7-0.1l-0.7,0c-1.9-0.1-3.7-0.2-5.6-0.3c-1.9-0.1-3.8-0.2-5.8-0.4l0,0
						c-0.3,0-0.5-0.3-0.5-0.6C101,134.2,101.1,134,101.3,133.9z"/>
					<path class="st75" d="M103.6,139.4c2-0.8,4-1,6-1.1c2-0.1,4,0.1,6,0.5c1,0.2,2,0.5,2.9,0.8c0.5,0.2,1,0.3,1.4,0.5
						c0.5,0.2,0.9,0.4,1.4,0.6c1.8,0.8,3.6,1.9,5.1,3.4c-2.1-0.1-4-0.4-5.9-0.7l-5.6-0.8c-1.9-0.3-3.7-0.6-5.6-0.9
						c-1.9-0.3-3.8-0.7-5.7-1.2l0,0c-0.3-0.1-0.5-0.4-0.4-0.7C103.3,139.6,103.4,139.4,103.6,139.4z"/>
					<path class="st75" d="M106.3,143.8c1.1,0,2.1,0.2,3,0.3c1,0.2,2,0.4,2.9,0.6c1,0.2,1.9,0.5,2.9,0.8c1,0.3,1.9,0.6,2.9,1.1
						c-1,0.3-2.1,0.4-3.1,0.4c-1,0-2.1-0.1-3.1-0.3c-1-0.2-2-0.5-3-0.9c-1-0.4-1.9-0.9-2.8-1.6c-0.1-0.1-0.1-0.3,0-0.4
						C106.1,143.8,106.2,143.8,106.3,143.8L106.3,143.8z"/>
					<path class="st75" d="M111.2,129.9c-1,0.2-2.1,0.3-3.1,0.4c-1,0.1-2,0.1-3,0.1l-3,0.1l-3,0.2l0,0c-0.1,0-0.2-0.1-0.2-0.2
						c0-0.1,0-0.1,0.1-0.2c0.9-0.7,1.9-1.1,2.9-1.4c1-0.3,2.1-0.5,3.2-0.5c1.1-0.1,2.1,0,3.2,0.1c1,0.2,2.1,0.4,3.1,0.8
						c0.1,0.1,0.2,0.2,0.1,0.4C111.3,129.8,111.3,129.9,111.2,129.9L111.2,129.9z"/>
					<path class="st75" d="M104.6,121.5c-0.8,0.3-1.5,0.5-2.3,0.6c-0.8,0.1-1.5,0.2-2.2,0.2c-0.7,0-1.5,0-2.2,0
						c-0.8,0-1.5-0.1-2.3-0.3l0,0c-0.1,0-0.2-0.1-0.2-0.2c0-0.1,0-0.1,0.1-0.1c0.7-0.5,1.5-0.8,2.2-1c0.8-0.2,1.5-0.3,2.3-0.4
						c0.8,0,1.6,0,2.3,0.1c0.8,0.1,1.5,0.3,2.3,0.6c0.2,0.1,0.2,0.2,0.2,0.4C104.7,121.4,104.7,121.5,104.6,121.5L104.6,121.5z"/>
					<path class="st75" d="M97.1,124.1c-0.3,0.2-0.5,0.3-0.8,0.3c-0.3,0.1-0.5,0.1-0.8,0.2c-0.3,0-0.5,0-0.8,0c-0.3,0-0.6,0-0.9-0.1
						l0,0c-0.1,0-0.1-0.1-0.1-0.1c0,0,0,0,0,0c0.2-0.2,0.5-0.4,0.8-0.5c0.3-0.1,0.6-0.2,0.8-0.2c0.3,0,0.6-0.1,0.9,0
						c0.3,0,0.6,0.1,0.9,0.2C97.1,123.9,97.2,124,97.1,124.1C97.1,124.1,97.1,124.1,97.1,124.1L97.1,124.1z"/>
					<path class="st75" d="M99.6,114.9c-0.6,0.3-1.2,0.5-1.7,0.6c-0.6,0.2-1.1,0.3-1.7,0.5c-0.6,0.2-1.1,0.3-1.7,0.4
						c-0.6,0.1-1.2,0.3-1.9,0.3l0,0c-0.1,0-0.2-0.1-0.2-0.1c0,0,0-0.1,0-0.1c0.4-0.5,0.9-1,1.5-1.3c0.6-0.3,1.2-0.6,1.8-0.8
						c0.6-0.2,1.3-0.3,1.9-0.3c0.7,0,1.3,0,2,0.3c0.1,0,0.2,0.2,0.1,0.3C99.7,114.9,99.7,114.9,99.6,114.9L99.6,114.9z"/>
					<path class="st75" d="M94.7,118.5c-0.3,0.3-0.7,0.5-1,0.7c-0.3,0.2-0.7,0.4-1,0.5c-0.4,0.1-0.7,0.3-1.1,0.4
						c-0.4,0.1-0.8,0.2-1.3,0.1l0,0c-0.1,0-0.2-0.1-0.2-0.2c0,0,0,0,0-0.1c0.2-0.4,0.5-0.8,0.8-1.1c0.3-0.3,0.7-0.5,1.1-0.7
						c0.4-0.2,0.8-0.3,1.3-0.3c0.4,0,0.9,0,1.4,0.2c0.1,0.1,0.2,0.2,0.1,0.3C94.8,118.5,94.8,118.5,94.7,118.5L94.7,118.5z"/>
				</g>
			</g>
		</g>
		<path class="st22" d="M126.2,92.5c9-3.7,9.6-7.4,9.6-7.4s-1.4,0.4-2.8,0.2c-1.8-0.2-3.6-0.9-3.2-1c3.4-1,4.7-3.4,4.7-3.4
			c-1.4-0.4-3-1.5-3.1-2.3c0.1-1.6,0.1-2.9,0.1-3.6c0.3-14.6-8.8-23.1-8.8-23.1s-6.4-9-25-12.6c0.2-1.1,0.3-2.1,0.3-3.1
			c0.1-2.7-2.2-5.6-2.2-5.6c-0.3,4.6-2.4,5.6-2.4,5.6c1.1-3.1-1.3-6.6-3.9-9.2c-2.6-2.6-8.6-5.8-8.6-5.8s0.4,2.9,0.2,4.9
			c-0.1,2-2.9,4.2-4.8,6.2c-1.9,2-0.9,5.9-0.9,5.9c-1.8-0.2-3.2-3.8-3.2-3.8l-0.7,1.9c-0.2,0.9,0,1.8,0.3,2.8
			c-0.2,0-0.4,0.1-0.6,0.1c0,0-10.7,1.4-21.4,9.3c-2.1,1.6-3.3,3.7-5.3,5.8c0,0-2.3,2-3.7,5.7c-1.7,4.6-3.5,11.2-3,17.8
			c0,0.3,0.1,0.6,0.1,0.9c-0.1,0.7-1.1,1.5-3.1,2.1c0,0,1.6,2.4,4.7,3.4c0,0-1.5,1-6,0.8c-0.4,0,2.3,4.5,9.6,7.4l-3.7,0.4L36,92.5
			c3.1,4.1,10.3,6.9,10.3,6.9l6.7,1.3c1.4,0.9,3.4,2,4.8,2.7c0.6,0.3,1.2,0.6,1.9,0.9c1.5,0.8,2.8,1.4,3.4,1.5
			c-1.1,2.6-12,26.6-9.8,35.6c-1,7.6,14.5,8.6,22.7,8.2c0,0,0.6,3.2,4.5,3.6c2.3,0.2,2.8-4.3,3.1-4c0.2,0.2,2.9,0,2.9,0
			c0,0,1.2,3.3,3,4.2c2.2,1.1,3.8-3.3,4.6-3.9c0,0,18.2,1.8,21.7-4.9c2.1-4-0.6-16.5-3.8-26.1c-1.8-5.4-4.4-10.8-5.4-12.7
			c0.3-0.1,0.9-0.3,1.6-0.7c0.8-0.2,1.8-0.6,2.8-1.2c1.3-0.7,3.9-2.2,5.6-3.3c0,0,13.9-2,16.9-8.3c0.3-0.6-1.8,0.9-4.6,0.2
			C128.5,92.6,125.8,92.7,126.2,92.5z"/>
		<g>
			<path class="st24" d="M114.3,98.3c0,0-3.6,4.7-7.7,7.4c0,0,0.1,0.1,0.1,0.1c0.7-0.2,1.8-0.8,3-1.4c0.7-0.3,1.3-0.6,1.9-0.9
				c1.5-0.8,3.4-1.9,4.8-2.7l6.7-1.3c0,0,7.2-2.8,10.3-6.9C133.4,92.5,123.2,98.7,114.3,98.3z"/>
			<path class="st24" d="M126,92.5l-3.7-0.7c4.7-0.9,13.3-6.7,13.3-6.7l0,0.1C135.5,86,132.6,89.9,126,92.5z"/>
			<g>
				<path class="st24" d="M131,84.9l-0.4-0.2c0.1,0,0.3,0.1,0.5,0.2L131,84.9z"/>
				<path class="st24" d="M129.8,84.3l-2.8-1.7c3.1,0,7.3-1.7,7.3-1.7S132.8,83.3,129.8,84.3z"/>
			</g>
			<g>
				<path class="st70" d="M75.6,149.7c0,0,11.1-0.6,18.5,0.1"/>
				<path class="st24" d="M107.6,108.9c3.1,7.1,10.5,25.1,8.6,32.7c0.5,3.7-2.9,5.8-7.5,7C118.9,141.6,110.8,117.4,107.6,108.9z"/>
				<path class="st24" d="M86.5,149.4c0.3-1.6-0.4-3.3-0.5-5c0-0.5,0-0.9,0-1.4c0-0.6-0.2-1.2-0.3-1.9c-0.2-0.8-0.3-1.6-0.3-2.4
					c-0.3,0.4-0.4,0.9-0.4,1.4c-0.2,2.1-0.5,4.2-0.9,6.3c-0.1,0.5-0.7,2.5-0.4,2.8C83.7,149.5,86.5,149.4,86.5,149.4z"/>
				<path class="st26" d="M75.9,150c0,0,2.4-2,7.2-0.7c0,0-0.4,3.4-2.7,4.2S75.9,150,75.9,150z"/>
				<path class="st26" d="M94,150c0,0-2.4-2-7.2-0.7c0,0,0.4,3.4,2.7,4.2S94,150,94,150z"/>
				<g>
					<path class="st26" d="M106.7,105.8c2.4,4.8,4.5,9.7,6.3,14.7c1.8,5,3.3,10.2,3.9,15.5c0.3,2.7,0.3,5.4-0.4,8.1
						c-0.5,1.4-1.6,2.5-2.7,3.2c-1.2,0.7-2.5,1.2-3.8,1.5c-2.6,0.7-5.3,0.9-7.9,1.1c-2.7,0.1-5.3,0.1-8,0c-0.1,0-0.2-0.1-0.2-0.2
						c0-0.1,0.1-0.2,0.2-0.2c2.7,0,5.3,0,7.9-0.2c2.6-0.2,5.3-0.5,7.8-1.3c1.2-0.4,2.5-0.8,3.6-1.5c1.1-0.7,2-1.6,2.3-2.8
						c0.6-2.5,0.6-5.1,0.3-7.7c-0.5-5.2-2-10.4-3.7-15.4c-1.8-5-3.8-9.9-6.1-14.7l0,0c-0.1-0.1,0-0.3,0.1-0.4
						C106.4,105.6,106.6,105.6,106.7,105.8z"/>
				</g>
				<g>
					<path class="st26" d="M63.4,106c-2.3,4.8-4.3,9.7-6,14.7c-1.7,5-3.1,10.2-3.7,15.4c-0.3,2.6-0.3,5.3,0.4,7.7
						c0.4,1.1,1.3,2.1,2.4,2.7c1.1,0.7,2.3,1.1,3.6,1.5c2.5,0.7,5.2,1,7.8,1.2c2.6,0.2,5.3,0.2,8,0.2c0.1,0,0.2,0.1,0.2,0.2
						c0,0.1-0.1,0.2-0.2,0.2c-2.7,0.1-5.3,0.1-8,0c-2.7-0.1-5.4-0.4-8-1c-1.3-0.3-2.6-0.8-3.8-1.5c-1.2-0.7-2.3-1.8-2.8-3.1
						c-0.4-1.4-0.6-2.7-0.6-4.1c0-1.4,0-2.7,0.1-4.1c0.6-5.4,2.1-10.5,3.9-15.6c1.8-5,3.9-9.9,6.3-14.7c0.1-0.1,0.2-0.2,0.3-0.1
						C63.4,105.7,63.4,105.9,63.4,106L63.4,106z"/>
				</g>
				<g>
					<path class="st26" d="M85.1,125c0.2,4.3,0.2,8.5,0,12.8c-0.1,2.1-0.2,4.3-0.5,6.4c-0.3,2.1-0.6,4.2-1.2,6.3
						c-0.4,1-0.8,2.1-1.7,2.9l-0.4,0.3c-0.1,0.1-0.3,0.1-0.5,0.2c-0.2,0.1-0.3,0.1-0.5,0.1c-0.2,0-0.3,0-0.5,0
						c-0.6-0.1-1.2-0.4-1.7-0.7c-0.9-0.7-1.5-1.6-2.1-2.6c-0.6-0.9-1-1.9-1.5-2.9c-1.7-3.9-2.9-8-3.9-12.2c0-0.1,0-0.2,0.1-0.2
						c0.1,0,0.2,0,0.2,0.1c1.1,4.1,2.4,8.1,4.2,12c0.5,0.9,0.9,1.9,1.5,2.8c0.6,0.9,1.2,1.7,2,2.3c0.7,0.6,1.7,0.8,2.3,0.2
						c0.7-0.6,1.1-1.6,1.4-2.5c0.7-2,1-4,1.3-6.1c0.3-2.1,0.5-4.2,0.6-6.3c0.3-4.2,0.4-8.5,0.4-12.7c0-0.1,0.1-0.1,0.1-0.1
						C85,124.9,85.1,124.9,85.1,125z"/>
				</g>
				<g>
					<path class="st26" d="M85.1,125c0,4.2,0.1,8.5,0.4,12.7c0.1,2.1,0.3,4.2,0.6,6.3c0.3,2.1,0.7,4.2,1.3,6.1
						c0.3,0.9,0.7,2,1.4,2.5c0.6,0.6,1.6,0.4,2.3-0.2c0.8-0.6,1.4-1.4,2-2.3c0.6-0.9,1.1-1.8,1.5-2.8c1.8-3.8,3.1-7.9,4.2-12
						c0-0.1,0.1-0.1,0.2-0.1c0.1,0,0.1,0.1,0.1,0.2c-1,4.1-2.2,8.2-3.9,12.2c-0.4,1-0.9,1.9-1.5,2.9c-0.6,0.9-1.2,1.8-2.1,2.6
						c-0.4,0.4-1,0.7-1.7,0.7c-0.2,0-0.3,0-0.5,0c-0.2,0-0.3,0-0.5-0.1c-0.2-0.1-0.3-0.1-0.5-0.2l-0.4-0.3c-0.9-0.8-1.3-1.9-1.7-2.9
						c-0.7-2.1-1-4.2-1.2-6.3c-0.2-2.1-0.4-4.3-0.5-6.4c-0.2-4.3-0.2-8.5,0-12.8c0-0.1,0.1-0.1,0.1-0.1
						C85.1,124.9,85.1,124.9,85.1,125z"/>
				</g>
				<path class="st24" d="M99.2,135.5c0,0,2.4,13.1,9.8,13.2c0,0-6.1,1.3-15,0.9l2.9-6.9L99.2,135.5z"/>
				<path class="st24" d="M70.9,135.5c0,0-2.5,13.8-9.8,13.2l6.6,1h8.2C74.3,148.4,70.9,135.5,70.9,135.5z"/>
			</g>
			<path class="st24" d="M61.9,108.9c-3.1,7.1-10.5,25.1-8.6,32.7c-0.5,3.7,2.9,5.8,7.5,7C50.5,141.6,58.6,117.4,61.9,108.9z"/>
			<g>
				<path class="st26" d="M37.7,77.8c-0.1-4.8,0.4-9.5,1.8-14.1c1.4-4.6,3.8-8.8,7.1-12.3c3.3-3.5,7.4-6.2,11.7-8.1
					c4.3-2,8.9-3.3,13.5-4.2c0.1,0,0.3,0.1,0.3,0.2c0,0.1-0.1,0.3-0.2,0.3c-4.6,1-9.1,2.4-13.3,4.5c-4.2,2-8.1,4.8-11.2,8.2
					c-3.2,3.4-5.6,7.5-7,11.9c-1.4,4.4-1.9,9.1-1.9,13.8v0c0,0.3-0.2,0.5-0.5,0.5C37.9,78.2,37.7,78,37.7,77.8z"/>
			</g>
			<g>
				<path class="st26" d="M63.1,106.1c-1.8-0.7-3.6-1.5-5.3-2.3c-1.7-0.8-3.4-1.8-5.1-2.8c-0.2-0.1-0.3-0.4-0.2-0.6
					c0.1-0.2,0.4-0.3,0.6-0.2c0,0,0,0,0,0c1.5,1.1,3.2,2.1,4.8,3.1c1.7,0.9,3.4,1.8,5.2,2.4l0,0c0.1,0,0.2,0.2,0.1,0.3
					C63.3,106.1,63.2,106.2,63.1,106.1C63.1,106.1,63.1,106.1,63.1,106.1z"/>
			</g>
			<g>
				<path class="st26" d="M130.9,77.7c0-4.6-0.5-9.3-1.8-13.7c-1.4-4.4-3.7-8.5-6.8-11.8c-3.1-3.4-6.9-6.1-11-8.2
					c-4.1-2.1-8.6-3.5-13.1-4.6c-0.1,0-0.2-0.2-0.2-0.3c0-0.1,0.2-0.2,0.3-0.2c4.6,0.9,9.1,2.3,13.4,4.3c4.2,2,8.2,4.7,11.5,8.2
					c3.2,3.5,5.6,7.7,7,12.3c1.4,4.5,1.9,9.3,1.8,14c0,0.3-0.2,0.5-0.5,0.5C131.1,78.2,130.9,78,130.9,77.7L130.9,77.7z"/>
			</g>
			<g>
				<path class="st26" d="M106.3,105.7c1.8-0.7,3.5-1.5,5.2-2.4c1.7-0.9,3.3-1.9,4.8-3.1c0.2-0.1,0.5-0.1,0.6,0.1
					c0.1,0.2,0.1,0.5-0.1,0.6c0,0,0,0,0,0c-1.7,1-3.3,2-5.1,2.8c-1.7,0.9-3.5,1.6-5.3,2.3c-0.1,0-0.2,0-0.3-0.1
					C106.1,105.9,106.2,105.7,106.3,105.7C106.3,105.7,106.3,105.7,106.3,105.7L106.3,105.7z"/>
			</g>
			<g>
				<path class="st26" d="M116.6,100.2c1.6-0.1,3.2-0.3,4.7-0.7c1.6-0.4,3.1-0.9,4.5-1.5c1.5-0.6,2.8-1.4,4.1-2.4
					c1.3-0.9,2.4-2.1,3.4-3.3l0,0c0.1-0.1,0.2-0.1,0.4,0c0.1,0.1,0.1,0.2,0,0.4c-1,1.3-2.1,2.5-3.4,3.5c-1.3,1-2.7,1.9-4.2,2.5
					c-1.5,0.7-3,1.2-4.6,1.6c-1.6,0.4-3.2,0.7-4.9,0.8c-0.3,0-0.5-0.2-0.5-0.4S116.3,100.2,116.6,100.2
					C116.5,100.2,116.5,100.2,116.6,100.2L116.6,100.2z"/>
			</g>
			<g>
				<path class="st26" d="M126.4,92.1c0.5,0.2,1.1,0.3,1.7,0.4c0.6,0.1,1.2,0.1,1.8,0.1c1.2,0,2.4-0.1,3.6-0.3
					c0.1,0,0.3,0.1,0.3,0.2c0,0.1-0.1,0.3-0.2,0.3c-1.2,0.3-2.5,0.5-3.7,0.5c-0.6,0-1.3,0-1.9,0c-0.6-0.1-1.2-0.1-1.9-0.3
					c-0.3-0.1-0.4-0.3-0.3-0.6C125.8,92.1,126.1,92,126.4,92.1C126.3,92.1,126.3,92.1,126.4,92.1L126.4,92.1z"/>
			</g>
			<g>
				<path class="st26" d="M126.1,92.1c1.9-0.7,3.7-1.7,5.4-2.8c0.8-0.6,1.7-1.2,2.4-1.9c0.7-0.7,1.4-1.5,1.8-2.4l0,0
					c0.1-0.1,0.2-0.2,0.3-0.1c0.1,0.1,0.2,0.2,0.1,0.3c-0.4,1-1.1,1.9-1.8,2.6c-0.7,0.8-1.6,1.4-2.4,2c-0.9,0.6-1.7,1.2-2.7,1.7
					c-0.9,0.5-1.8,1-2.8,1.4c-0.2,0.1-0.5,0-0.6-0.2C125.7,92.5,125.8,92.2,126.1,92.1C126,92.1,126,92.1,126.1,92.1L126.1,92.1z"/>
			</g>
			<g>
				<path class="st26" d="M130.1,83.9c0.4,0.2,0.9,0.4,1.3,0.6c0.5,0.2,0.9,0.3,1.4,0.4c1,0.2,2,0.2,2.9-0.1l0,0
					c0.1,0,0.3,0.1,0.3,0.2c0,0.1,0,0.3-0.2,0.3c-1,0.3-2.1,0.4-3.2,0.3c-0.5-0.1-1.1-0.2-1.6-0.3c-0.5-0.1-1-0.3-1.5-0.6
					c-0.2-0.1-0.3-0.4-0.2-0.6S129.8,83.8,130.1,83.9C130.1,83.9,130.1,83.9,130.1,83.9L130.1,83.9z"/>
			</g>
			<g>
				<path class="st26" d="M129.7,83.9c0.9-0.3,1.8-0.7,2.6-1.2c0.8-0.5,1.6-1.1,2-1.9l0,0c0.1-0.1,0.2-0.2,0.3-0.1
					c0.1,0.1,0.2,0.2,0.1,0.3c-0.5,1-1.3,1.7-2.1,2.3c-0.8,0.6-1.7,1.1-2.7,1.5c-0.2,0.1-0.5,0-0.6-0.2
					C129.3,84.3,129.4,84,129.7,83.9C129.7,83.9,129.7,83.9,129.7,83.9L129.7,83.9z"/>
			</g>
			<g>
				<path class="st26" d="M131.8,77.8c0,0.3,0,0.7,0.1,1c0.1,0.3,0.3,0.7,0.6,0.9c0.3,0.3,0.6,0.5,0.9,0.6c0.4,0.2,0.7,0.3,1.1,0.3
					l0,0c0.1,0,0.2,0.2,0.2,0.3c0,0.1-0.1,0.2-0.3,0.2c-0.4,0-0.9-0.1-1.3-0.3c-0.4-0.1-0.8-0.4-1.2-0.7c-0.4-0.3-0.6-0.7-0.8-1.1
					c-0.2-0.4-0.3-0.9-0.3-1.4c0-0.3,0.2-0.5,0.5-0.5S131.8,77.5,131.8,77.8C131.8,77.7,131.8,77.7,131.8,77.8L131.8,77.8z"/>
			</g>
			<g>
				<g>
					<path class="st26" d="M52.9,101.1c-1.7-0.1-3.3-0.4-4.9-0.8c-1.6-0.4-3.1-0.9-4.6-1.6c-1.5-0.7-2.9-1.5-4.2-2.5
						c-1.3-1-2.4-2.2-3.4-3.5c-0.1-0.1-0.1-0.3,0-0.4c0.1-0.1,0.3-0.1,0.4,0l0,0c1,1.2,2.1,2.4,3.4,3.3c1.3,0.9,2.7,1.8,4.1,2.4
						c1.5,0.6,3,1.1,4.5,1.5c1.5,0.4,3.1,0.6,4.7,0.7l0,0c0.3,0,0.5,0.2,0.5,0.5C53.4,100.9,53.2,101.1,52.9,101.1
						C52.9,101.1,52.9,101.1,52.9,101.1z"/>
				</g>
				<g>
					<path class="st26" d="M43.4,93c-0.7,0.2-1.3,0.3-1.9,0.3c-0.6,0-1.3,0.1-1.9,0c-1.3-0.1-2.5-0.2-3.7-0.5
						c-0.1,0-0.2-0.2-0.2-0.3c0-0.1,0.2-0.2,0.3-0.2c1.2,0.2,2.4,0.3,3.6,0.3c0.6,0,1.2-0.1,1.8-0.1c0.6-0.1,1.2-0.2,1.7-0.4l0,0
						c0.2-0.1,0.5,0,0.6,0.3S43.7,92.9,43.4,93C43.5,93,43.4,93,43.4,93z"/>
				</g>
				<g>
					<path class="st26" d="M43.1,93c-1-0.4-1.9-0.9-2.8-1.4c-0.9-0.5-1.8-1.1-2.7-1.7c-0.9-0.6-1.7-1.3-2.4-2
						c-0.7-0.8-1.4-1.6-1.8-2.6c-0.1-0.1,0-0.3,0.1-0.3c0.1-0.1,0.3,0,0.3,0.1l0,0c0.4,0.9,1.1,1.7,1.8,2.4c0.7,0.7,1.5,1.3,2.4,1.9
						c1.7,1.1,3.6,2,5.4,2.8l0,0c0.2,0.1,0.4,0.4,0.3,0.6C43.6,92.9,43.4,93.1,43.1,93C43.1,93,43.1,93,43.1,93z"/>
				</g>
				<g>
					<path class="st26" d="M39.9,84.8c-0.5,0.3-1,0.4-1.5,0.6c-0.5,0.1-1,0.2-1.6,0.3c-1.1,0.1-2.2,0-3.2-0.3
						c-0.1,0-0.2-0.2-0.2-0.3c0-0.1,0.2-0.2,0.3-0.2l0,0c1,0.2,2,0.2,2.9,0.1c0.5-0.1,1-0.2,1.4-0.4c0.5-0.2,0.9-0.4,1.3-0.6l0,0
						c0.2-0.1,0.5-0.1,0.6,0.2C40.2,84.3,40.1,84.6,39.9,84.8C39.9,84.8,39.9,84.8,39.9,84.8z"/>
				</g>
				<g>
					<path class="st26" d="M39.5,84.8c-0.9-0.4-1.8-0.9-2.7-1.5c-0.8-0.6-1.6-1.3-2.1-2.3c-0.1-0.1,0-0.3,0.1-0.3
						c0.1-0.1,0.3,0,0.3,0.1l0,0c0.4,0.8,1.2,1.4,2,1.9c0.8,0.5,1.7,0.9,2.6,1.2l0,0c0.2,0.1,0.4,0.4,0.3,0.6
						C40,84.8,39.7,84.9,39.5,84.8C39.5,84.8,39.5,84.8,39.5,84.8z"/>
				</g>
				<g>
					<path class="st26" d="M38.6,77.7c0,0.5-0.1,1-0.3,1.4c-0.2,0.4-0.5,0.8-0.8,1.1c-0.4,0.3-0.8,0.5-1.2,0.7
						c-0.4,0.2-0.9,0.2-1.3,0.3c-0.1,0-0.3-0.1-0.3-0.2c0-0.1,0.1-0.2,0.2-0.3l0,0c0.4-0.1,0.8-0.2,1.1-0.3c0.4-0.2,0.7-0.4,0.9-0.6
						c0.3-0.3,0.4-0.6,0.6-0.9c0.1-0.3,0.2-0.7,0.1-1l0,0c0-0.3,0.2-0.5,0.4-0.5S38.6,77.4,38.6,77.7C38.6,77.7,38.6,77.7,38.6,77.7
						z"/>
				</g>
			</g>
			<g>
				<g>
					<g>
						<path class="st26" d="M75.5,45.2c-0.8-0.6-1.4-1.4-2.1-2.2c-0.6-0.8-1.1-1.7-1.5-2.7c-0.4-1-0.6-2-0.6-3c0-1.1,0.4-2.1,1-2.9
							c0-0.1,0.1-0.1,0.2,0c0,0,0.1,0.1,0,0.1l0,0c-0.4,0.9-0.5,1.8-0.5,2.8c0.1,0.9,0.3,1.9,0.7,2.7c0.3,0.9,0.8,1.7,1.3,2.6
							c0.5,0.8,1.1,1.6,1.7,2.4l0,0c0.1,0.1,0,0.2,0,0.2C75.7,45.3,75.6,45.3,75.5,45.2z"/>
					</g>
					<g>
						<path class="st26" d="M72.6,34.4c0.4,0.8,0.8,1.5,1.3,2.2c0.5,0.7,1,1.3,1.8,1.6l0,0c0.1,0,0.1,0.1,0.1,0.2
							c0,0-0.1,0.1-0.1,0.1c-0.5,0.1-1-0.1-1.4-0.3c-0.4-0.2-0.8-0.6-1-1c-0.3-0.4-0.5-0.8-0.6-1.2c-0.1-0.4-0.3-0.9-0.3-1.4
							c0-0.1,0.1-0.2,0.2-0.2C72.5,34.3,72.6,34.4,72.6,34.4L72.6,34.4z"/>
					</g>
					<g>
						<path class="st26" d="M75.5,38.4c-0.4-1.6-0.5-3.2,0.1-4.8c0.3-0.8,0.8-1.5,1.4-2.1c0.5-0.6,1.1-1.2,1.7-1.7
							c1.1-1.1,2.1-2.3,2.4-3.8c0.1-1.5,0.1-3.2-0.3-4.5l0,0c-0.1-0.2,0.1-0.4,0.3-0.5c0.1,0,0.2,0,0.3,0c1.6,0.8,3.1,1.7,4.6,2.7
							c1.5,1,2.9,2,4.1,3.3c1.2,1.3,2.3,2.7,3.2,4.3c0.4,0.8,0.7,1.6,0.8,2.5c0.1,0.9,0,1.8-0.4,2.6c0,0.1-0.1,0.1-0.2,0.1
							c-0.1,0-0.1-0.1-0.1-0.2c0.7-1.6,0.1-3.4-0.7-4.8c-0.8-1.5-2-2.8-3.2-4c-2.5-2.3-5.5-4.1-8.6-5.7l0.6-0.5
							c0.3,0.9,0.3,1.7,0.4,2.5c0,0.8,0,1.6-0.1,2.4c-0.3,1.7-1.5,3.1-2.6,4.1c-0.6,0.6-1.2,1.1-1.7,1.6c-0.5,0.6-1,1.1-1.3,1.8
							c-0.6,1.4-0.7,3-0.3,4.5l0,0c0,0.1,0,0.2-0.1,0.2C75.6,38.5,75.5,38.4,75.5,38.4z"/>
					</g>
					<g>
						<path class="st26" d="M93.5,36.3c0.4-0.3,0.7-0.7,1-1.1c0.3-0.4,0.5-0.9,0.6-1.3c0.2-0.5,0.3-1,0.4-1.5l0.3-1.5
							c0-0.1,0.1-0.1,0.1-0.1c0,0,0.1,0,0.1,0.1c0.1,0.3,0.1,0.5,0.1,0.8l0,0.8c0,0.6-0.1,1.1-0.3,1.6c-0.2,0.5-0.5,1-0.8,1.5
							c-0.4,0.4-0.8,0.8-1.4,1c-0.1,0-0.2,0-0.2-0.1C93.4,36.4,93.4,36.3,93.5,36.3L93.5,36.3z"/>
					</g>
					<g>
						<path class="st26" d="M96,30.7c0.9,0.9,1.5,2,1.9,3.2c0.4,1.2,0.6,2.4,0.6,3.7c0,1.2-0.2,2.5-0.6,3.6
							c-0.2,0.6-0.5,1.1-0.7,1.7c-0.3,0.5-0.6,1.1-0.9,1.6c0,0.1-0.1,0.1-0.2,0c0,0-0.1-0.1-0.1-0.1l0,0c0.2-0.6,0.4-1.1,0.6-1.7
							c0.2-0.6,0.4-1.1,0.5-1.7c0.3-1.1,0.4-2.3,0.5-3.5c0-1.2-0.1-2.3-0.5-3.4c-0.3-1.1-0.8-2.2-1.5-3.2l0,0c0-0.1,0-0.2,0-0.2
							C95.9,30.7,96,30.7,96,30.7z"/>
					</g>
				</g>
			</g>
			<path class="st24" d="M63,106.1c0.1-0.1,0.1-0.1,0.2-0.2c-4.3-2.6-8.1-7.6-8.1-7.6c-9,0.4-19.1-5.8-19.1-5.8
				c3.1,4.1,10.3,6.9,10.3,6.9l6.7,1.3c1.4,0.9,3.4,2,4.8,2.7c0.6,0.3,1.2,0.6,1.9,0.9c1.5,0.8,2.8,1.4,3.4,1.5
				C63,105.9,63,106,63,106.1z"/>
			<path class="st24" d="M43.3,92.5l3.7-0.7c-4.7-0.9-13.3-6.7-13.3-6.7l0,0.1C33.8,86,36.7,89.9,43.3,92.5z"/>
			<g>
				<path class="st24" d="M38.6,84.9l0.4-0.2c-0.1,0-0.3,0.1-0.5,0.2L38.6,84.9z"/>
				<path class="st24" d="M39.5,84.3l2.8-1.7C39.2,82.7,35,81,35,81S36.5,83.3,39.5,84.3z"/>
			</g>
			<path class="st24" d="M81.3,26.3c-0.1,2-2.9,4.2-4.8,6.2c-0.5,0.5-0.8,1.1-0.9,1.8c1.5-3.4,6.2-3.9,7.7-5.7
				c1.6-1.8-2.3-7.1-2.3-7.1S81.5,24.2,81.3,26.3z"/>
			<path class="st24" d="M76.9,41.1l-1.3-2.7c-1.8-0.2-3.2-3.8-3.2-3.8S71.4,39.3,76.9,41.1z"/>
			<g>
				<path class="st24" d="M93.2,32.1c0.4,1.1,0.8,2.2,0.3,4.3C94,35,93.8,33.6,93.2,32.1z"/>
				<path class="st24" d="M93.5,36.4c-0.2,0.9-0.5,2.2-1.2,3.4c0,0,5.7-2.7,3.6-9C95.6,35.4,93.5,36.4,93.5,36.4z"/>
			</g>
		</g>
		<path class="st30" d="M52.1,69.1c0-6.3,3.5-9,9.1-9c5.5,0,11.7,5.1,11.7,10.7s-4.7,10.4-10.2,10.4S52.1,74.6,52.1,69.1z"/>
		<path class="st21" d="M53.5,71.2c0-5.4,4.4-9.7,9.8-9.7s10.6,4.7,10.6,10.1s-5.2,9.4-10.6,9.4S53.5,76.6,53.5,71.2z"/>
		<g>
			<path class="st72" d="M53.3,64.4c2.3-3.5,9.9-5.8,15.1-2.3c5.2,3.4,6.9,10,3.8,14.8c-1.5,2.2-3.8,3.7-6.4,4.2
				c-2.8,0.5-6,0-8.7-1.8C51.9,75.7,50.9,68,53.3,64.4z"/>
			<path class="st26" d="M64.4,60.1c0,0-6.1-1.3-9.9-1.3c0,0-0.4,0.9,0,2.4c0,0-2.4,0.1-2.9,0.7c0,0-0.4,6.7,0.5,10.2
				c0,0-0.6-5.9,1.9-8.7C55.1,62.2,59.2,59.6,64.4,60.1z"/>
			<g>
				<ellipse class="st26" cx="65.5" cy="70.5" rx="8.4" ry="8.4"/>
				<ellipse class="st30" cx="65.4" cy="67.1" rx="3.4" ry="3.3"/>
				<ellipse class="st30" cx="58.5" cy="67.1" rx="1.8" ry="1.8"/>
			</g>
		</g>
		<path class="st30" d="M116.1,70.1c0-6-3.4-10-9-10c-5.5,0-11.7,5.1-11.7,10.7s4.7,10.4,10.2,10.4S116.1,75.6,116.1,70.1z"/>
		<path class="st21" d="M114.8,71.2c0-5.4-4.4-9.7-9.8-9.7c-5.4,0-10.7,4.7-10.7,10.1s5.3,9.4,10.7,9.4
			C110.4,80.9,114.8,76.6,114.8,71.2z"/>
		<g>
			<path class="st72" d="M114.9,64.4c-2.3-3.5-9.9-5.8-15.1-2.3c-5.2,3.4-6.9,10-3.8,14.8c1.5,2.2,3.8,3.7,6.4,4.2
				c2.8,0.5,6,0,8.7-1.8C116.4,75.7,117.3,68,114.9,64.4z"/>
			<path class="st26" d="M103.8,60.1c0,0,6.1-1.3,9.9-1.3c0,0,0.4,0.9,0,2.4c0,0,2.4,0.1,2.9,0.7c0,0,0.4,6.7-0.5,10.2
				c0,0,0.6-5.9-1.9-8.7C113.1,62.2,109.1,59.6,103.8,60.1z"/>
			<g>
				<ellipse class="st26" cx="102.7" cy="70.5" rx="8.4" ry="8.4"/>
				<ellipse class="st30" cx="102.9" cy="67.1" rx="3.4" ry="3.3"/>
				<ellipse class="st30" cx="109.7" cy="67.1" rx="1.8" ry="1.8"/>
			</g>
		</g>
		<g>
			<g>
				<path class="st30" d="M73,95.2c0,0,0.9,4.1,1.4,4c0.5-0.1,1.5-4,1.5-4"/>
				<path class="st26" d="M73.1,95.1l0.6,2.1c0.1,0.3,0.2,0.7,0.3,1c0.1,0.2,0.1,0.3,0.2,0.5c0,0.1,0.1,0.1,0.1,0.2
					c0,0.1,0.1,0.1,0,0.1c0,0,0,0,0,0l0.1-0.1c0-0.1,0.1-0.1,0.1-0.2c0.1-0.2,0.1-0.3,0.2-0.5c0.1-0.3,0.2-0.7,0.4-1l0.7-2.1
					c0,0,0.1-0.1,0.1-0.1c0,0,0.1,0.1,0.1,0.1c-0.1,0.7-0.3,1.4-0.5,2.1c-0.1,0.4-0.2,0.7-0.3,1.1c-0.1,0.2-0.1,0.3-0.2,0.5
					c-0.1,0.1-0.1,0.2-0.2,0.3l-0.1,0.1c-0.1,0-0.1,0.1-0.2,0.1c-0.3,0-0.3-0.2-0.4-0.2c-0.1-0.1-0.1-0.2-0.2-0.3
					c-0.1-0.2-0.2-0.4-0.2-0.5c-0.1-0.4-0.2-0.7-0.3-1.1c-0.2-0.7-0.3-1.4-0.4-2.2C72.9,95.1,73,95.1,73.1,95.1
					C73,95.1,73.1,95.1,73.1,95.1z"/>
			</g>
			<path class="st26" d="M78.4,84c-0.1,0.5,0.3,1.1,0.8,1.3c0.5,0.3,1,0.3,1.6,0.4c1.8,0.1,4.9,0.5,6.6-0.5c1.2-0.7,1.1-1.9,0-2.4
				C85.6,82.1,78.7,81.6,78.4,84z"/>
			<g>
				<path class="st26" d="M83.2,84.8c0.1,1.7,0,3.5-0.5,5.2c-0.2,0.9-0.5,1.7-0.9,2.5c-0.4,0.8-1,1.6-1.9,2c-1.7,0.7-3.4,1-5.2,1
					c-0.9,0-1.8,0-2.6-0.3c-0.4-0.1-0.9-0.3-1.3-0.6c-0.4-0.3-0.7-0.7-0.8-1.1c0-0.1,0-0.2,0.1-0.2c0.1,0,0.2,0,0.2,0.1
					c0.2,0.7,1,1.1,1.8,1.3c0.8,0.2,1.7,0.2,2.5,0.1c1.7-0.1,3.4-0.4,4.9-1.1c1.4-0.6,2-2.4,2.5-4c0.5-1.6,0.7-3.3,0.6-5
					c0-0.1,0.1-0.2,0.2-0.2C83.1,84.6,83.2,84.7,83.2,84.8z"/>
			</g>
			<g>
				<path class="st26" d="M83.3,84.8c-0.1,1.7,0.2,3.4,0.6,5c0.5,1.6,1.1,3.4,2.5,4c1.5,0.7,3.2,1,4.9,1.1c0.8,0,1.7,0,2.5-0.1
					c0.8-0.2,1.6-0.6,1.8-1.3c0-0.1,0.1-0.2,0.2-0.1c0.1,0,0.2,0.1,0.1,0.2c-0.1,0.5-0.4,0.9-0.8,1.1c-0.4,0.3-0.8,0.4-1.3,0.6
					c-0.9,0.2-1.8,0.3-2.6,0.3c-1.8,0-3.5-0.3-5.2-1c-0.9-0.4-1.5-1.2-1.9-2c-0.4-0.8-0.6-1.6-0.9-2.5c-0.4-1.7-0.6-3.5-0.5-5.2
					c0-0.1,0.1-0.2,0.2-0.2C83.2,84.6,83.3,84.7,83.3,84.8z"/>
			</g>
			<g>
				<g>
					<path class="st26" d="M69.7,85.8c-7.8,0.8-15.4,3.8-21.7,8.6c6.2-4.9,13.8-8.1,21.7-9.1c0.1,0,0.3,0.1,0.3,0.2
						C70,85.7,69.9,85.8,69.7,85.8C69.7,85.8,69.7,85.8,69.7,85.8z"/>
				</g>
				<g>
					<path class="st26" d="M69.5,87.8c-4.5,0.4-8.8,2.7-11.7,6.3c2.7-3.7,7-6.2,11.6-6.8c0.1,0,0.3,0.1,0.3,0.2
						C69.7,87.6,69.6,87.7,69.5,87.8C69.5,87.8,69.5,87.8,69.5,87.8z"/>
				</g>
				<g>
					<path class="st26" d="M69.5,89.4c-4.4,1.8-8.2,5.4-10,9.9c1.7-4.6,5.3-8.4,9.8-10.4c0.1-0.1,0.3,0,0.4,0.1
						C69.7,89.2,69.7,89.3,69.5,89.4C69.5,89.4,69.5,89.4,69.5,89.4z"/>
				</g>
			</g>
			<g>
				<g>
					<path class="st26" d="M96.5,85.3c7.9,1,15.5,4.2,21.7,9.1c-6.3-4.7-13.9-7.7-21.7-8.6c-0.1,0-0.3-0.1-0.2-0.3
						C96.2,85.4,96.4,85.3,96.5,85.3C96.5,85.3,96.5,85.3,96.5,85.3z"/>
				</g>
				<g>
					<path class="st26" d="M96.8,87.2c4.6,0.6,8.9,3.2,11.6,6.8c-2.9-3.6-7.2-5.9-11.7-6.3c-0.1,0-0.3-0.1-0.2-0.3
						C96.5,87.3,96.6,87.2,96.8,87.2C96.8,87.2,96.8,87.2,96.8,87.2z"/>
				</g>
				<g>
					<path class="st26" d="M96.9,88.9c4.5,2,8.1,5.8,9.8,10.4c-1.9-4.5-5.6-8.1-10-9.9c-0.1-0.1-0.2-0.2-0.2-0.4
						C96.6,88.9,96.7,88.8,96.9,88.9C96.9,88.9,96.9,88.9,96.9,88.9z"/>
				</g>
			</g>
		</g>
	</g>
</g>
<g id="mask" class="st0">
</g>
</svg>
