<?xml version="1.0" encoding="utf-8"?>
<!-- Generator: Adobe Illustrator 21.0.0, SVG Export Plug-In . SVG Version: 6.00 Build 0)  -->
<svg version="1.1" xmlns="http://www.w3.org/2000/svg" xmlns:xlink="http://www.w3.org/1999/xlink" x="0px" y="0px"
	 viewBox="0 0 176.8 172.4" style="enable-background:new 0 0 176.8 172.4;" xml:space="preserve">
<style type="text/css">
	.st0{display:none;}
	.st1{display:inline;fill:#FD9994;}
	.st2{display:inline;fill:#FFFFFF;}
	.st3{display:inline;fill:none;stroke:#FFFFFF;stroke-width:2.2363;stroke-miterlimit:10;}
	.st4{display:inline;}
	.st5{fill:none;stroke:#FFFFFF;stroke-width:2.2363;stroke-miterlimit:10;}
	.st6{fill:#FFB380;}
	.st7{fill:#D2C3DB;}
	.st8{fill:#F9ECDC;}
	.st9{fill:#FFF58B;}
	.st10{fill:#F6BC60;}
	.st11{fill:#ECF784;}
	.st12{fill:#FFDEFF;}
	.st13{fill:#AED5D2;}
	.st14{fill:#F4BD9F;}
	.st15{fill:#B9DCFF;}
	.st16{fill:#D7FFFB;}
	.st17{fill:#81D8F7;}
	.st18{fill:#E57777;}
	.st19{fill:#D9FFDB;}
	.st20{opacity:0.1;}
	.st21{fill:#5CCDFF;}
	.st22{fill:none;}
	.st23{opacity:0.2;fill:#FFFFFF;}
	.st24{opacity:0.1;fill:#002CBF;}
	.st25{fill:#1A1A1A;}
	.st26{fill:#333333;}
	.st27{fill:#FFFFDE;}
	.st28{clip-path:url(#SVGID_4_);}
	.st29{fill:none;stroke:#333333;stroke-width:0.4917;stroke-linecap:round;stroke-linejoin:round;stroke-miterlimit:10;}
	.st30{fill:#FFFFFF;}
	.st31{fill:none;stroke:#333333;stroke-width:0.8543;stroke-miterlimit:10;}
	.st32{clip-path:url(#SVGID_6_);}
	.st33{fill:#FFD7B9;}
	.st34{fill:#F0FFFF;}
	.st35{clip-path:url(#SVGID_8_);}
	.st36{fill:#FF5C5C;}
	.st37{fill:none;stroke:#333333;stroke-width:0.466;stroke-linecap:round;stroke-linejoin:round;stroke-miterlimit:10;}
	.st38{fill:none;stroke:#333333;stroke-width:0.8095;stroke-miterlimit:10;}
	.st39{clip-path:url(#SVGID_10_);}
	.st40{fill:none;stroke:#333333;stroke-width:0.7381;stroke-linecap:round;stroke-linejoin:round;stroke-miterlimit:10;}
	.st41{fill:none;stroke:#333333;stroke-width:0.8857;stroke-linecap:round;stroke-linejoin:round;stroke-miterlimit:10;}
	.st42{fill:none;stroke:#333333;stroke-width:2.6852;stroke-linecap:round;stroke-linejoin:round;stroke-miterlimit:10;}
	.st43{fill:#72B5C4;}
	.st44{fill:#5E96A5;}
	.st45{fill:none;stroke:#FFFFFF;stroke-width:2.6852;stroke-linecap:round;stroke-linejoin:round;stroke-miterlimit:10;}
	.st46{fill:none;stroke:#FFFFFF;stroke-width:1.2942;stroke-linecap:round;stroke-linejoin:round;stroke-miterlimit:10;}
	.st47{fill:none;stroke:#FFFFFF;stroke-width:0.8311;stroke-linecap:round;stroke-linejoin:round;stroke-miterlimit:10;}
	.st48{fill:#FF5C00;}
	.st49{fill:#00B4FF;}
	.st50{fill:#FF5592;}
	.st51{fill:#733FFF;}
	.st52{fill:#DDFF15;}
	.st53{fill:#BF5855;}
	.st54{fill:none;stroke:#333333;stroke-width:0.5718;stroke-miterlimit:10;}
	.st55{fill:#C8F982;}
	.st56{fill:#AEF9C0;}
	.st57{fill:none;stroke:#FFFFFF;stroke-width:1.8326;stroke-miterlimit:10;}
	.st58{fill:#9AF6F9;}
	.st59{fill:#FFACA2;}
	.st60{fill:#F9E582;}
	.st61{fill:#FFC08B;}
	.st62{fill:#EFEB6A;}
	.st63{fill:#EC987F;}
	.st64{fill:#B5FFCC;}
	.st65{fill:#FFEDA2;}
	.st66{fill:#CCE7CC;}
	.st67{fill:#ABE7AB;}
	.st68{fill:#A6A6A6;}
	.st69{clip-path:url(#SVGID_60_);}
	.st70{fill:none;stroke:#333333;stroke-width:0.4706;stroke-linecap:round;stroke-linejoin:round;stroke-miterlimit:10;}
	.st71{fill:#FFEC55;}
	.st72{fill:none;stroke:#333333;stroke-width:0.8177;stroke-miterlimit:10;}
	.st73{clip-path:url(#SVGID_62_);}
	.st74{clip-path:url(#SVGID_64_);}
	.st75{fill:#FF7A59;}
	.st76{clip-path:url(#SVGID_66_);}
	.st77{clip-path:url(#SVGID_68_);}
	.st78{fill:#B45FFF;}
	.st79{clip-path:url(#SVGID_70_);}
	.st80{opacity:0.2;fill:#002CBF;}
	.st81{fill:none;stroke:#333333;stroke-width:0.5506;stroke-linecap:round;stroke-linejoin:round;stroke-miterlimit:10;}
	.st82{clip-path:url(#SVGID_72_);}
	.st83{fill:#EAA871;}
	.st84{fill:#FFD836;}
	.st85{fill:#FF846B;}
	.st86{fill:none;stroke:#333333;stroke-width:0.804;stroke-linecap:round;stroke-linejoin:round;stroke-miterlimit:10;}
	.st87{fill:#FEFF4A;}
	.st88{fill:none;stroke:#333333;stroke-width:0.7645;stroke-linecap:round;stroke-linejoin:round;stroke-miterlimit:10;}
	.st89{fill:none;stroke:#333333;stroke-width:0.7645;stroke-miterlimit:10;}
	.st90{fill:none;stroke:#333333;stroke-width:2.9248;stroke-linecap:round;stroke-linejoin:round;stroke-miterlimit:10;}
	.st91{fill:none;stroke:#333333;stroke-width:0.945;stroke-linecap:round;stroke-linejoin:round;stroke-miterlimit:10;}
	.st92{fill:none;stroke:#333333;stroke-width:0.945;stroke-miterlimit:10;}
	.st93{fill:none;stroke:#333333;stroke-width:3.6155;stroke-linecap:round;stroke-linejoin:round;stroke-miterlimit:10;}
	.st94{fill:none;stroke:#333333;stroke-width:0.6228;stroke-miterlimit:10;}
	.st95{fill:none;stroke:#333333;stroke-width:0.7778;stroke-linecap:round;stroke-linejoin:round;stroke-miterlimit:10;}
	.st96{fill:#FF712A;}
	.st97{fill:none;stroke:#333333;stroke-width:0.7396;stroke-linecap:round;stroke-linejoin:round;stroke-miterlimit:10;}
	.st98{fill:none;stroke:#333333;stroke-width:0.7396;stroke-miterlimit:10;}
	.st99{fill:none;stroke:#333333;stroke-width:2.8295;stroke-linecap:round;stroke-linejoin:round;stroke-miterlimit:10;}
	.st100{fill:none;stroke:#333333;stroke-width:0.9142;stroke-linecap:round;stroke-linejoin:round;stroke-miterlimit:10;}
	.st101{fill:none;stroke:#333333;stroke-width:0.9142;stroke-miterlimit:10;}
	.st102{fill:none;stroke:#333333;stroke-width:3.4977;stroke-linecap:round;stroke-linejoin:round;stroke-miterlimit:10;}
	.st103{fill:none;stroke:#333333;stroke-width:0.6025;stroke-miterlimit:10;}
	.st104{fill:url(#SVGID_89_);}
	.st105{fill:url(#SVGID_90_);}
	.st106{fill:none;stroke:#333333;stroke-width:0.7438;stroke-linecap:round;stroke-linejoin:round;stroke-miterlimit:10;}
	.st107{fill:none;stroke:#333333;stroke-width:0.8926;stroke-linecap:round;stroke-linejoin:round;stroke-miterlimit:10;}
	.st108{clip-path:url(#SVGID_92_);fill:url(#SVGID_93_);}
	.st109{fill:url(#SVGID_94_);}
	.st110{fill:#52C5FF;}
	.st111{fill:none;stroke:#333333;stroke-width:0.6367;stroke-linecap:round;stroke-linejoin:round;stroke-miterlimit:10;}
	.st112{fill:none;stroke:#333333;stroke-width:2.7061;stroke-linecap:round;stroke-linejoin:round;stroke-miterlimit:10;}
	.st113{fill:none;stroke:#333333;stroke-width:0.5763;stroke-miterlimit:10;}
	.st114{fill:none;stroke:#FFFFFF;stroke-width:1.3042;stroke-linecap:round;stroke-linejoin:round;stroke-miterlimit:10;}
	.st115{fill:none;stroke:#FFFFFF;stroke-width:0.8375;stroke-linecap:round;stroke-linejoin:round;stroke-miterlimit:10;}
	.st116{clip-path:url(#SVGID_96_);}
	.st117{opacity:0.2;fill:#2E3192;}
	.st118{fill:#FEFF78;}
	.st119{opacity:0.1;fill:#2E3192;}
	.st120{fill:#FF5A50;}
	.st121{fill:none;stroke:#333333;stroke-width:0.567;stroke-linecap:round;stroke-linejoin:round;stroke-miterlimit:10;}
	.st122{fill:none;stroke:#333333;stroke-width:2.5786;stroke-linecap:round;stroke-linejoin:round;stroke-miterlimit:10;}
	.st123{fill:none;stroke:#333333;stroke-width:0.5491;stroke-miterlimit:10;}
	.st124{clip-path:url(#SVGID_98_);}
	.st125{fill:#2AD2FF;}
	.st126{fill:none;stroke:#333333;stroke-width:0.2435;stroke-miterlimit:10;}
	.st127{fill:#FFFFFF;stroke:#333333;stroke-width:0.487;stroke-linecap:round;stroke-linejoin:round;stroke-miterlimit:10;}
	.st128{clip-path:url(#SVGID_100_);}
	.st129{fill:url(#SVGID_101_);}
	.st130{opacity:0.4;fill:#FFFFFF;}
	.st131{fill:#FFDC48;}
	.st132{fill:none;stroke:#333333;stroke-width:0.5835;stroke-linecap:round;stroke-linejoin:round;stroke-miterlimit:10;}
	.st133{fill:none;stroke:#333333;stroke-width:2.6537;stroke-linecap:round;stroke-linejoin:round;stroke-miterlimit:10;}
	.st134{fill:#F0F462;}
	.st135{fill:url(#SVGID_102_);}
	.st136{fill:url(#SVGID_103_);}
	.st137{fill:#D1DADF;}
	.st138{fill:#57FFA3;}
	.st139{clip-path:url(#SVGID_105_);}
	.st140{clip-path:url(#SVGID_107_);}
	.st141{fill:#D0BBF9;}
	.st142{clip-path:url(#SVGID_109_);}
	.st143{fill:none;stroke:#333333;stroke-width:0.5867;stroke-linecap:round;stroke-linejoin:round;stroke-miterlimit:10;}
	.st144{clip-path:url(#SVGID_111_);}
	.st145{fill:none;stroke:#333333;stroke-width:0.5514;stroke-linecap:round;stroke-linejoin:round;stroke-miterlimit:10;}
	.st146{fill:#D1E9D3;}
	.st147{clip-path:url(#SVGID_113_);}
	.st148{fill:none;stroke:#333333;stroke-width:0.7684;stroke-linecap:round;stroke-linejoin:round;stroke-miterlimit:10;}
	.st149{fill:none;stroke:#333333;stroke-width:0.7684;stroke-miterlimit:10;}
	.st150{fill:none;stroke:#333333;stroke-width:2.9398;stroke-linecap:round;stroke-linejoin:round;stroke-miterlimit:10;}
	.st151{clip-path:url(#SVGID_115_);}
	.st152{fill:#FF66F8;}
	.st153{fill:none;stroke:#333333;stroke-width:0.7542;stroke-linecap:round;stroke-linejoin:round;stroke-miterlimit:10;}
	.st154{fill:none;stroke:#333333;stroke-width:0.9051;stroke-linecap:round;stroke-linejoin:round;stroke-miterlimit:10;}
	.st155{fill:none;stroke:#333333;stroke-width:0.5146;stroke-linecap:round;stroke-linejoin:round;stroke-miterlimit:10;}
	.st156{fill:none;stroke:#333333;stroke-width:0.6033;stroke-linecap:round;stroke-linejoin:round;stroke-miterlimit:10;}
	.st157{fill:none;stroke:#333333;stroke-width:2.7439;stroke-linecap:round;stroke-linejoin:round;stroke-miterlimit:10;}
	.st158{fill:#333333;stroke:#333333;stroke-width:1.0293;stroke-linecap:round;stroke-linejoin:round;stroke-miterlimit:10;}
	.st159{fill:#FF5F2A;}
	.st160{fill:none;stroke:#333333;stroke-width:0.5965;stroke-linecap:round;stroke-linejoin:round;stroke-miterlimit:10;}
	.st161{fill:#F9CC3E;}
	.st162{clip-path:url(#SVGID_121_);}
	.st163{fill:#70E1FF;}
	.st164{fill:none;stroke:#333333;stroke-width:0.5717;stroke-linecap:round;stroke-linejoin:round;stroke-miterlimit:10;}
	.st165{fill:none;stroke:#333333;stroke-width:2.6004;stroke-linecap:round;stroke-linejoin:round;stroke-miterlimit:10;}
	.st166{clip-path:url(#SVGID_123_);}
	.st167{fill:#8F61FF;}
	.st168{clip-path:url(#SVGID_125_);}
	.st169{clip-path:url(#SVGID_127_);}
	.st170{fill:#FFEBEB;}
	.st171{clip-path:url(#SVGID_129_);}
	.st172{clip-path:url(#SVGID_131_);}
	.st173{fill:#F47D62;}
	.st174{fill:none;stroke:#333333;stroke-width:0.7188;stroke-linecap:round;stroke-linejoin:round;stroke-miterlimit:10;}
	.st175{fill:none;stroke:#333333;stroke-width:0.7188;stroke-miterlimit:10;}
	.st176{fill:none;stroke:#333333;stroke-width:2.7502;stroke-linecap:round;stroke-linejoin:round;stroke-miterlimit:10;}
	.st177{fill:#85ACB5;}
	.st178{clip-path:url(#SVGID_133_);}
	.st179{fill:#D5F2F7;}
	.st180{fill:#FF694A;}
	.st181{fill:none;stroke:#333333;stroke-width:0.5693;stroke-linecap:round;stroke-linejoin:round;stroke-miterlimit:10;}
	.st182{fill:#FFDF15;}
	.st183{fill:none;stroke:#333333;stroke-width:0.6674;stroke-linecap:round;stroke-linejoin:round;stroke-miterlimit:10;}
	.st184{fill:none;stroke:#333333;stroke-width:3.0352;stroke-linecap:round;stroke-linejoin:round;stroke-miterlimit:10;}
	.st185{clip-path:url(#SVGID_135_);}
	.st186{clip-path:url(#SVGID_137_);}
	.st187{fill:none;stroke:#333333;stroke-width:0.5248;stroke-linecap:round;stroke-linejoin:round;stroke-miterlimit:10;}
	.st188{fill:#FFD33A;}
	.st189{fill:none;stroke:#333333;stroke-width:2.7983;stroke-linecap:round;stroke-linejoin:round;stroke-miterlimit:10;}
	.st190{fill:none;stroke:#333333;stroke-width:0.7692;stroke-linecap:round;stroke-linejoin:round;stroke-miterlimit:10;}
	.st191{fill:none;stroke:#333333;stroke-width:0.5959;stroke-miterlimit:10;}
	.st192{clip-path:url(#SVGID_143_);}
	.st193{fill:#FFE267;}
	.st194{clip-path:url(#SVGID_149_);}
	.st195{fill:#FFEEAA;}
	.st196{opacity:0.7;fill:url(#SVGID_152_);}
	.st197{fill:none;stroke:#333333;stroke-width:0.611;stroke-miterlimit:10;}
	.st198{clip-path:url(#SVGID_154_);}
	.st199{opacity:0.7;fill:url(#SVGID_157_);}
	.st200{fill:#EABBFC;}
	.st201{opacity:0.7;fill:url(#SVGID_160_);}
	.st202{opacity:0.7;fill:url(#SVGID_163_);}
	.st203{opacity:0.7;fill:url(#SVGID_166_);}
	.st204{opacity:0.7;fill:url(#SVGID_169_);}
	.st205{clip-path:url(#SVGID_171_);}
	.st206{fill:none;stroke:#333333;stroke-width:0.5899;stroke-linecap:round;stroke-linejoin:round;stroke-miterlimit:10;}
	.st207{fill:none;stroke:#333333;stroke-width:2.6828;stroke-linecap:round;stroke-linejoin:round;stroke-miterlimit:10;}
	.st208{fill:none;stroke:#333333;stroke-width:0.5713;stroke-miterlimit:10;}
	.st209{clip-path:url(#SVGID_173_);}
	.st210{clip-path:url(#SVGID_175_);}
	.st211{clip-path:url(#SVGID_177_);}
	.st212{fill:#FFAFC3;}
	.st213{fill:#A0D3FF;}
	.st214{fill:none;stroke:#333333;stroke-width:0.7262;stroke-linecap:round;stroke-linejoin:round;stroke-miterlimit:10;}
	.st215{fill:none;stroke:#333333;stroke-width:0.6906;stroke-miterlimit:10;}
	.st216{fill:none;stroke:#333333;stroke-width:0.8536;stroke-miterlimit:10;}
	.st217{fill:#333333;stroke:#333333;stroke-width:0.991;stroke-linecap:round;stroke-linejoin:round;stroke-miterlimit:10;}
	.st218{clip-path:url(#SVGID_179_);}
	.st219{clip-path:url(#SVGID_181_);}
	.st220{fill:#FD9994;}
	.st221{opacity:0.2;}
	.st222{fill:#2E3192;}
	.st223{display:inline;fill:#FF5B00;}
</style>
<g id="site">
</g>
<g id="kitties">
	<g>
		<path class="st177" d="M127.2,115.1c0,0-0.2,4.9,1,7.5c1.1,2.6,3.6,4.3,4.3,4.8s4.9,4,4.8,6.7c-0.1,2.7-1.5,4.1-3.3,3.6
			c-1.8-0.5-8.9-3.8-10.9-5.9c0,0,1.1,8.9,0.4,12.7c-0.8,3.8-0.4,3.9-0.4,3.9s4.4,5.6,8,7.4c0,0-1.5-2.6-1.2-3.7c0,0,3.9,4.2,9.3,3
			c0,0-4-1.2-4.5-2.3c0,0,4.3,1.9,7.5,0.9c0,0-2.2-0.3-2.8-1c0,0,4.4,1.2,10.6-3.9c0,0-1.3,0.2-1.7,0.1c0,0,3.2-1.1,6.1-5.7
			l-0.9,0.3c0,0,2.8-4.1,2.8-11.2c0-6.5-2.1-9.8-2.1-9.8s0,2.3-0.4,3.6c0,0-2.1-8.4-6.1-11.6c-3.8-3.1-4.7-3.4-4.7-3.4s-2.1-2.3-4-3
			c0,0,0.2,2.1,0.4,2.7c0,0-2-2.3-5.6-2.9l-0.3,2.4c0,0-2.7-2.9-3.9-3.7c0,0-2.3,5,0.8,13L127.2,115.1z"/>
		<g>
			<defs>
				<path id="SVGID_134_" d="M127.2,115.1c0,0-0.2,4.9,1,7.5c1.1,2.6,3.6,4.3,4.3,4.8s4.9,4,4.8,6.7c-0.1,2.7-1.5,4.1-3.3,3.6
					c-1.8-0.5-8.9-3.8-10.9-5.9c0,0,1.1,8.9,0.4,12.7c-0.8,3.8-0.4,3.9-0.4,3.9s4.4,5.6,8,7.4c0,0-1.5-2.6-1.2-3.7
					c0,0,3.9,4.2,9.3,3c0,0-4-1.2-4.5-2.3c0,0,4.3,1.9,7.5,0.9c0,0-2.2-0.3-2.8-1c0,0,4.4,1.2,10.6-3.9c0,0-1.3,0.2-1.7,0.1
					c0,0,3.2-1.1,6.1-5.7l-0.9,0.3c0,0,2.8-4.1,2.8-11.2c0-6.5-2.1-9.8-2.1-9.8s0,2.3-0.4,3.6c0,0-2.1-8.4-6.1-11.6
					c-3.8-3.1-4.7-3.4-4.7-3.4s-2.1-2.3-4-3c0,0,0.2,2.1,0.4,2.7c0,0-2-2.3-5.6-2.9l-0.3,2.4c0,0-2.7-2.9-3.9-3.7c0,0-2.3,5,0.8,13
					L127.2,115.1z"/>
			</defs>
			<clipPath id="SVGID_2_">
				<use xlink:href="#SVGID_134_"  style="overflow:visible;"/>
			</clipPath>
			<g style="clip-path:url(#SVGID_2_);">
				<g>
					<path class="st179" d="M132.3,123.7c0.1,1.7,0.1,3.3,0.1,5c0,0.8,0,1.7,0,2.5c-0.1,0.8-0.1,1.7-0.1,2.5c0,0.1-0.1,0.2-0.3,0.2
						c-0.1,0-0.2-0.1-0.2-0.2c-0.1-0.8-0.1-1.7-0.1-2.5c0-0.8,0-1.7,0-2.5c0-1.7,0.1-3.3,0.1-5c0-0.2,0.1-0.3,0.3-0.3
						C132.1,123.5,132.3,123.6,132.3,123.7z"/>
				</g>
				<g>
					<path class="st179" d="M124,123.4l7-0.5c2.3-0.2,4.6-0.4,7-0.5l-0.4,0.4c0-2.5-0.1-5-0.1-7.4c0-2.5-0.1-5,0-7.4
						c0-0.1,0.1-0.2,0.2-0.2c0.1,0,0.2,0.1,0.2,0.2c0.1,2.5,0.2,5,0.3,7.4c0.1,2.5,0.1,5,0.2,7.4c0,0.2-0.2,0.4-0.4,0.4
						c-2.3,0.2-4.6,0.3-7,0.4l-7,0.4c-0.2,0-0.3-0.1-0.3-0.3C123.8,123.6,123.9,123.5,124,123.4z"/>
				</g>
				<g>
					<path class="st179" d="M137.9,119.2c2.5-0.1,4.9-0.1,7.4-0.1c1.2,0,2.5,0,3.7,0c1.2,0.1,2.5,0.1,3.7,0.1c0.1,0,0.2,0.1,0.2,0.2
						c0,0.1-0.1,0.2-0.2,0.2c-1.2,0.1-2.5,0.1-3.7,0.1c-1.2,0-2.5,0-3.7,0c-2.5,0-4.9-0.1-7.4-0.1c-0.2,0-0.3-0.1-0.3-0.3
						C137.6,119.4,137.7,119.2,137.9,119.2z"/>
				</g>
				<g>
					<path class="st179" d="M146.3,119.5c0.1,1.8,0.1,3.5,0.1,5.3c0,0.9,0,1.8,0,2.6c-0.1,0.9-0.1,1.8-0.1,2.6
						c0,0.1-0.1,0.2-0.3,0.2c-0.1,0-0.2-0.1-0.2-0.2c-0.1-0.9-0.1-1.8-0.1-2.6c0-0.9,0-1.8,0-2.6c0-1.8,0.1-3.5,0.1-5.3
						c0-0.2,0.1-0.3,0.3-0.3C146.2,119.3,146.3,119.4,146.3,119.5z"/>
				</g>
				<g>
					<path class="st179" d="M146.1,129.8c2.2-0.1,4.4-0.1,6.6-0.1c1.1,0,2.2,0,3.3,0c1.1,0.1,2.2,0.1,3.3,0.1c0.1,0,0.2,0.1,0.2,0.2
						c0,0.1-0.1,0.2-0.2,0.2c-1.1,0.1-2.2,0.1-3.3,0.1c-1.1,0-2.2,0-3.3,0c-2.2,0-4.4-0.1-6.6-0.1c-0.2,0-0.3-0.1-0.3-0.3
						C145.8,129.9,145.9,129.8,146.1,129.8z"/>
				</g>
				<g>
					<path class="st179" d="M146.3,130c0.1,2,0.1,4,0.1,5.9c0,1,0,2,0,3c-0.1,1-0.1,2-0.1,3c0,0.1-0.1,0.2-0.3,0.2
						c-0.1,0-0.2-0.1-0.2-0.2c-0.1-1-0.1-2-0.1-3c0-1,0-2,0-3c0-2,0.1-4,0.1-5.9c0-0.2,0.1-0.3,0.3-0.3
						C146.2,129.8,146.3,129.9,146.3,130z"/>
				</g>
				<g>
					<path class="st179" d="M157.7,135.5l-4.7,1.7l0.2-0.3l0,5.1c0,0.2-0.2,0.4-0.4,0.4l0,0c-2.6,0-5.1,0.1-7.7,0l-7.7,0l-7.7-0.1
						l-7.7-0.1c-0.1,0-0.2-0.1-0.2-0.2c0-0.1,0.1-0.2,0.2-0.2l7.7-0.1l7.7-0.1l7.7,0c2.6,0,5.1,0,7.7,0l-0.4,0.4l0-5.1v0
						c0-0.1,0.1-0.3,0.2-0.3l4.8-1.6c0.1,0,0.3,0,0.4,0.2C158,135.3,157.9,135.4,157.7,135.5z"/>
				</g>
				<g>
					<g>
						<path class="st179" d="M136.1,121.7c0.7,0,0.7-1.1,0-1.1C135.4,120.6,135.4,121.7,136.1,121.7L136.1,121.7z"/>
					</g>
				</g>
				<g>
					<g>
						<path class="st179" d="M144.3,140.8c0.7,0,0.7-1.1,0-1.1C143.7,139.7,143.7,140.8,144.3,140.8L144.3,140.8z"/>
					</g>
				</g>
				<g>
					<g>
						<path class="st179" d="M136.1,114.7c0.7,0,0.7-1.1,0-1.1C135.4,113.7,135.4,114.7,136.1,114.7L136.1,114.7z"/>
					</g>
				</g>
				<g>
					<g>
						<path class="st179" d="M139.7,118.6c0.7,0,0.7-1.1,0-1.1C139,117.5,139,118.6,139.7,118.6L139.7,118.6z"/>
					</g>
				</g>
				<g>
					<g>
						<path class="st179" d="M139.8,121.8c0.7,0,0.7-1.1,0-1.1C139.1,120.7,139.1,121.8,139.8,121.8L139.8,121.8z"/>
					</g>
				</g>
				<g>
					<g>
						<path class="st179" d="M144.4,122.1c0.7,0,0.7-1.1,0-1.1C143.7,121,143.7,122.1,144.4,122.1L144.4,122.1z"/>
					</g>
				</g>
				<g>
					<g>
						<path class="st179" d="M143.1,144.3c0.7,0,0.7-1.1,0-1.1C142.4,143.2,142.4,144.3,143.1,144.3L143.1,144.3z"/>
					</g>
				</g>
				<g>
					<g>
						<path class="st179" d="M139.4,144.3c0.7,0,0.7-1.1,0-1.1C138.7,143.2,138.7,144.3,139.4,144.3L139.4,144.3z"/>
					</g>
				</g>
				<g>
					<g>
						<path class="st179" d="M148,128.8c0.7,0,0.7-1.1,0-1.1C147.3,127.7,147.3,128.8,148,128.8L148,128.8z"/>
					</g>
				</g>
				<g>
					<g>
						<path class="st179" d="M133.9,125.9c0.7,0,0.7-1.1,0-1.1C133.2,124.8,133.2,125.9,133.9,125.9L133.9,125.9z"/>
					</g>
				</g>
				<g>
					<g>
						<path class="st179" d="M147.7,140.8c0.7,0,0.7-1.1,0-1.1C147,139.7,147,140.8,147.7,140.8L147.7,140.8z"/>
					</g>
				</g>
				<g>
					<g>
						<path class="st179" d="M154.1,138.5c0.7,0,0.7-1.1,0-1.1C153.4,137.5,153.4,138.5,154.1,138.5L154.1,138.5z"/>
					</g>
				</g>
				<g>
					<path class="st179" d="M141.7,141.9c0.1,2.4,0.1,4.7,0.1,7.1c0,1.2,0,2.4,0,3.5c-0.1,1.2-0.1,2.4-0.1,3.5
						c0,0.1-0.1,0.2-0.2,0.2c-0.1,0-0.2-0.1-0.2-0.2c-0.1-1.2-0.1-2.4-0.1-3.5c0-1.2,0-2.4,0-3.5c0-2.4,0.1-4.7,0.1-7.1
						c0-0.2,0.1-0.3,0.3-0.3C141.6,141.7,141.7,141.8,141.7,141.9z"/>
				</g>
				<g>
					<path class="st179" d="M118.3,151.2l11.5-0.1c1.9,0,3.8,0,5.8,0c1.9,0.1,3.8,0.1,5.8,0.1c0.1,0,0.2,0.1,0.2,0.2
						c0,0.1-0.1,0.2-0.2,0.2c-1.9,0.1-3.8,0.1-5.8,0.1c-1.9,0-3.8,0-5.8,0l-11.5-0.1c-0.2,0-0.3-0.1-0.3-0.3
						C118.1,151.4,118.2,151.2,118.3,151.2z"/>
				</g>
			</g>
		</g>
		<path class="st24" d="M131,126.4c0,0,6.2,3,7.3,7.1c1.1,4.2-1.4,7.2-4.2,7.3c-2.8,0.1-10.7-2.7-10.6-3.1s-0.5-6-0.5-6
			s6.9,5,9.6,5.6c2.7,0.6,5.5,0,4.4-4.3C135.9,128.8,131,126.4,131,126.4z"/>
		<g>
			<path class="st26" d="M129.7,106.5c-0.4,1.2-0.6,2.5-0.7,3.7c-0.1,1.3-0.1,2.5,0.1,3.8c0.2,1.2,0.5,2.5,0.9,3.6
				c0.4,1.2,1,2.3,1.6,3.4l0,0c0.1,0.1,0,0.2-0.1,0.3c-0.1,0.1-0.2,0-0.3-0.1c-0.4-0.5-0.8-1.1-1.1-1.6c-0.3-0.6-0.6-1.1-0.9-1.8
				c-0.5-1.2-0.8-2.5-1.1-3.8c-0.2-1.3-0.2-2.6,0-3.9c0.2-1.3,0.5-2.6,1.1-3.8c0-0.1,0.1-0.1,0.2-0.1
				C129.7,106.4,129.7,106.4,129.7,106.5L129.7,106.5z"/>
		</g>
		<g>
			<path class="st26" d="M127,115.1c0,0,0-0.1,0.1-0.1c0.1,0,0.1,0,0.2,0c0.1,0,0.1,0.1,0.1,0.1c0.1,0.1,0.1,0.1,0.2,0.2l0.3,0.4
				l0.5,0.8l1.1,1.6c0.7,1.1,1.4,2.1,2.2,3.1c0.1,0.1,0,0.2,0,0.2c-0.1,0-0.1,0-0.2,0c-1-0.8-1.8-1.9-2.5-2.9
				c-0.3-0.5-0.7-1.1-1-1.6l-0.5-0.8l-0.2-0.4l-0.1-0.2l-0.1-0.1c0,0,0,0,0.1,0c0.1-0.1,0,0,0,0c0,0.1-0.1,0.1-0.1,0.1
				C127.1,115.2,127,115.2,127,115.1z"/>
		</g>
		<g>
			<path class="st26" d="M127.3,115.1c-0.1,1.7,0,3.4,0.4,5c0.4,1.6,1,3.2,2,4.5c0.3,0.3,0.6,0.6,0.9,0.9c0.3,0.2,0.6,0.5,1,0.8
				c0.7,0.5,1.4,1,2,1.6c1.3,1.1,2.5,2.4,3.4,4c0.4,0.8,0.7,1.7,0.7,2.6c0,0.9-0.3,1.9-0.9,2.6c-0.2,0.4-0.7,0.7-1.2,0.9
				c-0.5,0.2-1,0.2-1.4,0.1c-0.9-0.1-1.8-0.4-2.6-0.7c-3.2-1.4-6-3.3-8.7-5.5c-0.1-0.1-0.1-0.2,0-0.2c0.1-0.1,0.2-0.1,0.2,0
				c1.4,1,2.8,1.9,4.3,2.8c1.5,0.9,2.9,1.7,4.5,2.3c0.8,0.3,1.6,0.5,2.4,0.6c0.8,0.1,1.5-0.1,1.9-0.7c0.5-0.6,0.7-1.3,0.7-2.1
				c0-0.8-0.3-1.5-0.7-2.3c-0.8-1.4-1.9-2.7-3.1-3.8c-0.6-0.6-1.3-1.1-2-1.6c-0.3-0.2-0.7-0.5-1-0.8c-0.3-0.3-0.6-0.6-0.9-1
				c-1.1-1.4-1.7-3.1-2-4.8c-0.3-1.7-0.3-3.4-0.1-5.2c0-0.1,0.1-0.1,0.1-0.1C127.2,115,127.3,115.1,127.3,115.1L127.3,115.1z"/>
		</g>
		<g>
			<path class="st26" d="M129.6,106.3c0.9,0.4,1.7,1.1,2.5,1.8c0.7,0.7,1.4,1.6,1.7,2.6c0,0.1,0,0.3-0.1,0.3c-0.1,0-0.2,0-0.3-0.1
				l0,0c-0.6-0.8-1.2-1.5-1.9-2.2c-0.7-0.7-1.4-1.4-2.1-2.1l0,0c-0.1-0.1-0.1-0.2,0-0.2C129.5,106.3,129.6,106.3,129.6,106.3z"/>
		</g>
		<g>
			<path class="st26" d="M133.8,107.8c0.1,0.5,0,1,0.1,1.5l0,1.4c0,0.1-0.1,0.2-0.2,0.2c-0.1,0-0.1,0-0.2-0.1
				c-0.2-0.5-0.3-1-0.3-1.5c0-0.5,0.1-1,0.3-1.5c0-0.1,0.1-0.1,0.2-0.1C133.7,107.7,133.8,107.8,133.8,107.8z"/>
		</g>
		<g>
			<path class="st26" d="M133.7,107.6c1.3,0,2.6,0.4,3.8,1.1c0.6,0.3,1.1,0.7,1.6,1.2c0.5,0.5,0.9,1,1.2,1.6c0.1,0.1,0,0.3-0.1,0.3
				c-0.1,0.1-0.2,0-0.3,0l0,0c-0.4-0.5-0.8-0.9-1.3-1.3c-0.5-0.4-1-0.8-1.5-1.1c-1-0.7-2.2-1.1-3.4-1.4l0,0c-0.1,0-0.1-0.1-0.1-0.2
				C133.5,107.7,133.6,107.6,133.7,107.6z"/>
		</g>
		<g>
			<path class="st26" d="M139.1,108c0.2,0.6,0.3,1.2,0.5,1.8c0.1,0.3,0.2,0.6,0.3,0.9c0.1,0.3,0.2,0.6,0.3,0.9l0,0
				c0,0.1,0,0.2-0.1,0.3c-0.1,0-0.2,0-0.2,0c-0.5-0.5-0.8-1.1-1-1.8c-0.2-0.7-0.3-1.3-0.1-2c0-0.1,0.1-0.1,0.2-0.1
				C139,107.9,139,107.9,139.1,108L139.1,108z"/>
		</g>
		<g>
			<path class="st26" d="M139,107.8c1.2,0.4,2.3,1.2,3.2,2.1c0.4,0.5,0.9,1,1.2,1.5c0.3,0.5,0.6,1.1,0.8,1.7c0,0.1,0,0.2-0.1,0.2
				c-0.1,0-0.2,0-0.2-0.1l0,0c-0.3-0.5-0.6-1.1-1-1.6c-0.3-0.5-0.7-1-1.2-1.4c-0.8-0.9-1.8-1.7-2.8-2.3l0,0c-0.1,0-0.1-0.1,0-0.2
				C138.9,107.8,138.9,107.8,139,107.8z"/>
		</g>
		<g>
			<path class="st26" d="M142.2,110.4c3.1,1.3,5.9,3.4,7.9,6.2c1,1.4,1.6,2.9,2.3,4.5c0.7,1.5,1.2,3.1,1.5,4.8
				c0,0.1-0.1,0.3-0.2,0.3c-0.1,0-0.3-0.1-0.3-0.2l0,0c-0.2-0.8-0.5-1.5-0.8-2.3c-0.3-0.8-0.6-1.5-1-2.3c-0.7-1.5-1.4-3-2.3-4.3
				c-0.9-1.3-2-2.5-3.3-3.6c-0.6-0.5-1.3-1-2-1.5c-0.7-0.5-1.4-0.9-2.1-1.3l0,0c-0.1,0-0.1-0.1-0.1-0.2
				C142.1,110.4,142.2,110.4,142.2,110.4z"/>
		</g>
		<g>
			<path class="st26" d="M154.3,122.3c0.2,0.8,0.1,1.7,0.1,2.5c-0.1,0.8-0.3,1.7-0.9,2.4c-0.1,0.1-0.2,0.1-0.2,0
				c-0.1-0.1-0.1-0.1,0-0.2l0,0c0.2-0.3,0.3-0.7,0.3-1.1c0.1-0.4,0.2-0.8,0.2-1.2c0.1-0.8,0.2-1.6,0.3-2.5
				C154.1,122.2,154.1,122.2,154.3,122.3C154.3,122.2,154.3,122.2,154.3,122.3z"/>
		</g>
		<g>
			<path class="st26" d="M154.3,122.2c0.9,1.6,1.4,3.4,1.8,5.2c0.4,1.8,0.6,3.7,0.5,5.5c-0.1,1.8-0.4,3.7-0.9,5.4
				c-0.5,1.8-1.2,3.5-2.1,5.1c-0.1,0.1-0.2,0.1-0.3,0.1c-0.1-0.1-0.1-0.2-0.1-0.3l0,0c0.8-1.6,1.3-3.3,1.8-5
				c0.4-1.7,0.7-3.5,0.8-5.3c0.1-1.8,0-3.6-0.3-5.3c-0.3-1.8-0.8-3.5-1.4-5.2l0,0c0-0.1,0-0.2,0.1-0.2
				C154.2,122.1,154.3,122.2,154.3,122.2z"/>
		</g>
		<g>
			<path class="st26" d="M152.6,143.6c0.3-0.2,0.6-0.4,0.8-0.5c0.3-0.1,0.6-0.3,0.9-0.4c0.1,0,0.2,0,0.2,0.1c0,0,0,0.1,0,0.1
				c-0.2,0.3-0.5,0.5-0.8,0.7c-0.3,0.1-0.7,0.3-1,0.3c-0.1,0-0.2-0.1-0.2-0.2C152.5,143.7,152.6,143.6,152.6,143.6z"/>
		</g>
		<g>
			<path class="st26" d="M154.6,142.9c-0.6,1.5-1.6,2.7-2.7,3.9c-0.6,0.5-1.2,1.1-1.9,1.5c-0.7,0.4-1.5,0.7-2.3,0.8
				c-0.1,0-0.3-0.1-0.3-0.2c0-0.1,0.1-0.3,0.2-0.3l0,0c1.4-0.5,2.6-1.3,3.7-2.4c1.1-1,2.1-2.2,3-3.5l0,0c0.1-0.1,0.2-0.1,0.3,0
				C154.6,142.7,154.7,142.8,154.6,142.9z"/>
		</g>
		<g>
			<path class="st26" d="M146.1,148.4c0.6,0.1,1.3,0.2,1.9,0.2c0.6,0,1.2,0,1.9,0c0.1,0,0.2,0.1,0.2,0.1c0,0.1,0,0.1-0.1,0.2
				c-0.6,0.3-1.3,0.4-2,0.3c-0.7-0.1-1.3-0.2-1.9-0.5c-0.1,0-0.1-0.1-0.1-0.2C146,148.4,146,148.4,146.1,148.4z"/>
		</g>
		<g>
			<path class="st26" d="M150,148.8c-1.5,1.4-3.2,2.6-5.1,3.4c-1,0.4-1.9,0.7-3,0.9c-1,0.1-2.1,0-3.1-0.4c-0.1-0.1-0.2-0.2-0.1-0.3
				c0-0.1,0.2-0.2,0.3-0.2l0,0c1.9,0.5,3.8,0,5.6-0.8c0.9-0.4,1.8-0.8,2.7-1.3c0.9-0.5,1.7-1,2.5-1.6l0,0c0.1-0.1,0.2,0,0.2,0
				C150.1,148.6,150.1,148.7,150,148.8z"/>
		</g>
		<g>
			<path class="st26" d="M123.1,148.1c1.2,1.5,2.5,2.8,3.8,4.1c0.7,0.6,1.4,1.2,2.1,1.8c0.7,0.6,1.5,1.1,2.3,1.7l0,0
				c0.1,0.1,0.1,0.2,0,0.2c0,0.1-0.1,0.1-0.2,0.1c-1.8-0.7-3.4-1.9-4.8-3.2c-0.7-0.7-1.3-1.4-1.9-2.2c-0.6-0.8-1.1-1.6-1.5-2.4
				c0-0.1,0-0.1,0.1-0.2C123,148,123,148.1,123.1,148.1L123.1,148.1z"/>
		</g>
		<g>
			<path class="st26" d="M131.1,155.9c-0.6-0.6-0.9-1.2-1.2-1.9c-0.1-0.4-0.3-0.7-0.3-1.1c-0.1-0.4-0.1-0.8,0-1.2
				c0-0.1,0.1-0.1,0.2-0.1c0.1,0,0.1,0,0.1,0.1l0.8,2c0.3,0.7,0.5,1.4,0.7,2.1c0,0.1,0,0.1-0.1,0.1C131.2,156,131.1,156,131.1,155.9
				z"/>
		</g>
		<g>
			<path class="st26" d="M129.7,151.6c1.3,1.2,2.8,2.2,4.4,2.7c0.8,0.3,1.6,0.5,2.5,0.6c0.9,0.1,1.7,0,2.6,0l0,0
				c0.1,0,0.2,0.1,0.2,0.2c0,0.1,0,0.1-0.1,0.2c-0.9,0.3-1.8,0.5-2.7,0.4c-0.9,0-1.9-0.2-2.7-0.5c-0.9-0.3-1.7-0.8-2.4-1.4
				c-0.7-0.6-1.4-1.2-1.9-2c0-0.1,0-0.1,0-0.2C129.6,151.6,129.7,151.6,129.7,151.6L129.7,151.6z"/>
		</g>
		<g>
			<path class="st26" d="M139.3,155.2c-0.9-0.1-1.9-0.4-2.7-0.8c-0.9-0.4-1.8-0.9-2.3-1.7c-0.1-0.1,0-0.2,0.1-0.3
				c0.1-0.1,0.2,0,0.2,0l0,0c0.3,0.3,0.7,0.5,1.1,0.8c0.4,0.2,0.8,0.4,1.2,0.6c0.4,0.2,0.8,0.4,1.3,0.6l1.3,0.6
				c0.1,0,0.1,0.1,0.1,0.2C139.4,155.2,139.3,155.2,139.3,155.2z"/>
		</g>
		<g>
			<path class="st26" d="M139,152.3c0.3,0.1,0.6,0.3,0.9,0.4c0.3,0.1,0.6,0.2,0.9,0.3c0.6,0.2,1.2,0.3,1.9,0.4l0,0
				c0.1,0,0.2,0.1,0.1,0.2c0,0.1-0.1,0.1-0.2,0.1c-0.3,0-0.7,0-1,0c-0.3,0-0.7-0.1-1-0.2c-0.7-0.2-1.3-0.5-1.8-1
				c-0.1-0.1-0.1-0.2,0-0.3C138.8,152.2,138.9,152.2,139,152.3L139,152.3z"/>
		</g>
		<g>
			<path class="st26" d="M134.4,152.4c0.7,0.2,1.3,0.4,2,0.5c0.7,0.2,1.4,0.3,2,0.4c0.7,0.1,1.4,0.2,2,0.2c0.7,0,1.4,0,2-0.2l0,0
				c0.1,0,0.2,0,0.2,0.1c0,0.1,0,0.2-0.1,0.2c-1.4,0.6-2.9,0.4-4.3,0.2c-1.4-0.3-2.8-0.7-4-1.3c-0.1,0-0.1-0.1-0.1-0.2
				C134.3,152.4,134.3,152.4,134.4,152.4z"/>
		</g>
		<g>
			<path class="st170" d="M64.8,28c0,0-7.4-11.5-15.7-14.2s-11,1.2-12.8,4.3c-1.9,3-2.2,5.2-1.5,5s3.7-3.2,3.7-3.2s2.1,1.1,2.1,6.5
				c0,5.2-2.8,13.5,5,16.4C45.6,42.7,50.1,33.1,64.8,28z"/>
			<g>
				<path class="st26" d="M38.7,19.8c1,0.6,1.5,1.7,1.9,2.8c0.2,0.5,0.3,1.1,0.4,1.6c0,0.3,0.1,0.6,0.1,0.8c0,0.3,0,0.6,0,0.8
					c0,2.2-0.2,4.4-0.4,6.5c-0.1,1.1-0.3,2.1-0.2,3.2c0.1,1,0.3,2.1,0.7,3c0.4,1,1,1.8,1.8,2.6c0.8,0.7,1.7,1.2,2.7,1.4
					c0.1,0,0.1,0.1,0.1,0.2c0,0.1-0.1,0.1-0.2,0.1c-1.1-0.2-2.1-0.7-3-1.5c-0.8-0.7-1.5-1.7-2-2.7c-0.5-1-0.8-2.1-0.9-3.2
					c-0.1-1.1,0-2.2,0.1-3.3c0.1-2.1,0.4-4.3,0.2-6.4c-0.1-0.5-0.1-1-0.2-1.6c0-0.5-0.1-1-0.2-1.5c-0.2-1-0.7-2-1.4-2.7l0,0
					c-0.1-0.1-0.1-0.2,0-0.2C38.5,19.7,38.6,19.7,38.7,19.8z"/>
			</g>
			<g>
				<path class="st26" d="M64.6,28.2c-2.3-3.1-4.8-6.1-7.7-8.7c-2.9-2.6-6.1-4.9-9.9-5.7c-1.8-0.4-3.8-0.5-5.5,0.1
					c-1.7,0.6-3.1,2.1-4.2,3.6c-1.1,1.6-2.1,3.3-2.6,5.1c0,0.1,0,0.2-0.1,0.3l0,0.1c0,0-0.1-0.1-0.1-0.1c0.1,0,0.3-0.1,0.5-0.3
					c0.4-0.3,0.8-0.6,1.1-0.9c0.7-0.6,1.4-1.3,2.1-2c0.1-0.1,0.2-0.1,0.2,0c0.1,0.1,0.1,0.2,0,0.2c-0.7,0.7-1.4,1.4-2.1,2.1
					c-0.4,0.3-0.7,0.7-1.1,1c-0.1,0.1-0.2,0.1-0.3,0.2c-0.1,0.1-0.2,0.1-0.5,0.2c-0.2,0-0.4-0.2-0.4-0.3c0-0.1,0-0.2,0-0.2
					c0-0.1,0-0.3,0.1-0.4c0.5-2,1.4-3.7,2.5-5.4c0.6-0.8,1.2-1.6,1.9-2.3c0.7-0.7,1.6-1.3,2.5-1.7c1.9-0.8,4.1-0.7,6-0.2
					c1.9,0.5,3.8,1.3,5.5,2.4c1.7,1.1,3.2,2.3,4.7,3.7c2.9,2.7,5.4,5.8,7.6,9c0.1,0.1,0,0.3-0.1,0.4C64.8,28.3,64.7,28.3,64.6,28.2
					L64.6,28.2z"/>
			</g>
			<g>
				<path class="st26" d="M39.5,18.1c0.8-0.9,1.7-1.8,2.8-2.3c0.6-0.2,1.2-0.4,1.9-0.3c0.7,0.1,1.3,0.4,1.8,0.6
					c2.1,1.2,4,2.7,5.8,4.1l5.5,4.5c0.9,0.7,1.8,1.5,2.8,2.1c1,0.7,1.9,1.3,3,1.7l0,0c0.1,0,0.1,0.1,0.1,0.2c0,0.1-0.1,0.1-0.2,0.1
					c-1.2-0.4-2.2-1-3.2-1.7c-1-0.6-2-1.3-2.9-2c-1.9-1.4-3.8-2.9-5.6-4.3c-1.9-1.4-3.7-3-5.7-4.2c-0.5-0.3-1-0.5-1.5-0.6
					c-0.5-0.1-1.1,0-1.6,0.2c-1,0.4-1.9,1.2-2.7,2c-0.1,0.1-0.2,0.1-0.3,0C39.4,18.3,39.4,18.1,39.5,18.1z"/>
			</g>
			<path class="st26" d="M47.1,17.2c0,0-3.3,11.6,8.5,15.3l7.4-3.6l-4.6-3.1L47.1,17.2z"/>
			<path class="st177" d="M107.2,28c0,0,7.4-11.5,15.7-14.2s11,1.2,12.8,4.3c1.9,3,2.2,5.2,1.5,5s-3.7-3.2-3.7-3.2s-2.1,1.1-2.1,6.5
				c0,5.2,2.8,13.5-5,16.4C126.5,42.7,121.9,33.1,107.2,28z"/>
			<g>
				<path class="st26" d="M133.7,20c-0.7,0.7-1.1,1.7-1.4,2.7c-0.1,0.5-0.2,1-0.2,1.5c-0.1,0.5-0.1,1-0.2,1.6
					c-0.1,2.1,0.1,4.3,0.2,6.4c0.1,1.1,0.2,2.2,0.1,3.3c-0.1,1.1-0.4,2.2-0.9,3.2c-0.5,1-1.1,1.9-2,2.7c-0.8,0.7-1.9,1.3-3,1.5
					c-0.1,0-0.2,0-0.2-0.1c0-0.1,0-0.2,0.1-0.2c1-0.2,2-0.7,2.7-1.4c0.8-0.7,1.4-1.6,1.8-2.6c0.4-1,0.7-2,0.7-3
					c0.1-1-0.1-2.1-0.2-3.2c-0.2-2.2-0.4-4.3-0.4-6.5c0-0.3,0-0.6,0-0.8c0-0.3,0-0.6,0.1-0.8c0.1-0.6,0.2-1.1,0.4-1.6
					c0.4-1,0.9-2.1,1.9-2.8c0.1-0.1,0.2,0,0.2,0.1C133.8,19.9,133.8,20,133.7,20L133.7,20z"/>
			</g>
			<g>
				<path class="st26" d="M107,27.9c2.2-3.3,4.7-6.3,7.6-9c1.4-1.3,3-2.6,4.7-3.7c1.7-1.1,3.6-1.9,5.5-2.4c1.9-0.5,4.1-0.6,6,0.2
					c1,0.4,1.8,1,2.5,1.7c0.7,0.7,1.3,1.5,1.9,2.3c1.1,1.7,2,3.4,2.5,5.4c0,0.1,0,0.3,0.1,0.4c0,0.1,0,0.1,0,0.2
					c0,0.1-0.2,0.4-0.4,0.3c-0.2,0-0.3-0.1-0.5-0.2c-0.1-0.1-0.2-0.1-0.3-0.2c-0.4-0.3-0.8-0.6-1.1-1c-0.7-0.7-1.4-1.4-2.1-2.1
					c-0.1-0.1-0.1-0.2,0-0.2c0.1-0.1,0.2-0.1,0.2,0c0.7,0.7,1.4,1.4,2.1,2c0.4,0.3,0.7,0.6,1.1,0.9c0.2,0.1,0.4,0.3,0.5,0.3
					c0,0-0.1,0.1-0.1,0.1l0-0.1c0-0.1,0-0.2-0.1-0.3c-0.5-1.8-1.5-3.5-2.6-5.1c-1.1-1.5-2.5-3-4.2-3.6c-1.7-0.7-3.7-0.6-5.5-0.1
					c-3.8,0.8-7,3.1-9.9,5.7c-2.9,2.6-5.4,5.6-7.7,8.7l0,0c-0.1,0.1-0.2,0.1-0.4,0.1C107,28.2,106.9,28,107,27.9z"/>
			</g>
			<g>
				<path class="st26" d="M132.2,18.3c-0.8-0.8-1.7-1.6-2.7-2c-0.5-0.2-1.1-0.3-1.6-0.2c-0.5,0.1-1,0.3-1.5,0.6
					c-2,1.2-3.8,2.7-5.7,4.2c-1.8,1.5-3.7,2.9-5.6,4.3c-1,0.7-1.9,1.4-2.9,2c-1,0.6-2,1.3-3.2,1.7c-0.1,0-0.2,0-0.2-0.1
					c0-0.1,0-0.2,0.1-0.2l0,0c1.1-0.4,2.1-1.1,3-1.7c1-0.7,1.9-1.4,2.8-2.1l5.5-4.5c1.9-1.5,3.7-2.9,5.8-4.1
					c0.5-0.3,1.1-0.6,1.8-0.6c0.7-0.1,1.3,0.1,1.9,0.3c1.2,0.5,2.1,1.4,2.8,2.3c0.1,0.1,0.1,0.2,0,0.3
					C132.4,18.4,132.3,18.4,132.2,18.3z"/>
			</g>
			<path class="st26" d="M124.9,17.2c0,0,3.3,11.6-8.5,15.3l-7.4-3.6l4.6-3.1L124.9,17.2z"/>
		</g>
		<path class="st170" d="M95,22.8c0,0-13.1-2.7-33.3,3.1S34.8,49.6,33.1,54.4c-1.7,4.8-2.2,16.4-2.2,16.4s-4.9,19.3,8.6,31.8
			c0,0,0.1-6.7,1.5-8.7c0,0,2.6,7.1,7.5,9.3l0.3-4.7c0,0,7.2,4.7,12.2,6.4c0,0-14.2,29.2-11.8,42.8s27.2,9.9,27.2,9.9l8,0.4l1-0.9
			l9.2,0.3c0,0,11.6,0.4,16.3-0.2s11.7-0.9,14.1-6.4c2.4-5.5-0.3-17.3-2.2-23.1c-2-5.9-7.5-19.6-9.2-22.8c0,0,10.1-4.4,12.3-6.4
			l0.4,4.7c0,0,5.7-3.7,7.4-9.3c0,0,1.7,4.4,1.2,9c0,0,7.1-6.3,8.9-16.2c1.7-9.9-0.1-15.8-0.1-15.8l-0.7-5.8l-24.6-31.3L95,22.8z"/>
		<g>
			<path class="st177" d="M95,22.8l4.3,12.9l-9.8,14.7l7.4,5l2.4,19.8l22.9,2.7l16.5-6.8l4-7.4c0,0-1.4-11.9-7.3-21.4
				c-4.3-6.8-10.6-12.9-24.3-16.7C102.1,23.1,95,22.8,95,22.8z"/>
			<g>
				<path class="st179" d="M106.8,41.5c0.1,2.3,0.1,4.6,0.2,7c0,2.3-0.1,4.6-0.2,7c0,0.2-0.2,0.3-0.3,0.3c-0.2,0-0.3-0.1-0.3-0.3
					c-0.2-2.3-0.3-4.6-0.2-7c0.1-2.3,0.1-4.6,0.2-7c0-0.2,0.2-0.4,0.4-0.4C106.7,41.2,106.8,41.3,106.8,41.5z"/>
			</g>
			<g>
				<path class="st179" d="M95.4,41.2l9.7-0.1l9.7-0.1l-0.6,0.6c-0.1-2.4-0.2-4.7-0.2-7.1c0-2.4-0.1-4.7-0.1-7.1
					c0-0.2,0.1-0.3,0.3-0.3c0.2,0,0.3,0.1,0.3,0.3c0.2,2.4,0.3,4.7,0.5,7.1c0.1,2.4,0.3,4.7,0.3,7.1l0,0c0,0.3-0.2,0.6-0.6,0.6l0,0
					l-9.7-0.1l-9.7-0.1c-0.2,0-0.4-0.2-0.4-0.4C95,41.3,95.2,41.2,95.4,41.2z"/>
			</g>
			<g>
				<path class="st26" d="M95.3,22.7l4.4,12.8c0,0.1,0,0.3,0,0.4l-9.8,14.8L89.7,50l7.4,5c0.1,0.1,0.2,0.2,0.2,0.4l2.5,19.8
					l-0.5-0.5l22.9,2.8l-0.3,0l16.6-6.7l-0.2,0.2l4.3-7c0.1-0.2,0.3-0.2,0.4-0.1c0.2,0.1,0.2,0.3,0.1,0.4l-4.1,7.1
					c0,0.1-0.1,0.1-0.2,0.2l0,0l-16.5,6.9c-0.1,0-0.2,0-0.3,0l-22.9-2.7c-0.3,0-0.5-0.2-0.5-0.5l-2.4-19.8l0.2,0.4l-7.4-5.1
					c-0.2-0.2-0.3-0.5-0.1-0.7l9.9-14.7l0,0.4L94.6,23c-0.1-0.2,0-0.4,0.2-0.5C95,22.4,95.3,22.5,95.3,22.7z"/>
			</g>
			<g>
				<ellipse class="st26" cx="112" cy="57.9" rx="11.7" ry="11.6"/>
				<circle class="st180" cx="109.7" cy="55.5" r="4.5"/>
				<circle class="st180" cx="117.1" cy="59.4" r="2.3"/>
				<circle class="st30" cx="108.7" cy="54.5" r="2.4"/>
			</g>
			<g>
				<path class="st179" d="M114.6,35.3c2.4-0.1,4.8-0.1,7.2-0.2c2.4,0,4.8,0.1,7.2,0.2c0.2,0,0.3,0.2,0.3,0.3c0,0.2-0.1,0.3-0.3,0.3
					c-2.4,0.2-4.8,0.3-7.2,0.2c-2.4-0.1-4.8-0.1-7.2-0.2c-0.2,0-0.4-0.2-0.4-0.4C114.3,35.5,114.4,35.3,114.6,35.3z"/>
			</g>
			<g>
				<path class="st179" d="M126.4,35.7c0.1,2.9,0.1,5.8,0.2,8.7c0,1.5,0,2.9,0,4.4c-0.1,1.5-0.1,2.9-0.2,4.4c0,0.2-0.2,0.3-0.3,0.3
					c-0.2,0-0.3-0.1-0.3-0.3c-0.1-1.5-0.1-2.9-0.2-4.4c0-1.5-0.1-2.9,0-4.4c0.1-2.9,0.1-5.8,0.2-8.7c0-0.2,0.2-0.4,0.4-0.4
					C126.3,35.3,126.4,35.5,126.4,35.7z"/>
			</g>
			<g>
				<path class="st179" d="M126,52.7c2.3-0.1,4.7-0.1,7-0.2c2.3,0,4.7,0.1,7,0.2c0.2,0,0.3,0.2,0.3,0.3c0,0.2-0.1,0.3-0.3,0.3
					c-2.3,0.2-4.7,0.3-7,0.2c-2.3-0.1-4.7-0.1-7-0.2c-0.2,0-0.4-0.2-0.4-0.4C125.7,52.9,125.8,52.7,126,52.7z"/>
			</g>
			<g>
				<path class="st179" d="M126.4,53.1c0.1,2.8,0.1,5.5,0.2,8.3c0,1.4,0,2.8,0,4.1c-0.1,1.4-0.1,2.8-0.2,4.1c0,0.2-0.2,0.3-0.3,0.3
					c-0.2,0-0.3-0.1-0.3-0.3c-0.1-1.4-0.1-2.8-0.2-4.1c0-1.4-0.1-2.8,0-4.1c0.1-2.8,0.1-5.5,0.2-8.3c0-0.2,0.2-0.4,0.4-0.4
					C126.3,52.7,126.4,52.9,126.4,53.1z"/>
			</g>
			<g>
				<path class="st179" d="M126,69.2c3.2-0.1,6.4-0.1,9.5-0.1l-0.5,0.5c0-2.4-0.1-4.7,0-7.1l0,0c0-0.2,0.2-0.4,0.4-0.5
					c1.1-0.4,2.2-0.7,3.3-1.1c1.1-0.3,2.2-0.7,3.3-1c0.2,0,0.4,0.1,0.4,0.2c0,0.2,0,0.3-0.2,0.4c-1.1,0.4-2.2,0.9-3.3,1.3
					c-1.1,0.4-2.2,0.8-3.3,1.2l0.4-0.5c0,2.4,0,4.7,0,7.1l0,0c0,0.3-0.2,0.5-0.5,0.5h0c-3.2,0-6.4-0.1-9.5-0.1
					c-0.2,0-0.4-0.2-0.4-0.4C125.7,69.4,125.8,69.3,126,69.2z"/>
			</g>
			<g>
				<g>
					<path class="st179" d="M112.1,39.9c1,0,1-1.5,0-1.5C111.2,38.4,111.2,39.9,112.1,39.9L112.1,39.9z"/>
				</g>
			</g>
			<g>
				<g>
					<path class="st179" d="M112.1,29c1,0,1-1.5,0-1.5C111.2,27.5,111.2,29,112.1,29L112.1,29z"/>
				</g>
			</g>
			<g>
				<g>
					<path class="st179" d="M117.1,34.4c1,0,1-1.5,0-1.5C116.2,32.9,116.2,34.4,117.1,34.4L117.1,34.4z"/>
				</g>
			</g>
			<g>
				<g>
					<path class="st179" d="M117.3,38.9c1,0,1-1.5,0-1.5C116.4,37.4,116.3,38.9,117.3,38.9L117.3,38.9z"/>
				</g>
			</g>
			<g>
				<g>
					<path class="st179" d="M123.7,39.2c1,0,1-1.5,0-1.5C122.7,37.7,122.7,39.2,123.7,39.2L123.7,39.2z"/>
				</g>
			</g>
			<g>
				<g>
					<path class="st179" d="M128.7,51.4c1,0,1-1.5,0-1.5C127.7,49.9,127.7,51.4,128.7,51.4L128.7,51.4z"/>
				</g>
			</g>
			<g>
				<g>
					<path class="st179" d="M109.1,44.6c1,0,1-1.5,0-1.5C108.2,43.1,108.2,44.6,109.1,44.6L109.1,44.6z"/>
				</g>
			</g>
			<g>
				<g>
					<path class="st179" d="M103.6,44.6c1,0,1-1.5,0-1.5C102.7,43.1,102.7,44.6,103.6,44.6L103.6,44.6z"/>
				</g>
			</g>
			<g>
				<g>
					<path class="st179" d="M128.3,68.1c1,0,1-1.5,0-1.5C127.4,66.6,127.4,68.1,128.3,68.1L128.3,68.1z"/>
				</g>
			</g>
			<g>
				<g>
					<path class="st179" d="M138.3,64.9c1,0,1-1.5,0-1.5C137.4,63.4,137.4,64.9,138.3,64.9L138.3,64.9z"/>
				</g>
			</g>
			<g>
				<g>
					<path class="st179" d="M121.8,76.4c1,0,1-1.5,0-1.5C120.9,74.9,120.9,76.4,121.8,76.4L121.8,76.4z"/>
				</g>
			</g>
			<g>
				<g>
					<path class="st179" d="M101.6,74.1c1,0,1-1.5,0-1.5C100.7,72.6,100.7,74.1,101.6,74.1L101.6,74.1z"/>
				</g>
			</g>
			<g>
				<g>
					<path class="st179" d="M92.8,50.6c1,0,1-1.5,0-1.5C91.8,49.1,91.8,50.6,92.8,50.6L92.8,50.6z"/>
				</g>
			</g>
			<g>
				<g>
					<path class="st181" d="M76.2,157.5c0,0,13.5-0.7,22.3,0.1"/>
					<path class="st24" d="M114.9,108.1c3.7,8.6,12.7,30.3,10.4,39.5c0.6,4.5-3.5,7.1-9.1,8.5C128.6,147.6,118.8,118.3,114.9,108.1z
						"/>
					<path class="st24" d="M89.3,157c0.4-2-0.5-4-0.6-6c0-0.6,0-1.1,0-1.7c-0.1-0.8-0.3-1.5-0.4-2.2c-0.2-1-0.3-1.9-0.4-2.9
						c-0.4,0.5-0.5,1.1-0.5,1.7c-0.3,2.6-0.6,5.1-1.1,7.6c-0.1,0.6-0.9,3-0.5,3.4C86,157.2,89.3,157,89.3,157z"/>
					<path class="st26" d="M76.6,157.8c0,0,2.9-2.5,8.8-0.8c0,0-0.5,4.1-3.2,5.1S76.6,157.8,76.6,157.8z"/>
					<path class="st26" d="M98.5,157.8c0,0-2.9-2.5-8.7-0.8c0,0,0.5,4.1,3.2,5.1C95.7,163,98.5,157.8,98.5,157.8z"/>
					<g>
						<path class="st26" d="M113.8,104.6c2.9,5.7,5.5,11.6,7.6,17.7c1.1,3,2.1,6.1,2.9,9.2c0.8,3.1,1.5,6.3,1.8,9.5
							c0.3,3.2,0.4,6.5-0.5,9.8c-0.6,1.7-1.9,2.9-3.3,3.8c-1.4,0.9-3,1.4-4.6,1.8c-3.2,0.8-6.4,1.1-9.6,1.3c-3.2,0.2-6.4,0.1-9.6,0
							c-0.1,0-0.2-0.1-0.2-0.2c0-0.1,0.1-0.2,0.2-0.2c3.2,0,6.4,0,9.6-0.3c3.2-0.3,6.4-0.6,9.4-1.5c1.5-0.4,3-1,4.3-1.8
							c1.3-0.8,2.4-1.9,2.8-3.3c0.8-2.9,0.8-6.2,0.4-9.3c-0.6-6.3-2.4-12.5-4.5-18.5c-1-3-2.2-6-3.4-8.9c-1.2-2.9-2.5-5.9-3.9-8.7
							l0,0c-0.1-0.2,0-0.4,0.2-0.5C113.5,104.4,113.7,104.5,113.8,104.6z"/>
					</g>
					<g>
						<path class="st26" d="M61.4,105c-1.4,2.9-2.7,5.8-3.9,8.8c-1.2,3-2.4,5.9-3.4,9c-1,3-2,6.1-2.7,9.2c-0.8,3.1-1.4,6.2-1.7,9.4
							c-0.2,1.6-0.2,3.2-0.2,4.7c0,1.6,0.3,3.2,0.7,4.6c0.5,1.4,1.6,2.5,2.9,3.3c1.3,0.8,2.8,1.4,4.3,1.8c3,0.9,6.2,1.2,9.4,1.4
							c3.2,0.2,6.4,0.2,9.6,0.2c0.1,0,0.2,0.1,0.2,0.2c0,0.1-0.1,0.2-0.2,0.2c-3.2,0.1-6.4,0.2-9.6,0c-3.2-0.1-6.4-0.4-9.6-1.2
							c-1.6-0.4-3.1-1-4.6-1.8c-1.4-0.8-2.8-2.1-3.4-3.7c-0.5-1.7-0.7-3.3-0.8-4.9c-0.1-1.6,0-3.3,0.1-4.9c0.3-3.2,1-6.4,1.8-9.5
							c0.8-3.1,1.8-6.2,2.9-9.2c2.2-6.1,4.7-12,7.6-17.7c0.1-0.2,0.3-0.2,0.4-0.1C61.4,104.6,61.4,104.8,61.4,105L61.4,105z"/>
					</g>
					<g>
						<path class="st26" d="M87.6,127.5c0.2,5.1,0.2,10.3,0,15.4c-0.1,2.6-0.3,5.1-0.6,7.7c-0.3,2.6-0.7,5.1-1.5,7.7
							c-0.2,0.6-0.5,1.2-0.8,1.9c-0.3,0.6-0.7,1.2-1.3,1.7l-0.5,0.3c-0.2,0.1-0.4,0.2-0.6,0.2c-0.2,0.1-0.4,0.1-0.6,0.1
							c-0.2,0-0.4,0-0.6,0c-0.8-0.1-1.5-0.5-2-0.9c-1.1-0.9-1.9-2-2.6-3.1c-0.7-1.1-1.3-2.3-1.8-3.5c-2.1-4.8-3.5-9.7-4.7-14.7
							c0-0.1,0-0.2,0.2-0.3c0.1,0,0.2,0,0.2,0.1l0,0c1.3,4.9,2.9,9.8,5.1,14.5c0.5,1.1,1.1,2.3,1.8,3.3c0.7,1,1.4,2.1,2.4,2.8
							c0.9,0.7,2.1,0.9,2.8,0.3c0.8-0.7,1.3-1.9,1.7-3.1c0.8-2.4,1.2-4.9,1.6-7.4c0.3-2.5,0.6-5.1,0.8-7.6c0.2-2.6,0.3-5.1,0.4-7.7
							c0.1-2.6,0.1-5.1,0.1-7.7c0-0.1,0.1-0.1,0.1-0.1C87.6,127.4,87.6,127.5,87.6,127.5z"/>
					</g>
					<g>
						<path class="st26" d="M87.7,127.5c0,2.6,0.1,5.1,0.1,7.7c0.1,2.6,0.2,5.1,0.4,7.7c0.2,2.6,0.4,5.1,0.8,7.6
							c0.4,2.5,0.8,5.1,1.6,7.4c0.4,1.1,0.9,2.4,1.7,3.1c0.7,0.7,1.9,0.5,2.8-0.3c0.9-0.7,1.7-1.7,2.4-2.8c0.7-1.1,1.3-2.2,1.8-3.3
							c2.2-4.6,3.8-9.5,5.1-14.5l0,0c0-0.1,0.1-0.2,0.3-0.1c0.1,0,0.2,0.1,0.1,0.2c-1.2,5-2.6,10-4.7,14.7c-0.5,1.2-1.1,2.4-1.8,3.5
							c-0.7,1.1-1.5,2.2-2.6,3.1c-0.5,0.4-1.2,0.8-2,0.9c-0.2,0-0.4,0-0.6,0c-0.2,0-0.4,0-0.6-0.1c-0.2-0.1-0.4-0.1-0.6-0.2
							l-0.5-0.3c-0.6-0.5-1-1.1-1.3-1.7c-0.3-0.6-0.6-1.2-0.8-1.9c-0.8-2.5-1.2-5.1-1.5-7.7c-0.3-2.6-0.5-5.1-0.6-7.7
							c-0.2-5.1-0.2-10.3,0-15.4c0-0.1,0.1-0.1,0.1-0.1C87.7,127.4,87.7,127.5,87.7,127.5z"/>
					</g>
					<path class="st24" d="M104.7,140.3c0,0,2.9,15.8,11.9,16c0,0-7.4,1.6-18.1,1l3.6-8.3L104.7,140.3z"/>
					<path class="st24" d="M70.4,140.3c0,0-3.1,16.6-11.9,16l7.9,1.2h9.9C74.6,155.8,70.4,140.3,70.4,140.3z"/>
				</g>
				<path class="st24" d="M59.5,108.1c-3.7,8.6-12.7,30.3-10.4,39.5c-0.6,4.5,3.5,7.1,9.1,8.5C45.8,147.6,55.6,118.3,59.5,108.1z"/>
				<g>
					<path class="st26" d="M30.4,70.8c-0.2-7.1,0.9-14.3,3.8-20.8c1.4-3.3,3.2-6.4,5.3-9.2c1-1.4,2.2-2.8,3.4-4.1
						c1.2-1.3,2.4-2.6,3.8-3.7c2.8-2.2,5.9-4,9.2-5.4c3.3-1.4,6.7-2.5,10.1-3.3c6.9-1.7,14-2.4,21-2.5c7.1,0,14.2,0.7,21.1,2.4
						c6.9,1.7,13.7,4.3,19.3,8.6c5.7,4.4,9.5,10.8,12,17.4c1.3,3.3,2.3,6.7,3,10.2c0.8,3.5,1.3,7,1.5,10.5c0,0.3-0.2,0.5-0.4,0.5
						c-0.3,0-0.5-0.2-0.5-0.4l0,0c-0.2-3.5-0.8-6.9-1.5-10.3c-0.8-3.4-1.7-6.8-3-10c-2.5-6.5-6.3-12.6-11.8-16.9
						c-5.5-4.2-12.2-6.8-18.9-8.4C101,23.5,94,22.8,87,22.8c-7,0-14,0.8-20.8,2.4c-3.4,0.8-6.7,1.9-9.9,3.3c-3.2,1.4-6.3,3.1-9,5.2
						c-1.4,1.1-2.6,2.3-3.7,3.6c-1.2,1.3-2.3,2.6-3.3,4c-2.1,2.8-3.8,5.8-5.2,9c-2.8,6.4-3.9,13.4-3.7,20.4c0,0.3-0.2,0.5-0.5,0.5
						C30.6,71.3,30.4,71.1,30.4,70.8z"/>
				</g>
				<g>
					<path class="st26" d="M61,105.1c-2.2-0.8-4.3-1.8-6.4-2.8c-2.1-1-4.1-2.2-6.1-3.4c-0.3-0.2-0.3-0.5-0.2-0.7
						c0.2-0.3,0.5-0.3,0.7-0.2c0,0,0,0,0,0c1.9,1.4,3.8,2.6,5.8,3.7c2,1.1,4.1,2.1,6.3,2.9l0,0c0.1,0.1,0.2,0.2,0.2,0.4
						C61.3,105.1,61.1,105.1,61,105.1C61,105.1,61,105.1,61,105.1z"/>
				</g>
				<g>
					<path class="st26" d="M31.4,70.9c-0.6,2.8-0.8,5.7-0.8,8.5c0,2.9,0.3,5.7,1,8.5c0.6,2.8,1.7,5.5,3.1,8l1.1,1.8l1.3,1.7
						c0.2,0.3,0.4,0.6,0.7,0.9l0.7,0.8l1.5,1.6l0,0c0.1,0.1,0.1,0.3,0,0.4c-0.1,0.1-0.3,0.1-0.3,0l-1.5-1.6l-0.8-0.8
						c-0.2-0.3-0.5-0.6-0.7-0.9l-1.3-1.7l-1.1-1.9c-1.5-2.5-2.6-5.3-3.3-8.1c-0.7-2.8-1.1-5.8-1.1-8.7c0-2.9,0.2-5.8,0.8-8.7
						c0.1-0.3,0.3-0.4,0.6-0.4C31.3,70.3,31.4,70.6,31.4,70.9C31.4,70.8,31.4,70.8,31.4,70.9L31.4,70.9z"/>
				</g>
				<g>
					<path class="st26" d="M39.5,102.8c-0.2-1.6-0.2-3.1-0.1-4.7c0-0.8,0.1-1.6,0.3-2.4c0.2-0.8,0.4-1.6,0.9-2.3
						c0.2-0.3,0.5-0.4,0.8-0.2s0.4,0.5,0.2,0.8c0,0,0,0,0,0l0,0c-0.4,0.5-0.6,1.2-0.8,1.9c-0.2,0.7-0.3,1.4-0.4,2.2
						c-0.2,1.5-0.2,3-0.2,4.5l0,0c0,0.1-0.1,0.3-0.2,0.3C39.6,103.1,39.5,103,39.5,102.8z"/>
				</g>
				<g>
					<path class="st26" d="M41.5,93.6c0.3,0.9,0.7,1.8,1.2,2.7c0.5,0.9,1,1.7,1.6,2.5c0.6,0.8,1.3,1.5,2,2.2
						c0.7,0.7,1.6,1.2,2.4,1.7l0,0c0.1,0.1,0.2,0.3,0.1,0.4c-0.1,0.1-0.3,0.2-0.4,0.1c-0.9-0.5-1.8-1-2.6-1.7
						c-0.8-0.7-1.5-1.4-2.2-2.2c-0.7-0.8-1.2-1.7-1.8-2.6c-0.5-0.9-1-1.8-1.4-2.9c-0.1-0.3,0-0.6,0.3-0.7S41.4,93.3,41.5,93.6
						C41.5,93.6,41.5,93.6,41.5,93.6L41.5,93.6z"/>
				</g>
				<g>
					<path class="st26" d="M48.2,103.1c-0.2-1.6-0.2-3.2,0-4.8c0-0.3,0.3-0.5,0.6-0.5c0.3,0,0.5,0.3,0.5,0.6c0,0,0,0,0,0.1
						c-0.3,1.5-0.5,3-0.5,4.5l0,0c0,0.2-0.1,0.3-0.3,0.3C48.4,103.4,48.2,103.3,48.2,103.1z"/>
				</g>
				<g>
					<g>
						<path class="st26" d="M113.3,104.6c2.2-0.8,4.2-1.8,6.3-2.9c2-1.1,4-2.3,5.8-3.7c0.2-0.2,0.6-0.1,0.8,0.1
							c0.2,0.2,0.1,0.6-0.1,0.8c0,0,0,0,0,0c-2,1.2-4,2.4-6.1,3.4c-2.1,1.1-4.2,2-6.4,2.8c-0.1,0.1-0.3,0-0.4-0.2
							S113.2,104.6,113.3,104.6C113.3,104.6,113.3,104.6,113.3,104.6L113.3,104.6z"/>
					</g>
					<g>
						<path class="st26" d="M144,70.7c0.6,2.9,0.8,5.8,0.8,8.7c-0.1,2.9-0.4,5.8-1.1,8.7c-0.7,2.9-1.8,5.6-3.3,8.1l-1.1,1.9
							l-1.3,1.7c-0.2,0.3-0.4,0.6-0.7,0.9l-0.8,0.8l-1.5,1.6c-0.1,0.1-0.3,0.1-0.4,0c-0.1-0.1-0.1-0.3,0-0.3l0,0l1.5-1.6l0.7-0.8
							c0.2-0.3,0.4-0.6,0.7-0.9l1.3-1.7l1.1-1.8c1.4-2.5,2.5-5.2,3.1-8c0.7-2.8,1-5.7,1-8.5c0-2.9-0.2-5.8-0.8-8.5l0,0
							c-0.1-0.3,0.1-0.5,0.4-0.6C143.7,70.2,144,70.4,144,70.7C144,70.7,144,70.7,144,70.7z"/>
					</g>
					<g>
						<path class="st26" d="M134.5,102.8c0-1.5,0-3.1-0.2-4.5c-0.1-0.7-0.2-1.5-0.4-2.2c-0.2-0.7-0.5-1.4-0.8-1.9l0,0
							c-0.2-0.3-0.1-0.6,0.1-0.8c0.3-0.2,0.6-0.1,0.8,0.1c0,0,0,0,0,0c0.5,0.8,0.7,1.5,0.9,2.3c0.2,0.8,0.2,1.6,0.3,2.4
							c0.1,1.6,0,3.1-0.1,4.7c0,0.1-0.1,0.2-0.3,0.2C134.6,103.1,134.5,102.9,134.5,102.8L134.5,102.8z"/>
					</g>
					<g>
						<path class="st26" d="M134.1,94c-0.4,1-0.8,1.9-1.4,2.9c-0.5,0.9-1.1,1.8-1.8,2.6c-0.6,0.8-1.4,1.6-2.2,2.2
							c-0.8,0.7-1.7,1.2-2.6,1.7c-0.2,0.1-0.3,0-0.4-0.1c-0.1-0.1,0-0.3,0.1-0.4l0,0c0.9-0.5,1.7-1,2.4-1.7c0.7-0.7,1.4-1.4,2-2.2
							c0.6-0.8,1.1-1.7,1.6-2.5c0.5-0.9,0.9-1.8,1.2-2.7l0,0c0.1-0.3,0.4-0.5,0.7-0.4C134,93.3,134.2,93.7,134.1,94
							C134.1,94,134.1,94,134.1,94z"/>
					</g>
					<g>
						<path class="st26" d="M125.7,103.1c0-1.5-0.2-3.1-0.5-4.5c-0.1-0.3,0.1-0.6,0.4-0.7c0.3-0.1,0.6,0.1,0.7,0.4c0,0,0,0,0,0.1
							c0.2,1.6,0.2,3.2,0,4.8c0,0.2-0.2,0.3-0.3,0.3C125.8,103.4,125.7,103.2,125.7,103.1L125.7,103.1z"/>
					</g>
				</g>
				<path class="st24" d="M54.6,101.8c0.7,0.4,1.4,0.7,2.3,1.1c1.8,0.9,3.4,1.7,4.1,1.8c0,0,0,0,0,0l0.1,0c0,0-12.7-7.9-14.8-11.8
					c0,0-0.4,5.7,2.2,10l0.3-4.6C50.5,99.6,52.8,100.9,54.6,101.8z"/>
				<path class="st24" d="M41,93.8c0,0,0.4,0.8,1,2l-4.7-8.3c-1.1,7.7,2.5,15.3,2.5,15.3S39.7,94.6,41,93.8z"/>
				<path class="st24" d="M120,101.8c-0.7,0.4-1.4,0.7-2.3,1.1c-1.8,0.9-3.4,1.7-4.1,1.8c0,0,0,0,0,0l-0.1,0c0,0,12.7-7.9,14.8-11.8
					c0,0,0.4,5.7-2.2,10l-0.3-4.6C124.2,99.6,121.8,100.9,120,101.8z"/>
				<path class="st24" d="M133.7,93.8c0,0-0.4,0.8-1,2l4.7-8.3c1.1,7.7-2.5,15.3-2.5,15.3S134.9,94.6,133.7,93.8z"/>
			</g>
		</g>
		<circle class="st30" cx="62.1" cy="58.2" r="11.9"/>
		<circle class="st182" cx="62.2" cy="60" r="10.2"/>
		<g>
			<circle class="st26" cx="62.2" cy="60" r="8.3"/>
			<ellipse transform="matrix(0.7071 -0.7071 0.7071 0.7071 -18.8105 64.2103)" class="st30" cx="68.1" cy="54.8" rx="3" ry="3"/>
			<circle class="st183" cx="62.1" cy="58.2" r="11.9"/>
			<path class="st184" d="M52.8,43c0,0,9.1-6.8,17.7,0"/>
		</g>
		<g>
			<path class="st24" d="M82.1,86.9c0,0,1.6,2.4,3.6,2.5c2,0.1,3.6-3,3.6-3S87.4,89.3,82.1,86.9z"/>
			<g>
				<g>
					<path class="st26" d="M80.4,76.8c-0.1,0.5,0.2,1,0.6,1.3c0.6,0.4,1.3,0.6,2,0.6c1,0,2.1,0.6,2.2,1.6c0,0.3,0.8,0.1,0.8,0
						c0.3-1.8,3-1.5,4-2.1c1.3-0.7,1.2-2,0-2.6C88.2,74.7,80.7,74.2,80.4,76.8z"/>
					<g>
						<g>
							<path class="st26" d="M73.9,78.5c-5.2-0.3-10.4,1-15,3.3c-4.7,2.4-8.8,5.8-12,9.9c3.2-4.2,7.2-7.7,11.9-10.2
								c4.6-2.5,9.9-3.9,15.2-3.7c0.2,0,0.3,0.2,0.3,0.3S74.1,78.5,73.9,78.5C73.9,78.5,73.9,78.5,73.9,78.5z"/>
						</g>
						<g>
							<path class="st26" d="M75.4,80.5c-2.3,0.1-4.7,0.6-6.9,1.4c-2.2,0.8-4.4,1.8-6.4,3.1c-2,1.3-3.9,2.8-5.5,4.5
								c-1.6,1.7-3,3.7-4.2,5.7c1.2-2.1,2.5-4.1,4.1-5.9c1.6-1.8,3.4-3.4,5.4-4.7c2-1.3,4.1-2.4,6.4-3.3c2.3-0.8,4.6-1.4,7-1.6
								c0.2,0,0.3,0.1,0.4,0.3C75.8,80.3,75.6,80.5,75.4,80.5C75.4,80.5,75.4,80.5,75.4,80.5L75.4,80.5z"/>
						</g>
						<g>
							<path class="st26" d="M73.5,82.7c-3.1,0.9-6,2.5-8.5,4.4c-1.3,1-2.5,2.1-3.6,3.3c-1.1,1.2-2,2.6-2.7,4.1
								c0.6-1.5,1.5-2.9,2.5-4.2c1-1.3,2.2-2.4,3.5-3.5c2.5-2.1,5.4-3.8,8.6-4.8c0.2-0.1,0.4,0,0.4,0.2
								C73.8,82.4,73.7,82.6,73.5,82.7C73.5,82.6,73.5,82.7,73.5,82.7z"/>
						</g>
					</g>
					<g>
						<g>
							<path class="st26" d="M98.3,77.8c5.3-0.2,10.6,1.2,15.2,3.7c4.6,2.5,8.7,6,11.9,10.2c-3.3-4.1-7.4-7.5-12-9.9
								c-4.6-2.4-9.9-3.7-15-3.3c-0.2,0-0.3-0.1-0.4-0.3C98,78,98.1,77.9,98.3,77.8C98.3,77.8,98.3,77.8,98.3,77.8z"/>
						</g>
						<g>
							<path class="st26" d="M96.9,79.8c2.4,0.2,4.8,0.7,7,1.6c2.3,0.8,4.4,2,6.4,3.3c2,1.3,3.8,2.9,5.4,4.7c1.6,1.8,3,3.8,4.1,5.9
								c-1.2-2.1-2.6-4-4.2-5.7c-1.6-1.7-3.5-3.2-5.5-4.5c-2-1.3-4.1-2.3-6.4-3.1c-2.2-0.8-4.6-1.3-6.9-1.4l0,0
								c-0.2,0-0.3-0.2-0.3-0.3C96.5,79.9,96.7,79.8,96.9,79.8C96.9,79.8,96.9,79.8,96.9,79.8z"/>
						</g>
						<g>
							<path class="st26" d="M99,82c3.2,1,6,2.7,8.6,4.8c1.3,1.1,2.4,2.2,3.5,3.5c1,1.3,1.9,2.7,2.5,4.2c-0.6-1.5-1.6-2.9-2.7-4.1
								c-1.1-1.2-2.3-2.3-3.6-3.3c-2.6-2-5.5-3.6-8.5-4.4c-0.2,0-0.3-0.2-0.2-0.4S98.8,82,99,82C99,82,99,82,99,82z"/>
						</g>
					</g>
					<g>
						<path class="st26" d="M86.1,78.8c0,0.5-0.1,1-0.2,1.4c-0.1,0.5-0.2,0.9-0.4,1.4c-0.2,0.4-0.5,0.9-0.8,1.2
							c-0.4,0.3-0.9,0.5-1.3,0.6c-0.1,0-0.2-0.1-0.2-0.1c0-0.1,0-0.2,0.1-0.2l0,0c0.4-0.1,0.8-0.3,1.1-0.6c0.3-0.3,0.5-0.7,0.6-1.1
							c0.3-0.8,0.3-1.7,0.3-2.6l0,0c0-0.2,0.2-0.5,0.4-0.5C85.9,78.4,86.1,78.6,86.1,78.8C86.1,78.8,86.1,78.8,86.1,78.8z"/>
					</g>
					<g>
						<path class="st26" d="M86,78.8c0.1,1,0.3,2.1,0.7,2.9c0.2,0.4,0.5,0.8,1,1.1c0.4,0.2,0.9,0.3,1.4,0.3l0,0
							c0.1,0,0.2,0.1,0.2,0.1c0,0.1-0.1,0.2-0.1,0.2c-0.6,0.1-1.2,0.1-1.7-0.2c-0.5-0.3-0.9-0.7-1.3-1.2c-0.3-0.5-0.5-1-0.7-1.5
							c-0.2-0.5-0.3-1.1-0.4-1.6c0-0.2,0.1-0.5,0.4-0.5C85.7,78.4,85.9,78.5,86,78.8C86,78.8,86,78.8,86,78.8L86,78.8z"/>
					</g>
				</g>
				<g>
					<path class="st26" d="M82.1,86.8c1.2,0.4,2.5,0.7,3.7,0.7c0.6,0,1.2-0.1,1.8-0.3c0.6-0.2,1.1-0.5,1.6-0.9l0,0c0,0,0.1,0,0.1,0
						c0,0,0,0.1,0,0.1c-0.4,0.5-1,0.9-1.6,1.2c-0.6,0.3-1.3,0.4-2,0.4c-1.3,0-2.7-0.4-3.8-1.1c0,0-0.1-0.1,0-0.1
						C82.1,86.8,82.1,86.8,82.1,86.8L82.1,86.8z"/>
				</g>
			</g>
		</g>
	</g>
</g>
<g id="mask" class="st0">
</g>
</svg>
