<?xml version="1.0" encoding="utf-8"?>
<!-- Generator: Adobe Illustrator 21.0.0, SVG Export Plug-In . SVG Version: 6.00 Build 0)  -->
<svg version="1.1" xmlns="http://www.w3.org/2000/svg" xmlns:xlink="http://www.w3.org/1999/xlink" x="0px" y="0px"
	 viewBox="0 0 176.8 172.4" style="enable-background:new 0 0 176.8 172.4;" xml:space="preserve">
<style type="text/css">
	.st0{display:none;}
	.st1{display:inline;fill:#FD9994;}
	.st2{display:inline;fill:#FFFFFF;}
	.st3{display:inline;fill:none;stroke:#FFFFFF;stroke-width:2.2363;stroke-miterlimit:10;}
	.st4{display:inline;}
	.st5{fill:none;stroke:#FFFFFF;stroke-width:2.2363;stroke-miterlimit:10;}
	.st6{fill:#FFB380;}
	.st7{fill:#D2C3DB;}
	.st8{fill:#F9ECDC;}
	.st9{fill:#FFF58B;}
	.st10{fill:#F6BC60;}
	.st11{fill:#ECF784;}
	.st12{fill:#FFDEFF;}
	.st13{fill:#AED5D2;}
	.st14{fill:#F4BD9F;}
	.st15{fill:#B9DCFF;}
	.st16{fill:#D7FFFB;}
	.st17{fill:#81D8F7;}
	.st18{fill:#E57777;}
	.st19{fill:#D9FFDB;}
	.st20{opacity:0.1;}
	.st21{fill:#5CCDFF;}
	.st22{fill:none;}
	.st23{opacity:0.2;fill:#FFFFFF;}
	.st24{opacity:0.1;fill:#002CBF;}
	.st25{fill:#1A1A1A;}
	.st26{fill:#333333;}
	.st27{fill:#FFFFDE;}
	.st28{clip-path:url(#SVGID_4_);}
	.st29{fill:none;stroke:#333333;stroke-width:0.4917;stroke-linecap:round;stroke-linejoin:round;stroke-miterlimit:10;}
	.st30{fill:#FFFFFF;}
	.st31{fill:none;stroke:#333333;stroke-width:0.8543;stroke-miterlimit:10;}
	.st32{clip-path:url(#SVGID_6_);}
	.st33{fill:#FFD7B9;}
	.st34{fill:#F0FFFF;}
	.st35{clip-path:url(#SVGID_8_);}
	.st36{fill:#FF5C5C;}
	.st37{fill:none;stroke:#333333;stroke-width:0.466;stroke-linecap:round;stroke-linejoin:round;stroke-miterlimit:10;}
	.st38{fill:none;stroke:#333333;stroke-width:0.8095;stroke-miterlimit:10;}
	.st39{clip-path:url(#SVGID_10_);}
	.st40{fill:none;stroke:#333333;stroke-width:0.7381;stroke-linecap:round;stroke-linejoin:round;stroke-miterlimit:10;}
	.st41{fill:none;stroke:#333333;stroke-width:0.8857;stroke-linecap:round;stroke-linejoin:round;stroke-miterlimit:10;}
	.st42{fill:none;stroke:#333333;stroke-width:2.6852;stroke-linecap:round;stroke-linejoin:round;stroke-miterlimit:10;}
	.st43{fill:#72B5C4;}
	.st44{fill:#5E96A5;}
	.st45{fill:none;stroke:#FFFFFF;stroke-width:2.6852;stroke-linecap:round;stroke-linejoin:round;stroke-miterlimit:10;}
	.st46{fill:none;stroke:#FFFFFF;stroke-width:1.2942;stroke-linecap:round;stroke-linejoin:round;stroke-miterlimit:10;}
	.st47{fill:none;stroke:#FFFFFF;stroke-width:0.8311;stroke-linecap:round;stroke-linejoin:round;stroke-miterlimit:10;}
	.st48{fill:#FF5C00;}
	.st49{fill:#00B4FF;}
	.st50{fill:#FF5592;}
	.st51{fill:#733FFF;}
	.st52{fill:#DDFF15;}
	.st53{fill:#BF5855;}
	.st54{fill:none;stroke:#333333;stroke-width:0.5718;stroke-miterlimit:10;}
	.st55{fill:#C8F982;}
	.st56{fill:#AEF9C0;}
	.st57{fill:none;stroke:#FFFFFF;stroke-width:1.8326;stroke-miterlimit:10;}
	.st58{fill:#9AF6F9;}
	.st59{fill:#FFACA2;}
	.st60{fill:#F9E582;}
	.st61{fill:#FFC08B;}
	.st62{fill:#EFEB6A;}
	.st63{fill:#EC987F;}
	.st64{fill:#B5FFCC;}
	.st65{fill:#FFEDA2;}
	.st66{fill:#CCE7CC;}
	.st67{fill:#ABE7AB;}
	.st68{fill:#A6A6A6;}
	.st69{clip-path:url(#SVGID_60_);}
	.st70{fill:none;stroke:#333333;stroke-width:0.4706;stroke-linecap:round;stroke-linejoin:round;stroke-miterlimit:10;}
	.st71{fill:#FFEC55;}
	.st72{fill:none;stroke:#333333;stroke-width:0.8177;stroke-miterlimit:10;}
	.st73{clip-path:url(#SVGID_62_);}
	.st74{clip-path:url(#SVGID_64_);}
	.st75{fill:#FF7A59;}
	.st76{clip-path:url(#SVGID_66_);}
	.st77{clip-path:url(#SVGID_68_);}
	.st78{fill:#B45FFF;}
	.st79{clip-path:url(#SVGID_70_);}
	.st80{opacity:0.2;fill:#002CBF;}
	.st81{fill:none;stroke:#333333;stroke-width:0.5506;stroke-linecap:round;stroke-linejoin:round;stroke-miterlimit:10;}
	.st82{clip-path:url(#SVGID_72_);}
	.st83{fill:#EAA871;}
	.st84{fill:#FFD836;}
	.st85{fill:#FF846B;}
	.st86{fill:none;stroke:#333333;stroke-width:0.804;stroke-linecap:round;stroke-linejoin:round;stroke-miterlimit:10;}
	.st87{fill:#FEFF4A;}
	.st88{fill:none;stroke:#333333;stroke-width:0.7645;stroke-linecap:round;stroke-linejoin:round;stroke-miterlimit:10;}
	.st89{fill:none;stroke:#333333;stroke-width:0.7645;stroke-miterlimit:10;}
	.st90{fill:none;stroke:#333333;stroke-width:2.9248;stroke-linecap:round;stroke-linejoin:round;stroke-miterlimit:10;}
	.st91{fill:none;stroke:#333333;stroke-width:0.945;stroke-linecap:round;stroke-linejoin:round;stroke-miterlimit:10;}
	.st92{fill:none;stroke:#333333;stroke-width:0.945;stroke-miterlimit:10;}
	.st93{fill:none;stroke:#333333;stroke-width:3.6155;stroke-linecap:round;stroke-linejoin:round;stroke-miterlimit:10;}
	.st94{fill:none;stroke:#333333;stroke-width:0.6228;stroke-miterlimit:10;}
	.st95{fill:none;stroke:#333333;stroke-width:0.7778;stroke-linecap:round;stroke-linejoin:round;stroke-miterlimit:10;}
	.st96{fill:#FF712A;}
	.st97{fill:none;stroke:#333333;stroke-width:0.7396;stroke-linecap:round;stroke-linejoin:round;stroke-miterlimit:10;}
	.st98{fill:none;stroke:#333333;stroke-width:0.7396;stroke-miterlimit:10;}
	.st99{fill:none;stroke:#333333;stroke-width:2.8295;stroke-linecap:round;stroke-linejoin:round;stroke-miterlimit:10;}
	.st100{fill:none;stroke:#333333;stroke-width:0.9142;stroke-linecap:round;stroke-linejoin:round;stroke-miterlimit:10;}
	.st101{fill:none;stroke:#333333;stroke-width:0.9142;stroke-miterlimit:10;}
	.st102{fill:none;stroke:#333333;stroke-width:3.4977;stroke-linecap:round;stroke-linejoin:round;stroke-miterlimit:10;}
	.st103{fill:none;stroke:#333333;stroke-width:0.6025;stroke-miterlimit:10;}
	.st104{fill:url(#SVGID_89_);}
	.st105{fill:url(#SVGID_90_);}
	.st106{fill:none;stroke:#333333;stroke-width:0.7438;stroke-linecap:round;stroke-linejoin:round;stroke-miterlimit:10;}
	.st107{fill:none;stroke:#333333;stroke-width:0.8926;stroke-linecap:round;stroke-linejoin:round;stroke-miterlimit:10;}
	.st108{clip-path:url(#SVGID_92_);fill:url(#SVGID_93_);}
	.st109{fill:url(#SVGID_94_);}
	.st110{fill:#52C5FF;}
	.st111{fill:none;stroke:#333333;stroke-width:0.6367;stroke-linecap:round;stroke-linejoin:round;stroke-miterlimit:10;}
	.st112{fill:none;stroke:#333333;stroke-width:2.7061;stroke-linecap:round;stroke-linejoin:round;stroke-miterlimit:10;}
	.st113{fill:none;stroke:#333333;stroke-width:0.5763;stroke-miterlimit:10;}
	.st114{fill:none;stroke:#FFFFFF;stroke-width:1.3042;stroke-linecap:round;stroke-linejoin:round;stroke-miterlimit:10;}
	.st115{fill:none;stroke:#FFFFFF;stroke-width:0.8375;stroke-linecap:round;stroke-linejoin:round;stroke-miterlimit:10;}
	.st116{clip-path:url(#SVGID_96_);}
	.st117{opacity:0.2;fill:#2E3192;}
	.st118{fill:#FEFF78;}
	.st119{opacity:0.1;fill:#2E3192;}
	.st120{fill:#FF5A50;}
	.st121{fill:none;stroke:#333333;stroke-width:0.567;stroke-linecap:round;stroke-linejoin:round;stroke-miterlimit:10;}
	.st122{fill:none;stroke:#333333;stroke-width:2.5786;stroke-linecap:round;stroke-linejoin:round;stroke-miterlimit:10;}
	.st123{fill:none;stroke:#333333;stroke-width:0.5491;stroke-miterlimit:10;}
	.st124{clip-path:url(#SVGID_98_);}
	.st125{fill:#2AD2FF;}
	.st126{fill:none;stroke:#333333;stroke-width:0.2435;stroke-miterlimit:10;}
	.st127{fill:#FFFFFF;stroke:#333333;stroke-width:0.487;stroke-linecap:round;stroke-linejoin:round;stroke-miterlimit:10;}
	.st128{clip-path:url(#SVGID_100_);}
	.st129{fill:url(#SVGID_101_);}
	.st130{opacity:0.4;fill:#FFFFFF;}
	.st131{fill:#FFDC48;}
	.st132{fill:none;stroke:#333333;stroke-width:0.5835;stroke-linecap:round;stroke-linejoin:round;stroke-miterlimit:10;}
	.st133{fill:none;stroke:#333333;stroke-width:2.6537;stroke-linecap:round;stroke-linejoin:round;stroke-miterlimit:10;}
	.st134{fill:#F0F462;}
	.st135{fill:url(#SVGID_102_);}
	.st136{fill:url(#SVGID_103_);}
	.st137{fill:#D1DADF;}
	.st138{fill:#57FFA3;}
	.st139{clip-path:url(#SVGID_105_);}
	.st140{clip-path:url(#SVGID_107_);}
	.st141{fill:#D0BBF9;}
	.st142{clip-path:url(#SVGID_109_);}
	.st143{fill:none;stroke:#333333;stroke-width:0.5867;stroke-linecap:round;stroke-linejoin:round;stroke-miterlimit:10;}
	.st144{clip-path:url(#SVGID_111_);}
	.st145{fill:none;stroke:#333333;stroke-width:0.5514;stroke-linecap:round;stroke-linejoin:round;stroke-miterlimit:10;}
	.st146{fill:#D1E9D3;}
	.st147{clip-path:url(#SVGID_113_);}
	.st148{fill:none;stroke:#333333;stroke-width:0.7684;stroke-linecap:round;stroke-linejoin:round;stroke-miterlimit:10;}
	.st149{fill:none;stroke:#333333;stroke-width:0.7684;stroke-miterlimit:10;}
	.st150{fill:none;stroke:#333333;stroke-width:2.9398;stroke-linecap:round;stroke-linejoin:round;stroke-miterlimit:10;}
	.st151{clip-path:url(#SVGID_115_);}
	.st152{fill:#FF66F8;}
	.st153{fill:none;stroke:#333333;stroke-width:0.7542;stroke-linecap:round;stroke-linejoin:round;stroke-miterlimit:10;}
	.st154{fill:none;stroke:#333333;stroke-width:0.9051;stroke-linecap:round;stroke-linejoin:round;stroke-miterlimit:10;}
	.st155{fill:none;stroke:#333333;stroke-width:0.5146;stroke-linecap:round;stroke-linejoin:round;stroke-miterlimit:10;}
	.st156{fill:none;stroke:#333333;stroke-width:0.6033;stroke-linecap:round;stroke-linejoin:round;stroke-miterlimit:10;}
	.st157{fill:none;stroke:#333333;stroke-width:2.7439;stroke-linecap:round;stroke-linejoin:round;stroke-miterlimit:10;}
	.st158{fill:#333333;stroke:#333333;stroke-width:1.0293;stroke-linecap:round;stroke-linejoin:round;stroke-miterlimit:10;}
	.st159{fill:#FF5F2A;}
	.st160{fill:none;stroke:#333333;stroke-width:0.5965;stroke-linecap:round;stroke-linejoin:round;stroke-miterlimit:10;}
	.st161{fill:#F9CC3E;}
	.st162{clip-path:url(#SVGID_121_);}
	.st163{fill:#70E1FF;}
	.st164{fill:none;stroke:#333333;stroke-width:0.5717;stroke-linecap:round;stroke-linejoin:round;stroke-miterlimit:10;}
	.st165{fill:none;stroke:#333333;stroke-width:2.6004;stroke-linecap:round;stroke-linejoin:round;stroke-miterlimit:10;}
	.st166{clip-path:url(#SVGID_123_);}
	.st167{fill:#8F61FF;}
	.st168{clip-path:url(#SVGID_125_);}
	.st169{clip-path:url(#SVGID_127_);}
	.st170{fill:#FFEBEB;}
	.st171{clip-path:url(#SVGID_129_);}
	.st172{clip-path:url(#SVGID_131_);}
	.st173{fill:#F47D62;}
	.st174{fill:none;stroke:#333333;stroke-width:0.7188;stroke-linecap:round;stroke-linejoin:round;stroke-miterlimit:10;}
	.st175{fill:none;stroke:#333333;stroke-width:0.7188;stroke-miterlimit:10;}
	.st176{fill:none;stroke:#333333;stroke-width:2.7502;stroke-linecap:round;stroke-linejoin:round;stroke-miterlimit:10;}
	.st177{fill:#85ACB5;}
	.st178{clip-path:url(#SVGID_133_);}
	.st179{fill:#D5F2F7;}
	.st180{fill:#FF694A;}
	.st181{fill:none;stroke:#333333;stroke-width:0.5693;stroke-linecap:round;stroke-linejoin:round;stroke-miterlimit:10;}
	.st182{fill:#FFDF15;}
	.st183{fill:none;stroke:#333333;stroke-width:0.6674;stroke-linecap:round;stroke-linejoin:round;stroke-miterlimit:10;}
	.st184{fill:none;stroke:#333333;stroke-width:3.0352;stroke-linecap:round;stroke-linejoin:round;stroke-miterlimit:10;}
	.st185{clip-path:url(#SVGID_135_);}
	.st186{clip-path:url(#SVGID_137_);}
	.st187{fill:none;stroke:#333333;stroke-width:0.5248;stroke-linecap:round;stroke-linejoin:round;stroke-miterlimit:10;}
	.st188{fill:#FFD33A;}
	.st189{fill:none;stroke:#333333;stroke-width:2.7983;stroke-linecap:round;stroke-linejoin:round;stroke-miterlimit:10;}
	.st190{fill:none;stroke:#333333;stroke-width:0.7692;stroke-linecap:round;stroke-linejoin:round;stroke-miterlimit:10;}
	.st191{fill:none;stroke:#333333;stroke-width:0.5959;stroke-miterlimit:10;}
	.st192{clip-path:url(#SVGID_143_);}
	.st193{fill:#FFE267;}
	.st194{clip-path:url(#SVGID_149_);}
	.st195{fill:#FFEEAA;}
	.st196{opacity:0.7;fill:url(#SVGID_152_);}
	.st197{fill:none;stroke:#333333;stroke-width:0.611;stroke-miterlimit:10;}
	.st198{clip-path:url(#SVGID_154_);}
	.st199{opacity:0.7;fill:url(#SVGID_157_);}
	.st200{fill:#EABBFC;}
	.st201{opacity:0.7;fill:url(#SVGID_160_);}
	.st202{opacity:0.7;fill:url(#SVGID_163_);}
	.st203{opacity:0.7;fill:url(#SVGID_166_);}
	.st204{opacity:0.7;fill:url(#SVGID_169_);}
	.st205{clip-path:url(#SVGID_171_);}
	.st206{fill:none;stroke:#333333;stroke-width:0.5899;stroke-linecap:round;stroke-linejoin:round;stroke-miterlimit:10;}
	.st207{fill:none;stroke:#333333;stroke-width:2.6828;stroke-linecap:round;stroke-linejoin:round;stroke-miterlimit:10;}
	.st208{fill:none;stroke:#333333;stroke-width:0.5713;stroke-miterlimit:10;}
	.st209{clip-path:url(#SVGID_173_);}
	.st210{clip-path:url(#SVGID_175_);}
	.st211{clip-path:url(#SVGID_177_);}
	.st212{fill:#FFAFC3;}
	.st213{fill:#A0D3FF;}
	.st214{fill:none;stroke:#333333;stroke-width:0.7262;stroke-linecap:round;stroke-linejoin:round;stroke-miterlimit:10;}
	.st215{fill:none;stroke:#333333;stroke-width:0.6906;stroke-miterlimit:10;}
	.st216{fill:none;stroke:#333333;stroke-width:0.8536;stroke-miterlimit:10;}
	.st217{fill:#333333;stroke:#333333;stroke-width:0.991;stroke-linecap:round;stroke-linejoin:round;stroke-miterlimit:10;}
	.st218{clip-path:url(#SVGID_179_);}
	.st219{clip-path:url(#SVGID_181_);}
	.st220{fill:#FD9994;}
	.st221{opacity:0.2;}
	.st222{fill:#2E3192;}
	.st223{display:inline;fill:#FF5B00;}
</style>
<g id="site">
</g>
<g id="kitties">
	<g>
		<g>
			<path class="st84" d="M144,103.3c0,0-9.4-1.9-14.4,11.5c-5,13.4-5.1,16.4-20.1,18.6l2,13.1c0,0,13.2,5.3,23.9,0.1
				c10.7-5.2,8.7-16.6,8.8-19.7c0-0.4-0.2,1.6-1.2,3c-1.3,1.7-3,2.9-2.6,2.1c2.4-4.5,2.9-13.6,2.9-13.6
				C142.1,112.4,141.5,105.7,144,103.3z"/>
			<path class="st24" d="M130.3,112.9c0,0,0.4,12.2-5.5,16.9c-6.3,5.1-12,3.2-12,3.2s7.3-1.2,10.7-4.9
				C128.3,123,130.3,112.9,130.3,112.9z"/>
			<g>
				<path class="st26" d="M144,103.7c-4-0.2-8.2,1.6-10.7,4.7c-1.3,1.6-2.2,3.4-2.8,5.4c-0.7,2-1.3,4-1.9,5.9c-0.7,2-1.4,4-2.6,5.8
					c-1.1,1.8-2.6,3.4-4.4,4.6c-1.8,1.2-3.8,1.9-5.8,2.5c-2,0.5-4.1,0.8-6.2,1c-0.1,0-0.2-0.1-0.2-0.2c0-0.1,0.1-0.2,0.2-0.2
					c2.1-0.2,4.1-0.6,6.1-1.2c2-0.6,3.9-1.3,5.6-2.5c1.7-1.1,3.1-2.7,4.1-4.5c1-1.8,1.7-3.7,2.4-5.7c0.6-2,1.2-4,1.9-6
					c0.7-2,1.6-4,3-5.6c2.7-3.4,7.1-5.2,11.4-5c0.2,0,0.4,0.2,0.4,0.4C144.4,103.6,144.2,103.7,144,103.7L144,103.7z"/>
			</g>
			<g>
				<path class="st26" d="M144.5,126.4c0.5,4.3,0.3,8.8-1.4,12.9c-0.9,2-2.1,4-3.8,5.4c-0.9,0.7-1.8,1.4-2.8,1.9
					c-1,0.5-2,0.9-3.1,1.2c-4.2,1.4-8.7,1.7-13,1.2c-4.3-0.5-8.6-1.8-12.5-3.8c-0.1,0-0.1-0.2-0.1-0.3c0-0.1,0.2-0.1,0.3-0.1l0,0
					c3.8,1.9,8.1,3.1,12.3,3.6c4.3,0.5,8.6,0.1,12.7-1.3c4.1-1.2,7.5-4.2,9.2-8.1c1.7-3.9,2.1-8.3,1.7-12.6c0-0.1,0.1-0.2,0.2-0.2
					C144.4,126.2,144.5,126.3,144.5,126.4z"/>
			</g>
			<g>
				<path class="st26" d="M144.3,103.6c-0.6,0.9-1.1,2.2-1.3,3.3c-0.3,1.2-0.4,2.4-0.4,3.7c0,1.2,0.1,2.5,0.3,3.7
					c0.2,1.2,0.5,2.5,0.5,3.8c0.2,2.6,0,5.1-0.5,7.6c-0.5,2.5-1.5,4.9-2.7,7.1c-0.1,0.1-0.2,0.1-0.3,0.1c-0.1-0.1-0.1-0.2-0.1-0.3
					c1.2-2.2,2-4.6,2.4-7.1c0.4-2.5,0.5-5,0.3-7.4c-0.1-1.2-0.3-2.4-0.5-3.7c-0.2-1.3-0.3-2.5-0.2-3.8c0-1.3,0.1-2.6,0.4-3.8
					c0.3-1.3,0.7-2.5,1.5-3.6c0.1-0.2,0.4-0.2,0.5-0.1C144.4,103.1,144.4,103.4,144.3,103.6L144.3,103.6z"/>
			</g>
			<g>
				<path class="st26" d="M144.5,126.4c-0.1,1.4-0.7,2.6-1.4,3.8c-0.4,0.6-0.8,1.1-1.3,1.6c-0.5,0.5-1.1,0.8-1.7,1.1
					c-0.1,0-0.2,0-0.2-0.1c0-0.1,0-0.2,0.1-0.2l0,0c0.5-0.4,1-0.7,1.5-1.2c0.4-0.5,0.8-0.9,1.2-1.5c0.7-1.1,1.2-2.3,1.6-3.5l0,0
					c0-0.1,0.1-0.2,0.3-0.1C144.5,126.3,144.5,126.4,144.5,126.4z"/>
			</g>
			<path class="st24" d="M139.9,132.7l-1,2c-0.2,0.4,0.2,0.9,0.7,0.6c1.6-0.9,4.3-3.1,4.7-8.3C144.2,127,142.7,131.9,139.9,132.7z"
				/>
		</g>
		<path class="st84" d="M37.1,48.1c0,0-41.5-34.2,26.2-13.8"/>
		<path class="st84" d="M124.5,48.1c0,0,41.5-34.2-26.2-13.8L124.5,48.1z"/>
		<g>
			<g>
				<path class="st26" d="M37,48.3C33,45,29.1,41.4,26.1,37c-0.7-1.1-1.4-2.3-1.8-3.6c-0.2-0.7-0.3-1.4-0.2-2.1
					c0.1-0.7,0.4-1.5,0.9-2c0.5-0.5,1.1-0.9,1.8-1.2c0.6-0.3,1.3-0.4,2-0.6c1.3-0.2,2.7-0.3,4-0.3c5.3,0.2,10.4,1.3,15.5,2.5
					c5.1,1.3,10.1,2.7,15.1,4.3c0.1,0,0.2,0.1,0.1,0.2c0,0.1-0.1,0.2-0.2,0.1c-5-1.4-10-2.8-15.1-3.9c-2.5-0.6-5.1-1.1-7.6-1.5
					c-2.6-0.4-5.1-0.7-7.7-0.8c-1.3,0-2.6,0-3.8,0.2c-0.6,0.1-1.2,0.2-1.8,0.5c-0.6,0.2-1.1,0.5-1.5,0.9c-0.8,0.8-0.9,2.1-0.5,3.2
					c0.3,1.2,0.9,2.3,1.6,3.4c1.4,2.2,3.1,4.1,4.9,6c1.8,1.9,3.7,3.7,5.6,5.4l0,0c0.1,0.1,0.1,0.3,0,0.4
					C37.2,48.4,37.1,48.4,37,48.3z"/>
			</g>
			<g>
				<path class="st26" d="M54.1,36.6c-2.2-0.5-4.3-0.9-6.5-1.3c-2.2-0.4-4.4-0.6-6.6-0.8c-2.2-0.2-4.4-0.4-6.6-0.5
					c-2.2-0.1-4.4-0.1-6.7,0c-0.1,0-0.2-0.1-0.2-0.2c0-0.1,0.1-0.2,0.2-0.2c2.2-0.3,4.5-0.4,6.7-0.4c2.2,0,4.5,0,6.7,0.3
					c2.2,0.3,4.4,0.6,6.6,1.1c2.2,0.5,4.3,1.1,6.5,1.8c0.1,0,0.1,0.1,0.1,0.2C54.3,36.5,54.2,36.6,54.1,36.6z"/>
			</g>
			<path class="st26" d="M42.9,43.2c0.6,0.1,1.3,0.2,1.9,0.1c0.6-0.2,1.2-0.5,1.7-0.9c2.1-1.5,4.2-3.1,6.2-4.7
				c0.3-0.2,0.6-0.5,0.5-0.9c0-0.2,4,0.5,1.1-0.3c-1.1-0.3-3.4-1.2-4.5-1.4c-4.8-0.8-9.6-1.5-14.4-1.9c-5.2-0.4,0.2,5.9,1.8,7.3
				C38.9,41.9,40.9,42.8,42.9,43.2z"/>
		</g>
		<g>
			<g>
				<path class="st26" d="M124.3,47.9c2-1.7,3.8-3.5,5.6-5.4c1.8-1.9,3.5-3.8,4.9-6c0.7-1.1,1.3-2.2,1.6-3.4
					c0.3-1.2,0.3-2.4-0.5-3.2c-0.4-0.4-0.9-0.7-1.5-0.9c-0.6-0.2-1.2-0.4-1.8-0.5c-1.2-0.2-2.5-0.2-3.8-0.2
					c-2.6,0.1-5.1,0.4-7.7,0.8c-2.6,0.4-5.1,0.9-7.6,1.5c-5.1,1.1-10.1,2.5-15.1,3.9c-0.1,0-0.2,0-0.2-0.1c0-0.1,0-0.2,0.1-0.2
					c5-1.6,10-3,15.1-4.3c5.1-1.2,10.2-2.3,15.5-2.5c1.3,0,2.7,0,4,0.3c0.7,0.1,1.3,0.3,2,0.5c0.6,0.3,1.3,0.6,1.8,1.2
					c0.5,0.5,0.8,1.3,0.9,2c0.1,0.7,0,1.4-0.2,2.1c-0.4,1.3-1,2.5-1.8,3.6c-3,4.4-6.9,8-10.9,11.3c-0.1,0.1-0.3,0.1-0.4,0
					C124.2,48.2,124.2,48,124.3,47.9L124.3,47.9z"/>
			</g>
			<g>
				<path class="st26" d="M107.4,36.3c2.1-0.7,4.3-1.3,6.5-1.8c2.2-0.5,4.4-0.8,6.6-1.1c2.2-0.3,4.5-0.3,6.7-0.3
					c2.2,0,4.5,0.2,6.7,0.4c0.1,0,0.2,0.1,0.2,0.2c0,0.1-0.1,0.2-0.2,0.2c-2.2-0.1-4.4-0.1-6.7,0c-2.2,0.1-4.4,0.3-6.6,0.5
					c-2.2,0.2-4.4,0.5-6.6,0.8c-2.2,0.4-4.4,0.8-6.5,1.3c-0.1,0-0.1,0-0.2-0.1C107.3,36.4,107.4,36.3,107.4,36.3z"/>
			</g>
			<path class="st26" d="M118.7,43.2c-0.6,0.1-1.3,0.2-1.9,0.1c-0.6-0.2-1.2-0.5-1.7-0.9c-2.1-1.5-4.2-3.1-6.2-4.7
				c-0.3-0.2-0.6-0.5-0.5-0.9c0-0.2,0.2-0.3,0.3-0.4c0.8-0.8,2-1,3.1-1.2c4.8-0.8,9.6-1.5,14.4-1.9c5.2-0.4-0.2,5.9-1.8,7.3
				C122.7,41.9,120.8,42.8,118.7,43.2z"/>
		</g>
		<path class="st137" d="M133.3,82.8c0,0,1.3-5.8-1.7-14.2c-1.7-4.9-5.6-9.1-8.3-12c0,0,4.7,2.8,8,6.6c0,0-2.2-9.7-7.9-15.4
			c-4.8-4.9-9.6-6.3-9.6-6.3s6,0.9,9.2,1.9c0,0-2.4-3-9.4-5.9c-6.9-2.9-9.3-2.6-9.3-2.6s3.1-1,7.4-0.5c0,0-1.8-2.4-7.5-3.2
			c-5.8-0.8-13.3,0.1-13.3,0.1s4.4-2.8,11.7-3.2c0,0-4-3-9.9-2.8c-6,0.2-11.2,4.2-11.2,4.2S75.9,26,71,25.3c-5-0.7-9.3,0.7-10.8,1.7
			c0,0,7.1,0.6,11.7,3.4c0,0-6.9-0.7-11.5-0.4c-4.6,0.3-8,1-9.8,2.8c0,0,5.1-0.2,7.2,0.7c0,0-7.8,1.4-11.5,3.3
			c-3.6,1.8-5.1,2.4-6.9,4.1c0,0,6.5-1.3,8.6-1.3c0,0-7,3.6-9.5,6.4s-5.2,6.7-6.4,9.3c-1.2,2.6-2.3,5.2-2.3,5.2s5.3-5,7.7-5.8
			c0,0-5.2,5.5-6.7,8.2c-1.1,1.9-3.2,5.9-4.1,12.7c-0.5,3.9-0.1,4.3-0.2,4.5c0.3-0.4,3.3-5.3,4.4-5.8c0,0-2.2,7.2-1.8,12.2
			c0.4,5.6,3.5,11.8,3.5,11.8s0.9-6.3,1.5-7.3c0,0-0.3,4.3,1.2,9.2c1.6,5,3.5,6.8,3.5,6.8s0.5-0.4,0.8-3.6l0.5-3.7c0,0,1.7,4.5,4,8
			c2.3,3.5,3.5,4.3,3.5,4.3s5.5-2.9,9.6-7.9l1,1.8c-1.3,4-6.7,15.5-9.1,22.9c-2.9,8.9-4.9,14.8-2.6,20.6c2.2,5.8,8.3,6.9,16.1,7.3
			l0.1,1.5c0,0-3.1,1.1-1.9,3c1.2,1.9,4.2,1.8,4.8,1c0.6-0.8,2.2-5.5,2.2-5.5l10.8,0.1l13.1-0.1h2.1c0,0,1.2,5.2,2.1,5.7
			c0.9,0.4,3.5,0.2,4-0.3c0.5-0.5,1.1-1.8,0.4-2.6c-0.7-0.8-1.5-1.3-1.5-1.3l-0.1-1.5c0,0,8.1-0.3,10.8-1.5c2.7-1.2,5.3-4.9,5.7-7
			c0.4-2,0.4-6.2-0.1-8.2c-0.6-2-2.6-9.5-2.6-9.5l-3.3-10.5l-3.9-9.6c0.2-0.8,1.5,1.1,5.1,3.3c0,0,6.6-6.2,8.3-12.1
			c0,0,0,5.4,0.8,7.8c0,0,3.2-3.3,4.9-9.9c0.8-3,0.6-5.2,0.7-6.1l1.1,7.7c0,0,3.6-7.3,4.4-13c0.6-4.2-1.6-11.3-1.6-11.3
			S131.4,78.7,133.3,82.8z"/>
		
			<ellipse transform="matrix(0.6946 -0.7194 0.7194 0.6946 -30.6231 62.0888)" class="st30" cx="57.8" cy="67.1" rx="9.9" ry="11.2"/>
		<path class="st138" d="M64.5,59.8c-1.9-1.8-4.2-2.8-6.5-3.1c-0.1,0-0.2,0-0.3,0c-8.2,0.1-10.7,10.2-7.6,16.6
			c0.3,0.3,0.6,0.6,0.9,0.9c3.4,3.3,8.1,4.2,11.8,2.8C67.8,73.5,68.3,64.6,64.5,59.8z"/>
		<g>
			<g>
				<path class="st26" d="M56.2,56.6L56.2,56.6c0,0-6.4-1.2-10.2,0.9c0,0,0.6,1.3,2.2,1.3c0,0-1.8,0.5-2.5,1.8c0,0,0.4,1.1,2.5,1
					c0.4-0.9,0.9-1.7,1.6-2.4C51.5,57.6,53.8,56.7,56.2,56.6z"/>
			</g>
			<path class="st26" d="M57.7,57.7c7.5-0.1,7.9,19.6,0.3,19.8C50.5,77.6,50.2,57.8,57.7,57.7z"/>
			<path class="st30" d="M60.8,60.1c4.6-0.1,4.7,6.5,0.1,6.5C56.4,66.7,56.2,60.1,60.8,60.1z"/>
			<g>
				<path class="st26" d="M50.7,74.5c-2-2-3.4-4.7-3.6-7.5c-0.3-2.8,0.6-5.8,2.6-7.8c2-2.1,4.9-2.9,7.7-2.8c2.8,0.1,5.6,1.3,7.7,3.3
					c2,2,3.5,4.7,3.7,7.6c0.3,2.8-0.6,5.8-2.7,7.8c-2,2.1-4.9,2.9-7.7,2.8C55.5,77.7,52.8,76.5,50.7,74.5z M51.3,73.9
					c1.9,1.9,4.4,3.2,7.1,3.5c2.7,0.3,5.5-0.7,7.3-2.7c1.9-2,2.6-4.8,2.2-7.4c-0.4-2.6-1.7-5.1-3.6-6.9c-1.9-1.8-4.3-3.2-7-3.5
					c-2.7-0.3-5.5,0.6-7.4,2.6c-1.9,2-2.6,4.8-2.3,7.5C48,69.6,49.3,72.1,51.3,73.9z"/>
			</g>
		</g>
		
			<ellipse transform="matrix(0.7194 -0.6946 0.6946 0.7194 -17.9209 89.8654)" class="st30" cx="102.3" cy="67.1" rx="11.2" ry="9.9"/>
		<path class="st138" d="M95.6,59.8c1.9-1.8,4.2-2.8,6.5-3.1c0.1,0,0.2,0,0.3,0c8.2,0.1,10.7,10.2,7.6,16.6
			c-0.3,0.3-0.6,0.6-0.9,0.9c-3.4,3.3-8.1,4.2-11.8,2.8C92.3,73.5,91.8,64.6,95.6,59.8z"/>
		<g>
			<g>
				<path class="st26" d="M103.9,56.6C103.9,56.6,103.9,56.6,103.9,56.6c0,0,6.4-1.2,10.2,0.9c0,0-0.6,1.3-2.2,1.3
					c0,0,1.8,0.5,2.5,1.8c0,0-0.4,1.1-2.5,1c-0.4-0.9-0.9-1.7-1.6-2.4C108.6,57.6,106.3,56.7,103.9,56.6z"/>
			</g>
			<path class="st26" d="M102.4,57.7c-7.5-0.1-7.9,19.6-0.3,19.8C109.5,77.6,109.9,57.8,102.4,57.7z"/>
			<path class="st30" d="M99.3,60.1c-4.6-0.1-4.7,6.5-0.1,6.5C103.7,66.7,103.8,60.1,99.3,60.1z"/>
			<g>
				<path class="st26" d="M108.8,73.9c1.9-1.8,3.3-4.3,3.7-7c0.4-2.6-0.4-5.5-2.3-7.5c-1.9-2-4.7-2.9-7.4-2.6
					c-2.7,0.3-5.1,1.7-7,3.5c-1.9,1.8-3.2,4.3-3.6,6.9c-0.4,2.6,0.3,5.5,2.2,7.4c1.8,2,4.7,2.9,7.3,2.7
					C104.4,77.1,106.9,75.8,108.8,73.9z M109.4,74.5c-2.1,1.9-4.9,3.1-7.7,3.3C99,78,96,77.1,94,75.1c-2-2-3-5-2.7-7.8
					c0.2-2.9,1.7-5.6,3.7-7.6c2.1-2,4.9-3.2,7.7-3.3c2.8-0.1,5.7,0.7,7.7,2.8c2,2,2.9,5,2.6,7.8C112.8,69.8,111.4,72.5,109.4,74.5z"
					/>
			</g>
		</g>
		<g>
			<defs>
				<path id="SVGID_106_" d="M133.3,82.8c0,0,1.3-5.8-1.7-14.2c-1.7-4.9-5.6-9.1-8.3-12c0,0,4.7,2.8,8,6.6c0,0-2.2-9.7-7.9-15.4
					c-4.8-4.9-9.6-6.3-9.6-6.3s6,0.9,9.2,1.9c0,0-2.4-3-9.4-5.9c-6.9-2.9-9.3-2.6-9.3-2.6s3.1-1,7.4-0.5c0,0-1.8-2.4-7.5-3.2
					c-5.8-0.8-13.3,0.1-13.3,0.1s4.4-2.8,11.7-3.2c0,0-4-3-9.9-2.8c-6,0.2-11.2,4.2-11.2,4.2S75.9,26,71,25.3
					c-5-0.7-9.3,0.7-10.8,1.7c0,0,7.1,0.6,11.7,3.4c0,0-6.9-0.7-11.5-0.4c-4.6,0.3-8,1-9.8,2.8c0,0,5.1-0.2,7.2,0.7
					c0,0-7.8,1.4-11.5,3.3c-3.6,1.8-5.1,2.4-6.9,4.1c0,0,6.5-1.3,8.6-1.3c0,0-7,3.6-9.5,6.4s-5.2,6.7-6.4,9.3
					c-1.2,2.6-2.3,5.2-2.3,5.2s5.3-5,7.7-5.8c0,0-5.2,5.5-6.7,8.2c-1.1,1.9-3.2,5.9-4.1,12.7c-0.5,3.9-0.1,4.3-0.2,4.5
					c0.3-0.4,3.3-5.3,4.4-5.8c0,0-2.2,7.2-1.8,12.2c0.4,5.6,3.5,11.8,3.5,11.8s0.9-6.3,1.5-7.3c0,0-0.3,4.3,1.2,9.2
					c1.6,5,3.5,6.8,3.5,6.8s0.5-0.4,0.8-3.6l0.5-3.7c0,0,1.7,4.5,4,8c2.3,3.5,3.5,4.3,3.5,4.3s5.5-2.9,9.6-7.9l1,1.8
					c-1.3,4-6.7,15.5-9.1,22.9c-2.9,8.9-4.9,14.8-2.6,20.6c2.2,5.8,8.3,6.9,16.1,7.3l0.1,1.5c0,0-3.1,1.1-1.9,3
					c1.2,1.9,4.2,1.8,4.8,1c0.6-0.8,2.2-5.5,2.2-5.5l10.8,0.1l13.1-0.1h2.1c0,0,1.2,5.2,2.1,5.7c0.9,0.4,3.5,0.2,4-0.3
					c0.5-0.5,1.1-1.8,0.4-2.6c-0.7-0.8-1.5-1.3-1.5-1.3l-0.1-1.5c0,0,8.1-0.3,10.8-1.5c2.7-1.2,5.3-4.9,5.7-7c0.4-2,0.4-6.2-0.1-8.2
					c-0.6-2-2.6-9.5-2.6-9.5l-3.3-10.5l-3.9-9.6c0.2-0.8,1.5,1.1,5.1,3.3c0,0,6.6-6.2,8.3-12.1c0,0,0,5.4,0.8,7.8
					c0,0,3.2-3.3,4.9-9.9c0.8-3,0.6-5.2,0.7-6.1l1.1,7.7c0,0,3.6-7.3,4.4-13c0.6-4.2-1.6-11.3-1.6-11.3S131.4,78.7,133.3,82.8z"/>
			</defs>
			<clipPath id="SVGID_2_">
				<use xlink:href="#SVGID_106_"  style="overflow:visible;"/>
			</clipPath>
			<g style="clip-path:url(#SVGID_2_);">
				<g>
					<path class="st84" d="M135.4,68.7c-0.8-1.6-2.4-2.6-4.2-2.8c-1.7-0.1-2.8,1.5-3.6,2.8c-0.7,1.1-1,2.4-0.9,3.6
						c0.1,1,0.7,1.9,1.2,2.8c0.7,1.1,1.4,2.2,2.2,3.2c0.4,0.5,1.3,1.9,1.4,2.2c0.1,1,2,3.2,2.5,4.1
						C134.6,85.7,136.3,70.3,135.4,68.7z"/>
					<path class="st84" d="M124.6,58.8c-0.2,1.1,0,2.2,0.5,3.2c0.3,0.6,0.6,1.1,1.1,1.4c0.7,0.5,1.7,0.7,2.6,0.8
						c1.1,0.1,2.3-0.1,3-0.9c0.4-0.5,0.6-1.3,0.5-2c-0.1-0.7-0.4-1.3-0.8-1.9c-0.9-1.3-2.3-2.3-3.9-2.8c-0.7-0.2-1.2-0.4-1.8,0
						C125.2,57.1,124.7,58.1,124.6,58.8z"/>
					<path class="st84" d="M124,67.8c0.1,0.2,0.3,0.4,0.5,0.6c0.2,0.1,0.3,0.3,0.5,0.4c0.5,0.2,1.1,0,1.5-0.3
						c0.4-0.3,0.7-0.8,0.9-1.3c0.2-0.4,0.3-0.8,0.3-1.2c-0.2-1-2-1.8-2.9-1.3C123.9,65.1,123.5,66.9,124,67.8z"/>
					<path class="st84" d="M120.8,62.1c0.3,0.4,0.8,0.8,1.3,1c0.2,0.1,0.3,0.1,0.5,0c0.1,0,0.2-0.1,0.3-0.2c0.4-0.6,0.5-1.4,0.2-2.1
						c-0.3-0.6-1.2-1.4-2-1.1C120.1,60,120.4,61.4,120.8,62.1z"/>
					<path class="st84" d="M118.9,58.4c0.3,0.3,0.7,0.5,1.1,0.5c0.4,0,0.8-0.2,1-0.6c0.1-0.2,0.1-0.4,0-0.5c-0.1-0.7-0.8-2-1.7-1.8
						C118.2,56.2,118.4,57.8,118.9,58.4z"/>
					<path class="st84" d="M119.6,66.5c0.2,0.2,0.5,0.3,0.8,0.4c0.2,0,0.5,0.1,0.7,0.1c0.2,0,0.4,0.1,0.6,0c0.2-0.1,0.4-0.2,0.4-0.5
						c0-0.2-0.1-0.3-0.2-0.4c-0.4-0.4-0.9-0.7-1.4-1c-0.2-0.1-0.3-0.2-0.5-0.2C119.4,65.1,119.3,66.2,119.6,66.5z"/>
					<path class="st84" d="M120.8,72.7c0,0.3,0,0.6,0,1c0,0.5,0.1,1,0.3,1.5c0.4,0.7,1.3,1.2,2.1,1c0.8-0.2,1.5-0.9,1.5-1.8
						c0-0.5-0.2-1.1,0.1-1.6c0.1-0.1,0.2-0.3,0.2-0.4c0.6-1.1-0.7-3-1.9-2.9C121.9,69.4,120.9,71.6,120.8,72.7z"/>
					<path class="st84" d="M125.4,79.2c0.8,0.3,1.7,0.2,2.6,0.1c0.2,0,0.4-0.1,0.5-0.2c0.3-0.6-1.8-1.5-2.3-1.6
						C125.2,77.3,124.3,78.7,125.4,79.2z"/>
				</g>
				<g>
					<path class="st84" d="M27.4,79.7c0.7-0.7,1.3-1.5,1.8-2.3c0.4-0.7,0.8-1.3,1.1-2.1c0.4-1.1,0.4-2.4,0.2-3.6
						c-0.1-0.6-0.2-1.2-0.6-1.8c-0.3-0.5-0.7-0.8-1.2-1.1c-0.5-0.4-1.2-0.8-1.8-0.5c-0.2,0.1-0.4,0.3-0.5,0.5
						c-1.2,1.7-1.9,3.7-2.2,5.8c-0.2,1-0.2,2.1-0.1,3.2c0,0.7,0,2.3,0.7,2.7C25.5,81.3,26.9,80.2,27.4,79.7z"/>
					<path class="st84" d="M33,65.7c0.6-0.2,1-0.6,1.5-1.1c0.4-0.4,0.8-0.8,1-1.3c0.2-0.5,0.2-1,0.2-1.5c0-0.7-0.1-1.3-0.2-2
						c0-0.2-0.1-0.4-0.2-0.6c-0.3-0.5-0.9-0.7-1.4-0.6c-0.5,0.1-1,0.5-1.4,0.9c-0.3,0.4-0.6,0.9-0.9,1.4c-0.6,1.1-2.1,2.5-2,3.9
						C29.7,66.2,32.2,66,33,65.7z"/>
					<path class="st84" d="M36.9,56.5c-0.2,0.4-0.4,1-0.2,1.4c0.1,0.2,0.4,0.4,0.7,0.4c0.4,0.1,0.8,0,1.2-0.2s0.6-0.6,0.6-1
						c0-0.2-0.1-0.4-0.2-0.6c-0.1-0.3-0.3-0.5-0.6-0.7C37.8,55.4,37.2,56,36.9,56.5z"/>
					<path class="st84" d="M36.9,65.6c0.2,0.2,0.5,0.2,0.7,0.2c0.4-0.1,0.8-0.3,1.2-0.6c0.2-0.2,0.5-0.4,0.6-0.6
						c1-1.4-0.1-2.8-1.6-2.3C36.7,62.6,36.2,64.7,36.9,65.6z"/>
					<path class="st84" d="M33.1,68.8c0.2,0.3,0.4,0.7,0.6,1c0.1,0.1,0.1,0.2,0.2,0.3c0.1,0.1,0.3,0.1,0.4,0.1c0.5,0,1-0.1,1.3-0.4
						c0.2-0.2,0.4-0.5,0.5-0.8c0.2-0.5,0.3-1,0.2-1.5c-0.1-0.5-0.4-1-0.9-1.1c-0.3-0.1-0.7-0.1-1.1,0C32.8,66.6,32.3,67.5,33.1,68.8
						z"/>
					<path class="st84" d="M40.2,69.1c0.3-0.2,0.6-0.6,0.4-1c0-0.1-0.1-0.1-0.1-0.2c0,0-0.1-0.1-0.2-0.1c-0.6-0.2-2.2,0-2.3,0.9
						C38,69.6,39.7,69.4,40.2,69.1z"/>
					<path class="st84" d="M34.5,74.2c0.1,0.3,0.4,0.6,0.5,1c0.3,0.8-0.1,1.9,0.5,2.6c0.2,0.2,0.4,0.4,0.7,0.5
						c0.4,0.2,0.9,0.3,1.3,0.2c0.9-0.2,1.5-1.1,1.5-2c0.1-0.9-0.3-1.8-0.6-2.6c-0.1-0.3-0.3-0.6-0.4-1c-0.1-0.3-0.2-0.6-0.4-0.8
						C36.3,70.5,33.7,72.4,34.5,74.2z"/>
					<path class="st84" d="M34,80.8c0.7-0.6-0.1-1.1-0.7-1.1c-0.6,0-1.2,0.2-1.5,0.7C30.9,81.8,33.4,81.3,34,80.8z"/>
				</g>
				<g>
					<path class="st84" d="M104.7,112.9c-0.2,0.4-0.2,0.9-0.2,1.3c0,0.3,0,0.6,0.1,0.9c0.2,0.5,0.7,0.8,1.2,0.8c0.5,0.1,1,0,1.5-0.2
						c0.3-0.1,0.7-0.3,0.9-0.6c0.2-0.3,0.2-0.7,0.1-1.1C108,112.4,105.9,110.9,104.7,112.9z"/>
					<path class="st84" d="M106.7,120.6c0,1.3,0.4,2.6,1.2,3.6c0.8,1,2,1.7,3.3,1.7c0.3,0,0.7,0,1-0.2c0.5-0.2,0.8-0.8,0.9-1.3
						c0.1-0.5,0.1-1.1,0-1.6c-0.3-1.8-1.1-3.6-2.2-5c-0.8-1-1.7-1.7-2.8-0.7C107.2,118.1,106.7,119.3,106.7,120.6z"/>
					<path class="st84" d="M105.6,117.5c-0.5-0.5-1.6-0.3-2,0c-0.3,0.2,0,0.7,0.4,0.9c0.3,0.1,0.7,0.1,1,0c0.3-0.1,0.8-0.2,0.8-0.6
						C105.8,117.7,105.7,117.6,105.6,117.5z"/>
					<path class="st84" d="M104.4,121.9c-0.4-0.4-0.9-0.5-1.5-0.5c-0.4,0-0.9,0.5-0.9,0.9c0,0.1-0.1,0.3,0,0.6
						c0.1,0.3,0.3,0.6,0.6,0.8c0.2,0.1,0.3,0.1,0.5,0.1c0.5,0,1.1,0,1.5-0.4C104.9,122.9,104.8,122.2,104.4,121.9z"/>
					<path class="st84" d="M99.5,125.9c-0.2,0.2,0,0.6,0.3,0.8c0.2,0.2,0.6,0.3,0.9,0.3c0.4,0,0.8-0.1,1-0.4s0.3-0.7,0-1
						c-0.2-0.1-0.4-0.2-0.6-0.2C100.4,125.5,99.7,125.7,99.5,125.9z"/>
					<path class="st84" d="M108,129.8c0.4-0.2,0.6-0.6,0.7-1.1c0.1-0.4,0.1-0.9,0.1-1.3c0-1.5-3-0.8-3.5,0.1
						C104.4,129.3,106.5,130.6,108,129.8z"/>
					<path class="st84" d="M110.8,128.4c-0.2,0.1-0.4,0.3-0.6,0.5c-0.4,0.5-0.5,1.3-0.2,2c0.3,0.6,0.9,1.1,1.6,1.2
						c0.7,0.2,1.4,0.1,2.1,0c0.5-0.1,1.1-0.3,1.4-0.8c0.1-0.2,0.2-0.5,0.2-0.8c0.1-1-0.1-2.5-1-3.1
						C113.3,126.9,111.7,127.9,110.8,128.4z"/>
					<path class="st84" d="M105.8,134.4c0.1,0.2,0.2,0.4,0.3,0.5c0.2,0.2,0.5,0.2,0.8,0.2c0.6,0,1.2-0.1,1.7-0.2
						c0.4-0.1,0.8-0.3,1.1-0.5s0.6-0.6,0.6-1c0-0.5-0.3-1-0.8-1.3s-1-0.3-1.6-0.3c-0.7,0-2,0.1-2.5,0.7
						C104.9,133,105.5,133.8,105.8,134.4z"/>
					<path class="st84" d="M111,137.2c0.6,0.5,1.4,0.6,2.2,0.7c0.6,0,1.3,0,1.8-0.4c0.5-0.4,0.7-1.1,0.7-1.7c0-0.2,0-0.5-0.1-0.7
						c-0.2-0.5-0.8-0.6-1.3-0.6c-1.1-0.1-2.5-0.3-3.4,0.4C110,135.5,110.3,136.6,111,137.2z"/>
					<path class="st84" d="M107.8,143c0.1,0.1,0.2,0.2,0.3,0.2c0.2,0.1,0.4,0,0.6,0c0.4-0.1,0.8-0.2,1.1-0.2
						c0.3-0.1,0.6-0.1,0.9-0.3c0.4-0.4,0.5-1,0.5-1.5c0-0.4,0-0.7,0-1.1c-0.1-0.4-0.3-0.7-0.6-0.9c-0.2-0.1-0.4-0.2-0.6-0.2
						C107.2,138.5,105.7,140.8,107.8,143z"/>
					<path class="st84" d="M104.7,138.4c0.5,0,0.9-0.1,1.4-0.3c0.2-0.1,0.5-0.2,0.6-0.5c0.1-0.3,0-0.6-0.1-0.9
						c-0.3-0.5-0.9-0.7-1.5-0.7C103.5,136.2,102.8,138.3,104.7,138.4z"/>
					<path class="st84" d="M101.5,130.1c-0.3,0.3-0.2,0.9,0.1,1.2s0.9,0.3,1.3,0.1c0.4-0.1,0.8-0.3,0.8-0.7c0.1-0.4-0.3-0.8-0.7-0.9
						c-0.4-0.1-0.9,0-1.3,0.1"/>
					<path class="st84" d="M113.4,140.9c-0.9,1.2-1.2,3-0.4,4.3c0.2,0.4,0.6,0.8,0.9,1.1c0.8,0.7,1.8,1.2,2.9,1.4
						c0.4,0.1,0.8,0.1,1.1-0.1c0.4-0.2,0.6-0.7,0.7-1.1c0.5-2.1-0.1-4.4-1.2-6.3C116.4,138.3,114.4,139.5,113.4,140.9z"/>
				</g>
				<g>
					<path class="st84" d="M58.7,110.6c0.2,0.4,0.2,0.9,0.2,1.3c0,0.3,0,0.6-0.1,0.9c-0.2,0.5-0.7,0.8-1.2,0.8s-1,0-1.5-0.2
						c-0.3-0.1-0.7-0.3-0.9-0.6c-0.2-0.3-0.2-0.7-0.1-1.1C55.4,110.1,57.5,108.6,58.7,110.6z"/>
					<path class="st84" d="M56.7,118.3c0,1.3-0.4,2.6-1.2,3.6c-0.8,1-2,1.7-3.3,1.7c-0.3,0-0.7,0-1-0.2c-0.5-0.2-0.8-0.8-0.9-1.3
						s-0.1-1.1,0-1.6c0.3-1.8,1.1-3.6,2.2-5c0.8-1,1.7-1.7,2.8-0.7C56.2,115.8,56.7,117,56.7,118.3z"/>
					<path class="st84" d="M57.8,115.2c0.5-0.5,1.6-0.3,2,0c0.3,0.2,0,0.7-0.4,0.9c-0.3,0.1-0.7,0.1-1,0c-0.3-0.1-0.8-0.2-0.8-0.6
						C57.6,115.4,57.7,115.3,57.8,115.2z"/>
					<path class="st84" d="M59,119.6c0.4-0.4,0.9-0.5,1.5-0.5c0.4,0,0.9,0.5,0.9,0.9c0,0.1,0.1,0.3,0,0.6c-0.1,0.3-0.3,0.6-0.6,0.8
						c-0.2,0.1-0.3,0.1-0.5,0.1c-0.5,0-1.1,0-1.5-0.4C58.5,120.6,58.6,120,59,119.6z"/>
					<path class="st84" d="M63.9,123.7c0.2,0.2,0,0.6-0.3,0.8c-0.2,0.2-0.6,0.3-0.9,0.3c-0.4,0-0.8-0.1-1-0.4s-0.3-0.7,0-1
						c0.2-0.1,0.4-0.2,0.6-0.2C63,123.2,63.7,123.4,63.9,123.7z"/>
					<path class="st84" d="M55.4,127.5c-0.4-0.2-0.6-0.6-0.7-1.1s-0.1-0.9-0.1-1.3c0-1.5,3-0.8,3.5,0.1
						C58.9,127,56.9,128.3,55.4,127.5z"/>
					<path class="st84" d="M52.6,126.1c0.2,0.1,0.4,0.3,0.6,0.5c0.4,0.5,0.5,1.3,0.2,2c-0.3,0.6-0.9,1.1-1.6,1.2
						c-0.7,0.2-1.4,0.1-2.1,0c-0.5-0.1-1.1-0.3-1.4-0.8c-0.1-0.2-0.2-0.5-0.2-0.8c-0.1-1,0.1-2.5,1-3.1
						C50.1,124.6,51.7,125.6,52.6,126.1z"/>
					<path class="st84" d="M57.6,132.1c-0.1,0.2-0.2,0.4-0.3,0.5c-0.2,0.2-0.5,0.2-0.8,0.2c-0.6,0-1.2-0.1-1.7-0.2
						c-0.4-0.1-0.8-0.3-1.1-0.5c-0.3-0.3-0.6-0.6-0.6-1c0-0.5,0.3-1,0.8-1.3c0.5-0.3,1-0.3,1.6-0.3c0.7,0,2,0.1,2.5,0.7
						C58.5,130.8,57.9,131.5,57.6,132.1z"/>
					<path class="st84" d="M52.4,134.9c-0.6,0.5-1.4,0.6-2.2,0.7c-0.6,0-1.3,0-1.8-0.4c-0.5-0.4-0.7-1.1-0.7-1.7
						c0-0.2,0-0.5,0.1-0.7c0.2-0.5,0.8-0.6,1.3-0.6c1.1-0.1,2.5-0.3,3.4,0.4C53.4,133.2,53.1,134.3,52.4,134.9z"/>
					<path class="st84" d="M55.6,140.7c-0.1,0.1-0.2,0.2-0.3,0.2c-0.2,0.1-0.4,0-0.6,0c-0.4-0.1-0.8-0.2-1.1-0.2
						c-0.3-0.1-0.6-0.1-0.9-0.3c-0.4-0.4-0.5-1-0.5-1.5c0-0.4,0-0.7,0-1.1c0.1-0.4,0.3-0.7,0.6-0.9c0.2-0.1,0.4-0.2,0.6-0.2
						C56.2,136.2,57.7,138.5,55.6,140.7z"/>
					<path class="st84" d="M58.7,136.1c-0.5,0-0.9-0.1-1.4-0.3c-0.2-0.1-0.5-0.2-0.6-0.5c-0.1-0.3,0-0.6,0.1-0.9
						c0.3-0.5,0.9-0.7,1.5-0.7C59.9,133.9,60.6,136,58.7,136.1z"/>
					<path class="st84" d="M61.9,127.8c0.3,0.3,0.2,0.9-0.1,1.2c-0.4,0.3-0.9,0.3-1.3,0.1c-0.4-0.1-0.8-0.3-0.8-0.7
						c-0.1-0.4,0.3-0.8,0.7-0.9c0.4-0.1,0.9,0,1.3,0.1"/>
					<path class="st84" d="M50,138.6c0.9,1.2,1.2,3,0.4,4.3c-0.2,0.4-0.6,0.8-0.9,1.1c-0.8,0.7-1.8,1.2-2.9,1.4
						c-0.4,0.1-0.8,0.1-1.1-0.1c-0.4-0.2-0.6-0.7-0.7-1.1c-0.5-2.1,0.1-4.4,1.2-6.3C47,136,49,137.3,50,138.6z"/>
				</g>
			</g>
		</g>
		<path class="st117" d="M58.4,105.7l-1.7,4c0,0,6.8,5.3,11.9,5.9c0,0,0-0.9-0.4-1.8c0,0,3.3,4,7.4,4.5c0,0,0.5-0.4,0.7-0.9
			c0,0,1.9,2.3,2.8,2.3s2.7-1.7,3-2.2c0,0,0.7,0.9,1.1,0.9c0.4,0,5-1.7,7.3-4.3c0,0,0.3,0.7,0.6,0.7c0.3,0,6.3,0.7,11-5l5.5,5.7
			l-2.4-6l-3.7-4.2c0,0-3.5,4.1-6.4,6.1l-3.6,1.9l0.6-2.7l-3.9,3.6c0,0-4.1,2.6-4.9,2.7c0,0-0.7-0.9-0.9-2.1c0,0-2.7,3.4-3.5,3.7
			c0,0-2.5-2.2-3-4.1c0,0-0.5,1.7-1,2.3c0,0-3.3-1.8-5.1-3.4c-1.7-1.7-3.7-3.8-3.7-3.8l0.8,3.1c0,0-2.3-1-4.7-3.2
			C59.9,107.3,58.4,105.7,58.4,105.7z"/>
		<path class="st118" d="M27.3,81.3C27.3,81.3,27.3,81.3,27.3,81.3C27.3,81.3,27.3,81.4,27.3,81.3z"/>
		<path class="st117" d="M39.4,40.9c0,0,7.1-3.5,14.1-2.7l-4.6,1.3L39.4,40.9"/>
		<path class="st117" d="M50.6,32.9c0,0,4.4-2.4,15.3,1.1c-0.4-0.1-7.5-0.2-7.5-0.2S54,32.4,50.6,32.9"/>
		<path class="st117" d="M26.6,80c0,0,1-7.1,6.6-9.9l-1.9,4L30,75l-3.2,5L26.6,80"/>
		<path class="st117" d="M29.8,60.4c0,0,3-7,11.8-8.4c0,0-2.7,1.6-4,2.9l-1.3,0.2l-3.9,2.8L29.8,60.4z"/>
		<path class="st117" d="M32.6,98c0.1,0.2-2.6-8.3,3.4-13.6l0,0.1c-0.4,1.2-0.7,2.3-1,3.5l0,0L32.6,98"/>
		<path class="st117" d="M39,106.9c0,0-1.4-6.7,0.4-10.4l0.6,2.3L39,106.9z"/>
		<path class="st117" d="M54.2,107.6c-1.9,2.1-6.1,4.4-6.1,4.4l-0.4-0.1c0,0,3.2-2.6,5.6-5.2c2.2-2.4,3.4-4.3,3.4-4.3
			c0.6,1.4,1,1.6,1,1.6L54.2,107.6z"/>
		<path class="st117" d="M60.2,27c0,0,7.6-2.4,16.2,4.6c-0.6,0-4.5-1.2-4.5-1.2s-4-1.8-5.3-2.2c-1.6-0.5-6.6-1.1-6.6-1.1L60.2,27z"
			/>
		<g>
			<path class="st117" d="M126.4,100.5c-0.1,0.2,3.1-8.1-2.4-13.8l0,0.1c0.3,1.2,0.6,2.4,0.7,3.6l0,0L126.4,100.5"/>
			<path class="st117" d="M119.5,108.9c0,0,1.8-6.6,0.3-10.4l-0.8,2.3L119.5,108.9z"/>
			<path class="st117" d="M104.6,109c1.8,2.2,6,4.6,6,4.6l0.4-0.1c0,0-3.1-2.7-5.4-5.4c-2.1-2.4-3.2-4.5-3.2-4.5
				c-0.7,1.4-1,1.6-1,1.6L104.6,109z"/>
			<path class="st117" d="M102.7,28.4c0,0-7.4-2.9-16.5,3.5c0.6,0,4.6-0.8,4.6-0.8s4.1-1.5,5.5-1.8c1.6-0.3,6.6-0.7,6.6-0.7
				L102.7,28.4z"/>
			<path class="st117" d="M122.7,43.2c0,0-6.8-3.9-13.9-3.6l4.5,1.7L122.7,43.2"/>
			<path class="st117" d="M111.9,34.5c0,0-4.2-2.7-15.4,0.1c0.4-0.1,7.5,0.3,7.5,0.3S108.6,33.8,111.9,34.5"/>
			<path class="st117" d="M133.4,82.6c0,0-0.5-7.2-5.9-10.3l1.7,4.1l1.1,0.9l2.8,5.2L133.4,82.6"/>
			<path class="st117" d="M130.9,62.8c0,0-2.6-7.2-11.2-9.2c0,0,2.5,1.8,3.7,3.1l1.3,0.3l3.7,3L130.9,62.8z"/>
		</g>
		<g>
			<path class="st26" d="M81.4,29.6c-1.6-1.1-3.3-1.9-5-2.6c-1.8-0.7-3.6-1.2-5.5-1.4c-0.9-0.2-1.9-0.2-2.8-0.2
				c-0.9,0.1-1.9,0.1-2.8,0.3c-1.9,0.2-3.7,0.9-5.4,1.7l0,0c-0.1,0-0.2,0-0.2-0.1c0-0.1,0-0.2,0.1-0.2c1.7-0.9,3.5-1.7,5.5-2.1
				c0.5-0.1,1-0.2,1.5-0.2c0.5,0,1-0.1,1.5-0.1c1,0,2,0,2.9,0.2c1.9,0.3,3.9,0.8,5.6,1.6c1.8,0.8,3.5,1.8,5,3c0.1,0.1,0.1,0.2,0,0.2
				C81.5,29.7,81.4,29.7,81.4,29.6L81.4,29.6z"/>
		</g>
		<g>
			<path class="st26" d="M59.7,27c1.1-0.1,2.3,0,3.4,0.1c1.1,0.1,2.2,0.4,3.3,0.7c1.1,0.3,2.2,0.7,3.2,1.2c1,0.5,2,1,3,1.6
				c0.1,0.1,0.1,0.2,0.1,0.3c-0.1,0.1-0.1,0.1-0.2,0.1l0,0c-1-0.4-2-0.9-3.1-1.3c-1-0.4-2.1-0.7-3.1-1c-1.1-0.3-2.1-0.6-3.2-0.8
				c-1.1-0.2-2.2-0.4-3.3-0.5l0,0c-0.1,0-0.2-0.1-0.2-0.2C59.5,27.1,59.6,27,59.7,27z"/>
		</g>
		<g>
			<path class="st26" d="M72.4,30.9c-1.9-0.2-3.8-0.4-5.7-0.5c-1.9-0.1-3.8-0.1-5.7,0c-1.9,0.1-3.8,0.3-5.6,0.7
				c-1.8,0.4-3.6,1-5.1,2.1c-0.1,0.1-0.2,0-0.3,0c-0.1-0.1,0-0.2,0-0.3c1.5-1.3,3.3-2.1,5.2-2.5c1.9-0.5,3.8-0.7,5.7-0.8
				c1.9-0.1,3.8,0,5.8,0.1c1.9,0.2,3.8,0.4,5.7,0.8c0.1,0,0.2,0.1,0.1,0.2C72.6,30.9,72.5,30.9,72.4,30.9z"/>
		</g>
		<g>
			<path class="st26" d="M50.2,32.9c1.4-0.4,2.8-0.4,4.3-0.4c1.4,0.1,2.9,0.3,4.2,0.9c0.1,0,0.1,0.2,0.1,0.2c0,0.1-0.1,0.1-0.2,0.1
				l0,0c-0.7-0.1-1.4-0.2-2.1-0.3c-0.7-0.1-1.4-0.2-2.1-0.2c-1.4-0.1-2.8-0.1-4.2-0.1l0,0c-0.1,0-0.2-0.1-0.2-0.2
				C50.1,33,50.1,32.9,50.2,32.9z"/>
		</g>
		<g>
			<path class="st26" d="M58.6,33.8c-1.8,0.1-3.6,0.4-5.3,0.9c-1.7,0.4-3.4,0.9-5.1,1.6c-1.7,0.7-3.3,1.4-4.9,2.3
				c-1.6,0.8-3.1,1.8-4.6,2.8l0,0c-0.1,0.1-0.2,0-0.3-0.1c-0.1-0.1,0-0.2,0-0.2c0.7-0.6,1.4-1.1,2.2-1.7c0.8-0.5,1.5-1,2.3-1.5
				c1.6-1,3.2-1.7,4.9-2.4c1.7-0.7,3.5-1.2,5.3-1.5c1.8-0.4,3.6-0.6,5.5-0.5c0.1,0,0.2,0.1,0.2,0.2C58.8,33.7,58.7,33.8,58.6,33.8
				L58.6,33.8z"/>
		</g>
		<g>
			<path class="st26" d="M38.6,41.1c1.6-0.7,3.4-1.1,5.1-1.5c0.9-0.1,1.8-0.3,2.6-0.3c0.9-0.1,1.8-0.1,2.7,0c0.1,0,0.2,0.1,0.2,0.2
				c0,0.1-0.1,0.2-0.2,0.2c-1.7,0.2-3.4,0.4-5.2,0.8c-1.7,0.3-3.4,0.7-5.2,1c-0.1,0-0.2,0-0.2-0.1C38.5,41.2,38.6,41.1,38.6,41.1z"
				/>
		</g>
		<g>
			<path class="st26" d="M49.1,39.7c-2.4,0.9-4.6,2-6.7,3.4c-2.1,1.4-4,3-5.5,4.9c-1.6,1.9-2.9,4.1-4,6.3c-1.2,2.2-2.2,4.5-3.1,6.9
				l0,0c0,0.1-0.1,0.1-0.2,0.1c-0.1,0-0.1-0.1-0.1-0.2c0.8-2.4,1.7-4.8,2.8-7.1c1.1-2.3,2.5-4.5,4-6.5c0.8-1,1.7-1.9,2.7-2.8
				c1-0.8,2-1.6,3.1-2.3c2.2-1.3,4.5-2.4,7-3.1c0.1,0,0.2,0,0.2,0.1C49.2,39.6,49.2,39.6,49.1,39.7L49.1,39.7z"/>
		</g>
		<g>
			<path class="st26" d="M29.4,61c1.1-1.6,2.4-2.9,3.9-4.1c0.7-0.6,1.5-1.1,2.3-1.6c0.8-0.5,1.7-0.9,2.6-1.1c0.1,0,0.2,0,0.2,0.1
				c0,0.1,0,0.2-0.1,0.2l0,0c-1.6,0.9-3.1,1.9-4.5,3.1c-1.4,1.1-2.8,2.4-4.1,3.7l0,0c-0.1,0.1-0.2,0.1-0.2,0
				C29.3,61.2,29.3,61.1,29.4,61z"/>
		</g>
		<g>
			<path class="st26" d="M38.3,54.4c-0.9,0.8-1.8,1.7-2.6,2.6c-0.8,0.9-1.6,1.8-2.4,2.8c-1.5,1.9-2.8,4-3.8,6.2
				c-0.9,2.2-1.5,4.6-2,7c-0.5,2.4-0.8,4.9-0.8,7.3l0,0c0,0.1-0.1,0.2-0.2,0.2c-0.1,0-0.2-0.1-0.2-0.2c-0.1-2.5,0.1-5,0.5-7.4
				c0.4-2.5,1-4.9,2-7.2c1-2.3,2.4-4.4,4-6.4c1.6-1.9,3.3-3.7,5.3-5.3c0.1-0.1,0.2,0,0.2,0C38.4,54.3,38.4,54.4,38.3,54.4L38.3,54.4
				z"/>
		</g>
		<g>
			<path class="st26" d="M26.4,80.4c0.4-1.3,1.1-2.5,1.9-3.7c0.4-0.6,0.8-1.1,1.3-1.7c0.5-0.5,1-1,1.6-1.4c0.1-0.1,0.2,0,0.3,0.1
				c0,0.1,0,0.2,0,0.2l0,0c-0.9,1-1.6,2.1-2.4,3.3c-0.8,1.1-1.5,2.3-2.2,3.4c-0.1,0.1-0.2,0.1-0.2,0C26.4,80.5,26.4,80.5,26.4,80.4z
				"/>
		</g>
		<g>
			<path class="st26" d="M31.4,73.8c-0.7,2-1.2,4.1-1.6,6.2c-0.3,2.1-0.5,4.2-0.3,6.3c0.2,2.1,0.7,4.2,1.3,6.2c0.6,2,1.3,4.1,2.1,6
				l0,0c0,0.1,0,0.2-0.1,0.2c-0.1,0-0.2,0-0.2-0.1c-1-1.9-1.8-3.9-2.5-6c-0.6-2.1-1.1-4.2-1.4-6.4c-0.2-2.2,0-4.4,0.4-6.5
				c0.4-2.1,1.1-4.2,1.9-6.2c0-0.1,0.1-0.1,0.2-0.1C31.4,73.6,31.4,73.7,31.4,73.8L31.4,73.8z"/>
		</g>
		<g>
			<path class="st26" d="M32.6,98.6c0-1.8,0.2-3.7,0.5-5.5c0.2-0.9,0.4-1.8,0.7-2.7c0.3-0.9,0.6-1.8,1.1-2.6
				c0.1-0.1,0.2-0.1,0.3-0.1c0.1,0,0.1,0.1,0.1,0.2c-0.3,0.9-0.5,1.7-0.7,2.6c-0.2,0.9-0.4,1.8-0.5,2.6c-0.4,1.8-0.6,3.6-1,5.3
				c0,0.1-0.1,0.2-0.2,0.1C32.6,98.8,32.6,98.7,32.6,98.6z"/>
		</g>
		<g>
			<path class="st26" d="M35.1,88.1c-0.5,1.6-0.6,3.3-0.6,4.9c0,1.7,0.3,3.3,0.7,4.9c0.4,1.6,1,3.2,1.6,4.7c0.3,0.8,0.7,1.5,1.1,2.3
				l1.2,2.2l0,0c0,0.1,0,0.2-0.1,0.3c-0.1,0-0.2,0-0.2-0.1c-0.5-0.7-1-1.4-1.4-2.1c-0.4-0.8-0.8-1.5-1.2-2.3
				c-0.7-1.5-1.3-3.2-1.8-4.8c-0.4-1.7-0.6-3.4-0.6-5.1c0-1.7,0.3-3.4,1-5c0-0.1,0.1-0.1,0.2-0.1C35.1,87.9,35.1,88,35.1,88.1
				L35.1,88.1z"/>
		</g>
		<g>
			<path class="st26" d="M38.8,107.1c0.1-0.7,0.2-1.4,0.3-2.1c0.1-0.7,0.2-1.4,0.3-2.1c0.2-1.4,0.3-2.8,0.4-4.2
				c0-0.1,0.1-0.2,0.2-0.2c0.1,0,0.2,0.1,0.2,0.2c0.1,0.7,0.1,1.4,0.1,2.1c0,0.7-0.1,1.4-0.1,2.1c-0.1,0.7-0.2,1.4-0.4,2.1
				c-0.2,0.7-0.4,1.4-0.7,2c0,0.1-0.1,0.1-0.2,0.1C38.8,107.3,38.8,107.2,38.8,107.1L38.8,107.1z"/>
		</g>
		<g>
			<path class="st26" d="M40.2,98.8c0.4,1.2,1,2.4,1.5,3.5c0.6,1.1,1.1,2.3,1.8,3.4c0.6,1.1,1.3,2.2,2.1,3.2c0.7,1,1.6,2,2.4,3l0,0
				c0.1,0.1,0.1,0.2,0,0.3c-0.1,0.1-0.2,0.1-0.2,0c-1-0.9-1.9-1.8-2.7-2.8c-0.8-1-1.5-2.1-2.2-3.2c-0.7-1.1-1.3-2.3-1.7-3.5
				c-0.5-1.2-0.9-2.4-1.2-3.7c0-0.1,0-0.2,0.1-0.2C40,98.6,40.1,98.7,40.2,98.8L40.2,98.8z"/>
		</g>
		<g>
			<path class="st26" d="M47.8,111.8c0.9-0.4,1.8-1,2.6-1.6c0.8-0.6,1.7-1.2,2.4-1.9c1.6-1.3,3-2.8,4.5-4.4c0.1-0.1,0.2-0.1,0.3,0
				c0.1,0.1,0.1,0.2,0,0.2c-0.3,0.4-0.6,0.9-0.9,1.3c-0.3,0.4-0.7,0.8-1,1.2c-0.7,0.8-1.5,1.5-2.3,2.2c-0.8,0.7-1.7,1.3-2.6,1.9
				c-0.9,0.5-1.9,1-2.9,1.3c-0.1,0-0.2,0-0.2-0.1C47.6,111.9,47.7,111.8,47.8,111.8L47.8,111.8z"/>
		</g>
		<g>
			<path class="st26" d="M57.6,104c0.7,0.8,1.4,1.7,2.1,2.4c0.7,0.8,1.5,1.6,2.2,2.3c0.8,0.7,1.6,1.4,2.4,2.1
				c0.9,0.6,1.8,1.2,2.7,1.7l0,0c0.1,0,0.1,0.2,0.1,0.3c0,0.1-0.1,0.1-0.2,0.1c-1.1-0.3-2.1-0.8-3-1.4c-0.9-0.6-1.8-1.3-2.6-2.1
				c-0.8-0.8-1.5-1.6-2.2-2.4c-0.7-0.9-1.3-1.8-1.8-2.7c0-0.1,0-0.2,0.1-0.2C57.4,103.9,57.5,103.9,57.6,104L57.6,104z"/>
		</g>
		<g>
			<path class="st26" d="M66.8,112.6c-0.2-0.6-0.3-1.2-0.5-1.8c-0.1-0.3-0.2-0.6-0.3-0.9c-0.1-0.3-0.2-0.6-0.3-0.9l0,0
				c0-0.1,0-0.2,0.1-0.2c0.1,0,0.1,0,0.2,0c0.5,0.5,0.8,1.1,1,1.7c0.2,0.7,0.3,1.3,0.1,2c0,0.1-0.1,0.2-0.2,0.1
				C66.9,112.7,66.9,112.7,66.8,112.6L66.8,112.6z"/>
		</g>
		<g>
			<path class="st26" d="M66.1,108.9c0.7,0.7,1.4,1.5,2.1,2.2c0.7,0.7,1.4,1.4,2.2,2.1c1.5,1.3,3,2.5,4.8,3.5l0,0
				c0.1,0,0.1,0.2,0.1,0.3c0,0.1-0.1,0.1-0.2,0.1c-1-0.3-1.9-0.8-2.8-1.3c-0.9-0.6-1.7-1.2-2.4-1.9c-1.5-1.4-2.9-2.9-4-4.6
				c-0.1-0.1,0-0.2,0.1-0.2C65.9,108.8,66,108.8,66.1,108.9L66.1,108.9z"/>
		</g>
		<g>
			<path class="st26" d="M74.9,116.7c0-0.2,0.1-0.4,0.1-0.7c0-0.2,0.1-0.4,0.1-0.7c0.1-0.4,0.2-0.9,0.5-1.3c0.1-0.1,0.2-0.1,0.3-0.1
				c0.1,0,0.1,0.1,0.1,0.1c0.1,0.3,0.1,0.5,0.1,0.8c0,0.3-0.1,0.5-0.1,0.8c-0.1,0.2-0.2,0.5-0.3,0.7c-0.1,0.2-0.3,0.4-0.5,0.6
				c-0.1,0.1-0.2,0-0.2,0C74.9,116.8,74.9,116.8,74.9,116.7L74.9,116.7z"/>
		</g>
		<g>
			<path class="st26" d="M76,114c0.5,0.8,1,1.6,1.5,2.3c0.2,0.4,0.5,0.7,0.8,1.1c0.3,0.4,0.6,0.7,0.9,1.1l0,0c0.1,0.1,0,0.2,0,0.3
				c-0.1,0-0.1,0-0.2,0c-0.9-0.5-1.5-1.2-2.1-2c-0.5-0.8-1-1.7-1.2-2.6c0-0.1,0-0.2,0.1-0.2C75.9,113.9,76,113.9,76,114L76,114z"/>
		</g>
		<g>
			<g>
				<path class="st26" d="M81.4,29.4c1.6-1.2,3.3-2.1,5.1-2.8c1.8-0.7,3.8-1.1,5.7-1.3c1-0.1,2,0,2.9,0c0.5,0,1,0.1,1.5,0.2
					c0.5,0,1,0.2,1.4,0.3c1.9,0.4,3.7,1.3,5.3,2.3c0.1,0.1,0.1,0.2,0.1,0.3c0,0.1-0.2,0.1-0.2,0.1l0,0c-1.7-0.8-3.5-1.6-5.3-2
					c-0.9-0.2-1.9-0.3-2.8-0.4c-0.9,0-1.9-0.1-2.8,0c-1.9,0.1-3.7,0.5-5.5,1.1c-1.8,0.6-3.6,1.4-5.2,2.4l0,0c-0.1,0-0.2,0-0.2-0.1
					C81.3,29.5,81.3,29.4,81.4,29.4z"/>
			</g>
			<g>
				<path class="st26" d="M103.3,28.5c-1.1,0-2.2,0.2-3.3,0.3c-1.1,0.2-2.2,0.3-3.2,0.6c-1.1,0.2-2.1,0.5-3.2,0.9
					c-1.1,0.3-2.1,0.7-3.1,1.1l0,0c-0.1,0-0.2,0-0.2-0.1c0-0.1,0-0.2,0.1-0.2c1-0.6,2-1.1,3-1.5c1-0.4,2.1-0.7,3.2-1
					c1.1-0.2,2.2-0.4,3.4-0.5c1.1-0.1,2.3-0.1,3.4,0.1c0.1,0,0.2,0.1,0.1,0.2C103.5,28.4,103.4,28.5,103.3,28.5L103.3,28.5z"/>
			</g>
			<g>
				<path class="st26" d="M90.4,31.1c1.9-0.3,3.8-0.5,5.7-0.5c1.9-0.1,3.8,0,5.8,0.2c1.9,0.2,3.8,0.5,5.7,1.1
					c1.8,0.6,3.7,1.4,5.1,2.8c0.1,0.1,0.1,0.2,0,0.3c-0.1,0.1-0.2,0.1-0.3,0c-1.4-1.2-3.2-1.9-5-2.4c-1.8-0.5-3.7-0.8-5.5-1
					c-1.9-0.2-3.8-0.3-5.7-0.3c-1.9,0-3.8,0-5.7,0.1c-0.1,0-0.2-0.1-0.2-0.2C90.2,31.2,90.3,31.1,90.4,31.1z"/>
			</g>
			<g>
				<path class="st26" d="M112.4,34.9c-1.4,0-2.8-0.1-4.2-0.1c-0.7,0-1.4,0-2.1,0.1c-0.7,0-1.4,0.1-2.1,0.2l0,0
					c-0.1,0-0.2-0.1-0.2-0.2c0-0.1,0-0.2,0.1-0.2c1.4-0.5,2.8-0.7,4.2-0.7c1.4,0,2.9,0.2,4.2,0.6c0.1,0,0.1,0.1,0.1,0.2
					C112.6,34.9,112.5,34.9,112.4,34.9L112.4,34.9z"/>
			</g>
			<g>
				<path class="st26" d="M104,34.7c1.8,0,3.6,0.3,5.4,0.8c1.8,0.5,3.5,1.1,5.2,1.8c1.6,0.8,3.3,1.6,4.8,2.7
					c0.8,0.5,1.5,1.1,2.2,1.6c0.7,0.6,1.4,1.2,2.1,1.8c0.1,0.1,0.1,0.2,0,0.3c-0.1,0.1-0.2,0.1-0.3,0l0,0c-1.4-1.1-2.9-2.1-4.4-3.1
					c-1.5-1-3.1-1.8-4.7-2.5c-1.6-0.8-3.3-1.4-5-1.9c-1.7-0.5-3.5-0.9-5.2-1.1l0,0c-0.1,0-0.2-0.1-0.2-0.2
					C103.9,34.8,103.9,34.7,104,34.7z"/>
			</g>
			<g>
				<path class="st26" d="M123.5,43.7c-1.7-0.4-3.4-0.9-5.1-1.2c-1.7-0.4-3.4-0.8-5.1-1c-0.1,0-0.2-0.1-0.2-0.2
					c0-0.1,0.1-0.2,0.2-0.2c0.9-0.1,1.8,0,2.7,0.1c0.9,0.1,1.8,0.3,2.6,0.5c1.7,0.4,3.4,1,5,1.7c0.1,0,0.1,0.1,0.1,0.2
					C123.6,43.7,123.6,43.7,123.5,43.7z"/>
			</g>
			<g>
				<path class="st26" d="M113.4,41.1c2.4,0.8,4.7,2,6.8,3.5c1.1,0.7,2.1,1.5,3,2.4c0.9,0.9,1.8,1.9,2.5,2.9
					c1.5,2.1,2.7,4.4,3.7,6.7c1,2.3,1.8,4.8,2.5,7.2c0,0.1,0,0.2-0.1,0.2c-0.1,0-0.2,0-0.2-0.1l0,0c-0.8-2.4-1.7-4.7-2.8-7
					c-1.1-2.3-2.2-4.5-3.7-6.5c-1.4-2-3.3-3.8-5.3-5.2c-2-1.5-4.2-2.7-6.5-3.7l0,0c-0.1,0-0.1-0.1-0.1-0.2
					C113.2,41.1,113.3,41,113.4,41.1z"/>
			</g>
			<g>
				<path class="st26" d="M131.5,63.9c-1.3-1.3-2.5-2.7-3.9-3.9c-1.3-1.2-2.8-2.4-4.4-3.3l0,0c-0.1-0.1-0.1-0.2-0.1-0.3
					c0-0.1,0.1-0.1,0.2-0.1c0.9,0.3,1.7,0.8,2.5,1.3c0.8,0.5,1.5,1.1,2.2,1.7c1.4,1.3,2.6,2.7,3.6,4.3c0.1,0.1,0,0.2-0.1,0.2
					C131.7,64,131.6,64,131.5,63.9L131.5,63.9z"/>
			</g>
			<g>
				<path class="st26" d="M123.5,56.4c1.8,1.7,3.5,3.5,5,5.5c1.5,2,2.7,4.2,3.6,6.6c0.8,2.4,1.3,4.8,1.6,7.3c0.3,2.5,0.3,5,0.1,7.5
					c0,0.1-0.1,0.2-0.2,0.2c-0.1,0-0.2-0.1-0.2-0.2l0,0c0.1-2.4-0.1-4.9-0.4-7.3c-0.3-2.4-0.8-4.8-1.6-7.1c-0.8-2.3-2-4.4-3.4-6.4
					c-0.7-1-1.4-2-2.2-2.9c-0.8-1-1.6-1.9-2.4-2.8l0,0c-0.1-0.1-0.1-0.2,0-0.2C123.3,56.4,123.4,56.4,123.5,56.4z"/>
			</g>
			<g>
				<path class="st26" d="M133.4,83.4c-0.7-1.2-1.4-2.4-2.1-3.5c-0.7-1.2-1.4-2.3-2.2-3.4l0,0c-0.1-0.1,0-0.2,0-0.3
					c0.1-0.1,0.2,0,0.2,0c0.6,0.4,1,0.9,1.5,1.5c0.4,0.5,0.8,1.1,1.2,1.7c0.7,1.2,1.3,2.5,1.7,3.8c0,0.1,0,0.2-0.1,0.2
					C133.5,83.5,133.4,83.5,133.4,83.4z"/>
			</g>
			<g>
				<path class="st26" d="M129.4,76.3c0.8,2,1.3,4.1,1.6,6.3c0.3,2.1,0.4,4.3,0.1,6.5c-0.4,2.2-1,4.2-1.7,6.3c-0.8,2-1.7,4-2.8,5.9
					c-0.1,0.1-0.2,0.1-0.3,0.1c-0.1-0.1-0.1-0.2-0.1-0.2l0,0c0.9-1.9,1.7-3.9,2.4-5.9c0.7-2,1.3-4.1,1.6-6.1
					c0.3-2.1,0.3-4.2,0.1-6.3c-0.2-2.1-0.6-4.2-1.2-6.3l0,0c0-0.1,0-0.2,0.1-0.2C129.3,76.2,129.4,76.2,129.4,76.3z"/>
			</g>
			<g>
				<path class="st26" d="M126.2,101.1c-0.3-1.8-0.4-3.6-0.7-5.4c-0.1-0.9-0.2-1.8-0.4-2.7c-0.2-0.9-0.3-1.8-0.6-2.6
					c0-0.1,0-0.2,0.1-0.2c0.1,0,0.2,0,0.2,0.1c0.4,0.8,0.7,1.7,0.9,2.6c0.2,0.9,0.4,1.8,0.5,2.7c0.2,1.8,0.3,3.7,0.2,5.5
					c0,0.1-0.1,0.2-0.2,0.2C126.3,101.3,126.3,101.2,126.2,101.1z"/>
			</g>
			<g>
				<path class="st26" d="M124.9,90.3c0.6,1.6,0.7,3.4,0.7,5.1c-0.1,1.7-0.4,3.4-0.9,5.1c-0.5,1.6-1.2,3.2-2,4.7
					c-0.4,0.8-0.9,1.5-1.3,2.2c-0.5,0.7-1,1.4-1.5,2c-0.1,0.1-0.2,0.1-0.3,0c-0.1-0.1-0.1-0.2,0-0.2l0,0l1.3-2.1
					c0.4-0.7,0.8-1.4,1.2-2.2c0.7-1.5,1.4-3,1.9-4.6c0.5-1.6,0.8-3.2,0.9-4.9c0.1-1.6,0.1-3.3-0.3-4.9l0,0c0-0.1,0-0.2,0.1-0.2
					C124.8,90.2,124.9,90.2,124.9,90.3z"/>
			</g>
			<g>
				<path class="st26" d="M119.6,109.4c-0.3-0.7-0.4-1.4-0.6-2.1c-0.1-0.7-0.2-1.4-0.3-2.1c0-0.7-0.1-1.4,0-2.1
					c0-0.7,0.1-1.4,0.3-2.1c0-0.1,0.1-0.2,0.2-0.1c0.1,0,0.1,0.1,0.2,0.2c0.1,1.4,0.1,2.8,0.2,4.2c0,0.7,0.1,1.4,0.1,2.1
					c0.1,0.7,0.1,1.4,0.2,2.1l0,0c0,0.1-0.1,0.2-0.2,0.2C119.7,109.5,119.6,109.4,119.6,109.4z"/>
			</g>
			<g>
				<path class="st26" d="M119.3,101c-0.3,1.3-0.8,2.5-1.4,3.6c-0.6,1.2-1.2,2.3-1.9,3.4c-0.7,1.1-1.5,2.1-2.4,3.1
					c-0.9,1-1.8,1.9-2.8,2.7c-0.1,0.1-0.2,0.1-0.3,0c-0.1-0.1-0.1-0.2,0-0.2l0,0c0.9-0.9,1.7-1.9,2.5-2.9c0.8-1,1.6-2,2.3-3.1
					c0.7-1,1.4-2.1,2-3.3c0.6-1.1,1.2-2.3,1.7-3.4l0,0c0-0.1,0.1-0.1,0.2-0.1C119.3,100.8,119.4,100.9,119.3,101z"/>
			</g>
			<g>
				<path class="st26" d="M110.6,113.8c-1-0.3-2-0.9-2.9-1.5c-0.9-0.6-1.7-1.3-2.5-2c-0.8-0.7-1.5-1.5-2.2-2.4
					c-0.3-0.4-0.6-0.9-1-1.3c-0.3-0.4-0.6-0.9-0.8-1.3c-0.1-0.1,0-0.2,0.1-0.3c0.1,0,0.2,0,0.2,0c1.4,1.6,2.7,3.2,4.2,4.6
					c0.7,0.7,1.5,1.4,2.3,2c0.8,0.6,1.7,1.2,2.6,1.7l0,0c0.1,0,0.1,0.2,0.1,0.2C110.8,113.8,110.7,113.8,110.6,113.8z"/>
			</g>
			<g>
				<path class="st26" d="M101.6,105.3c-0.6,0.9-1.3,1.8-2,2.6c-0.7,0.8-1.5,1.6-2.3,2.3c-0.9,0.7-1.7,1.4-2.7,1.9
					c-1,0.5-2,1-3.1,1.3c-0.1,0-0.2,0-0.2-0.1c0-0.1,0-0.2,0.1-0.2l0,0c1-0.5,1.9-1,2.8-1.5c0.9-0.6,1.7-1.2,2.5-1.9
					c0.8-0.7,1.6-1.4,2.4-2.2c0.8-0.8,1.5-1.5,2.2-2.3l0,0c0.1-0.1,0.2-0.1,0.2,0C101.6,105.2,101.6,105.3,101.6,105.3z"/>
			</g>
			<g>
				<path class="st26" d="M91.3,113.3c-0.1-0.7,0-1.3,0.2-2c0.2-0.6,0.6-1.2,1.1-1.7c0.1-0.1,0.2-0.1,0.3,0c0,0.1,0.1,0.1,0,0.2l0,0
					c-0.1,0.3-0.2,0.6-0.3,0.9c-0.1,0.3-0.2,0.6-0.3,0.9c-0.2,0.6-0.4,1.2-0.6,1.7l0,0c0,0.1-0.1,0.1-0.2,0.1
					C91.3,113.4,91.3,113.3,91.3,113.3z"/>
			</g>
			<g>
				<path class="st26" d="M92.8,109.8c-1.2,1.7-2.7,3.1-4.2,4.4c-0.8,0.6-1.6,1.2-2.5,1.8c-0.9,0.5-1.8,0.9-2.8,1.2
					c-0.1,0-0.2,0-0.2-0.1c0-0.1,0-0.2,0.1-0.2l0,0c1.8-0.9,3.4-2,5-3.2c0.8-0.6,1.5-1.3,2.3-1.9c0.7-0.7,1.5-1.4,2.2-2l0,0
					c0.1-0.1,0.2-0.1,0.2,0C92.9,109.7,92.9,109.8,92.8,109.8z"/>
			</g>
			<g>
				<path class="st26" d="M83,117.1c-0.2-0.2-0.4-0.4-0.5-0.7c-0.1-0.2-0.2-0.5-0.2-0.7c0-0.3-0.1-0.5-0.1-0.8c0-0.3,0-0.5,0.1-0.8
					c0-0.1,0.1-0.2,0.3-0.1c0.1,0,0.1,0.1,0.1,0.1c0.2,0.5,0.3,0.9,0.4,1.4c0,0.2,0.1,0.4,0.1,0.7c0,0.2,0.1,0.5,0.1,0.7l0,0.1
					c0,0.1-0.1,0.2-0.2,0.2C83.1,117.2,83.1,117.2,83,117.1z"/>
			</g>
			<g>
				<path class="st26" d="M82.7,114.3c-0.2,1-0.7,1.8-1.3,2.6c-0.6,0.7-1.3,1.4-2.2,1.9c-0.1,0-0.2,0-0.3-0.1c0-0.1,0-0.1,0-0.2l0,0
					c0.3-0.4,0.6-0.7,0.9-1c0.3-0.3,0.6-0.7,0.9-1.1c0.6-0.7,1.1-1.5,1.6-2.2l0,0c0.1-0.1,0.2-0.1,0.2,0
					C82.7,114.1,82.7,114.2,82.7,114.3z"/>
			</g>
		</g>
		<g>
			<g>
				<path class="st26" d="M58.8,105.7c-2.1,5-4.2,10-6.1,15c-1.9,5.1-3.7,10.2-5,15.4c-0.6,2.6-1.2,5.2-1.2,7.9
					c0,2.6,0.3,5.3,1.8,7.5c1.4,2.2,4,3.3,6.5,3.8c1.3,0.2,2.7,0.4,4,0.6c1.3,0.2,2.7,0.4,4,0.4l0.1,0c0.2,0,0.3,0.1,0.3,0.3
					c0,0.2-0.1,0.3-0.3,0.3c-1.5,0-2.8-0.2-4.1-0.3c-1.4-0.2-2.7-0.3-4.1-0.5c-1.4-0.2-2.7-0.6-4-1.3c-1.3-0.6-2.4-1.6-3.2-2.8
					c-1.7-2.4-2.1-5.3-2-8.1c0-2.8,0.6-5.5,1.3-8.1c1.4-5.3,3.2-10.4,5.2-15.4c2-5.1,4.1-10,6.4-15c0.1-0.1,0.2-0.2,0.3-0.1
					C58.8,105.4,58.8,105.6,58.8,105.7z"/>
			</g>
			<g>
				<path class="st26" d="M67.9,156.3l13-0.1l6.5,0l6.5,0.1c0.1,0,0.3,0.1,0.3,0.3c0,0.1-0.1,0.3-0.3,0.3l-6.5,0.1l-6.5,0l-13-0.1
					c-0.2,0-0.3-0.1-0.3-0.3C67.6,156.4,67.7,156.3,67.9,156.3z"/>
			</g>
			<path class="st30" d="M66.4,159.4c0.1,0.1,0.2,0.2,0.3,0.3c0,0.1,0,0.3,0,0.4c-0.1,0.8-0.2,1.6-0.9,2.1c-0.5,0.3-1,0.3-1.6,0.3
				c-0.5,0-1.1-0.1-1.6-0.2c-0.6-0.1-1.2-0.3-1.6-0.7c-0.4-0.4-0.4-1.1-0.4-1.6c0-0.2,0-0.4,0.1-0.6c0.1-0.2,0.3-0.3,0.6-0.4
				c0.9-0.4,1.5-0.8,2.5-0.6C64.7,158.4,65.8,158.7,66.4,159.4z"/>
			<path class="st30" d="M95.3,159.4c-0.1,0.1-0.2,0.2-0.3,0.3c0,0.1,0,0.3,0,0.4c0.1,0.8,0.2,1.6,0.9,2.1c0.5,0.3,1,0.3,1.6,0.3
				c0.5,0,1.1-0.1,1.6-0.2c0.6-0.1,1.2-0.3,1.6-0.7c0.4-0.4,0.4-1.1,0.4-1.6c0-0.2,0-0.4-0.1-0.6c-0.1-0.2-0.3-0.3-0.6-0.4
				c-0.9-0.4-1.5-0.8-2.5-0.6C97,158.4,95.9,158.7,95.3,159.4z"/>
			<g>
				<path class="st26" d="M105.4,109.3c2.1,4.6,4,9.3,5.8,14.1c1.7,4.8,3.4,9.6,4.4,14.6c0.5,2.5,0.8,5.1,0.7,7.7
					c-0.1,2.6-0.8,5.3-2.7,7.3c-0.9,1-2.1,1.7-3.3,2.2c-1.2,0.5-2.5,0.8-3.8,1c-1.3,0.2-2.5,0.3-3.8,0.4c-1.3,0.1-2.5,0.3-3.9,0.3
					c-0.2,0-0.3-0.1-0.3-0.3c0-0.2,0.1-0.3,0.3-0.3l0.1,0c1.1,0,2.5-0.2,3.7-0.4c1.2-0.2,2.5-0.3,3.7-0.5c2.4-0.4,4.9-1.3,6.4-3.1
					c1.6-1.8,2.2-4.3,2.4-6.7c0.2-2.5-0.2-4.9-0.7-7.4c-1-4.9-2.5-9.7-4.2-14.5c-1.7-4.8-3.5-9.5-5.5-14.1c-0.1-0.1,0-0.3,0.1-0.4
					C105.2,109.1,105.4,109.2,105.4,109.3z"/>
			</g>
			<path class="st117" d="M57.5,108.7c0,0-8.3,17.5-10.6,28.2c-2.3,10.6,0.4,14.6,3,17c1.8,1.6,6.7,2.4,12.8,2.7
				c0.1,0,0.2,0,0.2,0.1c0.2-0.1-0.6-4.5-0.6-4.5c-2.6,2.9-8.5,2.1-11.3-0.4C42.5,143.8,57.5,108.7,57.5,108.7z"/>
			<path class="st117" d="M105.2,109.9c0,0,7.6,16.4,9.9,27c2.3,10.6-0.4,14.6-3,17c-1.8,1.6-6.7,2.4-12.8,2.7c-0.1,0-0.2,0-0.2,0.1
				c-0.2-0.1,0.6-4.5,0.6-4.5c2.6,2.9,8.5,2.1,11.3-0.4C119.5,143.8,105.2,109.9,105.2,109.9z"/>
			<path class="st30" d="M68.2,156.4l6-21.3c2-7,11.8-7,13.8,0l6,21.3H68.2z"/>
			<path class="st119" d="M69.8,150.3c0,0,0.1,4.7,10.7,4.7c10.6,0,11.8-4.7,11.8-4.7l1.6,6.2H67.9L69.8,150.3z"/>
			<g>
				<path class="st26" d="M61.6,144.6c0.5,3.4,1.1,6.8,1.5,10.3c0.1,0.9,0.2,1.7,0.2,2.6c0,0.2,0,0.4-0.1,0.8c0,0-0.1,0.2-0.3,0.2
					l-0.1,0l-0.1,0c-0.1,0-0.2,0.1-0.3,0.1c-0.4,0.2-0.7,0.4-0.9,0.6c-0.5,0.5-0.4,1.4,0,1.9c0.2,0.3,0.5,0.5,0.9,0.6
					c0.4,0.1,0.8,0.2,1.2,0.3c0.8,0.1,1.7,0.1,2-0.4c0.2-0.3,0.3-0.7,0.5-1.1l0.4-1.2c0.5-1.6,1.1-3.3,1.6-4.9l3.1-9.9
					c0-0.1,0.2-0.2,0.3-0.1c0.1,0,0.2,0.2,0.1,0.3c-0.9,3.3-1.9,6.7-2.8,10c-0.5,1.7-1,3.3-1.6,5l-0.4,1.2c-0.2,0.4-0.3,0.8-0.6,1.3
					c-0.3,0.5-0.9,0.7-1.4,0.7c-0.5,0.1-1,0-1.4,0c-0.5-0.1-0.9-0.2-1.3-0.3c-0.4-0.1-0.9-0.4-1.2-0.8c-0.7-0.8-0.7-2.1,0-2.8
					c0.3-0.4,0.8-0.6,1.2-0.8c0.1,0,0.2-0.1,0.3-0.1l0.2-0.1l0.1,0c-0.1,0-0.2,0.1-0.2,0.1c0,0,0-0.3,0-0.5c0-0.8-0.1-1.7-0.2-2.5
					c-0.4-3.4-0.9-6.8-1.4-10.3c0-0.1,0.1-0.3,0.2-0.3C61.4,144.4,61.6,144.5,61.6,144.6z"/>
			</g>
			<g>
				<path class="st26" d="M100.6,144.7c-0.5,3.4-0.9,6.8-1.3,10.2c-0.1,0.9-0.2,1.7-0.2,2.5c0,0.2,0,0.4,0,0.5c0,0,0,0-0.1-0.1
					c0,0-0.1,0-0.1-0.1c0,0,0,0,0,0l0,0l0.2,0c0.1,0,0.2,0.1,0.3,0.1c0.4,0.2,0.9,0.4,1.2,0.8c0.7,0.8,0.7,2.1,0,2.8
					c-0.3,0.4-0.8,0.7-1.2,0.8c-0.4,0.1-0.9,0.3-1.3,0.3c-0.4,0.1-0.9,0.1-1.4,0c-0.5-0.1-1-0.3-1.4-0.7c-0.3-0.5-0.4-0.9-0.6-1.3
					l-0.4-1.2c-0.5-1.7-1-3.3-1.4-5c-0.9-3.3-1.8-6.7-2.6-10c0-0.1,0-0.2,0.2-0.3c0.1,0,0.2,0,0.3,0.2l2.9,9.9
					c0.5,1.7,1,3.3,1.5,4.9l0.4,1.2c0.1,0.4,0.3,0.8,0.5,1.1c0.4,0.5,1.3,0.5,2.1,0.4c0.4-0.1,0.8-0.2,1.2-0.3
					c0.4-0.1,0.7-0.3,0.9-0.6c0.5-0.5,0.5-1.4,0-1.9c-0.2-0.3-0.6-0.5-0.9-0.6c-0.1,0-0.2-0.1-0.3-0.1l-0.1,0l0,0l0,0
					c0,0-0.1,0-0.1-0.1c-0.1-0.1-0.1-0.2-0.1-0.2c-0.1-0.3-0.1-0.5-0.1-0.8c0-0.9,0.1-1.7,0.2-2.6c0.4-3.4,0.9-6.8,1.4-10.3
					c0-0.1,0.2-0.2,0.3-0.2C100.6,144.4,100.7,144.6,100.6,144.7z"/>
			</g>
		</g>
		<g>
			<path class="st26" d="M76.2,80.5c-0.2-0.9,0.5-1.8,1.4-1.8c1.2,0,4.1-0.1,5.2,0.2c1.1,0.3,1.2,1.9,0.3,2.6l-2.6,1.7
				c-0.6,0.4-0.8,0.4-1.3,0l-2.5-1.9C76.4,81.1,76.3,80.8,76.2,80.5z"/>
			<g>
				<path class="st26" d="M80.2,83.6c-0.3,1.4-0.8,2.7-1.4,3.9c-0.6,1.2-1.5,2.4-2.5,3.3c-1,0.9-2.4,1.5-3.7,1.8
					c-1.4,0.3-2.8,0.1-4.1-0.1c-0.1,0-0.1-0.1-0.1-0.2c0-0.1,0.1-0.1,0.1-0.1l0,0c1.3,0.2,2.7,0.3,3.9-0.1c1.3-0.3,2.5-0.9,3.4-1.8
					c1-0.9,1.7-2,2.3-3.1c0.6-1.2,1-2.4,1.3-3.7l0,0c0-0.2,0.2-0.3,0.4-0.3C80.1,83.2,80.2,83.4,80.2,83.6
					C80.2,83.6,80.2,83.6,80.2,83.6z"/>
			</g>
			<g>
				<path class="st26" d="M80.2,83.5c0.2,1.3,0.6,2.6,1.1,3.8c0.5,1.2,1.2,2.3,2.1,3.3c0.9,1,2,1.6,3.3,2c1.3,0.4,2.6,0.4,3.9,0.3
					l0,0c0.1,0,0.1,0,0.1,0.1c0,0.1,0,0.1-0.1,0.1c-1.3,0.2-2.7,0.3-4.1-0.1c-1.3-0.3-2.6-1-3.6-2c-1-1-1.7-2.2-2.3-3.4
					c-0.6-1.3-1-2.6-1.2-4c0-0.2,0.1-0.4,0.3-0.4C80,83.1,80.2,83.3,80.2,83.5C80.2,83.5,80.2,83.5,80.2,83.5L80.2,83.5z"/>
			</g>
			<g>
				<g>
					<path class="st26" d="M89.8,86.5c12.9,7.5,27.8,11.6,42.7,11.9c-15-0.1-29.9-4.1-42.9-11.5c-0.1-0.1-0.1-0.2-0.1-0.3
						C89.6,86.4,89.7,86.4,89.8,86.5L89.8,86.5z"/>
				</g>
				<g>
					<path class="st26" d="M90.4,82c15.3,7.1,33.3,8.2,49.3,2.8c-16,5.5-34.1,4.6-49.5-2.4c-0.1-0.1-0.2-0.2-0.1-0.3
						C90.2,82,90.3,81.9,90.4,82L90.4,82z"/>
				</g>
				<g>
					<path class="st26" d="M88.7,83.6c2.8,1.5,5.7,2.9,8.7,4c3,1.2,6,2.1,9.1,2.9c1.5,0.4,3.1,0.7,4.7,1.1c1.6,0.3,3.2,0.6,4.8,0.7
						c3.2,0.5,6.4,0.5,9.6,0.5c-3.2,0-6.4,0-9.6-0.4c-1.6-0.1-3.2-0.5-4.8-0.7c-1.6-0.3-3.2-0.6-4.7-1c-3.1-0.8-6.2-1.7-9.2-2.9
						c-3-1.1-6-2.4-8.8-3.9c-0.1-0.1-0.1-0.2-0.1-0.3S88.6,83.5,88.7,83.6C88.7,83.6,88.7,83.6,88.7,83.6L88.7,83.6z"/>
				</g>
			</g>
			<g>
				<g>
					<path class="st26" d="M70.7,86.3c-13.4,6.6-28.6,9.8-43.5,9.1c14.9,0.5,30-2.8,43.3-9.5c0.1-0.1,0.2,0,0.3,0.1
						C70.9,86.1,70.8,86.2,70.7,86.3L70.7,86.3z"/>
				</g>
				<g>
					<path class="st26" d="M70.3,81.8c-4.2,1.6-8.6,2.8-13,3.7c-4.4,0.9-8.9,1.4-13.4,1.5c-4.5,0.1-9-0.1-13.5-0.8
						c-4.5-0.7-8.8-1.8-13-3.5c4.2,1.7,8.6,2.7,13,3.3c4.5,0.6,9,0.8,13.4,0.6c4.5-0.2,9-0.7,13.4-1.6c4.4-0.9,8.7-2.1,12.9-3.8
						c0.1,0,0.2,0,0.3,0.1C70.5,81.7,70.4,81.8,70.3,81.8L70.3,81.8z"/>
				</g>
				<g>
					<path class="st26" d="M72,83.5C69.1,84.9,66,86,63,87c-3.1,1-6.2,1.7-9.4,2.3c-1.6,0.3-3.2,0.5-4.8,0.8
						c-1.6,0.1-3.2,0.4-4.8,0.4c-3.2,0.2-6.4,0.1-9.6-0.1c3.2,0.2,6.4,0.3,9.6,0c1.6-0.1,3.2-0.3,4.8-0.5c1.6-0.3,3.2-0.5,4.7-0.8
						c3.1-0.6,6.3-1.4,9.3-2.4c3-1,6.1-2.1,8.9-3.5l0,0c0.1-0.1,0.2,0,0.3,0.1C72.1,83.3,72.1,83.5,72,83.5L72,83.5z"/>
				</g>
			</g>
			<g>
				<path class="st26" d="M72.3,100.9c0.5-1.2,1.3-2.1,2.3-2.9c0.5-0.4,1.1-0.7,1.7-0.9c0.6-0.2,1.2-0.3,1.9-0.3c0,0,0.1,0,0.1,0.1
					c0,0,0,0.1-0.1,0.1l0,0c-0.6,0.1-1.2,0.3-1.7,0.6c-0.5,0.3-1,0.6-1.5,0.9c-0.9,0.7-1.7,1.6-2.5,2.6l0,0c0,0.1-0.1,0.1-0.2,0
					C72.3,101,72.3,100.9,72.3,100.9z"/>
			</g>
			<g>
				<path class="st26" d="M78.3,96.8c0.4,0.7,0.4,1.5,0.3,2.3c-0.1,0.4-0.2,0.8-0.4,1.1c-0.2,0.4-0.5,0.6-0.8,0.9c0,0-0.1,0-0.1,0
					c0,0,0-0.1,0-0.1l0,0c0.2-0.3,0.4-0.6,0.5-1c0.1-0.3,0.2-0.7,0.3-1c0.1-0.7,0.1-1.4,0-2.1l0,0c0-0.1,0-0.1,0.1-0.1
					C78.2,96.7,78.3,96.8,78.3,96.8z"/>
			</g>
			<g>
				<path class="st26" d="M77.3,100.9c0.9-0.7,1.9-1.3,2.9-1.8c0.5-0.2,1.1-0.4,1.7-0.5c0.6-0.1,1.2-0.1,1.7,0.3c0,0,0,0.1,0,0.1
					c0,0-0.1,0-0.1,0c-0.5-0.2-1-0.1-1.6,0c-0.5,0.1-1,0.3-1.5,0.5c-1,0.4-2,0.9-3,1.4c-0.1,0-0.1,0-0.2-0.1
					C77.2,101,77.2,101,77.3,100.9z"/>
			</g>
			<g>
				<path class="st26" d="M83.6,99c0.3,0.2,0.4,0.5,0.4,0.8c0,0.3-0.2,0.6-0.3,0.8c-0.4,0.4-0.8,0.7-1.3,0.9c0,0-0.1,0-0.1-0.1
					c0,0,0-0.1,0-0.1c0.3-0.4,0.7-0.7,0.9-1.1c0.1-0.2,0.2-0.4,0.3-0.5c0.1-0.2,0-0.4,0-0.6l0,0c0-0.1,0-0.1,0.1-0.2
					C83.5,99,83.6,99,83.6,99z"/>
			</g>
		</g>
	</g>
</g>
<g id="mask" class="st0">
</g>
</svg>
