<?xml version="1.0" encoding="utf-8"?>
<!-- Generator: Adobe Illustrator 21.0.0, SVG Export Plug-In . SVG Version: 6.00 Build 0)  -->
<svg version="1.1" xmlns="http://www.w3.org/2000/svg" xmlns:xlink="http://www.w3.org/1999/xlink" x="0px" y="0px"
	 viewBox="0 0 176.8 172.4" style="enable-background:new 0 0 176.8 172.4;" xml:space="preserve">
<style type="text/css">
	.st0{display:none;}
	.st1{display:inline;fill:#FD9994;}
	.st2{display:inline;fill:#FFFFFF;}
	.st3{display:inline;fill:none;stroke:#FFFFFF;stroke-width:2.2363;stroke-miterlimit:10;}
	.st4{display:inline;}
	.st5{fill:none;stroke:#FFFFFF;stroke-width:2.2363;stroke-miterlimit:10;}
	.st6{fill:#FFB380;}
	.st7{fill:#D2C3DB;}
	.st8{fill:#F9ECDC;}
	.st9{fill:#FFF58B;}
	.st10{fill:#F6BC60;}
	.st11{fill:#ECF784;}
	.st12{fill:#FFDEFF;}
	.st13{fill:#AED5D2;}
	.st14{fill:#F4BD9F;}
	.st15{fill:#B9DCFF;}
	.st16{fill:#D7FFFB;}
	.st17{fill:#81D8F7;}
	.st18{fill:#E57777;}
	.st19{fill:#D9FFDB;}
	.st20{opacity:0.1;}
	.st21{fill:#5CCDFF;}
	.st22{fill:none;}
	.st23{opacity:0.2;fill:#FFFFFF;}
	.st24{opacity:0.1;fill:#002CBF;}
	.st25{fill:#1A1A1A;}
	.st26{fill:#333333;}
	.st27{fill:#FFFFDE;}
	.st28{clip-path:url(#SVGID_4_);}
	.st29{fill:none;stroke:#333333;stroke-width:0.4917;stroke-linecap:round;stroke-linejoin:round;stroke-miterlimit:10;}
	.st30{fill:#FFFFFF;}
	.st31{fill:none;stroke:#333333;stroke-width:0.8543;stroke-miterlimit:10;}
	.st32{clip-path:url(#SVGID_6_);}
	.st33{fill:#FFD7B9;}
	.st34{fill:#F0FFFF;}
	.st35{clip-path:url(#SVGID_8_);}
	.st36{fill:#FF5C5C;}
	.st37{fill:none;stroke:#333333;stroke-width:0.466;stroke-linecap:round;stroke-linejoin:round;stroke-miterlimit:10;}
	.st38{fill:none;stroke:#333333;stroke-width:0.8095;stroke-miterlimit:10;}
	.st39{clip-path:url(#SVGID_10_);}
	.st40{fill:none;stroke:#333333;stroke-width:0.7381;stroke-linecap:round;stroke-linejoin:round;stroke-miterlimit:10;}
	.st41{fill:none;stroke:#333333;stroke-width:0.8857;stroke-linecap:round;stroke-linejoin:round;stroke-miterlimit:10;}
	.st42{fill:none;stroke:#333333;stroke-width:2.6852;stroke-linecap:round;stroke-linejoin:round;stroke-miterlimit:10;}
	.st43{fill:#72B5C4;}
	.st44{fill:#5E96A5;}
	.st45{fill:none;stroke:#FFFFFF;stroke-width:2.6852;stroke-linecap:round;stroke-linejoin:round;stroke-miterlimit:10;}
	.st46{fill:none;stroke:#FFFFFF;stroke-width:1.2942;stroke-linecap:round;stroke-linejoin:round;stroke-miterlimit:10;}
	.st47{fill:none;stroke:#FFFFFF;stroke-width:0.8311;stroke-linecap:round;stroke-linejoin:round;stroke-miterlimit:10;}
	.st48{fill:#FF5C00;}
	.st49{fill:#00B4FF;}
	.st50{fill:#FF5592;}
	.st51{fill:#733FFF;}
	.st52{fill:#DDFF15;}
	.st53{fill:#BF5855;}
	.st54{fill:none;stroke:#333333;stroke-width:0.5718;stroke-miterlimit:10;}
	.st55{fill:#C8F982;}
	.st56{fill:#AEF9C0;}
	.st57{fill:none;stroke:#FFFFFF;stroke-width:1.8326;stroke-miterlimit:10;}
	.st58{fill:#9AF6F9;}
	.st59{fill:#FFACA2;}
	.st60{fill:#F9E582;}
	.st61{fill:#FFC08B;}
	.st62{fill:#EFEB6A;}
	.st63{fill:#EC987F;}
	.st64{fill:#B5FFCC;}
	.st65{fill:#FFEDA2;}
	.st66{fill:#CCE7CC;}
	.st67{fill:#ABE7AB;}
	.st68{fill:#A6A6A6;}
	.st69{clip-path:url(#SVGID_60_);}
	.st70{fill:none;stroke:#333333;stroke-width:0.4706;stroke-linecap:round;stroke-linejoin:round;stroke-miterlimit:10;}
	.st71{fill:#FFEC55;}
	.st72{fill:none;stroke:#333333;stroke-width:0.8177;stroke-miterlimit:10;}
	.st73{clip-path:url(#SVGID_62_);}
	.st74{clip-path:url(#SVGID_64_);}
	.st75{fill:#FF7A59;}
	.st76{clip-path:url(#SVGID_66_);}
	.st77{clip-path:url(#SVGID_68_);}
	.st78{fill:#B45FFF;}
	.st79{clip-path:url(#SVGID_70_);}
	.st80{opacity:0.2;fill:#002CBF;}
	.st81{fill:none;stroke:#333333;stroke-width:0.5506;stroke-linecap:round;stroke-linejoin:round;stroke-miterlimit:10;}
	.st82{clip-path:url(#SVGID_72_);}
	.st83{fill:#EAA871;}
	.st84{fill:#FFD836;}
	.st85{fill:#FF846B;}
	.st86{fill:none;stroke:#333333;stroke-width:0.804;stroke-linecap:round;stroke-linejoin:round;stroke-miterlimit:10;}
	.st87{fill:#FEFF4A;}
	.st88{fill:none;stroke:#333333;stroke-width:0.7645;stroke-linecap:round;stroke-linejoin:round;stroke-miterlimit:10;}
	.st89{fill:none;stroke:#333333;stroke-width:0.7645;stroke-miterlimit:10;}
	.st90{fill:none;stroke:#333333;stroke-width:2.9248;stroke-linecap:round;stroke-linejoin:round;stroke-miterlimit:10;}
	.st91{fill:none;stroke:#333333;stroke-width:0.945;stroke-linecap:round;stroke-linejoin:round;stroke-miterlimit:10;}
	.st92{fill:none;stroke:#333333;stroke-width:0.945;stroke-miterlimit:10;}
	.st93{fill:none;stroke:#333333;stroke-width:3.6155;stroke-linecap:round;stroke-linejoin:round;stroke-miterlimit:10;}
	.st94{fill:none;stroke:#333333;stroke-width:0.6228;stroke-miterlimit:10;}
	.st95{fill:none;stroke:#333333;stroke-width:0.7778;stroke-linecap:round;stroke-linejoin:round;stroke-miterlimit:10;}
	.st96{fill:#FF712A;}
	.st97{fill:none;stroke:#333333;stroke-width:0.7396;stroke-linecap:round;stroke-linejoin:round;stroke-miterlimit:10;}
	.st98{fill:none;stroke:#333333;stroke-width:0.7396;stroke-miterlimit:10;}
	.st99{fill:none;stroke:#333333;stroke-width:2.8295;stroke-linecap:round;stroke-linejoin:round;stroke-miterlimit:10;}
	.st100{fill:none;stroke:#333333;stroke-width:0.9142;stroke-linecap:round;stroke-linejoin:round;stroke-miterlimit:10;}
	.st101{fill:none;stroke:#333333;stroke-width:0.9142;stroke-miterlimit:10;}
	.st102{fill:none;stroke:#333333;stroke-width:3.4977;stroke-linecap:round;stroke-linejoin:round;stroke-miterlimit:10;}
	.st103{fill:none;stroke:#333333;stroke-width:0.6025;stroke-miterlimit:10;}
	.st104{fill:url(#SVGID_89_);}
	.st105{fill:url(#SVGID_90_);}
	.st106{fill:none;stroke:#333333;stroke-width:0.7438;stroke-linecap:round;stroke-linejoin:round;stroke-miterlimit:10;}
	.st107{fill:none;stroke:#333333;stroke-width:0.8926;stroke-linecap:round;stroke-linejoin:round;stroke-miterlimit:10;}
	.st108{clip-path:url(#SVGID_92_);fill:url(#SVGID_93_);}
	.st109{fill:url(#SVGID_94_);}
	.st110{fill:#52C5FF;}
	.st111{fill:none;stroke:#333333;stroke-width:0.6367;stroke-linecap:round;stroke-linejoin:round;stroke-miterlimit:10;}
	.st112{fill:none;stroke:#333333;stroke-width:2.7061;stroke-linecap:round;stroke-linejoin:round;stroke-miterlimit:10;}
	.st113{fill:none;stroke:#333333;stroke-width:0.5763;stroke-miterlimit:10;}
	.st114{fill:none;stroke:#FFFFFF;stroke-width:1.3042;stroke-linecap:round;stroke-linejoin:round;stroke-miterlimit:10;}
	.st115{fill:none;stroke:#FFFFFF;stroke-width:0.8375;stroke-linecap:round;stroke-linejoin:round;stroke-miterlimit:10;}
	.st116{clip-path:url(#SVGID_96_);}
	.st117{opacity:0.2;fill:#2E3192;}
	.st118{fill:#FEFF78;}
	.st119{opacity:0.1;fill:#2E3192;}
	.st120{fill:#FF5A50;}
	.st121{fill:none;stroke:#333333;stroke-width:0.567;stroke-linecap:round;stroke-linejoin:round;stroke-miterlimit:10;}
	.st122{fill:none;stroke:#333333;stroke-width:2.5786;stroke-linecap:round;stroke-linejoin:round;stroke-miterlimit:10;}
	.st123{fill:none;stroke:#333333;stroke-width:0.5491;stroke-miterlimit:10;}
	.st124{clip-path:url(#SVGID_98_);}
	.st125{fill:#2AD2FF;}
	.st126{fill:none;stroke:#333333;stroke-width:0.2435;stroke-miterlimit:10;}
	.st127{fill:#FFFFFF;stroke:#333333;stroke-width:0.487;stroke-linecap:round;stroke-linejoin:round;stroke-miterlimit:10;}
	.st128{clip-path:url(#SVGID_100_);}
	.st129{fill:url(#SVGID_101_);}
	.st130{opacity:0.4;fill:#FFFFFF;}
	.st131{fill:#FFDC48;}
	.st132{fill:none;stroke:#333333;stroke-width:0.5835;stroke-linecap:round;stroke-linejoin:round;stroke-miterlimit:10;}
	.st133{fill:none;stroke:#333333;stroke-width:2.6537;stroke-linecap:round;stroke-linejoin:round;stroke-miterlimit:10;}
	.st134{fill:#F0F462;}
	.st135{fill:url(#SVGID_102_);}
	.st136{fill:url(#SVGID_103_);}
	.st137{fill:#D1DADF;}
	.st138{fill:#57FFA3;}
	.st139{clip-path:url(#SVGID_105_);}
	.st140{clip-path:url(#SVGID_107_);}
	.st141{fill:#D0BBF9;}
	.st142{clip-path:url(#SVGID_109_);}
	.st143{fill:none;stroke:#333333;stroke-width:0.5867;stroke-linecap:round;stroke-linejoin:round;stroke-miterlimit:10;}
	.st144{clip-path:url(#SVGID_111_);}
	.st145{fill:none;stroke:#333333;stroke-width:0.5514;stroke-linecap:round;stroke-linejoin:round;stroke-miterlimit:10;}
	.st146{fill:#D1E9D3;}
	.st147{clip-path:url(#SVGID_113_);}
	.st148{fill:none;stroke:#333333;stroke-width:0.7684;stroke-linecap:round;stroke-linejoin:round;stroke-miterlimit:10;}
	.st149{fill:none;stroke:#333333;stroke-width:0.7684;stroke-miterlimit:10;}
	.st150{fill:none;stroke:#333333;stroke-width:2.9398;stroke-linecap:round;stroke-linejoin:round;stroke-miterlimit:10;}
	.st151{clip-path:url(#SVGID_115_);}
	.st152{fill:#FF66F8;}
	.st153{fill:none;stroke:#333333;stroke-width:0.7542;stroke-linecap:round;stroke-linejoin:round;stroke-miterlimit:10;}
	.st154{fill:none;stroke:#333333;stroke-width:0.9051;stroke-linecap:round;stroke-linejoin:round;stroke-miterlimit:10;}
	.st155{fill:none;stroke:#333333;stroke-width:0.5146;stroke-linecap:round;stroke-linejoin:round;stroke-miterlimit:10;}
	.st156{fill:none;stroke:#333333;stroke-width:0.6033;stroke-linecap:round;stroke-linejoin:round;stroke-miterlimit:10;}
	.st157{fill:none;stroke:#333333;stroke-width:2.7439;stroke-linecap:round;stroke-linejoin:round;stroke-miterlimit:10;}
	.st158{fill:#333333;stroke:#333333;stroke-width:1.0293;stroke-linecap:round;stroke-linejoin:round;stroke-miterlimit:10;}
	.st159{fill:#FF5F2A;}
	.st160{fill:none;stroke:#333333;stroke-width:0.5965;stroke-linecap:round;stroke-linejoin:round;stroke-miterlimit:10;}
	.st161{fill:#F9CC3E;}
	.st162{clip-path:url(#SVGID_121_);}
	.st163{fill:#70E1FF;}
	.st164{fill:none;stroke:#333333;stroke-width:0.5717;stroke-linecap:round;stroke-linejoin:round;stroke-miterlimit:10;}
	.st165{fill:none;stroke:#333333;stroke-width:2.6004;stroke-linecap:round;stroke-linejoin:round;stroke-miterlimit:10;}
	.st166{clip-path:url(#SVGID_123_);}
	.st167{fill:#8F61FF;}
	.st168{clip-path:url(#SVGID_125_);}
	.st169{clip-path:url(#SVGID_127_);}
	.st170{fill:#FFEBEB;}
	.st171{clip-path:url(#SVGID_129_);}
	.st172{clip-path:url(#SVGID_131_);}
	.st173{fill:#F47D62;}
	.st174{fill:none;stroke:#333333;stroke-width:0.7188;stroke-linecap:round;stroke-linejoin:round;stroke-miterlimit:10;}
	.st175{fill:none;stroke:#333333;stroke-width:0.7188;stroke-miterlimit:10;}
	.st176{fill:none;stroke:#333333;stroke-width:2.7502;stroke-linecap:round;stroke-linejoin:round;stroke-miterlimit:10;}
	.st177{fill:#85ACB5;}
	.st178{clip-path:url(#SVGID_133_);}
	.st179{fill:#D5F2F7;}
	.st180{fill:#FF694A;}
	.st181{fill:none;stroke:#333333;stroke-width:0.5693;stroke-linecap:round;stroke-linejoin:round;stroke-miterlimit:10;}
	.st182{fill:#FFDF15;}
	.st183{fill:none;stroke:#333333;stroke-width:0.6674;stroke-linecap:round;stroke-linejoin:round;stroke-miterlimit:10;}
	.st184{fill:none;stroke:#333333;stroke-width:3.0352;stroke-linecap:round;stroke-linejoin:round;stroke-miterlimit:10;}
	.st185{clip-path:url(#SVGID_135_);}
	.st186{clip-path:url(#SVGID_137_);}
	.st187{fill:none;stroke:#333333;stroke-width:0.5248;stroke-linecap:round;stroke-linejoin:round;stroke-miterlimit:10;}
	.st188{fill:#FFD33A;}
	.st189{fill:none;stroke:#333333;stroke-width:2.7983;stroke-linecap:round;stroke-linejoin:round;stroke-miterlimit:10;}
	.st190{fill:none;stroke:#333333;stroke-width:0.7692;stroke-linecap:round;stroke-linejoin:round;stroke-miterlimit:10;}
	.st191{fill:none;stroke:#333333;stroke-width:0.5959;stroke-miterlimit:10;}
	.st192{clip-path:url(#SVGID_143_);}
	.st193{fill:#FFE267;}
	.st194{clip-path:url(#SVGID_149_);}
	.st195{fill:#FFEEAA;}
	.st196{opacity:0.7;fill:url(#SVGID_152_);}
	.st197{fill:none;stroke:#333333;stroke-width:0.611;stroke-miterlimit:10;}
	.st198{clip-path:url(#SVGID_154_);}
	.st199{opacity:0.7;fill:url(#SVGID_157_);}
	.st200{fill:#EABBFC;}
	.st201{opacity:0.7;fill:url(#SVGID_160_);}
	.st202{opacity:0.7;fill:url(#SVGID_163_);}
	.st203{opacity:0.7;fill:url(#SVGID_166_);}
	.st204{opacity:0.7;fill:url(#SVGID_169_);}
	.st205{clip-path:url(#SVGID_171_);}
	.st206{fill:none;stroke:#333333;stroke-width:0.5899;stroke-linecap:round;stroke-linejoin:round;stroke-miterlimit:10;}
	.st207{fill:none;stroke:#333333;stroke-width:2.6828;stroke-linecap:round;stroke-linejoin:round;stroke-miterlimit:10;}
	.st208{fill:none;stroke:#333333;stroke-width:0.5713;stroke-miterlimit:10;}
	.st209{clip-path:url(#SVGID_173_);}
	.st210{clip-path:url(#SVGID_175_);}
	.st211{clip-path:url(#SVGID_177_);}
	.st212{fill:#FFAFC3;}
	.st213{fill:#A0D3FF;}
	.st214{fill:none;stroke:#333333;stroke-width:0.7262;stroke-linecap:round;stroke-linejoin:round;stroke-miterlimit:10;}
	.st215{fill:none;stroke:#333333;stroke-width:0.6906;stroke-miterlimit:10;}
	.st216{fill:none;stroke:#333333;stroke-width:0.8536;stroke-miterlimit:10;}
	.st217{fill:#333333;stroke:#333333;stroke-width:0.991;stroke-linecap:round;stroke-linejoin:round;stroke-miterlimit:10;}
	.st218{clip-path:url(#SVGID_179_);}
	.st219{clip-path:url(#SVGID_181_);}
	.st220{fill:#FD9994;}
	.st221{opacity:0.2;}
	.st222{fill:#2E3192;}
	.st223{display:inline;fill:#FF5B00;}
</style>
<g id="site">
</g>
<g id="kitties">
	<g>
		<g>
			<path class="st78" d="M146,98.2c0,0-9.1-1.9-14,11.2c-4.8,13-5,15.9-19.5,18.1l2,12.7c0,0,12.8,5.2,23.2,0.1
				c10.4-5,8.4-16.1,8.5-19.1c0-0.4-0.2,1.5-1.2,2.9c-1.2,1.7-2.9,2.8-2.5,2c2.3-4.3,2.8-13.2,2.8-13.2
				C144.2,107,143.6,100.5,146,98.2z"/>
			<path class="st24" d="M132.7,107.5c0,0,0.4,11.8-5.3,16.4c-6.1,4.9-11.6,3.1-11.6,3.1s7-1.1,10.4-4.7
				C130.8,117.3,132.7,107.5,132.7,107.5z"/>
			<g>
				<path class="st26" d="M146,98.6c-3.9-0.2-7.9,1.5-10.4,4.6c-1.3,1.5-2.1,3.3-2.7,5.2c-0.7,1.9-1.2,3.8-1.9,5.8
					c-0.7,1.9-1.4,3.9-2.5,5.6c-1.1,1.8-2.5,3.3-4.3,4.4c-1.7,1.1-3.7,1.9-5.7,2.4c-2,0.5-4,0.8-6,1c-0.1,0-0.2-0.1-0.2-0.2
					c0-0.1,0.1-0.2,0.2-0.2c2-0.2,4-0.6,5.9-1.1c1.9-0.5,3.8-1.3,5.4-2.4c1.7-1.1,3-2.6,4-4.3c1-1.7,1.7-3.6,2.3-5.5
					c0.6-1.9,1.2-3.9,1.9-5.8c0.7-1.9,1.6-3.8,2.9-5.4c2.7-3.3,6.9-5,11.1-4.8c0.2,0,0.4,0.2,0.3,0.4
					C146.4,98.4,146.2,98.6,146,98.6L146,98.6z"/>
			</g>
			<g>
				<path class="st26" d="M146.6,120.6c0.5,4.2,0.3,8.6-1.4,12.5c-0.8,2-2,3.8-3.7,5.3c-0.8,0.7-1.7,1.3-2.7,1.8c-1,0.5-2,0.9-3,1.2
					c-4,1.4-8.4,1.6-12.6,1.1c-4.2-0.5-8.3-1.7-12.1-3.7c-0.1,0-0.1-0.2-0.1-0.2c0-0.1,0.2-0.1,0.2-0.1l0,0c3.7,1.9,7.8,3,12,3.5
					c4.1,0.4,8.4,0.1,12.3-1.3c4-1.2,7.2-4.1,8.9-7.9c1.7-3.8,2-8.1,1.7-12.2c0-0.1,0.1-0.2,0.2-0.2
					C146.4,120.4,146.5,120.5,146.6,120.6z"/>
			</g>
			<g>
				<path class="st26" d="M146.3,98.4c-0.6,0.9-1,2.1-1.3,3.2c-0.3,1.2-0.4,2.4-0.4,3.6c0,1.2,0.1,2.4,0.3,3.6
					c0.2,1.2,0.4,2.4,0.5,3.6c0.4,4.9-0.7,10-3.1,14.3c-0.1,0.1-0.2,0.1-0.3,0.1c-0.1,0-0.1-0.2-0.1-0.2c2.3-4.3,3.1-9.3,2.6-14
					c-0.1-1.2-0.3-2.4-0.5-3.6c-0.2-1.2-0.3-2.5-0.2-3.7c0-1.2,0.1-2.5,0.4-3.7c0.3-1.2,0.7-2.4,1.5-3.5c0.1-0.2,0.3-0.2,0.5-0.1
					C146.4,98,146.5,98.2,146.3,98.4L146.3,98.4z"/>
			</g>
			<g>
				<path class="st26" d="M146.6,120.6c-0.1,1.3-0.6,2.5-1.3,3.7c-0.4,0.6-0.8,1.1-1.3,1.5c-0.5,0.4-1.1,0.8-1.7,1
					c-0.1,0-0.2,0-0.2-0.1c0-0.1,0-0.2,0.1-0.2l0,0c0.5-0.4,1-0.7,1.4-1.2c0.4-0.4,0.8-0.9,1.1-1.4c0.7-1,1.1-2.2,1.5-3.4l0,0
					c0-0.1,0.1-0.2,0.2-0.1C146.5,120.4,146.6,120.5,146.6,120.6z"/>
			</g>
			<path class="st24" d="M142,126.7l-0.9,1.9c-0.2,0.4,0.2,0.8,0.6,0.6c1.6-0.9,4.2-3,4.5-8C146.3,121.2,144.8,125.9,142,126.7z"/>
		</g>
		<path class="st78" d="M42.4,44.7c0,0-40.3-33.2,25.4-13.4"/>
		<path class="st78" d="M127.1,44.7c0,0,40.3-33.2-25.4-13.4L127.1,44.7z"/>
		<g>
			<g>
				<path class="st26" d="M42.3,44.9c-3.9-3.3-7.6-6.7-10.5-11c-0.7-1.1-1.3-2.2-1.7-3.5c-0.2-0.6-0.3-1.3-0.2-2
					c0.1-0.7,0.4-1.4,0.9-1.9c0.5-0.5,1.1-0.9,1.7-1.1c0.6-0.3,1.3-0.4,1.9-0.5c1.3-0.2,2.6-0.3,3.9-0.3c5.1,0.2,10.1,1.2,15,2.4
					c4.9,1.2,9.8,2.7,14.6,4.2c0.1,0,0.2,0.1,0.1,0.2c0,0.1-0.1,0.1-0.2,0.1c-4.9-1.4-9.7-2.7-14.7-3.8c-2.5-0.5-4.9-1-7.4-1.4
					c-2.5-0.4-5-0.7-7.5-0.8c-1.2,0-2.5,0-3.7,0.2c-1.2,0.2-2.4,0.6-3.2,1.3c-0.8,0.8-0.8,2-0.5,3.1c0.3,1.1,0.9,2.2,1.6,3.3
					c1.3,2.1,3,4,4.7,5.8c1.7,1.8,3.6,3.6,5.5,5.2l0,0c0.1,0.1,0.1,0.3,0,0.4C42.5,44.9,42.4,44.9,42.3,44.9z"/>
			</g>
			<g>
				<path class="st26" d="M58.9,33.5c-2.1-0.5-4.2-0.9-6.3-1.3c-2.1-0.3-4.2-0.6-6.4-0.8c-2.1-0.2-4.3-0.4-6.4-0.5
					c-2.1-0.1-4.3-0.1-6.5,0c-0.1,0-0.2-0.1-0.2-0.2c0-0.1,0.1-0.2,0.2-0.2c2.2-0.3,4.3-0.4,6.5-0.4c2.2,0,4.3,0,6.5,0.3
					c2.2,0.3,4.3,0.6,6.4,1.1c2.1,0.5,4.2,1,6.3,1.7c0.1,0,0.1,0.1,0.1,0.2C59,33.4,59,33.5,58.9,33.5z"/>
			</g>
			<path class="st26" d="M48,39.9c0.6,0.1,1.3,0.2,1.9,0.1c0.6-0.1,1.1-0.5,1.6-0.9c2.1-1.4,4.1-3,6.1-4.5c0.3-0.2,0.6-0.5,0.5-0.9
				c0-0.2,3.9,0.5,1-0.3c-1.1-0.3-3.3-1.1-4.3-1.3c-4.6-0.8-9.3-1.5-13.9-1.8c-5-0.4,0.2,5.8,1.7,7C44.2,38.6,46,39.5,48,39.9z"/>
		</g>
		<g>
			<g>
				<path class="st26" d="M127,44.4c1.9-1.6,3.7-3.4,5.5-5.2c1.7-1.8,3.4-3.7,4.7-5.8c0.7-1,1.3-2.1,1.6-3.3
					c0.3-1.1,0.3-2.4-0.5-3.1c-0.8-0.8-2-1.2-3.2-1.4c-1.2-0.2-2.4-0.2-3.7-0.2c-2.5,0.1-5,0.4-7.5,0.8c-2.5,0.4-5,0.9-7.4,1.4
					c-4.9,1.1-9.8,2.4-14.7,3.8c-0.1,0-0.2,0-0.2-0.1c0-0.1,0-0.2,0.1-0.2c4.8-1.5,9.7-3,14.6-4.2c4.9-1.2,9.9-2.3,15-2.4
					c1.3,0,2.6,0,3.9,0.3c0.6,0.1,1.3,0.3,1.9,0.5c0.6,0.2,1.2,0.6,1.7,1.1c0.5,0.5,0.8,1.2,0.9,1.9c0.1,0.7,0,1.4-0.2,2
					c-0.4,1.3-1,2.4-1.7,3.5c-2.9,4.3-6.6,7.7-10.5,11c-0.1,0.1-0.3,0.1-0.4,0C126.8,44.7,126.8,44.5,127,44.4L127,44.4z"/>
			</g>
			<g>
				<path class="st26" d="M110.6,33.2c2.1-0.7,4.1-1.3,6.3-1.7c2.1-0.5,4.3-0.8,6.4-1.1c2.2-0.3,4.3-0.3,6.5-0.3
					c2.2,0,4.3,0.2,6.5,0.4c0.1,0,0.2,0.1,0.2,0.2c0,0.1-0.1,0.2-0.2,0.2c-2.2-0.1-4.3-0.1-6.5,0c-2.1,0.1-4.3,0.3-6.4,0.5
					c-2.1,0.2-4.3,0.5-6.4,0.8c-2.1,0.4-4.2,0.8-6.3,1.3c-0.1,0-0.1,0-0.2-0.1C110.5,33.3,110.5,33.2,110.6,33.2z"/>
			</g>
			<path class="st26" d="M121.5,39.9c-0.6,0.1-1.3,0.2-1.9,0.1c-0.6-0.1-1.1-0.5-1.6-0.9c-2.1-1.4-4.1-3-6.1-4.5
				c-0.3-0.2-0.6-0.5-0.5-0.9c0-0.2,0.2-0.3,0.3-0.4c0.8-0.8,2-1,3.1-1.2c4.6-0.8,9.3-1.5,13.9-1.8c5-0.4-0.2,5.8-1.7,7
				C125.4,38.6,123.5,39.5,121.5,39.9z"/>
		</g>
		<path class="st11" d="M135.7,78.3c0,0,1.3-5.7-1.6-13.8c-1.7-4.7-5.4-8.8-8.1-11.7c0,0,4.6,2.7,7.7,6.4c0,0-2.2-9.4-7.6-15
			c-4.7-4.8-9.3-6.1-9.3-6.1s5.9,0.9,9,1.9c0,0-2.3-2.9-9.1-5.7c-6.7-2.9-9.1-2.5-9.1-2.5s3-1,7.2-0.5c0,0-1.7-2.3-7.3-3.1
			c-5.6-0.8-12.9,0.1-12.9,0.1s4.3-2.7,11.3-3.1c0,0-3.8-2.9-9.6-2.7c-5.8,0.2-10.8,4.1-10.8,4.1s-5.3-3.4-10.2-4.1
			c-4.8-0.7-9,0.7-10.4,1.7c0,0,6.9,0.6,11.3,3.3c0,0-6.7-0.7-11.2-0.4c-4.5,0.3-7.7,1-9.5,2.7c0,0,4.9-0.2,7,0.6
			c0,0-7.5,1.4-11.1,3.2c-3.5,1.7-4.9,2.3-6.7,4c0,0,6.3-1.2,8.4-1.3c0,0-6.8,3.5-9.3,6.2c-2.5,2.7-5.1,6.4-6.2,9
			c-1.1,2.5-2.2,5-2.2,5s5.1-4.8,7.4-5.6c0,0-5.1,5.4-6.5,8c-1,1.9-3.1,5.7-4,12.3c-0.5,3.7-0.1,4.1-0.2,4.4
			c0.2-0.4,3.2-5.1,4.3-5.6c0,0-2.2,7-1.8,11.8c0.4,5.4,3.4,11.4,3.4,11.4s0.9-6.1,1.5-7.1c0,0-0.3,4.1,1.2,8.9
			c1.5,4.8,3.4,6.6,3.4,6.6s0.5-0.4,0.8-3.5l0.5-3.6c0,0,1.7,4.4,3.9,7.8c2.2,3.4,3.4,4.2,3.4,4.2s5.3-2.8,9.4-7.7l1,1.7
			c-1.3,3.8-6.5,15.1-8.8,22.2c-2.9,8.7-4.7,14.3-2.6,20s8.1,6.7,15.6,7l0.1,1.5c0,0-3,1.1-1.8,2.9c1.2,1.9,4.1,1.7,4.7,0.9
			c0.6-0.8,2.1-5.4,2.1-5.4l10.5,0.1l12.7-0.1h2.1c0,0,1.2,5.1,2,5.5c0.8,0.4,3.4,0.2,3.9-0.3c0.5-0.5,1.1-1.7,0.4-2.5
			s-1.5-1.2-1.5-1.2l-0.1-1.4c0,0,7.8-0.3,10.5-1.5c2.6-1.1,5.2-4.8,5.6-6.8c0.4-2,0.4-6-0.1-7.9c-0.6-1.9-2.5-9.2-2.5-9.2
			l-3.2-10.1l-3.8-9.3c0.2-0.8,1.5,1.1,5,3.2c0,0,6.4-6.1,8-11.7c0,0,0,5.2,0.8,7.6c0,0,3.1-3.2,4.7-9.6c0.7-2.9,0.6-5.1,0.7-5.9
			l1.1,7.5c0,0,3.5-7.1,4.3-12.6c0.6-4.1-1.5-11-1.5-11S133.8,74.3,135.7,78.3z"/>
		<g>
			<defs>
				<path id="SVGID_176_" d="M135.7,78.3c0,0,1.3-5.7-1.6-13.8c-1.7-4.7-5.4-8.8-8.1-11.7c0,0,4.6,2.7,7.7,6.4c0,0-2.2-9.4-7.6-15
					c-4.7-4.8-9.3-6.1-9.3-6.1s5.9,0.9,9,1.9c0,0-2.3-2.9-9.1-5.7c-6.7-2.9-9.1-2.5-9.1-2.5s3-1,7.2-0.5c0,0-1.7-2.3-7.3-3.1
					c-5.6-0.8-12.9,0.1-12.9,0.1s4.3-2.7,11.3-3.1c0,0-3.8-2.9-9.6-2.7c-5.8,0.2-10.8,4.1-10.8,4.1s-5.3-3.4-10.2-4.1
					c-4.8-0.7-9,0.7-10.4,1.7c0,0,6.9,0.6,11.3,3.3c0,0-6.7-0.7-11.2-0.4c-4.5,0.3-7.7,1-9.5,2.7c0,0,4.9-0.2,7,0.6
					c0,0-7.5,1.4-11.1,3.2c-3.5,1.7-4.9,2.3-6.7,4c0,0,6.3-1.2,8.4-1.3c0,0-6.8,3.5-9.3,6.2c-2.5,2.7-5.1,6.4-6.2,9
					c-1.1,2.5-2.2,5-2.2,5s5.1-4.8,7.4-5.6c0,0-5.1,5.4-6.5,8c-1,1.9-3.1,5.7-4,12.3c-0.5,3.7-0.1,4.1-0.2,4.4
					c0.2-0.4,3.2-5.1,4.3-5.6c0,0-2.2,7-1.8,11.8c0.4,5.4,3.4,11.4,3.4,11.4s0.9-6.1,1.5-7.1c0,0-0.3,4.1,1.2,8.9
					c1.5,4.8,3.4,6.6,3.4,6.6s0.5-0.4,0.8-3.5l0.5-3.6c0,0,1.7,4.4,3.9,7.8c2.2,3.4,3.4,4.2,3.4,4.2s5.3-2.8,9.4-7.7l1,1.7
					c-1.3,3.8-6.5,15.1-8.8,22.2c-2.9,8.7-4.7,14.3-2.6,20s8.1,6.7,15.6,7l0.1,1.5c0,0-3,1.1-1.8,2.9c1.2,1.9,4.1,1.7,4.7,0.9
					c0.6-0.8,2.1-5.4,2.1-5.4l10.5,0.1l12.7-0.1h2.1c0,0,1.2,5.1,2,5.5c0.8,0.4,3.4,0.2,3.9-0.3c0.5-0.5,1.1-1.7,0.4-2.5
					s-1.5-1.2-1.5-1.2l-0.1-1.4c0,0,7.8-0.3,10.5-1.5c2.6-1.1,5.2-4.8,5.6-6.8c0.4-2,0.4-6-0.1-7.9c-0.6-1.9-2.5-9.2-2.5-9.2
					l-3.2-10.1l-3.8-9.3c0.2-0.8,1.5,1.1,5,3.2c0,0,6.4-6.1,8-11.7c0,0,0,5.2,0.8,7.6c0,0,3.1-3.2,4.7-9.6c0.7-2.9,0.6-5.1,0.7-5.9
					l1.1,7.5c0,0,3.5-7.1,4.3-12.6c0.6-4.1-1.5-11-1.5-11S133.8,74.3,135.7,78.3z"/>
			</defs>
			<clipPath id="SVGID_2_">
				<use xlink:href="#SVGID_176_"  style="overflow:visible;"/>
			</clipPath>
			<g style="clip-path:url(#SVGID_2_);">
				<g>
					<g>
						<path class="st78" d="M66.5,110c-0.1-0.3-0.2-0.4-0.3-0.6c-0.1-0.2-0.2-0.4-0.4-0.5c-0.2-0.3-0.5-0.6-0.8-0.9
							c-0.3-0.3-0.6-0.6-0.9-0.8c-0.2-0.1-0.3-0.2-0.5-0.4c-0.2-0.1-0.3-0.2-0.5-0.3c-0.2-0.1-0.3-0.2-0.5-0.3
							c-0.2-0.1-0.3-0.2-0.5-0.3c-0.3-0.2-0.7-0.4-1-0.5c-0.3-0.2-0.7-0.3-1-0.4l-0.5-0.2l-0.2-0.1c-0.9,1.4-1.9,2.9-3,4
							c0.1,0,0.1,0.1,0.2,0.1l1,0.4l0.5,0.2l0.5,0.2c0.3,0.1,0.6,0.2,1,0.3c0.3,0.1,0.6,0.2,1,0.3c0.2,0,0.3,0.1,0.5,0.1
							c0.2,0,0.3,0.1,0.5,0.1c0.2,0,0.3,0.1,0.5,0.1c0.2,0,0.3,0.1,0.5,0.1c0.3,0.1,0.7,0.1,1,0.2c0.3,0.1,0.7,0.1,1,0.1l0.5,0.1
							l0.3,0l0.1,0l0.1,0c0,0,0,0,0.1,0l0.4,0c0.1,0,0.1,0,0.2-0.1C66.5,110.7,66.6,110.3,66.5,110z"/>
						<path class="st78" d="M68.5,117.7c-0.3,0-0.6,0-0.9,0l-0.9,0c-0.6,0-1.1,0-1.7,0l-3.3,0c-2.2,0-4.3,0-6.4,0
							c-1.1,0-2.1,0.1-3.2,0.1c-0.5,0-1.1,0-1.6,0.1c-0.3,0-0.5,0-0.8,0c-0.3,0-0.5,0-0.8,0.1l-1.6,0.1c-0.5,0.1-1.1,0.1-1.7,0.1
							c-0.3,0-0.6,0-0.9,0.1c-0.3,0-0.6,0.1-0.9,0.1c-0.3,0-0.6,0-0.9,0.1c-0.3,0-0.6,0-0.9,0c0.2-0.2,0.4-0.4,0.6-0.7
							c0.2-0.2,0.4-0.4,0.7-0.6c0.2-0.2,0.5-0.4,0.7-0.6c0.1-0.1,0.2-0.2,0.4-0.3l0.4-0.3c1-0.7,2.1-1.2,3.2-1.7
							c1.1-0.5,2.3-0.8,3.5-1.1c1.2-0.3,2.4-0.4,3.6-0.5c2.4-0.2,4.8,0,7.2,0.5c1.2,0.3,2.3,0.6,3.4,1.1c0.6,0.2,1.1,0.5,1.6,0.8
							c0.3,0.1,0.5,0.3,0.8,0.5c0.3,0.2,0.5,0.3,0.8,0.6c0.3,0.2,0.3,0.7,0.1,1C68.9,117.6,68.7,117.6,68.5,117.7L68.5,117.7z"/>
						<path class="st78" d="M65.9,125.2c-0.5,0.1-1,0.2-1.5,0.3c-0.5,0.1-1,0.2-1.5,0.3c-0.5,0.1-1,0.1-1.5,0.2
							c-0.5,0.1-1,0.1-1.5,0.2c-2,0.2-3.9,0.4-5.8,0.5l-0.7,0l-0.4,0c-0.1,0-0.2,0-0.4,0c-0.5,0-1,0.1-1.5,0.1c-0.5,0-1,0.1-1.5,0.1
							c-0.2,0-0.5,0-0.7,0l-0.7,0c-2,0-4,0.2-6.2,0c0.4-0.4,0.8-0.7,1.2-1.1c0.2-0.2,0.4-0.3,0.7-0.5c0.2-0.1,0.5-0.3,0.7-0.4
							c0.5-0.3,0.9-0.5,1.4-0.8c0.5-0.2,1-0.4,1.5-0.6c0.2-0.1,0.5-0.2,0.7-0.3c0.3-0.1,0.5-0.2,0.8-0.2c0.3-0.1,0.5-0.2,0.8-0.2
							c0.3-0.1,0.5-0.2,0.8-0.2c0.5-0.1,1-0.2,1.6-0.3c0.5-0.1,1-0.2,1.6-0.2c2.1-0.2,4.2-0.3,6.3,0c0.5,0.1,1,0.2,1.6,0.3
							c0.5,0.1,1,0.2,1.5,0.4c0.3,0.1,0.5,0.2,0.8,0.2c0.3,0.1,0.5,0.2,0.8,0.3c0.5,0.2,1,0.4,1.5,0.7c0.3,0.2,0.4,0.6,0.2,0.9
							C66.3,125.1,66.1,125.2,65.9,125.2L65.9,125.2z"/>
						<path class="st78" d="M63.2,134.8c-0.5,0.1-1.1,0.1-1.6,0.1c-0.5,0-1.1,0.1-1.6,0.1c-1.1,0.1-2.1,0.1-3.1,0.2l-3.1,0.2
							l-3.1,0.2c-1,0.1-2,0.1-3.1,0.2l-3.1,0.2c-1,0.1-2.1,0.2-3.2,0.3c-0.5,0-1.1,0.1-1.6,0.1c-0.6,0-1.1,0.1-1.7,0.1
							c0.2-0.2,0.4-0.4,0.6-0.6c0.2-0.2,0.4-0.4,0.7-0.5c0.2-0.2,0.5-0.3,0.7-0.5c0.1-0.1,0.2-0.2,0.4-0.2l0.4-0.2
							c1-0.6,2-1.1,3-1.5c2.1-0.8,4.3-1.3,6.5-1.6c2.2-0.2,4.5-0.2,6.7,0.1c1.1,0.2,2.2,0.4,3.3,0.8c0.5,0.2,1.1,0.4,1.6,0.6
							c0.5,0.2,1,0.5,1.5,0.8c0.3,0.2,0.4,0.5,0.2,0.8C63.6,134.6,63.4,134.7,63.2,134.8L63.2,134.8z"/>
						<path class="st78" d="M60.9,140.7c-0.5,0.2-1,0.3-1.6,0.4c-0.5,0.1-1,0.2-1.6,0.3l-0.8,0.2l-0.8,0.2c-0.3,0.1-0.5,0.1-0.8,0.1
							c-0.3,0-0.5,0.1-0.8,0.1c-0.5,0.1-1,0.2-1.5,0.3c-0.5,0.1-1,0.2-1.5,0.3c-0.5,0.1-1,0.2-1.5,0.3l-0.4,0.1l-0.4,0.1l-0.8,0.1
							l-0.8,0.1c-0.3,0-0.5,0.1-0.8,0.1c-0.5,0.1-1,0.2-1.5,0.2c-0.5,0.1-1,0.2-1.5,0.2c-0.3,0-0.5,0.1-0.8,0.1
							c-0.3,0-0.5,0.1-0.8,0.1c-0.3,0-0.5,0.1-0.8,0.1l-0.4,0l-0.2,0l-0.2,0c-0.5,0.1-1,0.1-1.6,0.2c-0.3,0-0.5,0.1-0.8,0.1
							c-0.3,0-0.5,0.1-0.8,0.1c-0.5,0.1-1.1,0.1-1.7,0.1c0.4-0.4,0.8-0.8,1.3-1.1c0.2-0.2,0.4-0.3,0.7-0.5c0.1-0.1,0.2-0.2,0.3-0.2
							l0.3-0.2c0.5-0.3,0.9-0.6,1.4-0.9c0.5-0.3,1-0.5,1.5-0.7c0.3-0.1,0.5-0.2,0.8-0.3c0.1-0.1,0.3-0.1,0.4-0.2l0.4-0.1
							c0.5-0.2,1-0.4,1.6-0.6c0.5-0.2,1.1-0.3,1.6-0.5c0.3-0.1,0.5-0.1,0.8-0.2l0.8-0.2c0.5-0.1,1.1-0.2,1.6-0.3
							c0.5-0.1,1.1-0.1,1.6-0.2c0.5,0,1.1-0.1,1.6-0.1c0.5,0,1.1,0,1.6,0c0.5,0,1.1,0.1,1.6,0.1c0.5,0,1.1,0.1,1.6,0.2
							c0.5,0.1,1.1,0.2,1.6,0.3c0.3,0.1,0.5,0.1,0.8,0.2c0.3,0.1,0.5,0.2,0.8,0.3c0.3,0.1,0.4,0.5,0.3,0.8
							C61.2,140.5,61.1,140.7,60.9,140.7L60.9,140.7z"/>
						<path class="st78" d="M58.2,145c-0.2,0.2-0.5,0.4-0.7,0.5c-0.2,0.2-0.5,0.3-0.7,0.4c-0.3,0.1-0.5,0.3-0.8,0.4
							c-0.3,0.1-0.5,0.2-0.8,0.3c-1.1,0.4-2.1,0.7-3.3,1c-0.6,0.1-1.1,0.2-1.7,0.3c-0.3,0-0.6,0-0.9,0.1c-0.1,0-0.3,0-0.4,0l-0.4,0
							c-0.3,0-0.6,0-0.9,0c-0.3,0-0.6-0.1-0.9-0.1c-0.1,0-0.3,0-0.4-0.1c-0.1,0-0.3-0.1-0.4-0.1c-0.3-0.1-0.6-0.1-0.9-0.2
							c1.1-0.5,2.1-0.8,3.2-1.2c1.1-0.3,2.1-0.6,3.2-0.9c1.1-0.3,2.1-0.5,3.2-0.7c1.1-0.2,2.2-0.4,3.3-0.4l0,0
							c0.2,0,0.3,0.1,0.3,0.3C58.4,144.9,58.3,145,58.2,145z"/>
						<path class="st78" d="M52.6,128.7c0.5-0.3,1.1-0.4,1.7-0.6l0.4-0.1c0.1,0,0.3-0.1,0.4-0.1c0.3-0.1,0.6-0.1,0.9-0.1
							c1.1-0.2,2.3-0.2,3.5-0.2c1.2,0.1,2.3,0.2,3.5,0.6c0.1,0,0.3,0.1,0.4,0.1c0.1,0,0.3,0.1,0.4,0.1c0.1,0.1,0.3,0.1,0.4,0.2
							l0.4,0.2c0.1,0.1,0.3,0.1,0.4,0.2l0.2,0.1c0.1,0,0.1,0.1,0.2,0.1c0.3,0.2,0.5,0.3,0.7,0.5c0.1,0.1,0.1,0.2,0,0.3
							c0,0.1-0.1,0.1-0.2,0.1l0,0c-1.2-0.1-2.2-0.1-3.3-0.2l-3.3-0.1c-1.1,0-2.2-0.1-3.3-0.2c-1.1-0.1-2.2-0.2-3.4-0.4l0,0
							c-0.2,0-0.3-0.2-0.3-0.4C52.5,128.8,52.5,128.7,52.6,128.7z"/>
						<path class="st78" d="M59.9,119.5c0.4-0.2,0.8-0.3,1.3-0.4c0.4-0.1,0.8-0.2,1.3-0.2c0.8-0.1,1.7-0.1,2.5-0.1
							c0.4,0,0.8,0.1,1.3,0.1c0.4,0.1,0.8,0.1,1.3,0.3c0.4,0.1,0.8,0.3,1.2,0.4c0.2,0.1,0.4,0.2,0.6,0.3c0.2,0.1,0.4,0.2,0.6,0.4
							c0.1,0.1,0.1,0.2,0,0.3c0,0-0.1,0.1-0.1,0.1l0,0c-0.9,0.2-1.7,0.2-2.5,0.3c-0.8,0-1.6,0.1-2.4,0c-0.8,0-1.6-0.1-2.5-0.2
							c-0.8-0.1-1.6-0.3-2.5-0.6c-0.2-0.1-0.2-0.3-0.2-0.4C59.7,119.6,59.8,119.6,59.9,119.5z"/>
						<path class="st78" d="M68.1,122.7c0.3-0.1,0.6-0.2,1-0.2c0.3,0,0.6,0,0.9,0c0.3,0,0.6,0.1,0.9,0.2c0.3,0.1,0.6,0.3,0.8,0.5
							c0,0,0,0.1,0,0.1c0,0,0,0-0.1,0l0,0c-0.3,0.1-0.6,0.1-0.9,0.1c-0.3,0-0.6,0-0.9,0c-0.3,0-0.6-0.1-0.9-0.2
							c-0.3-0.1-0.6-0.2-0.9-0.4l0,0C68,122.9,68,122.8,68.1,122.7C68,122.7,68.1,122.7,68.1,122.7z"/>
						<path class="st78" d="M65.3,112.5c0.7-0.3,1.4-0.3,2.2-0.3c0.7,0,1.4,0.1,2.1,0.3c0.7,0.2,1.3,0.5,2,0.9
							c0.6,0.4,1.2,0.8,1.6,1.4c0.1,0.1,0,0.2,0,0.2c0,0-0.1,0-0.1,0l0,0c-0.4,0-0.7-0.1-1-0.2c-0.3-0.1-0.7-0.1-1-0.2
							c-0.6-0.2-1.3-0.3-1.9-0.5c-0.6-0.2-1.2-0.4-1.9-0.6c-0.6-0.2-1.3-0.4-1.9-0.7l0,0c-0.1-0.1-0.2-0.2-0.1-0.3
							C65.2,112.5,65.3,112.5,65.3,112.5z"/>
						<path class="st78" d="M70.7,116.4c0.1-0.1,0.3-0.1,0.4-0.1c0.1,0,0.3-0.1,0.4-0.1c0.3,0,0.5,0,0.7,0c0.5,0,0.9,0.2,1.4,0.4
							c0.4,0.2,0.8,0.4,1.2,0.8c0.2,0.2,0.3,0.3,0.5,0.5c0.1,0.2,0.3,0.4,0.4,0.6c0,0.1,0,0.2-0.1,0.3c0,0,0,0-0.1,0l0,0
							c-0.3,0-0.5,0-0.7,0c-0.2,0-0.5-0.1-0.7-0.1c-0.4-0.1-0.8-0.2-1.2-0.4c-0.4-0.2-0.7-0.3-1.1-0.5c-0.2-0.1-0.4-0.2-0.5-0.3
							c-0.2-0.1-0.4-0.3-0.5-0.4l-0.1-0.1C70.5,116.7,70.5,116.6,70.7,116.4C70.6,116.4,70.7,116.4,70.7,116.4z"/>
					</g>
					<g>
						<path class="st78" d="M109.8,107.3c-0.4-0.6-0.8-1.3-0.9-2c-0.3,0.1-0.7,0.3-1,0.5c-0.2,0.1-0.3,0.2-0.5,0.3
							c-0.2,0.1-0.3,0.2-0.5,0.3c-0.2,0.1-0.3,0.2-0.5,0.3c-0.2,0.1-0.3,0.2-0.5,0.4c-0.3,0.2-0.6,0.5-0.9,0.8
							c-0.3,0.3-0.5,0.6-0.8,0.9c-0.1,0.2-0.2,0.3-0.4,0.5c-0.1,0.2-0.2,0.4-0.3,0.6c0,0.1,0,0.1-0.1,0.2c0,0.4,0.2,0.7,0.6,0.7
							l0.4,0c0,0,0,0,0.1,0l0.1,0l0.1,0l0.3,0l0.5-0.1c0.4,0,0.7-0.1,1-0.1c0.3,0,0.7-0.1,1-0.2c0.2,0,0.3-0.1,0.5-0.1
							c0.2,0,0.3-0.1,0.5-0.1c0.2,0,0.3-0.1,0.5-0.1c0.2,0,0.3-0.1,0.5-0.1c0.3-0.1,0.6-0.2,1-0.3c0,0,0,0,0.1,0
							C110.2,109.1,109.9,108.2,109.8,107.3C109.8,107.3,109.8,107.3,109.8,107.3z"/>
						<path class="st78" d="M101.2,116.4c0.3-0.2,0.5-0.4,0.8-0.6c0.3-0.2,0.5-0.3,0.8-0.5c0.5-0.3,1.1-0.6,1.6-0.8
							c1.1-0.5,2.3-0.8,3.4-1.1c2.3-0.6,4.8-0.7,7.2-0.5c1.2,0.1,2.4,0.3,3.6,0.5c1.2,0.3,2.3,0.6,3.5,1.1c1.1,0.5,2.2,1,3.2,1.7
							l0.4,0.3c0.1,0.1,0.2,0.2,0.4,0.3c0.2,0.2,0.5,0.4,0.7,0.6c0.2,0.2,0.5,0.4,0.7,0.6c0.2,0.2,0.4,0.4,0.6,0.7
							c-0.3,0-0.6,0-0.9,0c-0.3,0-0.6-0.1-0.9-0.1c-0.3,0-0.6,0-0.9-0.1c-0.3,0-0.6,0-0.9-0.1c-0.6-0.1-1.1-0.1-1.7-0.1l-1.6-0.1
							c-0.3,0-0.5,0-0.8-0.1c-0.3,0-0.5,0-0.8,0c-0.5,0-1.1-0.1-1.6-0.1c-1.1,0-2.1-0.1-3.2-0.1c-2.1,0-4.2-0.1-6.4,0l-3.3,0
							c-0.6,0-1.1,0-1.7,0l-0.9,0c-0.3,0-0.6,0-0.9,0l-0.1,0c-0.4,0-0.7-0.4-0.6-0.8C100.9,116.7,101,116.5,101.2,116.4z"/>
						<path class="st78" d="M103.9,124c0.5-0.3,1-0.5,1.5-0.7c0.2-0.1,0.5-0.2,0.8-0.3c0.3-0.1,0.5-0.2,0.8-0.2
							c0.5-0.1,1-0.3,1.5-0.4c0.5-0.1,1-0.2,1.6-0.3c2.1-0.3,4.2-0.3,6.3,0c0.5,0.1,1,0.1,1.6,0.2c0.5,0.1,1,0.2,1.6,0.3
							c0.3,0.1,0.5,0.1,0.8,0.2c0.3,0.1,0.5,0.2,0.8,0.2c0.3,0.1,0.5,0.2,0.8,0.2c0.2,0.1,0.5,0.2,0.7,0.3c0.5,0.2,1,0.4,1.5,0.6
							c0.5,0.2,0.9,0.5,1.4,0.8c0.2,0.1,0.5,0.3,0.7,0.4c0.2,0.2,0.4,0.3,0.7,0.5c0.4,0.3,0.8,0.7,1.2,1.1c-2.2,0.1-4.2,0-6.2,0
							l-0.7,0c-0.2,0-0.5,0-0.7,0c-0.5,0-1-0.1-1.5-0.1c-0.5,0-1,0-1.5-0.1c-0.1,0-0.2,0-0.4,0l-0.4,0l-0.7,0
							c-1.9-0.1-3.9-0.3-5.8-0.5c-0.5,0-1-0.1-1.5-0.2c-0.5-0.1-1-0.1-1.5-0.2c-0.5-0.1-1-0.2-1.5-0.3c-0.5-0.1-1-0.2-1.5-0.3l0,0
							c-0.4-0.1-0.6-0.5-0.5-0.8C103.7,124.2,103.8,124.1,103.9,124z"/>
						<path class="st78" d="M106.6,133.7c0.5-0.3,1-0.6,1.5-0.8c0.5-0.2,1.1-0.4,1.6-0.6c1.1-0.3,2.2-0.6,3.3-0.8
							c2.2-0.3,4.5-0.4,6.7-0.1c2.2,0.2,4.4,0.8,6.5,1.6c1,0.4,2.1,0.9,3,1.5l0.4,0.2c0.1,0.1,0.2,0.1,0.4,0.2
							c0.2,0.2,0.5,0.3,0.7,0.5c0.2,0.2,0.5,0.3,0.7,0.5c0.2,0.2,0.4,0.4,0.6,0.6c-0.6,0-1.1,0-1.7-0.1c-0.6,0-1.1-0.1-1.6-0.1
							c-1.1-0.1-2.1-0.2-3.2-0.3l-3.1-0.2c-1-0.1-2-0.2-3.1-0.2l-3.1-0.2l-3.1-0.2c-1,0-2.1-0.1-3.1-0.2c-0.5,0-1.1-0.1-1.6-0.1
							c-0.5,0-1.1-0.1-1.6-0.1l0,0c-0.3,0-0.6-0.3-0.5-0.7C106.3,133.9,106.4,133.8,106.6,133.7z"/>
						<path class="st78" d="M109.1,139.6c0.3-0.1,0.5-0.2,0.8-0.3c0.3-0.1,0.5-0.2,0.8-0.2c0.5-0.1,1.1-0.2,1.6-0.3
							c0.5-0.1,1.1-0.2,1.6-0.2c0.5,0,1.1-0.1,1.6-0.1c0.5,0,1.1,0,1.6,0c0.5,0,1.1,0.1,1.6,0.1c0.5,0.1,1.1,0.1,1.6,0.2
							c0.5,0.1,1.1,0.2,1.6,0.3l0.8,0.2c0.3,0.1,0.5,0.1,0.8,0.2c0.5,0.1,1.1,0.3,1.6,0.5c0.5,0.2,1,0.4,1.6,0.6l0.4,0.1
							c0.1,0,0.3,0.1,0.4,0.2c0.3,0.1,0.5,0.2,0.8,0.3c0.5,0.2,1,0.5,1.5,0.7c0.5,0.3,1,0.6,1.4,0.9l0.3,0.2
							c0.1,0.1,0.2,0.1,0.3,0.2c0.2,0.2,0.4,0.3,0.7,0.5c0.4,0.3,0.9,0.7,1.3,1.1c-0.6,0-1.1-0.1-1.7-0.1c-0.3,0-0.5-0.1-0.8-0.1
							c-0.3,0-0.5-0.1-0.8-0.1c-0.5-0.1-1.1-0.1-1.6-0.2l-0.2,0l-0.2,0l-0.4,0c-0.3,0-0.5-0.1-0.8-0.1c-0.3,0-0.5-0.1-0.8-0.1
							c-0.3,0-0.5-0.1-0.8-0.1c-0.5-0.1-1-0.1-1.5-0.2c-0.5-0.1-1-0.1-1.5-0.2c-0.3,0-0.5-0.1-0.8-0.1l-0.8-0.1l-0.8-0.1l-0.4-0.1
							l-0.4-0.1c-0.5-0.1-1-0.2-1.5-0.3c-0.5-0.1-1-0.2-1.5-0.3c-0.5-0.1-1-0.2-1.5-0.3c-0.3-0.1-0.5-0.1-0.8-0.1
							c-0.3,0-0.5-0.1-0.8-0.1l-0.8-0.2l-0.8-0.2c-0.5-0.1-1-0.2-1.6-0.3c-0.5-0.1-1-0.3-1.6-0.4l0,0c-0.3-0.1-0.5-0.4-0.4-0.7
							C108.8,139.8,108.9,139.7,109.1,139.6z"/>
						<path class="st78" d="M112,144.5c1.2,0,2.2,0.2,3.3,0.4c1.1,0.2,2.1,0.4,3.2,0.7c1.1,0.3,2.1,0.5,3.2,0.9
							c1.1,0.3,2.1,0.7,3.2,1.2c-0.3,0.1-0.6,0.2-0.9,0.2c-0.1,0-0.3,0.1-0.4,0.1c-0.1,0-0.3,0-0.4,0.1c-0.3,0-0.6,0.1-0.9,0.1
							c-0.3,0-0.6,0-0.9,0l-0.4,0c-0.1,0-0.3,0-0.4,0c-0.3,0-0.6,0-0.9-0.1c-0.6-0.1-1.1-0.1-1.7-0.3c-1.1-0.2-2.2-0.5-3.3-1
							c-0.3-0.1-0.5-0.2-0.8-0.3c-0.3-0.1-0.5-0.3-0.8-0.4c-0.3-0.1-0.5-0.3-0.7-0.4c-0.2-0.2-0.5-0.3-0.7-0.5
							c-0.1-0.1-0.2-0.3,0-0.4C111.9,144.5,111.9,144.5,112,144.5L112,144.5z"/>
						<path class="st78" d="M117.4,129.3c-1.1,0.2-2.3,0.3-3.4,0.4c-1.1,0.1-2.2,0.1-3.3,0.2l-3.3,0.1c-1.1,0-2.2,0.1-3.3,0.2l0,0
							c-0.1,0-0.2-0.1-0.2-0.2c0-0.1,0-0.1,0.1-0.2c0.2-0.2,0.5-0.4,0.7-0.5c0.1,0,0.1-0.1,0.2-0.1l0.2-0.1c0.1-0.1,0.3-0.1,0.4-0.2
							l0.4-0.2c0.1-0.1,0.3-0.1,0.4-0.2c0.1-0.1,0.3-0.1,0.4-0.1c0.1,0,0.3-0.1,0.4-0.1c1.1-0.3,2.3-0.5,3.5-0.6
							c1.2-0.1,2.3,0,3.5,0.2c0.3,0,0.6,0.1,0.9,0.1c0.1,0,0.3,0.1,0.4,0.1l0.4,0.1c0.6,0.1,1.1,0.3,1.7,0.6
							c0.2,0.1,0.2,0.3,0.2,0.4C117.5,129.2,117.5,129.2,117.4,129.3L117.4,129.3z"/>
						<path class="st78" d="M110.2,120.1c-0.8,0.3-1.7,0.5-2.5,0.6c-0.8,0.1-1.6,0.2-2.5,0.2c-0.8,0-1.6,0-2.4,0
							c-0.8-0.1-1.6-0.1-2.5-0.3l0,0c-0.1,0-0.2-0.1-0.2-0.3c0-0.1,0-0.1,0.1-0.1c0.2-0.1,0.4-0.3,0.6-0.4c0.2-0.1,0.4-0.2,0.6-0.3
							c0.4-0.2,0.8-0.3,1.2-0.4c0.4-0.1,0.8-0.2,1.3-0.3c0.4-0.1,0.8-0.1,1.3-0.1c0.8,0,1.7,0,2.5,0.1c0.4,0.1,0.8,0.1,1.3,0.2
							c0.4,0.1,0.8,0.2,1.3,0.4c0.2,0.1,0.2,0.3,0.2,0.4C110.3,120.1,110.3,120.1,110.2,120.1z"/>
						<path class="st78" d="M102,123c-0.3,0.2-0.6,0.3-0.9,0.4c-0.3,0.1-0.6,0.1-0.9,0.2c-0.3,0-0.6,0.1-0.9,0c-0.3,0-0.6,0-0.9-0.1
							l0,0c-0.1,0-0.1-0.1-0.1-0.1c0,0,0,0,0-0.1c0.2-0.3,0.5-0.4,0.8-0.5c0.3-0.1,0.6-0.2,0.9-0.2c0.3,0,0.6-0.1,0.9,0
							c0.3,0,0.6,0.1,1,0.2C102.1,122.7,102.1,122.8,102,123C102,122.9,102,123,102,123L102,123z"/>
						<path class="st78" d="M104.7,113c-0.6,0.3-1.3,0.5-1.9,0.7c-0.6,0.2-1.2,0.4-1.9,0.6c-0.6,0.2-1.3,0.3-1.9,0.5
							c-0.3,0.1-0.6,0.2-1,0.2c-0.3,0.1-0.7,0.1-1,0.2l0,0c-0.1,0-0.2-0.1-0.2-0.2c0,0,0-0.1,0-0.1c0.5-0.6,1-1,1.6-1.4
							c0.6-0.4,1.3-0.7,2-0.9c0.7-0.2,1.4-0.3,2.1-0.3c0.7,0,1.4,0,2.2,0.3c0.1,0.1,0.2,0.2,0.1,0.3
							C104.9,112.9,104.8,112.9,104.7,113L104.7,113z"/>
						<path class="st78" d="M99.4,116.9c-0.2,0.2-0.4,0.3-0.5,0.4c-0.2,0.1-0.4,0.2-0.5,0.3c-0.4,0.2-0.7,0.4-1.1,0.5
							c-0.4,0.2-0.8,0.3-1.2,0.4c-0.2,0.1-0.4,0.1-0.7,0.1c-0.2,0-0.5,0.1-0.7,0l0,0c-0.1,0-0.2-0.1-0.2-0.2c0,0,0,0,0-0.1
							c0.1-0.2,0.3-0.4,0.4-0.6c0.2-0.2,0.3-0.4,0.5-0.5c0.4-0.3,0.7-0.6,1.2-0.8c0.4-0.2,0.9-0.3,1.4-0.4c0.2,0,0.5,0,0.7,0
							c0.1,0,0.3,0,0.4,0.1c0.1,0,0.2,0.1,0.4,0.1c0.1,0.1,0.2,0.2,0.1,0.3C99.5,116.8,99.5,116.8,99.4,116.9L99.4,116.9z"/>
					</g>
				</g>
				<g>
					<path class="st78" d="M42.1,56.6c-0.5,0.9-1,1.8-1.4,2.7c-0.4,0.9-0.9,1.7-1.3,2.6c-0.4,0.8-0.8,1.7-1.2,2.5
						c-0.4,0.8-0.7,1.7-1.1,2.5c-0.4,0.8-0.7,1.7-1.1,2.6L35,72c-0.4,0.9-0.7,1.8-1.1,2.6c-0.1,0.2-0.2,0.4-0.3,0.7
						c-0.1,0.2-0.2,0.4-0.3,0.7c-0.2,0.5-0.4,0.9-0.7,1.4l0,0c-0.2,0.3-0.5,0.4-0.8,0.2c-0.2-0.1-0.3-0.2-0.3-0.4
						c-0.1-0.5-0.2-1-0.2-1.5c0-0.5-0.1-1-0.1-1.5c0-0.5,0-1,0.1-1.5c0-0.3,0-0.5,0.1-0.8c0-0.3,0.1-0.5,0.1-0.8c0.2-1,0.4-2,0.7-3
						c0.3-1,0.7-2,1.2-2.9c0.5-0.9,1-1.8,1.6-2.7c0.6-0.9,1.2-1.7,2-2.4c0.7-0.8,1.5-1.4,2.4-2c0.4-0.3,0.9-0.6,1.4-0.8
						C41.1,57,41.6,56.7,42.1,56.6z"/>
					<path class="st78" d="M41.1,72.2c-0.1,1-0.2,2-0.4,2.9c-0.1,0.9-0.3,1.9-0.4,2.8c-0.3,1.8-0.6,3.6-0.8,5.3
						c-0.2,1.8-0.5,3.5-0.6,5.3l0,0.3l0,0.3l-0.1,0.7c0,0.2,0,0.4-0.1,0.7c0,0.1,0,0.2,0,0.3c0,0.1,0,0.2,0,0.3
						C38.5,92,38.4,93,38.3,94l0,0c-0.1,0.3-0.4,0.6-0.7,0.5c-0.2,0-0.3-0.1-0.4-0.3c-0.1-0.2-0.3-0.4-0.4-0.7l-0.2-0.3
						c-0.1-0.1-0.1-0.2-0.2-0.3c-0.1-0.2-0.2-0.5-0.3-0.7C36,92,36,91.7,35.9,91.5c-0.2-0.5-0.3-1-0.4-1.5c-0.1-0.2-0.1-0.5-0.1-0.7
						l-0.1-0.4c0-0.1,0-0.3,0-0.4c-0.3-2-0.2-4,0.2-6c0.4-2,1-3.9,2-5.6c0.5-0.9,1-1.7,1.6-2.5c0.3-0.4,0.6-0.8,1-1.1
						C40.3,72.8,40.6,72.5,41.1,72.2z"/>
					<path class="st78" d="M42.1,86.4c0.2,0.4,0.4,0.7,0.5,1.1c0.2,0.4,0.3,0.7,0.4,1c0.3,0.7,0.5,1.4,0.7,2.1
						c0.4,1.4,0.6,2.8,0.8,4.1c0.2,1.4,0.3,2.7,0.3,4.1c0,0.7,0,1.4-0.1,2.1c0,0.4-0.1,0.7-0.1,1.1c0,0.4-0.1,0.7-0.2,1.1l0,0
						c-0.1,0.3-0.4,0.5-0.8,0.5c-0.1,0-0.2-0.1-0.3-0.2c-0.3-0.3-0.5-0.6-0.7-0.9c-0.2-0.3-0.4-0.7-0.6-1c-0.4-0.7-0.6-1.4-0.8-2.1
						c-0.4-1.4-0.7-2.9-0.8-4.3c-0.1-1.5,0-2.9,0.2-4.4c0.1-0.7,0.3-1.5,0.5-2.2c0.1-0.4,0.2-0.7,0.4-1.1
						C41.8,87.1,41.9,86.8,42.1,86.4z"/>
					<path class="st78" d="M42.3,64.8c-0.2,0.7-0.5,1.4-0.8,2c-0.3,0.6-0.6,1.2-0.9,1.8c-0.2,0.3-0.3,0.6-0.5,0.9
						c-0.2,0.3-0.3,0.6-0.5,0.9c-0.4,0.6-0.7,1.1-1.2,1.7l0,0c-0.1,0.1-0.3,0.1-0.4,0c0,0-0.1-0.1-0.1-0.2c0-0.2-0.1-0.4-0.1-0.6
						c0-0.1,0-0.2,0-0.3c0-0.1,0-0.2,0-0.3c0-0.2,0-0.4,0.1-0.6c0-0.2,0.1-0.4,0.1-0.5c0.1-0.4,0.2-0.7,0.3-1.1
						c0.1-0.3,0.3-0.7,0.5-1c0.4-0.6,0.8-1.2,1.3-1.8c0.5-0.5,1.1-1,1.8-1.3c0.1-0.1,0.3,0,0.3,0.1C42.3,64.6,42.3,64.7,42.3,64.8
						L42.3,64.8z"/>
					<path class="st78" d="M42.8,80.6c0,0.5,0,0.9-0.1,1.3c-0.1,0.4-0.1,0.8-0.2,1.2c-0.1,0.4-0.2,0.8-0.3,1.2
						c-0.1,0.2-0.1,0.4-0.2,0.6c-0.1,0.2-0.2,0.4-0.3,0.6l0,0c-0.1,0.1-0.2,0.1-0.3,0.1c0,0-0.1,0-0.1-0.1c-0.1-0.2-0.2-0.4-0.2-0.7
						c0-0.2-0.1-0.5-0.1-0.7c0-0.5,0-0.9,0.1-1.4c0.1-0.4,0.3-0.9,0.5-1.3c0.1-0.2,0.3-0.4,0.4-0.6c0.2-0.2,0.3-0.3,0.6-0.5
						c0.1,0,0.2,0,0.2,0.1C42.8,80.5,42.8,80.5,42.8,80.6L42.8,80.6z"/>
					<path class="st78" d="M46.1,45.2c-0.2,0.3-0.5,0.6-0.7,0.9l-0.3,0.4c-0.1,0.1-0.2,0.3-0.3,0.4l-0.7,0.9l-0.7,0.8
						c-0.9,1.1-1.8,2.2-2.7,3.2L40,52.7l-0.3,0.4l-0.3,0.4c-0.2,0.3-0.5,0.5-0.7,0.8c-0.2,0.3-0.5,0.5-0.7,0.8c-0.5,0.5-1,1-1.5,1.5
						c-0.5,0.5-1,1-1.6,1.5l0,0c-0.2,0.1-0.5,0.1-0.6-0.1c-0.1-0.1-0.1-0.2-0.1-0.4c0.1-0.4,0.2-0.8,0.3-1.1
						c0.1-0.4,0.2-0.7,0.4-1.1c0.1-0.3,0.3-0.7,0.5-1c0.1-0.2,0.2-0.3,0.3-0.5c0.1-0.2,0.2-0.3,0.3-0.5c0.2-0.3,0.4-0.6,0.6-1
						c0.2-0.3,0.4-0.6,0.7-0.9c0.1-0.2,0.2-0.3,0.3-0.5l0.4-0.4c0.2-0.3,0.5-0.6,0.8-0.8c1-1.1,2.2-2.1,3.5-2.9
						c0.2-0.1,0.3-0.2,0.5-0.3c0.2-0.1,0.3-0.2,0.5-0.3c0.3-0.2,0.7-0.3,1-0.5c0.4-0.1,0.7-0.3,1.1-0.4
						C45.4,45.3,45.7,45.2,46.1,45.2z"/>
					<path class="st78" d="M44.3,53.1c-0.3,0.4-0.6,0.7-0.9,1c-0.3,0.3-0.6,0.6-1,0.8c-0.3,0.3-0.7,0.5-1,0.7
						c-0.4,0.2-0.7,0.4-1.1,0.6l0,0c-0.1,0-0.2,0-0.3-0.1c0,0,0-0.1,0-0.1c0.1-0.5,0.3-1,0.6-1.3c0.3-0.4,0.6-0.7,1-1
						c0.4-0.3,0.8-0.5,1.2-0.7c0.4-0.2,0.9-0.3,1.4-0.3c0.1,0,0.2,0.1,0.2,0.2C44.3,53.1,44.3,53.1,44.3,53.1L44.3,53.1z"/>
					<path class="st78" d="M48.1,41.3c-0.3,0.5-0.6,0.8-0.9,1.1c-0.3,0.3-0.7,0.6-1.1,0.9c-0.4,0.3-0.8,0.5-1.2,0.7
						c-0.4,0.2-0.8,0.4-1.3,0.6l0,0c-0.1,0-0.2,0-0.2-0.1c0,0,0-0.1,0-0.1c0.2-0.5,0.5-0.9,0.8-1.3c0.3-0.4,0.7-0.7,1.1-1
						c0.4-0.3,0.8-0.5,1.3-0.7c0.5-0.2,0.9-0.4,1.5-0.4c0.1,0,0.2,0.1,0.2,0.2C48.1,41.3,48.1,41.3,48.1,41.3L48.1,41.3z"/>
				</g>
				<g>
					<path class="st78" d="M125.2,56.6c0.5,0.1,1,0.3,1.5,0.6c0.5,0.2,0.9,0.5,1.4,0.8c0.9,0.6,1.7,1.3,2.5,2
						c1.5,1.5,2.7,3.3,3.7,5.1c0.9,1.9,1.6,3.9,2,6c0,0.3,0.1,0.5,0.1,0.8c0,0.3,0.1,0.5,0.1,0.8c0.1,0.5,0.1,1,0.1,1.6
						c0,0.5,0,1-0.1,1.6c0,0.5-0.1,1-0.2,1.6c-0.1,0.3-0.4,0.5-0.7,0.5c-0.2,0-0.3-0.1-0.4-0.3l0,0c-0.3-0.5-0.5-0.9-0.7-1.4
						c-0.1-0.2-0.2-0.5-0.3-0.7c-0.1-0.2-0.2-0.5-0.3-0.7l-0.6-1.3l-0.6-1.3l-1.1-2.6c-0.4-0.9-0.7-1.7-1.1-2.6
						c-0.8-1.7-1.6-3.4-2.4-5.1c-0.4-0.8-0.9-1.7-1.4-2.6C126.2,58.4,125.7,57.5,125.2,56.6z"/>
					<path class="st78" d="M126.3,72.2c0.4,0.3,0.8,0.7,1.1,1.1c0.3,0.4,0.7,0.8,1,1.2c0.6,0.8,1.1,1.7,1.6,2.7
						c0.5,0.9,0.9,1.9,1.2,2.9c0.3,1,0.6,2,0.8,3c0.2,1,0.3,2.1,0.4,3.1l0,0.4l0,0.4c0,0.3,0,0.5,0,0.8c0,0.5-0.1,1-0.1,1.6
						c-0.1,0.5-0.2,1-0.3,1.6c-0.1,0.3-0.1,0.5-0.2,0.8c-0.1,0.3-0.1,0.5-0.2,0.8c-0.1,0.3-0.2,0.5-0.3,0.7
						c-0.1,0.2-0.2,0.5-0.3,0.7c-0.1,0.1-0.1,0.2-0.2,0.4l-0.2,0.4c-0.1,0.2-0.3,0.5-0.4,0.7c-0.2,0.3-0.6,0.3-0.8,0.2
						c-0.1-0.1-0.2-0.2-0.3-0.4l0,0c-0.1-1-0.2-2-0.3-2.9c0-0.2,0-0.5-0.1-0.7l-0.1-0.7c-0.1-0.5-0.1-0.9-0.1-1.4
						c0-0.5-0.1-0.9-0.1-1.4c-0.1-0.5-0.1-0.9-0.2-1.4c-0.1-0.9-0.2-1.8-0.4-2.8c-0.2-1.8-0.5-3.7-0.8-5.6c-0.1-1-0.3-1.9-0.4-2.9
						C126.5,74.2,126.3,73.2,126.3,72.2z"/>
					<path class="st78" d="M125.2,86.4c0.2,0.4,0.4,0.7,0.5,1.1c0.1,0.4,0.3,0.7,0.4,1.1c0.2,0.7,0.4,1.5,0.5,2.2
						c0.2,1.5,0.2,2.9,0.1,4.4c-0.1,1.5-0.4,2.9-0.8,4.3c-0.2,0.7-0.5,1.4-0.9,2.1c-0.2,0.3-0.4,0.7-0.6,1c-0.2,0.3-0.4,0.6-0.7,1
						c-0.2,0.3-0.6,0.3-0.9,0.1c-0.1-0.1-0.2-0.2-0.2-0.3l0,0c-0.1-0.4-0.2-0.8-0.2-1.1c0-0.4-0.1-0.7-0.1-1.1
						c0-0.7-0.1-1.4-0.1-2.1c0-1.4,0.1-2.8,0.3-4.2c0.2-1.4,0.5-2.8,0.9-4.2c0.2-0.7,0.4-1.4,0.7-2.1c0.1-0.3,0.3-0.7,0.5-1
						C124.8,87.1,125,86.8,125.2,86.4z"/>
					<path class="st78" d="M125.4,64.5c0.7,0.3,1.3,0.8,1.8,1.3c0.5,0.5,1,1.1,1.3,1.8c0.2,0.3,0.3,0.7,0.5,1
						c0.1,0.4,0.2,0.7,0.3,1.1c0,0.2,0.1,0.4,0.1,0.5c0,0.2,0,0.4,0.1,0.6c0,0.1,0,0.2,0,0.3c0,0.1,0,0.2,0,0.3c0,0.2,0,0.4-0.1,0.6
						c0,0.1-0.2,0.2-0.3,0.2c-0.1,0-0.1,0-0.2-0.1l0,0c-0.5-0.6-0.8-1.2-1.2-1.7c-0.2-0.3-0.4-0.6-0.5-0.9c-0.2-0.3-0.3-0.6-0.5-0.9
						c-0.3-0.6-0.6-1.2-0.9-1.8c-0.3-0.6-0.6-1.3-0.8-2l0,0c0-0.1,0-0.3,0.2-0.3C125.3,64.4,125.3,64.4,125.4,64.5z"/>
					<path class="st78" d="M124.8,80.4c0.2,0.1,0.4,0.3,0.6,0.5c0.2,0.2,0.3,0.4,0.4,0.6c0.2,0.4,0.4,0.8,0.5,1.3
						c0.1,0.4,0.1,0.9,0.1,1.4c0,0.2,0,0.5-0.1,0.7c-0.1,0.2-0.1,0.5-0.2,0.7c0,0.1-0.2,0.1-0.3,0.1c0,0-0.1,0-0.1-0.1l0,0
						c-0.1-0.2-0.2-0.4-0.3-0.6c-0.1-0.2-0.2-0.4-0.2-0.6c-0.1-0.4-0.2-0.8-0.3-1.2c-0.1-0.4-0.2-0.8-0.2-1.2
						c-0.1-0.4-0.1-0.8-0.1-1.3l0,0C124.5,80.5,124.6,80.4,124.8,80.4C124.7,80.4,124.8,80.4,124.8,80.4z"/>
					<path class="st78" d="M121.2,45.2c0.4,0,0.8,0.1,1.2,0.2c0.2,0.1,0.4,0.1,0.6,0.2c0.2,0.1,0.4,0.1,0.6,0.2
						c0.2,0.1,0.4,0.2,0.6,0.2c0.2,0.1,0.4,0.2,0.5,0.3c0.2,0.1,0.4,0.2,0.5,0.3c0.2,0.1,0.3,0.2,0.5,0.3c1.4,0.9,2.6,1.9,3.7,3.1
						c0.3,0.3,0.5,0.6,0.8,0.9c0.1,0.2,0.3,0.3,0.4,0.5c0.1,0.2,0.2,0.3,0.4,0.5c0.2,0.3,0.5,0.7,0.7,1c0.2,0.3,0.4,0.7,0.6,1.1
						c0.1,0.2,0.2,0.4,0.3,0.5c0.1,0.2,0.2,0.4,0.2,0.6c0.2,0.4,0.3,0.7,0.5,1.1c0.1,0.4,0.2,0.8,0.4,1.2c0.1,0.4,0.2,0.8,0.3,1.2
						c0,0.2-0.1,0.5-0.4,0.5c-0.1,0-0.3,0-0.4-0.1l0,0c-0.6-0.5-1.1-1.1-1.6-1.7c-0.3-0.3-0.5-0.6-0.8-0.9l-0.4-0.4
						c-0.1-0.1-0.3-0.3-0.4-0.4c-0.2-0.3-0.5-0.6-0.7-0.9c-0.2-0.3-0.5-0.6-0.7-0.8c-0.1-0.1-0.2-0.3-0.3-0.4l-0.4-0.4l-0.4-0.4
						c-0.1-0.1-0.2-0.3-0.3-0.4l-2.9-3.4L121.2,45.2z"/>
					<path class="st78" d="M123.2,52.9c0.5,0,1,0.1,1.4,0.3c0.4,0.2,0.8,0.4,1.2,0.7c0.4,0.3,0.7,0.6,1,1c0.3,0.4,0.5,0.8,0.6,1.3
						c0,0.1-0.1,0.2-0.2,0.2c0,0-0.1,0-0.1,0l0,0c-0.4-0.2-0.8-0.4-1.1-0.6c-0.3-0.2-0.7-0.4-1-0.7c-0.3-0.3-0.7-0.5-1-0.8
						c-0.3-0.3-0.6-0.6-0.9-1l0,0C123,53.1,123,52.9,123.2,52.9C123.1,52.9,123.2,52.9,123.2,52.9z"/>
					<path class="st78" d="M119.4,41.1c0.5,0,1,0.2,1.5,0.4c0.4,0.2,0.9,0.4,1.3,0.7c0.4,0.3,0.8,0.6,1.1,1c0.3,0.4,0.6,0.8,0.8,1.3
						c0,0.1,0,0.2-0.1,0.2c0,0-0.1,0-0.1,0l0,0c-0.5-0.2-0.9-0.4-1.3-0.6c-0.4-0.2-0.8-0.5-1.2-0.7c-0.4-0.3-0.7-0.6-1.1-0.9
						c-0.3-0.3-0.7-0.7-0.9-1.1l0,0c-0.1-0.1,0-0.2,0.1-0.2C119.3,41.1,119.4,41.1,119.4,41.1z"/>
				</g>
			</g>
		</g>
		<path class="st117" d="M63.1,100.5l-1.6,3.9c0,0,6.6,5.1,11.5,5.7c0,0,0-0.9-0.3-1.7c0,0,3.2,3.8,7.2,4.3c0,0,0.5-0.4,0.6-0.8
			c0,0,1.9,2.3,2.7,2.3c0.8,0,2.7-1.6,2.9-2.2c0,0,0.7,0.9,1.1,0.9c0.4,0,4.8-1.6,7.1-4.2c0,0,0.3,0.7,0.6,0.7
			c0.3,0,6.1,0.7,10.7-4.9l5.3,5.5l-2.4-5.8l-3.6-4.1c0,0-3.4,4-6.2,5.9l-3.5,1.9l0.6-2.6l-3.8,3.5c0,0-3.9,2.5-4.7,2.6
			c0,0-0.6-0.9-0.8-2.1c0,0-2.6,3.3-3.3,3.6c0,0-2.4-2.1-2.9-3.9c0,0-0.5,1.7-1,2.2c0,0-3.2-1.7-4.9-3.3s-3.6-3.7-3.6-3.7l0.8,3
			c0,0-2.2-1-4.6-3.1S63.1,100.5,63.1,100.5z"/>
		<path class="st118" d="M32.9,76.8C32.9,76.8,32.9,76.9,32.9,76.8C32.9,76.9,32.9,77,32.9,76.8z"/>
		<path class="st117" d="M44.6,37.7c0,0,6.8-3.4,13.7-2.6l-4.5,1.3L44.6,37.7"/>
		<path class="st117" d="M55.5,29.9c0,0,4.3-2.3,14.9,1.1c-0.4-0.1-7.3-0.2-7.3-0.2S58.8,29.4,55.5,29.9"/>
		<path class="st117" d="M32.2,75.6c0,0,1-6.9,6.4-9.6l-1.9,3.9l-1.1,0.8l-3.1,4.8L32.2,75.6"/>
		<path class="st117" d="M35.3,56.6c0,0,2.9-6.8,11.4-8.1c0,0-2.6,1.6-3.8,2.8l-1.2,0.2L38,54.2L35.3,56.6z"/>
		<path class="st117" d="M38.1,93c0.1,0.2-2.5-8,3.3-13.2l0,0.1c-0.4,1.1-0.7,2.3-0.9,3.4l0,0L38.1,93"/>
		<path class="st117" d="M44.2,101.6c0,0-1.3-6.5,0.4-10.1l0.6,2.3L44.2,101.6z"/>
		<path class="st117" d="M59,102.4c-1.9,2.1-6,4.3-6,4.3l-0.4-0.1c0,0,3.1-2.5,5.4-5c2.1-2.3,3.3-4.2,3.3-4.2
			c0.6,1.4,0.9,1.6,0.9,1.6L59,102.4z"/>
		<path class="st117" d="M64.8,24.2c0,0,7.4-2.3,15.7,4.5c-0.5,0-4.4-1.1-4.4-1.1s-3.8-1.7-5.2-2.1c-1.5-0.4-6.4-1.1-6.4-1.1
			L64.8,24.2z"/>
		<g>
			<path class="st117" d="M129,95.5c-0.1,0.2,3-7.8-2.3-13.4l0,0.1c0.3,1.1,0.6,2.3,0.7,3.5l0,0L129,95.5"/>
			<path class="st117" d="M122.3,103.6c0,0,1.7-6.4,0.3-10.1l-0.8,2.2L122.3,103.6z"/>
			<path class="st117" d="M107.8,103.7c1.8,2.1,5.8,4.5,5.8,4.5l0.4-0.1c0,0-3-2.6-5.2-5.2c-2-2.4-3.2-4.3-3.2-4.3
				c-0.7,1.3-1,1.5-1,1.5L107.8,103.7z"/>
			<path class="st117" d="M106,25.5c0,0-7.2-2.8-16,3.4c0.5,0,4.5-0.8,4.5-0.8s3.9-1.5,5.3-1.8c1.6-0.3,6.4-0.6,6.4-0.6L106,25.5z"
				/>
			<path class="st117" d="M125.4,39.9c0,0-6.6-3.8-13.5-3.5l4.4,1.6L125.4,39.9"/>
			<path class="st117" d="M114.9,31.5c0,0-4.1-2.6-14.9,0.1c0.4-0.1,7.3,0.3,7.3,0.3S111.7,30.7,114.9,31.5"/>
			<path class="st117" d="M135.8,78.1c0,0-0.5-6.9-5.7-10l1.6,4l1.1,0.9l2.8,5L135.8,78.1"/>
			<path class="st117" d="M133.4,58.9c0,0-2.5-7-10.8-8.9c0,0,2.5,1.7,3.6,3l1.2,0.3l3.6,2.9L133.4,58.9z"/>
		</g>
		<g>
			<path class="st26" d="M85.3,26.8c-1.5-1-3.2-1.9-4.9-2.5c-1.7-0.7-3.5-1.2-5.3-1.4c-0.9-0.2-1.8-0.2-2.7-0.2
				c-0.9,0.1-1.8,0.1-2.7,0.3c-1.8,0.2-3.5,0.9-5.3,1.6l0,0c-0.1,0-0.2,0-0.2-0.1c0-0.1,0-0.2,0.1-0.2c1.7-0.9,3.4-1.7,5.3-2
				c0.5-0.1,0.9-0.2,1.4-0.2c0.5,0,0.9-0.1,1.4-0.1c1,0,1.9,0,2.9,0.2c1.9,0.3,3.7,0.8,5.5,1.5c1.7,0.8,3.4,1.7,4.8,2.9
				c0.1,0.1,0.1,0.2,0,0.2C85.5,26.8,85.4,26.8,85.3,26.8L85.3,26.8z"/>
		</g>
		<g>
			<path class="st26" d="M64.3,24.2c1.1-0.1,2.2,0,3.3,0.1c1.1,0.1,2.2,0.4,3.2,0.7c1,0.3,2.1,0.7,3.1,1.1c1,0.4,2,1,2.9,1.6
				c0.1,0.1,0.1,0.2,0.1,0.3c0,0.1-0.1,0.1-0.2,0.1l0,0c-1-0.4-2-0.9-3-1.2c-1-0.4-2-0.7-3-1c-1-0.3-2.1-0.5-3.1-0.8
				c-1-0.2-2.1-0.4-3.2-0.5l0,0c-0.1,0-0.2-0.1-0.2-0.2C64.2,24.3,64.2,24.2,64.3,24.2z"/>
		</g>
		<g>
			<path class="st26" d="M76.6,28c-1.8-0.2-3.7-0.3-5.5-0.4c-1.8-0.1-3.7-0.1-5.5,0c-1.8,0.1-3.6,0.3-5.4,0.6c-1.8,0.4-3.5,1-5,2.1
				c-0.1,0.1-0.2,0-0.3,0C55,30.1,55,30,55,30c1.4-1.3,3.2-2,5-2.5c1.8-0.5,3.7-0.7,5.6-0.8c1.9-0.1,3.7,0,5.6,0.1
				c1.9,0.2,3.7,0.4,5.5,0.8c0.1,0,0.1,0.1,0.1,0.2C76.8,27.9,76.7,28,76.6,28z"/>
		</g>
		<g>
			<path class="st26" d="M55.1,29.9c1.4-0.4,2.8-0.4,4.1-0.4c1.4,0.1,2.8,0.3,4.1,0.9c0.1,0,0.1,0.1,0.1,0.2c0,0.1-0.1,0.1-0.2,0.1
				l0,0c-0.7-0.1-1.3-0.2-2-0.3c-0.7-0.1-1.3-0.1-2-0.2c-1.3-0.1-2.7-0.1-4-0.1l0,0c-0.1,0-0.2-0.1-0.2-0.2
				C55,30,55.1,29.9,55.1,29.9z"/>
		</g>
		<g>
			<path class="st26" d="M63.3,30.8c-1.7,0.1-3.4,0.4-5.1,0.8c-1.7,0.4-3.3,0.9-4.9,1.6c-1.6,0.6-3.2,1.4-4.7,2.2
				c-1.5,0.8-3,1.8-4.4,2.7l0,0c-0.1,0.1-0.2,0-0.3-0.1c-0.1-0.1,0-0.2,0-0.2c0.7-0.6,1.4-1.1,2.1-1.6c0.7-0.5,1.5-1,2.2-1.4
				c1.5-0.9,3.1-1.7,4.8-2.3c1.7-0.6,3.4-1.1,5.1-1.5c1.7-0.3,3.5-0.6,5.3-0.5c0.1,0,0.2,0.1,0.2,0.2C63.4,30.7,63.4,30.8,63.3,30.8
				L63.3,30.8z"/>
		</g>
		<g>
			<path class="st26" d="M43.9,37.9c1.6-0.7,3.3-1.1,4.9-1.4c0.8-0.1,1.7-0.3,2.6-0.3c0.9-0.1,1.7-0.1,2.6,0c0.1,0,0.2,0.1,0.2,0.2
				c0,0.1-0.1,0.2-0.2,0.2c-1.7,0.2-3.3,0.4-5,0.7c-1.7,0.3-3.3,0.7-5,0.9c-0.1,0-0.2,0-0.2-0.1C43.8,38,43.8,37.9,43.9,37.9z"/>
		</g>
		<g>
			<path class="st26" d="M54,36.5c-2.3,0.8-4.5,1.9-6.5,3.3c-2,1.3-3.9,2.9-5.4,4.8c-1.5,1.9-2.8,4-3.9,6.1c-1.1,2.2-2.2,4.4-3,6.7
				l0,0c0,0.1-0.1,0.1-0.2,0.1c-0.1,0-0.1-0.1-0.1-0.2c0.7-2.4,1.7-4.6,2.8-6.9c1.1-2.2,2.4-4.3,3.9-6.3c0.8-1,1.7-1.9,2.6-2.7
				c0.9-0.8,2-1.6,3-2.2c2.1-1.3,4.4-2.3,6.8-3c0.1,0,0.2,0,0.2,0.1C54.2,36.4,54.1,36.5,54,36.5L54,36.5z"/>
		</g>
		<g>
			<path class="st26" d="M34.9,57.2c1-1.5,2.3-2.8,3.7-4c0.7-0.6,1.5-1.1,2.3-1.6c0.8-0.5,1.6-0.9,2.5-1.1c0.1,0,0.2,0,0.2,0.1
				c0,0.1,0,0.2-0.1,0.2l0,0c-1.6,0.8-3,1.8-4.4,3c-1.4,1.1-2.7,2.3-4,3.6l0,0c-0.1,0.1-0.2,0.1-0.2,0
				C34.9,57.3,34.8,57.2,34.9,57.2z"/>
		</g>
		<g>
			<path class="st26" d="M43.6,50.8c-0.9,0.8-1.7,1.7-2.5,2.6c-0.8,0.9-1.6,1.8-2.3,2.7c-1.4,1.9-2.7,3.9-3.6,6.1
				c-0.9,2.2-1.5,4.5-2,6.8c-0.4,2.3-0.7,4.7-0.8,7.1l0,0c0,0.1-0.1,0.2-0.2,0.2c-0.1,0-0.2-0.1-0.2-0.2c-0.1-2.4,0.1-4.8,0.5-7.2
				c0.4-2.4,1-4.7,1.9-7c1-2.2,2.3-4.3,3.8-6.2c1.5-1.9,3.2-3.6,5.1-5.1c0.1-0.1,0.2,0,0.2,0C43.7,50.6,43.6,50.7,43.6,50.8
				L43.6,50.8z"/>
		</g>
		<g>
			<path class="st26" d="M32.1,76c0.4-1.3,1.1-2.5,1.8-3.6c0.4-0.6,0.8-1.1,1.2-1.6c0.5-0.5,0.9-1,1.5-1.4c0.1-0.1,0.2,0,0.3,0.1
				c0,0.1,0,0.2,0,0.2l0,0c-0.8,1-1.6,2.1-2.3,3.2c-0.7,1.1-1.4,2.2-2.2,3.3c-0.1,0.1-0.2,0.1-0.2,0C32.1,76.1,32,76,32.1,76z"/>
		</g>
		<g>
			<path class="st26" d="M36.9,69.6c-0.7,2-1.2,4-1.5,6c-0.3,2-0.5,4.1-0.3,6.1c0.2,2,0.7,4.1,1.2,6c0.6,2,1.2,4,2,5.9l0,0
				c0,0.1,0,0.2-0.1,0.2c-0.1,0-0.2,0-0.2-0.1c-1-1.9-1.7-3.8-2.4-5.8c-0.6-2-1.1-4-1.4-6.2c-0.2-2.1,0-4.3,0.4-6.3
				c0.4-2.1,1-4.1,1.9-6c0-0.1,0.1-0.1,0.2-0.1C36.9,69.4,36.9,69.5,36.9,69.6L36.9,69.6z"/>
		</g>
		<g>
			<path class="st26" d="M38,93.6c0-1.8,0.2-3.5,0.5-5.3c0.2-0.9,0.4-1.7,0.6-2.6c0.3-0.9,0.6-1.7,1-2.5c0.1-0.1,0.2-0.1,0.2-0.1
				c0.1,0,0.1,0.1,0.1,0.2c-0.3,0.8-0.5,1.7-0.7,2.5c-0.2,0.8-0.4,1.7-0.5,2.6c-0.3,1.7-0.6,3.5-0.9,5.2c0,0.1-0.1,0.2-0.2,0.1
				C38.1,93.8,38,93.7,38,93.6z"/>
		</g>
		<g>
			<path class="st26" d="M40.5,83.4c-0.4,1.5-0.6,3.2-0.5,4.8c0,1.6,0.3,3.2,0.7,4.8c0.4,1.6,0.9,3.1,1.6,4.6c0.3,0.7,0.7,1.5,1,2.2
				l1.2,2.1l0,0c0,0.1,0,0.2-0.1,0.2c-0.1,0-0.2,0-0.2-0.1c-0.5-0.7-0.9-1.4-1.4-2.1c-0.4-0.7-0.8-1.4-1.2-2.2
				c-0.7-1.5-1.3-3.1-1.7-4.7c-0.4-1.6-0.6-3.3-0.6-5c0-1.7,0.3-3.3,0.9-4.9c0-0.1,0.1-0.1,0.2-0.1C40.5,83.2,40.5,83.3,40.5,83.4
				L40.5,83.4z"/>
		</g>
		<g>
			<path class="st26" d="M44,101.9c0.2-1.3,0.4-2.7,0.6-4c0.2-1.3,0.2-2.7,0.4-4c0-0.1,0.1-0.2,0.2-0.2c0.1,0,0.1,0.1,0.2,0.2
				c0.1,0.7,0.1,1.4,0.1,2.1c0,0.7-0.1,1.4-0.1,2.1c-0.1,0.7-0.2,1.4-0.4,2c-0.2,0.7-0.4,1.3-0.7,2c0,0.1-0.1,0.1-0.2,0.1
				C44.1,102,44,101.9,44,101.9L44,101.9z"/>
		</g>
		<g>
			<path class="st26" d="M45.4,93.8c0.4,1.2,0.9,2.3,1.5,3.4c0.5,1.1,1.1,2.2,1.8,3.3c0.6,1.1,1.3,2.1,2,3.1c0.7,1,1.5,2,2.3,2.9
				l0,0c0.1,0.1,0.1,0.2,0,0.3c-0.1,0.1-0.2,0.1-0.2,0c-0.9-0.8-1.8-1.7-2.6-2.7c-0.8-1-1.5-2-2.2-3.1c-0.6-1.1-1.2-2.2-1.7-3.4
				c-0.5-1.2-0.9-2.4-1.2-3.6c0-0.1,0-0.2,0.1-0.2C45.3,93.7,45.3,93.7,45.4,93.8L45.4,93.8z"/>
		</g>
		<g>
			<path class="st26" d="M52.7,106.4c0.9-0.4,1.7-1,2.6-1.5c0.8-0.6,1.6-1.2,2.4-1.8c1.5-1.3,2.9-2.8,4.3-4.2c0.1-0.1,0.2-0.1,0.3,0
				c0.1,0.1,0.1,0.2,0,0.2c-0.3,0.4-0.6,0.8-0.9,1.3c-0.3,0.4-0.6,0.8-1,1.2c-0.7,0.8-1.4,1.5-2.2,2.2c-0.8,0.7-1.6,1.3-2.5,1.8
				c-0.9,0.5-1.8,1-2.8,1.3c-0.1,0-0.2,0-0.2-0.1C52.6,106.5,52.6,106.5,52.7,106.4L52.7,106.4z"/>
		</g>
		<g>
			<path class="st26" d="M62.3,98.8c0.7,0.8,1.3,1.6,2,2.4c0.7,0.8,1.4,1.5,2.2,2.2c0.7,0.7,1.5,1.4,2.4,2c0.8,0.6,1.7,1.2,2.6,1.6
				l0,0c0.1,0,0.1,0.2,0.1,0.2c0,0.1-0.1,0.1-0.2,0.1c-1-0.3-2-0.8-2.9-1.4c-0.9-0.6-1.7-1.3-2.5-2c-1.5-1.5-2.9-3.1-3.9-5
				c0-0.1,0-0.2,0.1-0.2C62.1,98.7,62.2,98.7,62.3,98.8L62.3,98.8z"/>
		</g>
		<g>
			<path class="st26" d="M71.2,107.2c-0.2-0.6-0.3-1.2-0.5-1.7c-0.1-0.3-0.2-0.6-0.3-0.8c-0.1-0.3-0.2-0.6-0.3-0.9l0,0
				c0-0.1,0-0.2,0.1-0.2c0.1,0,0.1,0,0.2,0c0.5,0.5,0.8,1.1,1,1.7c0.2,0.6,0.3,1.3,0.1,1.9c0,0.1-0.1,0.1-0.2,0.1
				C71.3,107.3,71.3,107.3,71.2,107.2L71.2,107.2z"/>
		</g>
		<g>
			<path class="st26" d="M70.5,103.6c1.3,1.4,2.7,2.8,4.1,4.1c1.4,1.3,3,2.5,4.6,3.4l0,0c0.1,0,0.1,0.2,0.1,0.2
				c0,0.1-0.1,0.1-0.2,0.1c-1-0.3-1.9-0.8-2.7-1.3c-0.8-0.5-1.6-1.2-2.4-1.8c-1.4-1.4-2.8-2.8-3.9-4.5c-0.1-0.1,0-0.2,0.1-0.2
				C70.4,103.5,70.4,103.5,70.5,103.6L70.5,103.6z"/>
		</g>
		<g>
			<path class="st26" d="M79.1,111.2c0-0.2,0.1-0.4,0.1-0.6c0-0.2,0.1-0.4,0.1-0.6c0.1-0.4,0.2-0.9,0.4-1.3c0-0.1,0.2-0.1,0.3-0.1
				c0,0,0.1,0.1,0.1,0.1c0.1,0.2,0.1,0.5,0.1,0.7c0,0.2-0.1,0.5-0.1,0.7c-0.1,0.2-0.1,0.5-0.3,0.7c-0.1,0.2-0.3,0.4-0.5,0.6
				c-0.1,0.1-0.2,0-0.2,0C79.1,111.3,79.1,111.3,79.1,111.2L79.1,111.2z"/>
		</g>
		<g>
			<path class="st26" d="M80.1,108.5c0.5,0.7,1,1.5,1.5,2.2c0.2,0.4,0.5,0.7,0.8,1.1c0.3,0.4,0.6,0.7,0.8,1.1l0,0
				c0.1,0.1,0,0.2,0,0.3c-0.1,0-0.1,0-0.2,0c-0.8-0.5-1.5-1.2-2-1.9c-0.5-0.8-1-1.6-1.1-2.6c0-0.1,0-0.2,0.1-0.2
				C80,108.4,80.1,108.5,80.1,108.5L80.1,108.5z"/>
		</g>
		<g>
			<g>
				<path class="st26" d="M85.3,26.5c1.5-1.1,3.2-2,5-2.7c1.8-0.7,3.7-1.1,5.5-1.2c1-0.1,1.9,0,2.9,0c0.5,0,0.9,0.1,1.4,0.2
					c0.5,0,0.9,0.2,1.4,0.3c1.9,0.4,3.6,1.3,5.2,2.3c0.1,0.1,0.1,0.2,0.1,0.2c0,0.1-0.1,0.1-0.2,0.1l0,0c-1.7-0.8-3.4-1.6-5.2-1.9
					c-0.9-0.2-1.8-0.3-2.7-0.4c-0.9,0-1.8-0.1-2.7,0c-1.8,0.1-3.6,0.5-5.4,1.1c-1.7,0.6-3.4,1.3-5,2.3l0,0c-0.1,0-0.2,0-0.2-0.1
					C85.2,26.6,85.3,26.5,85.3,26.5z"/>
			</g>
			<g>
				<path class="st26" d="M106.6,25.7c-1.1,0-2.1,0.1-3.2,0.3c-1.1,0.2-2.1,0.3-3.1,0.6c-1,0.2-2.1,0.5-3.1,0.8c-1,0.3-2,0.7-3,1.1
					l0,0c-0.1,0-0.2,0-0.2-0.1c0-0.1,0-0.2,0.1-0.2c0.9-0.5,1.9-1,3-1.4c1-0.4,2.1-0.7,3.1-1c1.1-0.2,2.2-0.4,3.2-0.5
					c1.1-0.1,2.2-0.1,3.3,0.1c0.1,0,0.2,0.1,0.1,0.2C106.8,25.6,106.7,25.7,106.6,25.7L106.6,25.7z"/>
			</g>
			<g>
				<path class="st26" d="M94.1,28.1c1.8-0.3,3.7-0.4,5.5-0.5c1.9-0.1,3.7,0,5.6,0.2c1.9,0.2,3.7,0.5,5.5,1.1
					c1.8,0.6,3.6,1.4,4.9,2.7c0.1,0.1,0.1,0.2,0,0.3c-0.1,0.1-0.2,0.1-0.2,0c-1.4-1.2-3.1-1.8-4.9-2.3c-1.7-0.5-3.6-0.8-5.4-0.9
					c-1.8-0.2-3.7-0.3-5.5-0.3c-1.8,0-3.7,0-5.5,0.1c-0.1,0-0.2-0.1-0.2-0.2C93.9,28.2,94,28.1,94.1,28.1z"/>
			</g>
			<g>
				<path class="st26" d="M115.4,31.9c-1.4,0-2.7-0.1-4-0.1c-0.7,0-1.3,0-2,0.1c-0.7,0-1.3,0.1-2,0.2l0,0c-0.1,0-0.2-0.1-0.2-0.2
					c0-0.1,0-0.2,0.1-0.2c1.3-0.5,2.7-0.7,4.1-0.7c1.4,0,2.8,0.1,4.1,0.6c0.1,0,0.1,0.1,0.1,0.2C115.6,31.8,115.5,31.9,115.4,31.9
					L115.4,31.9z"/>
			</g>
			<g>
				<path class="st26" d="M107.3,31.6c1.8,0,3.5,0.3,5.3,0.8c1.7,0.4,3.4,1.1,5,1.8c1.6,0.8,3.2,1.6,4.6,2.6c0.7,0.5,1.4,1,2.1,1.6
					c0.7,0.6,1.3,1.1,2,1.7c0.1,0.1,0.1,0.2,0,0.3c-0.1,0.1-0.2,0.1-0.2,0l0,0c-1.4-1-2.8-2.1-4.3-3c-1.5-0.9-3-1.7-4.6-2.5
					c-1.6-0.7-3.2-1.3-4.9-1.8c-1.7-0.5-3.4-0.9-5.1-1.1l0,0c-0.1,0-0.2-0.1-0.1-0.2C107.1,31.7,107.2,31.6,107.3,31.6z"/>
			</g>
			<g>
				<path class="st26" d="M126.2,40.4c-1.7-0.4-3.3-0.8-4.9-1.2c-1.6-0.4-3.3-0.7-4.9-1c-0.1,0-0.2-0.1-0.2-0.2
					c0-0.1,0.1-0.2,0.2-0.2c0.9-0.1,1.7,0,2.6,0.1c0.9,0.1,1.7,0.3,2.5,0.5c1.7,0.4,3.3,0.9,4.9,1.7c0.1,0,0.1,0.1,0.1,0.2
					C126.3,40.4,126.2,40.4,126.2,40.4z"/>
			</g>
			<g>
				<path class="st26" d="M116.3,37.8c2.3,0.8,4.6,1.9,6.6,3.3c1,0.7,2,1.5,2.9,2.3c0.9,0.9,1.7,1.8,2.5,2.8c1.4,2,2.6,4.2,3.6,6.5
					c1,2.3,1.8,4.6,2.4,7c0,0.1,0,0.2-0.1,0.2c-0.1,0-0.2,0-0.2-0.1l0,0c-0.8-2.3-1.7-4.6-2.7-6.8c-1-2.2-2.2-4.4-3.6-6.3
					c-1.4-2-3.2-3.6-5.1-5.1c-2-1.4-4.1-2.6-6.3-3.6l0,0c-0.1,0-0.1-0.1-0.1-0.2C116.2,37.8,116.3,37.8,116.3,37.8z"/>
			</g>
			<g>
				<path class="st26" d="M134,60c-1.2-1.3-2.5-2.6-3.8-3.8c-1.3-1.2-2.7-2.3-4.2-3.2l0,0c-0.1-0.1-0.1-0.2-0.1-0.3
					c0-0.1,0.1-0.1,0.2-0.1c0.9,0.3,1.7,0.7,2.5,1.2c0.8,0.5,1.5,1.1,2.2,1.7c1.3,1.3,2.6,2.6,3.5,4.2c0,0.1,0,0.2-0.1,0.2
					C134.1,60.1,134,60.1,134,60L134,60z"/>
			</g>
			<g>
				<path class="st26" d="M126.1,52.7c1.8,1.6,3.4,3.4,4.8,5.4c1.4,1.9,2.6,4.1,3.5,6.4c0.8,2.3,1.3,4.7,1.5,7.1
					c0.3,2.4,0.3,4.8,0.1,7.2c0,0.1-0.1,0.2-0.2,0.2c-0.1,0-0.2-0.1-0.2-0.2l0,0c0.1-2.4-0.1-4.8-0.4-7.1c-0.3-2.3-0.8-4.7-1.6-6.9
					c-0.8-2.2-2-4.3-3.3-6.2c-0.7-1-1.4-1.9-2.1-2.9c-0.7-0.9-1.5-1.8-2.4-2.7l0,0c-0.1-0.1-0.1-0.2,0-0.2
					C126,52.7,126.1,52.7,126.1,52.7z"/>
			</g>
			<g>
				<path class="st26" d="M135.8,78.9c-0.7-1.1-1.3-2.3-2-3.4c-0.6-1.1-1.3-2.2-2.1-3.3l0,0c-0.1-0.1,0-0.2,0-0.3c0.1,0,0.2,0,0.2,0
					c0.6,0.4,1,0.9,1.4,1.4c0.4,0.5,0.8,1.1,1.1,1.7c0.7,1.2,1.2,2.4,1.6,3.7c0,0.1,0,0.2-0.1,0.2C135.9,79,135.8,78.9,135.8,78.9z"
					/>
			</g>
			<g>
				<path class="st26" d="M131.9,72c0.8,2,1.3,4,1.6,6.1c0.3,2.1,0.4,4.2,0.1,6.3c-0.4,2.1-1,4.1-1.7,6.1c-0.7,2-1.6,3.9-2.7,5.7
					c-0.1,0.1-0.2,0.1-0.2,0.1c-0.1,0-0.1-0.2-0.1-0.2l0,0c0.9-1.9,1.7-3.8,2.3-5.7c0.6-2,1.2-4,1.6-6c0.3-2,0.3-4.1,0.1-6.1
					c-0.2-2-0.6-4.1-1.2-6.1l0,0c0-0.1,0-0.2,0.1-0.2C131.8,71.9,131.9,71.9,131.9,72z"/>
			</g>
			<g>
				<path class="st26" d="M128.8,96.1c-0.3-1.7-0.4-3.5-0.7-5.2c-0.1-0.9-0.2-1.7-0.4-2.6c-0.1-0.9-0.3-1.7-0.6-2.5
					c0-0.1,0-0.2,0.1-0.2c0.1,0,0.2,0,0.2,0.1c0.4,0.8,0.7,1.7,0.9,2.5c0.2,0.9,0.4,1.8,0.5,2.6c0.2,1.8,0.3,3.5,0.2,5.3
					c0,0.1-0.1,0.2-0.2,0.2C128.9,96.2,128.8,96.2,128.8,96.1z"/>
			</g>
			<g>
				<path class="st26" d="M127.6,85.6c0.6,1.6,0.7,3.3,0.7,4.9c-0.1,1.7-0.4,3.3-0.8,4.9c-0.5,1.6-1.1,3.1-1.9,4.6
					c-0.4,0.7-0.9,1.4-1.3,2.1c-0.5,0.7-1,1.3-1.5,2c-0.1,0.1-0.2,0.1-0.3,0c-0.1-0.1-0.1-0.2,0-0.2l0,0l1.3-2.1
					c0.4-0.7,0.8-1.4,1.2-2.1c0.7-1.4,1.3-2.9,1.8-4.5c0.5-1.5,0.8-3.1,0.9-4.7c0.1-1.6,0.1-3.2-0.3-4.8l0,0c0-0.1,0-0.2,0.1-0.2
					C127.5,85.5,127.5,85.5,127.6,85.6z"/>
			</g>
			<g>
				<path class="st26" d="M122.4,104.1c-0.3-0.7-0.4-1.3-0.6-2c-0.1-0.7-0.2-1.4-0.3-2.1c0-0.7,0-1.4,0-2.1c0-0.7,0.1-1.4,0.2-2.1
					c0-0.1,0.1-0.2,0.2-0.1c0.1,0,0.1,0.1,0.1,0.2c0.1,1.4,0.1,2.7,0.2,4.1c0.1,1.3,0.2,2.7,0.3,4l0,0c0,0.1-0.1,0.2-0.2,0.2
					C122.5,104.2,122.4,104.1,122.4,104.1z"/>
			</g>
			<g>
				<path class="st26" d="M122.1,95.9c-0.3,1.2-0.8,2.4-1.4,3.5c-0.5,1.1-1.2,2.2-1.9,3.3c-0.7,1-1.5,2.1-2.3,3
					c-0.8,0.9-1.8,1.8-2.7,2.6c-0.1,0.1-0.2,0.1-0.3,0c-0.1-0.1-0.1-0.2,0-0.2l0,0c0.8-0.9,1.7-1.8,2.4-2.8c0.8-1,1.5-1.9,2.2-3
					c0.7-1,1.3-2.1,1.9-3.2c0.6-1.1,1.2-2.2,1.6-3.3l0,0c0-0.1,0.1-0.1,0.2-0.1C122.1,95.8,122.2,95.9,122.1,95.9z"/>
			</g>
			<g>
				<path class="st26" d="M113.7,108.4c-1-0.3-1.9-0.9-2.8-1.4c-0.9-0.6-1.6-1.3-2.4-1.9c-0.7-0.7-1.4-1.5-2.1-2.3
					c-0.3-0.4-0.6-0.8-0.9-1.2c-0.3-0.4-0.6-0.9-0.8-1.3c-0.1-0.1,0-0.2,0.1-0.2c0.1,0,0.2,0,0.2,0c1.3,1.5,2.6,3.1,4.1,4.4
					c0.7,0.7,1.5,1.4,2.3,2c0.8,0.6,1.6,1.2,2.5,1.7l0,0c0.1,0,0.1,0.1,0.1,0.2C113.8,108.4,113.7,108.4,113.7,108.4z"/>
			</g>
			<g>
				<path class="st26" d="M104.9,100.1c-1.1,1.8-2.6,3.4-4.2,4.8c-0.8,0.7-1.7,1.3-2.6,1.9c-0.9,0.5-1.9,1-3,1.2
					c-0.1,0-0.2,0-0.2-0.1c0-0.1,0-0.2,0.1-0.2l0,0c0.9-0.4,1.8-0.9,2.7-1.5c0.9-0.6,1.7-1.2,2.5-1.9c0.8-0.7,1.5-1.4,2.3-2.1
					c0.7-0.7,1.5-1.5,2.2-2.3l0,0c0.1-0.1,0.2-0.1,0.2,0C105,100,105,100.1,104.9,100.1z"/>
			</g>
			<g>
				<path class="st26" d="M94.9,107.8c-0.1-0.7,0-1.3,0.2-1.9c0.2-0.6,0.5-1.2,1.1-1.6c0.1-0.1,0.2-0.1,0.3,0c0,0,0.1,0.1,0,0.2l0,0
					c-0.1,0.3-0.2,0.6-0.3,0.9c-0.1,0.3-0.2,0.5-0.3,0.8c-0.2,0.5-0.4,1.1-0.6,1.7l0,0c0,0.1-0.1,0.1-0.2,0.1
					C95,107.9,94.9,107.9,94.9,107.8z"/>
			</g>
			<g>
				<path class="st26" d="M96.4,104.5c-1.2,1.6-2.6,3-4.1,4.3c-0.8,0.6-1.6,1.2-2.5,1.7c-0.9,0.5-1.8,0.9-2.8,1.2
					c-0.1,0-0.2,0-0.2-0.1c0-0.1,0-0.2,0.1-0.2l0,0c1.7-0.8,3.3-1.9,4.8-3.1c1.5-1.2,2.9-2.5,4.3-3.9l0,0c0.1-0.1,0.2-0.1,0.2,0
					C96.5,104.4,96.5,104.4,96.4,104.5z"/>
			</g>
			<g>
				<path class="st26" d="M86.9,111.6c-0.2-0.2-0.4-0.4-0.5-0.6c-0.1-0.2-0.2-0.5-0.2-0.7c0-0.2-0.1-0.5-0.1-0.7
					c0-0.2,0-0.5,0.1-0.7c0-0.1,0.1-0.2,0.2-0.1c0.1,0,0.1,0.1,0.1,0.1c0.2,0.5,0.3,0.9,0.4,1.3c0,0.2,0.1,0.4,0.1,0.7
					c0,0.2,0.1,0.4,0.1,0.6l0,0.1c0,0.1-0.1,0.2-0.2,0.2C87,111.6,87,111.6,86.9,111.6z"/>
			</g>
			<g>
				<path class="st26" d="M86.6,108.8c-0.2,0.9-0.7,1.7-1.3,2.5c-0.6,0.7-1.3,1.4-2.1,1.8c-0.1,0-0.2,0-0.2-0.1c0-0.1,0-0.1,0-0.2
					l0,0c0.3-0.4,0.6-0.7,0.9-1c0.3-0.3,0.6-0.7,0.8-1c0.6-0.7,1.1-1.4,1.6-2.1l0,0c0.1-0.1,0.2-0.1,0.2,0
					C86.6,108.7,86.6,108.8,86.6,108.8z"/>
			</g>
		</g>
		<g>
			<g>
				<path class="st26" d="M63.4,100.5c-2.1,4.8-4,9.7-5.9,14.6c-1.8,4.9-3.5,9.9-4.8,14.9c-0.6,2.5-1.2,5.1-1.2,7.6
					c0,2.5,0.3,5.2,1.7,7.2c1.4,2.1,3.8,3.2,6.3,3.7c1.3,0.2,2.6,0.4,3.9,0.6c1.3,0.2,2.6,0.4,3.8,0.4l0.1,0c0.2,0,0.3,0.1,0.3,0.3
					c0,0.2-0.1,0.3-0.3,0.3c-1.4,0-2.7-0.2-4-0.3c-1.3-0.2-2.6-0.3-3.9-0.5c-1.3-0.2-2.6-0.6-3.9-1.2c-1.2-0.6-2.3-1.5-3.1-2.7
					c-1.6-2.3-2-5.2-1.9-7.8c0-2.7,0.6-5.3,1.2-7.9c1.4-5.1,3.1-10.1,5-15c1.9-4.9,4-9.7,6.2-14.5c0.1-0.1,0.2-0.2,0.3-0.1
					C63.4,100.2,63.5,100.4,63.4,100.5z"/>
			</g>
			<g>
				<path class="st26" d="M72.2,149.5l12.6-0.1l6.3,0l6.3,0.1c0.1,0,0.3,0.1,0.3,0.3c0,0.1-0.1,0.3-0.3,0.3l-6.3,0.1l-6.3,0
					l-12.6-0.1c-0.2,0-0.3-0.1-0.3-0.3C71.9,149.7,72.1,149.5,72.2,149.5z"/>
			</g>
			<path class="st30" d="M70.8,152.5c0.1,0.1,0.2,0.2,0.3,0.3c0,0.1,0,0.3,0,0.4c-0.1,0.7-0.2,1.6-0.8,2c-0.4,0.3-1,0.3-1.5,0.3
				c-0.5,0-1-0.1-1.6-0.2c-0.6-0.1-1.2-0.3-1.5-0.7c-0.4-0.4-0.4-1-0.4-1.6c0-0.2,0-0.4,0.1-0.6c0.1-0.2,0.3-0.3,0.5-0.4
				c0.8-0.4,1.4-0.8,2.4-0.6C69.1,151.6,70.2,151.9,70.8,152.5z"/>
			<path class="st30" d="M98.8,152.5c-0.1,0.1-0.2,0.2-0.3,0.3c0,0.1,0,0.3,0,0.4c0.1,0.7,0.2,1.6,0.8,2c0.4,0.3,1,0.3,1.5,0.3
				c0.5,0,1-0.1,1.6-0.2c0.6-0.1,1.2-0.3,1.5-0.7c0.4-0.4,0.4-1,0.4-1.6c0-0.2,0-0.4-0.1-0.6c-0.1-0.2-0.3-0.3-0.5-0.4
				c-0.8-0.4-1.4-0.8-2.4-0.6C100.5,151.6,99.4,151.9,98.8,152.5z"/>
			<g>
				<path class="st26" d="M108.7,104c2,4.5,3.9,9,5.6,13.6c1.7,4.6,3.3,9.3,4.3,14.1c0.5,2.4,0.8,4.9,0.6,7.4
					c-0.1,2.5-0.8,5.1-2.6,7.1c-1.8,2-4.4,2.8-6.8,3.1c-1.2,0.2-2.4,0.3-3.7,0.4c-1.2,0.1-2.4,0.3-3.7,0.2c-0.2,0-0.3-0.1-0.3-0.3
					c0-0.2,0.1-0.3,0.3-0.3l0.1,0c1.1,0,2.4-0.2,3.6-0.4c1.2-0.2,2.4-0.3,3.6-0.5c2.4-0.4,4.7-1.2,6.2-3c1.6-1.7,2.2-4.1,2.3-6.5
					c0.1-2.4-0.2-4.8-0.7-7.2c-1-4.8-2.5-9.4-4.1-14.1c-1.6-4.6-3.4-9.2-5.3-13.7c-0.1-0.1,0-0.3,0.1-0.4
					C108.4,103.8,108.6,103.9,108.7,104z"/>
			</g>
			<path class="st117" d="M62.2,103.4c0,0-8,17-10.2,27.3c-2.2,10.3,0.4,14.2,2.9,16.4c1.8,1.6,6.5,2.4,12.4,2.6
				c0.1,0,0.2,0,0.2,0.1c0.2-0.1-0.5-4.4-0.5-4.4c-2.5,2.8-8.3,2-10.9-0.4C47.7,137.4,62.2,103.4,62.2,103.4z"/>
			<path class="st117" d="M108.4,104.6c0,0,7.4,15.9,9.6,26.2c2.2,10.3-0.4,14.2-2.9,16.4c-1.8,1.6-6.5,2.4-12.4,2.6
				c-0.1,0-0.2,0-0.2,0.1c-0.2-0.1,0.5-4.4,0.5-4.4c2.5,2.8,8.3,2,10.9-0.4C122.3,137.4,108.4,104.6,108.4,104.6z"/>
			<path class="st30" d="M72.6,149.6l5.8-20.7c1.9-6.7,11.5-6.7,13.4,0l5.8,20.7H72.6z"/>
			<path class="st119" d="M74.1,143.8c0,0,0.1,4.6,10.4,4.6c10.3,0,11.5-4.6,11.5-4.6l1.6,6H72.2L74.1,143.8z"/>
			<g>
				<path class="st26" d="M66.2,138.2c0.5,3.3,1,6.6,1.4,10c0.1,0.8,0.2,1.7,0.2,2.5c0,0.2,0,0.4-0.1,0.8c0,0-0.1,0.2-0.3,0.2
					l-0.1,0l-0.1,0c-0.1,0-0.2,0.1-0.3,0.1c-0.3,0.2-0.7,0.4-0.9,0.6c-0.5,0.5-0.4,1.3,0,1.9c0.2,0.3,0.5,0.4,0.9,0.5
					c0.4,0.1,0.8,0.2,1.2,0.3c0.8,0.1,1.6,0.1,2-0.4c0.2-0.2,0.3-0.7,0.5-1l0.4-1.2c0.5-1.6,1-3.2,1.5-4.8l3-9.6
					c0-0.1,0.2-0.2,0.3-0.1c0.1,0,0.2,0.1,0.1,0.3c-0.9,3.2-1.8,6.5-2.7,9.7c-0.5,1.6-1,3.2-1.5,4.8l-0.4,1.2
					c-0.2,0.4-0.3,0.8-0.6,1.2c-0.3,0.4-0.9,0.6-1.3,0.7c-0.5,0.1-0.9,0-1.4,0c-0.4-0.1-0.9-0.2-1.3-0.3c-0.4-0.1-0.9-0.4-1.2-0.8
					c-0.7-0.7-0.7-2,0-2.8c0.3-0.4,0.7-0.6,1.1-0.8c0.1,0,0.2-0.1,0.3-0.1l0.2,0l0.1,0c-0.1,0-0.2,0.1-0.2,0.1c0,0,0-0.3,0-0.5
					c0-0.8-0.1-1.6-0.2-2.5c-0.4-3.3-0.8-6.6-1.3-9.9c0-0.1,0.1-0.3,0.2-0.3C66,138,66.1,138.1,66.2,138.2z"/>
			</g>
			<g>
				<path class="st26" d="M104,138.3c-0.4,3.3-0.9,6.6-1.2,9.9c-0.1,0.8-0.1,1.7-0.2,2.5c0,0.2,0,0.4,0,0.5c0,0,0,0-0.1-0.1
					c0,0-0.1,0-0.1,0l0,0l0,0l0.2,0c0.1,0,0.2,0.1,0.3,0.1c0.4,0.2,0.8,0.4,1.2,0.8c0.7,0.7,0.7,2,0,2.7c-0.3,0.4-0.8,0.7-1.2,0.8
					c-0.4,0.1-0.8,0.2-1.3,0.3c-0.4,0.1-0.9,0.1-1.4,0c-0.5-0.1-1-0.3-1.3-0.7c-0.3-0.4-0.4-0.9-0.6-1.3l-0.4-1.2
					c-0.5-1.6-1-3.2-1.4-4.8c-0.9-3.2-1.7-6.5-2.5-9.7c0-0.1,0-0.2,0.2-0.3c0.1,0,0.2,0,0.3,0.1l2.8,9.6c0.5,1.6,0.9,3.2,1.4,4.8
					l0.4,1.2c0.1,0.4,0.3,0.8,0.5,1c0.4,0.5,1.2,0.5,2,0.4c0.4-0.1,0.8-0.2,1.2-0.3c0.4-0.1,0.6-0.3,0.9-0.6c0.4-0.5,0.5-1.3,0-1.8
					c-0.2-0.3-0.5-0.5-0.9-0.6c-0.1,0-0.2-0.1-0.3-0.1l-0.1,0l0,0l0,0c0,0-0.1,0-0.1-0.1c-0.2-0.1-0.1-0.2-0.2-0.2
					c-0.1-0.3-0.1-0.5-0.1-0.7c0-0.9,0.1-1.7,0.2-2.5c0.4-3.3,0.8-6.6,1.3-9.9c0-0.1,0.1-0.2,0.3-0.2C103.9,138,104,138.2,104,138.3
					z"/>
			</g>
		</g>
		<path class="st30" d="M97.6,57.5c0.3-0.1,0.5-0.2,0.8-0.3c0.3-0.1,0.6-0.2,0.8-0.4c0.2-0.1,0.4-0.2,0.6-0.3
			c0.2-0.1,0.3-0.1,0.5-0.2c0.2-0.1,0.5-0.1,0.7-0.2c0.4-0.1,0.8-0.2,1.1-0.5c0.4,0,0.9-0.1,1.2-0.3c0.5,0,1-0.2,1.4-0.4
			c0.3,0,0.6-0.1,0.9-0.2c0.5,0,1-0.2,1.5-0.4c5,0.8,8.8,5.1,8.8,10.3c0,5.8-4.7,10.5-10.5,10.5c-5.8,0-10.5-4.7-10.5-10.5
			C94.8,61.9,95.9,59.4,97.6,57.5z"/>
		<path class="st120" d="M94.7,63.9c0.1-0.3,0.1-0.6,0.1-0.9c0-0.2,0-0.3,0-0.5c0.1-0.3,0.2-0.6,0.2-0.9c0.2-0.3,0.3-0.7,0.4-1.1
			c1.5-3,4.5-5.1,8.1-5.1c5,0,9,4,9,9s-4,9-9,9c-3.8,0-7-2.3-8.3-5.6c0-0.6-0.1-1.1-0.3-1.6c0-0.4,0-0.8-0.1-1.3c0-0.2,0-0.4,0-0.6
			c0-0.1,0-0.3,0-0.4C94.7,64.1,94.7,64,94.7,63.9z"/>
		<g>
			<circle class="st26" cx="103.6" cy="64.6" r="7.3"/>
			
				<ellipse transform="matrix(0.7071 -0.7071 0.7071 0.7071 -10.5225 94.5511)" class="st30" cx="108.9" cy="60" rx="2.7" ry="2.7"/>
			<path class="st206" d="M115.8,64.7c0-4.9-3.3-9-7.9-10.2c-0.8-0.2-9.7,2-11.1,4c-1.2,1.7-2,3.8-2,6.1c0,5.8,4.7,10.5,10.5,10.5
				C111.1,75.2,115.8,70.5,115.8,64.7z"/>
			<path class="st207" d="M109.5,53c0,0-7.5,4.6-14.7,5.4"/>
		</g>
		<circle class="st30" cx="62.7" cy="64.7" r="10.5"/>
		<path class="st120" d="M73.3,63.9c-0.1-0.3-0.1-0.6-0.1-0.9c0-0.2,0-0.3,0-0.5C73.1,62.3,73,62,73,61.7c-0.2-0.3-0.3-0.7-0.4-1.1
			c-1.5-3-4.5-5.1-8.1-5.1c-5,0-9,4-9,9s4,9,9,9c3.8,0,7-2.3,8.3-5.6c0-0.6,0.1-1.1,0.3-1.6c0-0.4,0-0.8,0.1-1.3c0-0.2,0-0.4,0-0.6
			c0-0.1,0-0.3,0-0.4C73.3,64.1,73.3,64,73.3,63.9z"/>
		<g>
			<circle class="st26" cx="64.5" cy="64.6" r="7.3"/>
			<ellipse transform="matrix(0.7071 -0.7071 0.7071 0.7071 -25.0854 59.3931)" class="st30" cx="59.2" cy="60" rx="2.7" ry="2.7"/>
			<circle class="st206" cx="62.7" cy="64.7" r="10.5"/>
			<path class="st207" d="M53,49.5c0,0,8.5,0.8,11.5-6.5"/>
		</g>
		<g>
			<g>
				<g>
					<path class="st26" d="M91,82.8c2.6-0.9,5.2-1.2,7.9-1.4c2.7-0.1,5.4-0.1,8,0.3c0.7,0.1,1.3,0.2,2,0.3c0.7,0.1,1.3,0.2,2,0.4
						l1.9,0.5l1.9,0.6c1.3,0.4,2.5,0.9,3.7,1.4c1.2,0.5,2.4,1.2,3.6,1.7c-1.2-0.6-2.4-1.2-3.6-1.7c-1.2-0.5-2.5-1-3.7-1.4l-1.9-0.6
						l-1.9-0.4c-0.6-0.2-1.3-0.3-2-0.4c-0.7-0.1-1.3-0.2-2-0.3c-2.6-0.3-5.3-0.4-7.9-0.2c-2.6,0.2-5.3,0.7-7.7,1.5l0,0
						c-0.2,0.1-0.3,0-0.4-0.2C90.8,83,90.9,82.9,91,82.8C91,82.8,91,82.8,91,82.8z"/>
				</g>
				<g>
					<path class="st26" d="M92.7,84.2c1.6-0.2,3.1,0,4.6,0.4c1.5,0.4,2.9,1,4.2,1.8c1.3,0.8,2.5,1.8,3.5,2.9c0.5,0.5,1,1.1,1.5,1.7
						c0.4,0.6,0.9,1.2,1.3,1.9c-0.4-0.6-0.9-1.2-1.3-1.8c-0.5-0.6-1-1.2-1.5-1.7c-1.1-1.1-2.3-2-3.6-2.7c-1.3-0.7-2.7-1.3-4.2-1.6
						c-1.4-0.3-3-0.4-4.4-0.2l0,0c-0.2,0-0.3-0.1-0.3-0.2S92.6,84.2,92.7,84.2C92.7,84.2,92.7,84.2,92.7,84.2z"/>
				</g>
				<g>
					<path class="st26" d="M92.2,80c2.7-0.6,5.5-1,8.2-1.2c2.8-0.2,5.5-0.3,8.3-0.2c2.8,0.1,5.5,0.5,8.2,1c2.7,0.5,5.3,1.4,7.9,2.4
						c-2.6-1-5.2-1.8-7.9-2.2c-2.7-0.5-5.4-0.8-8.2-0.8c-2.7-0.1-5.5,0-8.2,0.3c-2.7,0.3-5.5,0.7-8.1,1.3l0,0
						c-0.2,0-0.3-0.1-0.4-0.2S92,80.1,92.2,80C92.2,80,92.2,80,92.2,80z"/>
				</g>
				<g>
					<path class="st26" d="M73.5,79.6c-2.5-0.8-5.2-1.2-7.8-1.4c-2.7-0.2-5.3-0.3-8,0C52.3,78.6,47,79.8,42.1,82
						c4.9-2.2,10.2-3.6,15.5-4.1c2.7-0.3,5.4-0.3,8.1-0.1c2.7,0.2,5.4,0.6,8,1.3c0.2,0,0.2,0.2,0.2,0.4
						C73.9,79.6,73.7,79.7,73.5,79.6C73.5,79.7,73.5,79.7,73.5,79.6L73.5,79.6z"/>
				</g>
				<g>
					<path class="st26" d="M76.6,81.9c-2-0.5-4.2-0.6-6.3-0.5c-2.1,0.1-4.2,0.5-6.2,1.2c-2,0.7-3.9,1.7-5.6,3
						c-0.9,0.6-1.6,1.4-2.4,2.1c-0.8,0.7-1.4,1.6-2.1,2.4c0.7-0.8,1.3-1.7,2.1-2.5c0.8-0.7,1.5-1.5,2.4-2.2c1.7-1.4,3.6-2.4,5.6-3.1
						c2-0.8,4.2-1.2,6.3-1.4c2.2-0.1,4.3,0,6.5,0.4c0.2,0,0.3,0.2,0.2,0.3S76.8,81.9,76.6,81.9C76.7,81.9,76.7,81.9,76.6,81.9
						L76.6,81.9z"/>
				</g>
				<g>
					<path class="st26" d="M75.3,83.7c-1.4-0.2-2.9-0.1-4.3,0.2c-1.4,0.3-2.8,0.9-4,1.6c-1.2,0.8-2.3,1.7-3.3,2.9
						c-0.5,0.5-0.9,1.2-1.3,1.8c-0.4,0.6-0.7,1.3-1.1,1.9c0.3-0.6,0.7-1.3,1-1.9c0.4-0.6,0.8-1.3,1.3-1.8c0.9-1.2,2-2.2,3.2-3
						c1.2-0.8,2.6-1.4,4-1.8c1.4-0.4,2.9-0.5,4.5-0.4c0.2,0,0.3,0.2,0.3,0.3S75.5,83.8,75.3,83.7C75.3,83.7,75.3,83.7,75.3,83.7
						L75.3,83.7z"/>
				</g>
				<g>
					<g>
						<path class="st26" d="M83.8,79.9c0,0.8-0.4,1.5-0.8,2.2c-0.4,0.7-0.8,1.4-1.3,2c-0.9,1.3-2.1,2.4-3.5,3.1
							c-1.4,0.7-3.1,1-4.7,0.7c-1.6-0.3-3-1-4.3-2c-0.1-0.1-0.1-0.2,0-0.3c0.1-0.1,0.2-0.1,0.2,0c1.3,0.8,2.7,1.5,4.2,1.8
							c1.5,0.3,3,0,4.4-0.7c1.4-0.7,2.5-1.7,3.5-2.9c0.5-0.6,0.9-1.2,1.3-1.9C83.2,81.3,83.6,80.7,83.8,79.9
							C83.7,79.9,83.7,79.9,83.8,79.9C83.7,79.9,83.8,79.9,83.8,79.9z"/>
					</g>
					<g>
						<path class="st26" d="M84.1,80.4c0.7,1.3,1.6,2.5,2.5,3.6c1,1.1,2.1,2.1,3.3,2.8c1.3,0.7,2.7,1,4.1,0.9c1.4,0,2.8-0.7,4.1-1.4
							l0,0c0.1,0,0.2,0,0.2,0.1c0,0.1,0,0.2-0.1,0.2c-1.3,0.8-2.7,1.5-4.2,1.6c-1.5,0.1-3.1-0.3-4.4-1c-1.3-0.8-2.4-1.8-3.3-3
							C85.4,83.1,84.7,81.8,84.1,80.4z"/>
					</g>
					<path class="st26" d="M79.7,76.3c-0.1,0.5,0.2,1,0.6,1.4c0.6,0.5,1.3,0.6,2,0.7c1.1,0.1,1.2,0.6,1.4,1.7c0,0.3,0.8,0.2,0.8,0.1
						c0.3-1.9,2-1.5,3.1-2.1c1.4-0.7,1.3-2.1,0-2.7C85.8,74.3,80.2,73.6,79.7,76.3z"/>
					<path class="st26" d="M75.3,87.7c0,0,2.2,2.7,4.5,2.9c2,0.1,3-1.6,3.9-1.6c1.9,0,2.5,1.6,4.6,1.8c2.1,0.2,3.9-2.9,3.9-2.9
						s-3.3-1-5.6-3.5c-1-1.1-2.1-3.4-2.1-4.3c0,0-0.8-1.2-0.8,0C83.7,81.2,80.1,86.5,75.3,87.7z"/>
					<g>
						<path class="st30" d="M77.6,89.6c0,0,0.7-2,0.9-1.9c0.2,0.1,0.6,2.8,0.6,2.8S78.5,90.4,77.6,89.6z"/>
						<path class="st26" d="M77.6,89.7l0-0.2c0.1-0.4,0.2-0.8,0.4-1.2c0.1-0.2,0.1-0.4,0.2-0.6c0-0.1,0.1-0.1,0.1-0.2
							c0,0,0-0.1,0.1-0.1c0,0,0.2,0,0.2,0c0.1,0,0.1,0.1,0.1,0.1c0.1,0.1,0.1,0.2,0.1,0.3c0.2,0.8,0.4,1.7,0.5,2.5l0,0
							c0,0.1-0.1,0.2-0.2,0.3c0,0-0.1,0-0.1,0c-0.2,0-0.3-0.1-0.5-0.2c-0.1-0.1-0.3-0.1-0.4-0.2c-0.1-0.1-0.3-0.2-0.4-0.3l-0.2-0.1
							C77.6,89.8,77.6,89.8,77.6,89.7z M77.6,89.5l0.1,0c0.1,0,0.1,0,0.1,0l0.2,0.1c0.1,0.1,0.2,0.2,0.4,0.2
							c0.1,0.1,0.2,0.1,0.4,0.2c0.1,0.1,0.3,0.1,0.4,0.1l-0.3,0.3c-0.1-0.8-0.3-1.7-0.4-2.5c0-0.1-0.1-0.2-0.1-0.3c0,0,0,0,0,0
							c0,0,0.2,0,0.1,0c0,0,0,0,0,0c0,0-0.1,0.1-0.1,0.1c-0.1,0.2-0.2,0.3-0.3,0.5L77.6,89.5z"/>
					</g>
					<path class="st53" d="M88.2,90.8c-0.2-0.8-0.7-3-1.8-3.5c-1.2-0.6-2.7,0.3-2.7,0.3c-2.9-2.5-4.5,2.9-4.5,2.9l0,0
						c0.2,0.1,0.4,0.1,0.7,0.1c2,0.1,3-1.6,3.9-1.6C85.6,89,86.2,90.6,88.2,90.8z"/>
					<path class="st208" d="M75.5,87.8c0.6,0.7,2.4,2.7,4.3,2.8c2,0.1,3-1.6,3.9-1.6c1.9,0,2.5,1.6,4.6,1.8c2.1,0.2,3.9-2.9,3.9-2.9
						"/>
				</g>
			</g>
			<g>
				<path class="st26" d="M79.4,93.9c0.7,0.4,1.4,0.8,2.1,1c0.7,0.2,1.5,0.4,2.2,0.3c0.7,0,1.5-0.1,2.2-0.4c0.7-0.2,1.4-0.6,2.1-1
					l0,0c0.1,0,0.2,0,0.2,0.1c0,0.1,0,0.2,0,0.2c-0.3,0.2-0.6,0.5-1,0.7c-0.4,0.2-0.7,0.4-1.1,0.5c-0.8,0.3-1.6,0.4-2.4,0.5
					c-1.7,0-3.3-0.7-4.4-1.8c0,0,0-0.1,0-0.1C79.4,93.9,79.4,93.9,79.4,93.9L79.4,93.9z"/>
			</g>
		</g>
	</g>
</g>
<g id="mask" class="st0">
</g>
</svg>
