<?xml version="1.0" encoding="utf-8"?>
<!-- Generator: Adobe Illustrator 21.0.0, SVG Export Plug-In . SVG Version: 6.00 Build 0)  -->
<svg version="1.1" xmlns="http://www.w3.org/2000/svg" xmlns:xlink="http://www.w3.org/1999/xlink" x="0px" y="0px"
	 viewBox="0 0 176.8 172.4" style="enable-background:new 0 0 176.8 172.4;" xml:space="preserve">
<style type="text/css">
	.st0{display:none;}
	.st1{display:inline;fill:#FD9994;}
	.st2{display:inline;fill:#FFFFFF;}
	.st3{display:inline;fill:none;stroke:#FFFFFF;stroke-width:2.2363;stroke-miterlimit:10;}
	.st4{display:inline;}
	.st5{fill:none;stroke:#FFFFFF;stroke-width:2.2363;stroke-miterlimit:10;}
	.st6{fill:#FFB380;}
	.st7{fill:#D2C3DB;}
	.st8{fill:#F9ECDC;}
	.st9{fill:#FFF58B;}
	.st10{fill:#F6BC60;}
	.st11{fill:#ECF784;}
	.st12{fill:#FFDEFF;}
	.st13{fill:#AED5D2;}
	.st14{fill:#F4BD9F;}
	.st15{fill:#B9DCFF;}
	.st16{fill:#D7FFFB;}
	.st17{fill:#81D8F7;}
	.st18{fill:#E57777;}
	.st19{fill:#D9FFDB;}
	.st20{opacity:0.1;}
	.st21{fill:#5CCDFF;}
	.st22{fill:none;}
	.st23{opacity:0.2;fill:#FFFFFF;}
	.st24{opacity:0.1;fill:#002CBF;}
	.st25{fill:#1A1A1A;}
	.st26{fill:#333333;}
	.st27{fill:#FFFFDE;}
	.st28{clip-path:url(#SVGID_4_);}
	.st29{fill:none;stroke:#333333;stroke-width:0.4917;stroke-linecap:round;stroke-linejoin:round;stroke-miterlimit:10;}
	.st30{fill:#FFFFFF;}
	.st31{fill:none;stroke:#333333;stroke-width:0.8543;stroke-miterlimit:10;}
	.st32{clip-path:url(#SVGID_6_);}
	.st33{fill:#FFD7B9;}
	.st34{fill:#F0FFFF;}
	.st35{clip-path:url(#SVGID_8_);}
	.st36{fill:#FF5C5C;}
	.st37{fill:none;stroke:#333333;stroke-width:0.466;stroke-linecap:round;stroke-linejoin:round;stroke-miterlimit:10;}
	.st38{fill:none;stroke:#333333;stroke-width:0.8095;stroke-miterlimit:10;}
	.st39{clip-path:url(#SVGID_10_);}
	.st40{fill:none;stroke:#333333;stroke-width:0.7381;stroke-linecap:round;stroke-linejoin:round;stroke-miterlimit:10;}
	.st41{fill:none;stroke:#333333;stroke-width:0.8857;stroke-linecap:round;stroke-linejoin:round;stroke-miterlimit:10;}
	.st42{fill:none;stroke:#333333;stroke-width:2.6852;stroke-linecap:round;stroke-linejoin:round;stroke-miterlimit:10;}
	.st43{fill:#72B5C4;}
	.st44{fill:#5E96A5;}
	.st45{fill:none;stroke:#FFFFFF;stroke-width:2.6852;stroke-linecap:round;stroke-linejoin:round;stroke-miterlimit:10;}
	.st46{fill:none;stroke:#FFFFFF;stroke-width:1.2942;stroke-linecap:round;stroke-linejoin:round;stroke-miterlimit:10;}
	.st47{fill:none;stroke:#FFFFFF;stroke-width:0.8311;stroke-linecap:round;stroke-linejoin:round;stroke-miterlimit:10;}
	.st48{fill:#FF5C00;}
	.st49{fill:#00B4FF;}
	.st50{fill:#FF5592;}
	.st51{fill:#733FFF;}
	.st52{fill:#DDFF15;}
	.st53{fill:#BF5855;}
	.st54{fill:none;stroke:#333333;stroke-width:0.5718;stroke-miterlimit:10;}
	.st55{fill:#C8F982;}
	.st56{fill:#AEF9C0;}
	.st57{fill:none;stroke:#FFFFFF;stroke-width:1.8326;stroke-miterlimit:10;}
	.st58{fill:#9AF6F9;}
	.st59{fill:#FFACA2;}
	.st60{fill:#F9E582;}
	.st61{fill:#FFC08B;}
	.st62{fill:#EFEB6A;}
	.st63{fill:#EC987F;}
	.st64{fill:#B5FFCC;}
	.st65{fill:#FFEDA2;}
	.st66{fill:#CCE7CC;}
	.st67{fill:#ABE7AB;}
	.st68{fill:#A6A6A6;}
	.st69{clip-path:url(#SVGID_60_);}
	.st70{fill:none;stroke:#333333;stroke-width:0.4706;stroke-linecap:round;stroke-linejoin:round;stroke-miterlimit:10;}
	.st71{fill:#FFEC55;}
	.st72{fill:none;stroke:#333333;stroke-width:0.8177;stroke-miterlimit:10;}
	.st73{clip-path:url(#SVGID_62_);}
	.st74{clip-path:url(#SVGID_64_);}
	.st75{fill:#FF7A59;}
	.st76{clip-path:url(#SVGID_66_);}
	.st77{clip-path:url(#SVGID_68_);}
	.st78{fill:#B45FFF;}
	.st79{clip-path:url(#SVGID_70_);}
	.st80{opacity:0.2;fill:#002CBF;}
	.st81{fill:none;stroke:#333333;stroke-width:0.5506;stroke-linecap:round;stroke-linejoin:round;stroke-miterlimit:10;}
	.st82{clip-path:url(#SVGID_72_);}
	.st83{fill:#EAA871;}
	.st84{fill:#FFD836;}
	.st85{fill:#FF846B;}
	.st86{fill:none;stroke:#333333;stroke-width:0.804;stroke-linecap:round;stroke-linejoin:round;stroke-miterlimit:10;}
	.st87{fill:#FEFF4A;}
	.st88{fill:none;stroke:#333333;stroke-width:0.7645;stroke-linecap:round;stroke-linejoin:round;stroke-miterlimit:10;}
	.st89{fill:none;stroke:#333333;stroke-width:0.7645;stroke-miterlimit:10;}
	.st90{fill:none;stroke:#333333;stroke-width:2.9248;stroke-linecap:round;stroke-linejoin:round;stroke-miterlimit:10;}
	.st91{fill:none;stroke:#333333;stroke-width:0.945;stroke-linecap:round;stroke-linejoin:round;stroke-miterlimit:10;}
	.st92{fill:none;stroke:#333333;stroke-width:0.945;stroke-miterlimit:10;}
	.st93{fill:none;stroke:#333333;stroke-width:3.6155;stroke-linecap:round;stroke-linejoin:round;stroke-miterlimit:10;}
	.st94{fill:none;stroke:#333333;stroke-width:0.6228;stroke-miterlimit:10;}
	.st95{fill:none;stroke:#333333;stroke-width:0.7778;stroke-linecap:round;stroke-linejoin:round;stroke-miterlimit:10;}
	.st96{fill:#FF712A;}
	.st97{fill:none;stroke:#333333;stroke-width:0.7396;stroke-linecap:round;stroke-linejoin:round;stroke-miterlimit:10;}
	.st98{fill:none;stroke:#333333;stroke-width:0.7396;stroke-miterlimit:10;}
	.st99{fill:none;stroke:#333333;stroke-width:2.8295;stroke-linecap:round;stroke-linejoin:round;stroke-miterlimit:10;}
	.st100{fill:none;stroke:#333333;stroke-width:0.9142;stroke-linecap:round;stroke-linejoin:round;stroke-miterlimit:10;}
	.st101{fill:none;stroke:#333333;stroke-width:0.9142;stroke-miterlimit:10;}
	.st102{fill:none;stroke:#333333;stroke-width:3.4977;stroke-linecap:round;stroke-linejoin:round;stroke-miterlimit:10;}
	.st103{fill:none;stroke:#333333;stroke-width:0.6025;stroke-miterlimit:10;}
	.st104{fill:url(#SVGID_89_);}
	.st105{fill:url(#SVGID_90_);}
	.st106{fill:none;stroke:#333333;stroke-width:0.7438;stroke-linecap:round;stroke-linejoin:round;stroke-miterlimit:10;}
	.st107{fill:none;stroke:#333333;stroke-width:0.8926;stroke-linecap:round;stroke-linejoin:round;stroke-miterlimit:10;}
	.st108{clip-path:url(#SVGID_92_);fill:url(#SVGID_93_);}
	.st109{fill:url(#SVGID_94_);}
	.st110{fill:#52C5FF;}
	.st111{fill:none;stroke:#333333;stroke-width:0.6367;stroke-linecap:round;stroke-linejoin:round;stroke-miterlimit:10;}
	.st112{fill:none;stroke:#333333;stroke-width:2.7061;stroke-linecap:round;stroke-linejoin:round;stroke-miterlimit:10;}
	.st113{fill:none;stroke:#333333;stroke-width:0.5763;stroke-miterlimit:10;}
	.st114{fill:none;stroke:#FFFFFF;stroke-width:1.3042;stroke-linecap:round;stroke-linejoin:round;stroke-miterlimit:10;}
	.st115{fill:none;stroke:#FFFFFF;stroke-width:0.8375;stroke-linecap:round;stroke-linejoin:round;stroke-miterlimit:10;}
	.st116{clip-path:url(#SVGID_96_);}
	.st117{opacity:0.2;fill:#2E3192;}
	.st118{fill:#FEFF78;}
	.st119{opacity:0.1;fill:#2E3192;}
	.st120{fill:#FF5A50;}
	.st121{fill:none;stroke:#333333;stroke-width:0.567;stroke-linecap:round;stroke-linejoin:round;stroke-miterlimit:10;}
	.st122{fill:none;stroke:#333333;stroke-width:2.5786;stroke-linecap:round;stroke-linejoin:round;stroke-miterlimit:10;}
	.st123{fill:none;stroke:#333333;stroke-width:0.5491;stroke-miterlimit:10;}
	.st124{clip-path:url(#SVGID_98_);}
	.st125{fill:#2AD2FF;}
	.st126{fill:none;stroke:#333333;stroke-width:0.2435;stroke-miterlimit:10;}
	.st127{fill:#FFFFFF;stroke:#333333;stroke-width:0.487;stroke-linecap:round;stroke-linejoin:round;stroke-miterlimit:10;}
	.st128{clip-path:url(#SVGID_100_);}
	.st129{fill:url(#SVGID_101_);}
	.st130{opacity:0.4;fill:#FFFFFF;}
	.st131{fill:#FFDC48;}
	.st132{fill:none;stroke:#333333;stroke-width:0.5835;stroke-linecap:round;stroke-linejoin:round;stroke-miterlimit:10;}
	.st133{fill:none;stroke:#333333;stroke-width:2.6537;stroke-linecap:round;stroke-linejoin:round;stroke-miterlimit:10;}
	.st134{fill:#F0F462;}
	.st135{fill:url(#SVGID_102_);}
	.st136{fill:url(#SVGID_103_);}
	.st137{fill:#D1DADF;}
	.st138{fill:#57FFA3;}
	.st139{clip-path:url(#SVGID_105_);}
	.st140{clip-path:url(#SVGID_107_);}
	.st141{fill:#D0BBF9;}
	.st142{clip-path:url(#SVGID_109_);}
	.st143{fill:none;stroke:#333333;stroke-width:0.5867;stroke-linecap:round;stroke-linejoin:round;stroke-miterlimit:10;}
	.st144{clip-path:url(#SVGID_111_);}
	.st145{fill:none;stroke:#333333;stroke-width:0.5514;stroke-linecap:round;stroke-linejoin:round;stroke-miterlimit:10;}
	.st146{fill:#D1E9D3;}
	.st147{clip-path:url(#SVGID_113_);}
	.st148{fill:none;stroke:#333333;stroke-width:0.7684;stroke-linecap:round;stroke-linejoin:round;stroke-miterlimit:10;}
	.st149{fill:none;stroke:#333333;stroke-width:0.7684;stroke-miterlimit:10;}
	.st150{fill:none;stroke:#333333;stroke-width:2.9398;stroke-linecap:round;stroke-linejoin:round;stroke-miterlimit:10;}
	.st151{clip-path:url(#SVGID_115_);}
	.st152{fill:#FF66F8;}
	.st153{fill:none;stroke:#333333;stroke-width:0.7542;stroke-linecap:round;stroke-linejoin:round;stroke-miterlimit:10;}
	.st154{fill:none;stroke:#333333;stroke-width:0.9051;stroke-linecap:round;stroke-linejoin:round;stroke-miterlimit:10;}
	.st155{fill:none;stroke:#333333;stroke-width:0.5146;stroke-linecap:round;stroke-linejoin:round;stroke-miterlimit:10;}
	.st156{fill:none;stroke:#333333;stroke-width:0.6033;stroke-linecap:round;stroke-linejoin:round;stroke-miterlimit:10;}
	.st157{fill:none;stroke:#333333;stroke-width:2.7439;stroke-linecap:round;stroke-linejoin:round;stroke-miterlimit:10;}
	.st158{fill:#333333;stroke:#333333;stroke-width:1.0293;stroke-linecap:round;stroke-linejoin:round;stroke-miterlimit:10;}
	.st159{fill:#FF5F2A;}
	.st160{fill:none;stroke:#333333;stroke-width:0.5965;stroke-linecap:round;stroke-linejoin:round;stroke-miterlimit:10;}
	.st161{fill:#F9CC3E;}
	.st162{clip-path:url(#SVGID_121_);}
	.st163{fill:#70E1FF;}
	.st164{fill:none;stroke:#333333;stroke-width:0.5717;stroke-linecap:round;stroke-linejoin:round;stroke-miterlimit:10;}
	.st165{fill:none;stroke:#333333;stroke-width:2.6004;stroke-linecap:round;stroke-linejoin:round;stroke-miterlimit:10;}
	.st166{clip-path:url(#SVGID_123_);}
	.st167{fill:#8F61FF;}
	.st168{clip-path:url(#SVGID_125_);}
	.st169{clip-path:url(#SVGID_127_);}
	.st170{fill:#FFEBEB;}
	.st171{clip-path:url(#SVGID_129_);}
	.st172{clip-path:url(#SVGID_131_);}
	.st173{fill:#F47D62;}
	.st174{fill:none;stroke:#333333;stroke-width:0.7188;stroke-linecap:round;stroke-linejoin:round;stroke-miterlimit:10;}
	.st175{fill:none;stroke:#333333;stroke-width:0.7188;stroke-miterlimit:10;}
	.st176{fill:none;stroke:#333333;stroke-width:2.7502;stroke-linecap:round;stroke-linejoin:round;stroke-miterlimit:10;}
	.st177{fill:#85ACB5;}
	.st178{clip-path:url(#SVGID_133_);}
	.st179{fill:#D5F2F7;}
	.st180{fill:#FF694A;}
	.st181{fill:none;stroke:#333333;stroke-width:0.5693;stroke-linecap:round;stroke-linejoin:round;stroke-miterlimit:10;}
	.st182{fill:#FFDF15;}
	.st183{fill:none;stroke:#333333;stroke-width:0.6674;stroke-linecap:round;stroke-linejoin:round;stroke-miterlimit:10;}
	.st184{fill:none;stroke:#333333;stroke-width:3.0352;stroke-linecap:round;stroke-linejoin:round;stroke-miterlimit:10;}
	.st185{clip-path:url(#SVGID_135_);}
	.st186{clip-path:url(#SVGID_137_);}
	.st187{fill:none;stroke:#333333;stroke-width:0.5248;stroke-linecap:round;stroke-linejoin:round;stroke-miterlimit:10;}
	.st188{fill:#FFD33A;}
	.st189{fill:none;stroke:#333333;stroke-width:2.7983;stroke-linecap:round;stroke-linejoin:round;stroke-miterlimit:10;}
	.st190{fill:none;stroke:#333333;stroke-width:0.7692;stroke-linecap:round;stroke-linejoin:round;stroke-miterlimit:10;}
	.st191{fill:none;stroke:#333333;stroke-width:0.5959;stroke-miterlimit:10;}
	.st192{clip-path:url(#SVGID_143_);}
	.st193{fill:#FFE267;}
	.st194{clip-path:url(#SVGID_149_);}
	.st195{fill:#FFEEAA;}
	.st196{opacity:0.7;fill:url(#SVGID_152_);}
	.st197{fill:none;stroke:#333333;stroke-width:0.611;stroke-miterlimit:10;}
	.st198{clip-path:url(#SVGID_154_);}
	.st199{opacity:0.7;fill:url(#SVGID_157_);}
	.st200{fill:#EABBFC;}
	.st201{opacity:0.7;fill:url(#SVGID_160_);}
	.st202{opacity:0.7;fill:url(#SVGID_163_);}
	.st203{opacity:0.7;fill:url(#SVGID_166_);}
	.st204{opacity:0.7;fill:url(#SVGID_169_);}
	.st205{clip-path:url(#SVGID_171_);}
	.st206{fill:none;stroke:#333333;stroke-width:0.5899;stroke-linecap:round;stroke-linejoin:round;stroke-miterlimit:10;}
	.st207{fill:none;stroke:#333333;stroke-width:2.6828;stroke-linecap:round;stroke-linejoin:round;stroke-miterlimit:10;}
	.st208{fill:none;stroke:#333333;stroke-width:0.5713;stroke-miterlimit:10;}
	.st209{clip-path:url(#SVGID_173_);}
	.st210{clip-path:url(#SVGID_175_);}
	.st211{clip-path:url(#SVGID_177_);}
	.st212{fill:#FFAFC3;}
	.st213{fill:#A0D3FF;}
	.st214{fill:none;stroke:#333333;stroke-width:0.7262;stroke-linecap:round;stroke-linejoin:round;stroke-miterlimit:10;}
	.st215{fill:none;stroke:#333333;stroke-width:0.6906;stroke-miterlimit:10;}
	.st216{fill:none;stroke:#333333;stroke-width:0.8536;stroke-miterlimit:10;}
	.st217{fill:#333333;stroke:#333333;stroke-width:0.991;stroke-linecap:round;stroke-linejoin:round;stroke-miterlimit:10;}
	.st218{clip-path:url(#SVGID_179_);}
	.st219{clip-path:url(#SVGID_181_);}
	.st220{fill:#FD9994;}
	.st221{opacity:0.2;}
	.st222{fill:#2E3192;}
	.st223{display:inline;fill:#FF5B00;}
</style>
<g id="site">
</g>
<g id="kitties">
	<g>
		<path class="st26" d="M59.4,33.1c0,0-13.4-0.1-14.1-6.2c-0.5-4.4,9.7-8.7,9.7-8.7s-9.4,1-13.1,5.4c-3.7,4.5-0.6,12.7,6.8,16.8
			s8.6,4.2,8.6,4.2L59.4,33.1z"/>
		<g>
			<path class="st26" d="M55.2,18.4c-1.1,0.5-2.2,1.1-3.3,1.8c-1.1,0.6-2.1,1.3-3.1,2.1c-1,0.8-1.9,1.6-2.5,2.6
				c-0.3,0.5-0.5,1-0.5,1.5c0,0.5,0.1,1.1,0.4,1.5c0.5,1,1.5,1.7,2.5,2.3c1,0.6,2.2,1,3.4,1.4c2.4,0.7,4.8,1.1,7.3,1.3
				c0.1,0,0.2,0.1,0.2,0.2c0,0.1-0.1,0.2-0.2,0.2c-2.5,0.1-5-0.3-7.5-0.9c-1.2-0.3-2.5-0.7-3.6-1.3c-1.1-0.6-2.3-1.4-3-2.7
				c-0.3-0.6-0.5-1.3-0.5-2.1c0.1-0.7,0.4-1.4,0.7-2c0.7-1.1,1.7-2,2.7-2.8c2-1.5,4.3-2.7,6.6-3.7c0.1-0.1,0.3,0,0.4,0.2
				C55.4,18.2,55.3,18.4,55.2,18.4L55.2,18.4z"/>
		</g>
		<g>
			<path class="st26" d="M55.1,18.5c-1.8,0.1-3.6,0.6-5.3,1.2c-1.7,0.6-3.4,1.4-4.9,2.3c-0.8,0.5-1.5,1-2.2,1.6
				c-0.6,0.6-1.2,1.3-1.5,2.1c-0.7,1.6-0.7,3.4-0.1,5c0.5,1.7,1.5,3.2,2.6,4.6c1.1,1.4,2.4,2.7,3.9,3.8c1.4,1.1,3,2.1,4.6,2.9
				c1.6,0.8,3.4,1.4,5.2,1.5l0,0c0.1,0,0.2,0.1,0.2,0.2c0,0.1-0.1,0.2-0.2,0.2c-1.9,0-3.7-0.6-5.4-1.3c-1.7-0.7-3.3-1.7-4.9-2.8
				c-3-2.2-5.7-5.1-6.9-8.8c-0.6-1.8-0.6-3.9,0.2-5.7c0.4-0.9,1-1.7,1.8-2.3c0.7-0.7,1.6-1.1,2.3-1.6c3.2-1.9,6.8-3.2,10.6-3.3
				c0.2,0,0.3,0.1,0.3,0.3C55.4,18.3,55.2,18.4,55.1,18.5L55.1,18.5z"/>
		</g>
		<path class="st26" d="M116.9,33.1c0,0,13.4-0.1,14.1-6.2c0.5-4.4-9.7-8.7-9.7-8.7s9.4,1,13.1,5.4s0.6,12.7-6.8,16.8
			c-7.4,4.1-8.6,4.2-8.6,4.2L116.9,33.1z"/>
		<g>
			<path class="st26" d="M121.3,17.9c2.3,1,4.6,2.2,6.6,3.7c1,0.8,2,1.6,2.7,2.8c0.4,0.6,0.7,1.2,0.7,2c0.1,0.8-0.1,1.5-0.5,2.1
				c-0.7,1.2-1.8,2.1-3,2.7c-1.2,0.6-2.4,1-3.6,1.3c-2.5,0.6-5,0.9-7.5,0.9c-0.1,0-0.2-0.1-0.2-0.2c0-0.1,0.1-0.2,0.2-0.2
				c2.5-0.1,4.9-0.5,7.3-1.3c1.2-0.4,2.3-0.8,3.4-1.4c1-0.6,2-1.3,2.5-2.3c0.3-0.5,0.4-1,0.4-1.5c0-0.5-0.2-1-0.5-1.5
				c-0.6-1-1.5-1.8-2.5-2.6c-1-0.8-2-1.4-3.1-2.1c-1.1-0.6-2.2-1.2-3.3-1.8l0,0c-0.1-0.1-0.2-0.2-0.1-0.4
				C121,17.9,121.2,17.8,121.3,17.9z"/>
		</g>
		<g>
			<path class="st26" d="M121.2,17.9c3.8,0.1,7.4,1.5,10.6,3.3c0.8,0.5,1.6,1,2.3,1.6c0.7,0.6,1.3,1.4,1.8,2.3
				c0.9,1.8,0.8,3.9,0.2,5.7c-1.2,3.7-3.9,6.6-6.9,8.8c-1.5,1.1-3.1,2-4.9,2.8c-1.7,0.7-3.5,1.3-5.4,1.3c-0.1,0-0.2-0.1-0.2-0.2
				c0-0.1,0.1-0.2,0.2-0.2l0,0c1.8-0.1,3.5-0.8,5.2-1.5c1.6-0.8,3.2-1.8,4.6-2.9c1.5-1.1,2.8-2.4,3.9-3.8c1.1-1.4,2.1-3,2.6-4.6
				c0.5-1.7,0.6-3.5-0.1-5c-0.4-0.8-0.9-1.5-1.5-2.1c-0.6-0.6-1.4-1.1-2.2-1.6c-1.5-0.9-3.2-1.7-4.9-2.3c-1.7-0.6-3.5-1.1-5.3-1.2
				l0,0c-0.2,0-0.3-0.1-0.3-0.3C120.9,18,121.1,17.9,121.2,17.9z"/>
		</g>
		<path class="st19" d="M140.6,78.6c0,0,1.3-5.8-1.6-14.1c-1.7-4.8-5.5-9.1-8.3-12c0,0,4.7,2.8,7.9,6.6c0,0-2.2-9.6-7.8-15.3
			c-4.8-4.9-9.6-6.3-9.6-6.3s6,0.9,9.2,1.9c0,0-2.4-2.9-9.3-5.9c-6.9-2.9-9.3-2.5-9.3-2.5s3-1,7.4-0.5c0,0-1.8-2.4-7.5-3.2
			c-5.7-0.8-13.2,0.1-13.2,0.1s4.4-2.8,11.6-3.1c0,0-3.9-3-9.9-2.7s-11.1,4.2-11.1,4.2s-5.5-3.4-10.4-4.2c-4.9-0.7-9.2,0.7-10.7,1.7
			c0,0,7.1,0.6,11.6,3.4c0,0-6.9-0.7-11.4-0.4c-4.6,0.3-7.9,1-9.7,2.8c0,0,5-0.2,7.2,0.7c0,0-7.7,1.4-11.4,3.3
			c-3.6,1.8-5,2.4-6.9,4.1c0,0,6.4-1.3,8.6-1.3c0,0-7,3.6-9.5,6.4c-2.5,2.8-5.2,6.6-6.4,9.2c-1.2,2.6-2.3,5.1-2.3,5.1s5.2-5,7.6-5.8
			c0,0-5.2,5.5-6.6,8.2c-1,1.9-3.2,5.8-4.1,12.6c-0.5,3.8-0.1,4.2-0.2,4.5c0.2-0.4,3.3-5.2,4.4-5.7c0,0-2.2,7.2-1.8,12.1
			c0.4,5.5,3.5,11.7,3.5,11.7s0.9-6.2,1.5-7.3c0,0-0.3,4.2,1.2,9.2c1.6,4.9,3.5,6.8,3.5,6.8s0.5-0.4,0.8-3.5l0.5-3.7
			c0,0,1.7,4.5,4,8c2.3,3.5,3.5,4.3,3.5,4.3s5.5-2.9,9.6-7.9l1,1.8c-1.3,3.9-6.6,15.4-9,22.8c-2.9,8.9-4.8,14.7-2.6,20.5
			c2.2,5.8,8.3,6.9,16,7.2l0.1,1.5c0,0-3.1,1.1-1.9,3s4.2,1.7,4.8,1c0.6-0.8,2.2-5.5,2.2-5.5l10.7,0.1l13-0.1h2.1
			c0,0,1.2,5.2,2.1,5.6c0.9,0.4,3.5,0.2,4-0.3c0.5-0.5,1.1-1.8,0.4-2.6c-0.7-0.8-1.5-1.2-1.5-1.2l-0.1-1.5c0,0,8-0.3,10.7-1.5
			s5.3-4.9,5.7-6.9c0.4-2,0.4-6.2-0.1-8.1c-0.6-2-2.6-9.5-2.6-9.5l-3.3-10.4l-3.9-9.5c0.2-0.8,1.5,1.1,5.1,3.3c0,0,6.6-6.2,8.2-12
			c0,0,0,5.4,0.8,7.7c0,0,3.2-3.3,4.8-9.8c0.8-2.9,0.6-5.2,0.7-6l1.1,7.7c0,0,3.6-7.3,4.4-12.9c0.6-4.2-1.6-11.3-1.6-11.3
			S138.7,74.5,140.6,78.6z"/>
		<path class="st117" d="M66.2,101.3l-1.7,4c0,0,6.8,5.3,11.8,5.8c0,0,0-0.9-0.3-1.8c0,0,3.3,3.9,7.4,4.4c0,0,0.5-0.4,0.7-0.9
			c0,0,1.9,2.3,2.7,2.3s2.7-1.7,3-2.2c0,0,0.7,0.9,1.1,0.9c0.4,0,4.9-1.7,7.3-4.3c0,0,0.3,0.7,0.6,0.7c0.3,0,6.2,0.7,10.9-5l5.5,5.7
			l-2.4-5.9l-3.7-4.2c0,0-3.5,4.1-6.3,6.1l-3.6,1.9l0.6-2.7l-3.9,3.6c0,0-4,2.6-4.9,2.7c0,0-0.7-0.9-0.9-2.1c0,0-2.7,3.4-3.4,3.7
			c0,0-2.5-2.1-3-4c0,0-0.5,1.7-1,2.3c0,0-3.3-1.8-5.1-3.4c-1.7-1.7-3.7-3.8-3.7-3.8l0.8,3.1c0,0-2.3-1-4.7-3.1
			C67.7,102.9,66.2,101.3,66.2,101.3z"/>
		<path class="st118" d="M35.3,77C35.3,77.1,35.3,77.1,35.3,77C35.3,77.1,35.3,77.2,35.3,77z"/>
		<path class="st117" d="M47.3,36.9c0,0,7-3.5,14-2.7l-4.6,1.3L47.3,36.9"/>
		<path class="st117" d="M58.4,28.9c0,0,4.4-2.4,15.2,1.1c-0.4-0.1-7.5-0.2-7.5-0.2S61.8,28.4,58.4,28.9"/>
		<path class="st117" d="M34.5,75.8c0,0,1-7.1,6.5-9.8l-1.9,4L38,70.8l-3.2,4.9L34.5,75.8"/>
		<path class="st117" d="M37.8,56.3c0,0,3-7,11.7-8.3c0,0-2.6,1.6-3.9,2.8l-1.3,0.2l-3.8,2.8L37.8,56.3z"/>
		<path class="st117" d="M40.5,93.7c0.1,0.2-2.5-8.2,3.3-13.6l0,0.1c-0.4,1.1-0.7,2.3-1,3.5h0L40.5,93.7"/>
		<path class="st117" d="M46.8,102.5c0,0-1.3-6.6,0.4-10.3l0.6,2.3L46.8,102.5z"/>
		<path class="st117" d="M62,103.2c-1.9,2.1-6.1,4.4-6.1,4.4l-0.4-0.1c0,0,3.2-2.6,5.5-5.1c2.2-2.3,3.4-4.3,3.4-4.3
			c0.6,1.4,1,1.6,1,1.6L62,103.2z"/>
		<path class="st117" d="M68,23.1c0,0,7.6-2.4,16.1,4.6c-0.6,0-4.5-1.1-4.5-1.1s-3.9-1.8-5.3-2.2c-1.6-0.5-6.5-1.1-6.5-1.1L68,23.1z
			"/>
		<g>
			<path class="st117" d="M133.7,96.1c-0.1,0.2,3.1-8-2.4-13.8l0,0.1c0.3,1.2,0.6,2.4,0.7,3.6l0,0L133.7,96.1"/>
			<path class="st117" d="M126.9,104.5c0,0,1.8-6.5,0.3-10.3l-0.8,2.3L126.9,104.5z"/>
			<path class="st117" d="M112.1,104.6c1.8,2.2,5.9,4.6,5.9,4.6l0.4-0.1c0,0-3.1-2.7-5.3-5.3c-2.1-2.4-3.2-4.4-3.2-4.4
				c-0.7,1.4-1,1.6-1,1.6L112.1,104.6z"/>
			<path class="st117" d="M110.2,24.5c0,0-7.4-2.9-16.4,3.5c0.6,0,4.6-0.8,4.6-0.8s4-1.5,5.4-1.8c1.6-0.3,6.6-0.7,6.6-0.7
				L110.2,24.5z"/>
			<path class="st117" d="M130.1,39.2c0,0-6.8-3.9-13.8-3.6l4.5,1.6L130.1,39.2"/>
			<path class="st117" d="M119.4,30.5c0,0-4.2-2.7-15.3,0.1c0.4-0.1,7.5,0.3,7.5,0.3S116,29.8,119.4,30.5"/>
			<path class="st117" d="M140.7,78.4c0,0-0.5-7.1-5.8-10.3l1.6,4.1l1.1,0.9l2.8,5.1L140.7,78.4"/>
			<path class="st117" d="M138.3,58.7c0,0-2.5-7.1-11.1-9.1c0,0,2.5,1.8,3.7,3.1l1.2,0.3l3.6,3L138.3,58.7z"/>
		</g>
		<g>
			<path class="st26" d="M89,25.7c-1.6-1.1-3.3-1.9-5-2.6c-1.8-0.7-3.6-1.2-5.4-1.4c-0.9-0.2-1.9-0.2-2.8-0.2
				c-0.9,0.1-1.9,0.1-2.8,0.3c-1.9,0.2-3.6,0.9-5.4,1.7l0,0c-0.1,0-0.2,0-0.2-0.1c0-0.1,0-0.2,0.1-0.2c1.7-0.9,3.5-1.7,5.4-2
				c0.5-0.1,1-0.2,1.4-0.2c0.5,0,1-0.1,1.5-0.1c1,0,2,0,2.9,0.2c1.9,0.3,3.8,0.8,5.6,1.6c1.8,0.8,3.5,1.8,5,3c0.1,0.1,0.1,0.2,0,0.2
				C89.2,25.8,89.1,25.8,89,25.7L89,25.7z"/>
		</g>
		<g>
			<path class="st26" d="M67.5,23.1c1.1-0.1,2.3,0,3.4,0.1c1.1,0.1,2.2,0.4,3.3,0.7c1.1,0.3,2.1,0.7,3.2,1.2c1,0.5,2,1,2.9,1.6
				c0.1,0.1,0.1,0.2,0.1,0.3C80.2,27,80.1,27,80.1,27l0,0c-1-0.4-2-0.9-3-1.3c-1-0.4-2.1-0.7-3.1-1c-1-0.3-2.1-0.6-3.2-0.8
				c-1.1-0.2-2.2-0.4-3.2-0.5l0,0c-0.1,0-0.2-0.1-0.2-0.2C67.3,23.2,67.4,23.1,67.5,23.1z"/>
		</g>
		<g>
			<path class="st26" d="M80.1,27c-1.9-0.2-3.8-0.4-5.6-0.4c-1.9-0.1-3.8-0.1-5.6,0c-1.9,0.1-3.7,0.3-5.6,0.7
				c-1.8,0.4-3.6,1-5.1,2.1c-0.1,0.1-0.2,0-0.3,0c-0.1-0.1,0-0.2,0-0.3c1.4-1.3,3.3-2,5.2-2.5c1.9-0.5,3.8-0.7,5.7-0.8
				c1.9-0.1,3.8,0,5.7,0.1c1.9,0.2,3.8,0.4,5.6,0.8c0.1,0,0.2,0.1,0.1,0.2C80.3,26.9,80.2,27,80.1,27z"/>
		</g>
		<g>
			<path class="st26" d="M58,29c1.4-0.4,2.8-0.4,4.2-0.4c1.4,0.1,2.9,0.3,4.2,0.9c0.1,0,0.1,0.2,0.1,0.2c0,0.1-0.1,0.1-0.2,0.1l0,0
				c-0.7-0.1-1.4-0.2-2.1-0.3c-0.7-0.1-1.4-0.2-2.1-0.2c-1.4-0.1-2.8-0.1-4.2-0.1l0,0c-0.1,0-0.2-0.1-0.2-0.2C57.9,29.1,58,29,58,29
				z"/>
		</g>
		<g>
			<path class="st26" d="M66.4,29.9c-1.8,0.1-3.5,0.4-5.3,0.9c-1.7,0.4-3.4,0.9-5.1,1.6c-1.6,0.7-3.3,1.4-4.8,2.3
				c-1.6,0.8-3.1,1.8-4.6,2.8l0,0c-0.1,0.1-0.2,0-0.3-0.1c-0.1-0.1,0-0.2,0-0.2c0.7-0.6,1.4-1.1,2.1-1.7c0.8-0.5,1.5-1,2.3-1.5
				c1.5-1,3.2-1.7,4.9-2.4c1.7-0.6,3.4-1.2,5.2-1.5c1.8-0.4,3.6-0.6,5.4-0.5c0.1,0,0.2,0.1,0.2,0.2C66.6,29.8,66.5,29.9,66.4,29.9
				L66.4,29.9z"/>
		</g>
		<g>
			<path class="st26" d="M46.5,37.1c1.6-0.7,3.3-1.1,5.1-1.4c0.9-0.1,1.7-0.3,2.6-0.3c0.9-0.1,1.8-0.1,2.7,0c0.1,0,0.2,0.1,0.2,0.2
				c0,0.1-0.1,0.2-0.2,0.2c-1.7,0.2-3.4,0.4-5.1,0.8c-1.7,0.3-3.4,0.7-5.1,1c-0.1,0-0.2,0-0.2-0.1C46.4,37.2,46.5,37.1,46.5,37.1z"
				/>
		</g>
		<g>
			<path class="st26" d="M56.9,35.7c-2.3,0.8-4.6,2-6.7,3.3c-2.1,1.4-4,3-5.5,4.9c-1.6,1.9-2.8,4.1-4,6.3c-1.2,2.2-2.2,4.5-3.1,6.8
				l0,0c0,0.1-0.1,0.1-0.2,0.1c-0.1,0-0.1-0.1-0.1-0.2c0.8-2.4,1.7-4.8,2.8-7c1.1-2.3,2.4-4.5,4-6.5c0.8-1,1.7-1.9,2.7-2.8
				c1-0.8,2-1.6,3.1-2.2c2.2-1.3,4.5-2.4,7-3.1c0.1,0,0.2,0,0.2,0.1C57.1,35.6,57,35.7,56.9,35.7L56.9,35.7z"/>
		</g>
		<g>
			<path class="st26" d="M37.3,56.9c1.1-1.5,2.4-2.9,3.8-4.1c0.7-0.6,1.5-1.1,2.3-1.6c0.8-0.5,1.7-0.9,2.6-1.1c0.1,0,0.2,0,0.2,0.1
				c0,0.1,0,0.2-0.1,0.2l0,0c-1.6,0.9-3.1,1.9-4.5,3.1c-1.4,1.1-2.7,2.4-4.1,3.7l0,0c-0.1,0.1-0.2,0.1-0.2,0
				C37.3,57,37.3,57,37.3,56.9z"/>
		</g>
		<g>
			<path class="st26" d="M46.2,50.4c-0.9,0.8-1.7,1.7-2.6,2.6c-0.8,0.9-1.6,1.8-2.3,2.8c-1.5,1.9-2.8,4-3.7,6.2
				c-0.9,2.2-1.5,4.6-2,7c-0.4,2.4-0.8,4.8-0.8,7.3l0,0c0,0.1-0.1,0.2-0.2,0.2c-0.1,0-0.2-0.1-0.2-0.2c-0.1-2.5,0.1-5,0.5-7.4
				c0.4-2.4,1-4.8,2-7.2c1-2.3,2.4-4.4,3.9-6.3c1.6-1.9,3.3-3.7,5.2-5.2c0.1-0.1,0.2,0,0.2,0C46.3,50.2,46.3,50.3,46.2,50.4
				L46.2,50.4z"/>
		</g>
		<g>
			<path class="st26" d="M34.4,76.2c0.4-1.3,1.1-2.5,1.8-3.7c0.4-0.6,0.8-1.1,1.3-1.7c0.5-0.5,1-1,1.6-1.4c0.1-0.1,0.2,0,0.3,0.1
				c0,0.1,0,0.2,0,0.2l0,0c-0.9,1-1.6,2.1-2.4,3.2c-0.8,1.1-1.4,2.3-2.2,3.4c-0.1,0.1-0.2,0.1-0.2,0C34.4,76.3,34.4,76.2,34.4,76.2z
				"/>
		</g>
		<g>
			<path class="st26" d="M39.3,69.6c-0.7,2-1.2,4.1-1.5,6.1c-0.3,2.1-0.5,4.2-0.3,6.3c0.2,2.1,0.7,4.2,1.3,6.2c0.6,2,1.2,4.1,2.1,6
				l0,0c0,0.1,0,0.2-0.1,0.2c-0.1,0-0.2,0-0.2-0.1c-1-1.9-1.8-3.9-2.4-6c-0.6-2.1-1.1-4.1-1.4-6.3c-0.2-2.2,0-4.4,0.4-6.5
				c0.4-2.1,1.1-4.2,1.9-6.1c0-0.1,0.1-0.1,0.2-0.1C39.3,69.4,39.4,69.5,39.3,69.6L39.3,69.6z"/>
		</g>
		<g>
			<path class="st26" d="M40.5,94.3c0-1.8,0.2-3.6,0.5-5.4c0.2-0.9,0.4-1.8,0.6-2.7c0.3-0.9,0.6-1.7,1.1-2.5
				c0.1-0.1,0.2-0.1,0.3-0.1c0.1,0,0.1,0.1,0.1,0.2c-0.3,0.8-0.5,1.7-0.7,2.6c-0.2,0.9-0.4,1.7-0.5,2.6c-0.4,1.8-0.6,3.5-1,5.3
				c0,0.1-0.1,0.2-0.2,0.1C40.6,94.4,40.5,94.4,40.5,94.3z"/>
		</g>
		<g>
			<path class="st26" d="M43,83.8c-0.5,1.6-0.6,3.2-0.6,4.9c0,1.6,0.3,3.3,0.7,4.9c0.4,1.6,0.9,3.2,1.6,4.7c0.3,0.8,0.7,1.5,1.1,2.3
				l1.2,2.2l0,0c0,0.1,0,0.2-0.1,0.3c-0.1,0-0.2,0-0.2-0.1c-0.5-0.7-0.9-1.4-1.4-2.1c-0.4-0.7-0.8-1.5-1.2-2.2
				c-0.7-1.5-1.3-3.1-1.7-4.8c-0.4-1.7-0.6-3.4-0.6-5.1c0-1.7,0.3-3.4,0.9-5c0-0.1,0.1-0.1,0.2-0.1C43,83.6,43.1,83.7,43,83.8
				L43,83.8z"/>
		</g>
		<g>
			<path class="st26" d="M46.7,102.7c0.1-0.7,0.2-1.4,0.3-2c0.1-0.7,0.2-1.4,0.3-2.1c0.2-1.4,0.3-2.7,0.4-4.1c0-0.1,0.1-0.2,0.2-0.2
				c0.1,0,0.2,0.1,0.2,0.2c0.1,0.7,0.1,1.4,0.1,2.1c0,0.7-0.1,1.4-0.1,2.1c-0.1,0.7-0.2,1.4-0.4,2.1c-0.2,0.7-0.4,1.4-0.7,2
				c0,0.1-0.1,0.1-0.2,0.1C46.7,102.9,46.7,102.8,46.7,102.7L46.7,102.7z"/>
		</g>
		<g>
			<path class="st26" d="M48,94.4c0.4,1.2,1,2.3,1.5,3.5c0.6,1.1,1.1,2.3,1.8,3.3c0.6,1.1,1.3,2.1,2.1,3.2c0.7,1,1.5,2,2.3,3l0,0
				c0.1,0.1,0.1,0.2,0,0.3c-0.1,0.1-0.2,0.1-0.2,0c-1-0.9-1.9-1.8-2.7-2.8c-0.8-1-1.5-2.1-2.2-3.2c-0.6-1.1-1.2-2.3-1.7-3.5
				c-0.5-1.2-0.9-2.4-1.2-3.7c0-0.1,0-0.2,0.1-0.2C47.9,94.3,48,94.4,48,94.4L48,94.4z"/>
		</g>
		<g>
			<path class="st26" d="M55.6,107.4c0.9-0.4,1.8-1,2.6-1.6c0.8-0.6,1.7-1.2,2.4-1.9c1.6-1.3,3-2.8,4.4-4.3c0.1-0.1,0.2-0.1,0.3,0
				c0.1,0.1,0.1,0.2,0,0.2c-0.3,0.4-0.6,0.9-0.9,1.3c-0.3,0.4-0.7,0.8-1,1.2c-0.7,0.8-1.5,1.5-2.3,2.2c-0.8,0.7-1.7,1.3-2.6,1.9
				c-0.9,0.5-1.9,1-2.9,1.3c-0.1,0-0.2,0-0.2-0.1C55.5,107.5,55.5,107.4,55.6,107.4L55.6,107.4z"/>
		</g>
		<g>
			<path class="st26" d="M65.4,99.6c0.7,0.8,1.4,1.6,2.1,2.4c0.7,0.8,1.4,1.6,2.2,2.3c0.8,0.7,1.6,1.4,2.4,2
				c0.8,0.6,1.7,1.2,2.7,1.7l0,0c0.1,0,0.1,0.2,0.1,0.3c0,0.1-0.1,0.1-0.2,0.1c-1-0.3-2-0.8-3-1.4c-0.9-0.6-1.8-1.3-2.6-2
				c-1.6-1.5-3-3.2-4-5.1c0-0.1,0-0.2,0.1-0.2C65.2,99.5,65.3,99.5,65.4,99.6L65.4,99.6z"/>
		</g>
		<g>
			<path class="st26" d="M74.6,108.2c-0.2-0.6-0.3-1.2-0.5-1.8c-0.1-0.3-0.2-0.6-0.3-0.9c-0.1-0.3-0.2-0.6-0.3-0.9l0,0
				c0-0.1,0-0.2,0.1-0.2c0.1,0,0.1,0,0.2,0c0.5,0.5,0.8,1.1,1,1.7c0.2,0.6,0.3,1.3,0.1,2c0,0.1-0.1,0.2-0.2,0.1
				C74.6,108.3,74.6,108.3,74.6,108.2L74.6,108.2z"/>
		</g>
		<g>
			<path class="st26" d="M73.8,104.5c0.7,0.7,1.4,1.4,2.1,2.2c0.7,0.7,1.4,1.4,2.2,2.1c1.5,1.3,3,2.5,4.8,3.5l0,0
				c0.1,0,0.1,0.2,0.1,0.3c0,0.1-0.1,0.1-0.2,0.1c-1-0.3-1.9-0.8-2.8-1.3c-0.9-0.6-1.6-1.2-2.4-1.9c-1.5-1.4-2.9-2.9-4-4.6
				c-0.1-0.1,0-0.2,0.1-0.2C73.7,104.4,73.7,104.4,73.8,104.5L73.8,104.5z"/>
		</g>
		<g>
			<path class="st26" d="M82.6,112.2c0-0.2,0.1-0.4,0.1-0.7c0-0.2,0.1-0.4,0.1-0.7c0.1-0.4,0.2-0.9,0.5-1.3c0.1-0.1,0.2-0.1,0.3-0.1
				c0.1,0,0.1,0.1,0.1,0.1c0.1,0.3,0.1,0.5,0.1,0.8c0,0.3-0.1,0.5-0.1,0.7c-0.1,0.2-0.2,0.5-0.3,0.7c-0.1,0.2-0.3,0.4-0.5,0.6
				c-0.1,0.1-0.2,0-0.2,0C82.6,112.4,82.6,112.3,82.6,112.2L82.6,112.2z"/>
		</g>
		<g>
			<path class="st26" d="M83.7,109.5c0.5,0.8,1,1.5,1.5,2.3c0.2,0.4,0.5,0.7,0.8,1.1c0.3,0.4,0.6,0.7,0.8,1.1l0,0
				c0.1,0.1,0,0.2,0,0.3c-0.1,0-0.1,0-0.2,0c-0.8-0.5-1.5-1.2-2.1-2c-0.5-0.8-1-1.7-1.2-2.6c0-0.1,0-0.2,0.1-0.2
				C83.6,109.4,83.6,109.5,83.7,109.5L83.7,109.5z"/>
		</g>
		<g>
			<g>
				<path class="st26" d="M89,25.4c1.6-1.2,3.3-2,5.1-2.7c1.8-0.7,3.7-1.1,5.7-1.3c1-0.1,2,0,2.9,0c0.5,0,1,0.1,1.5,0.2
					c0.5,0,1,0.2,1.4,0.3c1.9,0.4,3.7,1.3,5.3,2.3c0.1,0.1,0.1,0.2,0.1,0.3c0,0.1-0.2,0.1-0.2,0.1l0,0c-1.7-0.8-3.4-1.6-5.3-1.9
					c-0.9-0.2-1.8-0.3-2.8-0.4c-0.9,0-1.9-0.1-2.8,0c-1.9,0.1-3.7,0.5-5.5,1.1c-1.8,0.6-3.5,1.4-5.2,2.3l0,0c-0.1,0-0.2,0-0.2-0.1
					C88.9,25.6,88.9,25.5,89,25.4z"/>
			</g>
			<g>
				<path class="st26" d="M110.8,24.6c-1.1,0-2.2,0.2-3.3,0.3c-1.1,0.2-2.2,0.3-3.2,0.6c-1.1,0.2-2.1,0.5-3.2,0.9
					c-1,0.3-2.1,0.7-3.1,1.1l0,0c-0.1,0-0.2,0-0.2-0.1c0-0.1,0-0.2,0.1-0.2c1-0.6,2-1.1,3-1.4c1-0.4,2.1-0.7,3.2-1
					c1.1-0.2,2.2-0.4,3.3-0.5c1.1-0.1,2.2-0.1,3.4,0.1c0.1,0,0.2,0.1,0.1,0.2C111,24.5,110.9,24.6,110.8,24.6L110.8,24.6z"/>
			</g>
			<g>
				<path class="st26" d="M98,27.1c1.9-0.3,3.8-0.4,5.7-0.5c1.9-0.1,3.8,0,5.7,0.2c1.9,0.2,3.8,0.5,5.6,1.1c1.8,0.6,3.6,1.4,5,2.8
					c0.1,0.1,0.1,0.2,0,0.3c-0.1,0.1-0.2,0.1-0.3,0c-1.4-1.2-3.2-1.9-5-2.4c-1.8-0.5-3.6-0.8-5.5-1c-1.9-0.2-3.7-0.3-5.6-0.3
					c-1.9,0-3.8,0-5.7,0.1c-0.1,0-0.2-0.1-0.2-0.2C97.8,27.2,97.9,27.1,98,27.1z"/>
			</g>
			<g>
				<path class="st26" d="M119.9,31c-1.4,0-2.8-0.1-4.2-0.1c-0.7,0-1.4,0-2.1,0.1c-0.7,0-1.4,0.1-2.1,0.2l0,0
					c-0.1,0-0.2-0.1-0.2-0.2c0-0.1,0-0.2,0.1-0.2c1.3-0.5,2.8-0.7,4.2-0.7c1.4,0,2.9,0.2,4.2,0.6c0.1,0,0.1,0.1,0.1,0.2
					C120,30.9,119.9,31,119.9,31L119.9,31z"/>
			</g>
			<g>
				<path class="st26" d="M111.5,30.7c1.8,0,3.6,0.3,5.4,0.8c1.8,0.5,3.5,1.1,5.1,1.8c1.6,0.8,3.3,1.6,4.7,2.7
					c0.8,0.5,1.5,1.1,2.2,1.6c0.7,0.6,1.4,1.2,2,1.8c0.1,0.1,0.1,0.2,0,0.3c-0.1,0.1-0.2,0.1-0.2,0l0,0c-1.4-1.1-2.9-2.1-4.4-3
					c-1.5-1-3.1-1.8-4.7-2.5c-1.6-0.8-3.3-1.4-5-1.9c-1.7-0.5-3.4-0.9-5.2-1.1l0,0c-0.1,0-0.2-0.1-0.2-0.2
					C111.4,30.8,111.4,30.7,111.5,30.7z"/>
			</g>
			<g>
				<path class="st26" d="M130.9,39.7c-1.7-0.4-3.4-0.9-5.1-1.2c-1.7-0.4-3.4-0.8-5.1-1c-0.1,0-0.2-0.1-0.2-0.2
					c0-0.1,0.1-0.2,0.2-0.2c0.9-0.1,1.8,0,2.7,0.1c0.9,0.1,1.7,0.3,2.6,0.5c1.7,0.4,3.4,1,5,1.7c0.1,0,0.1,0.1,0.1,0.2
					C131,39.7,130.9,39.7,130.9,39.7z"/>
			</g>
			<g>
				<path class="st26" d="M120.8,37.1c2.4,0.8,4.7,2,6.8,3.4c1.1,0.7,2.1,1.5,3,2.4c0.9,0.9,1.8,1.9,2.5,2.9
					c1.5,2.1,2.7,4.4,3.7,6.7c1,2.3,1.8,4.7,2.4,7.2c0,0.1,0,0.2-0.1,0.2c-0.1,0-0.2,0-0.2-0.1l0,0c-0.8-2.4-1.7-4.7-2.8-7
					c-1.1-2.3-2.2-4.5-3.7-6.5c-1.4-2-3.2-3.7-5.2-5.2c-2-1.5-4.2-2.7-6.5-3.7l0,0c-0.1,0-0.1-0.1-0.1-0.2
					C120.6,37.1,120.7,37.1,120.8,37.1z"/>
			</g>
			<g>
				<path class="st26" d="M138.9,59.8c-1.3-1.3-2.5-2.7-3.9-3.9c-1.3-1.2-2.8-2.3-4.3-3.3l0,0c-0.1-0.1-0.1-0.2-0.1-0.3
					c0-0.1,0.1-0.1,0.2-0.1c0.9,0.3,1.7,0.8,2.5,1.3c0.8,0.5,1.5,1.1,2.2,1.7c1.4,1.3,2.6,2.7,3.6,4.3c0.1,0.1,0,0.2-0.1,0.2
					C139,59.9,138.9,59.9,138.9,59.8L138.9,59.8z"/>
			</g>
			<g>
				<path class="st26" d="M130.8,52.4c1.8,1.7,3.5,3.5,5,5.5c1.5,2,2.7,4.2,3.6,6.5c0.8,2.4,1.3,4.8,1.6,7.3
					c0.3,2.5,0.3,4.9,0.1,7.4c0,0.1-0.1,0.2-0.2,0.2c-0.1,0-0.2-0.1-0.2-0.2l0,0c0.1-2.4-0.1-4.9-0.4-7.3c-0.3-2.4-0.8-4.8-1.6-7.1
					c-0.8-2.3-2-4.4-3.4-6.4c-0.7-1-1.4-2-2.2-2.9c-0.8-0.9-1.6-1.9-2.4-2.7l0,0c-0.1-0.1-0.1-0.2,0-0.2
					C130.7,52.3,130.8,52.3,130.8,52.4z"/>
			</g>
			<g>
				<path class="st26" d="M140.7,79.1c-0.7-1.2-1.3-2.4-2-3.5c-0.7-1.2-1.4-2.3-2.2-3.4l0,0c-0.1-0.1,0-0.2,0-0.3
					c0.1-0.1,0.2,0,0.2,0c0.6,0.4,1,0.9,1.5,1.5c0.4,0.5,0.8,1.1,1.2,1.7c0.7,1.2,1.3,2.4,1.6,3.8c0,0.1,0,0.2-0.1,0.2
					C140.8,79.2,140.7,79.2,140.7,79.1z"/>
			</g>
			<g>
				<path class="st26" d="M136.8,72.1c0.8,2,1.3,4.1,1.6,6.2c0.3,2.1,0.4,4.3,0.1,6.5c-0.4,2.1-1,4.2-1.7,6.2c-0.8,2-1.7,4-2.8,5.8
					c-0.1,0.1-0.2,0.1-0.3,0.1c-0.1,0-0.1-0.2-0.1-0.2l0,0c0.9-1.9,1.7-3.9,2.4-5.9c0.7-2,1.3-4.1,1.6-6.1c0.3-2.1,0.3-4.2,0.1-6.3
					c-0.2-2.1-0.6-4.2-1.2-6.2l0,0c0-0.1,0-0.2,0.1-0.2C136.6,72,136.7,72,136.8,72.1z"/>
			</g>
			<g>
				<path class="st26" d="M133.6,96.8c-0.3-1.8-0.4-3.6-0.7-5.4c-0.1-0.9-0.2-1.8-0.4-2.7c-0.2-0.9-0.3-1.7-0.6-2.6
					c0-0.1,0-0.2,0.1-0.2c0.1,0,0.2,0,0.2,0.1c0.4,0.8,0.7,1.7,0.9,2.6c0.2,0.9,0.4,1.8,0.5,2.7c0.2,1.8,0.3,3.6,0.2,5.5
					c0,0.1-0.1,0.2-0.2,0.2C133.7,96.9,133.6,96.9,133.6,96.8z"/>
			</g>
			<g>
				<path class="st26" d="M132.3,86c0.6,1.6,0.7,3.4,0.7,5.1c-0.1,1.7-0.4,3.4-0.8,5c-0.5,1.6-1.2,3.2-2,4.7
					c-0.4,0.7-0.9,1.4-1.3,2.2c-0.5,0.7-1,1.4-1.5,2c-0.1,0.1-0.2,0.1-0.3,0c-0.1-0.1-0.1-0.2,0-0.2l0,0l1.3-2.1
					c0.4-0.7,0.8-1.4,1.2-2.2c0.7-1.5,1.4-3,1.8-4.6c0.5-1.6,0.8-3.2,0.9-4.8c0.1-1.6,0.1-3.3-0.3-4.9l0,0c0-0.1,0-0.2,0.1-0.2
					C132.2,85.9,132.3,86,132.3,86z"/>
			</g>
			<g>
				<path class="st26" d="M127,105c-0.3-0.7-0.4-1.4-0.6-2.1c-0.1-0.7-0.2-1.4-0.3-2.1c0-0.7,0-1.4,0-2.1c0-0.7,0.1-1.4,0.3-2.1
					c0-0.1,0.1-0.2,0.2-0.1c0.1,0,0.1,0.1,0.2,0.2c0.1,1.4,0.1,2.8,0.2,4.2c0,0.7,0.1,1.4,0.1,2.1c0.1,0.7,0.1,1.4,0.2,2.1l0,0
					c0,0.1-0.1,0.2-0.2,0.2C127.1,105.1,127,105,127,105z"/>
			</g>
			<g>
				<path class="st26" d="M126.7,96.6c-0.3,1.3-0.8,2.5-1.4,3.6c-0.6,1.2-1.2,2.3-1.9,3.4c-0.7,1.1-1.5,2.1-2.4,3.1
					c-0.9,1-1.8,1.9-2.8,2.7c-0.1,0.1-0.2,0.1-0.3,0c-0.1-0.1-0.1-0.2,0-0.2l0,0c0.9-0.9,1.7-1.9,2.5-2.9c0.8-1,1.6-2,2.2-3.1
					c0.7-1,1.4-2.1,2-3.2c0.6-1.1,1.2-2.2,1.7-3.4l0,0c0-0.1,0.1-0.1,0.2-0.1C126.7,96.5,126.8,96.6,126.7,96.6z"/>
			</g>
			<g>
				<path class="st26" d="M118.1,109.4c-1-0.3-1.9-0.9-2.8-1.5c-0.9-0.6-1.7-1.3-2.5-2c-0.8-0.7-1.5-1.5-2.1-2.3
					c-0.3-0.4-0.6-0.8-0.9-1.3c-0.3-0.4-0.6-0.9-0.8-1.3c-0.1-0.1,0-0.2,0.1-0.3c0.1,0,0.2,0,0.2,0c1.4,1.6,2.7,3.2,4.2,4.6
					c0.7,0.7,1.5,1.4,2.3,2c0.8,0.6,1.7,1.2,2.5,1.7l0,0c0.1,0,0.1,0.2,0.1,0.2C118.2,109.4,118.1,109.4,118.1,109.4z"/>
			</g>
			<g>
				<path class="st26" d="M109.1,101c-1.2,1.9-2.7,3.5-4.3,4.9c-0.8,0.7-1.7,1.3-2.7,1.9c-1,0.5-2,1-3,1.3c-0.1,0-0.2,0-0.2-0.1
					c0-0.1,0-0.2,0.1-0.2l0,0c1-0.5,1.9-1,2.8-1.5c0.9-0.6,1.7-1.2,2.5-1.9c0.8-0.7,1.6-1.4,2.3-2.2c0.8-0.7,1.5-1.5,2.2-2.3l0,0
					c0.1-0.1,0.2-0.1,0.2,0C109.1,100.8,109.1,100.9,109.1,101z"/>
			</g>
			<g>
				<path class="st26" d="M98.8,108.9c-0.1-0.7,0-1.3,0.2-2c0.2-0.6,0.6-1.2,1.1-1.7c0.1-0.1,0.2-0.1,0.3,0c0,0.1,0.1,0.1,0,0.2l0,0
					c-0.1,0.3-0.2,0.6-0.3,0.9c-0.1,0.3-0.2,0.6-0.3,0.8c-0.2,0.6-0.4,1.1-0.6,1.7l0,0c0,0.1-0.1,0.1-0.2,0.1
					C98.9,109,98.9,108.9,98.8,108.9z"/>
			</g>
			<g>
				<path class="st26" d="M100.4,105.4c-1.2,1.7-2.6,3.1-4.2,4.4c-0.8,0.6-1.6,1.2-2.5,1.7c-0.9,0.5-1.8,0.9-2.8,1.2
					c-0.1,0-0.2,0-0.2-0.1c0-0.1,0-0.2,0.1-0.2l0,0c1.8-0.9,3.4-2,4.9-3.2c0.8-0.6,1.5-1.3,2.3-1.9c0.7-0.7,1.5-1.4,2.2-2l0,0
					c0.1-0.1,0.2-0.1,0.2,0C100.4,105.3,100.5,105.4,100.4,105.4z"/>
			</g>
			<g>
				<path class="st26" d="M90.7,112.7c-0.2-0.2-0.4-0.4-0.5-0.7c-0.1-0.2-0.2-0.5-0.2-0.7c0-0.3-0.1-0.5-0.1-0.8
					c0-0.3,0-0.5,0.1-0.8c0-0.1,0.1-0.2,0.3-0.1c0.1,0,0.1,0.1,0.1,0.1c0.2,0.5,0.3,0.9,0.4,1.4c0,0.2,0.1,0.4,0.1,0.7
					c0,0.2,0.1,0.5,0.1,0.7l0,0.1c0,0.1-0.1,0.2-0.2,0.2C90.7,112.7,90.7,112.7,90.7,112.7z"/>
			</g>
			<g>
				<path class="st26" d="M90.3,109.9c-0.2,1-0.7,1.8-1.3,2.6c-0.6,0.7-1.3,1.4-2.2,1.9c-0.1,0-0.2,0-0.3-0.1c0-0.1,0-0.1,0-0.2l0,0
					c0.3-0.4,0.6-0.7,0.9-1c0.3-0.3,0.6-0.7,0.9-1c0.6-0.7,1.1-1.4,1.6-2.2l0,0c0.1-0.1,0.2-0.1,0.2,0
					C90.3,109.7,90.3,109.8,90.3,109.9z"/>
			</g>
		</g>
		<g>
			<g>
				<path class="st26" d="M66.6,101.3c-2.1,4.9-4.1,9.9-6,14.9c-1.9,5-3.6,10.1-4.9,15.3c-0.6,2.6-1.2,5.2-1.2,7.8
					c0,2.6,0.3,5.3,1.8,7.4c1.4,2.1,3.9,3.3,6.5,3.8c1.3,0.2,2.6,0.4,4,0.6c1.3,0.2,2.7,0.4,3.9,0.4l0.1,0c0.2,0,0.3,0.1,0.3,0.3
					c0,0.2-0.1,0.3-0.3,0.3c-1.5,0-2.7-0.2-4.1-0.3c-1.3-0.2-2.7-0.3-4-0.5c-1.4-0.2-2.7-0.6-4-1.3c-1.3-0.6-2.4-1.6-3.2-2.7
					c-1.6-2.4-2-5.3-2-8c0-2.8,0.6-5.5,1.3-8.1c1.4-5.2,3.2-10.3,5.2-15.3c2-5,4.1-10,6.3-14.9c0.1-0.1,0.2-0.2,0.3-0.1
					C66.5,101,66.6,101.2,66.6,101.3z"/>
			</g>
			<g>
				<path class="st26" d="M75.6,151.6l13-0.1l6.5,0l6.5,0.1c0.1,0,0.3,0.1,0.3,0.3c0,0.1-0.1,0.3-0.3,0.3l-6.5,0.1l-6.5,0l-13-0.1
					c-0.2,0-0.3-0.1-0.3-0.3C75.3,151.7,75.4,151.6,75.6,151.6z"/>
			</g>
			<path class="st30" d="M74.2,154.7c0.1,0.1,0.2,0.2,0.3,0.3c0,0.1,0,0.3,0,0.4c-0.1,0.8-0.2,1.6-0.9,2c-0.4,0.3-1,0.3-1.6,0.3
				c-0.5,0-1.1-0.1-1.6-0.2c-0.6-0.1-1.2-0.3-1.6-0.7c-0.4-0.4-0.4-1-0.4-1.6c0-0.2,0-0.4,0.1-0.6c0.1-0.2,0.3-0.3,0.5-0.4
				c0.9-0.4,1.5-0.8,2.4-0.6C72.4,153.7,73.5,154,74.2,154.7z"/>
			<path class="st30" d="M102.8,154.7c-0.1,0.1-0.2,0.2-0.3,0.3c0,0.1,0,0.3,0,0.4c0.1,0.8,0.2,1.6,0.9,2c0.4,0.3,1,0.3,1.6,0.3
				c0.5,0,1.1-0.1,1.6-0.2c0.6-0.1,1.2-0.3,1.6-0.7c0.4-0.4,0.4-1,0.4-1.6c0-0.2,0-0.4-0.1-0.6c-0.1-0.2-0.3-0.3-0.5-0.4
				c-0.9-0.4-1.5-0.8-2.4-0.6C104.6,153.7,103.4,154,102.8,154.7z"/>
			<g>
				<path class="st26" d="M112.9,104.9c2.1,4.6,4,9.2,5.7,14c1.7,4.7,3.3,9.5,4.4,14.5c0.5,2.5,0.8,5.1,0.7,7.6
					c-0.1,2.5-0.8,5.3-2.6,7.3c-1.8,2-4.5,2.9-7,3.2c-1.3,0.2-2.5,0.3-3.8,0.4c-1.3,0.1-2.5,0.3-3.8,0.3c-0.2,0-0.3-0.1-0.3-0.3
					c0-0.2,0.1-0.3,0.3-0.3l0.1,0c1.1,0,2.5-0.2,3.7-0.4c1.2-0.2,2.5-0.3,3.7-0.5c2.4-0.4,4.8-1.3,6.4-3.1c1.6-1.8,2.2-4.2,2.4-6.7
					c0.2-2.5-0.2-4.9-0.7-7.4c-1-4.9-2.5-9.7-4.2-14.4c-1.7-4.7-3.5-9.4-5.5-14c-0.1-0.1,0-0.3,0.1-0.4
					C112.7,104.7,112.9,104.8,112.9,104.9z"/>
			</g>
			<path class="st117" d="M65.3,104.3c0,0-8.2,17.4-10.5,28c-2.3,10.6,0.4,14.6,3,16.8c1.8,1.6,6.6,2.4,12.8,2.7
				c0.1,0,0.2,0,0.2,0.1c0.2-0.1-0.6-4.5-0.6-4.5c-2.6,2.8-8.5,2.1-11.2-0.4C50.4,139.2,65.3,104.3,65.3,104.3z"/>
			<path class="st117" d="M112.6,105.5c0,0,7.6,16.3,9.8,26.8c2.3,10.6-0.4,14.6-3,16.8c-1.8,1.6-6.6,2.4-12.8,2.7
				c-0.1,0-0.2,0-0.2,0.1c-0.2-0.1,0.6-4.5,0.6-4.5c2.6,2.8,8.5,2.1,11.2-0.4C126.9,139.2,112.6,105.5,112.6,105.5z"/>
			<path class="st30" d="M75.9,151.7l6-21.2c2-6.9,11.8-6.9,13.7,0l6,21.2H75.9z"/>
			<path class="st119" d="M77.5,145.7c0,0,0.1,4.7,10.7,4.7s11.7-4.7,11.7-4.7l1.6,6.2H75.6L77.5,145.7z"/>
			<g>
				<path class="st26" d="M69.4,140c0.5,3.4,1.1,6.8,1.5,10.2c0.1,0.9,0.2,1.7,0.2,2.6c0,0.2,0,0.4-0.1,0.8c0,0-0.1,0.2-0.3,0.2
					l-0.1,0l-0.1,0c-0.1,0-0.2,0.1-0.3,0.1c-0.4,0.2-0.7,0.4-0.9,0.6c-0.5,0.5-0.4,1.4,0,1.9c0.2,0.3,0.5,0.5,0.9,0.6
					c0.4,0.1,0.8,0.2,1.2,0.3c0.8,0.1,1.7,0.1,2-0.4c0.2-0.2,0.3-0.7,0.5-1.1l0.4-1.2c0.5-1.6,1.1-3.3,1.6-4.9L79,140
					c0-0.1,0.2-0.2,0.3-0.1c0.1,0,0.2,0.2,0.1,0.3c-0.9,3.3-1.8,6.6-2.8,9.9c-0.5,1.6-1,3.3-1.5,4.9l-0.4,1.2
					c-0.2,0.4-0.3,0.8-0.6,1.3c-0.3,0.5-0.9,0.7-1.3,0.7c-0.5,0.1-1,0-1.4,0c-0.4-0.1-0.9-0.2-1.3-0.3c-0.4-0.1-0.9-0.4-1.2-0.8
					c-0.7-0.8-0.7-2.1,0-2.8c0.3-0.4,0.7-0.6,1.2-0.8c0.1,0,0.2-0.1,0.3-0.1l0.2-0.1l0.1,0c-0.1,0-0.2,0.1-0.2,0.1c0,0,0-0.3,0-0.5
					c0-0.8-0.1-1.7-0.2-2.5c-0.4-3.4-0.9-6.8-1.3-10.2c0-0.1,0.1-0.3,0.2-0.3C69.2,139.8,69.3,139.9,69.4,140z"/>
			</g>
			<g>
				<path class="st26" d="M108.2,140.1c-0.5,3.4-0.9,6.8-1.2,10.2c-0.1,0.8-0.2,1.7-0.2,2.5c0,0.2,0,0.4,0,0.5c0,0,0,0-0.1-0.1
					c0,0-0.1,0-0.1-0.1c0,0,0,0,0,0l0,0l0.2,0c0.1,0,0.2,0.1,0.3,0.1c0.4,0.2,0.8,0.4,1.2,0.8c0.7,0.8,0.7,2,0,2.8
					c-0.3,0.4-0.8,0.7-1.2,0.8c-0.4,0.1-0.9,0.3-1.3,0.3c-0.4,0.1-0.9,0.1-1.4,0c-0.5-0.1-1-0.3-1.4-0.7c-0.3-0.5-0.4-0.9-0.6-1.3
					l-0.4-1.2c-0.5-1.6-1-3.3-1.4-4.9c-0.9-3.3-1.8-6.6-2.6-9.9c0-0.1,0-0.2,0.2-0.3c0.1,0,0.2,0,0.3,0.2l2.9,9.9
					c0.5,1.6,0.9,3.3,1.5,4.9l0.4,1.2c0.1,0.4,0.3,0.8,0.5,1c0.4,0.5,1.3,0.5,2.1,0.4c0.4-0.1,0.8-0.2,1.2-0.3
					c0.4-0.1,0.7-0.3,0.9-0.6c0.5-0.5,0.5-1.4,0-1.9c-0.2-0.3-0.6-0.5-0.9-0.6c-0.1,0-0.2-0.1-0.3-0.1l-0.1,0l0,0l0,0
					c0,0-0.1,0-0.1-0.1c-0.1-0.1-0.1-0.2-0.1-0.2c-0.1-0.3-0.1-0.5-0.1-0.8c0-0.9,0.1-1.7,0.2-2.6c0.4-3.4,0.9-6.8,1.4-10.2
					c0-0.1,0.2-0.2,0.3-0.2C108.1,139.8,108.2,139.9,108.2,140.1z"/>
			</g>
		</g>
		<path class="st30" d="M63.8,54.8c-6.1,0-9.7,4.7-9.7,10.8c0,1.1,0.2,2.1,0.4,3.1c0.3,0.1,0.6,0.2,1,0.4c0.3,0.1,0.5,0.3,0.8,0.5
			c1.4,0.7,3.9,1.6,7.3,1.8c4.7,0.2,9.8,0.2,10.6,0.2c0,0,0,0,0,0c0,0,0,0,0,0c1.1-1.7,1.7-3.7,1.7-5.9C76,59.5,69.9,54.8,63.8,54.8
			z"/>
		<path class="st173" d="M74.3,71.5c0.7-1.2,1.1-2.5,1.1-4c0-4.2-3.4-7.6-7.6-7.6s-7.6,3.4-7.6,7.6c0,1.4,0.4,2.8,1.1,3.9
			C65.6,71.8,69.9,71.1,74.3,71.5z"/>
		<g>
			<path class="st26" d="M72.3,71.6c0.9-1,1.5-2.3,1.5-3.7c0-3-2.4-5.4-5.4-5.4s-5.4,2.4-5.4,5.4c0,1.5,0.6,2.8,1.5,3.8
				C67,71.6,69.7,71.7,72.3,71.6z"/>
			<path class="st174" d="M54.5,68.4c0,0,3.5,4.4,19.7,3.1"/>
			<circle class="st30" cx="68.6" cy="61.7" r="2.9"/>
			<path class="st175" d="M54.1,65.5c0-6.1,3.6-10.8,9.7-10.8S76,59.5,76,65.5s-4.9,11-11,11S54.1,71.6,54.1,65.5z"/>
			<path class="st176" d="M58.4,53.2c12.6,4.4,15.5,5.3,15.5,5.3"/>
		</g>
		<path class="st30" d="M119.5,69.3c0.4-0.3,0.9-0.6,1.3-0.8c0.3-0.9,0.4-1.9,0.4-3c0-6.1-3.6-10.8-9.7-10.8
			c-6.1,0-12.2,4.7-12.2,10.8c0,2.2,0.6,4.2,1.7,5.9c0,0,0,0,0,0c0,0,0,0,0,0c0.8,0,5.9,0,10.6-0.2C115.5,71.2,118.2,70,119.5,69.3z
			"/>
		<path class="st173" d="M101.1,71.5c-0.7-1.2-1.1-2.5-1.1-4c0-4.2,3.4-7.6,7.6-7.6s7.6,3.4,7.6,7.6c0,1.4-0.4,2.8-1.1,3.9
			C109.8,71.8,105.4,71.1,101.1,71.5z"/>
		<g>
			<path class="st26" d="M103.1,71.6c-0.9-1-1.5-2.3-1.5-3.7c0-3,2.4-5.4,5.4-5.4s5.4,2.4,5.4,5.4c0,1.5-0.6,2.8-1.5,3.8
				C108.3,71.6,105.7,71.7,103.1,71.6z"/>
			<path class="st174" d="M120.9,68.4c0,0-3.5,4.4-19.7,3.1"/>
			<circle class="st30" cx="106.8" cy="61.7" r="2.9"/>
			<path class="st175" d="M121.2,65.5c0-6.1-3.6-10.8-9.7-10.8s-12.2,4.7-12.2,10.8s4.9,11,11,11S121.2,71.6,121.2,65.5z"/>
			<path class="st176" d="M117,53.2c-12.6,4.4-15.5,5.3-15.5,5.3"/>
		</g>
		<g>
			<g>
				<path class="st26" d="M88.3,78.9c-0.2,1.6-0.5,3.1-1,4.7c-0.5,1.5-1.2,3-2.4,4.1c-0.1,0.1-0.2,0.1-0.3,0c-0.1-0.1-0.1-0.2,0-0.3
					l0,0c1-1.1,1.7-2.6,2.2-4c0.5-1.5,0.8-3,0.9-4.5l0,0c0-0.2,0.1-0.3,0.3-0.3C88.2,78.6,88.3,78.7,88.3,78.9
					C88.3,78.9,88.3,78.9,88.3,78.9z"/>
			</g>
			<g>
				<path class="st26" d="M88.6,78.7c0.1,1.5,0.4,3.1,0.9,4.6c0.5,1.5,1.2,2.9,2.3,4.1l0,0c0.1,0.1,0.1,0.2,0,0.2
					c-0.1,0.1-0.2,0.1-0.2,0c-1.2-1.1-2-2.6-2.5-4.1c-0.6-1.5-0.9-3.1-1.1-4.7c0-0.2,0.1-0.4,0.3-0.4C88.4,78.3,88.6,78.4,88.6,78.7
					C88.6,78.6,88.6,78.6,88.6,78.7L88.6,78.7z"/>
			</g>
			<g>
				<path class="st26" d="M96,82.4c3.8-1.3,7.7-1.8,11.6-1.8c3.9,0,7.8,0.5,11.6,1.5c0.9,0.3,1.9,0.6,2.8,0.9
					c0.5,0.2,0.9,0.3,1.4,0.5l1.4,0.6c0.9,0.4,1.8,0.7,2.7,1.1l2.6,1.3c0.4,0.2,0.9,0.4,1.3,0.7l1.2,0.8l2.5,1.6
					c1.6,1.1,3.1,2.3,4.7,3.5c-1.6-1.1-3.1-2.3-4.8-3.4l-2.5-1.5l-1.2-0.8c-0.4-0.2-0.9-0.4-1.3-0.7l-2.6-1.3
					c-0.9-0.4-1.8-0.7-2.7-1.1l-1.4-0.5c-0.5-0.2-0.9-0.3-1.4-0.4c-0.9-0.3-1.9-0.6-2.8-0.8c-3.8-0.9-7.7-1.4-11.5-1.3
					c-3.9,0.1-7.8,0.6-11.4,2l0,0c-0.2,0.1-0.3,0-0.4-0.2C95.7,82.6,95.8,82.4,96,82.4C96,82.4,96,82.4,96,82.4z"/>
			</g>
			<g>
				<path class="st26" d="M97.8,83.7c1.7-0.2,3.3-0.1,4.9,0.3c1.6,0.4,3.1,1,4.5,1.8c1.4,0.8,2.7,1.8,3.8,2.9
					c0.6,0.5,1.1,1.2,1.6,1.8c0.5,0.6,0.9,1.3,1.4,1.9c-0.5-0.6-1-1.3-1.5-1.9c-0.6-0.6-1-1.2-1.6-1.7c-1.1-1.1-2.5-2-3.8-2.8
					c-1.4-0.7-2.9-1.3-4.4-1.6c-1.5-0.3-3.1-0.4-4.6-0.1l0,0c-0.2,0-0.3-0.1-0.3-0.2S97.6,83.8,97.8,83.7
					C97.8,83.7,97.8,83.7,97.8,83.7z"/>
			</g>
			<g>
				<path class="st26" d="M97.1,79.4c3.5-0.9,7.1-1.4,10.8-1.6c3.6-0.3,7.2-0.3,10.9,0c3.6,0.3,7.2,1,10.6,2.1
					c3.5,1.1,6.7,2.7,9.7,4.7c-3-1.9-6.3-3.6-9.8-4.6c-3.5-1-7-1.7-10.6-1.9c-3.6-0.2-7.2-0.2-10.8,0.1c-3.6,0.3-7.2,0.9-10.6,1.8
					l0,0c-0.2,0-0.3-0.1-0.4-0.2S96.9,79.4,97.1,79.4C97.1,79.4,97.1,79.4,97.1,79.4z"/>
			</g>
			<g>
				<path class="st26" d="M75.7,80.1c-2.7-0.6-5.6-0.9-8.4-1c-2.8-0.1-5.7,0.1-8.5,0.5c-5.6,0.8-11.1,2.5-16.2,5.1
					c5-2.7,10.5-4.5,16.1-5.4c2.8-0.5,5.7-0.7,8.5-0.7c2.9,0,5.7,0.2,8.5,0.8c0.2,0,0.3,0.2,0.2,0.4C76.1,80,75.9,80.1,75.7,80.1
					C75.7,80.1,75.7,80.1,75.7,80.1L75.7,80.1z"/>
			</g>
			<g>
				<path class="st26" d="M79.2,82.3c-2.2-0.4-4.5-0.4-6.7-0.1C70.2,82.4,68,83,66,83.9c-2.1,0.9-4,2-5.7,3.5
					c-0.9,0.7-1.6,1.5-2.4,2.4c-0.8,0.8-1.4,1.8-2.1,2.7c0.7-0.9,1.3-1.9,2-2.7c0.8-0.8,1.5-1.7,2.4-2.4c1.7-1.5,3.6-2.8,5.7-3.7
					c2.1-0.9,4.3-1.6,6.6-1.9c2.3-0.3,4.6-0.3,6.9,0c0.2,0,0.3,0.2,0.3,0.3S79.4,82.3,79.2,82.3C79.2,82.3,79.2,82.3,79.2,82.3
					L79.2,82.3z"/>
			</g>
			<g>
				<path class="st26" d="M77.9,84.3c-1.5-0.1-3,0.1-4.5,0.5c-1.5,0.4-2.9,1.1-4.1,2c-1.2,0.9-2.4,2-3.2,3.3c-0.2,0.3-0.5,0.6-0.7,1
					l-0.6,1c-0.4,0.7-0.7,1.4-1,2.1c0.3-0.7,0.6-1.4,0.9-2.1l0.6-1c0.2-0.3,0.4-0.7,0.6-1c0.8-1.3,2-2.4,3.2-3.4
					c1.2-1,2.7-1.7,4.1-2.2c1.5-0.5,3.1-0.8,4.7-0.7c0.2,0,0.3,0.1,0.3,0.3C78.2,84.2,78.1,84.3,77.9,84.3
					C77.9,84.3,77.9,84.3,77.9,84.3L77.9,84.3z"/>
			</g>
			<path class="st26" d="M83.5,75.1c-0.1,0.6,0.2,1.1,0.6,1.4c0.6,0.5,1.4,0.6,2.2,0.7c1.1,0,1.3,0.7,1.5,1.7c0.1,0.3,0.9,0.2,0.9,0
				c0.3-2,2.1-1.7,3.2-2.3c1.4-0.8,1.3-2.2-0.1-2.9C89.9,72.8,83.9,72.2,83.5,75.1z"/>
		</g>
	</g>
</g>
<g id="mask" class="st0">
</g>
</svg>
