<?xml version="1.0" encoding="utf-8"?>
<!-- Generator: Adobe Illustrator 21.0.0, SVG Export Plug-In . SVG Version: 6.00 Build 0)  -->
<svg version="1.1" xmlns="http://www.w3.org/2000/svg" xmlns:xlink="http://www.w3.org/1999/xlink" x="0px" y="0px"
	 viewBox="0 0 176.8 172.4" style="enable-background:new 0 0 176.8 172.4;" xml:space="preserve">
<style type="text/css">
	.st0{display:none;}
	.st1{display:inline;fill:#FD9994;}
	.st2{display:inline;fill:#FFFFFF;}
	.st3{display:inline;fill:none;stroke:#FFFFFF;stroke-width:2.2363;stroke-miterlimit:10;}
	.st4{display:inline;}
	.st5{fill:none;stroke:#FFFFFF;stroke-width:2.2363;stroke-miterlimit:10;}
	.st6{fill:#FFB380;}
	.st7{fill:#D2C3DB;}
	.st8{fill:#F9ECDC;}
	.st9{fill:#FFF58B;}
	.st10{fill:#F6BC60;}
	.st11{fill:#ECF784;}
	.st12{fill:#FFDEFF;}
	.st13{fill:#AED5D2;}
	.st14{fill:#F4BD9F;}
	.st15{fill:#B9DCFF;}
	.st16{fill:#D7FFFB;}
	.st17{fill:#81D8F7;}
	.st18{fill:#E57777;}
	.st19{fill:#D9FFDB;}
	.st20{opacity:0.1;}
	.st21{fill:#5CCDFF;}
	.st22{fill:none;}
	.st23{opacity:0.2;fill:#FFFFFF;}
	.st24{opacity:0.1;fill:#002CBF;}
	.st25{fill:#1A1A1A;}
	.st26{fill:#333333;}
	.st27{fill:#FFFFDE;}
	.st28{clip-path:url(#SVGID_4_);}
	.st29{fill:none;stroke:#333333;stroke-width:0.4917;stroke-linecap:round;stroke-linejoin:round;stroke-miterlimit:10;}
	.st30{fill:#FFFFFF;}
	.st31{fill:none;stroke:#333333;stroke-width:0.8543;stroke-miterlimit:10;}
	.st32{clip-path:url(#SVGID_6_);}
	.st33{fill:#FFD7B9;}
	.st34{fill:#F0FFFF;}
	.st35{clip-path:url(#SVGID_8_);}
	.st36{fill:#FF5C5C;}
	.st37{fill:none;stroke:#333333;stroke-width:0.466;stroke-linecap:round;stroke-linejoin:round;stroke-miterlimit:10;}
	.st38{fill:none;stroke:#333333;stroke-width:0.8095;stroke-miterlimit:10;}
	.st39{clip-path:url(#SVGID_10_);}
	.st40{fill:none;stroke:#333333;stroke-width:0.7381;stroke-linecap:round;stroke-linejoin:round;stroke-miterlimit:10;}
	.st41{fill:none;stroke:#333333;stroke-width:0.8857;stroke-linecap:round;stroke-linejoin:round;stroke-miterlimit:10;}
	.st42{fill:none;stroke:#333333;stroke-width:2.6852;stroke-linecap:round;stroke-linejoin:round;stroke-miterlimit:10;}
	.st43{fill:#72B5C4;}
	.st44{fill:#5E96A5;}
	.st45{fill:none;stroke:#FFFFFF;stroke-width:2.6852;stroke-linecap:round;stroke-linejoin:round;stroke-miterlimit:10;}
	.st46{fill:none;stroke:#FFFFFF;stroke-width:1.2942;stroke-linecap:round;stroke-linejoin:round;stroke-miterlimit:10;}
	.st47{fill:none;stroke:#FFFFFF;stroke-width:0.8311;stroke-linecap:round;stroke-linejoin:round;stroke-miterlimit:10;}
	.st48{fill:#FF5C00;}
	.st49{fill:#00B4FF;}
	.st50{fill:#FF5592;}
	.st51{fill:#733FFF;}
	.st52{fill:#DDFF15;}
	.st53{fill:#BF5855;}
	.st54{fill:none;stroke:#333333;stroke-width:0.5718;stroke-miterlimit:10;}
	.st55{fill:#C8F982;}
	.st56{fill:#AEF9C0;}
	.st57{fill:none;stroke:#FFFFFF;stroke-width:1.8326;stroke-miterlimit:10;}
	.st58{fill:#9AF6F9;}
	.st59{fill:#FFACA2;}
	.st60{fill:#F9E582;}
	.st61{fill:#FFC08B;}
	.st62{fill:#EFEB6A;}
	.st63{fill:#EC987F;}
	.st64{fill:#B5FFCC;}
	.st65{fill:#FFEDA2;}
	.st66{fill:#CCE7CC;}
	.st67{fill:#ABE7AB;}
	.st68{fill:#A6A6A6;}
	.st69{clip-path:url(#SVGID_60_);}
	.st70{fill:none;stroke:#333333;stroke-width:0.4706;stroke-linecap:round;stroke-linejoin:round;stroke-miterlimit:10;}
	.st71{fill:#FFEC55;}
	.st72{fill:none;stroke:#333333;stroke-width:0.8177;stroke-miterlimit:10;}
	.st73{clip-path:url(#SVGID_62_);}
	.st74{clip-path:url(#SVGID_64_);}
	.st75{fill:#FF7A59;}
	.st76{clip-path:url(#SVGID_66_);}
	.st77{clip-path:url(#SVGID_68_);}
	.st78{fill:#B45FFF;}
	.st79{clip-path:url(#SVGID_70_);}
	.st80{opacity:0.2;fill:#002CBF;}
	.st81{fill:none;stroke:#333333;stroke-width:0.5506;stroke-linecap:round;stroke-linejoin:round;stroke-miterlimit:10;}
	.st82{clip-path:url(#SVGID_72_);}
	.st83{fill:#EAA871;}
	.st84{fill:#FFD836;}
	.st85{fill:#FF846B;}
	.st86{fill:none;stroke:#333333;stroke-width:0.804;stroke-linecap:round;stroke-linejoin:round;stroke-miterlimit:10;}
	.st87{fill:#FEFF4A;}
	.st88{fill:none;stroke:#333333;stroke-width:0.7645;stroke-linecap:round;stroke-linejoin:round;stroke-miterlimit:10;}
	.st89{fill:none;stroke:#333333;stroke-width:0.7645;stroke-miterlimit:10;}
	.st90{fill:none;stroke:#333333;stroke-width:2.9248;stroke-linecap:round;stroke-linejoin:round;stroke-miterlimit:10;}
	.st91{fill:none;stroke:#333333;stroke-width:0.945;stroke-linecap:round;stroke-linejoin:round;stroke-miterlimit:10;}
	.st92{fill:none;stroke:#333333;stroke-width:0.945;stroke-miterlimit:10;}
	.st93{fill:none;stroke:#333333;stroke-width:3.6155;stroke-linecap:round;stroke-linejoin:round;stroke-miterlimit:10;}
	.st94{fill:none;stroke:#333333;stroke-width:0.6228;stroke-miterlimit:10;}
	.st95{fill:none;stroke:#333333;stroke-width:0.7778;stroke-linecap:round;stroke-linejoin:round;stroke-miterlimit:10;}
	.st96{fill:#FF712A;}
	.st97{fill:none;stroke:#333333;stroke-width:0.7396;stroke-linecap:round;stroke-linejoin:round;stroke-miterlimit:10;}
	.st98{fill:none;stroke:#333333;stroke-width:0.7396;stroke-miterlimit:10;}
	.st99{fill:none;stroke:#333333;stroke-width:2.8295;stroke-linecap:round;stroke-linejoin:round;stroke-miterlimit:10;}
	.st100{fill:none;stroke:#333333;stroke-width:0.9142;stroke-linecap:round;stroke-linejoin:round;stroke-miterlimit:10;}
	.st101{fill:none;stroke:#333333;stroke-width:0.9142;stroke-miterlimit:10;}
	.st102{fill:none;stroke:#333333;stroke-width:3.4977;stroke-linecap:round;stroke-linejoin:round;stroke-miterlimit:10;}
	.st103{fill:none;stroke:#333333;stroke-width:0.6025;stroke-miterlimit:10;}
	.st104{fill:url(#SVGID_89_);}
	.st105{fill:url(#SVGID_90_);}
	.st106{fill:none;stroke:#333333;stroke-width:0.7438;stroke-linecap:round;stroke-linejoin:round;stroke-miterlimit:10;}
	.st107{fill:none;stroke:#333333;stroke-width:0.8926;stroke-linecap:round;stroke-linejoin:round;stroke-miterlimit:10;}
	.st108{clip-path:url(#SVGID_92_);fill:url(#SVGID_93_);}
	.st109{fill:url(#SVGID_94_);}
	.st110{fill:#52C5FF;}
	.st111{fill:none;stroke:#333333;stroke-width:0.6367;stroke-linecap:round;stroke-linejoin:round;stroke-miterlimit:10;}
	.st112{fill:none;stroke:#333333;stroke-width:2.7061;stroke-linecap:round;stroke-linejoin:round;stroke-miterlimit:10;}
	.st113{fill:none;stroke:#333333;stroke-width:0.5763;stroke-miterlimit:10;}
	.st114{fill:none;stroke:#FFFFFF;stroke-width:1.3042;stroke-linecap:round;stroke-linejoin:round;stroke-miterlimit:10;}
	.st115{fill:none;stroke:#FFFFFF;stroke-width:0.8375;stroke-linecap:round;stroke-linejoin:round;stroke-miterlimit:10;}
	.st116{clip-path:url(#SVGID_96_);}
	.st117{opacity:0.2;fill:#2E3192;}
	.st118{fill:#FEFF78;}
	.st119{opacity:0.1;fill:#2E3192;}
	.st120{fill:#FF5A50;}
	.st121{fill:none;stroke:#333333;stroke-width:0.567;stroke-linecap:round;stroke-linejoin:round;stroke-miterlimit:10;}
	.st122{fill:none;stroke:#333333;stroke-width:2.5786;stroke-linecap:round;stroke-linejoin:round;stroke-miterlimit:10;}
	.st123{fill:none;stroke:#333333;stroke-width:0.5491;stroke-miterlimit:10;}
	.st124{clip-path:url(#SVGID_98_);}
	.st125{fill:#2AD2FF;}
	.st126{fill:none;stroke:#333333;stroke-width:0.2435;stroke-miterlimit:10;}
	.st127{fill:#FFFFFF;stroke:#333333;stroke-width:0.487;stroke-linecap:round;stroke-linejoin:round;stroke-miterlimit:10;}
	.st128{clip-path:url(#SVGID_100_);}
	.st129{fill:url(#SVGID_101_);}
	.st130{opacity:0.4;fill:#FFFFFF;}
	.st131{fill:#FFDC48;}
	.st132{fill:none;stroke:#333333;stroke-width:0.5835;stroke-linecap:round;stroke-linejoin:round;stroke-miterlimit:10;}
	.st133{fill:none;stroke:#333333;stroke-width:2.6537;stroke-linecap:round;stroke-linejoin:round;stroke-miterlimit:10;}
	.st134{fill:#F0F462;}
	.st135{fill:url(#SVGID_102_);}
	.st136{fill:url(#SVGID_103_);}
	.st137{fill:#D1DADF;}
	.st138{fill:#57FFA3;}
	.st139{clip-path:url(#SVGID_105_);}
	.st140{clip-path:url(#SVGID_107_);}
	.st141{fill:#D0BBF9;}
	.st142{clip-path:url(#SVGID_109_);}
	.st143{fill:none;stroke:#333333;stroke-width:0.5867;stroke-linecap:round;stroke-linejoin:round;stroke-miterlimit:10;}
	.st144{clip-path:url(#SVGID_111_);}
	.st145{fill:none;stroke:#333333;stroke-width:0.5514;stroke-linecap:round;stroke-linejoin:round;stroke-miterlimit:10;}
	.st146{fill:#D1E9D3;}
	.st147{clip-path:url(#SVGID_113_);}
	.st148{fill:none;stroke:#333333;stroke-width:0.7684;stroke-linecap:round;stroke-linejoin:round;stroke-miterlimit:10;}
	.st149{fill:none;stroke:#333333;stroke-width:0.7684;stroke-miterlimit:10;}
	.st150{fill:none;stroke:#333333;stroke-width:2.9398;stroke-linecap:round;stroke-linejoin:round;stroke-miterlimit:10;}
	.st151{clip-path:url(#SVGID_115_);}
	.st152{fill:#FF66F8;}
	.st153{fill:none;stroke:#333333;stroke-width:0.7542;stroke-linecap:round;stroke-linejoin:round;stroke-miterlimit:10;}
	.st154{fill:none;stroke:#333333;stroke-width:0.9051;stroke-linecap:round;stroke-linejoin:round;stroke-miterlimit:10;}
	.st155{fill:none;stroke:#333333;stroke-width:0.5146;stroke-linecap:round;stroke-linejoin:round;stroke-miterlimit:10;}
	.st156{fill:none;stroke:#333333;stroke-width:0.6033;stroke-linecap:round;stroke-linejoin:round;stroke-miterlimit:10;}
	.st157{fill:none;stroke:#333333;stroke-width:2.7439;stroke-linecap:round;stroke-linejoin:round;stroke-miterlimit:10;}
	.st158{fill:#333333;stroke:#333333;stroke-width:1.0293;stroke-linecap:round;stroke-linejoin:round;stroke-miterlimit:10;}
	.st159{fill:#FF5F2A;}
	.st160{fill:none;stroke:#333333;stroke-width:0.5965;stroke-linecap:round;stroke-linejoin:round;stroke-miterlimit:10;}
	.st161{fill:#F9CC3E;}
	.st162{clip-path:url(#SVGID_121_);}
	.st163{fill:#70E1FF;}
	.st164{fill:none;stroke:#333333;stroke-width:0.5717;stroke-linecap:round;stroke-linejoin:round;stroke-miterlimit:10;}
	.st165{fill:none;stroke:#333333;stroke-width:2.6004;stroke-linecap:round;stroke-linejoin:round;stroke-miterlimit:10;}
	.st166{clip-path:url(#SVGID_123_);}
	.st167{fill:#8F61FF;}
	.st168{clip-path:url(#SVGID_125_);}
	.st169{clip-path:url(#SVGID_127_);}
	.st170{fill:#FFEBEB;}
	.st171{clip-path:url(#SVGID_129_);}
	.st172{clip-path:url(#SVGID_131_);}
	.st173{fill:#F47D62;}
	.st174{fill:none;stroke:#333333;stroke-width:0.7188;stroke-linecap:round;stroke-linejoin:round;stroke-miterlimit:10;}
	.st175{fill:none;stroke:#333333;stroke-width:0.7188;stroke-miterlimit:10;}
	.st176{fill:none;stroke:#333333;stroke-width:2.7502;stroke-linecap:round;stroke-linejoin:round;stroke-miterlimit:10;}
	.st177{fill:#85ACB5;}
	.st178{clip-path:url(#SVGID_133_);}
	.st179{fill:#D5F2F7;}
	.st180{fill:#FF694A;}
	.st181{fill:none;stroke:#333333;stroke-width:0.5693;stroke-linecap:round;stroke-linejoin:round;stroke-miterlimit:10;}
	.st182{fill:#FFDF15;}
	.st183{fill:none;stroke:#333333;stroke-width:0.6674;stroke-linecap:round;stroke-linejoin:round;stroke-miterlimit:10;}
	.st184{fill:none;stroke:#333333;stroke-width:3.0352;stroke-linecap:round;stroke-linejoin:round;stroke-miterlimit:10;}
	.st185{clip-path:url(#SVGID_135_);}
	.st186{clip-path:url(#SVGID_137_);}
	.st187{fill:none;stroke:#333333;stroke-width:0.5248;stroke-linecap:round;stroke-linejoin:round;stroke-miterlimit:10;}
	.st188{fill:#FFD33A;}
	.st189{fill:none;stroke:#333333;stroke-width:2.7983;stroke-linecap:round;stroke-linejoin:round;stroke-miterlimit:10;}
	.st190{fill:none;stroke:#333333;stroke-width:0.7692;stroke-linecap:round;stroke-linejoin:round;stroke-miterlimit:10;}
	.st191{fill:none;stroke:#333333;stroke-width:0.5959;stroke-miterlimit:10;}
	.st192{clip-path:url(#SVGID_143_);}
	.st193{fill:#FFE267;}
	.st194{clip-path:url(#SVGID_149_);}
	.st195{fill:#FFEEAA;}
	.st196{opacity:0.7;fill:url(#SVGID_152_);}
	.st197{fill:none;stroke:#333333;stroke-width:0.611;stroke-miterlimit:10;}
	.st198{clip-path:url(#SVGID_154_);}
	.st199{opacity:0.7;fill:url(#SVGID_157_);}
	.st200{fill:#EABBFC;}
	.st201{opacity:0.7;fill:url(#SVGID_160_);}
	.st202{opacity:0.7;fill:url(#SVGID_163_);}
	.st203{opacity:0.7;fill:url(#SVGID_166_);}
	.st204{opacity:0.7;fill:url(#SVGID_169_);}
	.st205{clip-path:url(#SVGID_171_);}
	.st206{fill:none;stroke:#333333;stroke-width:0.5899;stroke-linecap:round;stroke-linejoin:round;stroke-miterlimit:10;}
	.st207{fill:none;stroke:#333333;stroke-width:2.6828;stroke-linecap:round;stroke-linejoin:round;stroke-miterlimit:10;}
	.st208{fill:none;stroke:#333333;stroke-width:0.5713;stroke-miterlimit:10;}
	.st209{clip-path:url(#SVGID_173_);}
	.st210{clip-path:url(#SVGID_175_);}
	.st211{clip-path:url(#SVGID_177_);}
	.st212{fill:#FFAFC3;}
	.st213{fill:#A0D3FF;}
	.st214{fill:none;stroke:#333333;stroke-width:0.7262;stroke-linecap:round;stroke-linejoin:round;stroke-miterlimit:10;}
	.st215{fill:none;stroke:#333333;stroke-width:0.6906;stroke-miterlimit:10;}
	.st216{fill:none;stroke:#333333;stroke-width:0.8536;stroke-miterlimit:10;}
	.st217{fill:#333333;stroke:#333333;stroke-width:0.991;stroke-linecap:round;stroke-linejoin:round;stroke-miterlimit:10;}
	.st218{clip-path:url(#SVGID_179_);}
	.st219{clip-path:url(#SVGID_181_);}
	.st220{fill:#FD9994;}
	.st221{opacity:0.2;}
	.st222{fill:#2E3192;}
	.st223{display:inline;fill:#FF5B00;}
</style>
<g id="site">
</g>
<g id="kitties">
	<g>
		<path class="st161" d="M59.1,39.8c0,0-4.9-8.5-6.6-10.3s-4.3-4.5-5.1-1.7s-2.3,15.4-1.5,19.9C46.7,52.2,61.9,42.9,59.1,39.8z"/>
		<path class="st161" d="M109.6,39.8c0,0,4.8-8.7,6.5-10.6c1.7-1.8,3.9-4.8,4.9-2.1c1.4,3.5,2.6,16,1.8,20.6S106.7,42.9,109.6,39.8z
			"/>
		<g>
			<g>
				<path class="st153" d="M45.9,47.7c0,0-0.6-20.8,2.6-21.2c3.2-0.5,10.5,13.4,10.5,13.4"/>
				<path class="st153" d="M45.9,47.7c0,0-0.6-20.8,2.6-21.2"/>
				<g>
					<path class="st26" d="M50,30.5c1.2,1.7,2.2,3.5,3.1,5.3c0.9,1.8,1.7,3.8,2.3,5.7c0.1,0.2-0.1,0.5-0.3,0.6
						c-0.2,0.1-0.5-0.1-0.6-0.3c0,0,0,0,0,0c-0.5-1.9-1.2-3.8-2-5.7c-0.8-1.8-1.7-3.7-2.8-5.4l0,0c-0.1-0.1,0-0.2,0.1-0.2
						C49.8,30.4,49.9,30.4,50,30.5z"/>
				</g>
				<path class="st154" d="M50.8,32.7c0,0-2.4,1.6-0.5,11.8"/>
				<path class="st26" d="M55,41.9l-4.7,2.7c0,0-1.2-6.5-0.6-8.8c0.6-2.3,1.3-3.3,1.3-3.3S54.4,38.9,55,41.9z"/>
			</g>
		</g>
		<g>
			<g>
				<path class="st153" d="M122.7,47.1c0,0,0.6-20.8-2.6-21.2c-3.2-0.5-10.5,13.4-10.5,13.4"/>
				<path class="st153" d="M122.7,47.1c0,0,0.6-20.8-2.6-21.2"/>
				<g>
					<path class="st26" d="M118.9,30.1c-1.1,1.7-2,3.5-2.8,5.4c-0.8,1.9-1.5,3.8-2,5.7c-0.1,0.2-0.3,0.4-0.6,0.3s-0.4-0.3-0.3-0.6
						c0,0,0,0,0,0c0.6-2,1.4-3.9,2.3-5.7c0.9-1.8,1.9-3.6,3.1-5.3c0.1-0.1,0.2-0.1,0.2,0C119,29.9,119,30,118.9,30.1L118.9,30.1z"/>
				</g>
				<path class="st154" d="M117.8,32.1c0,0,2.4,1.6,0.5,11.8"/>
				<path class="st26" d="M113.6,41.3l4.7,2.7c0,0,1.2-6.5,0.6-8.8s-1.3-3.3-1.3-3.3S114.3,38.3,113.6,41.3z"/>
			</g>
		</g>
		<path class="st155" d="M75.5,155.5c0,0,12.2-0.6,20.2,0.1"/>
		<path class="st27" d="M127.1,49.1c0,0-7.1-9.9-27.6-13.8c0.5-0.7,0.9-1.3,1.3-2.1c0.6-1.2,1.1-2.8,0.4-4c-0.6-1-1.9-1.5-3.1-1.5
			c-1.2,0.1-2.3,0.6-3.4,1.1c-2.6,1.2-5.2,2.7-7.3,4.6c0.3-0.9,0.4-1.8,0.2-2.7c-0.3-1.5-1.6-2.9-3.2-2.9c-1.4,0-2.6,0.9-3.7,1.7
			c-2.5,1.7-6.5,3.5-9.4,5.5c-0.2,0-0.4,0.1-0.6,0.1c0,0-11.7,1.5-23.4,10.1c-2.3,1.7-3.6,4.1-5.8,6.4c0,0-2.5,2.2-4,6.3
			c-1.9,5-3.9,12.3-3.3,19.5c0.3,4.1,3.9,13.8,7.2,16.8c1,0.9,4.7,4.6,7.6,7c1.2,0.9,4.6,2.9,6.9,4.1c1.5,0.8,3.3,1.6,5.8,2.4
			c0,0,0,0,0,0c0,0,0,0,0,0c0,0,0,0,0,0c0,0,0,0,0,0.1c0,0,0,0,0,0c0,0,0,0.1,0,0.1c0,0,0,0,0,0c0,0,0,0.1-0.1,0.1c0,0,0,0,0,0.1
			c0,0,0,0.1-0.1,0.2c0,0,0,0,0,0c-0.2,0.4-0.4,1-0.7,1.7c0,0,0,0,0,0.1c0,0.1-0.1,0.2-0.1,0.3c0,0,0,0.1,0,0.1
			c0,0.1-0.1,0.2-0.1,0.3c0,0,0,0.1-0.1,0.1c0,0.1-0.1,0.2-0.1,0.3c0,0.1,0,0.1-0.1,0.2c0,0.1-0.1,0.2-0.1,0.3c0,0.1,0,0.1-0.1,0.2
			c0,0.1-0.1,0.2-0.2,0.4c0,0.1-0.1,0.1-0.1,0.2c-0.1,0.1-0.1,0.2-0.2,0.4c0,0.1-0.1,0.1-0.1,0.2c-0.1,0.1-0.1,0.2-0.2,0.4
			c0,0.1-0.1,0.1-0.1,0.2c-0.1,0.1-0.1,0.3-0.2,0.4c0,0.1-0.1,0.1-0.1,0.2c-0.1,0.1-0.1,0.3-0.2,0.4c0,0.1-0.1,0.2-0.1,0.2
			c-0.1,0.1-0.1,0.3-0.2,0.4c0,0.1-0.1,0.2-0.1,0.2c-0.1,0.1-0.1,0.3-0.2,0.4c0,0.1-0.1,0.2-0.1,0.2c-0.1,0.1-0.1,0.3-0.2,0.4
			c0,0.1-0.1,0.2-0.1,0.3c-0.1,0.1-0.1,0.3-0.2,0.4c0,0.1-0.1,0.2-0.1,0.3c-0.1,0.1-0.1,0.3-0.2,0.4c0,0.1-0.1,0.2-0.1,0.3
			c-0.1,0.1-0.1,0.3-0.2,0.4c0,0.1-0.1,0.2-0.1,0.3c-0.1,0.1-0.1,0.3-0.2,0.4c0,0.1-0.1,0.2-0.1,0.3c-0.1,0.1-0.1,0.3-0.2,0.4
			c0,0.1-0.1,0.2-0.1,0.3c-0.1,0.1-0.1,0.3-0.2,0.4c0,0.1-0.1,0.2-0.1,0.3c-0.1,0.1-0.1,0.3-0.2,0.4c0,0.1-0.1,0.2-0.1,0.3
			c-0.1,0.1-0.1,0.3-0.2,0.5c0,0.1-0.1,0.2-0.1,0.3c-0.1,0.2-0.1,0.3-0.2,0.5c0,0.1-0.1,0.2-0.1,0.3c-0.1,0.2-0.1,0.3-0.2,0.5
			c0,0.1-0.1,0.2-0.1,0.3c-0.1,0.2-0.1,0.3-0.2,0.5c0,0.1-0.1,0.2-0.1,0.3c-0.1,0.2-0.1,0.3-0.2,0.5c0,0.1-0.1,0.2-0.1,0.3
			c-0.1,0.2-0.1,0.3-0.2,0.5c0,0.1-0.1,0.2-0.1,0.3c-0.1,0.2-0.1,0.3-0.2,0.5c0,0.1-0.1,0.2-0.1,0.3c0,0.2-0.1,0.3-0.1,0.5
			c0,0.1-0.1,0.2-0.1,0.3c0,0.2-0.1,0.3-0.1,0.5c0,0.1-0.1,0.2-0.1,0.4c0,0.2-0.1,0.3-0.1,0.5c0,0.1-0.1,0.2-0.1,0.4
			c0,0.2-0.1,0.3-0.1,0.5c0,0.1-0.1,0.2-0.1,0.4c0,0.1-0.1,0.3-0.1,0.4c0,0.1-0.1,0.2-0.1,0.4c0,0.1-0.1,0.3-0.1,0.4
			c0,0.1-0.1,0.2-0.1,0.4c0,0.1-0.1,0.3-0.1,0.4c0,0.1-0.1,0.2-0.1,0.4c0,0.1-0.1,0.3-0.1,0.4c0,0.1-0.1,0.2-0.1,0.4
			c0,0.1-0.1,0.3-0.1,0.4c0,0.1-0.1,0.2-0.1,0.4c0,0.1-0.1,0.3-0.1,0.4c0,0.1-0.1,0.2-0.1,0.4c0,0.1-0.1,0.3-0.1,0.4
			c0,0.1-0.1,0.2-0.1,0.3c0,0.1-0.1,0.3-0.1,0.4c0,0.1,0,0.2-0.1,0.3c0,0.1-0.1,0.3-0.1,0.4c0,0.1,0,0.2-0.1,0.3
			c0,0.1,0,0.3-0.1,0.4c0,0.1,0,0.2-0.1,0.3c0,0.1,0,0.3-0.1,0.4c0,0.1,0,0.2-0.1,0.3c0,0.1,0,0.3-0.1,0.4c0,0.1,0,0.2,0,0.3
			c0,0.1,0,0.3,0,0.4c0,0.1,0,0.2,0,0.3c0,0.1,0,0.2,0,0.4c0,0.1,0,0.2,0,0.3c0,0.1,0,0.2,0,0.4c0,0.1,0,0.2,0,0.3
			c0,0.1,0,0.2,0,0.4c0,0.1,0,0.2,0,0.3c0,0.1,0,0.2,0,0.3c0,0.1,0,0.2,0,0.3c0,0.1,0,0.2,0,0.3c0,0.1,0,0.2,0,0.3
			c0,0.1,0,0.2,0,0.3c0,0.1,0,0.2,0,0.3c0,0.1,0,0.2,0,0.3c0,0.1,0,0.2,0,0.2c0,0.1,0,0.2,0,0.3c0,0.1,0,0.1,0,0.2
			c0,0.1,0,0.2,0.1,0.4c0,0.1,0,0.1,0,0.2c0,0.2,0.1,0.3,0.1,0.5c-0.1,0.4-0.1,0.8,0,1.1c0,0.2,0,0.5,0.1,0.7
			c0.1,0.6,0.3,1.1,0.6,1.6c0.1,0.2,0.3,0.4,0.4,0.6c0.4,0.5,0.8,0.9,1.3,1.3c0.5,0.4,1.1,0.7,1.8,1c0.1,0.1,0.3,0.1,0.4,0.2
			c0.5,0.2,1.1,0.5,1.7,0.7c0.4,0.2,0.9,0.3,1.4,0.4c0.6,0.2,1.3,0.3,2,0.5c1,0.2,2.1,0.4,3.1,0.5c0.4,0,0.7,0.1,1.1,0.1
			c0.4,0,0.7,0.1,1.1,0.1c0.5,0,1.1,0.1,1.6,0.1c3,0.2,6,0.2,8.4,0c0,0,0.7,4,4.9,3.9h0c0.1,0,0.3,0,0.4,0c2.3-0.5,2.7-4.6,3-4.3
			c0.2,0.2,3.1,0,3.2,0c0,0,0-0.1,0-0.1l0.5,0c0,0,0,0.1,0,0.1c0,0.1,0,0.2,0.1,0.2c0,0.1,0,0.1,0,0.2c0,0.1,0.1,0.2,0.1,0.3
			c0,0,0,0.1,0,0.1c0,0.1,0.1,0.2,0.1,0.4c0,0,0,0.1,0,0.1c0,0.1,0.1,0.2,0.1,0.2c0,0,0,0.1,0.1,0.1c0,0.1,0.1,0.1,0.1,0.2
			c0,0,0,0.1,0.1,0.1c0,0.1,0.1,0.1,0.1,0.2c0,0,0,0.1,0,0.1c0,0.1,0.1,0.2,0.1,0.3c0,0,0,0,0,0c0,0.1,0.1,0.2,0.1,0.3
			c0,0,0,0.1,0.1,0.1c0,0.1,0.1,0.1,0.1,0.2c0,0,0,0.1,0.1,0.1c0,0.1,0.1,0.1,0.1,0.2c0,0,0,0.1,0.1,0.1c0,0.1,0.1,0.1,0.1,0.2
			c0,0,0,0,0,0.1c0.1,0.1,0.1,0.1,0.2,0.2c0,0,0,0,0,0c0,0,0.1,0.1,0.1,0.1c0,0,0,0,0.1,0.1c0,0,0.1,0.1,0.1,0.1c0,0,0,0,0.1,0.1
			c0,0,0.1,0.1,0.1,0.1c0,0,0,0,0.1,0c0.1,0,0.1,0.1,0.2,0.1c0.2,0.1,0.4,0.2,0.6,0.2c0.1,0,0.1,0,0.2,0c0.8,0,1.4-0.7,2-1.4
			c0.1-0.1,0.1-0.1,0.2-0.2c0.2-0.3,0.4-0.6,0.6-0.9c0-0.1,0.1-0.1,0.1-0.2c0.2-0.4,0.4-0.7,0.6-1c0.2-0.3,0.4-0.6,0.6-0.7
			c0,0,1.9,0.2,4.7,0.2c0.6,0,1.2,0,1.8,0c1.9,0,3.9-0.1,6-0.4c0.3,0,0.7-0.1,1-0.1c0.2,0,0.3-0.1,0.5-0.1c0.3-0.1,0.7-0.1,1-0.2
			c0.2,0,0.3-0.1,0.5-0.1c1.2-0.2,2.3-0.6,3.3-1c0.1-0.1,0.3-0.1,0.4-0.2c0.3-0.1,0.6-0.2,0.8-0.4c1.6-0.8,2.9-1.8,3.6-3.2
			c0.1-0.3,0.3-0.6,0.4-0.9c0.1-0.2,0.1-0.4,0.1-0.5c0.2-1.1,0.3-2.5,0.3-4.1c0-0.3,0-0.5,0-0.8c0-0.1,0-0.3,0-0.4
			c0-0.3,0-0.6-0.1-0.9c0-0.4-0.1-0.9-0.1-1.4c0-0.3-0.1-0.6-0.1-0.9c0-0.2,0-0.3-0.1-0.5c-0.1-0.6-0.2-1.3-0.3-2
			c0-0.2-0.1-0.3-0.1-0.5c-0.9-5-2.4-10.7-4.1-15.6c-0.1-0.2-0.1-0.4-0.2-0.7c0-0.1,0-0.1-0.1-0.2c-0.1-0.2-0.1-0.3-0.2-0.5
			c0-0.1-0.1-0.1-0.1-0.2c-0.1-0.2-0.1-0.3-0.2-0.5c0-0.1,0-0.1-0.1-0.2c-0.1-0.2-0.2-0.4-0.2-0.6c0,0,0,0,0-0.1
			c-0.1-0.2-0.1-0.4-0.2-0.6c0-0.1-0.1-0.1-0.1-0.2c-0.1-0.1-0.1-0.3-0.2-0.4c0-0.1-0.1-0.1-0.1-0.2c-0.1-0.1-0.1-0.3-0.2-0.4
			c0-0.1,0-0.1-0.1-0.2c-0.1-0.2-0.2-0.4-0.2-0.6c0,0,0-0.1,0-0.1c-0.1-0.2-0.1-0.3-0.2-0.5c0-0.1,0-0.1-0.1-0.2
			c-0.1-0.1-0.1-0.3-0.2-0.4c0-0.1-0.1-0.1-0.1-0.2c-0.1-0.1-0.1-0.3-0.2-0.4c0,0,0-0.1-0.1-0.1c-0.1-0.2-0.2-0.4-0.2-0.5
			c0,0,0-0.1,0-0.1c-0.1-0.1-0.1-0.3-0.2-0.4c0-0.1,0-0.1-0.1-0.2c-0.1-0.1-0.1-0.2-0.2-0.3c0-0.1,0-0.1-0.1-0.2
			c-0.1-0.1-0.1-0.3-0.2-0.4c0,0,0-0.1,0-0.1c-0.1-0.2-0.1-0.3-0.2-0.5c0,0,0-0.1,0-0.1c-0.1-0.1-0.1-0.2-0.2-0.3c0,0,0-0.1-0.1-0.1
			c0-0.1-0.1-0.2-0.1-0.3c0,0,0-0.1-0.1-0.1c-0.1-0.1-0.1-0.2-0.2-0.3c0,0,0,0,0-0.1c-0.1-0.1-0.1-0.2-0.2-0.4c0,0,0-0.1,0-0.1
			c0-0.1-0.1-0.2-0.1-0.2c0,0,0-0.1-0.1-0.1c0-0.1-0.1-0.1-0.1-0.2c0,0,0-0.1-0.1-0.1c0-0.1-0.1-0.2-0.1-0.2c0,0,0,0,0,0
			c0-0.1-0.1-0.2-0.1-0.3c0,0,0-0.1,0-0.1c0-0.1-0.1-0.1-0.1-0.2c0,0,0-0.1,0-0.1c0,0,0,0,0-0.1c0.7-0.3,2.4-1.1,4.7-2.3
			c1.9-1,6.5-3.7,7.6-4.5c0.9-0.7,7-6,8.2-7.3c7.1-8,6.8-17.3,6.8-19.8C137.1,58.4,127.1,49.1,127.1,49.1z"/>
		<g>
			<defs>
				<path id="SVGID_122_" d="M127.1,49.1c0,0-7.1-9.9-27.6-13.8c0.5-0.7,0.9-1.3,1.3-2.1c0.6-1.2,1.1-2.8,0.4-4
					c-0.6-1-1.9-1.5-3.1-1.5c-1.2,0.1-2.3,0.6-3.4,1.1c-2.6,1.2-5.2,2.7-7.3,4.6c0.3-0.9,0.4-1.8,0.2-2.7c-0.3-1.5-1.6-2.9-3.2-2.9
					c-1.4,0-2.6,0.9-3.7,1.7c-2.5,1.7-6.5,3.5-9.4,5.5c-0.2,0-0.4,0.1-0.6,0.1c0,0-11.7,1.5-23.4,10.1c-2.3,1.7-3.6,4.1-5.8,6.4
					c0,0-2.5,2.2-4,6.3c-1.9,5-3.9,12.3-3.3,19.5c0.3,4.1,3.9,13.8,7.2,16.8c1,0.9,4.7,4.6,7.6,7c1.2,0.9,4.6,2.9,6.9,4.1
					c1.5,0.8,3.3,1.6,5.8,2.4c0,0,0,0,0,0c0,0,0,0,0,0c0,0,0,0,0,0c0,0,0,0,0,0.1c0,0,0,0,0,0c0,0,0,0.1,0,0.1c0,0,0,0,0,0
					c0,0,0,0.1-0.1,0.1c0,0,0,0,0,0.1c0,0,0,0.1-0.1,0.2c0,0,0,0,0,0c-0.2,0.4-0.4,1-0.7,1.7c0,0,0,0,0,0.1c0,0.1-0.1,0.2-0.1,0.3
					c0,0,0,0.1,0,0.1c0,0.1-0.1,0.2-0.1,0.3c0,0,0,0.1-0.1,0.1c0,0.1-0.1,0.2-0.1,0.3c0,0.1,0,0.1-0.1,0.2c0,0.1-0.1,0.2-0.1,0.3
					c0,0.1,0,0.1-0.1,0.2c0,0.1-0.1,0.2-0.2,0.4c0,0.1-0.1,0.1-0.1,0.2c-0.1,0.1-0.1,0.2-0.2,0.4c0,0.1-0.1,0.1-0.1,0.2
					c-0.1,0.1-0.1,0.2-0.2,0.4c0,0.1-0.1,0.1-0.1,0.2c-0.1,0.1-0.1,0.3-0.2,0.4c0,0.1-0.1,0.1-0.1,0.2c-0.1,0.1-0.1,0.3-0.2,0.4
					c0,0.1-0.1,0.2-0.1,0.2c-0.1,0.1-0.1,0.3-0.2,0.4c0,0.1-0.1,0.2-0.1,0.2c-0.1,0.1-0.1,0.3-0.2,0.4c0,0.1-0.1,0.2-0.1,0.2
					c-0.1,0.1-0.1,0.3-0.2,0.4c0,0.1-0.1,0.2-0.1,0.3c-0.1,0.1-0.1,0.3-0.2,0.4c0,0.1-0.1,0.2-0.1,0.3c-0.1,0.1-0.1,0.3-0.2,0.4
					c0,0.1-0.1,0.2-0.1,0.3c-0.1,0.1-0.1,0.3-0.2,0.4c0,0.1-0.1,0.2-0.1,0.3c-0.1,0.1-0.1,0.3-0.2,0.4c0,0.1-0.1,0.2-0.1,0.3
					c-0.1,0.1-0.1,0.3-0.2,0.4c0,0.1-0.1,0.2-0.1,0.3c-0.1,0.1-0.1,0.3-0.2,0.4c0,0.1-0.1,0.2-0.1,0.3c-0.1,0.1-0.1,0.3-0.2,0.4
					c0,0.1-0.1,0.2-0.1,0.3c-0.1,0.1-0.1,0.3-0.2,0.5c0,0.1-0.1,0.2-0.1,0.3c-0.1,0.2-0.1,0.3-0.2,0.5c0,0.1-0.1,0.2-0.1,0.3
					c-0.1,0.2-0.1,0.3-0.2,0.5c0,0.1-0.1,0.2-0.1,0.3c-0.1,0.2-0.1,0.3-0.2,0.5c0,0.1-0.1,0.2-0.1,0.3c-0.1,0.2-0.1,0.3-0.2,0.5
					c0,0.1-0.1,0.2-0.1,0.3c-0.1,0.2-0.1,0.3-0.2,0.5c0,0.1-0.1,0.2-0.1,0.3c-0.1,0.2-0.1,0.3-0.2,0.5c0,0.1-0.1,0.2-0.1,0.3
					c0,0.2-0.1,0.3-0.1,0.5c0,0.1-0.1,0.2-0.1,0.3c0,0.2-0.1,0.3-0.1,0.5c0,0.1-0.1,0.2-0.1,0.4c0,0.2-0.1,0.3-0.1,0.5
					c0,0.1-0.1,0.2-0.1,0.4c0,0.2-0.1,0.3-0.1,0.5c0,0.1-0.1,0.2-0.1,0.4c0,0.1-0.1,0.3-0.1,0.4c0,0.1-0.1,0.2-0.1,0.4
					c0,0.1-0.1,0.3-0.1,0.4c0,0.1-0.1,0.2-0.1,0.4c0,0.1-0.1,0.3-0.1,0.4c0,0.1-0.1,0.2-0.1,0.4c0,0.1-0.1,0.3-0.1,0.4
					c0,0.1-0.1,0.2-0.1,0.4c0,0.1-0.1,0.3-0.1,0.4c0,0.1-0.1,0.2-0.1,0.4c0,0.1-0.1,0.3-0.1,0.4c0,0.1-0.1,0.2-0.1,0.4
					c0,0.1-0.1,0.3-0.1,0.4c0,0.1-0.1,0.2-0.1,0.3c0,0.1-0.1,0.3-0.1,0.4c0,0.1,0,0.2-0.1,0.3c0,0.1-0.1,0.3-0.1,0.4
					c0,0.1,0,0.2-0.1,0.3c0,0.1,0,0.3-0.1,0.4c0,0.1,0,0.2-0.1,0.3c0,0.1,0,0.3-0.1,0.4c0,0.1,0,0.2-0.1,0.3c0,0.1,0,0.3-0.1,0.4
					c0,0.1,0,0.2,0,0.3c0,0.1,0,0.3,0,0.4c0,0.1,0,0.2,0,0.3c0,0.1,0,0.2,0,0.4c0,0.1,0,0.2,0,0.3c0,0.1,0,0.2,0,0.4
					c0,0.1,0,0.2,0,0.3c0,0.1,0,0.2,0,0.4c0,0.1,0,0.2,0,0.3c0,0.1,0,0.2,0,0.3c0,0.1,0,0.2,0,0.3c0,0.1,0,0.2,0,0.3
					c0,0.1,0,0.2,0,0.3c0,0.1,0,0.2,0,0.3c0,0.1,0,0.2,0,0.3c0,0.1,0,0.2,0,0.3c0,0.1,0,0.2,0,0.2c0,0.1,0,0.2,0,0.3
					c0,0.1,0,0.1,0,0.2c0,0.1,0,0.2,0.1,0.4c0,0.1,0,0.1,0,0.2c0,0.2,0.1,0.3,0.1,0.5c-0.1,0.4-0.1,0.8,0,1.1c0,0.2,0,0.5,0.1,0.7
					c0.1,0.6,0.3,1.1,0.6,1.6c0.1,0.2,0.3,0.4,0.4,0.6c0.4,0.5,0.8,0.9,1.3,1.3c0.5,0.4,1.1,0.7,1.8,1c0.1,0.1,0.3,0.1,0.4,0.2
					c0.5,0.2,1.1,0.5,1.7,0.7c0.4,0.2,0.9,0.3,1.4,0.4c0.6,0.2,1.3,0.3,2,0.5c1,0.2,2.1,0.4,3.1,0.5c0.4,0,0.7,0.1,1.1,0.1
					c0.4,0,0.7,0.1,1.1,0.1c0.5,0,1.1,0.1,1.6,0.1c3,0.2,6,0.2,8.4,0c0,0,0.7,4,4.9,3.9h0c0.1,0,0.3,0,0.4,0c2.3-0.5,2.7-4.6,3-4.3
					c0.2,0.2,3.1,0,3.2,0c0,0,0-0.1,0-0.1l0.5,0c0,0,0,0.1,0,0.1c0,0.1,0,0.2,0.1,0.2c0,0.1,0,0.1,0,0.2c0,0.1,0.1,0.2,0.1,0.3
					c0,0,0,0.1,0,0.1c0,0.1,0.1,0.2,0.1,0.4c0,0,0,0.1,0,0.1c0,0.1,0.1,0.2,0.1,0.2c0,0,0,0.1,0.1,0.1c0,0.1,0.1,0.1,0.1,0.2
					c0,0,0,0.1,0.1,0.1c0,0.1,0.1,0.1,0.1,0.2c0,0,0,0.1,0,0.1c0,0.1,0.1,0.2,0.1,0.3c0,0,0,0,0,0c0,0.1,0.1,0.2,0.1,0.3
					c0,0,0,0.1,0.1,0.1c0,0.1,0.1,0.1,0.1,0.2c0,0,0,0.1,0.1,0.1c0,0.1,0.1,0.1,0.1,0.2c0,0,0,0.1,0.1,0.1c0,0.1,0.1,0.1,0.1,0.2
					c0,0,0,0,0,0.1c0.1,0.1,0.1,0.1,0.2,0.2c0,0,0,0,0,0c0,0,0.1,0.1,0.1,0.1c0,0,0,0,0.1,0.1c0,0,0.1,0.1,0.1,0.1c0,0,0,0,0.1,0.1
					c0,0,0.1,0.1,0.1,0.1c0,0,0,0,0.1,0c0.1,0,0.1,0.1,0.2,0.1c0.2,0.1,0.4,0.2,0.6,0.2c0.1,0,0.1,0,0.2,0c0.8,0,1.4-0.7,2-1.4
					c0.1-0.1,0.1-0.1,0.2-0.2c0.2-0.3,0.4-0.6,0.6-0.9c0-0.1,0.1-0.1,0.1-0.2c0.2-0.4,0.4-0.7,0.6-1c0.2-0.3,0.4-0.6,0.6-0.7
					c0,0,1.9,0.2,4.7,0.2c0.6,0,1.2,0,1.8,0c1.9,0,3.9-0.1,6-0.4c0.3,0,0.7-0.1,1-0.1c0.2,0,0.3-0.1,0.5-0.1c0.3-0.1,0.7-0.1,1-0.2
					c0.2,0,0.3-0.1,0.5-0.1c1.2-0.2,2.3-0.6,3.3-1c0.1-0.1,0.3-0.1,0.4-0.2c0.3-0.1,0.6-0.2,0.8-0.4c1.6-0.8,2.9-1.8,3.6-3.2
					c0.1-0.3,0.3-0.6,0.4-0.9c0.1-0.2,0.1-0.4,0.1-0.5c0.2-1.1,0.3-2.5,0.3-4.1c0-0.3,0-0.5,0-0.8c0-0.1,0-0.3,0-0.4
					c0-0.3,0-0.6-0.1-0.9c0-0.4-0.1-0.9-0.1-1.4c0-0.3-0.1-0.6-0.1-0.9c0-0.2,0-0.3-0.1-0.5c-0.1-0.6-0.2-1.3-0.3-2
					c0-0.2-0.1-0.3-0.1-0.5c-0.9-5-2.4-10.7-4.1-15.6c-0.1-0.2-0.1-0.4-0.2-0.7c0-0.1,0-0.1-0.1-0.2c-0.1-0.2-0.1-0.3-0.2-0.5
					c0-0.1-0.1-0.1-0.1-0.2c-0.1-0.2-0.1-0.3-0.2-0.5c0-0.1,0-0.1-0.1-0.2c-0.1-0.2-0.2-0.4-0.2-0.6c0,0,0,0,0-0.1
					c-0.1-0.2-0.1-0.4-0.2-0.6c0-0.1-0.1-0.1-0.1-0.2c-0.1-0.1-0.1-0.3-0.2-0.4c0-0.1-0.1-0.1-0.1-0.2c-0.1-0.1-0.1-0.3-0.2-0.4
					c0-0.1,0-0.1-0.1-0.2c-0.1-0.2-0.2-0.4-0.2-0.6c0,0,0-0.1,0-0.1c-0.1-0.2-0.1-0.3-0.2-0.5c0-0.1,0-0.1-0.1-0.2
					c-0.1-0.1-0.1-0.3-0.2-0.4c0-0.1-0.1-0.1-0.1-0.2c-0.1-0.1-0.1-0.3-0.2-0.4c0,0,0-0.1-0.1-0.1c-0.1-0.2-0.2-0.4-0.2-0.5
					c0,0,0-0.1,0-0.1c-0.1-0.1-0.1-0.3-0.2-0.4c0-0.1,0-0.1-0.1-0.2c-0.1-0.1-0.1-0.2-0.2-0.3c0-0.1,0-0.1-0.1-0.2
					c-0.1-0.1-0.1-0.3-0.2-0.4c0,0,0-0.1,0-0.1c-0.1-0.2-0.1-0.3-0.2-0.5c0,0,0-0.1,0-0.1c-0.1-0.1-0.1-0.2-0.2-0.3
					c0,0,0-0.1-0.1-0.1c0-0.1-0.1-0.2-0.1-0.3c0,0,0-0.1-0.1-0.1c-0.1-0.1-0.1-0.2-0.2-0.3c0,0,0,0,0-0.1c-0.1-0.1-0.1-0.2-0.2-0.4
					c0,0,0-0.1,0-0.1c0-0.1-0.1-0.2-0.1-0.2c0,0,0-0.1-0.1-0.1c0-0.1-0.1-0.1-0.1-0.2c0,0,0-0.1-0.1-0.1c0-0.1-0.1-0.2-0.1-0.2
					c0,0,0,0,0,0c0-0.1-0.1-0.2-0.1-0.3c0,0,0-0.1,0-0.1c0-0.1-0.1-0.1-0.1-0.2c0,0,0-0.1,0-0.1c0,0,0,0,0-0.1
					c0.7-0.3,2.4-1.1,4.7-2.3c1.9-1,6.5-3.7,7.6-4.5c0.9-0.7,7-6,8.2-7.3c7.1-8,6.8-17.3,6.8-19.8C137.1,58.4,127.1,49.1,127.1,49.1
					z"/>
			</defs>
			<clipPath id="SVGID_2_">
				<use xlink:href="#SVGID_122_"  style="overflow:visible;"/>
			</clipPath>
			<g style="clip-path:url(#SVGID_2_);">
				<path class="st161" d="M85.8,58.1c0.8-0.7,1.8-1.2,3.3-1.2s2.9-2.8,2.6-5.4c-0.3-2.6-1.6-1.8-2.4-2.5c-0.8-0.7-1.4-1.8-1.4-3.2
					c0,0-0.7,1.1-0.4,2.5c0.2,1,1,2,0.2,2.2s-2.3,0-2.5-1.9c-0.2-1.9,0.2-1.3,0.1-2.8c-0.2-1.5-0.2-2.6,0.2-2.5
					c0.4,0.2,0.9,1.6,0.8,2.2c0,0,0.4-0.7,0-2.4s0.3-3.2,0.3-3.2s-1.2,0.8-1.5,2.1c-0.3,1.4-0.8,0.9-0.9,2.2s0.3,2.5-0.2,2.5
					c-0.5-0.1-1.5-0.7-2-2.6c0,0-0.5,2.1-0.4,3.1c0.1,1.1,0.6,2,0.6,2s0.5-1.5,0.9-1.3s0.8,4,0.4,4.6c0,0-0.8-0.4-0.8-1.4
					c0,0-0.7,0.2-0.9,1.5c0,0-1.1-0.9-1-3.2c0,0-2.3,5-0.1,7.5S85.1,58.7,85.8,58.1"/>
				<path class="st161" d="M65.5,137.8c0,0-0.5,1.1-2,1.6s-1.4-2.7-1.4-2.7c-1,2.2-1.8,2.3-2.6,1.8c-0.8-0.5,1.2-4.2,1.2-4.2
					s-0.9,1-1.7,0c-0.9-1,1.1-3.4,1.9-4c0.8-0.6,1.3,0.4,1.5,0.4c0.3,0.1,0.7-1,0.9-3.1c0.2-2,1.3-4.1,1.3-4.1
					c-1,0.2-1.7,3.1-2.9,3.6c-1.1,0.5-1.2-0.9-1-1.7c0.2-0.8,0.6-2.8,0.3-3.3c-0.3-0.5-1.7-1.6-0.3-3.6c1.4-1.9,1-3.3,1-3.3
					c-0.3,0.9-0.9,1.5-1.7,1.8c-0.8,0.4-1.6-0.4-1.6-0.4c-0.5-0.4-0.4-1.5-0.4-1.5s-1.1,3.1-2.6,7.3c0.3,0,1.2-0.1,1.6-0.6
					c0.6-0.5,2.2-0.3,2.4,1c0.2,1.3-2.4-1-1.1,3.9c0.3,1.2-1.1,1-1,3.4c0,1.1-1.2-2.5-0.7-3.7c0.5-1.2,0.1-1.7-0.5-1.5
					c-0.5,0.2-1.3,2.1-2.5,2.4c-0.3,0.8-0.5,1.5-0.8,2.3c-2.6,7.5-2.2,11.2-2.2,11.2s-0.8,7.6,1.7,10.4c2.6,2.7,7.9,3.5,7.9,3.5
					c-1.7-1.6,2.3-8.5,2.3-8.5c-1.8-0.2,0.5-4.1,1.6-5.2C65.3,139.9,65.5,137.8,65.5,137.8z M54.9,145.2c0.1-0.7-0.2-1.4-0.4-1.9
					c-0.3-0.6,0.1-1.8,0.1-1.8c-1.9,0.2-2.1-2-1.4-3.1c0.7-1.1,0.8-2.4,0.8-2.4c0.8,1.4-0.4,2.8,0.9,3.3c1.2,0.6,2.6-3.5,2.6-3.5
					c1.1,3.9-1.5,6-1.5,6C56.3,143.9,54.9,145.2,54.9,145.2z M57.7,147.4c-1.1,0.6-1.8-1.1-1.8-1.1s1,0.2,1.4-0.2
					c0.4-0.4,0.4-3.5,0.4-3.5S58.7,146.7,57.7,147.4z"/>
				<path class="st161" d="M107.3,141.1c1.1,1.1,3.4,5,1.6,5.2c0,0,4.1,6.9,2.3,8.5c0,0,5.4-0.7,7.9-3.5c2.6-2.7,1.7-10.4,1.7-10.4
					s0.3-3.7-2.2-11.2c-0.3-0.8-0.5-1.5-0.8-2.3c-1.2-0.3-2-2.2-2.5-2.4c-0.6-0.2-1,0.4-0.5,1.5c0.5,1.2-0.8,4.8-0.7,3.7
					c0.1-2.4-1.3-2.2-1-3.4c1.3-4.9-1.2-2.7-1.1-3.9c0.2-1.3,1.8-1.5,2.4-1c0.5,0.4,1.4,0.5,1.6,0.6c-1.5-4.2-2.6-7.3-2.6-7.3
					s0.1,1.1-0.4,1.5c0,0-0.8,0.8-1.6,0.4c-0.8-0.4-1.5-1-1.7-1.8c0,0-0.4,1.4,1,3.3c1.4,1.9,0,3.1-0.3,3.6
					c-0.3,0.5,0.1,2.5,0.3,3.3c0.2,0.8,0.1,2.1-1,1.7c-1.1-0.5-1.9-3.4-2.9-3.6c0,0,1.1,2,1.3,4.1c0.2,2,0.7,3.1,0.9,3.1
					c0.3-0.1,0.7-1,1.5-0.4c0.8,0.6,2.8,3,1.9,4c-0.9,1-1.7,0-1.7,0s2,3.8,1.2,4.2c-0.8,0.5-1.6,0.4-2.6-1.8c0,0,0.1,3.2-1.4,2.7
					c-1.5-0.5-2-1.6-2-1.6S106.2,139.9,107.3,141.1z M115.7,141.7c0,0-2.7-2.1-1.5-6c0,0,1.4,4.1,2.6,3.5c1.2-0.6,0.1-1.9,0.9-3.3
					c0,0,0.2,1.3,0.8,2.4c0.7,1.1,0.5,3.3-1.4,3.1c0,0,0.3,1.3,0.1,1.8c-0.3,0.6-0.5,1.2-0.4,1.9
					C116.7,145.2,115.3,143.9,115.7,141.7z M113.9,142.6c0,0,0,3,0.4,3.5c0.4,0.4,1.4,0.2,1.4,0.2s-0.7,1.7-1.8,1.1
					C112.8,146.7,113.9,142.6,113.9,142.6z"/>
				<path class="st161" d="M86.6,146.4c0,0,0.6-3.6,2-3.7c0,0,1.2,3,3-0.2c0.7-1.3,1.5-1.8,2.3-1.9s2.2-1,2.7-1.6
					c0,0,0.1,1.2-0.4,1.7s-1.6,1-1.7,2.3c-0.1,1.3-0.7,2.2-0.9,2.3c-0.2,0.1,0.6,0.5,1.2-0.1c0.6-0.5,1.2-2.2,1.7-2.5
					c0,0,0.4,1.4-0.1,2.5c-0.5,1-2.2,2.3-1.2,3.6c1,1.3,2,0.4,3.5,0.7l-3.4,7.5l-7.2-1C88.2,155.8,87,151.3,86.6,146.4z"/>
				<path class="st161" d="M85.2,148.8c0-0.1-2.4-1.1-2.6-3.1c0,0-1.4,3.2-2.6,2.1c-1.2-1.1,0-2.1,1-2.5c1-0.4,1.2-2.3,0.9-3.3
					c0,0-0.5,0.9-1.1,1c-0.6,0.1-1.3,0.4-1.8,0.8c0,0,1.2-0.9,0.8-2.1s-1.5-1.1-1.8-2.5c0,0,0.4,2.2-0.3,2.6
					c-0.7,0.4-2.6,1.3-2.1,2.8s0.5,2-0.1,2.3c-0.5,0.3-2.2-0.3-2.2-0.3s-0.1,1.1-0.6,1.7c0,0,2.9,7.7,3.6,8.1
					c0.7,0.4,7.6-0.8,7.6-0.8L85.2,148.8z"/>
				<path class="st161" d="M38.1,54.8c0,0,1.3,1.6,2.3,1c0.9-0.5,1.5-2.1,2.9-2.4c0,0-0.7,1.9-1.5,3.4s-1,3-0.7,4.5
					s-1.1,3.6-1.4,3.6c-0.2,0.1,0.3-3-2.5-3c0,0,0.5,1,0,1.9c-0.5,0.9-1.9,3.4-1.6,4.4c0.3,1,0.9,0.7,1,1.7c0.1,1-0.8,2.6-0.3,2.9
					c0.5,0.3,1.6,0.4,1.7,0.6c0.1,0.2-1.3,2.3,0.3,2s2.5-2.3,1.7-3.2c-0.8-1-1.5-0.8-0.8-2.6c0.7-1.8,0.9-0.9,1.3-3.2
					c0,0,0.9-1.5,1.5-2c0,0,0.4,1.7-0.4,3c-0.8,1.3-0.4,4.9,1.5,3.3c1.9-1.6,1.7-4.1,3.8-5.1c0,0-0.8,1.6-0.9,2.9
					c-0.1,1.2-1.7,3.4-1.7,3.4s0.7,3.3-0.6,4.1c0,0-0.3-1.6-1.9-0.9c-1.6,0.7-5.9,6.4-2.7,6.9c1.5,0.3,2.1-0.8,2.1-0.8
					s-0.2,3.1-1.6,3.9s-1.4,3.4,0.5,3.2c1.9-0.2,2.4-1.7,2.5-3.6c0,0,0.4,4.6,2.3,4.3s3.3-2.2,3.3-2.2s-0.4,4.4-1.6,5
					c0,0-0.7-1.3-1.8-0.6c-1.1,0.7-1.2,5.4-1.2,5.4c-0.2,0.3-1,0.4-0.4,3c0,0-1.9,17.7-4.4,12.8c0,0-15.2-21.5-12.7-22.6
					c0,0,3.4-3.1,3.1-6c0,0-3.6-0.7-1.2-2.3c0,0,2.8-0.5,2.6-2.5c0,0,3-0.1,3.4-2.9C34.4,73.4,33.9,60.6,38.1,54.8z"/>
				<path class="st161" d="M133.5,54.8c0,0-1.3,1.6-2.3,1c-0.9-0.5-1.5-2.1-2.9-2.4c0,0,0.7,1.9,1.5,3.4c0.8,1.5,1,3,0.7,4.5
					c-0.3,1.5,1.1,3.6,1.4,3.6c0.2,0.1-0.3-3,2.5-3c0,0-0.5,1,0,1.9c0.5,0.9,1.9,3.4,1.6,4.4c-0.3,1-0.9,0.7-1,1.7
					c-0.1,1,0.8,2.6,0.3,2.9c-0.5,0.3-1.6,0.4-1.7,0.6c-0.1,0.2,1.3,2.3-0.3,2c-1.5-0.3-2.5-2.3-1.7-3.2c0.8-1,1.5-0.8,0.8-2.6
					c-0.7-1.8-0.9-0.9-1.3-3.2c0,0-0.9-1.5-1.5-2c0,0-0.4,1.7,0.4,3c0.8,1.3,0.4,4.9-1.5,3.3c-1.9-1.6-1.7-4.1-3.8-5.1
					c0,0,0.8,1.6,0.9,2.9c0.1,1.2,1.7,3.4,1.7,3.4s-0.7,3.3,0.6,4.1c0,0,0.3-1.6,1.9-0.9c1.6,0.7,5.9,6.4,2.7,6.9
					c-1.5,0.3-2.1-0.8-2.1-0.8s0.2,3.1,1.6,3.9c1.4,0.8,1.4,3.4-0.5,3.2c-1.9-0.2-2.4-1.7-2.5-3.6c0,0-0.4,4.6-2.3,4.3
					s-3.3-2.2-3.3-2.2s0.4,4.4,1.6,5c0,0,0.7-1.3,1.8-0.6c1.1,0.7,1.7,3.7,1.5,5.2c-0.1,0.4,1.7,0.9,0.1,3.1c0,0-0.4,10.9,2.1,6
					c0,0,14.8-15.1,12.3-16.2c0,0-0.7-2.7-0.4-5.6c0,0,3.8-0.6,1.4-2.2c0,0-3-0.6-2.8-2.6c0,0-3-0.1-3.4-2.9
					C137.2,73.4,137.6,60.6,133.5,54.8z"/>
			</g>
		</g>
		<path class="st24" d="M110.4,110.9c3.3,7.7,11.4,27.4,9.4,35.7c0.5,4-3.2,6.4-8.2,7.7C122.9,146.6,114,120.2,110.4,110.9z"/>
		<path class="st24" d="M87.3,155.1c0.3-1.8-0.5-3.6-0.5-5.4c0-0.5,0-1,0-1.5c0-0.7-0.2-1.4-0.4-2c-0.2-0.9-0.3-1.7-0.3-2.6
			c-0.4,0.4-0.4,1-0.5,1.6c-0.2,2.3-0.6,4.6-1,6.9c-0.1,0.5-0.8,2.7-0.4,3C84.4,155.3,87.3,155.1,87.3,155.1z"/>
		<path class="st26" d="M75.8,155.8c0,0,2.6-2.2,7.9-0.7c0,0-0.5,3.7-2.9,4.6S75.8,155.8,75.8,155.8z"/>
		<path class="st26" d="M95.6,155.8c0,0-2.6-2.2-7.8-0.7c0,0,0.5,3.7,2.9,4.6C93.1,160.5,95.6,155.8,95.6,155.8z"/>
		<g>
			<path class="st26" d="M109.5,107.6c2.6,5.2,4.9,10.5,6.9,16c1.9,5.5,3.6,11.1,4.3,16.9c0.3,2.9,0.3,5.9-0.5,8.8
				c-0.5,1.5-1.7,2.7-3,3.4c-1.3,0.8-2.7,1.3-4.1,1.7c-2.9,0.7-5.8,1-8.7,1.2c-2.9,0.1-5.8,0.1-8.7,0c-0.1,0-0.2-0.1-0.2-0.2
				c0-0.1,0.1-0.2,0.2-0.2c2.9,0,5.8,0,8.7-0.2c2.9-0.2,5.8-0.6,8.5-1.4c1.4-0.4,2.7-0.9,3.9-1.6c1.2-0.7,2.2-1.7,2.5-3
				c0.7-2.7,0.7-5.6,0.4-8.4c-0.6-5.7-2.2-11.3-4.1-16.7c-1.9-5.4-4.1-10.8-6.6-16l0,0c-0.1-0.2,0-0.3,0.1-0.4
				C109.2,107.4,109.4,107.4,109.5,107.6z"/>
		</g>
		<g>
			<path class="st26" d="M62.1,108c-1.3,2.6-2.4,5.3-3.5,7.9c-1.1,2.7-2.1,5.4-3.1,8.1c-0.9,2.7-1.8,5.5-2.5,8.3
				c-0.7,2.8-1.3,5.6-1.5,8.5c-0.2,1.4-0.2,2.9-0.2,4.3c0,1.4,0.2,2.9,0.6,4.1c0.5,1.2,1.5,2.2,2.6,3c1.2,0.7,2.5,1.2,3.9,1.6
				c2.7,0.8,5.6,1.1,8.5,1.3c2.9,0.2,5.8,0.2,8.7,0.2c0.1,0,0.2,0.1,0.2,0.2c0,0.1-0.1,0.2-0.2,0.2c-2.9,0.1-5.8,0.2-8.7,0
				c-2.9-0.1-5.8-0.4-8.7-1.1c-1.4-0.4-2.8-0.9-4.1-1.6c-1.3-0.7-2.5-1.9-3.1-3.4c-0.5-1.5-0.6-2.9-0.7-4.4c-0.1-1.5,0-3,0.1-4.4
				c0.3-2.9,0.9-5.8,1.6-8.6c0.7-2.8,1.6-5.6,2.6-8.3c2-5.5,4.3-10.8,6.9-16c0.1-0.1,0.2-0.2,0.4-0.1
				C62.1,107.7,62.2,107.9,62.1,108L62.1,108z"/>
		</g>
		<g>
			<path class="st26" d="M85.8,128.5c0.2,4.6,0.2,9.3,0,14c-0.1,2.3-0.3,4.7-0.5,7c-0.3,2.3-0.6,4.6-1.3,6.9
				c-0.2,0.6-0.4,1.1-0.7,1.7c-0.3,0.5-0.6,1.1-1.2,1.5l-0.4,0.3c-0.2,0.1-0.3,0.1-0.5,0.2c-0.2,0.1-0.4,0.1-0.5,0.1
				c-0.2,0-0.4,0-0.5,0c-0.7-0.1-1.3-0.4-1.8-0.8c-1-0.8-1.7-1.8-2.3-2.8c-0.6-1-1.1-2.1-1.6-3.1c-1.9-4.3-3.2-8.8-4.3-13.3
				c0-0.1,0-0.2,0.1-0.2c0.1,0,0.2,0,0.2,0.1l0,0c1.2,4.5,2.7,8.9,4.6,13.1c0.5,1,1,2.1,1.6,3c0.6,0.9,1.3,1.9,2.1,2.5
				c0.8,0.7,1.9,0.9,2.5,0.2c0.7-0.6,1.2-1.7,1.5-2.8c0.7-2.1,1.1-4.4,1.5-6.7c0.3-2.3,0.5-4.6,0.7-6.9c0.2-2.3,0.3-4.6,0.3-6.9
				c0.1-2.3,0.1-4.6,0.1-7c0-0.1,0.1-0.1,0.1-0.1C85.8,128.3,85.8,128.4,85.8,128.5z"/>
		</g>
		<g>
			<path class="st26" d="M85.9,128.5c0,2.3,0,4.6,0.1,7c0.1,2.3,0.2,4.6,0.3,6.9c0.2,2.3,0.4,4.6,0.7,6.9c0.3,2.3,0.7,4.6,1.5,6.7
				c0.4,1,0.8,2.1,1.5,2.8c0.7,0.6,1.7,0.5,2.5-0.2c0.8-0.6,1.5-1.6,2.1-2.5c0.6-1,1.2-2,1.6-3c2-4.2,3.4-8.6,4.6-13.1l0,0
				c0-0.1,0.1-0.2,0.2-0.1c0.1,0,0.2,0.1,0.1,0.2c-1.1,4.5-2.4,9-4.3,13.3c-0.5,1.1-1,2.1-1.6,3.1c-0.6,1-1.3,2-2.3,2.8
				c-0.5,0.4-1.1,0.7-1.8,0.8c-0.2,0-0.3,0-0.5,0c-0.2,0-0.4,0-0.5-0.1c-0.2-0.1-0.4-0.1-0.5-0.2l-0.4-0.3c-0.5-0.5-0.9-1-1.2-1.5
				c-0.3-0.5-0.5-1.1-0.7-1.7c-0.7-2.3-1.1-4.6-1.3-6.9c-0.3-2.3-0.4-4.7-0.5-7c-0.2-4.7-0.2-9.3,0-14c0-0.1,0.1-0.1,0.1-0.1
				C85.8,128.3,85.9,128.4,85.9,128.5z"/>
		</g>
		<path class="st24" d="M101.3,140c0,0,2.6,14.3,10.7,14.5c0,0-6.7,1.4-16.4,0.9l3.2-7.5L101.3,140z"/>
		<path class="st24" d="M70.3,140c0,0-2.8,15.1-10.7,14.5l7.2,1.1h8.9C74.1,154,70.3,140,70.3,140z"/>
		<path class="st24" d="M60.4,110.9c-3.3,7.7-11.4,27.4-9.4,35.7c-0.5,4,3.2,6.4,8.2,7.7C48,146.6,56.9,120.2,60.4,110.9z"/>
		<path class="st24" d="M110.2,107.4C151,77.6,123,46.1,123,46.1s0.9,0.1,2.4,0.2c1.8,1.4,3,4.1,4.8,5.9c0,0,1.8,1.5,3.6,5.6
			c2.2,4.9,3.9,12.3,3.3,19.5c-0.3,4.1-3.9,13.8-7.2,16.8c-1,0.9-4.7,4.6-7.6,7c-1.2,0.9-4.6,2.9-6.9,4.1
			C114,105.9,112.3,106.7,110.2,107.4z"/>
		<g>
			<path class="st26" d="M61.8,108.2c-4.2-1.6-8.1-3.6-11.8-6.1c-3.7-2.5-7.1-5.4-9.9-8.9c-2.8-3.5-4.9-7.6-5.7-12.1
				c-0.4-2.2-0.5-4.5-0.4-6.7c0.1-2.2,0.2-4.5,0.6-6.7c0.7-4.4,2.2-8.7,4.3-12.6c2.2-3.9,5.2-7.3,8.6-10.1c3.5-2.8,7.4-5,11.5-6.6
				c4.1-1.7,8.4-2.8,12.8-3.7c0.1,0,0.3,0.1,0.3,0.2c0,0.1-0.1,0.3-0.2,0.3c-4.3,0.9-8.5,2.1-12.6,3.8c-4,1.7-7.9,3.9-11.2,6.7
				c-3.4,2.8-6.2,6.2-8.3,10c-2.1,3.8-3.4,8-4.1,12.3c-0.6,4.3-0.9,8.7-0.3,13c0.7,4.3,2.7,8.3,5.3,11.7c2.7,3.5,6,6.4,9.6,8.9
				c3.6,2.5,7.5,4.6,11.6,6.2l0,0c0.1,0.1,0.2,0.2,0.1,0.3C62,108.1,61.9,108.2,61.8,108.2z"/>
		</g>
		<g>
			<path class="st26" d="M109.1,107.8c4.1-1.6,8-3.7,11.6-6.2c3.6-2.5,6.9-5.4,9.6-8.8c2.7-3.4,4.7-7.4,5.4-11.7
				c0.2-1.1,0.3-2.1,0.4-3.2c0.1-1.1,0-2.2,0-3.3c-0.1-2.2-0.2-4.4-0.6-6.5c-0.6-4.3-1.9-8.5-4-12.3c-2.1-3.8-4.9-7.2-8.2-10
				c-3.3-2.8-7.2-5-11.2-6.7c-4-1.7-8.3-2.9-12.6-3.8c-0.1,0-0.2-0.2-0.2-0.3c0-0.1,0.2-0.2,0.3-0.2c4.3,0.8,8.6,2,12.8,3.7
				c4.1,1.7,8,3.9,11.5,6.7c3.5,2.8,6.4,6.3,8.6,10.2c2.2,3.9,3.6,8.2,4.3,12.7c0.4,2.2,0.5,4.4,0.6,6.7c0,1.1,0,2.2-0.1,3.4
				c-0.1,1.1-0.2,2.2-0.4,3.4c-0.9,4.4-3,8.6-5.8,12c-2.8,3.5-6.3,6.4-9.9,8.9c-3.7,2.5-7.6,4.5-11.8,6.1c-0.1,0.1-0.3,0-0.3-0.2
				C108.9,108,108.9,107.9,109.1,107.8L109.1,107.8z"/>
		</g>
		<g>
			<path class="st26" d="M68.9,36.7c2.1-1.7,4.2-3.2,6.4-4.7c2.2-1.5,4.4-3,6.9-4.2c0.6-0.3,1.3-0.5,2.1-0.6
				c0.8-0.1,1.5,0.1,2.2,0.4c0.7,0.3,1.3,1,1.5,1.7c0.3,0.7,0.4,1.5,0.3,2.2c-0.2,1.5-1,2.7-1.7,3.8c-0.8,1.1-1.7,2.1-2.7,3
				c-0.1,0.1-0.3,0.1-0.4,0c-0.1-0.1-0.1-0.3,0-0.4c1-0.9,1.8-1.9,2.5-3c0.7-1.1,1.3-2.3,1.4-3.5c0.1-1.2-0.4-2.4-1.4-2.8
				c-0.5-0.2-1.1-0.3-1.6-0.2c-0.5,0.1-1.1,0.3-1.7,0.6c-2.4,1-4.6,2.4-6.9,3.8c-2.2,1.4-4.4,2.9-6.6,4.4c-0.1,0.1-0.3,0.1-0.4-0.1
				C68.8,37,68.8,36.8,68.9,36.7z"/>
		</g>
		<g>
			<path class="st26" d="M87.3,32.8c2-1.4,4.1-2.6,6.2-3.8c1.1-0.6,2.2-1.2,3.4-1.5c0.6-0.2,1.3-0.2,2-0.2c0.7,0.1,1.4,0.3,2,0.7
				c0.6,0.4,1.1,1,1.3,1.7c0.2,0.7,0.1,1.5-0.1,2.1c-0.5,1.2-1.1,2.3-1.8,3.3c-1.5,2-3.6,3.5-5.9,4.4c-0.1,0-0.3,0-0.3-0.2
				c0-0.1,0-0.3,0.1-0.3c2.2-0.9,4.1-2.5,5.4-4.4c1.2-1.8,2.6-4.5,0.7-5.6c-0.8-0.6-1.9-0.8-3-0.5c-1.1,0.2-2.2,0.7-3.3,1.3
				c-2.2,1-4.3,2.2-6.3,3.4c-0.1,0.1-0.3,0-0.4-0.1C87.1,33.1,87.2,32.9,87.3,32.8z"/>
		</g>
		<path class="st24" d="M61.2,107.4C20.4,77.6,48.4,46.1,48.4,46.1s-0.9,0.1-2.4,0.2c-1.8,1.4-3,4.1-4.8,5.9c0,0-1.8,1.5-3.6,5.6
			c-2.2,4.9-3.9,12.3-3.3,19.5c0.3,4.1,3.9,13.8,7.2,16.8c1,0.9,4.7,4.6,7.6,7c1.2,0.9,4.6,2.9,6.9,4.1
			C57.4,105.9,59,106.7,61.2,107.4z"/>
		<g>
			<g>
				<path class="st30" d="M98,88c0-0.1-0.1-0.3-0.2-0.5c-0.5-1.3-1.4-3.7-3.1-5.9c-2.3-2.9-5.5-4.5-9.3-4.6c-0.1,0-0.1,0-0.2,0
					c0,0-0.1,0-0.1,0c-3.7,0.1-6.9,1.7-9.3,4.6c-1.8,2.2-2.6,4.6-3.1,5.9c-0.1,0.2-0.2,0.4-0.2,0.5c-0.8,2,0.1,4.2,2.1,5
					c0.5,0.2,1,0.3,1.5,0.3c1.5,0,2.9-0.9,3.6-2.4c0.1-0.3,0.2-0.6,0.3-0.9c1.2-3.3,2.5-5.3,5.3-5.4c2.1,0.1,3.7,1,5.3,5.4
					c0.1,0.3,0.2,0.6,0.3,0.9c0.6,1.5,2,2.4,3.6,2.4c0.5,0,1-0.1,1.5-0.3C97.9,92.2,98.8,90,98,88z"/>
			</g>
			<g>
				<g>
					<path class="st26" d="M69.1,84.9c-1.3-1.2-3.3-1.4-5-0.9c-1.7,0.5-3.1,1.8-4.3,3.2c-1.2,1.4-2.1,3-3.1,4.5
						c-1.1,1.5-2.3,3-3.9,3.9c-1.6,1-3.4,1.5-5.2,1.9c-1.8,0.3-3.6,0.5-5.5,0.7l-11,1l11-1.1c1.8-0.2,3.7-0.4,5.5-0.7
						c1.8-0.4,3.6-0.9,5.1-1.9c1.6-1,2.7-2.4,3.8-3.9c1-1.5,1.9-3.1,3.1-4.6c1.2-1.4,2.6-2.8,4.4-3.3c1.8-0.5,3.9-0.4,5.4,1
						c0.1,0.1,0.1,0.2,0,0.3S69.2,84.9,69.1,84.9C69.1,84.9,69.1,84.9,69.1,84.9z"/>
				</g>
				<g>
					<path class="st26" d="M69,87.5c-1.1,0.6-2.1,1.3-3.1,2.1c-1,0.8-1.9,1.7-2.7,2.6c-1.7,1.9-3.1,3.9-4.3,6.1
						c-0.6,1.1-1.2,2.2-1.7,3.3c-0.6,1.1-1,2.3-1.7,3.3c-0.8,1-2.1,1.5-3.3,1.6c-1.3,0.1-2.5-0.2-3.7-0.5c1.2,0.3,2.5,0.5,3.7,0.4
						c1.2,0,2.5-0.6,3.2-1.6c0.7-1,1.1-2.2,1.7-3.3c0.5-1.1,1.1-2.3,1.7-3.4c1.2-2.2,2.6-4.3,4.3-6.2c0.8-0.9,1.7-1.8,2.7-2.7
						c1-0.8,2-1.5,3.1-2.2c0.1-0.1,0.2,0,0.3,0.1C69.1,87.3,69.1,87.4,69,87.5C69,87.5,69,87.5,69,87.5z"/>
				</g>
				<g>
					<path class="st26" d="M69.5,90c-1.3,0.7-2.2,2.1-3,3.5c-0.8,1.4-1.5,2.8-2.9,3.8c-0.7,0.5-1.5,0.8-2.3,0.9
						c-0.8,0.1-1.6,0.1-2.4,0.2c-1.6,0.1-3.2,0-4.8-0.2c-6.3-0.6-12.4-2.7-18.3-4.8c3,1,6,2,9.1,2.9c3.1,0.8,6.2,1.5,9.3,1.8
						c1.6,0.1,3.2,0.2,4.7,0.1c1.5-0.1,3.2-0.1,4.5-1.1c2.5-1.9,2.8-5.7,5.8-7.4c0.1-0.1,0.2,0,0.3,0.1S69.6,90,69.5,90
						C69.5,90,69.5,90,69.5,90L69.5,90z"/>
				</g>
			</g>
			<g>
				<g>
					<path class="st26" d="M101.5,84.6c1.4-1.4,3.6-1.5,5.4-1c1.8,0.6,3.3,1.9,4.4,3.3c1.2,1.4,2.1,3,3.1,4.6c1,1.5,2.2,2.9,3.8,3.9
						c1.5,1,3.3,1.5,5.1,1.9c1.8,0.4,3.6,0.5,5.5,0.7l11,1.1l-11-1c-1.8-0.2-3.7-0.3-5.5-0.7c-1.8-0.3-3.6-0.9-5.2-1.9
						c-1.6-1-2.8-2.4-3.9-3.9c-1.1-1.5-2-3.1-3.1-4.5c-1.1-1.4-2.6-2.7-4.3-3.2c-1.7-0.5-3.7-0.3-5,0.9c-0.1,0.1-0.2,0.1-0.3,0
						S101.5,84.6,101.5,84.6C101.5,84.6,101.5,84.6,101.5,84.6z"/>
				</g>
				<g>
					<path class="st26" d="M102.1,87.1c1.1,0.7,2.1,1.4,3.1,2.2c1,0.8,1.9,1.7,2.7,2.7c1.7,1.9,3.1,4,4.3,6.2
						c0.6,1.1,1.2,2.2,1.7,3.4c0.6,1.1,0.9,2.3,1.7,3.3c0.7,1,2,1.5,3.2,1.6c1.3,0.1,2.5-0.2,3.7-0.4c-1.2,0.3-2.5,0.5-3.7,0.5
						c-1.3,0-2.5-0.5-3.3-1.6c-0.8-1-1.2-2.2-1.7-3.3c-0.5-1.1-1.1-2.2-1.7-3.3c-1.2-2.2-2.7-4.2-4.3-6.1c-0.8-0.9-1.7-1.8-2.7-2.6
						c-1-0.8-2-1.5-3.1-2.1c-0.1-0.1-0.1-0.2-0.1-0.3S102,87.1,102.1,87.1C102.1,87.1,102.1,87.1,102.1,87.1z"/>
				</g>
				<g>
					<path class="st26" d="M101.6,89.7c3,1.8,3.3,5.6,5.8,7.4c1.2,1,2.9,1,4.5,1.1c1.6,0.1,3.2,0,4.7-0.1c3.1-0.3,6.3-0.9,9.3-1.8
						c3.1-0.8,6.1-1.8,9.1-2.9c-6,2.1-12,4.2-18.3,4.8c-1.6,0.2-3.2,0.2-4.8,0.2c-0.8-0.1-1.6-0.1-2.4-0.2c-0.8-0.1-1.6-0.4-2.3-0.9
						c-1.3-1-2.1-2.5-2.9-3.8c-0.8-1.4-1.6-2.8-3-3.5l0,0c-0.1-0.1-0.1-0.2-0.1-0.3S101.5,89.6,101.6,89.7
						C101.6,89.7,101.6,89.7,101.6,89.7z"/>
				</g>
			</g>
			<path class="st26" d="M82.6,80.6h5.3c1,0,1.4,1.2,0.7,1.8l-2.5,2.3c-0.4,0.4-1,0.4-1.4,0l-2.8-2.3C81.1,81.8,81.6,80.6,82.6,80.6
				z"/>
			<g>
				<path class="st26" d="M90.7,91.5l-0.4-1.1l-0.4-1.1c-0.3-0.7-0.7-1.4-1.1-2c-0.5-0.6-1-1.1-1.6-1.5c-0.6-0.4-1.3-0.6-1.9-0.6h0
					c-0.6,0-1.3,0.2-1.9,0.6c-0.6,0.4-1.1,0.9-1.6,1.5c-0.5,0.6-0.8,1.3-1.1,2l-0.4,1.1l-0.4,1.1l0,0c-0.1,0.2-0.2,0.3-0.4,0.2
					c-0.2-0.1-0.3-0.2-0.2-0.4l0.3-1.2l0.4-1.2c0.3-0.8,0.7-1.5,1.1-2.2c0.5-0.7,1.1-1.3,1.8-1.8c0.7-0.5,1.6-0.8,2.5-0.8h0
					c1,0,1.8,0.3,2.5,0.8c0.7,0.5,1.3,1.1,1.8,1.8c0.5,0.7,0.8,1.4,1.1,2.2l0.4,1.2l0.3,1.2c0,0.2-0.1,0.4-0.2,0.4
					C91,91.8,90.8,91.7,90.7,91.5L90.7,91.5z"/>
			</g>
		</g>
		<circle class="st30" cx="64.1" cy="66.5" r="10.2"/>
		<circle class="st163" cx="64.2" cy="68.1" r="8.8"/>
		<circle class="st30" cx="106.5" cy="66.5" r="10.2"/>
		<circle class="st163" cx="106.6" cy="68.1" r="8.8"/>
		<g>
			<circle class="st26" cx="64.2" cy="69" r="7.1"/>
			
				<ellipse transform="matrix(0.7071 -0.7071 0.7071 0.7071 -25.3508 67.8451)" class="st30" cx="69.2" cy="64.5" rx="2.6" ry="2.6"/>
			<circle class="st164" cx="64.1" cy="67.4" r="10.2"/>
			<path class="st165" d="M56.1,54.4c0,0,7.8-5.8,15.1,0"/>
		</g>
		<g>
			<circle class="st26" cx="106.6" cy="69" r="7.1"/>
			
				<ellipse transform="matrix(0.7071 -0.7071 0.7071 0.7071 -12.9286 97.835)" class="st30" cx="111.6" cy="64.5" rx="2.6" ry="2.6"/>
			<circle class="st164" cx="106.5" cy="67.4" r="10.2"/>
			<path class="st165" d="M99,55.5c0,0,7.8-5.8,15.1,0"/>
		</g>
	</g>
</g>
<g id="mask" class="st0">
</g>
</svg>
