<?xml version="1.0" encoding="utf-8"?>
<!-- Generator: Adobe Illustrator 21.0.0, SVG Export Plug-In . SVG Version: 6.00 Build 0)  -->
<svg version="1.1" xmlns="http://www.w3.org/2000/svg" xmlns:xlink="http://www.w3.org/1999/xlink" x="0px" y="0px"
	 viewBox="0 0 176.8 172.4" style="enable-background:new 0 0 176.8 172.4;" xml:space="preserve">
<style type="text/css">
	.st0{display:none;}
	.st1{display:inline;fill:#FD9994;}
	.st2{display:inline;fill:#FFFFFF;}
	.st3{display:inline;fill:none;stroke:#FFFFFF;stroke-width:2.2363;stroke-miterlimit:10;}
	.st4{display:inline;}
	.st5{fill:none;stroke:#FFFFFF;stroke-width:2.2363;stroke-miterlimit:10;}
	.st6{fill:#FFB380;}
	.st7{fill:#D2C3DB;}
	.st8{fill:#F9ECDC;}
	.st9{fill:#FFF58B;}
	.st10{fill:#F6BC60;}
	.st11{fill:#ECF784;}
	.st12{fill:#FFDEFF;}
	.st13{fill:#AED5D2;}
	.st14{fill:#F4BD9F;}
	.st15{fill:#B9DCFF;}
	.st16{fill:#D7FFFB;}
	.st17{fill:#81D8F7;}
	.st18{fill:#E57777;}
	.st19{fill:#D9FFDB;}
	.st20{opacity:0.1;}
	.st21{fill:#5CCDFF;}
	.st22{fill:none;}
	.st23{opacity:0.2;fill:#FFFFFF;}
	.st24{opacity:0.1;fill:#002CBF;}
	.st25{fill:#1A1A1A;}
	.st26{fill:#333333;}
	.st27{fill:#FFFFDE;}
	.st28{clip-path:url(#SVGID_4_);}
	.st29{fill:none;stroke:#333333;stroke-width:0.4917;stroke-linecap:round;stroke-linejoin:round;stroke-miterlimit:10;}
	.st30{fill:#FFFFFF;}
	.st31{fill:none;stroke:#333333;stroke-width:0.8543;stroke-miterlimit:10;}
	.st32{clip-path:url(#SVGID_6_);}
	.st33{fill:#FFD7B9;}
	.st34{fill:#F0FFFF;}
	.st35{clip-path:url(#SVGID_8_);}
	.st36{fill:#FF5C5C;}
	.st37{fill:none;stroke:#333333;stroke-width:0.466;stroke-linecap:round;stroke-linejoin:round;stroke-miterlimit:10;}
	.st38{fill:none;stroke:#333333;stroke-width:0.8095;stroke-miterlimit:10;}
	.st39{clip-path:url(#SVGID_10_);}
	.st40{fill:none;stroke:#333333;stroke-width:0.7381;stroke-linecap:round;stroke-linejoin:round;stroke-miterlimit:10;}
	.st41{fill:none;stroke:#333333;stroke-width:0.8857;stroke-linecap:round;stroke-linejoin:round;stroke-miterlimit:10;}
	.st42{fill:none;stroke:#333333;stroke-width:2.6852;stroke-linecap:round;stroke-linejoin:round;stroke-miterlimit:10;}
	.st43{fill:#72B5C4;}
	.st44{fill:#5E96A5;}
	.st45{fill:none;stroke:#FFFFFF;stroke-width:2.6852;stroke-linecap:round;stroke-linejoin:round;stroke-miterlimit:10;}
	.st46{fill:none;stroke:#FFFFFF;stroke-width:1.2942;stroke-linecap:round;stroke-linejoin:round;stroke-miterlimit:10;}
	.st47{fill:none;stroke:#FFFFFF;stroke-width:0.8311;stroke-linecap:round;stroke-linejoin:round;stroke-miterlimit:10;}
	.st48{fill:#FF5C00;}
	.st49{fill:#00B4FF;}
	.st50{fill:#FF5592;}
	.st51{fill:#733FFF;}
	.st52{fill:#DDFF15;}
	.st53{fill:#BF5855;}
	.st54{fill:none;stroke:#333333;stroke-width:0.5718;stroke-miterlimit:10;}
	.st55{fill:#C8F982;}
	.st56{fill:#AEF9C0;}
	.st57{fill:none;stroke:#FFFFFF;stroke-width:1.8326;stroke-miterlimit:10;}
	.st58{fill:#9AF6F9;}
	.st59{fill:#FFACA2;}
	.st60{fill:#F9E582;}
	.st61{fill:#FFC08B;}
	.st62{fill:#EFEB6A;}
	.st63{fill:#EC987F;}
	.st64{fill:#B5FFCC;}
	.st65{fill:#FFEDA2;}
	.st66{fill:#CCE7CC;}
	.st67{fill:#ABE7AB;}
	.st68{fill:#A6A6A6;}
	.st69{clip-path:url(#SVGID_60_);}
	.st70{fill:none;stroke:#333333;stroke-width:0.4706;stroke-linecap:round;stroke-linejoin:round;stroke-miterlimit:10;}
	.st71{fill:#FFEC55;}
	.st72{fill:none;stroke:#333333;stroke-width:0.8177;stroke-miterlimit:10;}
	.st73{clip-path:url(#SVGID_62_);}
	.st74{clip-path:url(#SVGID_64_);}
	.st75{fill:#FF7A59;}
	.st76{clip-path:url(#SVGID_66_);}
	.st77{clip-path:url(#SVGID_68_);}
	.st78{fill:#B45FFF;}
	.st79{clip-path:url(#SVGID_70_);}
	.st80{opacity:0.2;fill:#002CBF;}
	.st81{fill:none;stroke:#333333;stroke-width:0.5506;stroke-linecap:round;stroke-linejoin:round;stroke-miterlimit:10;}
	.st82{clip-path:url(#SVGID_72_);}
	.st83{fill:#EAA871;}
	.st84{fill:#FFD836;}
	.st85{fill:#FF846B;}
	.st86{fill:none;stroke:#333333;stroke-width:0.804;stroke-linecap:round;stroke-linejoin:round;stroke-miterlimit:10;}
	.st87{fill:#FEFF4A;}
	.st88{fill:none;stroke:#333333;stroke-width:0.7645;stroke-linecap:round;stroke-linejoin:round;stroke-miterlimit:10;}
	.st89{fill:none;stroke:#333333;stroke-width:0.7645;stroke-miterlimit:10;}
	.st90{fill:none;stroke:#333333;stroke-width:2.9248;stroke-linecap:round;stroke-linejoin:round;stroke-miterlimit:10;}
	.st91{fill:none;stroke:#333333;stroke-width:0.945;stroke-linecap:round;stroke-linejoin:round;stroke-miterlimit:10;}
	.st92{fill:none;stroke:#333333;stroke-width:0.945;stroke-miterlimit:10;}
	.st93{fill:none;stroke:#333333;stroke-width:3.6155;stroke-linecap:round;stroke-linejoin:round;stroke-miterlimit:10;}
	.st94{fill:none;stroke:#333333;stroke-width:0.6228;stroke-miterlimit:10;}
	.st95{fill:none;stroke:#333333;stroke-width:0.7778;stroke-linecap:round;stroke-linejoin:round;stroke-miterlimit:10;}
	.st96{fill:#FF712A;}
	.st97{fill:none;stroke:#333333;stroke-width:0.7396;stroke-linecap:round;stroke-linejoin:round;stroke-miterlimit:10;}
	.st98{fill:none;stroke:#333333;stroke-width:0.7396;stroke-miterlimit:10;}
	.st99{fill:none;stroke:#333333;stroke-width:2.8295;stroke-linecap:round;stroke-linejoin:round;stroke-miterlimit:10;}
	.st100{fill:none;stroke:#333333;stroke-width:0.9142;stroke-linecap:round;stroke-linejoin:round;stroke-miterlimit:10;}
	.st101{fill:none;stroke:#333333;stroke-width:0.9142;stroke-miterlimit:10;}
	.st102{fill:none;stroke:#333333;stroke-width:3.4977;stroke-linecap:round;stroke-linejoin:round;stroke-miterlimit:10;}
	.st103{fill:none;stroke:#333333;stroke-width:0.6025;stroke-miterlimit:10;}
	.st104{fill:url(#SVGID_89_);}
	.st105{fill:url(#SVGID_90_);}
	.st106{fill:none;stroke:#333333;stroke-width:0.7438;stroke-linecap:round;stroke-linejoin:round;stroke-miterlimit:10;}
	.st107{fill:none;stroke:#333333;stroke-width:0.8926;stroke-linecap:round;stroke-linejoin:round;stroke-miterlimit:10;}
	.st108{clip-path:url(#SVGID_92_);fill:url(#SVGID_93_);}
	.st109{fill:url(#SVGID_94_);}
	.st110{fill:#52C5FF;}
	.st111{fill:none;stroke:#333333;stroke-width:0.6367;stroke-linecap:round;stroke-linejoin:round;stroke-miterlimit:10;}
	.st112{fill:none;stroke:#333333;stroke-width:2.7061;stroke-linecap:round;stroke-linejoin:round;stroke-miterlimit:10;}
	.st113{fill:none;stroke:#333333;stroke-width:0.5763;stroke-miterlimit:10;}
	.st114{fill:none;stroke:#FFFFFF;stroke-width:1.3042;stroke-linecap:round;stroke-linejoin:round;stroke-miterlimit:10;}
	.st115{fill:none;stroke:#FFFFFF;stroke-width:0.8375;stroke-linecap:round;stroke-linejoin:round;stroke-miterlimit:10;}
	.st116{clip-path:url(#SVGID_96_);}
	.st117{opacity:0.2;fill:#2E3192;}
	.st118{fill:#FEFF78;}
	.st119{opacity:0.1;fill:#2E3192;}
	.st120{fill:#FF5A50;}
	.st121{fill:none;stroke:#333333;stroke-width:0.567;stroke-linecap:round;stroke-linejoin:round;stroke-miterlimit:10;}
	.st122{fill:none;stroke:#333333;stroke-width:2.5786;stroke-linecap:round;stroke-linejoin:round;stroke-miterlimit:10;}
	.st123{fill:none;stroke:#333333;stroke-width:0.5491;stroke-miterlimit:10;}
	.st124{clip-path:url(#SVGID_98_);}
	.st125{fill:#2AD2FF;}
	.st126{fill:none;stroke:#333333;stroke-width:0.2435;stroke-miterlimit:10;}
	.st127{fill:#FFFFFF;stroke:#333333;stroke-width:0.487;stroke-linecap:round;stroke-linejoin:round;stroke-miterlimit:10;}
	.st128{clip-path:url(#SVGID_100_);}
	.st129{fill:url(#SVGID_101_);}
	.st130{opacity:0.4;fill:#FFFFFF;}
	.st131{fill:#FFDC48;}
	.st132{fill:none;stroke:#333333;stroke-width:0.5835;stroke-linecap:round;stroke-linejoin:round;stroke-miterlimit:10;}
	.st133{fill:none;stroke:#333333;stroke-width:2.6537;stroke-linecap:round;stroke-linejoin:round;stroke-miterlimit:10;}
	.st134{fill:#F0F462;}
	.st135{fill:url(#SVGID_102_);}
	.st136{fill:url(#SVGID_103_);}
	.st137{fill:#D1DADF;}
	.st138{fill:#57FFA3;}
	.st139{clip-path:url(#SVGID_105_);}
	.st140{clip-path:url(#SVGID_107_);}
	.st141{fill:#D0BBF9;}
	.st142{clip-path:url(#SVGID_109_);}
	.st143{fill:none;stroke:#333333;stroke-width:0.5867;stroke-linecap:round;stroke-linejoin:round;stroke-miterlimit:10;}
	.st144{clip-path:url(#SVGID_111_);}
	.st145{fill:none;stroke:#333333;stroke-width:0.5514;stroke-linecap:round;stroke-linejoin:round;stroke-miterlimit:10;}
	.st146{fill:#D1E9D3;}
	.st147{clip-path:url(#SVGID_113_);}
	.st148{fill:none;stroke:#333333;stroke-width:0.7684;stroke-linecap:round;stroke-linejoin:round;stroke-miterlimit:10;}
	.st149{fill:none;stroke:#333333;stroke-width:0.7684;stroke-miterlimit:10;}
	.st150{fill:none;stroke:#333333;stroke-width:2.9398;stroke-linecap:round;stroke-linejoin:round;stroke-miterlimit:10;}
	.st151{clip-path:url(#SVGID_115_);}
	.st152{fill:#FF66F8;}
	.st153{fill:none;stroke:#333333;stroke-width:0.7542;stroke-linecap:round;stroke-linejoin:round;stroke-miterlimit:10;}
	.st154{fill:none;stroke:#333333;stroke-width:0.9051;stroke-linecap:round;stroke-linejoin:round;stroke-miterlimit:10;}
	.st155{fill:none;stroke:#333333;stroke-width:0.5146;stroke-linecap:round;stroke-linejoin:round;stroke-miterlimit:10;}
	.st156{fill:none;stroke:#333333;stroke-width:0.6033;stroke-linecap:round;stroke-linejoin:round;stroke-miterlimit:10;}
	.st157{fill:none;stroke:#333333;stroke-width:2.7439;stroke-linecap:round;stroke-linejoin:round;stroke-miterlimit:10;}
	.st158{fill:#333333;stroke:#333333;stroke-width:1.0293;stroke-linecap:round;stroke-linejoin:round;stroke-miterlimit:10;}
	.st159{fill:#FF5F2A;}
	.st160{fill:none;stroke:#333333;stroke-width:0.5965;stroke-linecap:round;stroke-linejoin:round;stroke-miterlimit:10;}
	.st161{fill:#F9CC3E;}
	.st162{clip-path:url(#SVGID_121_);}
	.st163{fill:#70E1FF;}
	.st164{fill:none;stroke:#333333;stroke-width:0.5717;stroke-linecap:round;stroke-linejoin:round;stroke-miterlimit:10;}
	.st165{fill:none;stroke:#333333;stroke-width:2.6004;stroke-linecap:round;stroke-linejoin:round;stroke-miterlimit:10;}
	.st166{clip-path:url(#SVGID_123_);}
	.st167{fill:#8F61FF;}
	.st168{clip-path:url(#SVGID_125_);}
	.st169{clip-path:url(#SVGID_127_);}
	.st170{fill:#FFEBEB;}
	.st171{clip-path:url(#SVGID_129_);}
	.st172{clip-path:url(#SVGID_131_);}
	.st173{fill:#F47D62;}
	.st174{fill:none;stroke:#333333;stroke-width:0.7188;stroke-linecap:round;stroke-linejoin:round;stroke-miterlimit:10;}
	.st175{fill:none;stroke:#333333;stroke-width:0.7188;stroke-miterlimit:10;}
	.st176{fill:none;stroke:#333333;stroke-width:2.7502;stroke-linecap:round;stroke-linejoin:round;stroke-miterlimit:10;}
	.st177{fill:#85ACB5;}
	.st178{clip-path:url(#SVGID_133_);}
	.st179{fill:#D5F2F7;}
	.st180{fill:#FF694A;}
	.st181{fill:none;stroke:#333333;stroke-width:0.5693;stroke-linecap:round;stroke-linejoin:round;stroke-miterlimit:10;}
	.st182{fill:#FFDF15;}
	.st183{fill:none;stroke:#333333;stroke-width:0.6674;stroke-linecap:round;stroke-linejoin:round;stroke-miterlimit:10;}
	.st184{fill:none;stroke:#333333;stroke-width:3.0352;stroke-linecap:round;stroke-linejoin:round;stroke-miterlimit:10;}
	.st185{clip-path:url(#SVGID_135_);}
	.st186{clip-path:url(#SVGID_137_);}
	.st187{fill:none;stroke:#333333;stroke-width:0.5248;stroke-linecap:round;stroke-linejoin:round;stroke-miterlimit:10;}
	.st188{fill:#FFD33A;}
	.st189{fill:none;stroke:#333333;stroke-width:2.7983;stroke-linecap:round;stroke-linejoin:round;stroke-miterlimit:10;}
	.st190{fill:none;stroke:#333333;stroke-width:0.7692;stroke-linecap:round;stroke-linejoin:round;stroke-miterlimit:10;}
	.st191{fill:none;stroke:#333333;stroke-width:0.5959;stroke-miterlimit:10;}
	.st192{clip-path:url(#SVGID_143_);}
	.st193{fill:#FFE267;}
	.st194{clip-path:url(#SVGID_149_);}
	.st195{fill:#FFEEAA;}
	.st196{opacity:0.7;fill:url(#SVGID_152_);}
	.st197{fill:none;stroke:#333333;stroke-width:0.611;stroke-miterlimit:10;}
	.st198{clip-path:url(#SVGID_154_);}
	.st199{opacity:0.7;fill:url(#SVGID_157_);}
	.st200{fill:#EABBFC;}
	.st201{opacity:0.7;fill:url(#SVGID_160_);}
	.st202{opacity:0.7;fill:url(#SVGID_163_);}
	.st203{opacity:0.7;fill:url(#SVGID_166_);}
	.st204{opacity:0.7;fill:url(#SVGID_169_);}
	.st205{clip-path:url(#SVGID_171_);}
	.st206{fill:none;stroke:#333333;stroke-width:0.5899;stroke-linecap:round;stroke-linejoin:round;stroke-miterlimit:10;}
	.st207{fill:none;stroke:#333333;stroke-width:2.6828;stroke-linecap:round;stroke-linejoin:round;stroke-miterlimit:10;}
	.st208{fill:none;stroke:#333333;stroke-width:0.5713;stroke-miterlimit:10;}
	.st209{clip-path:url(#SVGID_173_);}
	.st210{clip-path:url(#SVGID_175_);}
	.st211{clip-path:url(#SVGID_177_);}
	.st212{fill:#FFAFC3;}
	.st213{fill:#A0D3FF;}
	.st214{fill:none;stroke:#333333;stroke-width:0.7262;stroke-linecap:round;stroke-linejoin:round;stroke-miterlimit:10;}
	.st215{fill:none;stroke:#333333;stroke-width:0.6906;stroke-miterlimit:10;}
	.st216{fill:none;stroke:#333333;stroke-width:0.8536;stroke-miterlimit:10;}
	.st217{fill:#333333;stroke:#333333;stroke-width:0.991;stroke-linecap:round;stroke-linejoin:round;stroke-miterlimit:10;}
	.st218{clip-path:url(#SVGID_179_);}
	.st219{clip-path:url(#SVGID_181_);}
	.st220{fill:#FD9994;}
	.st221{opacity:0.2;}
	.st222{fill:#2E3192;}
	.st223{display:inline;fill:#FF5B00;}
</style>
<g id="site">
</g>
<g id="kitties">
	<g>
		<path class="st26" d="M55.8,34.5c0,0-14.3-0.1-15-6.6c-0.6-4.8,10.4-9.3,10.4-9.3s-10.1,1-14,5.8s-0.6,13.6,7.2,17.9
			s9.2,4.5,9.2,4.5L55.8,34.5z"/>
		<g>
			<path class="st26" d="M51.3,18.9c-1.2,0.6-2.4,1.2-3.5,1.9c-1.1,0.7-2.2,1.4-3.3,2.2c-1,0.8-2,1.7-2.6,2.8
				c-0.3,0.5-0.5,1.1-0.6,1.6c0,0.5,0.1,1.1,0.4,1.6c0.6,1,1.6,1.8,2.7,2.4c1.1,0.6,2.3,1.1,3.6,1.5c2.5,0.8,5.2,1.2,7.8,1.3l0,0
				c0.1,0,0.2,0.1,0.2,0.2c0,0.1-0.1,0.2-0.2,0.2c-2.7,0.1-5.4-0.3-8-0.9c-1.3-0.3-2.6-0.8-3.9-1.4c-1.2-0.6-2.4-1.5-3.2-2.8
				c-0.4-0.7-0.6-1.4-0.5-2.2c0.1-0.8,0.4-1.5,0.8-2.1c0.8-1.2,1.8-2.1,2.9-3c2.2-1.6,4.6-2.9,7.1-3.9c0.2-0.1,0.3,0,0.4,0.2
				C51.5,18.6,51.4,18.8,51.3,18.9L51.3,18.9z"/>
		</g>
		<g>
			<path class="st26" d="M51.1,18.9c-1.9,0.1-3.8,0.6-5.6,1.2c-1.8,0.6-3.6,1.5-5.2,2.5c-0.8,0.5-1.7,1-2.3,1.7
				c-0.7,0.6-1.2,1.4-1.6,2.2c-0.8,1.7-0.7,3.6-0.1,5.4c0.6,1.8,1.6,3.5,2.8,5c1.2,1.5,2.6,2.9,4.1,4c1.5,1.2,3.2,2.2,4.9,3.1
				c1.8,0.8,3.6,1.5,5.5,1.6l0,0c0.1,0,0.2,0.1,0.2,0.2c0,0.1-0.1,0.2-0.2,0.2c-2-0.1-4-0.7-5.8-1.4c-1.8-0.8-3.6-1.8-5.2-3
				c-3.2-2.3-6.1-5.4-7.4-9.4c-0.6-2-0.7-4.2,0.3-6.1c0.5-1,1.1-1.8,1.9-2.5c0.8-0.7,1.7-1.2,2.5-1.7c3.5-2,7.3-3.4,11.4-3.6
				c0.2,0,0.3,0.1,0.3,0.3C51.5,18.7,51.3,18.9,51.1,18.9L51.1,18.9z"/>
		</g>
		<path class="st26" d="M117.2,34.5c0,0,14.3-0.1,15-6.6c0.6-4.8-10.4-9.3-10.4-9.3s10.1,1,14,5.8c3.9,4.8,0.6,13.6-7.2,17.9
			c-7.9,4.4-9.2,4.5-9.2,4.5L117.2,34.5z"/>
		<g>
			<path class="st26" d="M122,18.3c2.5,1,4.9,2.3,7.1,3.9c1.1,0.8,2.1,1.7,2.9,3c0.4,0.6,0.7,1.3,0.8,2.1c0.1,0.8-0.1,1.6-0.5,2.2
				c-0.7,1.3-2,2.2-3.2,2.8c-1.2,0.6-2.5,1.1-3.9,1.4c-2.6,0.6-5.3,1-8,0.9c-0.1,0-0.2-0.1-0.2-0.2c0-0.1,0.1-0.2,0.2-0.2l0,0
				c2.6-0.1,5.3-0.6,7.8-1.3c1.3-0.4,2.5-0.9,3.6-1.5c1.1-0.6,2.2-1.4,2.7-2.4c0.3-0.5,0.5-1.1,0.4-1.6c0-0.5-0.2-1.1-0.6-1.6
				c-0.6-1.1-1.6-2-2.6-2.8c-1-0.8-2.1-1.5-3.3-2.2c-1.1-0.7-2.3-1.3-3.5-1.9l0,0c-0.2-0.1-0.2-0.3-0.1-0.4
				C121.7,18.3,121.9,18.2,122,18.3z"/>
		</g>
		<g>
			<path class="st26" d="M121.9,18.3c4.1,0.1,7.9,1.6,11.4,3.6c0.8,0.5,1.7,1,2.5,1.7c0.8,0.7,1.4,1.5,1.9,2.5
				c0.9,1.9,0.9,4.2,0.3,6.1c-1.3,3.9-4.2,7.1-7.4,9.4c-1.6,1.2-3.4,2.2-5.2,3c-1.8,0.8-3.8,1.4-5.8,1.4c-0.1,0-0.2-0.1-0.2-0.2
				c0-0.1,0.1-0.2,0.2-0.2l0,0c1.9-0.1,3.8-0.8,5.5-1.6c1.8-0.8,3.4-1.9,4.9-3.1c1.6-1.2,2.9-2.5,4.1-4c1.2-1.5,2.2-3.2,2.8-5
				c0.6-1.8,0.7-3.7-0.1-5.4c-0.4-0.8-0.9-1.6-1.6-2.2c-0.7-0.6-1.5-1.1-2.3-1.7c-1.7-1-3.4-1.8-5.2-2.5c-1.8-0.6-3.7-1.1-5.6-1.2
				l0,0c-0.2,0-0.3-0.2-0.3-0.3C121.6,18.4,121.7,18.3,121.9,18.3z"/>
		</g>
		<g>
			<path class="st145" d="M76.6,156.4c0,0,13-0.7,21.6,0.1"/>
			<path class="st146" d="M131.9,42.4c0,0-7.6-10.6-29.5-14.8c0.5-0.7,1-1.4,1.4-2.2c0.7-1.3,1.2-3,0.4-4.3c-0.6-1.1-2-1.6-3.3-1.6
				c-1.3,0.1-2.5,0.6-3.6,1.2c-2.8,1.3-5.5,2.9-7.8,4.9c0.3-0.9,0.5-2,0.3-2.9c-0.3-1.6-1.7-3.1-3.4-3.1c-1.5,0-2.8,1-4,1.8
				c-2.7,1.8-6.9,3.7-10.1,5.9c-0.2,0-0.4,0.1-0.6,0.1c0,0-12.5,1.6-25.1,10.9c-2.5,1.8-3.8,4.4-6.2,6.8c0,0-2.7,2.4-4.3,6.7
				c-2,5.4-4.2,13.2-3.6,20.9c0.3,4.4,4.2,14.8,7.7,18c1.1,1,5,4.9,8.2,7.5c1.2,1,4.9,3.1,7.4,4.4c1.6,0.8,3.6,1.8,6.2,2.6
				c0,0,0,0,0,0c0,0,0,0,0,0c0,0,0,0,0,0c0,0,0,0,0,0.1c0,0,0,0,0,0c0,0,0,0.1,0,0.1c0,0,0,0,0,0.1c0,0,0,0.1-0.1,0.1c0,0,0,0,0,0.1
				c0,0,0,0.1-0.1,0.2c0,0,0,0,0,0.1c-0.1,0.3-0.3,0.6-0.4,1c0,0,0,0,0,0c0,0.1-0.1,0.2-0.1,0.3c0,0,0,0.1,0,0.1
				c0,0.1-0.1,0.2-0.1,0.3c0,0,0,0.1,0,0.1c0,0.1-0.1,0.2-0.1,0.3c0,0,0,0.1-0.1,0.1c0,0.1-0.1,0.2-0.1,0.3c0,0.1,0,0.1-0.1,0.2
				c0,0.1-0.1,0.2-0.1,0.3c0,0.1-0.1,0.1-0.1,0.2c0,0.1-0.1,0.2-0.1,0.3c0,0.1-0.1,0.1-0.1,0.2c0,0.1-0.1,0.2-0.1,0.3
				c0,0.1-0.1,0.1-0.1,0.2c0,0.1-0.1,0.2-0.2,0.4c0,0.1-0.1,0.2-0.1,0.2c-0.1,0.1-0.1,0.2-0.2,0.4c0,0.1-0.1,0.2-0.1,0.2
				c-0.1,0.1-0.1,0.3-0.2,0.4c0,0.1-0.1,0.2-0.1,0.3c-0.1,0.1-0.1,0.3-0.2,0.4c0,0.1-0.1,0.2-0.1,0.3c-0.1,0.1-0.1,0.3-0.2,0.4
				c0,0.1-0.1,0.2-0.1,0.3c-0.1,0.1-0.1,0.3-0.2,0.4c0,0.1-0.1,0.2-0.1,0.3c-0.1,0.1-0.1,0.3-0.2,0.4c0,0.1-0.1,0.2-0.1,0.3
				c-0.1,0.1-0.1,0.3-0.2,0.4c0,0.1-0.1,0.2-0.1,0.3c-0.1,0.1-0.1,0.3-0.2,0.4c0,0.1-0.1,0.2-0.1,0.3c-0.1,0.1-0.1,0.3-0.2,0.4
				c0,0.1-0.1,0.2-0.1,0.3c-0.1,0.2-0.1,0.3-0.2,0.5c0,0.1-0.1,0.2-0.1,0.3c-0.1,0.2-0.1,0.3-0.2,0.5c0,0.1-0.1,0.2-0.1,0.3
				c-0.1,0.2-0.1,0.3-0.2,0.5c0,0.1-0.1,0.2-0.1,0.3c-0.1,0.2-0.1,0.3-0.2,0.5c0,0.1-0.1,0.2-0.1,0.3c-0.1,0.2-0.1,0.3-0.2,0.5
				c0,0.1-0.1,0.2-0.1,0.4c-0.1,0.2-0.1,0.3-0.2,0.5c0,0.1-0.1,0.2-0.1,0.4c-0.1,0.2-0.1,0.3-0.2,0.5c0,0.1-0.1,0.2-0.1,0.4
				c-0.1,0.2-0.1,0.3-0.2,0.5c0,0.1-0.1,0.2-0.1,0.4c-0.1,0.2-0.1,0.3-0.2,0.5c0,0.1-0.1,0.3-0.1,0.4c-0.1,0.2-0.1,0.3-0.2,0.5
				c0,0.1-0.1,0.3-0.1,0.4c-0.1,0.2-0.1,0.3-0.2,0.5c0,0.1-0.1,0.3-0.1,0.4c-0.1,0.2-0.1,0.3-0.2,0.5c0,0.1-0.1,0.3-0.1,0.4
				c-0.1,0.2-0.1,0.3-0.2,0.5c0,0.1-0.1,0.3-0.1,0.4c0,0.2-0.1,0.3-0.1,0.5c0,0.1-0.1,0.3-0.1,0.4c0,0.2-0.1,0.3-0.1,0.5
				c0,0.1-0.1,0.3-0.1,0.4c0,0.2-0.1,0.3-0.1,0.5c0,0.1-0.1,0.3-0.1,0.4c0,0.2-0.1,0.3-0.1,0.5c0,0.1-0.1,0.3-0.1,0.4
				c0,0.2-0.1,0.3-0.1,0.5c0,0.1-0.1,0.3-0.1,0.4c0,0.2-0.1,0.3-0.1,0.5c0,0.1-0.1,0.3-0.1,0.4c0,0.2-0.1,0.3-0.1,0.5
				c0,0.1-0.1,0.3-0.1,0.4c0,0.2-0.1,0.3-0.1,0.5c0,0.1-0.1,0.3-0.1,0.4c0,0.2-0.1,0.3-0.1,0.4c0,0.1-0.1,0.3-0.1,0.4
				c0,0.1-0.1,0.3-0.1,0.4c0,0.1-0.1,0.3-0.1,0.4c0,0.1-0.1,0.3-0.1,0.4c0,0.1,0,0.3-0.1,0.4c0,0.1-0.1,0.3-0.1,0.4
				c0,0.1,0,0.2-0.1,0.4c0,0.1,0,0.3-0.1,0.4c0,0.1,0,0.2-0.1,0.4c0,0.1,0,0.3-0.1,0.4c0,0.1,0,0.2-0.1,0.4c0,0.1,0,0.3-0.1,0.4
				c0,0.1,0,0.2,0,0.3c0,0.1,0,0.3,0,0.4c0,0.1,0,0.2,0,0.3c0,0.1,0,0.3,0,0.4c0,0.1,0,0.2,0,0.3c0,0.1,0,0.3,0,0.4
				c0,0.1,0,0.2,0,0.3c0,0.1,0,0.2,0,0.4c0,0.1,0,0.2,0,0.3c0,0.1,0,0.2,0,0.4c0,0.1,0,0.2,0,0.3c0,0.1,0,0.2,0,0.4
				c0,0.1,0,0.2,0,0.3c0,0.1,0,0.2,0,0.3c0,0.1,0,0.2,0,0.3c0,0.1,0,0.2,0,0.3c0,0.1,0,0.2,0,0.2c0,0.1,0,0.2,0.1,0.4
				c0,0.1,0,0.1,0,0.2c0,0.2,0.1,0.4,0.1,0.5c-0.2,1.7,0.2,3.1,1.2,4.3c0.2,0.2,0.3,0.4,0.5,0.6c0.3,0.3,0.6,0.5,0.9,0.8
				c1.7,1.2,4,2.1,6.6,2.8c0.4,0.1,0.7,0.2,1.1,0.2c0.4,0.1,0.7,0.1,1.1,0.2c0.4,0.1,0.7,0.1,1.1,0.2c0.4,0.1,0.8,0.1,1.1,0.2
				c1.3,0.2,2.7,0.3,4,0.4c0.4,0,0.8,0,1.1,0.1c0.6,0,1.1,0,1.7,0.1c0.4,0,0.7,0,1.1,0c1.8,0,3.5,0,5-0.1c0,0,0.7,4.3,5.2,4.2l0,0
				c0.1,0,0.3,0,0.4-0.1c2.5-0.5,2.9-5,3.2-4.6c0.2,0.2,3.4,0.1,3.4,0c0,0,0-0.1,0-0.1l0.6,0c0,0,0,0.1,0,0.1c0,0.1,0,0.2,0.1,0.2
				c0,0.1,0,0.1,0.1,0.2c0,0.1,0.1,0.2,0.1,0.3c0,0,0,0.1,0,0.1c0,0.1,0.1,0.3,0.1,0.4c0,0,0,0.1,0,0.1c0,0.1,0.1,0.2,0.1,0.3
				c0,0,0,0.1,0.1,0.1c0,0.1,0.1,0.2,0.1,0.2c0,0,0,0.1,0.1,0.1c0,0.1,0.1,0.2,0.1,0.2c0,0,0,0.1,0.1,0.1c0,0.1,0.1,0.2,0.1,0.3
				c0,0,0,0,0,0c0.1,0.1,0.1,0.2,0.2,0.3c0,0,0,0.1,0.1,0.1c0,0.1,0.1,0.1,0.1,0.2c0,0,0,0.1,0.1,0.1c0,0.1,0.1,0.1,0.1,0.2
				c0,0,0,0.1,0.1,0.1c0,0.1,0.1,0.1,0.1,0.2c0,0,0,0,0,0.1c0.1,0.1,0.1,0.2,0.2,0.2c0,0,0,0,0,0c0,0.1,0.1,0.1,0.1,0.2
				c0,0,0,0,0.1,0.1c0,0,0.1,0.1,0.1,0.1c0,0,0,0,0.1,0.1c0,0,0.1,0.1,0.1,0.1c0,0,0,0,0.1,0c0.1,0,0.1,0.1,0.2,0.1
				c0.7,0.4,1.4,0.2,2-0.2c0.1-0.1,0.3-0.2,0.4-0.3c0.1-0.1,0.1-0.1,0.2-0.2c0.1-0.1,0.2-0.3,0.4-0.4c0.1-0.1,0.2-0.3,0.4-0.4
				c0.1-0.1,0.2-0.3,0.3-0.4c0,0,0.1-0.1,0.1-0.1c0.1-0.1,0.2-0.3,0.3-0.4c0.1-0.2,0.2-0.3,0.3-0.5c0.2-0.4,0.5-0.7,0.7-1
				c0.2-0.3,0.4-0.5,0.5-0.6c0,0,0.8,0.1,2,0.1c0.3,0,0.7,0,1,0c0.7,0,1.6,0.1,2.5,0.1c0.3,0,0.6,0,0.9,0c0.2,0,0.3,0,0.5,0
				c0.8,0,1.7,0,2.6-0.1c0.2,0,0.4,0,0.5,0c0.5,0,1.1-0.1,1.6-0.1c0.2,0,0.4,0,0.6-0.1c0.6-0.1,1.1-0.1,1.7-0.2
				c0.2,0,0.4-0.1,0.6-0.1c0.4-0.1,0.7-0.1,1.1-0.2c0.2,0,0.4-0.1,0.5-0.1c0.4-0.1,0.7-0.1,1.1-0.2c0.5-0.1,1-0.3,1.5-0.4
				c1-0.3,2-0.7,2.8-1.1c1.7-0.9,3.1-2,3.9-3.4c0.4-0.7,0.6-1.7,0.7-2.9c0-0.2,0-0.5,0.1-0.7c0-0.4,0-0.8,0-1.2c0-0.1,0-0.3,0-0.4
				s0-0.3,0-0.4c0-0.3,0-0.6,0-0.9c0-0.7-0.1-1.5-0.2-2.3c0-0.2,0-0.3-0.1-0.5c-0.1-0.6-0.2-1.3-0.2-1.9c-0.1-0.4-0.1-0.8-0.2-1.2
				c-0.1-0.3-0.1-0.7-0.2-1c-0.1-0.6-0.2-1.1-0.3-1.7c-0.2-0.8-0.3-1.7-0.5-2.6c-0.1-0.6-0.3-1.3-0.4-2c-0.1-0.3-0.1-0.6-0.2-0.9
				c0-0.1,0-0.2-0.1-0.3c-0.1-0.5-0.2-0.9-0.4-1.4c-0.6-2.1-1.2-4.3-1.8-6.3c-0.1-0.3-0.2-0.6-0.3-0.9c-0.1-0.4-0.3-0.8-0.4-1.2
				c-0.1-0.2-0.2-0.5-0.2-0.7c0-0.1,0-0.1-0.1-0.2c-0.1-0.2-0.1-0.3-0.2-0.5c0-0.1-0.1-0.2-0.1-0.2c-0.1-0.2-0.1-0.3-0.2-0.5
				c0-0.1,0-0.1-0.1-0.2c-0.1-0.2-0.2-0.5-0.3-0.7c0,0,0,0,0-0.1c-0.1-0.2-0.2-0.4-0.2-0.6c0-0.1-0.1-0.1-0.1-0.2
				c-0.1-0.2-0.1-0.3-0.2-0.5c0-0.1-0.1-0.1-0.1-0.2c-0.1-0.2-0.1-0.3-0.2-0.5c0-0.1,0-0.1-0.1-0.2c-0.1-0.2-0.2-0.4-0.3-0.6
				c0,0,0-0.1,0-0.1c-0.1-0.2-0.1-0.4-0.2-0.5c0-0.1-0.1-0.1-0.1-0.2c-0.1-0.1-0.1-0.3-0.2-0.4c0-0.1-0.1-0.1-0.1-0.2
				c-0.1-0.1-0.1-0.3-0.2-0.4c0,0,0-0.1-0.1-0.1c-0.1-0.2-0.2-0.4-0.2-0.6c0,0,0-0.1,0-0.1c-0.1-0.1-0.1-0.3-0.2-0.4
				c0-0.1-0.1-0.1-0.1-0.2c-0.1-0.1-0.1-0.2-0.2-0.4c0-0.1-0.1-0.1-0.1-0.2c-0.1-0.1-0.1-0.3-0.2-0.4c0,0,0-0.1,0-0.1
				c-0.1-0.2-0.2-0.3-0.2-0.5c0,0,0-0.1-0.1-0.1c-0.1-0.1-0.1-0.2-0.2-0.4c0,0,0-0.1-0.1-0.1c-0.1-0.1-0.1-0.2-0.2-0.3
				c0,0,0-0.1-0.1-0.1c-0.1-0.1-0.1-0.2-0.2-0.3c0,0,0,0,0-0.1c-0.1-0.1-0.1-0.3-0.2-0.4c0,0,0-0.1,0-0.1c0-0.1-0.1-0.2-0.1-0.3
				c0,0,0-0.1-0.1-0.1c0-0.1-0.1-0.2-0.1-0.2c0,0,0-0.1,0-0.1c-0.1-0.1-0.1-0.2-0.1-0.3c0,0,0,0,0,0c-0.1-0.1-0.1-0.2-0.1-0.3
				c0,0,0,0,0-0.1c0-0.1-0.1-0.1-0.1-0.2c0,0,0-0.1,0-0.1c0,0,0,0,0-0.1c0.8-0.3,2.5-1.1,5-2.5c2-1.1,7-4,8.2-4.9
				c1-0.7,7.5-6.5,8.7-7.8c7.6-8.5,7.3-18.5,7.3-21.2C142.6,52.4,131.9,42.4,131.9,42.4z"/>
			<g>
				<defs>
					<path id="SVGID_114_" d="M131.9,42.4c0,0-7.6-10.6-29.5-14.8c0.5-0.7,1-1.4,1.4-2.2c0.7-1.3,1.2-3,0.4-4.3
						c-0.6-1.1-2-1.6-3.3-1.6c-1.3,0.1-2.5,0.6-3.6,1.2c-2.8,1.3-5.5,2.9-7.8,4.9c0.3-0.9,0.5-2,0.3-2.9c-0.3-1.6-1.7-3.1-3.4-3.1
						c-1.5,0-2.8,1-4,1.8c-2.7,1.8-6.9,3.7-10.1,5.9c-0.2,0-0.4,0.1-0.6,0.1c0,0-12.5,1.6-25.1,10.9c-2.5,1.8-3.8,4.4-6.2,6.8
						c0,0-2.7,2.4-4.3,6.7c-2,5.4-4.2,13.2-3.6,20.9c0.3,4.4,4.2,14.8,7.7,18c1.1,1,5,4.9,8.2,7.5c1.2,1,4.9,3.1,7.4,4.4
						c1.6,0.8,3.6,1.8,6.2,2.6c0,0,0,0,0,0c0,0,0,0,0,0c0,0,0,0,0,0c0,0,0,0,0,0.1c0,0,0,0,0,0c0,0,0,0.1,0,0.1c0,0,0,0,0,0.1
						c0,0,0,0.1-0.1,0.1c0,0,0,0,0,0.1c0,0,0,0.1-0.1,0.2c0,0,0,0,0,0.1c-0.1,0.3-0.3,0.6-0.4,1c0,0,0,0,0,0c0,0.1-0.1,0.2-0.1,0.3
						c0,0,0,0.1,0,0.1c0,0.1-0.1,0.2-0.1,0.3c0,0,0,0.1,0,0.1c0,0.1-0.1,0.2-0.1,0.3c0,0,0,0.1-0.1,0.1c0,0.1-0.1,0.2-0.1,0.3
						c0,0.1,0,0.1-0.1,0.2c0,0.1-0.1,0.2-0.1,0.3c0,0.1-0.1,0.1-0.1,0.2c0,0.1-0.1,0.2-0.1,0.3c0,0.1-0.1,0.1-0.1,0.2
						c0,0.1-0.1,0.2-0.1,0.3c0,0.1-0.1,0.1-0.1,0.2c0,0.1-0.1,0.2-0.2,0.4c0,0.1-0.1,0.2-0.1,0.2c-0.1,0.1-0.1,0.2-0.2,0.4
						c0,0.1-0.1,0.2-0.1,0.2c-0.1,0.1-0.1,0.3-0.2,0.4c0,0.1-0.1,0.2-0.1,0.3c-0.1,0.1-0.1,0.3-0.2,0.4c0,0.1-0.1,0.2-0.1,0.3
						c-0.1,0.1-0.1,0.3-0.2,0.4c0,0.1-0.1,0.2-0.1,0.3c-0.1,0.1-0.1,0.3-0.2,0.4c0,0.1-0.1,0.2-0.1,0.3c-0.1,0.1-0.1,0.3-0.2,0.4
						c0,0.1-0.1,0.2-0.1,0.3c-0.1,0.1-0.1,0.3-0.2,0.4c0,0.1-0.1,0.2-0.1,0.3c-0.1,0.1-0.1,0.3-0.2,0.4c0,0.1-0.1,0.2-0.1,0.3
						c-0.1,0.1-0.1,0.3-0.2,0.4c0,0.1-0.1,0.2-0.1,0.3c-0.1,0.2-0.1,0.3-0.2,0.5c0,0.1-0.1,0.2-0.1,0.3c-0.1,0.2-0.1,0.3-0.2,0.5
						c0,0.1-0.1,0.2-0.1,0.3c-0.1,0.2-0.1,0.3-0.2,0.5c0,0.1-0.1,0.2-0.1,0.3c-0.1,0.2-0.1,0.3-0.2,0.5c0,0.1-0.1,0.2-0.1,0.3
						c-0.1,0.2-0.1,0.3-0.2,0.5c0,0.1-0.1,0.2-0.1,0.4c-0.1,0.2-0.1,0.3-0.2,0.5c0,0.1-0.1,0.2-0.1,0.4c-0.1,0.2-0.1,0.3-0.2,0.5
						c0,0.1-0.1,0.2-0.1,0.4c-0.1,0.2-0.1,0.3-0.2,0.5c0,0.1-0.1,0.2-0.1,0.4c-0.1,0.2-0.1,0.3-0.2,0.5c0,0.1-0.1,0.3-0.1,0.4
						c-0.1,0.2-0.1,0.3-0.2,0.5c0,0.1-0.1,0.3-0.1,0.4c-0.1,0.2-0.1,0.3-0.2,0.5c0,0.1-0.1,0.3-0.1,0.4c-0.1,0.2-0.1,0.3-0.2,0.5
						c0,0.1-0.1,0.3-0.1,0.4c-0.1,0.2-0.1,0.3-0.2,0.5c0,0.1-0.1,0.3-0.1,0.4c0,0.2-0.1,0.3-0.1,0.5c0,0.1-0.1,0.3-0.1,0.4
						c0,0.2-0.1,0.3-0.1,0.5c0,0.1-0.1,0.3-0.1,0.4c0,0.2-0.1,0.3-0.1,0.5c0,0.1-0.1,0.3-0.1,0.4c0,0.2-0.1,0.3-0.1,0.5
						c0,0.1-0.1,0.3-0.1,0.4c0,0.2-0.1,0.3-0.1,0.5c0,0.1-0.1,0.3-0.1,0.4c0,0.2-0.1,0.3-0.1,0.5c0,0.1-0.1,0.3-0.1,0.4
						c0,0.2-0.1,0.3-0.1,0.5c0,0.1-0.1,0.3-0.1,0.4c0,0.2-0.1,0.3-0.1,0.5c0,0.1-0.1,0.3-0.1,0.4c0,0.2-0.1,0.3-0.1,0.4
						c0,0.1-0.1,0.3-0.1,0.4c0,0.1-0.1,0.3-0.1,0.4c0,0.1-0.1,0.3-0.1,0.4c0,0.1-0.1,0.3-0.1,0.4c0,0.1,0,0.3-0.1,0.4
						c0,0.1-0.1,0.3-0.1,0.4c0,0.1,0,0.2-0.1,0.4c0,0.1,0,0.3-0.1,0.4c0,0.1,0,0.2-0.1,0.4c0,0.1,0,0.3-0.1,0.4c0,0.1,0,0.2-0.1,0.4
						c0,0.1,0,0.3-0.1,0.4c0,0.1,0,0.2,0,0.3c0,0.1,0,0.3,0,0.4c0,0.1,0,0.2,0,0.3c0,0.1,0,0.3,0,0.4c0,0.1,0,0.2,0,0.3
						c0,0.1,0,0.3,0,0.4c0,0.1,0,0.2,0,0.3c0,0.1,0,0.2,0,0.4c0,0.1,0,0.2,0,0.3c0,0.1,0,0.2,0,0.4c0,0.1,0,0.2,0,0.3
						c0,0.1,0,0.2,0,0.4c0,0.1,0,0.2,0,0.3c0,0.1,0,0.2,0,0.3c0,0.1,0,0.2,0,0.3c0,0.1,0,0.2,0,0.3c0,0.1,0,0.2,0,0.2
						c0,0.1,0,0.2,0.1,0.4c0,0.1,0,0.1,0,0.2c0,0.2,0.1,0.4,0.1,0.5c-0.2,1.7,0.2,3.1,1.2,4.3c0.2,0.2,0.3,0.4,0.5,0.6
						c0.3,0.3,0.6,0.5,0.9,0.8c1.7,1.2,4,2.1,6.6,2.8c0.4,0.1,0.7,0.2,1.1,0.2c0.4,0.1,0.7,0.1,1.1,0.2c0.4,0.1,0.7,0.1,1.1,0.2
						c0.4,0.1,0.8,0.1,1.1,0.2c1.3,0.2,2.7,0.3,4,0.4c0.4,0,0.8,0,1.1,0.1c0.6,0,1.1,0,1.7,0.1c0.4,0,0.7,0,1.1,0c1.8,0,3.5,0,5-0.1
						c0,0,0.7,4.3,5.2,4.2l0,0c0.1,0,0.3,0,0.4-0.1c2.5-0.5,2.9-5,3.2-4.6c0.2,0.2,3.4,0.1,3.4,0c0,0,0-0.1,0-0.1l0.6,0
						c0,0,0,0.1,0,0.1c0,0.1,0,0.2,0.1,0.2c0,0.1,0,0.1,0.1,0.2c0,0.1,0.1,0.2,0.1,0.3c0,0,0,0.1,0,0.1c0,0.1,0.1,0.3,0.1,0.4
						c0,0,0,0.1,0,0.1c0,0.1,0.1,0.2,0.1,0.3c0,0,0,0.1,0.1,0.1c0,0.1,0.1,0.2,0.1,0.2c0,0,0,0.1,0.1,0.1c0,0.1,0.1,0.2,0.1,0.2
						c0,0,0,0.1,0.1,0.1c0,0.1,0.1,0.2,0.1,0.3c0,0,0,0,0,0c0.1,0.1,0.1,0.2,0.2,0.3c0,0,0,0.1,0.1,0.1c0,0.1,0.1,0.1,0.1,0.2
						c0,0,0,0.1,0.1,0.1c0,0.1,0.1,0.1,0.1,0.2c0,0,0,0.1,0.1,0.1c0,0.1,0.1,0.1,0.1,0.2c0,0,0,0,0,0.1c0.1,0.1,0.1,0.2,0.2,0.2
						c0,0,0,0,0,0c0,0.1,0.1,0.1,0.1,0.2c0,0,0,0,0.1,0.1c0,0,0.1,0.1,0.1,0.1c0,0,0,0,0.1,0.1c0,0,0.1,0.1,0.1,0.1c0,0,0,0,0.1,0
						c0.1,0,0.1,0.1,0.2,0.1c0.7,0.4,1.4,0.2,2-0.2c0.1-0.1,0.3-0.2,0.4-0.3c0.1-0.1,0.1-0.1,0.2-0.2c0.1-0.1,0.2-0.3,0.4-0.4
						c0.1-0.1,0.2-0.3,0.4-0.4c0.1-0.1,0.2-0.3,0.3-0.4c0,0,0.1-0.1,0.1-0.1c0.1-0.1,0.2-0.3,0.3-0.4c0.1-0.2,0.2-0.3,0.3-0.5
						c0.2-0.4,0.5-0.7,0.7-1c0.2-0.3,0.4-0.5,0.5-0.6c0,0,0.8,0.1,2,0.1c0.3,0,0.7,0,1,0c0.7,0,1.6,0.1,2.5,0.1c0.3,0,0.6,0,0.9,0
						c0.2,0,0.3,0,0.5,0c0.8,0,1.7,0,2.6-0.1c0.2,0,0.4,0,0.5,0c0.5,0,1.1-0.1,1.6-0.1c0.2,0,0.4,0,0.6-0.1c0.6-0.1,1.1-0.1,1.7-0.2
						c0.2,0,0.4-0.1,0.6-0.1c0.4-0.1,0.7-0.1,1.1-0.2c0.2,0,0.4-0.1,0.5-0.1c0.4-0.1,0.7-0.1,1.1-0.2c0.5-0.1,1-0.3,1.5-0.4
						c1-0.3,2-0.7,2.8-1.1c1.7-0.9,3.1-2,3.9-3.4c0.4-0.7,0.6-1.7,0.7-2.9c0-0.2,0-0.5,0.1-0.7c0-0.4,0-0.8,0-1.2c0-0.1,0-0.3,0-0.4
						s0-0.3,0-0.4c0-0.3,0-0.6,0-0.9c0-0.7-0.1-1.5-0.2-2.3c0-0.2,0-0.3-0.1-0.5c-0.1-0.6-0.2-1.3-0.2-1.9c-0.1-0.4-0.1-0.8-0.2-1.2
						c-0.1-0.3-0.1-0.7-0.2-1c-0.1-0.6-0.2-1.1-0.3-1.7c-0.2-0.8-0.3-1.7-0.5-2.6c-0.1-0.6-0.3-1.3-0.4-2c-0.1-0.3-0.1-0.6-0.2-0.9
						c0-0.1,0-0.2-0.1-0.3c-0.1-0.5-0.2-0.9-0.4-1.4c-0.6-2.1-1.2-4.3-1.8-6.3c-0.1-0.3-0.2-0.6-0.3-0.9c-0.1-0.4-0.3-0.8-0.4-1.2
						c-0.1-0.2-0.2-0.5-0.2-0.7c0-0.1,0-0.1-0.1-0.2c-0.1-0.2-0.1-0.3-0.2-0.5c0-0.1-0.1-0.2-0.1-0.2c-0.1-0.2-0.1-0.3-0.2-0.5
						c0-0.1,0-0.1-0.1-0.2c-0.1-0.2-0.2-0.5-0.3-0.7c0,0,0,0,0-0.1c-0.1-0.2-0.2-0.4-0.2-0.6c0-0.1-0.1-0.1-0.1-0.2
						c-0.1-0.2-0.1-0.3-0.2-0.5c0-0.1-0.1-0.1-0.1-0.2c-0.1-0.2-0.1-0.3-0.2-0.5c0-0.1,0-0.1-0.1-0.2c-0.1-0.2-0.2-0.4-0.3-0.6
						c0,0,0-0.1,0-0.1c-0.1-0.2-0.1-0.4-0.2-0.5c0-0.1-0.1-0.1-0.1-0.2c-0.1-0.1-0.1-0.3-0.2-0.4c0-0.1-0.1-0.1-0.1-0.2
						c-0.1-0.1-0.1-0.3-0.2-0.4c0,0,0-0.1-0.1-0.1c-0.1-0.2-0.2-0.4-0.2-0.6c0,0,0-0.1,0-0.1c-0.1-0.1-0.1-0.3-0.2-0.4
						c0-0.1-0.1-0.1-0.1-0.2c-0.1-0.1-0.1-0.2-0.2-0.4c0-0.1-0.1-0.1-0.1-0.2c-0.1-0.1-0.1-0.3-0.2-0.4c0,0,0-0.1,0-0.1
						c-0.1-0.2-0.2-0.3-0.2-0.5c0,0,0-0.1-0.1-0.1c-0.1-0.1-0.1-0.2-0.2-0.4c0,0,0-0.1-0.1-0.1c-0.1-0.1-0.1-0.2-0.2-0.3
						c0,0,0-0.1-0.1-0.1c-0.1-0.1-0.1-0.2-0.2-0.3c0,0,0,0,0-0.1c-0.1-0.1-0.1-0.3-0.2-0.4c0,0,0-0.1,0-0.1c0-0.1-0.1-0.2-0.1-0.3
						c0,0,0-0.1-0.1-0.1c0-0.1-0.1-0.2-0.1-0.2c0,0,0-0.1,0-0.1c-0.1-0.1-0.1-0.2-0.1-0.3c0,0,0,0,0,0c-0.1-0.1-0.1-0.2-0.1-0.3
						c0,0,0,0,0-0.1c0-0.1-0.1-0.1-0.1-0.2c0,0,0-0.1,0-0.1c0,0,0,0,0-0.1c0.8-0.3,2.5-1.1,5-2.5c2-1.1,7-4,8.2-4.9
						c1-0.7,7.5-6.5,8.7-7.8c7.6-8.5,7.3-18.5,7.3-21.2C142.6,52.4,131.9,42.4,131.9,42.4z"/>
				</defs>
				<clipPath id="SVGID_2_">
					<use xlink:href="#SVGID_114_"  style="overflow:visible;"/>
				</clipPath>
				<g style="clip-path:url(#SVGID_2_);">
					<g>
						<path class="st21" d="M131,46.3c-0.2,1-0.5,1.9-0.7,2.9c-0.2,0.7-0.3,1.4-0.3,2.1s0.3,1.4,0.8,1.9c0.1,0.1,0.2,0.2,0.4,0.2
							c0.1,0,0.3,0,0.4-0.1c0.5-0.1,1-0.3,1.5-0.4c0.2-0.1,0.5-0.1,0.6-0.3c0.2-0.2,0.3-0.4,0.4-0.7c0.5-1.3,1-2.6,1.3-3.9
							c0.1-0.5,0.2-1,0.1-1.5C135,45.2,131.3,45.1,131,46.3z"/>
						<path class="st21" d="M133.7,54.6c-0.5,0.8-0.9,1.8-0.5,2.7c0.3,0.6,0.9,0.9,1.5,1c0.6,0.1,1.2,0,1.9-0.2
							c0.6-0.1,1.2-0.3,1.8-0.5c0.4-0.2,0.9-0.4,1.2-0.8c0.3-0.4,0.3-0.9,0.2-1.4c-0.1-1.7-0.9-3.4-2.1-4.6c-0.3-0.3-0.6-0.6-1-0.7
							c-1.2-0.4-1.2,0.8-1.5,1.6C134.8,52.7,134.3,53.7,133.7,54.6z"/>
						<path class="st21" d="M137.5,58.4c-0.2,0-0.5,0.1-0.7,0.2c-0.4,0.2-0.6,0.7-0.8,1.1c-0.4,0.9-0.8,1.8-0.6,2.8
							c0.1,0.9,0.8,1.7,1.4,2.5c0.3,0.3,0.6,0.6,1,0.8c0.3,0.1,0.5,0.1,0.8,0.1c0.7-0.1,1.5-0.2,2.2-0.5c0.3-0.1,0.5-0.3,0.6-0.6
							c0.1-0.1,0.1-0.3,0.1-0.5c0.1-1,0.2-2.1,0-3.1c-0.1-0.8-0.5-2.3-1.2-2.7C139.6,57.9,138.3,58.3,137.5,58.4z"/>
						<path class="st21" d="M138.8,67.1c-0.4,0-0.8,0.1-1.1,0.3c-0.5,0.4-0.6,1.1-0.6,1.8c0,0.6-0.1,1.2,0.2,1.8
							c0.2,0.4,0.4,0.7,0.7,1c0.1,0.1,0.2,0.2,0.3,0.3c0.2,0.1,0.3,0.1,0.5,0.1c1,0,2,0,3-0.2c0.7-0.1,1.4-0.4,1.7-1
							c0.1-0.2,0.2-0.5,0.3-0.8c0.2-1.2-0.3-2.6-1.4-3.3C141.5,66.5,139.9,67,138.8,67.1z"/>
						<path class="st21" d="M129.7,54.3c-0.3,0-0.7,0.1-1,0.3c-0.4,0.3-0.7,0.8-0.6,1.3c0.1,0.5,0.5,0.9,1,1c0.2,0,0.4,0,0.7,0
							c0.5-0.1,0.9-0.2,1.4-0.4c0.1,0,0.3-0.1,0.4-0.2c0.2-0.2,0.3-0.5,0.3-0.8C131.9,53.9,130.9,54.2,129.7,54.3z"/>
						<path class="st21" d="M129.1,58.5c-0.2,0-0.5,0.1-0.6,0.2c-0.2,0.2-0.1,0.6-0.1,0.9c0.3,1,0.7,1.9,1.3,2.7
							c0.1,0.2,0.3,0.4,0.5,0.5c0.2,0.1,0.5,0.1,0.7,0.1c1.1-0.1,2.3-0.4,2.9-1.2c0.6-0.8,0.6-2.4-0.3-2.9
							C132.5,58,130.3,58.3,129.1,58.5z"/>
						<path class="st21" d="M130.7,64.3c-0.1,0-0.3,0.1-0.4,0.1c-0.1,0.1-0.2,0.2-0.2,0.4c-0.3,1,0.2,2,0.7,3
							c0.5,0.8,0.9,1.6,1.4,2.4c0.1,0.2,0.2,0.4,0.4,0.5c0.4,0.3,0.9,0.3,1.3,0.2c0.6-0.1,1.3-0.3,1.7-0.9c0.1-0.2,0.2-0.5,0.2-0.8
							c0.2-1.4,0.2-3.5-0.8-4.6C134.1,63.6,131.9,64.1,130.7,64.3z"/>
						<path class="st21" d="M133.2,73.8c0.3,0.6,0.4,1.2,0.4,1.8c0,0.5-0.1,1,0.2,1.5c0.2,0.5,0.7,0.7,1.2,0.8s1,0,1.5-0.1
							c0.4-0.1,0.9-0.2,1.1-0.5c0.2-0.3,0.2-0.8,0.5-1c0.2-0.1,0.4-0.2,0.7-0.2c0.6,0,1.2-0.1,1.8-0.1c0.6,0,1.3-0.1,1.8-0.5
							s0.7-1.3,0.1-1.7c-0.3-0.2-0.6-0.2-0.9-0.2c-1.2,0-2.5,0.1-3.6,0c-1-0.1-1.2-0.9-2-1.5C134.7,71.1,132.3,71.7,133.2,73.8z"/>
						<path class="st21" d="M138.8,77.7c-0.6,0.2-1.1,0.6-1.3,1.2c-0.1,0.3-0.1,0.7-0.1,1c0,0.2,0,0.3,0.1,0.4
							c0.1,0.1,0.2,0.1,0.3,0.1c0.7,0,1.4-0.1,2-0.3c0.4-0.1,0.8-0.3,1.1-0.7C142,77.8,139.9,77.3,138.8,77.7z"/>
						<path class="st21" d="M129.5,74.6c0.2,0.4,0.5,0.8,1,0.8c0.2,0,0.3,0,0.5,0c0.3,0,0.7-0.1,0.9-0.4c0.3-0.4,0.2-0.9,0-1.4
							c-0.1-0.2-0.2-0.5-0.3-0.7c-0.1-0.3-0.2-0.6-0.5-0.8c-0.2-0.1-0.4-0.1-0.6-0.1c-0.6,0-1.8-0.1-2,0.5
							C128.2,73.1,129.2,74.1,129.5,74.6z"/>
						<path class="st21" d="M128.1,77.7c-0.1,0.1-0.2,0.1-0.3,0.3c-0.1,0.3,0,0.6,0.1,0.8c0.2,0.3,0.4,0.5,0.4,0.8
							c0,0.1,0,0.2,0.1,0.3c0.1,0.2,0.4,0.3,0.7,0.2s0.5-0.2,0.7-0.2c0.4,0,0.7,0.3,1.1,0.4c0.6,0.2,1.2,0.1,1.8-0.1
							c0.4-0.1,0.8-0.2,1-0.5c0.2-0.3,0.1-0.8-0.1-1.1c-0.6-1-1.1-1.5-2.2-1.5C130.3,77.3,129,77.1,128.1,77.7z"/>
						<path class="st21" d="M125.1,65.7c-0.3,0-0.5,0-0.8,0.2c-0.4,0.2-0.6,0.6-0.5,1.1s0.2,0.8,0.5,1.1c0.2,0.3,0.4,0.5,0.8,0.6
							c0.2,0.1,0.5,0,0.7,0c0.4-0.1,0.9-0.2,1.3-0.2c0.3-0.1,0.7-0.1,0.9-0.4c0.5-0.6,0.1-2-0.5-2.3
							C126.9,65.4,125.8,65.7,125.1,65.7z"/>
						<path class="st21" d="M126.5,62.1c0.1,0.7-0.3,1.4-0.9,1.7c-0.4,0.2-0.9,0.2-1.4,0.2c-0.6,0-2,0.7-2.4,0.4
							c-0.2-0.1-0.2-0.8-0.3-1c-0.2-0.3-0.5-0.4-0.7-0.7c-0.8-0.9-0.7-1.8,0.1-2.7c0.7-0.8,1.9-1.3,2.9-0.8c0.7,0.3,0.9,1.1,1.4,1.5
							C125.8,61.2,126.4,61.2,126.5,62.1z"/>
						<path class="st21" d="M123.7,46.2c-0.5,0.1-1.1,0.2-1.2,0.7c-0.1,0.3,0,0.6,0.2,0.9s0.4,0.5,0.6,0.8c0.1,0.2,0.2,0.3,0.3,0.5
							c0.1,0.1,0.4,0.2,0.6,0.3c0.5,0.1,1-0.1,1.4-0.3c0.5-0.2,1.1-0.5,1.6-0.8c0.1-0.1,0.3-0.2,0.3-0.3c0-0.1,0-0.3,0-0.4
							C126.8,45.7,125.1,46,123.7,46.2z"/>
						<path class="st21" d="M124.6,50.9c-0.5,0.1-0.9,0.4-1.1,0.8c-0.2,0.5,0,1.1,0.2,1.7c0.1,0.3,0.2,0.6,0.4,1
							c0.1,0.2,0.1,0.3,0.2,0.4c0.2,0.2,0.6,0.2,0.9,0.2c0.6-0.1,1.2-0.2,1.8-0.4c0.1,0,0.3-0.1,0.4-0.2c0.2-0.2,0.3-0.5,0.3-0.7
							s-0.1-0.6-0.2-0.8c-0.2-0.4-0.3-0.8-0.5-1.3c-0.1-0.2-0.2-0.5-0.3-0.6C126.4,50.7,125,50.8,124.6,50.9z"/>
						<path class="st21" d="M122,37.9c-0.1,0.1-0.3,0.3-0.2,0.5c0,0.1,0.1,0.2,0.2,0.3c1.4,1,2.7,2,4.1,3.1c0.2,0.2,0.5,0.4,0.8,0.4
							c0.2,0,0.3,0,0.5-0.1c0.6-0.2,1.2-0.4,1.8-0.6c0.4-0.1,0.8-0.3,0.9-0.7c0.2-0.4,0-0.8-0.2-1.1c-0.2-0.3-0.6-0.5-0.9-0.7
							c-0.6-0.4-1.3-0.8-1.9-1.2c-0.3-0.2-0.6-0.3-0.9-0.5C124.9,36.7,123.1,36.9,122,37.9z"/>
					</g>
					<g>
						<path class="st21" d="M44.8,46.3c0.2,1,0.5,1.9,0.7,2.9c0.2,0.7,0.3,1.4,0.3,2.1c0,0.7-0.3,1.4-0.8,1.9
							c-0.1,0.1-0.2,0.2-0.4,0.2c-0.1,0-0.3,0-0.4-0.1c-0.5-0.1-1-0.3-1.5-0.4c-0.2-0.1-0.5-0.1-0.6-0.3c-0.2-0.2-0.3-0.4-0.4-0.7
							c-0.5-1.3-1-2.6-1.3-3.9c-0.1-0.5-0.2-1-0.1-1.5C40.8,45.2,44.5,45.1,44.8,46.3z"/>
						<path class="st21" d="M42,54.6c0.5,0.8,0.9,1.8,0.5,2.7c-0.3,0.6-0.9,0.9-1.5,1c-0.6,0.1-1.2,0-1.9-0.2
							c-0.6-0.1-1.2-0.3-1.8-0.5c-0.4-0.2-0.9-0.4-1.2-0.8c-0.3-0.4-0.3-0.9-0.2-1.4c0.1-1.7,0.9-3.4,2.1-4.6c0.3-0.3,0.6-0.6,1-0.7
							c1.2-0.4,1.2,0.8,1.5,1.6C40.9,52.7,41.5,53.7,42,54.6z"/>
						<path class="st21" d="M38.3,58.4c0.2,0,0.5,0.1,0.7,0.2c0.4,0.2,0.6,0.7,0.8,1.1c0.4,0.9,0.8,1.8,0.6,2.8
							c-0.1,0.9-0.8,1.7-1.4,2.5c-0.3,0.3-0.6,0.6-1,0.8c-0.3,0.1-0.5,0.1-0.8,0.1c-0.7-0.1-1.5-0.2-2.2-0.5
							c-0.3-0.1-0.5-0.3-0.6-0.6c-0.1-0.1-0.1-0.3-0.1-0.5c-0.1-1-0.2-2.1,0-3.1c0.1-0.8,0.5-2.3,1.2-2.7
							C36.1,57.9,37.5,58.3,38.3,58.4z"/>
						<path class="st21" d="M36.9,67.1c0.4,0,0.8,0.1,1.1,0.3c0.5,0.4,0.6,1.1,0.6,1.8c0,0.6,0.1,1.2-0.2,1.8
							c-0.2,0.4-0.4,0.7-0.7,1c-0.1,0.1-0.2,0.2-0.3,0.3c-0.2,0.1-0.3,0.1-0.5,0.1c-1,0-2,0-3-0.2c-0.7-0.1-1.4-0.4-1.7-1
							c-0.1-0.2-0.2-0.5-0.3-0.8c-0.2-1.2,0.3-2.6,1.4-3.3C34.3,66.5,35.8,67,36.9,67.1z"/>
						<path class="st21" d="M46,54.3c0.3,0,0.7,0.1,1,0.3c0.4,0.3,0.7,0.8,0.6,1.3c-0.1,0.5-0.5,0.9-1,1c-0.2,0-0.4,0-0.7,0
							c-0.5-0.1-0.9-0.2-1.4-0.4c-0.1,0-0.3-0.1-0.4-0.2c-0.2-0.2-0.3-0.5-0.3-0.8C43.9,53.9,44.8,54.2,46,54.3z"/>
						<path class="st21" d="M46.6,58.5c0.2,0,0.5,0.1,0.6,0.2c0.2,0.2,0.1,0.6,0.1,0.9c-0.3,1-0.7,1.9-1.3,2.7
							c-0.1,0.2-0.3,0.4-0.5,0.5c-0.2,0.1-0.5,0.1-0.7,0.1c-1.1-0.1-2.3-0.4-2.9-1.2c-0.6-0.8-0.6-2.4,0.3-2.9
							C43.2,58,45.4,58.3,46.6,58.5z"/>
						<path class="st21" d="M45.1,64.3c0.1,0,0.3,0.1,0.4,0.1c0.1,0.1,0.2,0.2,0.2,0.4c0.3,1-0.2,2-0.7,3c-0.5,0.8-0.9,1.6-1.4,2.4
							c-0.1,0.2-0.2,0.4-0.4,0.5c-0.4,0.3-0.9,0.3-1.3,0.2c-0.6-0.1-1.3-0.3-1.7-0.9c-0.1-0.2-0.2-0.5-0.2-0.8
							c-0.2-1.4-0.2-3.5,0.8-4.6C41.7,63.6,43.9,64.1,45.1,64.3z"/>
						<path class="st21" d="M42.5,73.8c-0.3,0.6-0.4,1.2-0.4,1.8c0,0.5,0.1,1-0.2,1.5c-0.2,0.5-0.7,0.7-1.2,0.8s-1,0-1.5-0.1
							c-0.4-0.1-0.9-0.2-1.1-0.5c-0.2-0.3-0.2-0.8-0.5-1c-0.2-0.1-0.4-0.2-0.7-0.2c-0.6,0-1.2-0.1-1.8-0.1c-0.6,0-1.3-0.1-1.8-0.5
							c-0.5-0.4-0.7-1.3-0.1-1.7c0.3-0.2,0.6-0.2,0.9-0.2c1.2,0,2.5,0.1,3.6,0c1-0.1,1.2-0.9,2-1.5C41,71.1,43.4,71.7,42.5,73.8z"/>
						<path class="st21" d="M36.9,77.7c0.6,0.2,1.1,0.6,1.3,1.2c0.1,0.3,0.1,0.7,0.1,1c0,0.2,0,0.3-0.1,0.4
							c-0.1,0.1-0.2,0.1-0.3,0.1c-0.7,0-1.4-0.1-2-0.3c-0.4-0.1-0.8-0.3-1.1-0.7C33.7,77.8,35.9,77.3,36.9,77.7z"/>
						<path class="st21" d="M46.3,74.6c-0.2,0.4-0.5,0.8-1,0.8c-0.2,0-0.3,0-0.5,0c-0.3,0-0.7-0.1-0.9-0.4c-0.3-0.4-0.2-0.9,0-1.4
							c0.1-0.2,0.2-0.5,0.3-0.7c0.1-0.3,0.2-0.6,0.5-0.8c0.2-0.1,0.4-0.1,0.6-0.1c0.6,0,1.8-0.1,2,0.5
							C47.6,73.1,46.6,74.1,46.3,74.6z"/>
						<path class="st21" d="M47.7,77.7c0.1,0.1,0.2,0.1,0.3,0.3c0.1,0.3,0,0.6-0.1,0.8c-0.2,0.3-0.4,0.5-0.4,0.8
							c0,0.1,0,0.2-0.1,0.3c-0.1,0.2-0.4,0.3-0.7,0.2c-0.3,0-0.5-0.2-0.7-0.2c-0.4,0-0.7,0.3-1.1,0.4c-0.6,0.2-1.2,0.1-1.8-0.1
							c-0.4-0.1-0.8-0.2-1-0.5c-0.2-0.3-0.1-0.8,0.1-1.1c0.6-1,1.1-1.5,2.2-1.5C45.4,77.3,46.8,77.1,47.7,77.7z"/>
						<path class="st21" d="M50.6,65.7c0.3,0,0.5,0,0.8,0.2c0.4,0.2,0.6,0.6,0.5,1.1c0,0.4-0.2,0.8-0.5,1.1
							c-0.2,0.3-0.4,0.5-0.8,0.6c-0.2,0.1-0.5,0-0.7,0c-0.4-0.1-0.9-0.2-1.3-0.2c-0.3-0.1-0.7-0.1-0.9-0.4c-0.5-0.6-0.1-2,0.5-2.3
							C48.8,65.4,50,65.7,50.6,65.7z"/>
						<path class="st21" d="M49.2,62.1c-0.1,0.7,0.3,1.4,0.9,1.7c0.4,0.2,0.9,0.2,1.4,0.2c0.6,0,2,0.7,2.4,0.4
							c0.2-0.1,0.2-0.8,0.3-1c0.2-0.3,0.5-0.4,0.7-0.7c0.8-0.9,0.7-1.8-0.1-2.7c-0.7-0.8-1.9-1.3-2.9-0.8c-0.7,0.3-0.9,1.1-1.4,1.5
							C50,61.2,49.4,61.2,49.2,62.1z"/>
						<path class="st21" d="M52.1,46.2c0.5,0.1,1.1,0.2,1.2,0.7c0.1,0.3,0,0.6-0.2,0.9c-0.2,0.3-0.4,0.5-0.6,0.8
							c-0.1,0.2-0.2,0.3-0.3,0.5c-0.1,0.1-0.4,0.2-0.6,0.3c-0.5,0.1-1-0.1-1.4-0.3c-0.5-0.2-1.1-0.5-1.6-0.8
							c-0.1-0.1-0.3-0.2-0.3-0.3c0-0.1,0-0.3,0-0.4C49,45.7,50.6,46,52.1,46.2z"/>
						<path class="st21" d="M51.1,50.9c0.5,0.1,0.9,0.4,1.1,0.8c0.2,0.5,0,1.1-0.2,1.7c-0.1,0.3-0.2,0.6-0.4,1
							c-0.1,0.2-0.1,0.3-0.2,0.4C51.3,55,50.9,55,50.6,55c-0.6-0.1-1.2-0.2-1.8-0.4c-0.1,0-0.3-0.1-0.4-0.2C48.1,54.3,48,54,48,53.7
							c0-0.3,0.1-0.6,0.2-0.8c0.2-0.4,0.3-0.8,0.5-1.3c0.1-0.2,0.2-0.5,0.3-0.6C49.3,50.7,50.7,50.8,51.1,50.9z"/>
						<path class="st21" d="M53.7,37.9c0.1,0.1,0.3,0.3,0.2,0.5c0,0.1-0.1,0.2-0.2,0.3c-1.4,1-2.7,2-4.1,3.1
							c-0.2,0.2-0.5,0.4-0.8,0.4c-0.2,0-0.3,0-0.5-0.1c-0.6-0.2-1.2-0.4-1.8-0.6c-0.4-0.1-0.8-0.3-0.9-0.7c-0.2-0.4,0-0.8,0.2-1.1
							c0.2-0.3,0.6-0.5,0.9-0.7c0.6-0.4,1.3-0.8,1.9-1.2c0.3-0.2,0.6-0.3,0.9-0.5C50.8,36.7,52.7,36.9,53.7,37.9z"/>
					</g>
					<g>
						<path class="st21" d="M107.8,110.4c-0.3,0.5-0.6,1-0.5,1.6c0.1,0.6,0.7,1.1,1.4,1.2c0.6,0.1,1.3-0.2,1.8-0.5
							c0.6-0.3,1.1-0.7,1.6-1.1c0.6-0.4,1.3-0.6,1.9-1c0.6-0.4,1.2-0.8,1.4-1.5c0.2-0.7,0.1-1.5-0.5-1.9
							C112.5,105.7,109.2,108.5,107.8,110.4z"/>
						<path class="st21" d="M111,113.2c-0.2,0.5,0,1.1,0.3,1.6c0.8,1.6,1.5,3.2,2.7,4.6c0.4,0.5,0.9,0.9,1.6,0.9
							c0.5,0,1-0.3,1.4-0.6c0.4-0.3,0.9-0.6,1.3-0.9c0.2-0.1,0.4-0.3,0.5-0.5c0.2-0.3,0.2-0.6,0.2-0.9c-0.1-1.7-1.2-4.5-2.8-5.4
							C115.1,111.3,111.5,111.9,111,113.2z"/>
						<path class="st21" d="M118.2,120.9c-0.4,0.2-0.8,0.5-1,0.9c-0.1,0.2-0.1,0.5-0.2,0.8c-0.2,1.5-0.2,3-0.2,4.5
							c0,0.3,0,0.7,0.2,1c0.2,0.2,0.5,0.3,0.8,0.3c1.3,0.2,2.7,0.3,4.1,0.2c0.3,0,0.6,0,0.9-0.2c0.4-0.3,0.5-0.9,0.5-1.4
							c0-0.7-0.1-1.5-0.4-2.2c-0.4-0.9-1-1.7-1.6-2.5C120.4,121,119.7,120.2,118.2,120.9z"/>
						<path class="st21" d="M118.8,129.7c-0.3,0-0.5-0.1-0.8,0c-0.4,0.2-0.6,0.6-0.6,1s0.1,0.8,0.3,1.2c0.2,0.6,0.5,1.2,1,1.7
							c0.4,0.4,1,0.6,1.6,0.8c1.2,0.4,2.3,0.6,3.5,0.8c0.2,0,0.3,0,0.5,0c0.4-0.1,0.5-0.6,0.5-1c0-1.4-0.6-2.9-1.8-3.6
							C121.8,129.8,120.1,129.9,118.8,129.7z"/>
						<path class="st21" d="M119.4,140.1c0,0.1,0,0.2,0.1,0.3c0.1,0.1,0.2,0.1,0.4,0.2c0.6,0.1,1.1,0.2,1.7,0.1c0.1,0,0.3,0,0.4-0.1
							c0.2-0.1,0.3-0.5,0.3-0.7c0.1-0.5,0.1-1.2-0.4-1.4c-0.1-0.1-0.3-0.1-0.5-0.1C120,138.2,119.2,138.3,119.4,140.1z"/>
						<path class="st21" d="M116.8,145.9c0.5,0,1.1-0.3,1-0.8c0-0.2-0.2-0.4-0.1-0.7c0.1-0.3,0.4-0.4,0.5-0.6
							c0.1-0.3-0.2-0.7-0.5-0.8c-0.9-0.5-3.5-1.2-3.7,0.4C113.8,144.6,115.6,145.9,116.8,145.9z"/>
						<path class="st21" d="M113.1,137.4c0.1,0.1,0.2,0.2,0.3,0.3c0.4,0.3,0.8,0.7,1.2,1c0.2,0.2,0.5,0.4,0.8,0.5
							c0.7,0.4,1.6,0.3,2.3,0c0.7-0.4,1.2-1.1,1.2-1.9c0-0.4-0.1-0.8-0.4-1.1c-0.2-0.2-0.5-0.3-0.8-0.3c-0.9-0.1-2.4-0.5-3.3-0.2
							C113.9,135.9,112.8,136.8,113.1,137.4z"/>
						<path class="st21" d="M109.7,118.6c1.5,0.2,3,0.9,4.3,1.8c0.6,0.4,1.2,1,1.4,1.7c0.2,0.5,0.2,1,0.2,1.5c0,1.1-0.2,2.1-0.6,3.1
							c-0.2,0.4-0.3,0.9-0.7,1.2c-0.5,0.4-1.3,0.4-2,0.1c-0.6-0.3-1.1-0.8-1.5-1.4c-1-1.4-1.8-3-2.2-4.6c-0.2-0.8-0.4-1.7-0.4-2.5
							C108.2,118.6,108.8,118.5,109.7,118.6z"/>
						<path class="st21" d="M110.7,115.9c0.1,0.5,0.1,1.1-0.3,1.4c-0.2,0.3-0.6,0.4-1,0.4c-0.4,0-0.7-0.1-1.1-0.2
							c-1.3-0.4-2.8-2.1-1.3-3.2C108.5,113.4,110.3,114.4,110.7,115.9z"/>
						<path class="st21" d="M104.2,110.6c0,0.1,0,0.2,0.1,0.2c0,0.1,0.1,0.1,0.2,0.1c0.4,0.1,0.8,0.2,1.2,0.2c0.3,0,0.6,0,0.8-0.2
							c0.2-0.3,0.1-0.7-0.2-0.9C105.7,109.4,104.2,109.4,104.2,110.6z"/>
						<path class="st21" d="M101.2,109.5c0.3,0,0.5,0,0.8-0.1c0.3-0.1,0.4-0.5,0.4-0.8c-0.1-2.1-3.4-2-4.5-1.1
							c-0.5,0.4-0.8,1-0.3,1.4C98.3,109.7,100.2,109.4,101.2,109.5z"/>
						<path class="st21" d="M101.2,111.9c-0.8,0.8-0.8,2.2,0,2.9c0.6,0.6,1.6,0.8,2.5,0.8c0.2,0,0.4,0,0.6-0.1
							c0.2-0.1,0.3-0.2,0.4-0.3c0.6-0.5,0.9-1.2,1-2c0-0.3,0-0.6-0.2-0.9c-0.2-0.2-0.4-0.3-0.6-0.4c-0.4-0.2-0.8-0.3-1.1-0.5
							c-0.5-0.2-1.1-0.4-1.6-0.2"/>
						<path class="st21" d="M97.5,115.5c-0.4,0-0.8,0.1-1.1,0.4c-0.3,0.3-0.4,0.8-0.2,1.1c0.2,0.3,0.5,0.4,0.8,0.4
							c0.6,0.1,1.3,0.2,2,0.1c0.4,0,0.8-0.1,0.9-0.4C100.4,115.8,98.2,115.5,97.5,115.5z"/>
						<path class="st21" d="M101,122.3c0,0.3,0,0.7,0.3,0.9c0.2,0.1,0.4,0.2,0.6,0.2c0.6,0.1,1.3,0.2,1.9-0.1
							c0.2-0.1,0.4-0.3,0.5-0.4c0.8-0.8,1.6-1.8,1.8-2.9c0-0.1,0-0.3,0-0.4c-0.1-0.1-0.3-0.2-0.4-0.2c-1.1-0.3-3.1-0.8-4.2-0.4
							C100.6,119.3,101,121.6,101,122.3z"/>
						<path class="st21" d="M101.5,124.3c-0.2,0.3-0.3,0.7-0.5,1c-0.2,0.4-0.4,0.7-0.7,0.9c-0.2,0.1-0.5,0.2-0.8,0.2
							c-0.8,0.1-1.6,0-2-0.8c-0.2-0.5-0.2-1.2,0.3-1.5C98.4,123.7,101.9,123.6,101.5,124.3z"/>
						<path class="st21" d="M107.9,127.3c0.2,0,0.3,0.1,0.4,0.1c0.3,0.2,0.3,0.8,0.1,1.2c-0.4,1.1-1,2-1.8,2.8
							c-0.1,0.1-0.2,0.2-0.3,0.2c-0.2,0.1-0.4,0.1-0.5,0c-0.4,0-0.8-0.1-1.2-0.1c-0.3,0-0.7-0.1-1-0.2c-0.3-0.1-0.6-0.4-0.6-0.7
							c0-0.4,0.2-0.8,0-1.1c-0.1-0.2-0.3-0.2-0.5-0.4c-0.3-0.3-0.3-0.9-0.1-1.3C103.6,126.2,106.4,127,107.9,127.3z"/>
						<path class="st21" d="M115.2,130.3c0.6,0.3,0.9,0.9,1.1,1.5c0,0.1,0.1,0.2,0.1,0.3c0,0.1,0,0.1-0.1,0.2
							c-0.5,0.8-1.4,1.2-2.3,1.3c-0.9,0.1-1.8-0.2-2.7-0.5c-0.9-0.3-0.5-0.8-0.6-1.5c-0.1-0.6-0.2-0.9,0.3-1.3
							C111.9,129.7,114.2,129.8,115.2,130.3z"/>
						<path class="st21" d="M109,136.3c0.5,0.3,0.9,0.7,1,1.2c0,0.1,0,0.1,0,0.2c0,0.1-0.1,0.3-0.2,0.4c-0.2,0.2-0.4,0.4-0.6,0.5
							c-0.1,0-0.3,0-0.4,0c-0.4,0-0.8-0.1-1.2-0.1c-0.2,0-0.3,0-0.5-0.1c-0.3-0.1-0.4-0.5-0.4-0.8
							C106.3,135.7,107.7,135.6,109,136.3z"/>
					</g>
					<g>
						<path class="st21" d="M67.4,110.4c0.3,0.5,0.6,1,0.5,1.6c-0.1,0.6-0.7,1.1-1.4,1.2c-0.6,0.1-1.3-0.2-1.8-0.5
							c-0.6-0.3-1.1-0.7-1.6-1.1c-0.6-0.4-1.3-0.6-1.9-1c-0.6-0.4-1.2-0.8-1.4-1.5c-0.2-0.7-0.1-1.5,0.5-1.9
							C62.8,105.7,66.1,108.5,67.4,110.4z"/>
						<path class="st21" d="M64.3,113.2c0.2,0.5,0,1.1-0.3,1.6c-0.8,1.6-1.5,3.2-2.7,4.6c-0.4,0.5-0.9,0.9-1.6,0.9
							c-0.5,0-1-0.3-1.4-0.6c-0.4-0.3-0.9-0.6-1.3-0.9c-0.2-0.1-0.4-0.3-0.5-0.5c-0.2-0.3-0.2-0.6-0.2-0.9c0.1-1.7,1.2-4.5,2.8-5.4
							C60.1,111.3,63.8,111.9,64.3,113.2z"/>
						<path class="st21" d="M57.1,120.9c0.4,0.2,0.8,0.5,1,0.9c0.1,0.2,0.1,0.5,0.2,0.8c0.2,1.5,0.2,3,0.2,4.5c0,0.3,0,0.7-0.2,1
							c-0.2,0.2-0.5,0.3-0.8,0.3c-1.3,0.2-2.7,0.3-4.1,0.2c-0.3,0-0.6,0-0.9-0.2c-0.4-0.3-0.5-0.9-0.5-1.4c0-0.7,0.1-1.5,0.4-2.2
							c0.4-0.9,1-1.7,1.6-2.5C54.9,121,55.6,120.2,57.1,120.9z"/>
						<path class="st21" d="M56.5,129.7c0.3,0,0.5-0.1,0.8,0c0.4,0.2,0.6,0.6,0.6,1s-0.1,0.8-0.3,1.2c-0.2,0.6-0.5,1.2-1,1.7
							c-0.4,0.4-1,0.6-1.6,0.8c-1.2,0.4-2.3,0.6-3.5,0.8c-0.2,0-0.3,0-0.5,0c-0.4-0.1-0.5-0.6-0.5-1c0-1.4,0.6-2.9,1.8-3.6
							C53.4,129.8,55.2,129.9,56.5,129.7z"/>
						<path class="st21" d="M55.8,140.1c0,0.1,0,0.2-0.1,0.3c-0.1,0.1-0.2,0.1-0.4,0.2c-0.6,0.1-1.1,0.2-1.7,0.1
							c-0.1,0-0.3,0-0.4-0.1c-0.2-0.1-0.3-0.5-0.3-0.7c-0.1-0.5-0.1-1.2,0.4-1.4c0.1-0.1,0.3-0.1,0.5-0.1
							C55.2,138.2,56,138.3,55.8,140.1z"/>
						<path class="st21" d="M58.5,145.9c-0.5,0-1.1-0.3-1-0.8c0-0.2,0.2-0.4,0.1-0.7c-0.1-0.3-0.4-0.4-0.5-0.6
							c-0.1-0.3,0.2-0.7,0.5-0.8c0.9-0.5,3.5-1.2,3.7,0.4C61.4,144.6,59.6,145.9,58.5,145.9z"/>
						<path class="st21" d="M62.2,137.4c-0.1,0.1-0.2,0.2-0.3,0.3c-0.4,0.3-0.8,0.7-1.2,1c-0.2,0.2-0.5,0.4-0.8,0.5
							c-0.7,0.4-1.6,0.3-2.3,0c-0.7-0.4-1.2-1.1-1.2-1.9c0-0.4,0.1-0.8,0.4-1.1c0.2-0.2,0.5-0.3,0.8-0.3c0.9-0.1,2.4-0.5,3.3-0.2
							C61.4,135.9,62.5,136.8,62.2,137.4z"/>
						<path class="st21" d="M65.6,118.6c-1.5,0.2-3,0.9-4.3,1.8c-0.6,0.4-1.2,1-1.4,1.7c-0.2,0.5-0.2,1-0.2,1.5
							c0,1.1,0.2,2.1,0.6,3.1c0.2,0.4,0.3,0.9,0.7,1.2c0.5,0.4,1.3,0.4,2,0.1c0.6-0.3,1.1-0.8,1.5-1.4c1-1.4,1.8-3,2.2-4.6
							c0.2-0.8,0.4-1.7,0.4-2.5C67.1,118.6,66.4,118.5,65.6,118.6z"/>
						<path class="st21" d="M64.6,115.9c-0.1,0.5-0.1,1.1,0.3,1.4c0.2,0.3,0.6,0.4,1,0.4c0.4,0,0.7-0.1,1.1-0.2
							c1.3-0.4,2.8-2.1,1.3-3.2C66.8,113.4,64.9,114.4,64.6,115.9z"/>
						<path class="st21" d="M71,110.6c0,0.1,0,0.2-0.1,0.2c0,0.1-0.1,0.1-0.2,0.1c-0.4,0.1-0.8,0.2-1.2,0.2c-0.3,0-0.6,0-0.8-0.2
							c-0.2-0.3-0.1-0.7,0.2-0.9C69.6,109.4,71.1,109.4,71,110.6z"/>
						<path class="st21" d="M74.1,109.5c-0.3,0-0.5,0-0.8-0.1c-0.3-0.1-0.4-0.5-0.4-0.8c0.1-2.1,3.4-2,4.5-1.1
							c0.5,0.4,0.8,1,0.3,1.4C76.9,109.7,75,109.4,74.1,109.5z"/>
						<path class="st21" d="M74.1,111.9c0.8,0.8,0.8,2.2,0,2.9c-0.6,0.6-1.6,0.8-2.5,0.8c-0.2,0-0.4,0-0.6-0.1
							c-0.2-0.1-0.3-0.2-0.4-0.3c-0.6-0.5-0.9-1.2-1-2c0-0.3,0-0.6,0.2-0.9c0.2-0.2,0.4-0.3,0.6-0.4c0.4-0.2,0.8-0.3,1.1-0.5
							c0.5-0.2,1.1-0.4,1.6-0.2"/>
						<path class="st21" d="M77.7,115.5c0.4,0,0.8,0.1,1.1,0.4c0.3,0.3,0.4,0.8,0.2,1.1c-0.2,0.3-0.5,0.4-0.8,0.4
							c-0.6,0.1-1.3,0.2-2,0.1c-0.4,0-0.8-0.1-0.9-0.4C74.8,115.8,77,115.5,77.7,115.5z"/>
						<path class="st21" d="M74.3,122.3c0,0.3,0,0.7-0.3,0.9c-0.2,0.1-0.4,0.2-0.6,0.2c-0.6,0.1-1.3,0.2-1.9-0.1
							c-0.2-0.1-0.4-0.3-0.5-0.4c-0.8-0.8-1.6-1.8-1.8-2.9c0-0.1,0-0.3,0-0.4c0.1-0.1,0.3-0.2,0.4-0.2c1.1-0.3,3.1-0.8,4.2-0.4
							C74.6,119.3,74.3,121.6,74.3,122.3z"/>
						<path class="st21" d="M73.7,124.3c0.2,0.3,0.3,0.7,0.5,1c0.2,0.4,0.4,0.7,0.7,0.9c0.2,0.1,0.5,0.2,0.8,0.2
							c0.8,0.1,1.6,0,2-0.8c0.2-0.5,0.2-1.2-0.3-1.5C76.8,123.7,73.4,123.6,73.7,124.3z"/>
						<path class="st21" d="M67.3,127.3c-0.2,0-0.3,0.1-0.4,0.1c-0.3,0.2-0.3,0.8-0.1,1.2c0.4,1.1,1,2,1.8,2.8
							c0.1,0.1,0.2,0.2,0.3,0.2c0.2,0.1,0.4,0.1,0.5,0c0.4,0,0.8-0.1,1.2-0.1c0.3,0,0.7-0.1,1-0.2c0.3-0.1,0.6-0.4,0.6-0.7
							c0-0.4-0.2-0.8,0-1.1c0.1-0.2,0.3-0.2,0.5-0.4c0.3-0.3,0.3-0.9,0.1-1.3C71.7,126.2,68.9,127,67.3,127.3z"/>
						<path class="st21" d="M60.1,130.3c-0.6,0.3-0.9,0.9-1.1,1.5c0,0.1-0.1,0.2-0.1,0.3c0,0.1,0,0.1,0.1,0.2
							c0.5,0.8,1.4,1.2,2.3,1.3c0.9,0.1,1.8-0.2,2.7-0.5c0.9-0.3,0.5-0.8,0.6-1.5c0.1-0.6,0.2-0.9-0.3-1.3
							C63.3,129.7,61,129.8,60.1,130.3z"/>
						<path class="st21" d="M66.2,136.3c-0.5,0.3-0.9,0.7-1,1.2c0,0.1,0,0.1,0,0.2c0,0.1,0.1,0.3,0.2,0.4c0.2,0.2,0.4,0.4,0.6,0.5
							c0.1,0,0.3,0,0.4,0c0.4,0,0.8-0.1,1.2-0.1c0.2,0,0.3,0,0.5-0.1c0.3-0.1,0.4-0.5,0.4-0.8C69,135.7,67.6,135.6,66.2,136.3z"/>
					</g>
					<g>
						<path class="st21" d="M100.2,145.2c-0.2,0.1-0.3,0.2-0.4,0.3c-0.4,0.4-0.7,0.8-1.1,1.2c-0.1,0.1-0.3,0.3-0.3,0.5
							c0,0.1,0,0.2,0.1,0.4c0.4,0.8,0.8,1.6,1.5,2.1c0.2,0.2,0.5,0.3,0.8,0.2c0.3-0.1,0.4-0.5,0.4-0.8c0.1-1.1,0.7-2,0.9-3
							C102.3,145,100.8,144.9,100.2,145.2z"/>
						<path class="st21" d="M90.9,144.4c0.1,0.3,0.2,0.5,0.4,0.7c0.4,0.4,0.9,0.4,1.5,0.4c0.2,0,0.5,0,0.7-0.1
							c0.3-0.2,0.5-0.5,0.5-0.9c0-0.4-0.3-0.7-0.7-0.9C92.4,143.1,90.3,142.7,90.9,144.4z"/>
						<path class="st21" d="M95.5,148c0.1,0,0.3,0,0.3-0.1c0.1-0.1,0.1-0.2,0.1-0.3c-0.1-0.7-1.5-0.8-2-0.4
							C93.1,148,95,148,95.5,148z"/>
						<path class="st21" d="M96,151.9c0.2,0,0.5,0.1,0.7,0c0.2-0.1,0.4-0.3,0.6-0.6c0.1-0.1,0.1-0.2,0.1-0.3c0-0.1-0.1-0.2-0.1-0.2
							c-0.6-0.6-2.9-0.8-3.6-0.3c-0.5,0.3-0.5,0.8,0,1.1C94.1,151.8,95.4,151.9,96,151.9z"/>
						<path class="st21" d="M90.5,147.8c0.6,0.4,1,0.9,1.4,1.4c0.3,0.3,0.5,0.7,0.8,1c0.1,0.1,0.1,0.2,0.1,0.2c0,0.1,0,0.2,0,0.3
							c-0.1,0.3-0.2,0.6-0.5,0.8c-0.2,0.1-0.5,0.1-0.8,0c-0.6-0.2-1.2-0.4-1.9-0.4c-0.2,0-0.4,0-0.6-0.1c-0.3-0.2-0.4-0.6-0.4-0.9
							c0-0.5-0.5-2.2-0.1-2.6C88.8,147,90.1,147.5,90.5,147.8z"/>
						<path class="st21" d="M90.2,153.2c0.3,0.2,0.6,0.6,1,0.8c0.4,0.3,1,0.4,1.5,0.6c0.5,0.2,1,0.6,1,1.1c0,0.1,0,0.2,0,0.2
							c0,0.1-0.1,0.1-0.2,0.1c-1,0.5-2.1,0.9-3.2,0.7c-0.2,0-0.3-0.1-0.5-0.2c-0.1-0.1-0.1-0.1-0.1-0.2
							C89.2,155.6,88.2,151.8,90.2,153.2z"/>
						<path class="st21" d="M94.4,154.8c-0.3-0.3-0.6-0.5-0.7-0.9c-0.1-0.2-0.1-0.4-0.1-0.6c0-0.1,0-0.3,0.1-0.4
							c0.1-0.2,0.4-0.2,0.6-0.2c0.2,0,0.4,0.1,0.6,0.1c0.7,0.1,1.4-0.2,2.2-0.2c0.9,0,1.7,0.6,2.5,0.6c-0.5,1.3-1.1,2.5-1.7,3.8
							c0,0.1-0.1,0.2-0.2,0.2c-0.1,0.1-0.2,0.1-0.3,0.1c-0.4,0-0.8-0.2-1.2-0.3c-0.3-0.1-0.9-0.2-1.1-0.4
							C94.7,156.2,94.8,155.3,94.4,154.8z"/>
					</g>
					<g>
						<path class="st21" d="M75.2,145.2c0.2,0.1,0.3,0.2,0.4,0.3c0.4,0.4,0.7,0.8,1.1,1.2c0.1,0.1,0.3,0.3,0.3,0.5
							c0,0.1,0,0.2-0.1,0.4c-0.4,0.8-0.8,1.6-1.5,2.1c-0.2,0.2-0.5,0.3-0.8,0.2c-0.3-0.1-0.4-0.5-0.4-0.8c-0.1-1.1-0.7-2-0.9-3
							C73,145,74.5,144.9,75.2,145.2z"/>
						<path class="st21" d="M84.5,144.4c-0.1,0.3-0.2,0.5-0.4,0.7c-0.4,0.4-0.9,0.4-1.5,0.4c-0.2,0-0.5,0-0.7-0.1
							c-0.3-0.2-0.5-0.5-0.5-0.9c0-0.4,0.3-0.7,0.7-0.9C83,143.1,85.1,142.7,84.5,144.4z"/>
						<path class="st21" d="M79.9,148c-0.1,0-0.3,0-0.3-0.1c-0.1-0.1-0.1-0.2-0.1-0.3c0.1-0.7,1.5-0.8,2-0.4
							C82.3,148,80.3,148,79.9,148z"/>
						<path class="st21" d="M79.4,151.9c-0.2,0-0.5,0.1-0.7,0c-0.2-0.1-0.4-0.3-0.6-0.6c-0.1-0.1-0.1-0.2-0.1-0.3
							c0-0.1,0.1-0.2,0.1-0.2c0.6-0.6,2.9-0.8,3.6-0.3c0.5,0.3,0.5,0.8,0,1.1C81.2,151.8,80,151.9,79.4,151.9z"/>
						<path class="st21" d="M84.9,147.8c-0.6,0.4-1,0.9-1.4,1.4c-0.3,0.3-0.5,0.7-0.8,1c-0.1,0.1-0.1,0.2-0.1,0.2c0,0.1,0,0.2,0,0.3
							c0.1,0.3,0.2,0.6,0.5,0.8c0.2,0.1,0.5,0.1,0.8,0c0.6-0.2,1.2-0.4,1.9-0.4c0.2,0,0.4,0,0.6-0.1c0.3-0.2,0.4-0.6,0.4-0.9
							c0-0.5,0.5-2.2,0.1-2.6C86.5,147,85.3,147.5,84.9,147.8z"/>
						<path class="st21" d="M85.2,153.2c-0.3,0.2-0.6,0.6-1,0.8c-0.4,0.3-1,0.4-1.5,0.6c-0.5,0.2-1,0.6-1,1.1c0,0.1,0,0.2,0,0.2
							c0,0.1,0.1,0.1,0.2,0.1c1,0.5,2.1,0.9,3.2,0.7c0.2,0,0.3-0.1,0.5-0.2c0.1-0.1,0.1-0.1,0.1-0.2
							C86.2,155.6,87.1,151.8,85.2,153.2z"/>
						<path class="st21" d="M81,154.8c0.3-0.3,0.6-0.5,0.7-0.9c0.1-0.2,0.1-0.4,0.1-0.6c0-0.1,0-0.3-0.1-0.4
							c-0.1-0.2-0.4-0.2-0.6-0.2c-0.2,0-0.4,0.1-0.6,0.1c-0.7,0.1-1.4-0.2-2.2-0.2c-0.9,0-1.7,0.6-2.5,0.6c0.5,1.3,1.1,2.5,1.7,3.8
							c0,0.1,0.1,0.2,0.2,0.2c0.1,0.1,0.2,0.1,0.3,0.1c0.4,0,0.8-0.2,1.2-0.3c0.3-0.1,0.9-0.2,1.1-0.4
							C80.7,156.2,80.6,155.3,81,154.8z"/>
					</g>
				</g>
			</g>
			<path class="st24" d="M114.1,108.6c3.6,8.3,12.3,29.3,10.1,38.3c0.6,4.3-3.4,6.9-8.8,8.2C127.4,146.9,117.9,118.5,114.1,108.6z"
				/>
			<path class="st24" d="M89.3,156c0.3-1.9-0.5-3.9-0.6-5.8c0-0.5,0-1.1,0-1.6c-0.1-0.7-0.2-1.5-0.4-2.2c-0.2-0.9-0.3-1.9-0.4-2.8
				c-0.4,0.4-0.5,1.1-0.5,1.7c-0.3,2.5-0.6,5-1,7.4c-0.1,0.6-0.9,2.9-0.5,3.3C86.2,156.2,89.3,156,89.3,156z"/>
			<path class="st26" d="M77,156.8c0,0,2.8-2.4,8.5-0.8c0,0-0.5,4-3.1,4.9S77,156.8,77,156.8z"/>
			<path class="st26" d="M98.2,156.8c0,0-2.8-2.4-8.4-0.8c0,0,0.5,4,3.1,4.9C95.6,161.8,98.2,156.8,98.2,156.8z"/>
			<g>
				<path class="st26" d="M113,105.1c2.8,5.6,5.3,11.3,7.4,17.1c2.1,5.9,3.9,11.9,4.6,18.1c0.3,3.1,0.4,6.3-0.5,9.5
					c-0.5,1.6-1.8,2.9-3.2,3.7c-1.4,0.8-2.9,1.4-4.4,1.8c-3.1,0.8-6.2,1.1-9.3,1.3c-3.1,0.2-6.2,0.1-9.3,0c-0.1,0-0.2-0.1-0.2-0.2
					c0-0.1,0.1-0.2,0.2-0.2c3.1,0,6.2,0,9.3-0.3c3.1-0.2,6.2-0.6,9.1-1.5c1.5-0.4,2.9-1,4.2-1.8c1.3-0.8,2.3-1.9,2.7-3.2
					c0.7-2.9,0.7-6,0.4-9c-0.6-6.1-2.3-12.1-4.4-17.9c-2.1-5.8-4.4-11.6-7.1-17.2l0,0c-0.1-0.2,0-0.4,0.2-0.4
					C112.7,104.9,112.9,104.9,113,105.1z"/>
			</g>
			<g>
				<path class="st26" d="M62.3,105.6c-1.3,2.8-2.6,5.6-3.8,8.5c-1.2,2.9-2.3,5.8-3.3,8.7c-1,2.9-1.9,5.9-2.7,8.9
					c-0.7,3-1.3,6-1.6,9.1c-0.2,1.5-0.2,3.1-0.2,4.6c0,1.5,0.3,3.1,0.6,4.4c0.5,1.3,1.6,2.4,2.8,3.2c1.3,0.8,2.7,1.3,4.2,1.7
					c2.9,0.8,6,1.2,9.1,1.4c3.1,0.2,6.2,0.2,9.3,0.2c0.1,0,0.2,0.1,0.2,0.2c0,0.1-0.1,0.2-0.2,0.2c-3.1,0.1-6.2,0.2-9.3,0
					c-3.1-0.1-6.2-0.4-9.3-1.2c-1.5-0.4-3-0.9-4.4-1.7c-1.4-0.8-2.7-2-3.3-3.6c-0.5-1.6-0.7-3.2-0.7-4.8c-0.1-1.6,0-3.2,0.1-4.7
					c0.3-3.1,1-6.2,1.7-9.2c0.8-3,1.7-6,2.8-8.9c2.1-5.9,4.6-11.6,7.4-17.2c0.1-0.1,0.3-0.2,0.4-0.1
					C62.3,105.2,62.4,105.4,62.3,105.6L62.3,105.6z"/>
			</g>
			<g>
				<path class="st26" d="M87.7,127.4c0.2,5,0.2,10,0,15c-0.1,2.5-0.3,5-0.6,7.5c-0.3,2.5-0.7,5-1.4,7.4c-0.2,0.6-0.4,1.2-0.8,1.8
					c-0.3,0.6-0.7,1.2-1.2,1.6l-0.5,0.3c-0.2,0.1-0.4,0.2-0.6,0.2c-0.2,0.1-0.4,0.1-0.6,0.1c-0.2,0-0.4,0-0.6,0
					c-0.8-0.1-1.4-0.4-1.9-0.9c-1.1-0.9-1.8-1.9-2.5-3c-0.7-1.1-1.2-2.2-1.7-3.4c-2-4.6-3.4-9.4-4.6-14.3c0-0.1,0-0.2,0.1-0.2
					c0.1,0,0.2,0,0.2,0.1l0,0c1.3,4.8,2.8,9.5,5,14c0.5,1.1,1.1,2.2,1.8,3.2c0.7,1,1.4,2,2.3,2.7c0.9,0.7,2,0.9,2.7,0.2
					c0.8-0.7,1.3-1.9,1.7-3c0.8-2.3,1.2-4.7,1.6-7.2c0.3-2.5,0.6-4.9,0.7-7.4c0.2-2.5,0.3-5,0.3-7.4c0.1-2.5,0.1-5,0.1-7.5
					c0-0.1,0.1-0.1,0.1-0.1C87.6,127.3,87.7,127.4,87.7,127.4z"/>
			</g>
			<g>
				<path class="st26" d="M87.8,127.4c0,2.5,0.1,5,0.1,7.5c0.1,2.5,0.2,5,0.3,7.4c0.2,2.5,0.4,4.9,0.7,7.4c0.4,2.4,0.8,4.9,1.6,7.2
					c0.4,1.1,0.9,2.3,1.7,3c0.7,0.7,1.9,0.5,2.7-0.2c0.9-0.7,1.6-1.7,2.3-2.7c0.7-1,1.2-2.1,1.8-3.2c2.1-4.5,3.7-9.2,5-14l0,0
					c0-0.1,0.1-0.2,0.2-0.1c0.1,0,0.2,0.1,0.1,0.2c-1.2,4.9-2.6,9.7-4.6,14.3c-0.5,1.2-1.1,2.3-1.7,3.4c-0.7,1.1-1.4,2.2-2.5,3
					c-0.5,0.4-1.2,0.8-1.9,0.9c-0.2,0-0.4,0-0.6,0c-0.2,0-0.4,0-0.6-0.1c-0.2-0.1-0.4-0.1-0.6-0.2l-0.5-0.3
					c-0.6-0.5-0.9-1.1-1.2-1.6c-0.3-0.6-0.5-1.2-0.8-1.8c-0.8-2.4-1.1-4.9-1.4-7.4c-0.3-2.5-0.5-5-0.6-7.5c-0.2-5-0.2-10,0-15
					c0-0.1,0.1-0.1,0.1-0.1C87.7,127.3,87.8,127.4,87.8,127.4z"/>
			</g>
			<path class="st24" d="M104.3,139.8c0,0,2.8,15.3,11.5,15.5c0,0-7.2,1.5-17.5,1l3.4-8.1L104.3,139.8z"/>
			<path class="st24" d="M71.1,139.8c0,0-3,16.1-11.5,15.5l7.7,1.1h9.6C75.1,154.8,71.1,139.8,71.1,139.8z"/>
		</g>
		<path class="st24" d="M60.5,108.6c-3.6,8.3-12.3,29.3-10.1,38.3c-0.6,4.3,3.4,6.9,8.8,8.2C47.2,146.9,56.7,118.5,60.5,108.6z"/>
		<path class="st24" d="M113.8,104.9c43.7-32,13.8-65.8,13.8-65.8s0.9,0.1,2.5,0.2c2,1.6,3.2,4.4,5.1,6.4c0,0,1.9,1.6,3.9,6
			c2.3,5.3,4.2,13.2,3.6,20.9c-0.3,4.4-4.2,14.8-7.7,18c-1.1,1-5,4.9-8.2,7.5c-1.2,1-4.9,3.1-7.4,4.4
			C117.9,103.3,116.1,104.1,113.8,104.9z"/>
		<g>
			<path class="st26" d="M61.9,105.7c-4.5-1.7-8.7-3.9-12.6-6.5c-3.9-2.7-7.6-5.8-10.6-9.5c-3-3.7-5.2-8.2-6.1-12.9
				c-0.2-1.2-0.4-2.4-0.4-3.6c-0.1-1.2,0-2.4,0-3.6c0.1-2.4,0.2-4.8,0.6-7.1c0.8-4.7,2.3-9.3,4.6-13.5C39.8,44.6,43,41,46.7,38
				c3.7-3,7.9-5.3,12.3-7.1c4.4-1.8,9-3,13.7-3.9c0.2,0,0.3,0.1,0.3,0.2c0,0.2-0.1,0.3-0.2,0.3c-4.6,0.9-9.2,2.2-13.5,4.1
				c-4.3,1.8-8.4,4.2-12,7.2c-3.6,3-6.6,6.6-8.9,10.7c-2.2,4.1-3.6,8.6-4.3,13.2c-0.4,2.3-0.5,4.6-0.6,7c0,1.2,0,2.3,0,3.5
				c0,1.2,0.2,2.3,0.4,3.4c0.8,4.6,2.8,8.9,5.7,12.5c2.8,3.7,6.4,6.8,10.2,9.5c3.9,2.7,8,4.9,12.4,6.7l0,0c0.1,0.1,0.2,0.2,0.2,0.4
				C62.2,105.7,62.1,105.7,61.9,105.7z"/>
		</g>
		<g>
			<path class="st26" d="M112.6,105.3c4.4-1.7,8.5-4,12.4-6.6c3.9-2.7,7.4-5.8,10.3-9.5c2.9-3.7,5-7.9,5.8-12.5
				c0.2-1.1,0.3-2.3,0.4-3.4c0.1-1.1,0-2.3,0-3.5c-0.1-2.3-0.2-4.7-0.6-7c-0.7-4.6-2.1-9.1-4.3-13.2c-2.2-4.1-5.2-7.7-8.8-10.7
				c-3.6-3-7.7-5.4-12-7.2c-4.3-1.8-8.9-3.2-13.5-4.1c-0.2,0-0.2-0.2-0.2-0.3c0-0.1,0.2-0.2,0.3-0.2c4.7,0.9,9.3,2.2,13.7,4
				c4.4,1.8,8.6,4.1,12.3,7.2c3.7,3,6.9,6.7,9.2,10.9c2.3,4.2,3.8,8.8,4.6,13.6c0.4,2.4,0.5,4.8,0.6,7.1c0,1.2,0,2.4-0.1,3.6
				c-0.1,1.2-0.2,2.4-0.5,3.6c-0.9,4.8-3.2,9.2-6.2,12.9c-3,3.7-6.7,6.8-10.6,9.5c-4,2.6-8.2,4.8-12.7,6.5c-0.1,0.1-0.3,0-0.4-0.2
				C112.4,105.5,112.5,105.4,112.6,105.3L112.6,105.3z"/>
		</g>
		<g>
			<path class="st26" d="M69.6,29.2c2.2-1.8,4.5-3.5,6.9-5.1c2.4-1.6,4.7-3.2,7.3-4.5c0.7-0.3,1.4-0.6,2.2-0.7
				c0.8-0.1,1.7,0.1,2.4,0.5c0.7,0.4,1.4,1.1,1.7,1.8c0.3,0.8,0.4,1.6,0.3,2.3c-0.2,1.6-1,2.9-1.8,4c-0.8,1.2-1.8,2.3-2.9,3.2
				c-0.1,0.1-0.3,0.1-0.4,0c-0.1-0.1-0.1-0.3,0-0.4c1-0.9,1.9-2,2.6-3.2c0.7-1.2,1.4-2.4,1.5-3.7c0.1-1.3-0.4-2.6-1.5-3
				c-0.5-0.3-1.2-0.3-1.7-0.3c-0.6,0.1-1.2,0.4-1.8,0.6c-2.5,1.1-5,2.6-7.4,4.1c-2.4,1.5-4.8,3.1-7,4.7c-0.1,0.1-0.3,0.1-0.4-0.1
				C69.4,29.4,69.5,29.3,69.6,29.2z"/>
		</g>
		<g>
			<path class="st26" d="M89.3,25c2.1-1.5,4.4-2.8,6.7-4c1.1-0.6,2.3-1.3,3.7-1.6c0.7-0.2,1.4-0.3,2.1-0.2c0.7,0.1,1.5,0.3,2.1,0.8
				c0.6,0.4,1.1,1.1,1.4,1.9c0.2,0.8,0.1,1.6-0.1,2.3c-0.5,1.3-1.1,2.5-2,3.5c-1.6,2.1-3.8,3.8-6.3,4.7c-0.1,0.1-0.3,0-0.4-0.2
				c-0.1-0.1,0-0.3,0.2-0.4c2.3-1,4.3-2.7,5.8-4.7c0.7-1,1.3-2.2,1.6-3.3c0.2-0.6,0.2-1.1,0-1.5c-0.2-0.5-0.5-0.9-1-1.2
				c-0.9-0.7-2-0.8-3.2-0.6c-1.2,0.2-2.3,0.8-3.5,1.3c-2.3,1.1-4.6,2.3-6.8,3.7c-0.1,0.1-0.3,0-0.4-0.1C89.1,25.2,89.2,25.1,89.3,25
				z"/>
		</g>
		<path class="st24" d="M61.3,104.9C17.6,73,47.6,39.2,47.6,39.2s-0.9,0.1-2.5,0.2c-2,1.6-3.2,4.4-5.1,6.4c0,0-1.9,1.6-3.9,6
			c-2.3,5.3-4.2,13.2-3.6,20.9c0.3,4.4,4.2,14.8,7.7,18c1.1,1,5,4.9,8.2,7.5c1.2,1,4.9,3.1,7.4,4.4C57.2,103.3,59,104.1,61.3,104.9z
			"/>
		<path class="st30" d="M60.5,51.6c-6.5,0-10.4,5.1-10.4,11.5c0,1.1,0.2,2.2,0.5,3.3c0.3,0.1,0.7,0.3,1,0.4c0.3,0.2,0.6,0.3,0.8,0.6
			c1.5,0.8,4.2,1.7,7.8,1.9c5.1,0.2,10.5,0.2,11.4,0.2c0,0,0,0,0,0c0,0,0,0,0,0c1.2-1.8,1.9-4,1.9-6.3C73.6,56.6,67,51.6,60.5,51.6z
			"/>
		<path class="st84" d="M71.7,69.4c0.8-1.2,1.2-2.7,1.2-4.2c0-4.5-3.6-8.1-8.1-8.1s-8.1,3.6-8.1,8.1c0,1.5,0.4,3,1.2,4.2
			C62.4,69.8,67,69.1,71.7,69.4z"/>
		<g>
			<path class="st26" d="M69.6,69.5c1-1,1.6-2.4,1.6-4c0-3.2-2.6-5.8-5.8-5.8c-3.2,0-5.8,2.6-5.8,5.8c0,1.6,0.6,3,1.7,4.1
				C63.9,69.6,66.8,69.7,69.6,69.5z"/>
			<path class="st148" d="M50.5,66.2c0,0,3.7,4.7,21,3.3"/>
			<circle class="st30" cx="65.6" cy="59" r="3.1"/>
			<path class="st149" d="M50.1,63.1c0-6.5,3.9-11.5,10.4-11.5s13.1,5.1,13.1,11.5s-5.2,11.7-11.7,11.7S50.1,69.6,50.1,63.1z"/>
			<path class="st150" d="M54.7,49.9c13.5,4.7,16.5,5.6,16.5,5.6"/>
		</g>
		<path class="st30" d="M120.1,67.1c0.4-0.4,0.9-0.6,1.4-0.9c0.3-1,0.4-2.1,0.4-3.2c0-6.5-3.9-11.5-10.4-11.5
			c-6.5,0-13.1,5.1-13.1,11.5c0,2.3,0.7,4.5,1.9,6.3c0,0,0,0,0,0c0,0,0,0,0,0c0.9,0,6.3,0,11.4-0.2
			C115.8,69.1,118.6,67.9,120.1,67.1z"/>
		<path class="st84" d="M100.4,69.4c-0.8-1.2-1.2-2.7-1.2-4.2c0-4.5,3.6-8.1,8.1-8.1s8.1,3.6,8.1,8.1c0,1.5-0.4,3-1.2,4.2
			C109.6,69.8,105,69.1,100.4,69.4z"/>
		<g>
			<path class="st26" d="M102.5,69.5c-1-1-1.6-2.4-1.6-4c0-3.2,2.6-5.8,5.8-5.8c3.2,0,5.8,2.6,5.8,5.8c0,1.6-0.6,3-1.7,4.1
				C108.1,69.6,105.3,69.7,102.5,69.5z"/>
			<path class="st148" d="M121.5,66.2c0,0-3.7,4.7-21,3.3"/>
			<circle class="st30" cx="106.4" cy="59" r="3.1"/>
			<path class="st149" d="M121.9,63.1c0-6.5-3.9-11.5-10.4-11.5s-13.1,5.1-13.1,11.5s5.2,11.7,11.7,11.7
				C116.7,74.8,121.9,69.6,121.9,63.1z"/>
			<path class="st150" d="M117.3,49.9c-13.5,4.7-16.5,5.6-16.5,5.6"/>
		</g>
		<g>
			<g>
				<path class="st26" d="M86.7,78.6c-0.2,1.7-0.5,3.4-1.1,5c-0.6,1.6-1.3,3.2-2.5,4.4c-0.1,0.1-0.2,0.1-0.3,0
					c-0.1-0.1-0.1-0.2,0-0.3l0,0c1.1-1.2,1.8-2.7,2.3-4.3c0.5-1.6,0.8-3.2,1-4.9l0,0c0-0.2,0.2-0.3,0.3-0.3
					C86.6,78.3,86.7,78.4,86.7,78.6C86.7,78.6,86.7,78.6,86.7,78.6z"/>
			</g>
			<g>
				<path class="st26" d="M87,78.4c0.1,1.7,0.4,3.3,0.9,4.9c0.5,1.6,1.3,3.1,2.5,4.3l0,0c0.1,0.1,0.1,0.2,0,0.3
					c-0.1,0.1-0.2,0.1-0.3,0c-1.3-1.2-2.1-2.8-2.7-4.4c-0.6-1.6-1-3.3-1.2-5.1c0-0.2,0.1-0.4,0.3-0.4C86.8,78,87,78.1,87,78.4
					C87,78.4,87,78.4,87,78.4L87,78.4z"/>
			</g>
			<g>
				<path class="st26" d="M94.9,82.4c4-1.4,8.2-1.9,12.4-2c4.2,0,8.4,0.5,12.4,1.6c1,0.3,2,0.6,3,0.9c0.5,0.2,1,0.3,1.5,0.5l1.5,0.6
					c1,0.4,1.9,0.8,2.9,1.2l2.8,1.4c0.5,0.2,0.9,0.5,1.4,0.7l1.3,0.8l2.7,1.7c1.7,1.2,3.4,2.5,5,3.7c-1.7-1.2-3.3-2.5-5.1-3.7
					l-2.7-1.6l-1.3-0.8c-0.5-0.2-0.9-0.5-1.4-0.7l-2.8-1.4c-0.9-0.4-1.9-0.8-2.9-1.2l-1.5-0.6c-0.5-0.2-1-0.3-1.5-0.5
					c-1-0.3-2-0.6-3-0.9c-4-1-8.2-1.5-12.3-1.4c-4.1,0.1-8.3,0.7-12.2,2.1l0,0c-0.2,0.1-0.4,0-0.4-0.2
					C94.6,82.6,94.7,82.4,94.9,82.4C94.9,82.4,94.9,82.4,94.9,82.4z"/>
			</g>
			<g>
				<path class="st26" d="M96.8,83.8c1.8-0.2,3.5-0.1,5.2,0.3c1.7,0.4,3.3,1,4.8,1.9c1.5,0.9,2.9,1.9,4,3.2c0.6,0.6,1.1,1.3,1.7,1.9
					c0.5,0.7,1,1.4,1.5,2.1c-0.5-0.7-1-1.4-1.6-2c-0.6-0.6-1.1-1.3-1.8-1.8c-1.2-1.2-2.6-2.2-4.1-3c-1.5-0.8-3.1-1.4-4.7-1.7
					c-1.6-0.3-3.4-0.4-5-0.1l0,0c-0.2,0-0.3-0.1-0.4-0.3S96.6,83.9,96.8,83.8C96.8,83.8,96.8,83.8,96.8,83.8z"/>
			</g>
			<g>
				<path class="st26" d="M96.1,79.2c3.8-0.9,7.6-1.4,11.5-1.8c3.9-0.3,7.7-0.3,11.6,0c3.9,0.3,7.7,1.1,11.4,2.2
					c3.7,1.2,7.2,2.9,10.4,5.1c-3.3-2.1-6.7-3.8-10.4-4.9c-3.7-1.1-7.5-1.8-11.3-2.1c-3.8-0.3-7.7-0.2-11.5,0.1
					c-3.8,0.4-7.7,0.9-11.4,1.9l0,0c-0.2,0-0.3-0.1-0.4-0.2C95.8,79.4,95.9,79.2,96.1,79.2C96.1,79.2,96.1,79.2,96.1,79.2z"/>
			</g>
			<g>
				<path class="st26" d="M73.2,79.9c-2.9-0.7-5.9-1-9-1c-3-0.1-6.1,0.1-9,0.5c-6,0.9-11.9,2.7-17.3,5.4c5.4-2.9,11.2-4.8,17.2-5.8
					c3-0.5,6.1-0.7,9.1-0.7c3.1,0,6.1,0.2,9.1,0.9c0.2,0,0.3,0.2,0.2,0.4C73.6,79.9,73.4,80,73.2,79.9
					C73.2,79.9,73.2,79.9,73.2,79.9L73.2,79.9z"/>
			</g>
			<g>
				<path class="st26" d="M76.9,82.3c-2.3-0.4-4.8-0.4-7.2-0.1c-2.4,0.3-4.7,0.9-7,1.8c-0.6,0.2-1.1,0.5-1.6,0.8
					c-0.5,0.3-1.1,0.5-1.6,0.9c-1,0.7-2,1.3-2.9,2.1c-1,0.7-1.8,1.7-2.6,2.5c-0.4,0.4-0.8,0.9-1.1,1.4l-1.1,1.5l1.1-1.5
					c0.4-0.5,0.7-1,1.1-1.4c0.8-0.9,1.6-1.8,2.5-2.6c0.9-0.9,1.9-1.5,2.9-2.2c0.5-0.3,1.1-0.6,1.6-0.9c0.5-0.3,1.1-0.6,1.6-0.8
					c2.2-1,4.6-1.7,7-2c2.4-0.3,4.9-0.4,7.3,0c0.2,0,0.3,0.2,0.3,0.4C77.3,82.2,77.1,82.3,76.9,82.3C76.9,82.3,76.9,82.3,76.9,82.3
					L76.9,82.3z"/>
			</g>
			<g>
				<path class="st26" d="M75.5,84.4c-1.6-0.1-3.2,0.1-4.8,0.6c-1.6,0.5-3.1,1.2-4.4,2.2c-0.3,0.2-0.6,0.5-1,0.8
					c-0.3,0.3-0.6,0.5-0.9,0.8c-0.3,0.3-0.6,0.6-0.9,0.9l-0.8,1l-0.4,0.5l-0.3,0.5l-0.6,1.1c-0.4,0.7-0.7,1.5-1.1,2.2
					c0.3-0.8,0.6-1.5,1-2.3l0.6-1.1l0.3-0.5l0.4-0.5l0.7-1c0.3-0.3,0.6-0.6,0.8-0.9c0.3-0.3,0.6-0.6,0.9-0.9c0.3-0.3,0.6-0.6,1-0.8
					c1.3-1,2.8-1.8,4.4-2.4c1.6-0.5,3.3-0.8,5-0.8c0.2,0,0.3,0.2,0.3,0.3C75.9,84.3,75.7,84.4,75.5,84.4
					C75.6,84.4,75.5,84.4,75.5,84.4L75.5,84.4z"/>
			</g>
			<path class="st26" d="M81.5,74.6c-0.1,0.6,0.2,1.2,0.7,1.5c0.7,0.5,1.5,0.7,2.3,0.7c1.2,0,1.4,0.7,1.6,1.9c0.1,0.3,0.9,0.2,0.9,0
				c0.3-2.1,2.2-1.8,3.4-2.5c1.5-0.9,1.4-2.4-0.1-3.1C88.4,72.1,81.9,71.5,81.5,74.6z"/>
		</g>
	</g>
</g>
<g id="mask" class="st0">
</g>
</svg>
