<?xml version="1.0" encoding="utf-8"?>
<!-- Generator: Adobe Illustrator 21.0.0, SVG Export Plug-In . SVG Version: 6.00 Build 0)  -->
<svg version="1.1" xmlns="http://www.w3.org/2000/svg" xmlns:xlink="http://www.w3.org/1999/xlink" x="0px" y="0px"
	 viewBox="0 0 176.8 172.4" style="enable-background:new 0 0 176.8 172.4;" xml:space="preserve">
<style type="text/css">
	.st0{display:none;}
	.st1{display:inline;fill:#FD9994;}
	.st2{display:inline;fill:#FFFFFF;}
	.st3{display:inline;fill:none;stroke:#FFFFFF;stroke-width:2.2363;stroke-miterlimit:10;}
	.st4{display:inline;}
	.st5{fill:none;stroke:#FFFFFF;stroke-width:2.2363;stroke-miterlimit:10;}
	.st6{fill:#FFB380;}
	.st7{fill:#D2C3DB;}
	.st8{fill:#F9ECDC;}
	.st9{fill:#FFF58B;}
	.st10{fill:#F6BC60;}
	.st11{fill:#ECF784;}
	.st12{fill:#FFDEFF;}
	.st13{fill:#AED5D2;}
	.st14{fill:#F4BD9F;}
	.st15{fill:#B9DCFF;}
	.st16{fill:#D7FFFB;}
	.st17{fill:#81D8F7;}
	.st18{fill:#E57777;}
	.st19{fill:#D9FFDB;}
	.st20{opacity:0.1;}
	.st21{fill:#5CCDFF;}
	.st22{fill:none;}
	.st23{opacity:0.2;fill:#FFFFFF;}
	.st24{opacity:0.1;fill:#002CBF;}
	.st25{fill:#1A1A1A;}
	.st26{fill:#333333;}
	.st27{fill:#FFFFDE;}
	.st28{clip-path:url(#SVGID_4_);}
	.st29{fill:none;stroke:#333333;stroke-width:0.4917;stroke-linecap:round;stroke-linejoin:round;stroke-miterlimit:10;}
	.st30{fill:#FFFFFF;}
	.st31{fill:none;stroke:#333333;stroke-width:0.8543;stroke-miterlimit:10;}
	.st32{clip-path:url(#SVGID_6_);}
	.st33{fill:#FFD7B9;}
	.st34{fill:#F0FFFF;}
	.st35{clip-path:url(#SVGID_8_);}
	.st36{fill:#FF5C5C;}
	.st37{fill:none;stroke:#333333;stroke-width:0.466;stroke-linecap:round;stroke-linejoin:round;stroke-miterlimit:10;}
	.st38{fill:none;stroke:#333333;stroke-width:0.8095;stroke-miterlimit:10;}
	.st39{clip-path:url(#SVGID_10_);}
	.st40{fill:none;stroke:#333333;stroke-width:0.7381;stroke-linecap:round;stroke-linejoin:round;stroke-miterlimit:10;}
	.st41{fill:none;stroke:#333333;stroke-width:0.8857;stroke-linecap:round;stroke-linejoin:round;stroke-miterlimit:10;}
	.st42{fill:none;stroke:#333333;stroke-width:2.6852;stroke-linecap:round;stroke-linejoin:round;stroke-miterlimit:10;}
	.st43{fill:#72B5C4;}
	.st44{fill:#5E96A5;}
	.st45{fill:none;stroke:#FFFFFF;stroke-width:2.6852;stroke-linecap:round;stroke-linejoin:round;stroke-miterlimit:10;}
	.st46{fill:none;stroke:#FFFFFF;stroke-width:1.2942;stroke-linecap:round;stroke-linejoin:round;stroke-miterlimit:10;}
	.st47{fill:none;stroke:#FFFFFF;stroke-width:0.8311;stroke-linecap:round;stroke-linejoin:round;stroke-miterlimit:10;}
	.st48{fill:#FF5C00;}
	.st49{fill:#00B4FF;}
	.st50{fill:#FF5592;}
	.st51{fill:#733FFF;}
	.st52{fill:#DDFF15;}
	.st53{fill:#BF5855;}
	.st54{fill:none;stroke:#333333;stroke-width:0.5718;stroke-miterlimit:10;}
	.st55{fill:#C8F982;}
	.st56{fill:#AEF9C0;}
	.st57{fill:none;stroke:#FFFFFF;stroke-width:1.8326;stroke-miterlimit:10;}
	.st58{fill:#9AF6F9;}
	.st59{fill:#FFACA2;}
	.st60{fill:#F9E582;}
	.st61{fill:#FFC08B;}
	.st62{fill:#EFEB6A;}
	.st63{fill:#EC987F;}
	.st64{fill:#B5FFCC;}
	.st65{fill:#FFEDA2;}
	.st66{fill:#CCE7CC;}
	.st67{fill:#ABE7AB;}
	.st68{fill:#A6A6A6;}
	.st69{clip-path:url(#SVGID_60_);}
	.st70{fill:none;stroke:#333333;stroke-width:0.4706;stroke-linecap:round;stroke-linejoin:round;stroke-miterlimit:10;}
	.st71{fill:#FFEC55;}
	.st72{fill:none;stroke:#333333;stroke-width:0.8177;stroke-miterlimit:10;}
	.st73{clip-path:url(#SVGID_62_);}
	.st74{clip-path:url(#SVGID_64_);}
	.st75{fill:#FF7A59;}
	.st76{clip-path:url(#SVGID_66_);}
	.st77{clip-path:url(#SVGID_68_);}
	.st78{fill:#B45FFF;}
	.st79{clip-path:url(#SVGID_70_);}
	.st80{opacity:0.2;fill:#002CBF;}
	.st81{fill:none;stroke:#333333;stroke-width:0.5506;stroke-linecap:round;stroke-linejoin:round;stroke-miterlimit:10;}
	.st82{clip-path:url(#SVGID_72_);}
	.st83{fill:#EAA871;}
	.st84{fill:#FFD836;}
	.st85{fill:#FF846B;}
	.st86{fill:none;stroke:#333333;stroke-width:0.804;stroke-linecap:round;stroke-linejoin:round;stroke-miterlimit:10;}
	.st87{fill:#FEFF4A;}
	.st88{fill:none;stroke:#333333;stroke-width:0.7645;stroke-linecap:round;stroke-linejoin:round;stroke-miterlimit:10;}
	.st89{fill:none;stroke:#333333;stroke-width:0.7645;stroke-miterlimit:10;}
	.st90{fill:none;stroke:#333333;stroke-width:2.9248;stroke-linecap:round;stroke-linejoin:round;stroke-miterlimit:10;}
	.st91{fill:none;stroke:#333333;stroke-width:0.945;stroke-linecap:round;stroke-linejoin:round;stroke-miterlimit:10;}
	.st92{fill:none;stroke:#333333;stroke-width:0.945;stroke-miterlimit:10;}
	.st93{fill:none;stroke:#333333;stroke-width:3.6155;stroke-linecap:round;stroke-linejoin:round;stroke-miterlimit:10;}
	.st94{fill:none;stroke:#333333;stroke-width:0.6228;stroke-miterlimit:10;}
	.st95{fill:none;stroke:#333333;stroke-width:0.7778;stroke-linecap:round;stroke-linejoin:round;stroke-miterlimit:10;}
	.st96{fill:#FF712A;}
	.st97{fill:none;stroke:#333333;stroke-width:0.7396;stroke-linecap:round;stroke-linejoin:round;stroke-miterlimit:10;}
	.st98{fill:none;stroke:#333333;stroke-width:0.7396;stroke-miterlimit:10;}
	.st99{fill:none;stroke:#333333;stroke-width:2.8295;stroke-linecap:round;stroke-linejoin:round;stroke-miterlimit:10;}
	.st100{fill:none;stroke:#333333;stroke-width:0.9142;stroke-linecap:round;stroke-linejoin:round;stroke-miterlimit:10;}
	.st101{fill:none;stroke:#333333;stroke-width:0.9142;stroke-miterlimit:10;}
	.st102{fill:none;stroke:#333333;stroke-width:3.4977;stroke-linecap:round;stroke-linejoin:round;stroke-miterlimit:10;}
	.st103{fill:none;stroke:#333333;stroke-width:0.6025;stroke-miterlimit:10;}
	.st104{fill:url(#SVGID_89_);}
	.st105{fill:url(#SVGID_90_);}
	.st106{fill:none;stroke:#333333;stroke-width:0.7438;stroke-linecap:round;stroke-linejoin:round;stroke-miterlimit:10;}
	.st107{fill:none;stroke:#333333;stroke-width:0.8926;stroke-linecap:round;stroke-linejoin:round;stroke-miterlimit:10;}
	.st108{clip-path:url(#SVGID_92_);fill:url(#SVGID_93_);}
	.st109{fill:url(#SVGID_94_);}
	.st110{fill:#52C5FF;}
	.st111{fill:none;stroke:#333333;stroke-width:0.6367;stroke-linecap:round;stroke-linejoin:round;stroke-miterlimit:10;}
	.st112{fill:none;stroke:#333333;stroke-width:2.7061;stroke-linecap:round;stroke-linejoin:round;stroke-miterlimit:10;}
	.st113{fill:none;stroke:#333333;stroke-width:0.5763;stroke-miterlimit:10;}
	.st114{fill:none;stroke:#FFFFFF;stroke-width:1.3042;stroke-linecap:round;stroke-linejoin:round;stroke-miterlimit:10;}
	.st115{fill:none;stroke:#FFFFFF;stroke-width:0.8375;stroke-linecap:round;stroke-linejoin:round;stroke-miterlimit:10;}
	.st116{clip-path:url(#SVGID_96_);}
	.st117{opacity:0.2;fill:#2E3192;}
	.st118{fill:#FEFF78;}
	.st119{opacity:0.1;fill:#2E3192;}
	.st120{fill:#FF5A50;}
	.st121{fill:none;stroke:#333333;stroke-width:0.567;stroke-linecap:round;stroke-linejoin:round;stroke-miterlimit:10;}
	.st122{fill:none;stroke:#333333;stroke-width:2.5786;stroke-linecap:round;stroke-linejoin:round;stroke-miterlimit:10;}
	.st123{fill:none;stroke:#333333;stroke-width:0.5491;stroke-miterlimit:10;}
	.st124{clip-path:url(#SVGID_98_);}
	.st125{fill:#2AD2FF;}
	.st126{fill:none;stroke:#333333;stroke-width:0.2435;stroke-miterlimit:10;}
	.st127{fill:#FFFFFF;stroke:#333333;stroke-width:0.487;stroke-linecap:round;stroke-linejoin:round;stroke-miterlimit:10;}
	.st128{clip-path:url(#SVGID_100_);}
	.st129{fill:url(#SVGID_101_);}
	.st130{opacity:0.4;fill:#FFFFFF;}
	.st131{fill:#FFDC48;}
	.st132{fill:none;stroke:#333333;stroke-width:0.5835;stroke-linecap:round;stroke-linejoin:round;stroke-miterlimit:10;}
	.st133{fill:none;stroke:#333333;stroke-width:2.6537;stroke-linecap:round;stroke-linejoin:round;stroke-miterlimit:10;}
	.st134{fill:#F0F462;}
	.st135{fill:url(#SVGID_102_);}
	.st136{fill:url(#SVGID_103_);}
	.st137{fill:#D1DADF;}
	.st138{fill:#57FFA3;}
	.st139{clip-path:url(#SVGID_105_);}
	.st140{clip-path:url(#SVGID_107_);}
	.st141{fill:#D0BBF9;}
	.st142{clip-path:url(#SVGID_109_);}
	.st143{fill:none;stroke:#333333;stroke-width:0.5867;stroke-linecap:round;stroke-linejoin:round;stroke-miterlimit:10;}
	.st144{clip-path:url(#SVGID_111_);}
	.st145{fill:none;stroke:#333333;stroke-width:0.5514;stroke-linecap:round;stroke-linejoin:round;stroke-miterlimit:10;}
	.st146{fill:#D1E9D3;}
	.st147{clip-path:url(#SVGID_113_);}
	.st148{fill:none;stroke:#333333;stroke-width:0.7684;stroke-linecap:round;stroke-linejoin:round;stroke-miterlimit:10;}
	.st149{fill:none;stroke:#333333;stroke-width:0.7684;stroke-miterlimit:10;}
	.st150{fill:none;stroke:#333333;stroke-width:2.9398;stroke-linecap:round;stroke-linejoin:round;stroke-miterlimit:10;}
	.st151{clip-path:url(#SVGID_115_);}
	.st152{fill:#FF66F8;}
	.st153{fill:none;stroke:#333333;stroke-width:0.7542;stroke-linecap:round;stroke-linejoin:round;stroke-miterlimit:10;}
	.st154{fill:none;stroke:#333333;stroke-width:0.9051;stroke-linecap:round;stroke-linejoin:round;stroke-miterlimit:10;}
	.st155{fill:none;stroke:#333333;stroke-width:0.5146;stroke-linecap:round;stroke-linejoin:round;stroke-miterlimit:10;}
	.st156{fill:none;stroke:#333333;stroke-width:0.6033;stroke-linecap:round;stroke-linejoin:round;stroke-miterlimit:10;}
	.st157{fill:none;stroke:#333333;stroke-width:2.7439;stroke-linecap:round;stroke-linejoin:round;stroke-miterlimit:10;}
	.st158{fill:#333333;stroke:#333333;stroke-width:1.0293;stroke-linecap:round;stroke-linejoin:round;stroke-miterlimit:10;}
	.st159{fill:#FF5F2A;}
	.st160{fill:none;stroke:#333333;stroke-width:0.5965;stroke-linecap:round;stroke-linejoin:round;stroke-miterlimit:10;}
	.st161{fill:#F9CC3E;}
	.st162{clip-path:url(#SVGID_121_);}
	.st163{fill:#70E1FF;}
	.st164{fill:none;stroke:#333333;stroke-width:0.5717;stroke-linecap:round;stroke-linejoin:round;stroke-miterlimit:10;}
	.st165{fill:none;stroke:#333333;stroke-width:2.6004;stroke-linecap:round;stroke-linejoin:round;stroke-miterlimit:10;}
	.st166{clip-path:url(#SVGID_123_);}
	.st167{fill:#8F61FF;}
	.st168{clip-path:url(#SVGID_125_);}
	.st169{clip-path:url(#SVGID_127_);}
	.st170{fill:#FFEBEB;}
	.st171{clip-path:url(#SVGID_129_);}
	.st172{clip-path:url(#SVGID_131_);}
	.st173{fill:#F47D62;}
	.st174{fill:none;stroke:#333333;stroke-width:0.7188;stroke-linecap:round;stroke-linejoin:round;stroke-miterlimit:10;}
	.st175{fill:none;stroke:#333333;stroke-width:0.7188;stroke-miterlimit:10;}
	.st176{fill:none;stroke:#333333;stroke-width:2.7502;stroke-linecap:round;stroke-linejoin:round;stroke-miterlimit:10;}
	.st177{fill:#85ACB5;}
	.st178{clip-path:url(#SVGID_133_);}
	.st179{fill:#D5F2F7;}
	.st180{fill:#FF694A;}
	.st181{fill:none;stroke:#333333;stroke-width:0.5693;stroke-linecap:round;stroke-linejoin:round;stroke-miterlimit:10;}
	.st182{fill:#FFDF15;}
	.st183{fill:none;stroke:#333333;stroke-width:0.6674;stroke-linecap:round;stroke-linejoin:round;stroke-miterlimit:10;}
	.st184{fill:none;stroke:#333333;stroke-width:3.0352;stroke-linecap:round;stroke-linejoin:round;stroke-miterlimit:10;}
	.st185{clip-path:url(#SVGID_135_);}
	.st186{clip-path:url(#SVGID_137_);}
	.st187{fill:none;stroke:#333333;stroke-width:0.5248;stroke-linecap:round;stroke-linejoin:round;stroke-miterlimit:10;}
	.st188{fill:#FFD33A;}
	.st189{fill:none;stroke:#333333;stroke-width:2.7983;stroke-linecap:round;stroke-linejoin:round;stroke-miterlimit:10;}
	.st190{fill:none;stroke:#333333;stroke-width:0.7692;stroke-linecap:round;stroke-linejoin:round;stroke-miterlimit:10;}
	.st191{fill:none;stroke:#333333;stroke-width:0.5959;stroke-miterlimit:10;}
	.st192{clip-path:url(#SVGID_143_);}
	.st193{fill:#FFE267;}
	.st194{clip-path:url(#SVGID_149_);}
	.st195{fill:#FFEEAA;}
	.st196{opacity:0.7;fill:url(#SVGID_152_);}
	.st197{fill:none;stroke:#333333;stroke-width:0.611;stroke-miterlimit:10;}
	.st198{clip-path:url(#SVGID_154_);}
	.st199{opacity:0.7;fill:url(#SVGID_157_);}
	.st200{fill:#EABBFC;}
	.st201{opacity:0.7;fill:url(#SVGID_160_);}
	.st202{opacity:0.7;fill:url(#SVGID_163_);}
	.st203{opacity:0.7;fill:url(#SVGID_166_);}
	.st204{opacity:0.7;fill:url(#SVGID_169_);}
	.st205{clip-path:url(#SVGID_171_);}
	.st206{fill:none;stroke:#333333;stroke-width:0.5899;stroke-linecap:round;stroke-linejoin:round;stroke-miterlimit:10;}
	.st207{fill:none;stroke:#333333;stroke-width:2.6828;stroke-linecap:round;stroke-linejoin:round;stroke-miterlimit:10;}
	.st208{fill:none;stroke:#333333;stroke-width:0.5713;stroke-miterlimit:10;}
	.st209{clip-path:url(#SVGID_173_);}
	.st210{clip-path:url(#SVGID_175_);}
	.st211{clip-path:url(#SVGID_177_);}
	.st212{fill:#FFAFC3;}
	.st213{fill:#A0D3FF;}
	.st214{fill:none;stroke:#333333;stroke-width:0.7262;stroke-linecap:round;stroke-linejoin:round;stroke-miterlimit:10;}
	.st215{fill:none;stroke:#333333;stroke-width:0.6906;stroke-miterlimit:10;}
	.st216{fill:none;stroke:#333333;stroke-width:0.8536;stroke-miterlimit:10;}
	.st217{fill:#333333;stroke:#333333;stroke-width:0.991;stroke-linecap:round;stroke-linejoin:round;stroke-miterlimit:10;}
	.st218{clip-path:url(#SVGID_179_);}
	.st219{clip-path:url(#SVGID_181_);}
	.st220{fill:#FD9994;}
	.st221{opacity:0.2;}
	.st222{fill:#2E3192;}
	.st223{display:inline;fill:#FF5B00;}
</style>
<g id="site">
</g>
<g id="kitties">
	<g>
		<ellipse class="st20" cx="82.6" cy="147" rx="51.1" ry="7"/>
		<path class="st34" d="M111.4,133c0,0,9.8-1.6,10.8-3.7c0,0-3.6-7.7,1-12.8c4.5-5.2,7.8-5.4,7.8-5.4l-7.8,1.4c0,0,7.1-6.8,13.3-7.4
			c6.2-0.5,10.9,2.1,13.4,5.3c2.5,3.3,9.8,14.3,0.6,26.5s-28.8,7.6-28.8,7.6l-11.6-3.4L111.4,133"/>
		<path class="st22" d="M111.4,133c0,0,9.8-1.6,10.8-3.7c0,0-3.6-7.7,1-12.8c4.5-5.2,7.8-5.4,7.8-5.4l-7.8,1.4c0,0,7.1-6.8,13.3-7.4
			c6.2-0.5,10.9,2.1,13.4,5.3c2.5,3.3,9.8,14.3,0.6,26.5s-28.8,7.6-28.8,7.6l-11.6-3.4L111.4,133"/>
		<path class="st23" d="M153.7,117.4c-1.2-3.2-2.9-5.7-3.8-7c-2.5-3.3-7.2-5.9-13.4-5.3c-6.2,0.5-13.3,7.4-13.3,7.4
			s10.2-6.2,15.8-5.7C147,107.5,152.1,114.7,153.7,117.4z"/>
		<path class="st24" d="M121.7,144.6c0,0,16,3.7,25.8-4.5c-2.4,0.9-6.2,1.8-12.1,2.3c-6.7,0.6-23-1.6-18.8-10.1l-5.2,0.8l-1.4,8.2
			L121.7,144.6z"/>
		<path class="st24" d="M121.9,129.6c0,0,2,6.7,7.2,7.2c0,0,1.5-4.8,4.4-5c2.7-0.2,4-2,4-2l-1.9,3.7c0,0,4.1,0.8,7.5-1.4
			s2.5-8.1,2.5-8.1s0,6.6-8.5,8.6l1.9-5.4c0,0-0.3,2.1-5,3.2c-3.6,0.9-4.5,2.4-5.3,5.1l0,0c0,0-4.5-2.5-6.5-6.2
			c-0.2-0.3-1.2,0.8-1.2,0.8"/>
		<g>
			<g>
				<path class="st25" d="M108.1,131.9c1.1,0.5,2.3,0.7,3.5,0.7c1.2,0,2.4-0.1,3.6-0.5c1.2-0.3,2.3-0.8,3.5-1.2l1.7-0.8
					c0.5-0.3,1.1-0.6,1.6-0.9l0,0c0.1,0,0.2,0,0.2,0.1c0,0.1,0,0.2-0.1,0.2c-0.5,0.4-1,0.7-1.5,1.1l-1.7,1c-1.1,0.6-2.3,1.1-3.6,1.4
					c-1.3,0.3-2.6,0.5-3.9,0.4c-1.3-0.1-2.6-0.4-3.7-1.2c-0.1-0.1-0.1-0.2,0-0.2C107.9,131.9,108,131.9,108.1,131.9L108.1,131.9z"/>
			</g>
			<g>
				<path class="st25" d="M109,140.5c3.9,1.8,8.1,3,12.3,3.7c4.2,0.7,8.6,1,12.9,0.7c4.3-0.3,8.5-1.5,12-4.1
					c3.5-2.5,5.8-6.3,7.1-10.3c1.4-4,1.7-8.5,0.5-12.6c-1.1-4.1-3.9-7.7-7.5-10c-1.8-1.1-3.8-2-5.9-2.3c-2.1-0.4-4.3-0.2-6.3,0.3
					c-4.2,1.1-7.8,3.7-10.8,6.7c-0.1,0.1-0.2,0.1-0.2,0c-0.1-0.1-0.1-0.2,0-0.2c3-3.1,6.6-5.8,10.9-7c2.1-0.6,4.4-0.7,6.6-0.4
					c2.2,0.4,4.3,1.2,6.1,2.4c1.9,1.2,3.5,2.7,4.9,4.4c1.3,1.8,2.3,3.8,3,5.9c1.3,4.3,0.9,8.9-0.4,13c-1.3,4.2-3.8,8.1-7.4,10.7
					c-3.6,2.6-8,3.8-12.4,4.2c-4.4,0.3-8.7-0.1-13-0.8c-4.3-0.8-8.5-2.1-12.4-4c-0.1-0.1-0.2-0.2-0.1-0.3
					C108.7,140.5,108.9,140.4,109,140.5z"/>
			</g>
			<g>
				<path class="st25" d="M131,111.3c-2.5,0.8-4.9,2.3-6.6,4.2c-1.7,2-2.8,4.5-3.1,7.1c-0.2,1.3-0.1,2.6,0.1,3.9
					c0.3,1.3,0.8,2.5,1.5,3.6c1.4,2.2,3.5,3.9,5.8,5.3c0.1,0,0.1,0.1,0.1,0.2c0,0.1-0.1,0.1-0.2,0.1c-1.2-0.6-2.4-1.4-3.4-2.2
					c-1.1-0.9-2-1.9-2.8-3c-0.8-1.1-1.4-2.4-1.7-3.8c-0.3-1.4-0.4-2.8-0.2-4.2c0.2-1.4,0.6-2.7,1.2-4c0.6-1.3,1.3-2.5,2.3-3.5
					c1.9-2,4.4-3.4,7.1-4c0.1,0,0.1,0,0.1,0.1C131.1,111.2,131.1,111.2,131,111.3L131,111.3z"/>
			</g>
			<g>
				<path class="st25" d="M128.5,135.5c0.2-1.2,0.6-2.4,1.3-3.4c0.3-0.5,0.8-1,1.4-1.4c0.3-0.2,0.6-0.3,0.9-0.4
					c0.3-0.1,0.6-0.1,0.9-0.1c1.1-0.1,2.3-0.5,3.3-0.9c0.5-0.2,1-0.5,1.5-0.9c0.5-0.3,0.8-0.8,1.1-1.2l0,0c0-0.1,0.1-0.1,0.2-0.1
					c0.1,0,0.1,0.1,0.1,0.2c-0.4,1.3-1.5,2.1-2.5,2.6c-1.1,0.6-2.3,0.9-3.5,1.1c-0.3,0-0.6,0.1-0.8,0.1c-0.2,0.1-0.5,0.1-0.7,0.3
					c-0.5,0.3-0.8,0.7-1.2,1.1c-0.7,0.9-1.1,2-1.5,3.1l0,0c0,0.1-0.1,0.1-0.2,0.1C128.5,135.7,128.5,135.6,128.5,135.5z"/>
			</g>
			<g>
				<path class="st25" d="M139.2,127.2c-0.1,1-0.4,1.9-0.7,2.8c-0.2,0.5-0.3,0.9-0.6,1.4c-0.2,0.4-0.4,0.9-0.8,1.3
					c-0.1,0.1-0.2,0.1-0.2,0c-0.1,0-0.1-0.1-0.1-0.2l0,0c0.2-0.9,0.5-1.8,0.8-2.8c0.3-0.9,0.6-1.8,1.1-2.7c0.1-0.1,0.2-0.1,0.3-0.1
					C139.2,127,139.2,127.1,139.2,127.2z"/>
			</g>
			<g>
				<path class="st25" d="M137,132.4c1-0.3,2-0.6,3-1.1c0.9-0.5,1.8-1.1,2.5-1.8c0.8-0.7,1.4-1.6,1.8-2.5c0.5-0.9,0.7-2,1-3l0,0
					c0-0.1,0.1-0.1,0.2-0.1c0.1,0,0.1,0.1,0.1,0.2c0,0.5-0.1,1.1-0.2,1.7c-0.1,0.5-0.3,1.1-0.5,1.6c-0.2,0.5-0.5,1-0.8,1.5
					c-0.3,0.5-0.7,0.9-1.1,1.3c-0.8,0.8-1.8,1.4-2.8,1.9c-1,0.4-2.1,0.7-3.2,0.8c-0.1,0-0.2-0.1-0.2-0.2
					C136.9,132.5,136.9,132.5,137,132.4L137,132.4z"/>
			</g>
		</g>
		<g>
			<path class="st25" d="M123.1,112.4c1.3-0.3,2.6-0.6,3.9-0.8c1.3-0.2,2.6-0.4,4-0.5c0.1,0,0.1,0,0.1,0.1c0,0.1,0,0.1-0.1,0.1l0,0
				c-1.3,0.4-2.6,0.6-3.9,0.8c-1.3,0.2-2.6,0.4-3.9,0.6c-0.1,0-0.2-0.1-0.2-0.1C123,112.4,123.1,112.4,123.1,112.4z"/>
		</g>
		<path class="st34" d="M119.4,51.9c0,0,37.3-30.7-23.5-12.4L119.4,51.9z"/>
		<path class="st34" d="M40.9,51.9c0,0-37.3-30.7,23.5-12.4"/>
		<g>
			<path class="st26" d="M40.9,52c-3.6-3-7.1-6.2-9.8-10.1c-0.7-1-1.3-2-1.6-3.2c-0.2-0.6-0.3-1.2-0.2-1.9c0.1-0.6,0.4-1.3,0.8-1.8
				c0.5-0.5,1-0.8,1.6-1.1c0.6-0.2,1.2-0.4,1.8-0.5c1.2-0.2,2.4-0.3,3.6-0.3c4.8,0.1,9.4,1.1,13.9,2.2c4.6,1.1,9,2.5,13.5,3.9
				c0.1,0,0.1,0.1,0.1,0.2c0,0.1-0.1,0.1-0.2,0.1c-4.5-1.3-9-2.5-13.6-3.5c-2.3-0.5-4.6-1-6.9-1.3c-2.3-0.4-4.6-0.7-6.9-0.7
				c-1.2,0-2.3,0-3.4,0.2c-1.1,0.2-2.2,0.5-2.9,1.2c-0.7,0.7-0.8,1.9-0.5,2.9c0.3,1.1,0.8,2.1,1.4,3.1c1.2,1.9,2.8,3.7,4.4,5.4
				c1.6,1.7,3.3,3.3,5,4.9c0,0,0.1,0.1,0,0.2C41,52,40.9,52,40.9,52z"/>
		</g>
		<g>
			<path class="st26" d="M56.2,41.5c-1.9-0.5-3.9-0.8-5.9-1.2c-2-0.3-3.9-0.6-5.9-0.7c-2-0.2-4-0.4-5.9-0.4c-2-0.1-4-0.1-6,0
				c-0.1,0-0.2-0.1-0.2-0.2c0-0.1,0.1-0.2,0.1-0.2c2-0.2,4-0.3,6-0.4c2,0,4,0,6,0.2c2,0.2,4,0.6,5.9,1c2,0.4,3.9,1,5.8,1.6
				c0.1,0,0.1,0.1,0.1,0.1C56.3,41.5,56.3,41.5,56.2,41.5z"/>
		</g>
		<path class="st26" d="M46.1,47.5c0.6,0.1,1.2,0.2,1.7,0.1c0.6-0.1,1-0.5,1.5-0.8c1.9-1.3,3.8-2.7,5.6-4.2c0.3-0.2,0.5-0.5,0.5-0.8
			c0-0.1,3.6,0.5,1-0.2c-1-0.3-3-1-4-1.2c-4.3-0.7-8.6-1.4-12.9-1.7c-4.6-0.4,0.1,5.3,1.6,6.5C42.6,46.3,44.3,47.1,46.1,47.5z"/>
		<g>
			<path class="st26" d="M119.3,51.8c1.8-1.5,3.4-3.2,5-4.9c1.6-1.7,3.1-3.5,4.4-5.4c0.6-1,1.2-2,1.4-3.1c0.3-1.1,0.2-2.2-0.5-2.9
				c-0.7-0.7-1.8-1.1-2.9-1.2c-1.1-0.2-2.3-0.2-3.4-0.2c-2.3,0.1-4.6,0.3-6.9,0.7c-2.3,0.4-4.6,0.8-6.9,1.3c-4.6,1-9.1,2.2-13.6,3.5
				c-0.1,0-0.2,0-0.2-0.1c0-0.1,0-0.2,0.1-0.2c4.5-1.4,9-2.7,13.5-3.9c4.6-1.1,9.2-2.1,13.9-2.2c1.2,0,2.4,0,3.6,0.3
				c0.6,0.1,1.2,0.3,1.8,0.5c0.6,0.2,1.1,0.6,1.6,1.1c0.5,0.5,0.7,1.1,0.8,1.8c0.1,0.7,0,1.3-0.2,1.9c-0.3,1.2-0.9,2.2-1.6,3.2
				c-2.7,3.9-6.2,7.1-9.8,10.1c0,0-0.1,0-0.2,0C119.3,51.9,119.3,51.8,119.3,51.8z"/>
		</g>
		<g>
			<path class="st26" d="M104.1,41.3c1.9-0.6,3.8-1.2,5.8-1.6c2-0.4,4-0.8,5.9-1c2-0.2,4-0.3,6-0.2c2,0,4,0.1,6,0.4
				c0.1,0,0.2,0.1,0.1,0.2c0,0.1-0.1,0.2-0.2,0.1c-2-0.1-4-0.1-6,0c-2,0.1-4,0.3-5.9,0.4c-2,0.2-4,0.4-5.9,0.7
				c-2,0.3-3.9,0.7-5.9,1.2c-0.1,0-0.1,0-0.1-0.1C104,41.4,104,41.3,104.1,41.3z"/>
		</g>
		<path class="st26" d="M114.2,47.5c-0.6,0.1-1.2,0.2-1.7,0.1c-0.6-0.1-1-0.5-1.5-0.8c-1.9-1.3-3.8-2.7-5.6-4.2
			c-0.3-0.2-0.5-0.5-0.5-0.8c0-0.1,0.1-0.3,0.2-0.4c0.8-0.7,1.8-0.9,2.8-1.1c4.3-0.7,8.6-1.4,12.9-1.7c4.6-0.4-0.1,5.3-1.6,6.5
			C117.8,46.3,116,47.1,114.2,47.5z"/>
		<path class="st6" d="M121.2,90.3c8.9-3.7,9.6-7.3,9.6-7.3s-1.4,0.4-2.7,0.2c-1.7-0.2-3.6-0.9-3.2-1c3.4-1,4.6-3.4,4.6-3.4
			c-1.4-0.4-2.9-1.5-3-2.2c0.1-1.6,0.1-2.8,0.1-3.5c0.3-14.4-8.8-22.9-8.8-22.9s-6.4-8.9-24.8-12.5c0.2-1.1,0.3-2.1,0.3-3.1
			c0.1-2.7-2.2-5.5-2.2-5.5c-0.3,4.6-2.4,5.5-2.4,5.5c1.1-3.1-1.3-6.6-3.8-9.2c-2.6-2.6-8.5-5.7-8.5-5.7s0.4,2.8,0.2,4.8
			c-0.1,2-2.9,4.2-4.7,6.1c-1.8,2-0.9,5.8-0.9,5.8c-1.8-0.2-3.2-3.8-3.2-3.8l-0.7,1.9c-0.2,0.9,0,1.8,0.3,2.7
			c-0.2,0-0.4,0.1-0.6,0.1c0,0-10.6,1.3-21.2,9.2c-2.1,1.5-3.2,3.7-5.3,5.8c0,0-2.3,2-3.7,5.7c-1.7,4.6-3.5,11.1-3,17.6
			c0,0.3,0.1,0.6,0.1,0.9c-0.1,0.7-1.1,1.4-3,2.1c0,0,1.6,2.3,4.6,3.4c0,0-1.5,1-5.9,0.7c-0.4,0,2.3,4.4,9.6,7.3l-3.6,0.4l-3.6-0.4
			c3.1,4,10.2,6.8,10.2,6.8l6.6,1.3c1.4,0.9,3.3,2,4.8,2.7c0.6,0.3,1.2,0.6,1.9,0.9c1.5,0.8,2.8,1.4,3.3,1.5
			c-1.1,2.6-11.9,26.3-9.7,35.3c-1,7.6,14.4,8.6,22.5,8.1c0,0,0.6,3.2,4.4,3.6c2.2,0.2,2.8-4.3,3.1-3.9c0.2,0.2,2.9,0,2.9,0
			c0,0,1.2,3.2,2.9,4.1c2.1,1.1,3.7-3.3,4.6-3.9c0,0,18,1.8,21.5-4.8c2-3.9-0.6-16.3-3.8-25.8c-1.8-5.4-4.4-10.7-5.4-12.6
			c0.3-0.1,0.9-0.3,1.6-0.6c0.8-0.2,1.8-0.6,2.8-1.2c1.3-0.7,3.9-2.2,5.6-3.2c0,0,13.8-2,16.8-8.2c0.3-0.5-1.8,0.9-4.6,0.2
			C123.4,90.4,120.7,90.5,121.2,90.3z"/>
		<g>
			<defs>
				<path id="SVGID_180_" d="M121.2,90.3c8.9-3.7,9.6-7.3,9.6-7.3s-1.4,0.4-2.7,0.2c-1.7-0.2-3.6-0.9-3.2-1c3.4-1,4.6-3.4,4.6-3.4
					c-1.4-0.4-2.9-1.5-3-2.2c0.1-1.6,0.1-2.8,0.1-3.5c0.3-14.4-8.8-22.9-8.8-22.9s-6.4-8.9-24.8-12.5c0.2-1.1,0.3-2.1,0.3-3.1
					c0.1-2.7-2.2-5.5-2.2-5.5c-0.3,4.6-2.4,5.5-2.4,5.5c1.1-3.1-1.3-6.6-3.8-9.2c-2.6-2.6-8.5-5.7-8.5-5.7s0.4,2.8,0.2,4.8
					c-0.1,2-2.9,4.2-4.7,6.1c-1.8,2-0.9,5.8-0.9,5.8c-1.8-0.2-3.2-3.8-3.2-3.8l-0.7,1.9c-0.2,0.9,0,1.8,0.3,2.7
					c-0.2,0-0.4,0.1-0.6,0.1c0,0-10.6,1.3-21.2,9.2c-2.1,1.5-3.2,3.7-5.3,5.8c0,0-2.3,2-3.7,5.7c-1.7,4.6-3.5,11.1-3,17.6
					c0,0.3,0.1,0.6,0.1,0.9c-0.1,0.7-1.1,1.4-3,2.1c0,0,1.6,2.3,4.6,3.4c0,0-1.5,1-5.9,0.7c-0.4,0,2.3,4.4,9.6,7.3l-3.6,0.4
					l-3.6-0.4c3.1,4,10.2,6.8,10.2,6.8l6.6,1.3c1.4,0.9,3.3,2,4.8,2.7c0.6,0.3,1.2,0.6,1.9,0.9c1.5,0.8,2.8,1.4,3.3,1.5
					c-1.1,2.6-11.9,26.3-9.7,35.3c-1,7.6,14.4,8.6,22.5,8.1c0,0,0.6,3.2,4.4,3.6c2.2,0.2,2.8-4.3,3.1-3.9c0.2,0.2,2.9,0,2.9,0
					c0,0,1.2,3.2,2.9,4.1c2.1,1.1,3.7-3.3,4.6-3.9c0,0,18,1.8,21.5-4.8c2-3.9-0.6-16.3-3.8-25.8c-1.8-5.4-4.4-10.7-5.4-12.6
					c0.3-0.1,0.9-0.3,1.6-0.6c0.8-0.2,1.8-0.6,2.8-1.2c1.3-0.7,3.9-2.2,5.6-3.2c0,0,13.8-2,16.8-8.2c0.3-0.5-1.8,0.9-4.6,0.2
					C123.4,90.4,120.7,90.5,121.2,90.3z"/>
			</defs>
			<clipPath id="SVGID_2_">
				<use xlink:href="#SVGID_180_"  style="overflow:visible;"/>
			</clipPath>
			<g style="clip-path:url(#SVGID_2_);">
				<path class="st36" d="M56.1,134.7c0.4-1.6,1.8-2.9,2.3-4.5c0.5-1.4,0.3-3.1-0.5-4.3c-0.4-0.6-0.9-1.1-1.1-1.8c0-0.3,0-0.7,0-1
					c0-0.1,0.1-0.3,0.1-0.4c0.6-3.1-1.4-10.7-4.6-8.8c-2.7,1.6-5.2,7.5-6.6,10.2c-1.9,3.8-3.4,7.8-4.5,11.9
					c-0.5,1.8-0.9,3.6-0.6,5.5c0.3,1.8,1.4,3.6,3.1,4.3c1.5,0.6,3.1,0.2,4.7-0.1c1.5-0.3,3-0.7,4.2-1.7c0.7-0.6,1.2-1.3,1.6-2.1
					c0,0,0,0,0.1-0.1c0.8-0.8,1.7-1.7,1.9-2.8c0.2-1.2-0.3-2.3-0.2-3.5C56,135.1,56,134.9,56.1,134.7z"/>
				<path class="st36" d="M103.1,118.6c0.2,1.1,0.8,2.2,1.1,3.3c0.5,2.1,0.1,4.4-1.3,6c-0.6,0.8-1.5,1.5-1.8,2.5
					c-0.7,1.8,0.6,3.7,1.8,5.2c1.2,1.5,2.7,3.1,2.4,5c-0.1,0.8-0.5,1.6-0.4,2.5c0.1,0.9,0.9,1.6,1.7,1.9s1.8,0.4,2.7,0.4
					c2.9,0.1,6.2,0,8.3-2.1c1.2-1.2,1.8-3,1.9-4.7c0.3-3.3-0.6-6.6-2-9.6c-1.5-3-3.4-5.6-5.4-8.3c-1-1.3-2-2.7-3-4
					c-0.8-1.1-1.7-3.1-3-3.6C103.4,111.7,102.8,116.9,103.1,118.6z"/>
				<path class="st36" d="M37.5,77.8c0.7,2,0.1,4.5,1.4,6.2c1.2,1.5,3.4,1.7,5.3,1.9c1.9,0.2,4.1,0.8,4.9,2.6
					c0.7,1.8-0.4,4.1,0.6,5.8c0.6,1,1.7,1.4,2.7,2c1.5,0.9,2.8,2.1,3.4,3.7c0.6,1.6,0.4,3.6-0.7,4.9c-2.2,2.5-6.2,1.4-9.5,1.8
					c-3.4,0.4-6.5,2.5-9.9,3.1c-4.2,0.7-8.4-1.2-12.2-3.2c-2-1.1-4.1-2.3-5.4-4.2c-1.5-2.2-1.7-4.9-1.8-7.6
					c-0.2-7.2,5-10.6,8.5-16.2C27.4,74.4,35.4,71.3,37.5,77.8z"/>
				<path class="st36" d="M122.8,77.8c-0.7,2-0.1,4.5-1.4,6.2c-1.2,1.5-3.4,1.7-5.3,1.9c-1.9,0.2-4.1,0.8-4.9,2.6
					c-0.7,1.8,0.4,4.1-0.6,5.8c-0.6,1-1.7,1.4-2.7,2c-1.5,0.9-2.8,2.1-3.4,3.7c-0.6,1.6-0.4,3.6,0.7,4.9c2.2,2.5,6.2,1.4,9.5,1.8
					c3.4,0.4,6.5,2.5,9.9,3.1c4.2,0.7,8.4-1.2,12.2-3.2c2-1.1,4.1-2.3,5.4-4.2c1.5-2.2,1.7-4.9,1.8-7.6c0.2-7.2-5-10.6-8.5-16.2
					C133,74.4,124.9,71.3,122.8,77.8z"/>
				<path class="st36" d="M62.9,41.4c1.3,2.2,3.3,4,3.9,6.4c0.4,1.5,0.2,3.1,0.4,4.7c0.2,1.5,1.1,3.2,2.6,3.5
					c0.9,0.1,1.8-0.2,2.6,0.2c0.5,0.3,0.9,0.9,1.4,1.2c1.6,1.2,3.8,0,5.8-0.1c2.5-0.1,5.3,1.6,7.2,0c0.5-0.4,0.9-1.1,1.5-1.5
					c1.1-0.9,2.6-0.8,4-1c1.4-0.2,3-1,3-2.5c0-1.1-1-1.9-1-3c0-1,0.9-1.8,1.5-2.7c0.9-1.3,1-3,1-4.6c0.2-6.5,0.1-13-0.3-19.4
					c-0.1-1.2-0.2-2.5-0.8-3.5c-0.7-1.2-2.1-1.9-3.3-2.4C82,12.8,64.5,17,61.8,29.2C60.9,33.3,60.6,37.7,62.9,41.4z"/>
			</g>
		</g>
		<path class="st22" d="M121.2,90.3c8.9-3.7,9.6-7.3,9.6-7.3s-1.4,0.4-2.7,0.2c-1.7-0.2-3.6-0.9-3.2-1c3.4-1,4.6-3.4,4.6-3.4
			c-1.4-0.4-2.9-1.5-3-2.2c0.1-1.6,0.1-2.8,0.1-3.5c0.3-14.4-8.8-22.9-8.8-22.9s-6.4-8.9-24.8-12.5c0.2-1.1,0.3-2.1,0.3-3.1
			c0.1-2.7-2.2-5.5-2.2-5.5c-0.3,4.6-2.4,5.5-2.4,5.5c1.1-3.1-1.3-6.6-3.8-9.2c-2.6-2.6-8.5-5.7-8.5-5.7s0.4,2.8,0.2,4.8
			c-0.1,2-2.9,4.2-4.7,6.1c-1.8,2-0.9,5.8-0.9,5.8c-1.8-0.2-3.2-3.8-3.2-3.8l-0.7,1.9c-0.2,0.9,0,1.8,0.3,2.7
			c-0.2,0-0.4,0.1-0.6,0.1c0,0-10.6,1.3-21.2,9.2c-2.1,1.5-3.2,3.7-5.3,5.8c0,0-2.3,2-3.7,5.7c-1.7,4.6-3.5,11.1-3,17.6
			c0,0.3,0.1,0.6,0.1,0.9c-0.1,0.7-1.1,1.4-3,2.1c0,0,1.6,2.3,4.6,3.4c0,0-1.5,1-5.9,0.7c-0.4,0,2.3,4.4,9.6,7.3l-3.6,0.4l-3.6-0.4
			c3.1,4,10.2,6.8,10.2,6.8l6.6,1.3c1.4,0.9,3.3,2,4.8,2.7c0.6,0.3,1.2,0.6,1.9,0.9c1.5,0.8,2.8,1.4,3.3,1.5
			c-1.1,2.6-11.9,26.3-9.7,35.3c-1,7.6,14.4,8.6,22.5,8.1c0,0,0.6,3.2,4.4,3.6c2.2,0.2,2.8-4.3,3.1-3.9c0.2,0.2,2.9,0,2.9,0
			c0,0,1.2,3.2,2.9,4.1c2.1,1.1,3.7-3.3,4.6-3.9c0,0,18,1.8,21.5-4.8c2-3.9-0.6-16.3-3.8-25.8c-1.8-5.4-4.4-10.7-5.4-12.6
			c0.3-0.1,0.9-0.3,1.6-0.6c0.8-0.2,1.8-0.6,2.8-1.2c1.3-0.7,3.9-2.2,5.6-3.2c0,0,13.8-2,16.8-8.2c0.3-0.5-1.8,0.9-4.6,0.2
			C123.4,90.4,120.7,90.5,121.2,90.3z"/>
		<g>
			<path class="st24" d="M109.3,96c0,0-3.5,4.7-7.6,7.3c0,0,0.1,0.1,0.1,0.1c0.7-0.2,1.8-0.8,3-1.4c0.7-0.3,1.3-0.6,1.9-0.9
				c1.5-0.8,3.4-1.8,4.8-2.7l6.6-1.3c0,0,7.1-2.8,10.2-6.8C128.2,90.3,118.2,96.4,109.3,96z"/>
			<path class="st24" d="M121,90.3l-3.6-0.7c4.7-0.8,13.2-6.6,13.2-6.6l0,0.1C130.3,83.8,127.5,87.7,121,90.3z"/>
			<g>
				<path class="st24" d="M125.9,82.7l-0.4-0.2c0.1,0,0.3,0.1,0.5,0.2L125.9,82.7z"/>
				<path class="st24" d="M124.7,82.2l-2.7-1.6c3.1,0,7.2-1.7,7.2-1.7S127.7,81.1,124.7,82.2z"/>
			</g>
			<g>
				<path class="st37" d="M74.7,146.8c2.9-0.1,7.2-0.1,11.1,0"/>
				<path class="st24" d="M102.7,106.5c3,7,10.4,24.8,8.5,32.3c0.5,3.7-2.9,5.8-7.4,7C114,138.8,105.9,114.9,102.7,106.5z"/>
				<path class="st24" d="M81.8,146.6c0.3-1.6-0.4-3.3-0.5-4.9c0-0.5,0-0.9,0-1.4c0-0.6-0.2-1.2-0.3-1.8c-0.2-0.8-0.3-1.6-0.3-2.4
					c-0.3,0.4-0.4,0.9-0.4,1.4c-0.2,2.1-0.5,4.2-0.9,6.3c-0.1,0.5-0.7,2.4-0.4,2.8C79.1,146.7,81.8,146.6,81.8,146.6z"/>
				<path class="st26" d="M71.4,147.2c0,0,2.4-2,7.2-0.7c0,0-0.4,3.3-2.7,4.1S71.4,147.2,71.4,147.2z"/>
				<path class="st26" d="M89.3,147.2c0,0-2.4-2-7.1-0.7c0,0,0.4,3.3,2.6,4.1C87,151.5,89.3,147.2,89.3,147.2z"/>
				<g>
					<path class="st26" d="M101.8,103.4c2.4,4.7,4.5,9.6,6.2,14.5c1.8,5,3.3,10.1,3.9,15.4c0.3,2.6,0.3,5.3-0.4,8
						c-0.4,1.4-1.5,2.5-2.7,3.2c-1.2,0.7-2.5,1.2-3.7,1.5c-2.6,0.7-5.2,0.9-7.9,1.1c-2.6,0.1-5.3,0.1-7.9,0c-0.1,0-0.2-0.1-0.2-0.2
						c0-0.1,0.1-0.2,0.2-0.2c2.6,0,5.3,0,7.9-0.2c2.6-0.2,5.2-0.5,7.7-1.2c1.2-0.4,2.5-0.8,3.5-1.5c1.1-0.7,1.9-1.6,2.3-2.7
						c0.6-2.4,0.6-5.1,0.3-7.7c-0.5-5.2-2-10.3-3.7-15.2c-1.7-4.9-3.7-9.8-6-14.5l0,0c-0.1-0.1,0-0.3,0.1-0.4
						C101.6,103.2,101.7,103.3,101.8,103.4z"/>
				</g>
				<g>
					<path class="st26" d="M58.9,103.7c-2.2,4.8-4.2,9.6-6,14.6c-1.7,5-3.1,10.1-3.6,15.3c-0.3,2.6-0.3,5.3,0.4,7.7
						c0.4,1.1,1.3,2.1,2.3,2.7c1.1,0.7,2.3,1.1,3.5,1.5c2.5,0.7,5.1,1,7.7,1.2c2.6,0.2,5.3,0.2,7.9,0.2c0.1,0,0.2,0.1,0.2,0.2
						c0,0.1-0.1,0.2-0.2,0.2c-2.6,0.1-5.3,0.1-7.9,0c-2.6-0.1-5.3-0.4-7.9-1c-1.3-0.3-2.6-0.8-3.8-1.5c-1.2-0.7-2.3-1.7-2.8-3.1
						c-0.4-1.4-0.6-2.7-0.6-4c0-1.3,0-2.7,0.1-4c0.6-5.3,2.1-10.4,3.8-15.4c1.8-5,3.8-9.9,6.2-14.6c0.1-0.1,0.2-0.2,0.3-0.1
						C58.9,103.4,59,103.5,58.9,103.7L58.9,103.7z"/>
				</g>
				<g>
					<path class="st26" d="M80.4,122.4c0.2,4.2,0.2,8.4,0,12.6c-0.1,2.1-0.2,4.2-0.5,6.3c-0.3,2.1-0.6,4.2-1.2,6.3
						c-0.4,1-0.8,2.1-1.7,2.9l-0.4,0.3c-0.1,0.1-0.3,0.1-0.5,0.2c-0.2,0.1-0.3,0.1-0.5,0.1c-0.2,0-0.3,0-0.5,0
						c-0.6-0.1-1.2-0.4-1.6-0.7c-0.9-0.7-1.5-1.6-2.1-2.5c-0.6-0.9-1-1.9-1.5-2.8c-1.7-3.9-2.9-8-3.9-12.1c0-0.1,0-0.2,0.1-0.2
						c0.1,0,0.2,0,0.2,0.1c1.1,4,2.4,8.1,4.2,11.8c0.4,0.9,0.9,1.9,1.5,2.7c0.6,0.9,1.2,1.7,1.9,2.3c0.7,0.6,1.7,0.8,2.3,0.2
						c0.7-0.6,1.1-1.6,1.4-2.5c0.7-1.9,1-4,1.3-6.1c0.3-2.1,0.5-4.2,0.6-6.3c0.3-4.2,0.4-8.4,0.4-12.6c0-0.1,0.1-0.1,0.1-0.1
						C80.4,122.3,80.4,122.4,80.4,122.4z"/>
				</g>
				<g>
					<path class="st26" d="M80.5,122.4c0,4.2,0.1,8.4,0.4,12.6c0.1,2.1,0.3,4.2,0.6,6.3c0.3,2.1,0.7,4.1,1.3,6.1
						c0.3,0.9,0.7,1.9,1.4,2.5c0.6,0.6,1.6,0.4,2.3-0.2c0.8-0.6,1.4-1.4,1.9-2.3c0.6-0.9,1-1.8,1.5-2.7c1.8-3.8,3.1-7.8,4.2-11.8
						c0-0.1,0.1-0.1,0.2-0.1c0.1,0,0.1,0.1,0.1,0.2c-1,4.1-2.2,8.2-3.9,12.1c-0.4,1-0.9,1.9-1.5,2.8c-0.6,0.9-1.2,1.8-2.1,2.5
						c-0.4,0.4-1,0.7-1.6,0.7c-0.2,0-0.3,0-0.5,0c-0.2,0-0.3,0-0.5-0.1c-0.2-0.1-0.3-0.1-0.5-0.2l-0.4-0.3c-0.9-0.8-1.3-1.9-1.7-2.9
						c-0.7-2.1-1-4.2-1.2-6.3c-0.2-2.1-0.4-4.2-0.5-6.3c-0.2-4.2-0.2-8.4,0-12.6c0-0.1,0.1-0.1,0.1-0.1
						C80.4,122.3,80.5,122.4,80.5,122.4z"/>
				</g>
				<path class="st24" d="M94.4,132.9c0,0,2.4,12.9,9.7,13.1c0,0-6.1,1.3-14.8,0.9l2.9-6.8L94.4,132.9z"/>
				<path class="st24" d="M66.3,132.9c0,0-2.5,13.6-9.7,13.1l6.5,1h8.1C69.8,145.6,66.3,132.9,66.3,132.9z"/>
			</g>
			<path class="st24" d="M57.4,106.5c-3,7-10.4,24.8-8.5,32.3c-0.5,3.7,2.9,5.8,7.4,7C46.2,138.8,54.2,114.9,57.4,106.5z"/>
			<g>
				<path class="st26" d="M33.5,75.7c-0.1-4.7,0.4-9.5,1.8-14c1.4-4.5,3.8-8.8,7-12.2c3.3-3.4,7.3-6.1,11.6-8.1
					c4.3-2,8.8-3.3,13.4-4.2c0.1,0,0.3,0.1,0.3,0.2c0,0.1-0.1,0.2-0.2,0.3c-4.5,1-9,2.4-13.2,4.4c-4.2,2-8,4.7-11.1,8.1
					c-3.2,3.3-5.5,7.4-6.9,11.8c-1.4,4.4-1.9,9-1.9,13.6l0,0c0,0.3-0.2,0.5-0.5,0.5C33.7,76.2,33.5,75.9,33.5,75.7z"/>
			</g>
			<g>
				<path class="st26" d="M58.6,103.8c-1.8-0.7-3.5-1.5-5.2-2.3c-1.7-0.8-3.4-1.8-5-2.8c-0.2-0.1-0.3-0.4-0.2-0.6
					c0.1-0.2,0.4-0.3,0.6-0.2c0,0,0,0,0,0c1.5,1.1,3.1,2.1,4.8,3c1.7,0.9,3.4,1.7,5.1,2.4l0,0c0.1,0,0.2,0.2,0.1,0.3
					C58.9,103.7,58.7,103.8,58.6,103.8C58.6,103.8,58.6,103.8,58.6,103.8z"/>
			</g>
			<g>
				<path class="st26" d="M125.8,75.7c0-4.6-0.5-9.2-1.8-13.5c-1.4-4.3-3.7-8.4-6.8-11.7c-3-3.4-6.8-6.1-10.9-8.1
					c-4.1-2.1-8.5-3.5-13-4.5c-0.1,0-0.2-0.2-0.2-0.3c0-0.1,0.2-0.2,0.3-0.2c4.5,0.9,9,2.3,13.2,4.3c4.2,2,8.2,4.7,11.4,8.1
					c3.2,3.5,5.5,7.7,6.9,12.2c1.4,4.5,1.8,9.2,1.8,13.8c0,0.3-0.2,0.5-0.5,0.5C126,76.1,125.8,75.9,125.8,75.7L125.8,75.7z"/>
			</g>
			<g>
				<path class="st26" d="M101.4,103.3c1.8-0.6,3.5-1.5,5.1-2.4c1.6-0.9,3.3-1.9,4.8-3c0.2-0.1,0.5-0.1,0.6,0.1
					c0.1,0.2,0.1,0.5-0.1,0.6c0,0,0,0,0,0c-1.6,1-3.3,1.9-5,2.8c-1.7,0.9-3.4,1.6-5.2,2.3c-0.1,0-0.2,0-0.3-0.1
					C101.3,103.5,101.3,103.4,101.4,103.3C101.4,103.3,101.4,103.3,101.4,103.3L101.4,103.3z"/>
			</g>
			<g>
				<path class="st26" d="M111.6,97.9c1.5-0.1,3.1-0.3,4.6-0.6c1.5-0.4,3-0.8,4.5-1.5c1.5-0.6,2.8-1.4,4.1-2.3
					c1.3-0.9,2.4-2.1,3.4-3.3l0,0c0.1-0.1,0.2-0.1,0.4,0c0.1,0.1,0.1,0.2,0,0.3c-1,1.3-2.1,2.5-3.4,3.5c-1.3,1-2.7,1.9-4.2,2.5
					c-1.5,0.7-3,1.2-4.6,1.6c-1.6,0.4-3.2,0.7-4.8,0.8c-0.3,0-0.5-0.2-0.5-0.4C111.1,98.1,111.3,97.9,111.6,97.9
					C111.6,97.9,111.6,97.9,111.6,97.9L111.6,97.9z"/>
			</g>
			<g>
				<path class="st26" d="M121.3,89.9c0.5,0.2,1.1,0.3,1.7,0.4c0.6,0.1,1.2,0.1,1.8,0.1c1.2,0,2.4-0.1,3.6-0.3
					c0.1,0,0.3,0.1,0.3,0.2c0,0.1-0.1,0.3-0.2,0.3c-1.2,0.3-2.4,0.5-3.7,0.5c-0.6,0-1.2,0-1.9,0c-0.6-0.1-1.2-0.1-1.9-0.3
					c-0.2-0.1-0.4-0.3-0.3-0.6C120.8,89.9,121,89.8,121.3,89.9C121.3,89.8,121.3,89.8,121.3,89.9L121.3,89.9z"/>
			</g>
			<g>
				<path class="st26" d="M121,89.9c1.9-0.7,3.7-1.7,5.4-2.8c0.8-0.6,1.7-1.2,2.4-1.9c0.7-0.7,1.3-1.5,1.8-2.4l0,0
					c0.1-0.1,0.2-0.2,0.3-0.1c0.1,0.1,0.2,0.2,0.1,0.3c-0.4,1-1.1,1.8-1.8,2.6c-0.7,0.8-1.5,1.4-2.4,2c-0.8,0.6-1.7,1.2-2.6,1.7
					c-0.9,0.5-1.8,1-2.8,1.4c-0.2,0.1-0.5,0-0.6-0.2C120.6,90.2,120.7,90,121,89.9C121,89.9,121,89.9,121,89.9L121,89.9z"/>
			</g>
			<g>
				<path class="st26" d="M125,81.8c0.4,0.2,0.8,0.4,1.3,0.6c0.5,0.2,0.9,0.3,1.4,0.4c1,0.2,2,0.2,2.9-0.1l0,0
					c0.1,0,0.3,0.1,0.3,0.2c0,0.1,0,0.3-0.2,0.3c-1,0.3-2.1,0.4-3.1,0.3c-0.5-0.1-1.1-0.2-1.6-0.3c-0.5-0.1-1-0.3-1.5-0.6
					c-0.2-0.1-0.3-0.4-0.2-0.6C124.5,81.8,124.7,81.7,125,81.8C125,81.8,125,81.8,125,81.8L125,81.8z"/>
			</g>
			<g>
				<path class="st26" d="M124.6,81.8c0.9-0.3,1.8-0.7,2.6-1.2c0.8-0.5,1.6-1.1,2-1.9l0,0c0.1-0.1,0.2-0.2,0.3-0.1
					c0.1,0.1,0.2,0.2,0.1,0.3c-0.5,1-1.2,1.7-2.1,2.2c-0.8,0.6-1.7,1-2.6,1.4c-0.2,0.1-0.5,0-0.6-0.2
					C124.2,82.2,124.3,81.9,124.6,81.8C124.6,81.8,124.6,81.8,124.6,81.8L124.6,81.8z"/>
			</g>
			<g>
				<path class="st26" d="M126.7,75.7c0,0.3,0,0.7,0.1,1c0.1,0.3,0.3,0.7,0.6,0.9c0.3,0.3,0.6,0.5,0.9,0.6c0.3,0.2,0.7,0.2,1.1,0.3
					l0,0c0.1,0,0.2,0.2,0.2,0.3c0,0.1-0.1,0.2-0.3,0.2c-0.4,0-0.9-0.1-1.3-0.3c-0.4-0.1-0.8-0.4-1.2-0.7c-0.4-0.3-0.6-0.7-0.8-1.1
					c-0.2-0.4-0.3-0.9-0.3-1.4c0-0.3,0.2-0.5,0.5-0.5C126.5,75.2,126.7,75.4,126.7,75.7C126.7,75.6,126.7,75.7,126.7,75.7
					L126.7,75.7z"/>
			</g>
			<g>
				<g>
					<path class="st26" d="M48.6,98.8c-1.7-0.1-3.2-0.4-4.8-0.8c-1.6-0.4-3.1-0.9-4.6-1.6c-1.5-0.7-2.9-1.5-4.2-2.5
						c-1.3-1-2.4-2.2-3.4-3.5c-0.1-0.1-0.1-0.3,0-0.4c0.1-0.1,0.3-0.1,0.3,0l0,0c1,1.2,2.1,2.4,3.4,3.3c1.3,0.9,2.6,1.7,4.1,2.3
						c1.4,0.6,2.9,1.1,4.5,1.5c1.5,0.3,3.1,0.6,4.6,0.6l0,0c0.3,0,0.5,0.2,0.4,0.5C49.1,98.6,48.8,98.8,48.6,98.8
						C48.6,98.8,48.6,98.8,48.6,98.8z"/>
				</g>
				<g>
					<path class="st26" d="M39.2,90.7c-0.7,0.2-1.3,0.3-1.9,0.3c-0.6,0-1.3,0.1-1.9,0c-1.2-0.1-2.5-0.2-3.7-0.5
						c-0.1,0-0.2-0.2-0.2-0.3c0-0.1,0.2-0.2,0.3-0.2c1.2,0.2,2.4,0.3,3.6,0.3c0.6,0,1.2-0.1,1.8-0.1c0.6-0.1,1.2-0.2,1.7-0.4l0,0
						c0.2-0.1,0.5,0,0.6,0.3C39.6,90.4,39.5,90.6,39.2,90.7C39.2,90.7,39.2,90.7,39.2,90.7z"/>
				</g>
				<g>
					<path class="st26" d="M38.9,90.7c-1-0.4-1.9-0.9-2.8-1.4c-0.9-0.5-1.8-1-2.6-1.7c-0.8-0.6-1.7-1.3-2.4-2
						c-0.7-0.8-1.4-1.6-1.8-2.6c-0.1-0.1,0-0.3,0.1-0.3c0.1-0.1,0.3,0,0.3,0.1l0,0c0.4,0.9,1,1.7,1.8,2.4c0.7,0.7,1.5,1.3,2.4,1.9
						c1.7,1.1,3.5,2,5.4,2.8l0,0c0.2,0.1,0.4,0.4,0.3,0.6C39.4,90.7,39.1,90.8,38.9,90.7C38.9,90.7,38.9,90.7,38.9,90.7z"/>
				</g>
				<g>
					<path class="st26" d="M35.7,82.6c-0.5,0.3-1,0.4-1.5,0.6c-0.5,0.1-1,0.2-1.6,0.3c-1.1,0.1-2.1,0-3.1-0.3
						c-0.1,0-0.2-0.2-0.2-0.3c0-0.1,0.2-0.2,0.3-0.2l0,0c1,0.2,2,0.2,2.9,0.1c0.5-0.1,1-0.2,1.4-0.4c0.5-0.2,0.9-0.4,1.3-0.6l0,0
						c0.2-0.1,0.5-0.1,0.6,0.2C36,82.2,35.9,82.5,35.7,82.6C35.7,82.6,35.7,82.6,35.7,82.6z"/>
				</g>
				<g>
					<path class="st26" d="M35.3,82.6c-0.9-0.4-1.8-0.9-2.6-1.4c-0.8-0.6-1.6-1.3-2.1-2.2c-0.1-0.1,0-0.3,0.1-0.3
						c0.1-0.1,0.3,0,0.3,0.1l0,0c0.4,0.8,1.2,1.4,2,1.9c0.8,0.5,1.7,0.9,2.6,1.2l0,0c0.2,0.1,0.4,0.3,0.3,0.6
						C35.8,82.6,35.5,82.7,35.3,82.6C35.3,82.7,35.3,82.6,35.3,82.6z"/>
				</g>
				<g>
					<path class="st26" d="M34.4,75.6c0,0.5-0.1,1-0.3,1.4c-0.2,0.4-0.5,0.8-0.8,1.1c-0.4,0.3-0.8,0.5-1.2,0.7
						c-0.4,0.1-0.9,0.2-1.3,0.3c-0.1,0-0.3-0.1-0.3-0.2c0-0.1,0.1-0.2,0.2-0.3l0,0c0.4-0.1,0.8-0.2,1.1-0.3c0.4-0.1,0.7-0.4,0.9-0.6
						c0.3-0.3,0.4-0.6,0.6-0.9c0.1-0.3,0.2-0.7,0.1-1l0,0c0-0.3,0.2-0.5,0.4-0.5C34.2,75.2,34.4,75.3,34.4,75.6
						C34.4,75.6,34.4,75.6,34.4,75.6z"/>
				</g>
			</g>
			<g>
				<g>
					<g>
						<path class="st26" d="M71,43.5c-0.8-0.6-1.4-1.4-2-2.2c-0.6-0.8-1.1-1.7-1.5-2.6c-0.4-0.9-0.6-2-0.6-3c0-1,0.4-2.1,1-2.9
							c0-0.1,0.1-0.1,0.2,0c0,0,0.1,0.1,0,0.1l0,0c-0.4,0.9-0.5,1.8-0.5,2.8c0.1,0.9,0.3,1.8,0.7,2.7c0.3,0.9,0.8,1.7,1.3,2.5
							c0.5,0.8,1.1,1.6,1.7,2.4l0,0c0.1,0.1,0,0.2,0,0.2C71.1,43.5,71,43.5,71,43.5z"/>
					</g>
					<g>
						<path class="st26" d="M68.1,32.8c0.4,0.8,0.8,1.5,1.3,2.2c0.5,0.7,1,1.2,1.8,1.5l0,0c0.1,0,0.1,0.1,0.1,0.2
							c0,0-0.1,0.1-0.1,0.1c-0.5,0.1-1-0.1-1.4-0.3c-0.4-0.2-0.7-0.6-1-1c-0.3-0.4-0.5-0.8-0.6-1.2c-0.1-0.4-0.3-0.9-0.3-1.3
							c0-0.1,0.1-0.2,0.1-0.2C68,32.7,68,32.7,68.1,32.8L68.1,32.8z"/>
					</g>
					<g>
						<path class="st26" d="M70.9,36.7c-0.4-1.5-0.5-3.2,0.1-4.8c0.3-0.8,0.8-1.4,1.3-2c0.5-0.6,1.1-1.1,1.6-1.7
							c1.1-1.1,2.1-2.3,2.3-3.7c0.1-1.4,0.1-3.1-0.3-4.4l0,0c-0.1-0.2,0.1-0.4,0.3-0.5c0.1,0,0.2,0,0.3,0c1.6,0.8,3.1,1.7,4.5,2.7
							c1.4,1,2.9,2,4.1,3.3c1.2,1.3,2.3,2.7,3.1,4.2c0.4,0.8,0.7,1.6,0.8,2.5c0.1,0.9,0,1.8-0.4,2.6c0,0.1-0.1,0.1-0.2,0.1
							c-0.1,0-0.1-0.1-0.1-0.1c0.7-1.6,0.1-3.4-0.7-4.8c-0.8-1.5-1.9-2.8-3.2-4c-2.5-2.3-5.5-4.1-8.5-5.7l0.6-0.5
							c0.3,0.9,0.3,1.6,0.4,2.5c0,0.8,0,1.6-0.1,2.4c-0.3,1.7-1.5,3-2.6,4.1c-0.6,0.5-1.1,1.1-1.7,1.6c-0.5,0.6-1,1.1-1.3,1.8
							c-0.6,1.4-0.7,3-0.3,4.5l0,0c0,0.1,0,0.2-0.1,0.2C71,36.8,71,36.7,70.9,36.7z"/>
					</g>
					<g>
						<path class="st26" d="M88.7,34.6c0.4-0.3,0.7-0.7,1-1.1c0.3-0.4,0.5-0.9,0.6-1.3c0.2-0.5,0.3-0.9,0.4-1.4l0.3-1.5
							c0-0.1,0.1-0.1,0.1-0.1c0,0,0.1,0,0.1,0.1c0.1,0.3,0.1,0.5,0.1,0.8l0,0.8c0,0.5-0.1,1.1-0.3,1.6c-0.2,0.5-0.5,1-0.8,1.5
							c-0.4,0.4-0.8,0.8-1.4,0.9c-0.1,0-0.2,0-0.2-0.1C88.6,34.7,88.6,34.6,88.7,34.6L88.7,34.6z"/>
					</g>
					<g>
						<path class="st26" d="M91.2,29.1c0.9,0.9,1.5,2,1.9,3.1c0.4,1.2,0.6,2.4,0.6,3.6c0,1.2-0.2,2.5-0.6,3.6
							c-0.2,0.6-0.4,1.1-0.7,1.7c-0.3,0.5-0.6,1.1-0.9,1.6c0,0.1-0.1,0.1-0.2,0c0,0-0.1-0.1-0.1-0.1l0,0c0.2-0.6,0.4-1.1,0.6-1.7
							c0.2-0.6,0.4-1.1,0.5-1.7c0.3-1.1,0.4-2.3,0.5-3.4c0-1.2-0.1-2.3-0.5-3.4c-0.3-1.1-0.8-2.2-1.5-3.1l0,0c0-0.1,0-0.2,0-0.2
							C91.1,29,91.2,29.1,91.2,29.1z"/>
					</g>
				</g>
			</g>
			<path class="st24" d="M58.5,103.7c0.1-0.1,0.1-0.1,0.2-0.2c-4.3-2.6-8-7.5-8-7.5c-8.9,0.4-18.9-5.7-18.9-5.7
				c3.1,4,10.2,6.8,10.2,6.8l6.6,1.3c1.4,0.9,3.3,2,4.8,2.7c0.6,0.3,1.2,0.6,1.9,0.9c1.5,0.8,2.8,1.4,3.3,1.5
				C58.6,103.6,58.6,103.6,58.5,103.7z"/>
			<path class="st24" d="M39,90.3l3.6-0.7C38,88.7,29.5,83,29.5,83l0,0.1C29.7,83.8,32.5,87.7,39,90.3z"/>
			<g>
				<path class="st24" d="M34.4,82.7l0.4-0.2c-0.1,0-0.3,0.1-0.5,0.2L34.4,82.7z"/>
				<path class="st24" d="M35.3,82.2l2.7-1.6c-3.1,0-7.2-1.7-7.2-1.7S32.4,81.1,35.3,82.2z"/>
			</g>
			<path class="st24" d="M76.7,24.7c-0.1,2-2.9,4.2-4.7,6.1c-0.5,0.5-0.7,1.1-0.9,1.7c1.5-3.4,6.1-3.8,7.7-5.6
				c1.5-1.8-2.3-7.1-2.3-7.1S76.8,22.7,76.7,24.7z"/>
			<path class="st24" d="M72.3,39.3l-1.3-2.7c-1.8-0.2-3.2-3.8-3.2-3.8S66.9,37.6,72.3,39.3z"/>
			<g>
				<path class="st24" d="M88.5,30.5c0.4,1.1,0.8,2.2,0.3,4.2C89.3,33.4,89.1,31.9,88.5,30.5z"/>
				<path class="st24" d="M88.8,34.7c-0.2,0.9-0.5,2.2-1.2,3.4c0,0,5.7-2.7,3.5-8.9C90.8,33.8,88.8,34.7,88.8,34.7z"/>
			</g>
		</g>
		<path class="st30" d="M47.7,67.1c0-6.2,3.5-8.9,9-8.9s11.5,5.1,11.5,10.5c0,5.5-4.6,10.3-10.1,10.3S47.7,72.6,47.7,67.1z"/>
		<path class="st21" d="M49.1,69.2c0-5.3,4.3-9.6,9.7-9.6s10.5,4.6,10.5,10s-5.2,9.3-10.5,9.3S49.1,74.5,49.1,69.2z"/>
		<g>
			<path class="st38" d="M49,62.4c2.2-3.4,9.8-5.7,15-2.3s6.8,9.9,3.7,14.6c-1.5,2.2-3.8,3.6-6.3,4.1c-2.8,0.5-5.9,0-8.6-1.8
				C47.5,73.6,46.6,66,49,62.4z"/>
			<path class="st26" d="M59.9,58.2c0,0-6-1.3-9.8-1.2c0,0-0.4,0.9,0,2.4c0,0-2.4,0.1-2.9,0.7c0,0-0.4,6.7,0.5,10.1
				c0,0-0.6-5.8,1.9-8.6C50.8,60.3,54.8,57.7,59.9,58.2z"/>
			<g>
				<ellipse class="st26" cx="61" cy="68.4" rx="8.4" ry="8.3"/>
				<ellipse class="st30" cx="60.9" cy="65.1" rx="3.3" ry="3.3"/>
				<ellipse class="st30" cx="54.2" cy="65.1" rx="1.8" ry="1.8"/>
			</g>
		</g>
		<path class="st30" d="M111.1,68.1c0-6-3.4-9.9-8.9-9.9c-5.5,0-11.5,5.1-11.5,10.5c0,5.5,4.6,10.3,10.1,10.3
			C106.3,79,111.1,73.5,111.1,68.1z"/>
		<path class="st21" d="M109.8,69.2c0-5.3-4.3-9.6-9.7-9.6s-10.6,4.6-10.6,10s5.3,9.3,10.6,9.3S109.8,74.5,109.8,69.2z"/>
		<g>
			<path class="st38" d="M110,62.4c-2.2-3.4-9.8-5.7-15-2.3s-6.8,9.9-3.7,14.6c1.5,2.2,3.8,3.6,6.3,4.1c2.8,0.5,5.9,0,8.6-1.8
				C111.4,73.6,112.3,66,110,62.4z"/>
			<path class="st26" d="M99,58.2c0,0,6-1.3,9.8-1.2c0,0,0.4,0.9,0,2.4c0,0,2.4,0.1,2.9,0.7c0,0,0.4,6.7-0.5,10.1
				c0,0,0.6-5.8-1.9-8.6C108.2,60.3,104.2,57.7,99,58.2z"/>
			<g>
				<ellipse class="st26" cx="97.9" cy="68.4" rx="8.4" ry="8.3"/>
				<ellipse class="st30" cx="98" cy="65.1" rx="3.3" ry="3.3"/>
				<ellipse class="st30" cx="104.8" cy="65.1" rx="1.8" ry="1.8"/>
			</g>
		</g>
		<g>
			<g>
				<path class="st30" d="M68.5,92.9c0,0,0.9,4.1,1.4,4s1.5-4,1.5-4"/>
				<path class="st26" d="M68.5,92.9l0.6,2.1c0.1,0.3,0.2,0.7,0.3,1c0.1,0.2,0.1,0.3,0.2,0.5c0,0.1,0.1,0.1,0.1,0.2
					c0,0.1,0.1,0.1,0,0.1c0,0,0,0,0,0l0.1-0.1c0-0.1,0.1-0.1,0.1-0.2c0.1-0.2,0.1-0.3,0.2-0.5c0.1-0.3,0.2-0.7,0.4-1l0.7-2.1
					c0,0,0.1-0.1,0.1-0.1c0,0,0.1,0.1,0.1,0.1c-0.1,0.7-0.3,1.4-0.5,2.1c-0.1,0.4-0.2,0.7-0.3,1c-0.1,0.2-0.1,0.3-0.2,0.5
					c-0.1,0.1-0.1,0.2-0.2,0.3L70.1,97c-0.1,0-0.1,0.1-0.2,0.1c-0.3,0-0.3-0.2-0.4-0.2c-0.1-0.1-0.1-0.2-0.1-0.3
					c-0.1-0.2-0.1-0.3-0.2-0.5c-0.1-0.3-0.2-0.7-0.3-1c-0.2-0.7-0.3-1.4-0.4-2.1C68.4,92.9,68.4,92.8,68.5,92.9
					C68.5,92.8,68.5,92.9,68.5,92.9z"/>
			</g>
			<path class="st26" d="M73.8,81.9c-0.1,0.5,0.3,1,0.8,1.3c0.5,0.3,1,0.3,1.6,0.4c1.8,0.1,4.9,0.5,6.5-0.4c1.2-0.7,1.1-1.9,0-2.4
				C81,79.9,74.1,79.4,73.8,81.9z"/>
			<g>
				<path class="st26" d="M78.5,82.6c0.1,1.7,0,3.5-0.5,5.2c-0.2,0.8-0.5,1.7-0.9,2.5c-0.4,0.8-1,1.6-1.9,2c-1.7,0.7-3.4,1-5.2,1
					c-0.9,0-1.7,0-2.6-0.3c-0.4-0.1-0.9-0.3-1.2-0.5c-0.4-0.3-0.7-0.7-0.8-1.1c0-0.1,0-0.2,0.1-0.2c0.1,0,0.2,0,0.2,0.1
					c0.2,0.7,1,1.1,1.8,1.3c0.8,0.2,1.6,0.2,2.5,0.1c1.7-0.1,3.4-0.4,4.8-1.1c1.4-0.6,2-2.4,2.5-3.9c0.5-1.6,0.7-3.3,0.6-5
					c0-0.1,0.1-0.2,0.2-0.2C78.4,82.5,78.5,82.5,78.5,82.6z"/>
			</g>
			<g>
				<path class="st26" d="M78.7,82.7c-0.1,1.7,0.2,3.4,0.6,5c0.5,1.5,1.1,3.3,2.5,3.9c1.4,0.7,3.2,1,4.8,1.1c0.8,0,1.7,0,2.5-0.1
					c0.8-0.2,1.6-0.6,1.8-1.3c0-0.1,0.1-0.2,0.2-0.1c0.1,0,0.2,0.1,0.1,0.2c-0.1,0.5-0.4,0.9-0.8,1.1c-0.4,0.3-0.8,0.4-1.2,0.5
					c-0.9,0.2-1.7,0.3-2.6,0.3c-1.7,0-3.5-0.3-5.2-1c-0.9-0.4-1.5-1.2-1.9-2c-0.4-0.8-0.6-1.6-0.9-2.5c-0.4-1.7-0.6-3.4-0.5-5.2
					c0-0.1,0.1-0.2,0.2-0.2C78.6,82.5,78.7,82.6,78.7,82.7z"/>
			</g>
			<g>
				<g>
					<path class="st26" d="M65.2,83.7c-7.7,0.8-15.3,3.8-21.5,8.5c6.2-4.8,13.6-8,21.4-9c0.1,0,0.3,0.1,0.3,0.2
						C65.5,83.5,65.4,83.6,65.2,83.7C65.2,83.7,65.2,83.7,65.2,83.7z"/>
				</g>
				<g>
					<path class="st26" d="M65,85.6c-4.5,0.4-8.7,2.7-11.6,6.2c2.7-3.7,6.9-6.2,11.5-6.8c0.1,0,0.3,0.1,0.3,0.2
						C65.2,85.4,65.1,85.6,65,85.6C65,85.6,65,85.6,65,85.6z"/>
				</g>
				<g>
					<path class="st26" d="M65,87.2c-4.4,1.7-8.1,5.4-9.9,9.8c1.7-4.5,5.2-8.3,9.7-10.3c0.1-0.1,0.3,0,0.4,0.1
						C65.2,87,65.2,87.1,65,87.2C65,87.2,65,87.2,65,87.2z"/>
				</g>
			</g>
			<g>
				<g>
					<path class="st26" d="M91.8,83.1c7.8,1,15.3,4.2,21.4,9c-6.3-4.7-13.8-7.6-21.5-8.5c-0.1,0-0.3-0.1-0.2-0.3
						C91.5,83.2,91.6,83.1,91.8,83.1C91.8,83.1,91.8,83.1,91.8,83.1z"/>
				</g>
				<g>
					<path class="st26" d="M92,85c4.6,0.6,8.8,3.1,11.5,6.8c-2.8-3.5-7.1-5.8-11.6-6.2c-0.1,0-0.3-0.1-0.2-0.3S91.9,85,92,85
						C92,85,92,85,92,85z"/>
				</g>
				<g>
					<path class="st26" d="M92.1,86.7c4.5,2,8,5.8,9.7,10.3c-1.8-4.4-5.5-8.1-9.9-9.8c-0.1-0.1-0.2-0.2-0.2-0.3
						C91.8,86.7,92,86.6,92.1,86.7C92.1,86.7,92.1,86.7,92.1,86.7z"/>
				</g>
			</g>
		</g>
		<g>
			<path class="st26" d="M74.7,150.7c-0.3-0.1-0.5-0.2-0.6-0.4c-0.1-0.2-0.3-0.3-0.4-0.5c-0.2-0.4-0.3-0.7-0.4-1.1
				c-0.1-0.8-0.2-1.5-0.1-2.3c0-0.1,0.1-0.1,0.1-0.1c0.1,0,0.1,0,0.1,0.1c0.2,0.7,0.4,1.4,0.7,2.1c0.1,0.3,0.2,0.7,0.3,1
				c0.1,0.3,0.2,0.7,0.3,0.8l0.1,0.2C74.9,150.6,74.8,150.6,74.7,150.7C74.7,150.7,74.7,150.7,74.7,150.7z"/>
		</g>
		<g>
			<path class="st26" d="M76.4,150.3c-0.2-0.3-0.4-0.6-0.5-1c-0.1-0.3-0.2-0.7-0.2-1.1c0-0.7,0-1.5,0.2-2.1c0-0.1,0.1-0.1,0.2-0.1
				c0.1,0,0.1,0.1,0.1,0.1c0,0.7,0.1,1.3,0.3,2c0.1,0.3,0.2,0.6,0.2,1c0,0.3,0.1,0.7,0.1,1l0,0c0,0.1-0.1,0.2-0.2,0.2
				C76.5,150.3,76.4,150.3,76.4,150.3z"/>
		</g>
		<g>
			<path class="st26" d="M85.6,150.3c0.1-0.2,0.2-0.5,0.3-0.8c0.1-0.3,0.2-0.7,0.3-1c0.3-0.7,0.4-1.4,0.7-2.1c0-0.1,0.1-0.1,0.2-0.1
				c0.1,0,0.1,0.1,0.1,0.1c0,0.8,0,1.5-0.1,2.3c-0.1,0.4-0.2,0.8-0.4,1.1c-0.1,0.2-0.2,0.3-0.4,0.5c-0.2,0.2-0.3,0.3-0.6,0.4
				c-0.1,0-0.1,0-0.2-0.1c0,0,0-0.1,0-0.1L85.6,150.3z"/>
		</g>
		<g>
			<path class="st26" d="M83.7,150.1c0-0.4,0-0.7,0.1-1c0-0.3,0.1-0.7,0.2-1c0.2-0.7,0.3-1.3,0.3-2c0-0.1,0.1-0.1,0.1-0.1
				c0.1,0,0.1,0,0.1,0.1c0.2,0.7,0.2,1.4,0.2,2.1c0,0.4-0.1,0.7-0.2,1.1c-0.1,0.3-0.3,0.7-0.5,1c-0.1,0.1-0.2,0.1-0.3,0
				C83.7,150.3,83.7,150.2,83.7,150.1L83.7,150.1z"/>
		</g>
	</g>
</g>
<g id="mask" class="st0">
</g>
</svg>
