<?xml version="1.0" encoding="utf-8"?>
<!-- Generator: Adobe Illustrator 21.0.0, SVG Export Plug-In . SVG Version: 6.00 Build 0)  -->
<svg version="1.1" xmlns="http://www.w3.org/2000/svg" xmlns:xlink="http://www.w3.org/1999/xlink" x="0px" y="0px"
	 viewBox="0 0 176.8 172.4" style="enable-background:new 0 0 176.8 172.4;" xml:space="preserve">
<style type="text/css">
	.st0{display:none;}
	.st1{display:inline;fill:#FD9994;}
	.st2{display:inline;fill:#FFFFFF;}
	.st3{display:inline;fill:none;stroke:#FFFFFF;stroke-width:2.2363;stroke-miterlimit:10;}
	.st4{display:inline;}
	.st5{fill:none;stroke:#FFFFFF;stroke-width:2.2363;stroke-miterlimit:10;}
	.st6{fill:#FFB380;}
	.st7{fill:#D2C3DB;}
	.st8{fill:#F9ECDC;}
	.st9{fill:#FFF58B;}
	.st10{fill:#F6BC60;}
	.st11{fill:#ECF784;}
	.st12{fill:#FFDEFF;}
	.st13{fill:#AED5D2;}
	.st14{fill:#F4BD9F;}
	.st15{fill:#B9DCFF;}
	.st16{fill:#D7FFFB;}
	.st17{fill:#81D8F7;}
	.st18{fill:#E57777;}
	.st19{fill:#D9FFDB;}
	.st20{opacity:0.1;}
	.st21{fill:#5CCDFF;}
	.st22{fill:none;}
	.st23{opacity:0.2;fill:#FFFFFF;}
	.st24{opacity:0.1;fill:#002CBF;}
	.st25{fill:#1A1A1A;}
	.st26{fill:#333333;}
	.st27{fill:#FFFFDE;}
	.st28{clip-path:url(#SVGID_4_);}
	.st29{fill:none;stroke:#333333;stroke-width:0.4917;stroke-linecap:round;stroke-linejoin:round;stroke-miterlimit:10;}
	.st30{fill:#FFFFFF;}
	.st31{fill:none;stroke:#333333;stroke-width:0.8543;stroke-miterlimit:10;}
	.st32{clip-path:url(#SVGID_6_);}
	.st33{fill:#FFD7B9;}
	.st34{fill:#F0FFFF;}
	.st35{clip-path:url(#SVGID_8_);}
	.st36{fill:#FF5C5C;}
	.st37{fill:none;stroke:#333333;stroke-width:0.466;stroke-linecap:round;stroke-linejoin:round;stroke-miterlimit:10;}
	.st38{fill:none;stroke:#333333;stroke-width:0.8095;stroke-miterlimit:10;}
	.st39{clip-path:url(#SVGID_10_);}
	.st40{fill:none;stroke:#333333;stroke-width:0.7381;stroke-linecap:round;stroke-linejoin:round;stroke-miterlimit:10;}
	.st41{fill:none;stroke:#333333;stroke-width:0.8857;stroke-linecap:round;stroke-linejoin:round;stroke-miterlimit:10;}
	.st42{fill:none;stroke:#333333;stroke-width:2.6852;stroke-linecap:round;stroke-linejoin:round;stroke-miterlimit:10;}
	.st43{fill:#72B5C4;}
	.st44{fill:#5E96A5;}
	.st45{fill:none;stroke:#FFFFFF;stroke-width:2.6852;stroke-linecap:round;stroke-linejoin:round;stroke-miterlimit:10;}
	.st46{fill:none;stroke:#FFFFFF;stroke-width:1.2942;stroke-linecap:round;stroke-linejoin:round;stroke-miterlimit:10;}
	.st47{fill:none;stroke:#FFFFFF;stroke-width:0.8311;stroke-linecap:round;stroke-linejoin:round;stroke-miterlimit:10;}
	.st48{fill:#FF5C00;}
	.st49{fill:#00B4FF;}
	.st50{fill:#FF5592;}
	.st51{fill:#733FFF;}
	.st52{fill:#DDFF15;}
	.st53{fill:#BF5855;}
	.st54{fill:none;stroke:#333333;stroke-width:0.5718;stroke-miterlimit:10;}
	.st55{fill:#C8F982;}
	.st56{fill:#AEF9C0;}
	.st57{fill:none;stroke:#FFFFFF;stroke-width:1.8326;stroke-miterlimit:10;}
	.st58{fill:#9AF6F9;}
	.st59{fill:#FFACA2;}
	.st60{fill:#F9E582;}
	.st61{fill:#FFC08B;}
	.st62{fill:#EFEB6A;}
	.st63{fill:#EC987F;}
	.st64{fill:#B5FFCC;}
	.st65{fill:#FFEDA2;}
	.st66{fill:#CCE7CC;}
	.st67{fill:#ABE7AB;}
	.st68{fill:#A6A6A6;}
	.st69{clip-path:url(#SVGID_60_);}
	.st70{fill:none;stroke:#333333;stroke-width:0.4706;stroke-linecap:round;stroke-linejoin:round;stroke-miterlimit:10;}
	.st71{fill:#FFEC55;}
	.st72{fill:none;stroke:#333333;stroke-width:0.8177;stroke-miterlimit:10;}
	.st73{clip-path:url(#SVGID_62_);}
	.st74{clip-path:url(#SVGID_64_);}
	.st75{fill:#FF7A59;}
	.st76{clip-path:url(#SVGID_66_);}
	.st77{clip-path:url(#SVGID_68_);}
	.st78{fill:#B45FFF;}
	.st79{clip-path:url(#SVGID_70_);}
	.st80{opacity:0.2;fill:#002CBF;}
	.st81{fill:none;stroke:#333333;stroke-width:0.5506;stroke-linecap:round;stroke-linejoin:round;stroke-miterlimit:10;}
	.st82{clip-path:url(#SVGID_72_);}
	.st83{fill:#EAA871;}
	.st84{fill:#FFD836;}
	.st85{fill:#FF846B;}
	.st86{fill:none;stroke:#333333;stroke-width:0.804;stroke-linecap:round;stroke-linejoin:round;stroke-miterlimit:10;}
	.st87{fill:#FEFF4A;}
	.st88{fill:none;stroke:#333333;stroke-width:0.7645;stroke-linecap:round;stroke-linejoin:round;stroke-miterlimit:10;}
	.st89{fill:none;stroke:#333333;stroke-width:0.7645;stroke-miterlimit:10;}
	.st90{fill:none;stroke:#333333;stroke-width:2.9248;stroke-linecap:round;stroke-linejoin:round;stroke-miterlimit:10;}
	.st91{fill:none;stroke:#333333;stroke-width:0.945;stroke-linecap:round;stroke-linejoin:round;stroke-miterlimit:10;}
	.st92{fill:none;stroke:#333333;stroke-width:0.945;stroke-miterlimit:10;}
	.st93{fill:none;stroke:#333333;stroke-width:3.6155;stroke-linecap:round;stroke-linejoin:round;stroke-miterlimit:10;}
	.st94{fill:none;stroke:#333333;stroke-width:0.6228;stroke-miterlimit:10;}
	.st95{fill:none;stroke:#333333;stroke-width:0.7778;stroke-linecap:round;stroke-linejoin:round;stroke-miterlimit:10;}
	.st96{fill:#FF712A;}
	.st97{fill:none;stroke:#333333;stroke-width:0.7396;stroke-linecap:round;stroke-linejoin:round;stroke-miterlimit:10;}
	.st98{fill:none;stroke:#333333;stroke-width:0.7396;stroke-miterlimit:10;}
	.st99{fill:none;stroke:#333333;stroke-width:2.8295;stroke-linecap:round;stroke-linejoin:round;stroke-miterlimit:10;}
	.st100{fill:none;stroke:#333333;stroke-width:0.9142;stroke-linecap:round;stroke-linejoin:round;stroke-miterlimit:10;}
	.st101{fill:none;stroke:#333333;stroke-width:0.9142;stroke-miterlimit:10;}
	.st102{fill:none;stroke:#333333;stroke-width:3.4977;stroke-linecap:round;stroke-linejoin:round;stroke-miterlimit:10;}
	.st103{fill:none;stroke:#333333;stroke-width:0.6025;stroke-miterlimit:10;}
	.st104{fill:url(#SVGID_89_);}
	.st105{fill:url(#SVGID_90_);}
	.st106{fill:none;stroke:#333333;stroke-width:0.7438;stroke-linecap:round;stroke-linejoin:round;stroke-miterlimit:10;}
	.st107{fill:none;stroke:#333333;stroke-width:0.8926;stroke-linecap:round;stroke-linejoin:round;stroke-miterlimit:10;}
	.st108{clip-path:url(#SVGID_92_);fill:url(#SVGID_93_);}
	.st109{fill:url(#SVGID_94_);}
	.st110{fill:#52C5FF;}
	.st111{fill:none;stroke:#333333;stroke-width:0.6367;stroke-linecap:round;stroke-linejoin:round;stroke-miterlimit:10;}
	.st112{fill:none;stroke:#333333;stroke-width:2.7061;stroke-linecap:round;stroke-linejoin:round;stroke-miterlimit:10;}
	.st113{fill:none;stroke:#333333;stroke-width:0.5763;stroke-miterlimit:10;}
	.st114{fill:none;stroke:#FFFFFF;stroke-width:1.3042;stroke-linecap:round;stroke-linejoin:round;stroke-miterlimit:10;}
	.st115{fill:none;stroke:#FFFFFF;stroke-width:0.8375;stroke-linecap:round;stroke-linejoin:round;stroke-miterlimit:10;}
	.st116{clip-path:url(#SVGID_96_);}
	.st117{opacity:0.2;fill:#2E3192;}
	.st118{fill:#FEFF78;}
	.st119{opacity:0.1;fill:#2E3192;}
	.st120{fill:#FF5A50;}
	.st121{fill:none;stroke:#333333;stroke-width:0.567;stroke-linecap:round;stroke-linejoin:round;stroke-miterlimit:10;}
	.st122{fill:none;stroke:#333333;stroke-width:2.5786;stroke-linecap:round;stroke-linejoin:round;stroke-miterlimit:10;}
	.st123{fill:none;stroke:#333333;stroke-width:0.5491;stroke-miterlimit:10;}
	.st124{clip-path:url(#SVGID_98_);}
	.st125{fill:#2AD2FF;}
	.st126{fill:none;stroke:#333333;stroke-width:0.2435;stroke-miterlimit:10;}
	.st127{fill:#FFFFFF;stroke:#333333;stroke-width:0.487;stroke-linecap:round;stroke-linejoin:round;stroke-miterlimit:10;}
	.st128{clip-path:url(#SVGID_100_);}
	.st129{fill:url(#SVGID_101_);}
	.st130{opacity:0.4;fill:#FFFFFF;}
	.st131{fill:#FFDC48;}
	.st132{fill:none;stroke:#333333;stroke-width:0.5835;stroke-linecap:round;stroke-linejoin:round;stroke-miterlimit:10;}
	.st133{fill:none;stroke:#333333;stroke-width:2.6537;stroke-linecap:round;stroke-linejoin:round;stroke-miterlimit:10;}
	.st134{fill:#F0F462;}
	.st135{fill:url(#SVGID_102_);}
	.st136{fill:url(#SVGID_103_);}
	.st137{fill:#D1DADF;}
	.st138{fill:#57FFA3;}
	.st139{clip-path:url(#SVGID_105_);}
	.st140{clip-path:url(#SVGID_107_);}
	.st141{fill:#D0BBF9;}
	.st142{clip-path:url(#SVGID_109_);}
	.st143{fill:none;stroke:#333333;stroke-width:0.5867;stroke-linecap:round;stroke-linejoin:round;stroke-miterlimit:10;}
	.st144{clip-path:url(#SVGID_111_);}
	.st145{fill:none;stroke:#333333;stroke-width:0.5514;stroke-linecap:round;stroke-linejoin:round;stroke-miterlimit:10;}
	.st146{fill:#D1E9D3;}
	.st147{clip-path:url(#SVGID_113_);}
	.st148{fill:none;stroke:#333333;stroke-width:0.7684;stroke-linecap:round;stroke-linejoin:round;stroke-miterlimit:10;}
	.st149{fill:none;stroke:#333333;stroke-width:0.7684;stroke-miterlimit:10;}
	.st150{fill:none;stroke:#333333;stroke-width:2.9398;stroke-linecap:round;stroke-linejoin:round;stroke-miterlimit:10;}
	.st151{clip-path:url(#SVGID_115_);}
	.st152{fill:#FF66F8;}
	.st153{fill:none;stroke:#333333;stroke-width:0.7542;stroke-linecap:round;stroke-linejoin:round;stroke-miterlimit:10;}
	.st154{fill:none;stroke:#333333;stroke-width:0.9051;stroke-linecap:round;stroke-linejoin:round;stroke-miterlimit:10;}
	.st155{fill:none;stroke:#333333;stroke-width:0.5146;stroke-linecap:round;stroke-linejoin:round;stroke-miterlimit:10;}
	.st156{fill:none;stroke:#333333;stroke-width:0.6033;stroke-linecap:round;stroke-linejoin:round;stroke-miterlimit:10;}
	.st157{fill:none;stroke:#333333;stroke-width:2.7439;stroke-linecap:round;stroke-linejoin:round;stroke-miterlimit:10;}
	.st158{fill:#333333;stroke:#333333;stroke-width:1.0293;stroke-linecap:round;stroke-linejoin:round;stroke-miterlimit:10;}
	.st159{fill:#FF5F2A;}
	.st160{fill:none;stroke:#333333;stroke-width:0.5965;stroke-linecap:round;stroke-linejoin:round;stroke-miterlimit:10;}
	.st161{fill:#F9CC3E;}
	.st162{clip-path:url(#SVGID_121_);}
	.st163{fill:#70E1FF;}
	.st164{fill:none;stroke:#333333;stroke-width:0.5717;stroke-linecap:round;stroke-linejoin:round;stroke-miterlimit:10;}
	.st165{fill:none;stroke:#333333;stroke-width:2.6004;stroke-linecap:round;stroke-linejoin:round;stroke-miterlimit:10;}
	.st166{clip-path:url(#SVGID_123_);}
	.st167{fill:#8F61FF;}
	.st168{clip-path:url(#SVGID_125_);}
	.st169{clip-path:url(#SVGID_127_);}
	.st170{fill:#FFEBEB;}
	.st171{clip-path:url(#SVGID_129_);}
	.st172{clip-path:url(#SVGID_131_);}
	.st173{fill:#F47D62;}
	.st174{fill:none;stroke:#333333;stroke-width:0.7188;stroke-linecap:round;stroke-linejoin:round;stroke-miterlimit:10;}
	.st175{fill:none;stroke:#333333;stroke-width:0.7188;stroke-miterlimit:10;}
	.st176{fill:none;stroke:#333333;stroke-width:2.7502;stroke-linecap:round;stroke-linejoin:round;stroke-miterlimit:10;}
	.st177{fill:#85ACB5;}
	.st178{clip-path:url(#SVGID_133_);}
	.st179{fill:#D5F2F7;}
	.st180{fill:#FF694A;}
	.st181{fill:none;stroke:#333333;stroke-width:0.5693;stroke-linecap:round;stroke-linejoin:round;stroke-miterlimit:10;}
	.st182{fill:#FFDF15;}
	.st183{fill:none;stroke:#333333;stroke-width:0.6674;stroke-linecap:round;stroke-linejoin:round;stroke-miterlimit:10;}
	.st184{fill:none;stroke:#333333;stroke-width:3.0352;stroke-linecap:round;stroke-linejoin:round;stroke-miterlimit:10;}
	.st185{clip-path:url(#SVGID_135_);}
	.st186{clip-path:url(#SVGID_137_);}
	.st187{fill:none;stroke:#333333;stroke-width:0.5248;stroke-linecap:round;stroke-linejoin:round;stroke-miterlimit:10;}
	.st188{fill:#FFD33A;}
	.st189{fill:none;stroke:#333333;stroke-width:2.7983;stroke-linecap:round;stroke-linejoin:round;stroke-miterlimit:10;}
	.st190{fill:none;stroke:#333333;stroke-width:0.7692;stroke-linecap:round;stroke-linejoin:round;stroke-miterlimit:10;}
	.st191{fill:none;stroke:#333333;stroke-width:0.5959;stroke-miterlimit:10;}
	.st192{clip-path:url(#SVGID_143_);}
	.st193{fill:#FFE267;}
	.st194{clip-path:url(#SVGID_149_);}
	.st195{fill:#FFEEAA;}
	.st196{opacity:0.7;fill:url(#SVGID_152_);}
	.st197{fill:none;stroke:#333333;stroke-width:0.611;stroke-miterlimit:10;}
	.st198{clip-path:url(#SVGID_154_);}
	.st199{opacity:0.7;fill:url(#SVGID_157_);}
	.st200{fill:#EABBFC;}
	.st201{opacity:0.7;fill:url(#SVGID_160_);}
	.st202{opacity:0.7;fill:url(#SVGID_163_);}
	.st203{opacity:0.7;fill:url(#SVGID_166_);}
	.st204{opacity:0.7;fill:url(#SVGID_169_);}
	.st205{clip-path:url(#SVGID_171_);}
	.st206{fill:none;stroke:#333333;stroke-width:0.5899;stroke-linecap:round;stroke-linejoin:round;stroke-miterlimit:10;}
	.st207{fill:none;stroke:#333333;stroke-width:2.6828;stroke-linecap:round;stroke-linejoin:round;stroke-miterlimit:10;}
	.st208{fill:none;stroke:#333333;stroke-width:0.5713;stroke-miterlimit:10;}
	.st209{clip-path:url(#SVGID_173_);}
	.st210{clip-path:url(#SVGID_175_);}
	.st211{clip-path:url(#SVGID_177_);}
	.st212{fill:#FFAFC3;}
	.st213{fill:#A0D3FF;}
	.st214{fill:none;stroke:#333333;stroke-width:0.7262;stroke-linecap:round;stroke-linejoin:round;stroke-miterlimit:10;}
	.st215{fill:none;stroke:#333333;stroke-width:0.6906;stroke-miterlimit:10;}
	.st216{fill:none;stroke:#333333;stroke-width:0.8536;stroke-miterlimit:10;}
	.st217{fill:#333333;stroke:#333333;stroke-width:0.991;stroke-linecap:round;stroke-linejoin:round;stroke-miterlimit:10;}
	.st218{clip-path:url(#SVGID_179_);}
	.st219{clip-path:url(#SVGID_181_);}
	.st220{fill:#FD9994;}
	.st221{opacity:0.2;}
	.st222{fill:#2E3192;}
	.st223{display:inline;fill:#FF5B00;}
</style>
<g id="site">
</g>
<g id="kitties">
	<g>
		<g>
			<path class="st36" d="M136.8,103.1c0,0-8.8-1.8-13.4,10.7c-4.7,12.5-4.8,15.3-18.8,17.4l1.9,12.2c0,0,12.3,5,22.3,0.1
				c10-4.8,8.1-15.5,8.2-18.3c0-0.4-0.2,1.5-1.2,2.8c-1.2,1.6-2.8,2.7-2.4,2c2.2-4.2,2.7-12.7,2.7-12.7
				C135,111.6,134.5,105.3,136.8,103.1z"/>
			<path class="st24" d="M124,112.1c0,0,0.3,11.4-5.1,15.8c-5.9,4.7-11.2,2.9-11.2,2.9s6.8-1.1,10-4.6
				C122.2,121.5,124,112.1,124,112.1z"/>
			<g>
				<path class="st26" d="M136.8,103.5c-3.7-0.1-7.6,1.5-10,4.4c-1.2,1.5-2,3.2-2.6,5c-0.6,1.8-1.2,3.7-1.8,5.5
					c-0.6,1.8-1.3,3.7-2.4,5.4c-1,1.7-2.4,3.2-4.1,4.3c-1.7,1.1-3.5,1.8-5.4,2.3c-1.9,0.5-3.8,0.8-5.8,1c-0.1,0-0.2-0.1-0.2-0.2
					c0-0.1,0.1-0.2,0.2-0.2c1.9-0.2,3.8-0.6,5.7-1.1c1.9-0.5,3.7-1.3,5.2-2.3c1.6-1.1,2.9-2.5,3.8-4.1c1-1.6,1.6-3.5,2.2-5.3
					c0.6-1.8,1.2-3.7,1.8-5.6c0.6-1.9,1.5-3.7,2.8-5.2c2.6-3.1,6.6-4.8,10.6-4.6c0.2,0,0.3,0.2,0.3,0.4
					C137.2,103.4,137,103.5,136.8,103.5L136.8,103.5z"/>
			</g>
			<g>
				<path class="st26" d="M137.3,124.6c0.5,4,0.3,8.2-1.3,12.1c-0.8,1.9-2,3.7-3.5,5.1c-0.8,0.7-1.7,1.3-2.6,1.7
					c-0.9,0.5-1.9,0.8-2.9,1.2c-3.9,1.3-8.1,1.6-12.1,1.1c-4-0.5-8-1.7-11.6-3.5c-0.1,0-0.1-0.2-0.1-0.2c0-0.1,0.1-0.1,0.2-0.1l0,0
					c3.6,1.8,7.5,2.9,11.5,3.3c4,0.4,8.1,0.1,11.8-1.2c3.8-1.2,7-3.9,8.6-7.6c1.6-3.6,1.9-7.8,1.6-11.7c0-0.1,0.1-0.2,0.2-0.2
					C137.2,124.4,137.3,124.5,137.3,124.6z"/>
			</g>
			<g>
				<path class="st26" d="M137.1,103.4c-0.6,0.9-1,2-1.2,3.1c-0.2,1.1-0.3,2.3-0.4,3.4c0,1.2,0.1,2.3,0.2,3.5
					c0.2,1.1,0.4,2.3,0.5,3.5c0.4,4.8-0.6,9.6-3,13.7c0,0.1-0.2,0.1-0.2,0.1c-0.1,0-0.1-0.2-0.1-0.2c2.2-4.1,3-8.9,2.5-13.5
					c-0.1-1.2-0.3-2.3-0.5-3.5c-0.1-1.2-0.2-2.4-0.2-3.6c0-1.2,0.1-2.4,0.4-3.6c0.3-1.2,0.7-2.3,1.4-3.4c0.1-0.2,0.3-0.2,0.5-0.1
					C137.2,102.9,137.2,103.2,137.1,103.4L137.1,103.4z"/>
			</g>
			<g>
				<path class="st26" d="M137.3,124.7c-0.1,1.3-0.6,2.4-1.3,3.5c-0.3,0.5-0.8,1-1.2,1.5c-0.5,0.4-1,0.8-1.6,1c-0.1,0-0.2,0-0.2-0.1
					c0-0.1,0-0.2,0.1-0.2l0,0c0.5-0.3,1-0.7,1.4-1.1c0.4-0.4,0.8-0.9,1.1-1.4c0.6-1,1.1-2.1,1.5-3.2l0,0c0-0.1,0.1-0.1,0.2-0.1
					C137.2,124.5,137.3,124.6,137.3,124.7z"/>
			</g>
			<path class="st24" d="M132.9,130.5l-0.9,1.9c-0.2,0.4,0.2,0.8,0.6,0.6c1.5-0.8,4-2.9,4.4-7.7C137,125.2,135.6,129.7,132.9,130.5z
				"/>
		</g>
		<path class="st36" d="M37.2,51.7c0,0-38.7-31.9,24.4-12.9"/>
		<path class="st36" d="M118.6,51.7c0,0,38.7-31.9-24.4-12.9L118.6,51.7z"/>
		<g>
			<g>
				<path class="st26" d="M37.1,51.9c-3.7-3.1-7.3-6.5-10.1-10.6c-0.7-1-1.3-2.1-1.7-3.4c-0.2-0.6-0.3-1.3-0.2-2
					c0.1-0.7,0.4-1.4,0.9-1.9c0.5-0.5,1.1-0.9,1.7-1.1c0.6-0.3,1.2-0.4,1.8-0.5c1.2-0.2,2.5-0.3,3.7-0.2c4.9,0.2,9.7,1.2,14.5,2.3
					c4.7,1.2,9.4,2.6,14,4c0.1,0,0.1,0.1,0.1,0.2c0,0.1-0.1,0.1-0.2,0.1c-4.7-1.3-9.4-2.6-14.1-3.6c-2.4-0.5-4.7-1-7.1-1.4
					c-2.4-0.4-4.8-0.7-7.2-0.7c-1.2,0-2.4,0-3.5,0.2c-1.1,0.2-2.3,0.5-3,1.3c-0.8,0.7-0.8,1.9-0.5,3c0.3,1.1,0.9,2.2,1.5,3.2
					c1.3,2,2.9,3.8,4.5,5.6c1.7,1.8,3.4,3.4,5.2,5l0,0c0.1,0.1,0.1,0.3,0,0.4C37.3,51.9,37.2,51.9,37.1,51.9z"/>
			</g>
			<g>
				<path class="st26" d="M53.1,40.9c-2-0.5-4-0.9-6.1-1.2c-2-0.3-4.1-0.6-6.1-0.8c-2.1-0.2-4.1-0.4-6.2-0.5c-2.1-0.1-4.1-0.1-6.2,0
					c-0.1,0-0.2-0.1-0.2-0.2c0-0.1,0.1-0.2,0.2-0.2c2.1-0.2,4.2-0.4,6.2-0.4c2.1,0,4.2,0,6.3,0.3c2.1,0.3,4.1,0.6,6.2,1
					c2,0.4,4,1,6,1.7c0.1,0,0.1,0.1,0.1,0.2C53.2,40.9,53.1,40.9,53.1,40.9z"/>
			</g>
			<path class="st26" d="M42.6,47.1c0.6,0.1,1.2,0.2,1.8,0.1c0.6-0.1,1.1-0.5,1.6-0.8c2-1.4,3.9-2.8,5.8-4.4
				c0.3-0.2,0.6-0.5,0.5-0.8c0-0.2,3.7,0.5,1-0.2c-1-0.3-3.1-1.1-4.2-1.3c-4.4-0.8-8.9-1.4-13.4-1.8c-4.8-0.4,0.2,5.5,1.7,6.8
				C38.9,45.8,40.7,46.7,42.6,47.1z"/>
		</g>
		<g>
			<g>
				<path class="st26" d="M118.5,51.5c1.8-1.6,3.6-3.3,5.2-5c1.7-1.7,3.3-3.6,4.5-5.6c0.6-1,1.2-2.1,1.5-3.2c0.3-1.1,0.3-2.3-0.5-3
					c-0.7-0.8-1.9-1.1-3-1.3c-1.2-0.2-2.3-0.2-3.5-0.2c-2.4,0.1-4.8,0.4-7.2,0.7c-2.4,0.4-4.8,0.8-7.1,1.4c-4.7,1-9.4,2.3-14.1,3.6
					c-0.1,0-0.2,0-0.2-0.1c0-0.1,0-0.2,0.1-0.2c4.6-1.5,9.3-2.8,14-4c4.7-1.1,9.5-2.2,14.5-2.3c1.2,0,2.5,0,3.7,0.2
					c0.6,0.1,1.2,0.3,1.8,0.5c0.6,0.2,1.2,0.6,1.7,1.1c0.5,0.5,0.8,1.2,0.9,1.9c0.1,0.7,0,1.3-0.2,2c-0.4,1.2-1,2.3-1.7,3.4
					c-2.8,4.1-6.4,7.4-10.1,10.6c-0.1,0.1-0.3,0.1-0.4,0C118.3,51.7,118.3,51.6,118.5,51.5L118.5,51.5z"/>
			</g>
			<g>
				<path class="st26" d="M102.7,40.7c2-0.7,4-1.2,6-1.7c2-0.5,4.1-0.8,6.2-1c2.1-0.3,4.2-0.3,6.3-0.3c2.1,0,4.2,0.1,6.2,0.4
					c0.1,0,0.2,0.1,0.2,0.2c0,0.1-0.1,0.2-0.2,0.2c-2.1-0.1-4.1-0.1-6.2,0c-2.1,0.1-4.1,0.3-6.2,0.5c-2.1,0.2-4.1,0.4-6.1,0.8
					c-2,0.3-4.1,0.7-6.1,1.2c-0.1,0-0.1,0-0.1-0.1C102.6,40.7,102.7,40.7,102.7,40.7z"/>
			</g>
			<path class="st26" d="M113.3,47.1c-0.6,0.1-1.2,0.2-1.8,0.1c-0.6-0.1-1.1-0.5-1.6-0.8c-2-1.4-3.9-2.8-5.8-4.4
				c-0.3-0.2-0.6-0.5-0.5-0.8c0-0.2,0.1-0.3,0.3-0.4c0.8-0.7,1.9-0.9,2.9-1.1c4.4-0.8,8.9-1.4,13.4-1.8c4.8-0.4-0.2,5.5-1.7,6.8
				C117,45.8,115.2,46.7,113.3,47.1z"/>
		</g>
		<path class="st55" d="M126.8,84c0,0,1.2-5.4-1.5-13.2c-1.6-4.5-5.2-8.5-7.7-11.2c0,0,4.4,2.6,7.4,6.2c0,0-2.1-9-7.3-14.4
			c-4.5-4.6-9-5.9-9-5.9s5.6,0.9,8.6,1.8c0,0-2.3-2.8-8.7-5.5c-6.5-2.7-8.7-2.4-8.7-2.4s2.9-0.9,6.9-0.5c0,0-1.6-2.2-7-3
			c-5.4-0.8-12.4,0.1-12.4,0.1s4.1-2.6,10.9-2.9c0,0-3.7-2.8-9.3-2.6c-5.6,0.2-10.4,3.9-10.4,3.9s-5.1-3.2-9.8-3.9
			c-4.6-0.7-8.7,0.7-10,1.6c0,0,6.6,0.6,10.9,3.2c0,0-6.4-0.6-10.7-0.4c-4.3,0.2-7.4,0.9-9.1,2.6c0,0,4.7-0.2,6.7,0.6
			c0,0-7.2,1.3-10.7,3c-3.3,1.6-4.7,2.2-6.5,3.9c0,0,6-1.2,8.1-1.2c0,0-6.5,3.4-8.9,6c-2.4,2.6-4.9,6.2-6,8.6
			c-1.1,2.4-2.1,4.8-2.1,4.8s4.9-4.6,7.2-5.4c0,0-4.9,5.1-6.2,7.6c-1,1.8-3,5.5-3.8,11.8c-0.5,3.6-0.1,4-0.2,4.2
			c0.2-0.4,3.1-4.9,4.1-5.4c0,0-2.1,6.7-1.7,11.3c0.4,5.2,3.3,11,3.3,11s0.8-5.8,1.4-6.8c0,0-0.3,4,1.2,8.6c1.5,4.6,3.3,6.3,3.3,6.3
			s0.5-0.4,0.7-3.3l0.5-3.4c0,0,1.6,4.2,3.8,7.5s3.3,4,3.3,4s5.1-2.7,9-7.4l0.9,1.6c-1.2,3.7-6.2,14.5-8.5,21.3
			c-2.7,8.3-4.5,13.8-2.5,19.2c2.1,5.4,7.7,6.5,15,6.8l0.1,1.4c0,0-2.9,1-1.7,2.8c1.1,1.8,3.9,1.6,4.5,0.9c0.6-0.7,2.1-5.2,2.1-5.2
			l10,0.1l12.2-0.1h2c0,0,1.1,4.9,1.9,5.3c0.8,0.4,3.3,0.2,3.7-0.3c0.5-0.5,1-1.7,0.4-2.4c-0.7-0.7-1.4-1.2-1.4-1.2l-0.1-1.4
			c0,0,7.5-0.3,10.1-1.4c2.5-1.1,5-4.6,5.4-6.5s0.4-5.8-0.1-7.6c-0.5-1.8-2.4-8.9-2.4-8.9l-3.1-9.7l-3.7-8.9c0.2-0.7,1.4,1,4.8,3.1
			c0,0,6.1-5.8,7.7-11.3c0,0,0,5,0.7,7.3c0,0,3-3.1,4.5-9.2c0.7-2.8,0.6-4.9,0.6-5.7l1,7.2c0,0,3.4-6.8,4.1-12.1
			c0.5-3.9-1.5-10.6-1.5-10.6S125.1,80.2,126.8,84z"/>
		<g>
			<defs>
				<path id="SVGID_97_" d="M126.8,84c0,0,1.2-5.4-1.5-13.2c-1.6-4.5-5.2-8.5-7.7-11.2c0,0,4.4,2.6,7.4,6.2c0,0-2.1-9-7.3-14.4
					c-4.5-4.6-9-5.9-9-5.9s5.6,0.9,8.6,1.8c0,0-2.3-2.8-8.7-5.5c-6.5-2.7-8.7-2.4-8.7-2.4s2.9-0.9,6.9-0.5c0,0-1.6-2.2-7-3
					c-5.4-0.8-12.4,0.1-12.4,0.1s4.1-2.6,10.9-2.9c0,0-3.7-2.8-9.3-2.6c-5.6,0.2-10.4,3.9-10.4,3.9s-5.1-3.2-9.8-3.9
					c-4.6-0.7-8.7,0.7-10,1.6c0,0,6.6,0.6,10.9,3.2c0,0-6.4-0.6-10.7-0.4c-4.3,0.2-7.4,0.9-9.1,2.6c0,0,4.7-0.2,6.7,0.6
					c0,0-7.2,1.3-10.7,3c-3.3,1.6-4.7,2.2-6.5,3.9c0,0,6-1.2,8.1-1.2c0,0-6.5,3.4-8.9,6c-2.4,2.6-4.9,6.2-6,8.6
					c-1.1,2.4-2.1,4.8-2.1,4.8s4.9-4.6,7.2-5.4c0,0-4.9,5.1-6.2,7.6c-1,1.8-3,5.5-3.8,11.8c-0.5,3.6-0.1,4-0.2,4.2
					c0.2-0.4,3.1-4.9,4.1-5.4c0,0-2.1,6.7-1.7,11.3c0.4,5.2,3.3,11,3.3,11s0.8-5.8,1.4-6.8c0,0-0.3,4,1.2,8.6
					c1.5,4.6,3.3,6.3,3.3,6.3s0.5-0.4,0.7-3.3l0.5-3.4c0,0,1.6,4.2,3.8,7.5s3.3,4,3.3,4s5.1-2.7,9-7.4l0.9,1.6
					c-1.2,3.7-6.2,14.5-8.5,21.3c-2.7,8.3-4.5,13.8-2.5,19.2c2.1,5.4,7.7,6.5,15,6.8l0.1,1.4c0,0-2.9,1-1.7,2.8
					c1.1,1.8,3.9,1.6,4.5,0.9c0.6-0.7,2.1-5.2,2.1-5.2l10,0.1l12.2-0.1h2c0,0,1.1,4.9,1.9,5.3c0.8,0.4,3.3,0.2,3.7-0.3
					c0.5-0.5,1-1.7,0.4-2.4c-0.7-0.7-1.4-1.2-1.4-1.2l-0.1-1.4c0,0,7.5-0.3,10.1-1.4c2.5-1.1,5-4.6,5.4-6.5s0.4-5.8-0.1-7.6
					c-0.5-1.8-2.4-8.9-2.4-8.9l-3.1-9.7l-3.7-8.9c0.2-0.7,1.4,1,4.8,3.1c0,0,6.1-5.8,7.7-11.3c0,0,0,5,0.7,7.3c0,0,3-3.1,4.5-9.2
					c0.7-2.8,0.6-4.9,0.6-5.7l1,7.2c0,0,3.4-6.8,4.1-12.1c0.5-3.9-1.5-10.6-1.5-10.6S125.1,80.2,126.8,84z"/>
			</defs>
			<clipPath id="SVGID_2_">
				<use xlink:href="#SVGID_97_"  style="overflow:visible;"/>
			</clipPath>
			<g style="clip-path:url(#SVGID_2_);">
				<g>
					<path class="st36" d="M95.8,48L95.8,48c-1.5-0.4-2.8-1.1-3.9-1.9c-0.8-0.6-1.4-1.3-2-2c-0.1-0.1-0.2-0.1-0.3-0.1l-3.8,2.4
						c-0.2,0.1-0.2,0.3,0,0.4l0,0c1.6,0.9,3.3,1.5,5,1.8c0.9,0.1,1.7,0.2,2.6,0.2c0.8,0,1.7-0.1,2.4-0.3c0.1,0,0.2-0.2,0.2-0.3
						C96,48.1,95.9,48,95.8,48z"/>
				</g>
				<g>
					<path class="st36" d="M103.7,47.8L103.7,47.8c-1-0.4-1.9-0.9-2.7-1.5c-0.8-0.6-1.5-1.3-2.1-2c-1.1-1.4-1.8-2.9-2.3-4.5
						c0-0.2-0.2-0.2-0.4-0.1l-4.7,3.1c-0.1,0.1-0.2,0.3,0,0.4c0.7,0.8,1.5,1.5,2.3,2.1c1,0.8,2,1.4,3.2,1.9c1.1,0.5,2.3,0.9,3.4,1.1
						c1.2,0.2,2.3,0.2,3.4,0.2c0.1,0,0.3-0.1,0.3-0.3C103.9,48,103.8,47.9,103.7,47.8z"/>
				</g>
			</g>
			<g style="clip-path:url(#SVGID_2_);">
				<g>
					<path class="st36" d="M59.8,48L59.8,48c1.5-0.4,2.8-1.1,3.9-1.9c0.8-0.6,1.4-1.3,2-2c0.1-0.1,0.2-0.1,0.3-0.1l3.8,2.4
						c0.2,0.1,0.2,0.3,0,0.4l0,0c-1.6,0.9-3.3,1.5-5,1.8c-0.9,0.1-1.7,0.2-2.6,0.2c-0.8,0-1.7-0.1-2.4-0.3c-0.1,0-0.2-0.2-0.2-0.3
						C59.5,48.1,59.6,48,59.8,48z"/>
				</g>
				<g>
					<path class="st36" d="M51.8,47.8L51.8,47.8c1-0.4,1.9-0.9,2.7-1.5c0.8-0.6,1.5-1.3,2.1-2c1.1-1.4,1.8-2.9,2.3-4.5
						c0-0.2,0.2-0.2,0.4-0.1l4.7,3.1c0.1,0.1,0.2,0.3,0,0.4c-0.7,0.8-1.5,1.5-2.3,2.1c-1,0.8-2,1.4-3.2,1.9
						c-1.1,0.5-2.3,0.9-3.4,1.1c-1.2,0.2-2.3,0.2-3.4,0.2c-0.1,0-0.3-0.1-0.3-0.3C51.6,48,51.7,47.9,51.8,47.8z"/>
				</g>
			</g>
			<g style="clip-path:url(#SVGID_2_);">
				<g>
					<path class="st36" d="M87.9,117.4c0.9,0,1.6,0,2.4,0c0.8,0,1.5,0,2.3,0c0.4,0,0.7,0,1.1,0c0.2,0,0.4,0,0.6,0c0.1,0,0.2,0,0.3,0
						l0.3,0c0.8,0,1.5-0.1,2.4,0c-0.2,0.2-0.3,0.3-0.5,0.4c-0.1,0.1-0.2,0.1-0.3,0.2c-0.1,0.1-0.2,0.1-0.3,0.2
						c-0.2,0.1-0.4,0.2-0.6,0.3c-0.1,0.1-0.2,0.1-0.3,0.1c-0.1,0-0.2,0.1-0.3,0.1l-0.3,0.1c-0.1,0-0.2,0.1-0.3,0.1
						c-0.2,0-0.4,0.1-0.6,0.1c-0.4,0.1-0.8,0.1-1.3,0.1c-0.8,0-1.7-0.1-2.5-0.4c-0.2-0.1-0.4-0.2-0.6-0.2c-0.2-0.1-0.4-0.2-0.6-0.3
						c-0.2-0.1-0.4-0.2-0.5-0.3C88.2,117.7,88,117.6,87.9,117.4z"/>
				</g>
				<g>
					<path class="st36" d="M92.3,122.1c0.6,0.1,1.3,0.2,2,0.3c0.7,0,1.3,0,1.9,0c1.3-0.1,2.5-0.3,3.7-0.6c0.6-0.2,1.2-0.3,1.8-0.5
						c0.3-0.1,0.6-0.2,0.9-0.3c0.3-0.1,0.6-0.2,0.8-0.4c1.1-0.5,2.1-1.1,3.1-1.8c1.4-1,3.2-0.6,4.2,0.7c1,1.4,0.6,3.2-0.7,4.2
						c-0.3,0.2-0.7,0.4-1,0.5l-0.1,0c-1.4,0.4-2.9,0.6-4.4,0.7c-0.4,0-0.7,0-1.1,0.1c-0.4,0-0.7,0-1.1,0c-0.7,0-1.4-0.1-2.1-0.2
						c-1.4-0.2-2.8-0.5-4.1-0.9c-0.7-0.2-1.3-0.5-1.9-0.8C93.5,122.8,92.9,122.5,92.3,122.1z"/>
				</g>
				<g>
					<path class="st36" d="M96.9,129.4c1.2,0,2.4,0,3.6-0.1c1.2-0.1,2.3-0.2,3.3-0.4l0.4-0.1l0.4-0.1c0.1,0,0.3-0.1,0.4-0.1l0.2,0
						l0.2,0c0.5-0.1,1-0.3,1.5-0.4c0.5-0.2,0.9-0.4,1.4-0.6c0.4-0.2,0.9-0.4,1.3-0.6l0.1-0.1c0.9-0.5,2.1-0.1,2.5,0.9
						c0.4,0.8,0.1,1.8-0.6,2.3c-1.1,0.8-2.4,1.4-3.8,1.7c-0.7,0.1-1.3,0.2-2,0.3c-0.2,0-0.3,0-0.5,0c-0.2,0-0.3,0-0.5,0l-0.5,0
						c-0.2,0-0.3,0-0.5,0c-1.3-0.1-2.5-0.4-3.7-0.9C99,130.8,97.9,130.2,96.9,129.4z"/>
				</g>
				<g>
					<path class="st36" d="M105.4,142c0.7-0.1,1.3-0.1,1.9-0.2c0.6-0.1,1.1-0.2,1.6-0.3c0.5-0.1,0.9-0.2,1.3-0.3
						c0.1,0,0.2-0.1,0.3-0.1c0.1,0,0.2-0.1,0.3-0.1c0,0,0.1,0,0.1,0c0,0,0.1,0,0.1,0c0.1,0,0.2,0,0.3-0.1l0.5,0c1-0.1,1.9,0.7,2,1.8
						c0,0.7-0.4,1.4-1,1.7c-0.2,0.1-0.3,0.2-0.5,0.2c-0.1,0-0.2,0.1-0.3,0.1c-0.1,0-0.2,0-0.3,0.1c-0.2,0-0.4,0.1-0.6,0.1
						c-0.2,0-0.4,0-0.6,0c-0.8,0-1.5-0.1-2.2-0.4c-0.7-0.2-1.3-0.6-1.8-1C106.2,143.2,105.7,142.7,105.4,142z"/>
				</g>
				<g>
					<path class="st36" d="M101.3,135.4c0.6,0.1,1.1,0.3,1.6,0.4c0.5,0.1,1,0.2,1.4,0.3c0.5,0.1,0.9,0.2,1.4,0.2
						c0.5,0.1,1,0.1,1.6,0.1c-0.4,0.5-0.9,0.8-1.5,0.9l-0.2,0.1c-0.1,0-0.1,0-0.2,0c-0.1,0-0.3,0-0.4,0c-0.3,0-0.6,0-0.9-0.1
						c-0.6-0.1-1.1-0.4-1.6-0.7c-0.2-0.2-0.5-0.4-0.6-0.6C101.6,135.9,101.4,135.7,101.3,135.4z"/>
				</g>
				<g>
					<path class="st36" d="M102.2,112.6c-0.4-0.8-0.7-1.5-1-2.3c-0.1-0.2-0.1-0.5-0.3-0.7c-0.1-0.2-0.3-0.3-0.4-0.4
						c-0.5,0.4-1,0.8-1.5,1.2c-1,0.7-2.1,1.4-3.3,2c-1.2,0.6-2.4,1.1-3.7,1.4c-1.3,0.4-2.6,0.7-4,0.8l0,0c0,0,0,0,0,0c0,0,0,0,0,0
						c1.3,0.4,2.7,0.5,4.1,0.6c1.4,0.1,2.9,0,4.3-0.1c1.4-0.2,2.9-0.5,4.3-0.9c0.6-0.2,1.3-0.4,1.9-0.7
						C102.5,113.3,102.4,113,102.2,112.6z"/>
				</g>
			</g>
			<g style="clip-path:url(#SVGID_2_);">
				<g>
					<path class="st36" d="M67.2,117.4c-0.2,0.2-0.3,0.3-0.5,0.4c-0.2,0.1-0.4,0.2-0.5,0.3c-0.2,0.1-0.4,0.2-0.6,0.3
						c-0.2,0.1-0.4,0.2-0.6,0.2c-0.8,0.3-1.6,0.4-2.5,0.4c-0.4,0-0.9,0-1.3-0.1c-0.2,0-0.4-0.1-0.6-0.1c-0.1,0-0.2,0-0.3-0.1
						l-0.3-0.1c-0.1,0-0.2-0.1-0.3-0.1c-0.1,0-0.2-0.1-0.3-0.1c-0.2-0.1-0.4-0.2-0.6-0.3c-0.1-0.1-0.2-0.1-0.3-0.2
						c-0.1-0.1-0.2-0.1-0.3-0.2c-0.2-0.1-0.3-0.3-0.5-0.4c0.9,0,1.6,0,2.4,0l0.3,0c0.1,0,0.2,0,0.3,0c0.2,0,0.4,0,0.6,0
						c0.4,0,0.7,0,1.1,0c0.7,0,1.5,0,2.3,0C65.6,117.4,66.3,117.4,67.2,117.4z"/>
				</g>
				<g>
					<path class="st36" d="M62.8,122.1c-0.6,0.4-1.2,0.7-1.8,1c-0.6,0.3-1.3,0.5-1.9,0.8c-1.3,0.4-2.7,0.7-4.1,0.9
						c-0.7,0.1-1.4,0.1-2.1,0.2c-0.4,0-0.7,0-1.1,0c-0.4,0-0.7,0-1.1-0.1c-1.5-0.1-2.9-0.3-4.4-0.7l-0.1,0c-1.6-0.4-2.6-2-2.2-3.6
						c0.4-1.6,2-2.6,3.6-2.2c0.4,0.1,0.7,0.3,1,0.5c1,0.7,2,1.3,3.1,1.8c0.3,0.1,0.5,0.2,0.8,0.4c0.3,0.1,0.6,0.2,0.9,0.3
						c0.6,0.2,1.2,0.4,1.8,0.5c1.2,0.3,2.5,0.5,3.7,0.6c0.6,0,1.3,0,1.9,0C61.5,122.3,62.1,122.2,62.8,122.1z"/>
				</g>
				<g>
					<path class="st36" d="M58.2,129.4c-1,0.8-2.1,1.4-3.3,1.8c-1.2,0.4-2.4,0.7-3.7,0.9c-0.2,0-0.3,0-0.5,0l-0.5,0
						c-0.2,0-0.3,0-0.5,0c-0.2,0-0.3,0-0.5,0c-0.7,0-1.3-0.1-2-0.3c-1.3-0.3-2.6-0.8-3.8-1.7c-0.8-0.6-1-1.8-0.4-2.7
						c0.6-0.7,1.5-1,2.3-0.6l0.1,0.1c0.4,0.2,0.9,0.4,1.3,0.6c0.4,0.2,0.9,0.4,1.4,0.6c0.5,0.2,1,0.3,1.5,0.4l0.2,0l0.2,0
						c0.1,0,0.3,0.1,0.4,0.1l0.4,0.1l0.4,0.1c1.1,0.2,2.2,0.3,3.3,0.4C55.7,129.4,56.9,129.4,58.2,129.4z"/>
				</g>
				<g>
					<path class="st36" d="M49.6,142c-0.3,0.6-0.8,1.2-1.3,1.6c-0.5,0.4-1.1,0.8-1.8,1c-0.7,0.3-1.4,0.4-2.2,0.4c-0.2,0-0.4,0-0.6,0
						c-0.2,0-0.4-0.1-0.6-0.1c-0.1,0-0.2,0-0.3-0.1c-0.1,0-0.2-0.1-0.3-0.1c-0.2-0.1-0.4-0.2-0.5-0.2c-0.9-0.5-1.2-1.6-0.7-2.6
						c0.4-0.6,1-1,1.7-1l0.5,0c0.1,0,0.2,0,0.3,0.1c0,0,0.1,0,0.1,0c0,0,0.1,0,0.1,0c0.1,0,0.2,0.1,0.3,0.1c0.1,0,0.2,0,0.3,0.1
						c0.4,0.1,0.8,0.2,1.3,0.3c0.5,0.1,1,0.2,1.6,0.3C48.3,141.9,48.9,142,49.6,142z"/>
				</g>
				<g>
					<path class="st36" d="M53.7,135.4c-0.1,0.3-0.3,0.5-0.5,0.8c-0.2,0.2-0.4,0.4-0.6,0.6c-0.5,0.3-1,0.6-1.6,0.7
						c-0.3,0.1-0.6,0.1-0.9,0.1c-0.2,0-0.3,0-0.4,0c-0.1,0-0.1,0-0.2,0l-0.2-0.1c-0.6-0.2-1.1-0.5-1.5-0.9c0.6-0.1,1.1-0.1,1.6-0.1
						c0.5-0.1,0.9-0.1,1.4-0.2c0.5-0.1,0.9-0.2,1.4-0.3C52.6,135.7,53.1,135.5,53.7,135.4z"/>
				</g>
				<g>
					<path class="st36" d="M52.9,112.6c0.4-0.8,0.7-1.5,1-2.3c0.1-0.2,0.1-0.5,0.3-0.7c0.1-0.2,0.3-0.3,0.4-0.4
						c0.5,0.4,1,0.8,1.5,1.2c1,0.7,2.1,1.4,3.3,2c1.2,0.6,2.4,1.1,3.7,1.4c1.3,0.4,2.6,0.7,4,0.8l0,0c0,0,0,0,0,0c0,0,0,0,0,0
						c-1.3,0.4-2.7,0.5-4.1,0.6c-1.4,0.1-2.9,0-4.3-0.1c-1.4-0.2-2.9-0.5-4.3-0.9c-0.6-0.2-1.3-0.4-1.9-0.7
						C52.5,113.3,52.7,113,52.9,112.6z"/>
				</g>
			</g>
		</g>
		<path class="st117" d="M57.1,105.3l-1.6,3.7c0,0,6.4,4.9,11,5.5c0,0,0-0.8-0.3-1.7c0,0,3.1,3.7,6.9,4.2c0,0,0.4-0.4,0.6-0.8
			c0,0,1.8,2.2,2.6,2.2c0.8,0,2.6-1.6,2.8-2.1c0,0,0.7,0.9,1,0.9c0.4,0,4.6-1.6,6.8-4c0,0,0.3,0.7,0.6,0.6c0.3,0,5.8,0.7,10.3-4.7
			l5.1,5.3l-2.3-5.6l-3.5-3.9c0,0-3.3,3.9-5.9,5.7l-3.4,1.8l0.6-2.5l-3.6,3.4c0,0-3.8,2.4-4.6,2.5c0,0-0.6-0.8-0.8-2
			c0,0-2.5,3.2-3.2,3.4c0,0-2.3-2-2.8-3.8c0,0-0.4,1.6-0.9,2.1c0,0-3.1-1.6-4.7-3.2c-1.6-1.6-3.5-3.5-3.5-3.5l0.8,2.9
			c0,0-2.2-0.9-4.4-2.9C58.4,106.9,57.1,105.3,57.1,105.3z"/>
		<path class="st118" d="M28.1,82.6C28,82.6,28,82.6,28.1,82.6C28,82.6,28,82.7,28.1,82.6z"/>
		<path class="st117" d="M39.3,45c0,0,6.6-3.2,13.1-2.5l-4.3,1.3L39.3,45"/>
		<path class="st117" d="M49.8,37.5c0,0,4.1-2.2,14.3,1c-0.4-0.1-7-0.2-7-0.2S52.9,37,49.8,37.5"/>
		<path class="st117" d="M27.4,81.4c0,0,0.9-6.6,6.1-9.2l-1.8,3.7l-1.1,0.8l-3,4.6L27.4,81.4"/>
		<path class="st117" d="M30.4,63.2c0,0,2.8-6.5,11-7.8c0,0-2.5,1.5-3.7,2.7l-1.2,0.2l-3.6,2.6L30.4,63.2z"/>
		<path class="st117" d="M33,98.2c0.1,0.2-2.4-7.7,3.1-12.7l0,0.1c-0.4,1.1-0.7,2.2-0.9,3.3l0,0L33,98.2"/>
		<path class="st117" d="M38.9,106.4c0,0-1.3-6.2,0.4-9.7l0.6,2.2L38.9,106.4z"/>
		<path class="st117" d="M53.2,107.1c-1.8,2-5.7,4.1-5.7,4.1l-0.4-0.1c0,0,3-2.4,5.2-4.8c2-2.2,3.2-4,3.2-4c0.6,1.3,0.9,1.5,0.9,1.5
			L53.2,107.1z"/>
		<path class="st117" d="M58.7,32c0,0,7.1-2.3,15.1,4.3c-0.5,0-4.2-1.1-4.2-1.1s-3.7-1.7-5-2c-1.5-0.4-6.1-1-6.1-1L58.7,32z"/>
		<g>
			<path class="st117" d="M120.4,100.5c-0.1,0.2,2.9-7.5-2.2-12.9l0,0.1c0.3,1.1,0.5,2.2,0.7,3.3l0,0L120.4,100.5"/>
			<path class="st117" d="M114,108.3c0,0,1.7-6.1,0.3-9.7l-0.7,2.1L114,108.3z"/>
			<path class="st117" d="M100.1,108.4c1.7,2,5.6,4.3,5.6,4.3l0.4-0.1c0,0-2.9-2.5-5-5c-1.9-2.3-3-4.2-3-4.2c-0.7,1.3-1,1.5-1,1.5
				L100.1,108.4z"/>
			<path class="st117" d="M98.3,33.3c0,0-6.9-2.7-15.4,3.2c0.5,0,4.3-0.8,4.3-0.8s3.8-1.4,5.1-1.7c1.5-0.3,6.2-0.6,6.2-0.6
				L98.3,33.3z"/>
			<path class="st117" d="M116.9,47.1c0,0-6.3-3.7-12.9-3.4l4.2,1.5L116.9,47.1"/>
			<path class="st117" d="M106.9,39c0,0-3.9-2.5-14.3,0.1c0.4-0.1,7,0.3,7,0.3S103.8,38.3,106.9,39"/>
			<path class="st117" d="M127,83.8c0,0-0.5-6.7-5.5-9.6L123,78l1,0.9l2.6,4.8L127,83.8"/>
			<path class="st117" d="M124.6,65.4c0,0-2.4-6.7-10.4-8.5c0,0,2.4,1.7,3.5,2.9l1.2,0.3l3.4,2.8L124.6,65.4z"/>
		</g>
		<g>
			<path class="st26" d="M78.4,34.5c-1.5-1-3.1-1.8-4.7-2.5c-1.6-0.6-3.4-1.1-5.1-1.3c-0.9-0.1-1.7-0.2-2.6-0.2
				c-0.9,0.1-1.8,0.1-2.6,0.3c-1.8,0.2-3.4,0.9-5.1,1.6l0,0c-0.1,0-0.2,0-0.2-0.1c0-0.1,0-0.2,0.1-0.2c1.6-0.9,3.3-1.6,5.1-1.9
				c0.9-0.2,1.8-0.2,2.7-0.3c0.9,0,1.8,0,2.7,0.2c1.8,0.3,3.6,0.7,5.3,1.5c1.7,0.7,3.2,1.6,4.7,2.8c0.1,0.1,0.1,0.2,0,0.2
				C78.6,34.5,78.5,34.5,78.4,34.5L78.4,34.5z"/>
		</g>
		<g>
			<path class="st26" d="M58.2,32c1.1-0.1,2.1,0,3.2,0.1c1,0.1,2.1,0.4,3.1,0.6c1,0.3,2,0.6,3,1.1c1,0.4,1.9,0.9,2.8,1.5
				c0.1,0.1,0.1,0.2,0.1,0.2c0,0.1-0.1,0.1-0.2,0.1l0,0c-1-0.4-1.9-0.8-2.9-1.2c-1-0.4-1.9-0.7-2.9-1c-1-0.3-2-0.5-3-0.7
				c-1-0.2-2-0.4-3-0.5l0,0c-0.1,0-0.2-0.1-0.1-0.2C58.1,32.1,58.2,32,58.2,32z"/>
		</g>
		<g>
			<path class="st26" d="M70.1,35.6c-1.8-0.2-3.5-0.3-5.3-0.4c-1.8-0.1-3.5-0.1-5.3,0c-1.8,0-3.5,0.2-5.2,0.6
				c-1.7,0.4-3.4,0.9-4.8,2c-0.1,0.1-0.2,0-0.2,0c-0.1-0.1,0-0.2,0-0.2c1.4-1.2,3.1-1.9,4.8-2.4c1.7-0.5,3.5-0.7,5.3-0.7
				c1.8-0.1,3.6,0,5.4,0.1c1.8,0.2,3.5,0.4,5.3,0.8c0.1,0,0.1,0.1,0.1,0.2C70.3,35.6,70.2,35.7,70.1,35.6z"/>
		</g>
		<g>
			<path class="st26" d="M49.4,37.5c1.3-0.3,2.6-0.4,4-0.3c1.3,0.1,2.7,0.3,3.9,0.9c0.1,0,0.1,0.1,0.1,0.2c0,0.1-0.1,0.1-0.2,0.1
				l0,0c-0.7-0.1-1.3-0.2-1.9-0.3C54.6,38,54,38,53.4,37.9c-1.3-0.1-2.6-0.1-3.9-0.1l0,0c-0.1,0-0.2-0.1-0.2-0.2
				C49.3,37.6,49.3,37.5,49.4,37.5z"/>
		</g>
		<g>
			<path class="st26" d="M57.3,38.4c-1.7,0.1-3.3,0.4-4.9,0.8c-1.6,0.4-3.2,0.9-4.8,1.5C46,41.3,44.5,42,43,42.8
				c-1.5,0.8-2.9,1.7-4.3,2.6l0,0c-0.1,0.1-0.2,0-0.2,0c0-0.1,0-0.2,0-0.2c0.7-0.5,1.3-1.1,2-1.6c0.7-0.5,1.4-1,2.1-1.4
				c1.4-0.9,3-1.6,4.6-2.3c1.6-0.6,3.2-1.1,4.9-1.4c1.7-0.3,3.4-0.5,5.1-0.5c0.1,0,0.2,0.1,0.2,0.2C57.4,38.3,57.3,38.4,57.3,38.4
				L57.3,38.4z"/>
		</g>
		<g>
			<path class="st26" d="M38.6,45.1c1.5-0.6,3.1-1,4.8-1.4c1.6-0.3,3.3-0.5,4.9-0.3c0.1,0,0.2,0.1,0.2,0.2c0,0.1-0.1,0.1-0.2,0.2
				c-1.6,0.2-3.2,0.4-4.8,0.7c-1.6,0.3-3.2,0.6-4.8,0.9c-0.1,0-0.2,0-0.2-0.1C38.5,45.2,38.6,45.2,38.6,45.1z"/>
		</g>
		<g>
			<path class="st26" d="M48.4,43.8c-2.2,0.8-4.3,1.9-6.3,3.1c-1.9,1.3-3.8,2.8-5.2,4.6c-1.5,1.8-2.7,3.8-3.8,5.9
				c-1.1,2.1-2.1,4.2-2.9,6.4l0,0c0,0.1-0.1,0.1-0.2,0.1c-0.1,0-0.1-0.1-0.1-0.2c0.7-2.3,1.6-4.5,2.7-6.6c1.1-2.1,2.3-4.2,3.8-6.1
				c0.7-0.9,1.6-1.8,2.5-2.6c0.9-0.8,1.9-1.5,2.9-2.1c2-1.2,4.2-2.2,6.5-2.9c0.1,0,0.2,0,0.2,0.1C48.5,43.7,48.5,43.8,48.4,43.8
				L48.4,43.8z"/>
		</g>
		<g>
			<path class="st26" d="M30,63.7c1-1.4,2.3-2.7,3.6-3.8c1.4-1.1,2.9-2.1,4.6-2.6c0.1,0,0.2,0,0.2,0.1c0,0.1,0,0.2-0.1,0.2
				c-1.5,0.8-2.9,1.8-4.2,2.9c-1.3,1.1-2.6,2.3-3.8,3.4l0,0C30.1,64,30,64,30,63.9C29.9,63.8,29.9,63.7,30,63.7z"/>
		</g>
		<g>
			<path class="st26" d="M38.3,57.6c-0.8,0.8-1.6,1.6-2.4,2.5c-0.8,0.8-1.5,1.7-2.2,2.6c-1.4,1.8-2.6,3.7-3.5,5.8
				c-0.9,2.1-1.4,4.3-1.9,6.6c-0.4,2.2-0.7,4.5-0.8,6.8l0,0c0,0.1-0.1,0.2-0.2,0.2c-0.1,0-0.2-0.1-0.2-0.2c-0.1-2.3,0.1-4.6,0.4-6.9
				c0.4-2.3,1-4.5,1.8-6.7c1-2.2,2.2-4.1,3.7-5.9c1.5-1.8,3.1-3.4,4.9-4.9c0.1-0.1,0.2,0,0.2,0C38.4,57.4,38.4,57.5,38.3,57.6
				L38.3,57.6z"/>
		</g>
		<g>
			<path class="st26" d="M27.2,81.7c0.4-1.2,1-2.4,1.7-3.5c0.4-0.5,0.7-1.1,1.2-1.6c0.4-0.5,0.9-1,1.5-1.3c0.1-0.1,0.2,0,0.2,0.1
				c0,0.1,0,0.2,0,0.2l0,0c-0.8,1-1.5,2-2.2,3c-0.7,1-1.4,2.1-2.1,3.2c0,0.1-0.2,0.1-0.2,0C27.2,81.9,27.2,81.8,27.2,81.7z"/>
		</g>
		<g>
			<path class="st26" d="M31.9,75.6c-0.6,1.9-1.1,3.8-1.4,5.8c-0.3,1.9-0.5,3.9-0.3,5.9c0.2,1.9,0.7,3.9,1.2,5.8
				c0.5,1.9,1.2,3.8,1.9,5.6l0,0c0,0.1,0,0.2-0.1,0.2c-0.1,0-0.2,0-0.2-0.1c-0.9-1.8-1.7-3.7-2.3-5.6c-0.6-1.9-1.1-3.9-1.3-5.9
				c-0.2-2,0-4.1,0.4-6.1c0.4-2,1-3.9,1.8-5.8c0-0.1,0.1-0.1,0.2-0.1C31.9,75.4,31.9,75.5,31.9,75.6L31.9,75.6z"/>
		</g>
		<g>
			<path class="st26" d="M33,98.7c0-1.7,0.2-3.4,0.5-5.1c0.2-0.8,0.3-1.7,0.6-2.5c0.3-0.8,0.6-1.6,1-2.4c0-0.1,0.2-0.1,0.2-0.1
				c0.1,0,0.1,0.1,0.1,0.2c-0.3,0.8-0.5,1.6-0.7,2.4c-0.2,0.8-0.4,1.6-0.5,2.5c-0.3,1.6-0.6,3.3-0.9,5c0,0.1-0.1,0.1-0.2,0.1
				C33,98.9,33,98.8,33,98.7z"/>
		</g>
		<g>
			<path class="st26" d="M35.3,88.9c-0.4,1.5-0.6,3-0.5,4.6c0,1.5,0.3,3.1,0.6,4.6c0.4,1.5,0.9,3,1.5,4.4c0.3,0.7,0.7,1.4,1,2.1
				l1.1,2.1l0,0c0,0.1,0,0.2-0.1,0.2c-0.1,0-0.2,0-0.2-0.1c-0.5-0.6-0.9-1.3-1.3-2c-0.4-0.7-0.8-1.4-1.1-2.1
				c-0.7-1.4-1.2-2.9-1.6-4.5c-0.3-1.6-0.6-3.2-0.5-4.8c0-1.6,0.3-3.2,0.9-4.7c0-0.1,0.1-0.1,0.2-0.1C35.3,88.7,35.4,88.8,35.3,88.9
				L35.3,88.9z"/>
		</g>
		<g>
			<path class="st26" d="M38.8,106.7c0.2-1.3,0.4-2.6,0.5-3.8c0.2-1.3,0.2-2.6,0.4-3.9c0-0.1,0.1-0.2,0.2-0.2c0.1,0,0.1,0.1,0.2,0.2
				c0.1,0.7,0.1,1.3,0.1,2c0,0.7-0.1,1.3-0.1,2c-0.2,1.3-0.4,2.6-1,3.9c0,0.1-0.1,0.1-0.2,0.1C38.8,106.8,38.7,106.7,38.8,106.7
				L38.8,106.7z"/>
		</g>
		<g>
			<path class="st26" d="M40,98.9c0.4,1.1,0.9,2.2,1.4,3.3c0.5,1.1,1.1,2.1,1.7,3.1c0.6,1,1.2,2,1.9,3c0.7,1,1.4,1.9,2.2,2.8l0,0
				c0.1,0.1,0,0.2,0,0.2c-0.1,0.1-0.2,0.1-0.2,0c-0.9-0.8-1.7-1.7-2.5-2.6c-0.8-0.9-1.4-2-2.1-3c-0.6-1.1-1.2-2.1-1.6-3.2
				c-0.5-1.1-0.9-2.3-1.1-3.5c0-0.1,0-0.2,0.1-0.2C39.9,98.8,40,98.8,40,98.9L40,98.9z"/>
		</g>
		<g>
			<path class="st26" d="M47.1,111c0.9-0.4,1.7-0.9,2.5-1.5c0.8-0.6,1.6-1.1,2.3-1.8c1.5-1.2,2.8-2.6,4.2-4.1c0.1-0.1,0.2-0.1,0.2,0
				c0.1,0.1,0.1,0.2,0,0.2c-0.3,0.4-0.6,0.8-0.9,1.2c-0.3,0.4-0.6,0.8-1,1.1c-0.7,0.7-1.4,1.4-2.1,2.1c-0.8,0.6-1.6,1.2-2.4,1.7
				c-0.9,0.5-1.7,1-2.7,1.2c-0.1,0-0.2,0-0.2-0.1C47,111.1,47,111.1,47.1,111L47.1,111z"/>
		</g>
		<g>
			<path class="st26" d="M56.3,103.7c1.3,1.5,2.6,3.1,4,4.4c0.7,0.7,1.5,1.3,2.3,1.9c0.8,0.6,1.6,1.1,2.5,1.6l0,0
				c0.1,0,0.1,0.2,0.1,0.2c0,0.1-0.1,0.1-0.2,0.1c-1-0.3-1.9-0.8-2.8-1.3c-0.9-0.6-1.7-1.2-2.4-1.9c-1.5-1.4-2.8-3-3.8-4.8
				c0-0.1,0-0.2,0.1-0.2C56.1,103.6,56.2,103.7,56.3,103.7L56.3,103.7z"/>
		</g>
		<g>
			<path class="st26" d="M64.9,111.8c-0.2-0.6-0.3-1.1-0.5-1.6c-0.1-0.3-0.2-0.5-0.2-0.8c-0.1-0.3-0.2-0.5-0.2-0.8l0,0
				c0-0.1,0-0.2,0.1-0.2c0.1,0,0.1,0,0.2,0c0.5,0.4,0.7,1,0.9,1.6c0.1,0.6,0.2,1.2,0.1,1.9c0,0.1-0.1,0.1-0.2,0.1
				C65,111.9,64.9,111.9,64.9,111.8L64.9,111.8z"/>
		</g>
		<g>
			<path class="st26" d="M64.2,108.3c1.3,1.4,2.6,2.7,4,3.9c1.4,1.3,2.8,2.4,4.5,3.3l0,0c0.1,0,0.1,0.2,0.1,0.2
				c0,0.1-0.1,0.1-0.2,0.1c-0.9-0.3-1.8-0.7-2.6-1.3c-0.8-0.5-1.5-1.1-2.3-1.8c-1.4-1.3-2.7-2.7-3.7-4.3c0-0.1,0-0.2,0-0.2
				C64.1,108.2,64.1,108.3,64.2,108.3L64.2,108.3z"/>
		</g>
		<g>
			<path class="st26" d="M72.4,115.6c0-0.2,0.1-0.4,0.1-0.6c0-0.2,0.1-0.4,0.1-0.6c0.1-0.4,0.2-0.8,0.4-1.3c0-0.1,0.2-0.1,0.3-0.1
				c0,0,0.1,0.1,0.1,0.1c0.1,0.2,0.1,0.5,0.1,0.7c0,0.2-0.1,0.5-0.1,0.7c-0.1,0.5-0.3,0.9-0.8,1.3c-0.1,0.1-0.2,0-0.2,0
				C72.4,115.7,72.4,115.7,72.4,115.6L72.4,115.6z"/>
		</g>
		<g>
			<path class="st26" d="M73.4,113.1c0.5,0.7,0.9,1.5,1.4,2.1c0.2,0.4,0.5,0.7,0.8,1c0.3,0.3,0.5,0.7,0.8,1l0,0c0.1,0.1,0,0.2,0,0.2
				c-0.1,0-0.1,0-0.2,0c-0.8-0.4-1.4-1.1-2-1.9c-0.5-0.8-0.9-1.6-1.1-2.5c0-0.1,0-0.2,0.1-0.2C73.3,113,73.4,113,73.4,113.1
				L73.4,113.1z"/>
		</g>
		<g>
			<g>
				<path class="st26" d="M78.4,34.2c1.5-1.1,3.1-1.9,4.8-2.6c1.7-0.6,3.5-1,5.3-1.2c0.9-0.1,1.8,0,2.7,0c0.9,0.1,1.8,0.2,2.7,0.5
					c1.8,0.4,3.4,1.3,5,2.2c0.1,0,0.1,0.2,0.1,0.2c0,0.1-0.1,0.1-0.2,0.1l0,0c-1.6-0.8-3.2-1.5-5-1.8c-0.9-0.2-1.7-0.3-2.6-0.4
					c-0.9,0-1.8-0.1-2.6,0c-1.8,0.1-3.5,0.5-5.2,1c-1.7,0.6-3.3,1.3-4.8,2.2l0,0c-0.1,0-0.2,0-0.2-0.1
					C78.3,34.3,78.4,34.2,78.4,34.2z"/>
			</g>
			<g>
				<path class="st26" d="M98.9,33.4c-1,0-2,0.1-3.1,0.3c-1,0.2-2,0.3-3,0.6c-1,0.2-2,0.5-3,0.8c-1,0.3-1.9,0.7-2.9,1l0,0
					c-0.1,0-0.2,0-0.2-0.1c0-0.1,0-0.2,0.1-0.2c0.9-0.5,1.9-1,2.8-1.4c1-0.4,2-0.7,3-0.9c1-0.2,2.1-0.4,3.1-0.5
					c1.1-0.1,2.1-0.1,3.2,0.1c0.1,0,0.2,0.1,0.1,0.2C99,33.3,99,33.4,98.9,33.4L98.9,33.4z"/>
			</g>
			<g>
				<path class="st26" d="M86.8,35.8c1.8-0.3,3.5-0.4,5.3-0.5c1.8-0.1,3.6,0,5.4,0.2c1.8,0.2,3.6,0.5,5.3,1c1.7,0.6,3.4,1.3,4.7,2.6
					c0.1,0.1,0.1,0.2,0,0.2c-0.1,0.1-0.2,0.1-0.2,0c-1.3-1.1-3-1.8-4.7-2.2c-1.7-0.5-3.4-0.8-5.2-0.9C95.7,36,93.9,36,92.2,36
					c-1.8,0-3.5,0-5.3,0.1c-0.1,0-0.2-0.1-0.2-0.1C86.7,35.9,86.8,35.8,86.8,35.8z"/>
			</g>
			<g>
				<path class="st26" d="M107.4,39.4c-1.3,0-2.6-0.1-3.9-0.1c-0.6,0-1.3,0-1.9,0.1c-0.6,0-1.3,0.1-1.9,0.2l0,0
					c-0.1,0-0.2-0.1-0.2-0.2c0-0.1,0-0.2,0.1-0.2c1.3-0.5,2.6-0.6,4-0.7c1.3,0,2.7,0.1,4,0.6c0.1,0,0.1,0.1,0.1,0.2
					C107.5,39.3,107.4,39.4,107.4,39.4L107.4,39.4z"/>
			</g>
			<g>
				<path class="st26" d="M99.6,39.2c1.7,0,3.4,0.3,5,0.7c1.6,0.4,3.3,1,4.8,1.7c1.5,0.7,3.1,1.5,4.5,2.5c0.7,0.5,1.4,1,2.1,1.5
					c0.7,0.5,1.3,1.1,1.9,1.7c0.1,0.1,0.1,0.2,0,0.2c-0.1,0.1-0.2,0.1-0.2,0l0,0c-1.4-1-2.7-2-4.1-2.9c-1.4-0.9-2.9-1.7-4.4-2.4
					c-1.5-0.7-3.1-1.3-4.7-1.8c-1.6-0.5-3.2-0.9-4.9-1.1l0,0c-0.1,0-0.2-0.1-0.1-0.2C99.4,39.2,99.5,39.2,99.6,39.2z"/>
			</g>
			<g>
				<path class="st26" d="M117.7,47.6c-1.6-0.4-3.2-0.8-4.7-1.2c-1.6-0.4-3.2-0.7-4.8-1c-0.1,0-0.2-0.1-0.2-0.2
					c0-0.1,0.1-0.1,0.2-0.2c1.7-0.1,3.3,0.2,4.9,0.6c1.6,0.4,3.2,0.9,4.7,1.6c0.1,0,0.1,0.1,0.1,0.2
					C117.8,47.5,117.8,47.6,117.7,47.6z"/>
			</g>
			<g>
				<path class="st26" d="M108.2,45.1c2.3,0.8,4.4,1.9,6.4,3.2c1,0.7,1.9,1.4,2.8,2.3c0.9,0.8,1.7,1.7,2.4,2.7
					c1.4,2,2.5,4.1,3.4,6.3c0.9,2.2,1.7,4.4,2.3,6.7c0,0.1,0,0.2-0.1,0.2c-0.1,0-0.2,0-0.2-0.1l0,0c-0.7-2.2-1.6-4.4-2.6-6.5
					c-1-2.1-2.1-4.2-3.4-6.1c-1.3-1.9-3-3.5-4.9-4.9c-1.9-1.4-3.9-2.5-6.1-3.5l0,0c-0.1,0-0.1-0.1-0.1-0.2
					C108.1,45.1,108.2,45.1,108.2,45.1z"/>
			</g>
			<g>
				<path class="st26" d="M125.2,66.4c-1.2-1.2-2.4-2.5-3.6-3.6c-1.3-1.2-2.6-2.2-4.1-3.1c-0.1,0-0.1-0.2-0.1-0.2
					c0-0.1,0.1-0.1,0.2-0.1c1.7,0.6,3.1,1.7,4.4,2.8c1.3,1.2,2.5,2.5,3.4,4c0,0.1,0,0.2-0.1,0.2C125.3,66.5,125.2,66.5,125.2,66.4
					L125.2,66.4z"/>
			</g>
			<g>
				<path class="st26" d="M117.7,59.4c1.7,1.6,3.3,3.3,4.6,5.2c1.4,1.9,2.5,3.9,3.4,6.1c0.7,2.2,1.2,4.5,1.5,6.8
					c0.2,2.3,0.3,4.6,0.1,7c0,0.1-0.1,0.2-0.2,0.2c-0.1,0-0.2-0.1-0.2-0.2l0,0c0.1-2.3-0.1-4.6-0.4-6.8c-0.3-2.3-0.8-4.5-1.5-6.6
					c-0.8-2.1-1.9-4.1-3.2-6c-0.6-0.9-1.3-1.9-2.1-2.7c-0.7-0.9-1.5-1.8-2.3-2.6l0,0c-0.1-0.1-0.1-0.2,0-0.2
					C117.5,59.4,117.6,59.4,117.7,59.4z"/>
			</g>
			<g>
				<path class="st26" d="M126.9,84.5c-0.7-1.1-1.3-2.2-1.9-3.3c-0.6-1.1-1.3-2.1-2-3.1l0,0c-0.1-0.1,0-0.2,0-0.2c0.1,0,0.1,0,0.2,0
					c0.5,0.4,1,0.9,1.4,1.4c0.4,0.5,0.7,1.1,1.1,1.6c0.6,1.1,1.2,2.3,1.5,3.5c0,0.1,0,0.2-0.1,0.2C127,84.6,126.9,84.6,126.9,84.5z"
					/>
			</g>
			<g>
				<path class="st26" d="M123.2,77.9c0.7,1.9,1.2,3.9,1.5,5.9c0.3,2,0.3,4.1,0.1,6.1c-0.4,2-0.9,3.9-1.6,5.8
					c-0.7,1.9-1.5,3.7-2.6,5.5c0,0.1-0.2,0.1-0.2,0.1c-0.1,0-0.1-0.1-0.1-0.2l0,0c0.9-1.8,1.6-3.6,2.2-5.5c0.6-1.9,1.2-3.8,1.5-5.7
					c0.3-1.9,0.3-3.9,0.1-5.9c-0.2-2-0.6-3.9-1.1-5.8l0,0c0-0.1,0-0.2,0.1-0.2C123.1,77.8,123.2,77.9,123.2,77.9z"/>
			</g>
			<g>
				<path class="st26" d="M120.3,101.1c-0.2-1.7-0.4-3.4-0.6-5c-0.1-0.8-0.2-1.7-0.4-2.5c-0.1-0.8-0.3-1.6-0.5-2.4
					c0-0.1,0-0.2,0.1-0.2c0.1,0,0.2,0,0.2,0.1c0.4,0.8,0.7,1.6,0.9,2.4c0.2,0.8,0.3,1.7,0.5,2.5c0.2,1.7,0.3,3.4,0.2,5.1
					c0,0.1-0.1,0.2-0.2,0.2C120.3,101.2,120.3,101.2,120.3,101.1z"/>
			</g>
			<g>
				<path class="st26" d="M119,91c0.6,1.5,0.7,3.1,0.6,4.7c-0.1,1.6-0.4,3.2-0.8,4.7c-0.5,1.5-1.1,3-1.9,4.4c-0.4,0.7-0.8,1.4-1.2,2
					c-0.5,0.6-0.9,1.3-1.4,1.9c-0.1,0.1-0.2,0.1-0.2,0c-0.1-0.1-0.1-0.2,0-0.2l0,0l1.2-2c0.4-0.7,0.8-1.3,1.1-2.1
					c0.7-1.4,1.3-2.8,1.7-4.3c0.5-1.5,0.7-3,0.9-4.5c0.1-1.5,0.1-3.1-0.3-4.6l0,0c0-0.1,0-0.2,0.1-0.2C118.9,90.9,119,90.9,119,91z"
					/>
			</g>
			<g>
				<path class="st26" d="M114.1,108.8c-0.5-1.3-0.7-2.6-0.8-3.9c0-0.7,0-1.3,0-2c0-0.7,0.1-1.3,0.2-2c0-0.1,0.1-0.2,0.2-0.1
					c0.1,0,0.1,0.1,0.1,0.2c0.1,1.3,0.1,2.6,0.2,3.9c0.1,1.3,0.2,2.6,0.3,3.9l0,0c0,0.1-0.1,0.2-0.1,0.2
					C114.1,108.9,114.1,108.8,114.1,108.8z"/>
			</g>
			<g>
				<path class="st26" d="M113.8,101c-0.3,1.2-0.8,2.3-1.3,3.4c-0.5,1.1-1.1,2.1-1.8,3.2c-0.7,1-1.4,2-2.2,2.9
					c-0.8,0.9-1.7,1.7-2.6,2.5c-0.1,0.1-0.2,0-0.2,0c-0.1-0.1-0.1-0.2,0-0.2l0,0c0.8-0.9,1.6-1.7,2.3-2.7c0.7-0.9,1.5-1.9,2.1-2.9
					c0.7-1,1.3-2,1.9-3c0.6-1,1.1-2.1,1.6-3.2l0,0c0-0.1,0.1-0.1,0.2-0.1C113.8,100.8,113.8,100.9,113.8,101z"/>
			</g>
			<g>
				<path class="st26" d="M105.7,112.9c-1-0.3-1.8-0.8-2.7-1.4c-0.8-0.6-1.6-1.2-2.3-1.9c-0.7-0.7-1.4-1.4-2-2.2
					c-0.3-0.4-0.6-0.8-0.9-1.2c-0.3-0.4-0.5-0.8-0.8-1.3c0-0.1,0-0.2,0.1-0.2c0.1,0,0.2,0,0.2,0c1.3,1.5,2.5,3,3.9,4.3
					c0.7,0.7,1.4,1.3,2.2,1.9c0.8,0.6,1.6,1.2,2.4,1.6l0,0c0.1,0,0.1,0.1,0.1,0.2C105.8,112.9,105.8,112.9,105.7,112.9z"/>
			</g>
			<g>
				<path class="st26" d="M97.3,105c-1.1,1.7-2.5,3.2-4,4.6c-0.8,0.7-1.6,1.3-2.5,1.8c-0.9,0.5-1.9,0.9-2.8,1.2
					c-0.1,0-0.2,0-0.2-0.1c0-0.1,0-0.2,0.1-0.2l0,0c0.9-0.4,1.8-0.9,2.6-1.4c0.8-0.6,1.6-1.1,2.4-1.8c1.5-1.3,2.9-2.7,4.3-4.2l0,0
					c0.1-0.1,0.2-0.1,0.2,0C97.3,104.9,97.3,104.9,97.3,105z"/>
			</g>
			<g>
				<path class="st26" d="M87.7,112.4c-0.1-0.6,0-1.3,0.2-1.9c0.2-0.6,0.5-1.2,1-1.6c0.1-0.1,0.2-0.1,0.3,0c0,0,0.1,0.1,0,0.2l0,0
					c-0.1,0.3-0.2,0.6-0.3,0.8c-0.1,0.3-0.2,0.5-0.3,0.8c-0.2,0.5-0.4,1.1-0.6,1.6l0,0c0,0.1-0.1,0.1-0.2,0.1
					C87.7,112.5,87.7,112.5,87.7,112.4z"/>
			</g>
			<g>
				<path class="st26" d="M89.1,109.2c-1.1,1.6-2.5,2.9-3.9,4.1c-0.8,0.6-1.5,1.2-2.4,1.6c-0.8,0.5-1.7,0.9-2.7,1.1
					c-0.1,0-0.2,0-0.2-0.1c0-0.1,0-0.2,0.1-0.2l0,0c1.7-0.8,3.2-1.8,4.6-3c1.5-1.2,2.8-2.4,4.2-3.7l0,0c0.1-0.1,0.2-0.1,0.2,0
					C89.2,109,89.2,109.1,89.1,109.2z"/>
			</g>
			<g>
				<path class="st26" d="M80,116c-0.4-0.4-0.6-0.8-0.7-1.3c0-0.2-0.1-0.5-0.1-0.7c0-0.2,0-0.5,0.1-0.7c0-0.1,0.1-0.2,0.2-0.1
					c0.1,0,0.1,0.1,0.1,0.1c0.2,0.4,0.3,0.9,0.4,1.3c0,0.2,0.1,0.4,0.1,0.6c0,0.2,0.1,0.4,0.1,0.6l0,0.1c0,0.1-0.1,0.2-0.1,0.2
					C80.1,116,80,116,80,116z"/>
			</g>
			<g>
				<path class="st26" d="M79.7,113.3c-0.2,0.9-0.7,1.7-1.2,2.4c-0.6,0.7-1.2,1.3-2.1,1.7c-0.1,0-0.2,0-0.2-0.1c0-0.1,0-0.1,0-0.2
					l0,0c0.3-0.3,0.6-0.6,0.8-1c0.3-0.3,0.6-0.6,0.8-1c0.5-0.6,1-1.4,1.5-2l0,0c0.1-0.1,0.2-0.1,0.2,0
					C79.7,113.2,79.7,113.3,79.7,113.3z"/>
			</g>
		</g>
		<g>
			<g>
				<path class="st26" d="M57.4,105.3c-2,4.6-3.9,9.3-5.7,14c-1.8,4.7-3.4,9.5-4.6,14.3c-0.6,2.4-1.1,4.9-1.1,7.3c0,2.4,0.3,5,1.7,7
					c1.3,2,3.7,3.1,6.1,3.5c1.2,0.2,2.5,0.4,3.7,0.5c1.2,0.2,2.5,0.3,3.7,0.4l0.1,0c0.2,0,0.3,0.1,0.3,0.3c0,0.1-0.1,0.3-0.3,0.3
					c-1.4,0-2.6-0.1-3.8-0.3c-1.3-0.1-2.5-0.3-3.8-0.5c-1.3-0.2-2.5-0.6-3.7-1.2c-1.2-0.6-2.2-1.5-3-2.6c-1.5-2.2-1.9-5-1.9-7.5
					c0-2.6,0.6-5.1,1.2-7.6c1.3-4.9,3-9.7,4.8-14.4c1.8-4.7,3.8-9.4,5.9-13.9c0.1-0.1,0.2-0.2,0.3-0.1
					C57.4,105.1,57.4,105.2,57.4,105.3z"/>
			</g>
			<g>
				<path class="st26" d="M65.9,152.5l12.2-0.1l6.1,0l6.1,0.1c0.1,0,0.3,0.1,0.2,0.3c0,0.1-0.1,0.2-0.2,0.2l-6.1,0.1l-6.1,0
					L65.9,153c-0.2,0-0.3-0.1-0.3-0.3C65.6,152.6,65.7,152.5,65.9,152.5z"/>
			</g>
			<path class="st30" d="M64.5,155.4c0.1,0.1,0.2,0.2,0.3,0.3c0,0.1,0,0.2,0,0.4c-0.1,0.7-0.2,1.5-0.8,1.9c-0.4,0.3-1,0.3-1.5,0.3
				c-0.5,0-1-0.1-1.5-0.2c-0.5-0.1-1.1-0.3-1.5-0.7c-0.3-0.4-0.4-1-0.4-1.5c0-0.2,0-0.4,0.1-0.5c0.1-0.2,0.3-0.3,0.5-0.4
				c0.8-0.4,1.4-0.7,2.3-0.6C62.9,154.5,63.9,154.8,64.5,155.4z"/>
			<path class="st30" d="M91.4,155.4c-0.1,0.1-0.2,0.2-0.3,0.3c0,0.1,0,0.2,0,0.4c0.1,0.7,0.2,1.5,0.8,1.9c0.4,0.3,1,0.3,1.5,0.3
				c0.5,0,1-0.1,1.5-0.2c0.5-0.1,1.1-0.3,1.5-0.7c0.3-0.4,0.4-1,0.4-1.5c0-0.2,0-0.4-0.1-0.5c-0.1-0.2-0.3-0.3-0.5-0.4
				c-0.8-0.4-1.4-0.7-2.3-0.6C93,154.5,92,154.8,91.4,155.4z"/>
			<g>
				<path class="st26" d="M100.9,108.7c1.9,4.3,3.7,8.7,5.4,13.1c1.6,4.4,3.1,8.9,4.1,13.6c0.5,2.3,0.8,4.7,0.6,7.1
					c-0.1,2.4-0.8,4.9-2.5,6.8c-1.7,1.9-4.2,2.7-6.6,3c-2.4,0.3-4.6,0.6-7.1,0.6c-0.2,0-0.3-0.1-0.3-0.3c0-0.1,0.1-0.3,0.3-0.3
					l0.1,0c1.1,0,2.3-0.2,3.4-0.4c1.2-0.2,2.3-0.3,3.5-0.5c2.3-0.4,4.5-1.2,6-2.9c1.5-1.7,2.1-4,2.2-6.2c0.1-2.3-0.2-4.6-0.6-6.9
					c-0.9-4.6-2.4-9.1-3.9-13.5c-1.6-4.4-3.3-8.8-5.1-13.1c-0.1-0.1,0-0.3,0.1-0.4C100.6,108.5,100.8,108.6,100.9,108.7z"/>
			</g>
			<path class="st117" d="M56.2,108.2c0,0-7.7,16.3-9.8,26.3c-2.1,9.9,0.4,13.7,2.8,15.8c1.7,1.5,6.2,2.3,12,2.5
				c0.1,0,0.2,0,0.2,0.1c0.2-0.1-0.5-4.2-0.5-4.2c-2.4,2.7-7.9,1.9-10.5-0.4C42.3,140.8,56.2,108.2,56.2,108.2z"/>
			<path class="st117" d="M100.6,109.2c0,0,7.1,15.2,9.2,25.2s-0.4,13.7-2.8,15.8c-1.7,1.5-6.2,2.3-12,2.5c-0.1,0-0.2,0-0.2,0.1
				c-0.2-0.1,0.5-4.2,0.5-4.2c2.4,2.7,7.9,1.9,10.5-0.4C114,140.8,100.6,109.2,100.6,109.2z"/>
			<path class="st30" d="M66.2,152.6l5.6-19.9c1.8-6.5,11-6.5,12.9,0l5.6,19.9H66.2z"/>
			<path class="st119" d="M67.7,146.9c0,0,0.1,4.4,10,4.4s11-4.4,11-4.4l1.5,5.8H65.9L67.7,146.9z"/>
			<g>
				<path class="st26" d="M60,141.6c0.5,3.2,1,6.4,1.4,9.6c0.1,0.8,0.2,1.6,0.2,2.4c0,0.1,0,0.2,0,0.3c0,0.1,0,0.2-0.1,0.4
					c0,0-0.1,0.2-0.3,0.2l-0.1,0l-0.1,0c-0.1,0-0.2,0.1-0.3,0.1c-0.3,0.1-0.6,0.3-0.9,0.6c-0.4,0.5-0.4,1.3,0,1.8
					c0.2,0.3,0.5,0.4,0.8,0.5c0.4,0.1,0.7,0.2,1.1,0.3c0.7,0.1,1.6,0.1,1.9-0.4c0.2-0.2,0.3-0.6,0.4-1l0.4-1.1
					c0.5-1.5,1-3.1,1.5-4.6l2.9-9.2c0-0.1,0.1-0.2,0.3-0.1c0.1,0,0.2,0.1,0.1,0.2c-0.8,3.1-1.7,6.2-2.6,9.3
					c-0.5,1.5-0.9,3.1-1.4,4.6l-0.4,1.2c-0.1,0.4-0.2,0.8-0.5,1.2c-0.3,0.4-0.8,0.6-1.3,0.7c-0.5,0.1-0.9,0-1.3,0
					c-0.4-0.1-0.8-0.2-1.2-0.3c-0.4-0.1-0.9-0.4-1.2-0.7c-0.6-0.7-0.7-1.9,0-2.7c0.3-0.4,0.7-0.6,1.1-0.8c0.1,0,0.2-0.1,0.3-0.1
					l0.2,0l0.1,0c-0.1,0-0.2,0.1-0.2,0.1c0,0,0-0.1,0-0.2c0-0.1,0-0.2,0-0.3c0-0.8-0.1-1.6-0.2-2.4c-0.3-3.2-0.8-6.4-1.3-9.6
					c0-0.1,0.1-0.3,0.2-0.3C59.9,141.4,60,141.5,60,141.6z"/>
			</g>
			<g>
				<path class="st26" d="M96.4,141.7c-0.4,3.2-0.9,6.4-1.2,9.5c-0.1,0.8-0.1,1.6-0.1,2.4c0,0.2,0,0.4,0,0.5c0,0,0,0-0.1-0.1
					c0,0,0,0-0.1,0l0,0l0,0l0.2,0c0.1,0,0.2,0.1,0.3,0.1c0.4,0.2,0.8,0.4,1.1,0.8c0.7,0.7,0.7,1.9,0,2.6c-0.3,0.4-0.7,0.6-1.1,0.8
					c-0.4,0.1-0.8,0.2-1.2,0.3c-0.4,0.1-0.9,0.1-1.3,0c-0.4-0.1-0.9-0.2-1.3-0.6c-0.3-0.4-0.4-0.8-0.6-1.2l-0.4-1.2
					c-0.5-1.5-0.9-3.1-1.4-4.6c-0.8-3.1-1.7-6.2-2.4-9.3c0-0.1,0-0.2,0.1-0.2c0.1,0,0.2,0,0.2,0.1l2.7,9.2c0.4,1.5,0.9,3.1,1.4,4.6
					l0.4,1.1c0.1,0.4,0.3,0.8,0.4,1c0.4,0.5,1.2,0.5,1.9,0.3c0.4-0.1,0.7-0.2,1.1-0.3c0.3-0.1,0.6-0.3,0.8-0.5
					c0.4-0.5,0.5-1.3,0-1.8c-0.2-0.3-0.5-0.5-0.9-0.6c-0.1,0-0.2-0.1-0.3-0.1l-0.1,0l0,0l0,0c0,0-0.1,0-0.1,0
					c-0.2-0.1-0.1-0.2-0.2-0.2c-0.1-0.3-0.1-0.5-0.1-0.7c0-0.8,0.1-1.6,0.2-2.4c0.3-3.2,0.8-6.4,1.3-9.6c0-0.1,0.1-0.2,0.3-0.2
					C96.3,141.4,96.4,141.6,96.4,141.7z"/>
			</g>
		</g>
		<path class="st23" d="M114.6,71.9c0,17.2-16.6,31.2-37,31.2s-37-14-37-31.2s15.5-23.2,35.9-23.2S114.6,54.7,114.6,71.9z"/>
		<path class="st30" d="M90.3,64c0.3-0.1,0.5-0.2,0.7-0.3c0.3-0.1,0.6-0.2,0.8-0.4c0.2-0.1,0.4-0.2,0.5-0.3c0.2-0.1,0.3-0.1,0.5-0.2
			c0.2-0.1,0.4-0.1,0.6-0.2c0.4-0.1,0.8-0.2,1.1-0.4c0.4,0,0.8-0.1,1.2-0.3c0.5,0,0.9-0.2,1.3-0.4c0.3,0,0.6-0.1,0.8-0.2
			c0.5,0,1-0.2,1.4-0.4c4.8,0.8,8.5,4.9,8.5,9.9c0,5.6-4.5,10.1-10.1,10.1c-5.6,0-10.1-4.5-10.1-10.1C87.5,68.3,88.6,65.8,90.3,64z"
			/>
		<path class="st120" d="M87.5,70.2c0.1-0.3,0.1-0.6,0.1-0.9c0-0.2,0-0.3,0-0.4c0.1-0.3,0.2-0.6,0.2-0.8c0.2-0.3,0.3-0.7,0.4-1
			c1.4-2.9,4.4-4.9,7.8-4.9c4.8,0,8.7,3.9,8.7,8.7c0,4.8-3.9,8.7-8.7,8.7c-3.6,0-6.7-2.2-8-5.4c0-0.5-0.1-1-0.3-1.5
			c0-0.4,0-0.8-0.1-1.2c0-0.2,0-0.4,0-0.6c0-0.1,0-0.3,0-0.4C87.5,70.4,87.5,70.3,87.5,70.2z"/>
		<g>
			<circle class="st26" cx="96" cy="70.8" r="7"/>
			
				<ellipse transform="matrix(0.7071 -0.7071 0.7071 0.7071 -17.3434 90.9147)" class="st30" cx="101.1" cy="66.4" rx="2.6" ry="2.6"/>
			<path class="st121" d="M107.7,70.9c0-4.7-3.2-8.6-7.6-9.8c-0.8-0.2-9.3,1.9-10.7,3.9c-1.2,1.7-1.9,3.7-1.9,5.9
				c0,5.6,4.5,10.1,10.1,10.1C103.2,81,107.7,76.5,107.7,70.9z"/>
			<path class="st122" d="M101.7,59.7c0,0-7.2,4.4-14.1,5.2"/>
		</g>
		<circle class="st30" cx="56.7" cy="70.9" r="10.1"/>
		<path class="st120" d="M66.9,70.2c-0.1-0.3-0.1-0.6-0.1-0.9c0-0.2,0-0.3,0-0.4c-0.1-0.3-0.2-0.6-0.2-0.8c-0.2-0.3-0.3-0.7-0.4-1
			c-1.4-2.9-4.4-4.9-7.8-4.9c-4.8,0-8.7,3.9-8.7,8.7c0,4.8,3.9,8.7,8.7,8.7c3.6,0,6.7-2.2,8-5.4c0-0.5,0.1-1,0.3-1.5
			c0-0.4,0-0.8,0.1-1.2c0-0.2,0-0.4,0-0.6c0-0.1,0-0.3,0-0.4C66.9,70.4,66.9,70.3,66.9,70.2z"/>
		<g>
			<circle class="st26" cx="58.4" cy="70.8" r="7"/>
			
				<ellipse transform="matrix(0.7071 -0.7071 0.7071 0.7071 -31.3407 57.1222)" class="st30" cx="53.3" cy="66.4" rx="2.6" ry="2.6"/>
			<circle class="st121" cx="56.7" cy="70.9" r="10.1"/>
			<path class="st122" d="M47.3,56.4c0,0,8.1,0.7,11.1-6.3"/>
		</g>
		<g>
			<g>
				<g>
					<path class="st26" d="M83.9,88.3c2.5-0.8,5-1.2,7.6-1.4c2.6-0.1,5.1-0.1,7.7,0.3c0.6,0.1,1.3,0.2,1.9,0.3
						c0.6,0.1,1.3,0.2,1.9,0.4l1.9,0.5l1.8,0.6c1.2,0.4,2.4,0.9,3.6,1.4c1.2,0.5,2.3,1.1,3.5,1.7c-1.2-0.5-2.3-1.1-3.5-1.6
						c-1.2-0.4-2.4-1-3.6-1.3l-1.8-0.6l-1.9-0.4c-0.6-0.2-1.2-0.3-1.9-0.4c-0.6-0.1-1.3-0.2-1.9-0.3c-2.5-0.3-5.1-0.4-7.6-0.2
						c-2.5,0.2-5.1,0.6-7.4,1.5l0,0c-0.1,0.1-0.3,0-0.4-0.2S83.8,88.4,83.9,88.3C83.9,88.3,83.9,88.3,83.9,88.3z"/>
				</g>
				<g>
					<path class="st26" d="M85.6,89.6c1.5-0.2,3,0,4.4,0.4c1.4,0.4,2.8,0.9,4,1.7c1.2,0.8,2.4,1.7,3.4,2.8c0.5,0.5,0.9,1.1,1.4,1.7
						c0.4,0.6,0.8,1.2,1.2,1.8c-0.4-0.6-0.8-1.2-1.3-1.7c-0.5-0.5-0.9-1.1-1.5-1.6c-1-1-2.2-1.9-3.4-2.6c-1.3-0.7-2.6-1.2-4-1.5
						c-1.4-0.3-2.8-0.4-4.2-0.2l0,0c-0.2,0-0.3-0.1-0.3-0.2S85.4,89.7,85.6,89.6C85.5,89.6,85.6,89.6,85.6,89.6z"/>
				</g>
				<g>
					<path class="st26" d="M85,85.7c2.6-0.6,5.2-0.9,7.9-1.1c2.6-0.2,5.3-0.3,8-0.1c2.7,0.1,5.3,0.4,7.9,0.9
						c2.6,0.5,5.1,1.3,7.6,2.3c-2.5-0.9-5-1.7-7.6-2.1c-2.6-0.4-5.2-0.7-7.9-0.8c-2.6-0.1-5.3,0-7.9,0.3c-2.6,0.3-5.2,0.7-7.8,1.3
						l0,0c-0.2,0-0.3-0.1-0.3-0.2C84.8,85.9,84.9,85.7,85,85.7C85,85.7,85,85.7,85,85.7z"/>
				</g>
				<g>
					<path class="st26" d="M67.1,85.3c-2.4-0.7-5-1.2-7.5-1.4c-2.6-0.2-5.1-0.2-7.7,0c-5.1,0.4-10.2,1.6-14.9,3.7
						c4.7-2.1,9.8-3.4,14.9-3.9c2.6-0.2,5.2-0.3,7.8-0.1c2.6,0.2,5.2,0.5,7.7,1.3c0.2,0,0.2,0.2,0.2,0.4
						C67.4,85.3,67.3,85.3,67.1,85.3C67.1,85.3,67.1,85.3,67.1,85.3L67.1,85.3z"/>
				</g>
				<g>
					<path class="st26" d="M70.1,87.5c-2-0.5-4-0.6-6.1-0.5c-2,0.1-4.1,0.5-6,1.2c-1.9,0.7-3.8,1.6-5.4,2.9
						c-1.7,1.2-3.1,2.7-4.4,4.3c1.3-1.6,2.6-3.2,4.3-4.4c1.6-1.3,3.5-2.3,5.4-3c1.9-0.7,4-1.2,6.1-1.3c2.1-0.1,4.2,0,6.2,0.4
						c0.2,0,0.3,0.2,0.2,0.3C70.4,87.4,70.3,87.5,70.1,87.5C70.1,87.5,70.1,87.5,70.1,87.5L70.1,87.5z"/>
				</g>
				<g>
					<path class="st26" d="M68.8,89.2c-1.3-0.2-2.8-0.1-4.1,0.2c-1.3,0.3-2.7,0.8-3.8,1.6c-1.2,0.8-2.3,1.7-3.1,2.8
						c-0.5,0.5-0.8,1.1-1.3,1.7c-0.4,0.6-0.7,1.2-1,1.8c0.3-0.6,0.6-1.3,1-1.9c0.4-0.6,0.7-1.2,1.2-1.7c0.8-1.1,1.9-2.1,3.1-2.9
						c1.2-0.8,2.5-1.4,3.9-1.8c1.4-0.4,2.8-0.5,4.3-0.4c0.2,0,0.3,0.2,0.3,0.3C69.1,89.1,69,89.2,68.8,89.2
						C68.8,89.2,68.8,89.2,68.8,89.2L68.8,89.2z"/>
				</g>
				<g>
					<g>
						<path class="st26" d="M76.9,85.6c0,0.8-0.4,1.5-0.7,2.1c-0.3,0.7-0.8,1.3-1.2,1.9c-0.9,1.2-2,2.3-3.4,3c-1.4,0.7-3,1-4.5,0.7
							c-1.5-0.3-2.9-1-4.1-1.9c-0.1-0.1-0.1-0.2,0-0.2c0.1-0.1,0.2-0.1,0.2,0c1.2,0.8,2.6,1.5,4,1.7c1.4,0.3,2.9,0,4.2-0.7
							c1.3-0.6,2.4-1.7,3.3-2.8c0.5-0.6,0.9-1.2,1.2-1.8C76.3,86.9,76.8,86.3,76.9,85.6C76.9,85.5,76.9,85.5,76.9,85.6
							C76.9,85.5,76.9,85.5,76.9,85.6z"/>
					</g>
					<g>
						<path class="st26" d="M77.2,86.1c0.7,1.3,1.5,2.4,2.4,3.5c0.9,1.1,2,2,3.2,2.7c1.2,0.7,2.6,1,4,0.9c1.4,0,2.7-0.7,3.9-1.3l0,0
							c0.1,0,0.2,0,0.2,0.1c0,0.1,0,0.2-0.1,0.2c-1.2,0.7-2.6,1.5-4.1,1.5c-1.5,0.1-3-0.2-4.2-1c-1.3-0.7-2.3-1.8-3.2-2.9
							C78.5,88.6,77.8,87.4,77.2,86.1z"/>
					</g>
					<path class="st26" d="M73.1,82.1c-0.1,0.5,0.1,1,0.5,1.3c0.6,0.4,1.3,0.6,2,0.6c1,0.1,1.2,0.6,1.3,1.6c0,0.3,0.8,0.2,0.8,0.1
						c0.3-1.8,1.9-1.5,3-2c1.3-0.7,1.2-2,0-2.6C78.9,80.2,73.5,79.5,73.1,82.1z"/>
					<path class="st26" d="M68.8,93c0,0,2.1,2.6,4.3,2.7c2,0.1,2.8-1.5,3.8-1.5c1.8,0,2.4,1.6,4.4,1.8c2,0.2,3.8-2.8,3.8-2.8
						s-3.1-1-5.3-3.4c-1-1.1-2-3.3-2-4.2c0,0-0.8-1.2-0.8,0C76.9,86.8,73.4,91.9,68.8,93z"/>
					<g>
						<path class="st30" d="M71,94.8c0,0,0.7-1.9,0.9-1.9s0.6,2.7,0.6,2.7S71.9,95.6,71,94.8z"/>
						<path class="st26" d="M71,95l0-0.2c0.1-0.4,0.2-0.8,0.3-1.2c0.1-0.2,0.1-0.4,0.2-0.6c0,0,0.1-0.1,0.1-0.2c0,0,0-0.1,0.1-0.1
							c0,0,0.2,0,0.2,0c0.1,0,0.1,0.1,0.1,0.1c0.1,0.1,0.1,0.2,0.1,0.3c0.2,0.8,0.4,1.6,0.5,2.4l0,0c0,0.1-0.1,0.2-0.2,0.3
							c0,0-0.1,0-0.1,0c-0.2,0-0.3-0.1-0.5-0.2c-0.1-0.1-0.3-0.1-0.4-0.2c-0.1-0.1-0.2-0.2-0.4-0.3l-0.2-0.1C71,95.1,71,95,71,95z
							 M71.1,94.8l0.1,0c0,0,0.1,0,0.1,0l0.2,0.1c0.1,0.1,0.2,0.2,0.3,0.2c0.1,0.1,0.2,0.1,0.4,0.2c0.1,0.1,0.3,0.1,0.3,0.1
							l-0.3,0.3c-0.1-0.8-0.3-1.6-0.4-2.4c0-0.1-0.1-0.2-0.1-0.2c0,0,0,0,0,0c0,0,0.1,0,0.1,0c0,0,0,0,0,0c0,0,0,0.1-0.1,0.1
							c-0.1,0.2-0.2,0.3-0.3,0.5L71.1,94.8z"/>
					</g>
					<path class="st53" d="M81.2,96c-0.2-0.8-0.7-2.9-1.8-3.4c-1.2-0.6-2.6,0.3-2.6,0.3c-2.8-2.4-4.4,2.8-4.4,2.8l0,0
						c0.2,0.1,0.4,0.1,0.6,0.1c2,0.1,2.8-1.5,3.8-1.5C78.7,94.3,79.3,95.8,81.2,96z"/>
					<path class="st123" d="M69,93.1c0.5,0.6,2.3,2.6,4.2,2.7c2,0.1,2.8-1.5,3.8-1.5c1.8,0,2.4,1.6,4.4,1.8c2,0.2,3.8-2.8,3.8-2.8"
						/>
				</g>
			</g>
			<g>
				<path class="st26" d="M72.8,99c0.6,0.4,1.3,0.7,2,0.9c0.7,0.2,1.4,0.4,2.1,0.3c0.7,0,1.4-0.1,2.1-0.4c0.7-0.2,1.3-0.6,2-0.9l0,0
					c0.1,0,0.2,0,0.2,0.1c0,0.1,0,0.1,0,0.2c-0.3,0.2-0.6,0.5-0.9,0.7c-0.3,0.2-0.7,0.4-1.1,0.5c-0.7,0.3-1.5,0.4-2.3,0.4
					c-1.6,0-3.2-0.7-4.3-1.8c0,0,0-0.1,0-0.1C72.7,99,72.7,99,72.8,99L72.8,99z"/>
			</g>
		</g>
	</g>
</g>
<g id="mask" class="st0">
</g>
</svg>
