<?xml version="1.0" encoding="utf-8"?>
<!-- Generator: Adobe Illustrator 21.0.0, SVG Export Plug-In . SVG Version: 6.00 Build 0)  -->
<svg version="1.1" xmlns="http://www.w3.org/2000/svg" xmlns:xlink="http://www.w3.org/1999/xlink" x="0px" y="0px"
	 viewBox="0 0 176.8 172.4" style="enable-background:new 0 0 176.8 172.4;" xml:space="preserve">
<style type="text/css">
	.st0{display:none;}
	.st1{display:inline;fill:#FD9994;}
	.st2{display:inline;fill:#FFFFFF;}
	.st3{display:inline;fill:none;stroke:#FFFFFF;stroke-width:2.2363;stroke-miterlimit:10;}
	.st4{display:inline;}
	.st5{fill:none;stroke:#FFFFFF;stroke-width:2.2363;stroke-miterlimit:10;}
	.st6{fill:#FFB380;}
	.st7{fill:#D2C3DB;}
	.st8{fill:#F9ECDC;}
	.st9{fill:#FFF58B;}
	.st10{fill:#F6BC60;}
	.st11{fill:#ECF784;}
	.st12{fill:#FFDEFF;}
	.st13{fill:#AED5D2;}
	.st14{fill:#F4BD9F;}
	.st15{fill:#B9DCFF;}
	.st16{fill:#D7FFFB;}
	.st17{fill:#81D8F7;}
	.st18{fill:#E57777;}
	.st19{fill:#D9FFDB;}
	.st20{opacity:0.1;}
	.st21{fill:#5CCDFF;}
	.st22{fill:none;}
	.st23{opacity:0.2;fill:#FFFFFF;}
	.st24{opacity:0.1;fill:#002CBF;}
	.st25{fill:#1A1A1A;}
	.st26{fill:#333333;}
	.st27{fill:#FFFFDE;}
	.st28{clip-path:url(#SVGID_4_);}
	.st29{fill:none;stroke:#333333;stroke-width:0.4917;stroke-linecap:round;stroke-linejoin:round;stroke-miterlimit:10;}
	.st30{fill:#FFFFFF;}
	.st31{fill:none;stroke:#333333;stroke-width:0.8543;stroke-miterlimit:10;}
	.st32{clip-path:url(#SVGID_6_);}
	.st33{fill:#FFD7B9;}
	.st34{fill:#F0FFFF;}
	.st35{clip-path:url(#SVGID_8_);}
	.st36{fill:#FF5C5C;}
	.st37{fill:none;stroke:#333333;stroke-width:0.466;stroke-linecap:round;stroke-linejoin:round;stroke-miterlimit:10;}
	.st38{fill:none;stroke:#333333;stroke-width:0.8095;stroke-miterlimit:10;}
	.st39{clip-path:url(#SVGID_10_);}
	.st40{fill:none;stroke:#333333;stroke-width:0.7381;stroke-linecap:round;stroke-linejoin:round;stroke-miterlimit:10;}
	.st41{fill:none;stroke:#333333;stroke-width:0.8857;stroke-linecap:round;stroke-linejoin:round;stroke-miterlimit:10;}
	.st42{fill:none;stroke:#333333;stroke-width:2.6852;stroke-linecap:round;stroke-linejoin:round;stroke-miterlimit:10;}
	.st43{fill:#72B5C4;}
	.st44{fill:#5E96A5;}
	.st45{fill:none;stroke:#FFFFFF;stroke-width:2.6852;stroke-linecap:round;stroke-linejoin:round;stroke-miterlimit:10;}
	.st46{fill:none;stroke:#FFFFFF;stroke-width:1.2942;stroke-linecap:round;stroke-linejoin:round;stroke-miterlimit:10;}
	.st47{fill:none;stroke:#FFFFFF;stroke-width:0.8311;stroke-linecap:round;stroke-linejoin:round;stroke-miterlimit:10;}
	.st48{fill:#FF5C00;}
	.st49{fill:#00B4FF;}
	.st50{fill:#FF5592;}
	.st51{fill:#733FFF;}
	.st52{fill:#DDFF15;}
	.st53{fill:#BF5855;}
	.st54{fill:none;stroke:#333333;stroke-width:0.5718;stroke-miterlimit:10;}
	.st55{fill:#C8F982;}
	.st56{fill:#AEF9C0;}
	.st57{fill:none;stroke:#FFFFFF;stroke-width:1.8326;stroke-miterlimit:10;}
	.st58{fill:#9AF6F9;}
	.st59{fill:#FFACA2;}
	.st60{fill:#F9E582;}
	.st61{fill:#FFC08B;}
	.st62{fill:#EFEB6A;}
	.st63{fill:#EC987F;}
	.st64{fill:#B5FFCC;}
	.st65{fill:#FFEDA2;}
	.st66{fill:#CCE7CC;}
	.st67{fill:#ABE7AB;}
	.st68{fill:#A6A6A6;}
	.st69{clip-path:url(#SVGID_60_);}
	.st70{fill:none;stroke:#333333;stroke-width:0.4706;stroke-linecap:round;stroke-linejoin:round;stroke-miterlimit:10;}
	.st71{fill:#FFEC55;}
	.st72{fill:none;stroke:#333333;stroke-width:0.8177;stroke-miterlimit:10;}
	.st73{clip-path:url(#SVGID_62_);}
	.st74{clip-path:url(#SVGID_64_);}
	.st75{fill:#FF7A59;}
	.st76{clip-path:url(#SVGID_66_);}
	.st77{clip-path:url(#SVGID_68_);}
	.st78{fill:#B45FFF;}
	.st79{clip-path:url(#SVGID_70_);}
	.st80{opacity:0.2;fill:#002CBF;}
	.st81{fill:none;stroke:#333333;stroke-width:0.5506;stroke-linecap:round;stroke-linejoin:round;stroke-miterlimit:10;}
	.st82{clip-path:url(#SVGID_72_);}
	.st83{fill:#EAA871;}
	.st84{fill:#FFD836;}
	.st85{fill:#FF846B;}
	.st86{fill:none;stroke:#333333;stroke-width:0.804;stroke-linecap:round;stroke-linejoin:round;stroke-miterlimit:10;}
	.st87{fill:#FEFF4A;}
	.st88{fill:none;stroke:#333333;stroke-width:0.7645;stroke-linecap:round;stroke-linejoin:round;stroke-miterlimit:10;}
	.st89{fill:none;stroke:#333333;stroke-width:0.7645;stroke-miterlimit:10;}
	.st90{fill:none;stroke:#333333;stroke-width:2.9248;stroke-linecap:round;stroke-linejoin:round;stroke-miterlimit:10;}
	.st91{fill:none;stroke:#333333;stroke-width:0.945;stroke-linecap:round;stroke-linejoin:round;stroke-miterlimit:10;}
	.st92{fill:none;stroke:#333333;stroke-width:0.945;stroke-miterlimit:10;}
	.st93{fill:none;stroke:#333333;stroke-width:3.6155;stroke-linecap:round;stroke-linejoin:round;stroke-miterlimit:10;}
	.st94{fill:none;stroke:#333333;stroke-width:0.6228;stroke-miterlimit:10;}
	.st95{fill:none;stroke:#333333;stroke-width:0.7778;stroke-linecap:round;stroke-linejoin:round;stroke-miterlimit:10;}
	.st96{fill:#FF712A;}
	.st97{fill:none;stroke:#333333;stroke-width:0.7396;stroke-linecap:round;stroke-linejoin:round;stroke-miterlimit:10;}
	.st98{fill:none;stroke:#333333;stroke-width:0.7396;stroke-miterlimit:10;}
	.st99{fill:none;stroke:#333333;stroke-width:2.8295;stroke-linecap:round;stroke-linejoin:round;stroke-miterlimit:10;}
	.st100{fill:none;stroke:#333333;stroke-width:0.9142;stroke-linecap:round;stroke-linejoin:round;stroke-miterlimit:10;}
	.st101{fill:none;stroke:#333333;stroke-width:0.9142;stroke-miterlimit:10;}
	.st102{fill:none;stroke:#333333;stroke-width:3.4977;stroke-linecap:round;stroke-linejoin:round;stroke-miterlimit:10;}
	.st103{fill:none;stroke:#333333;stroke-width:0.6025;stroke-miterlimit:10;}
	.st104{fill:url(#SVGID_89_);}
	.st105{fill:url(#SVGID_90_);}
	.st106{fill:none;stroke:#333333;stroke-width:0.7438;stroke-linecap:round;stroke-linejoin:round;stroke-miterlimit:10;}
	.st107{fill:none;stroke:#333333;stroke-width:0.8926;stroke-linecap:round;stroke-linejoin:round;stroke-miterlimit:10;}
	.st108{clip-path:url(#SVGID_92_);fill:url(#SVGID_93_);}
	.st109{fill:url(#SVGID_94_);}
	.st110{fill:#52C5FF;}
	.st111{fill:none;stroke:#333333;stroke-width:0.6367;stroke-linecap:round;stroke-linejoin:round;stroke-miterlimit:10;}
	.st112{fill:none;stroke:#333333;stroke-width:2.7061;stroke-linecap:round;stroke-linejoin:round;stroke-miterlimit:10;}
	.st113{fill:none;stroke:#333333;stroke-width:0.5763;stroke-miterlimit:10;}
	.st114{fill:none;stroke:#FFFFFF;stroke-width:1.3042;stroke-linecap:round;stroke-linejoin:round;stroke-miterlimit:10;}
	.st115{fill:none;stroke:#FFFFFF;stroke-width:0.8375;stroke-linecap:round;stroke-linejoin:round;stroke-miterlimit:10;}
	.st116{clip-path:url(#SVGID_96_);}
	.st117{opacity:0.2;fill:#2E3192;}
	.st118{fill:#FEFF78;}
	.st119{opacity:0.1;fill:#2E3192;}
	.st120{fill:#FF5A50;}
	.st121{fill:none;stroke:#333333;stroke-width:0.567;stroke-linecap:round;stroke-linejoin:round;stroke-miterlimit:10;}
	.st122{fill:none;stroke:#333333;stroke-width:2.5786;stroke-linecap:round;stroke-linejoin:round;stroke-miterlimit:10;}
	.st123{fill:none;stroke:#333333;stroke-width:0.5491;stroke-miterlimit:10;}
	.st124{clip-path:url(#SVGID_98_);}
	.st125{fill:#2AD2FF;}
	.st126{fill:none;stroke:#333333;stroke-width:0.2435;stroke-miterlimit:10;}
	.st127{fill:#FFFFFF;stroke:#333333;stroke-width:0.487;stroke-linecap:round;stroke-linejoin:round;stroke-miterlimit:10;}
	.st128{clip-path:url(#SVGID_100_);}
	.st129{fill:url(#SVGID_101_);}
	.st130{opacity:0.4;fill:#FFFFFF;}
	.st131{fill:#FFDC48;}
	.st132{fill:none;stroke:#333333;stroke-width:0.5835;stroke-linecap:round;stroke-linejoin:round;stroke-miterlimit:10;}
	.st133{fill:none;stroke:#333333;stroke-width:2.6537;stroke-linecap:round;stroke-linejoin:round;stroke-miterlimit:10;}
	.st134{fill:#F0F462;}
	.st135{fill:url(#SVGID_102_);}
	.st136{fill:url(#SVGID_103_);}
	.st137{fill:#D1DADF;}
	.st138{fill:#57FFA3;}
	.st139{clip-path:url(#SVGID_105_);}
	.st140{clip-path:url(#SVGID_107_);}
	.st141{fill:#D0BBF9;}
	.st142{clip-path:url(#SVGID_109_);}
	.st143{fill:none;stroke:#333333;stroke-width:0.5867;stroke-linecap:round;stroke-linejoin:round;stroke-miterlimit:10;}
	.st144{clip-path:url(#SVGID_111_);}
	.st145{fill:none;stroke:#333333;stroke-width:0.5514;stroke-linecap:round;stroke-linejoin:round;stroke-miterlimit:10;}
	.st146{fill:#D1E9D3;}
	.st147{clip-path:url(#SVGID_113_);}
	.st148{fill:none;stroke:#333333;stroke-width:0.7684;stroke-linecap:round;stroke-linejoin:round;stroke-miterlimit:10;}
	.st149{fill:none;stroke:#333333;stroke-width:0.7684;stroke-miterlimit:10;}
	.st150{fill:none;stroke:#333333;stroke-width:2.9398;stroke-linecap:round;stroke-linejoin:round;stroke-miterlimit:10;}
	.st151{clip-path:url(#SVGID_115_);}
	.st152{fill:#FF66F8;}
	.st153{fill:none;stroke:#333333;stroke-width:0.7542;stroke-linecap:round;stroke-linejoin:round;stroke-miterlimit:10;}
	.st154{fill:none;stroke:#333333;stroke-width:0.9051;stroke-linecap:round;stroke-linejoin:round;stroke-miterlimit:10;}
	.st155{fill:none;stroke:#333333;stroke-width:0.5146;stroke-linecap:round;stroke-linejoin:round;stroke-miterlimit:10;}
	.st156{fill:none;stroke:#333333;stroke-width:0.6033;stroke-linecap:round;stroke-linejoin:round;stroke-miterlimit:10;}
	.st157{fill:none;stroke:#333333;stroke-width:2.7439;stroke-linecap:round;stroke-linejoin:round;stroke-miterlimit:10;}
	.st158{fill:#333333;stroke:#333333;stroke-width:1.0293;stroke-linecap:round;stroke-linejoin:round;stroke-miterlimit:10;}
	.st159{fill:#FF5F2A;}
	.st160{fill:none;stroke:#333333;stroke-width:0.5965;stroke-linecap:round;stroke-linejoin:round;stroke-miterlimit:10;}
	.st161{fill:#F9CC3E;}
	.st162{clip-path:url(#SVGID_121_);}
	.st163{fill:#70E1FF;}
	.st164{fill:none;stroke:#333333;stroke-width:0.5717;stroke-linecap:round;stroke-linejoin:round;stroke-miterlimit:10;}
	.st165{fill:none;stroke:#333333;stroke-width:2.6004;stroke-linecap:round;stroke-linejoin:round;stroke-miterlimit:10;}
	.st166{clip-path:url(#SVGID_123_);}
	.st167{fill:#8F61FF;}
	.st168{clip-path:url(#SVGID_125_);}
	.st169{clip-path:url(#SVGID_127_);}
	.st170{fill:#FFEBEB;}
	.st171{clip-path:url(#SVGID_129_);}
	.st172{clip-path:url(#SVGID_131_);}
	.st173{fill:#F47D62;}
	.st174{fill:none;stroke:#333333;stroke-width:0.7188;stroke-linecap:round;stroke-linejoin:round;stroke-miterlimit:10;}
	.st175{fill:none;stroke:#333333;stroke-width:0.7188;stroke-miterlimit:10;}
	.st176{fill:none;stroke:#333333;stroke-width:2.7502;stroke-linecap:round;stroke-linejoin:round;stroke-miterlimit:10;}
	.st177{fill:#85ACB5;}
	.st178{clip-path:url(#SVGID_133_);}
	.st179{fill:#D5F2F7;}
	.st180{fill:#FF694A;}
	.st181{fill:none;stroke:#333333;stroke-width:0.5693;stroke-linecap:round;stroke-linejoin:round;stroke-miterlimit:10;}
	.st182{fill:#FFDF15;}
	.st183{fill:none;stroke:#333333;stroke-width:0.6674;stroke-linecap:round;stroke-linejoin:round;stroke-miterlimit:10;}
	.st184{fill:none;stroke:#333333;stroke-width:3.0352;stroke-linecap:round;stroke-linejoin:round;stroke-miterlimit:10;}
	.st185{clip-path:url(#SVGID_135_);}
	.st186{clip-path:url(#SVGID_137_);}
	.st187{fill:none;stroke:#333333;stroke-width:0.5248;stroke-linecap:round;stroke-linejoin:round;stroke-miterlimit:10;}
	.st188{fill:#FFD33A;}
	.st189{fill:none;stroke:#333333;stroke-width:2.7983;stroke-linecap:round;stroke-linejoin:round;stroke-miterlimit:10;}
	.st190{fill:none;stroke:#333333;stroke-width:0.7692;stroke-linecap:round;stroke-linejoin:round;stroke-miterlimit:10;}
	.st191{fill:none;stroke:#333333;stroke-width:0.5959;stroke-miterlimit:10;}
	.st192{clip-path:url(#SVGID_143_);}
	.st193{fill:#FFE267;}
	.st194{clip-path:url(#SVGID_149_);}
	.st195{fill:#FFEEAA;}
	.st196{opacity:0.7;fill:url(#SVGID_152_);}
	.st197{fill:none;stroke:#333333;stroke-width:0.611;stroke-miterlimit:10;}
	.st198{clip-path:url(#SVGID_154_);}
	.st199{opacity:0.7;fill:url(#SVGID_157_);}
	.st200{fill:#EABBFC;}
	.st201{opacity:0.7;fill:url(#SVGID_160_);}
	.st202{opacity:0.7;fill:url(#SVGID_163_);}
	.st203{opacity:0.7;fill:url(#SVGID_166_);}
	.st204{opacity:0.7;fill:url(#SVGID_169_);}
	.st205{clip-path:url(#SVGID_171_);}
	.st206{fill:none;stroke:#333333;stroke-width:0.5899;stroke-linecap:round;stroke-linejoin:round;stroke-miterlimit:10;}
	.st207{fill:none;stroke:#333333;stroke-width:2.6828;stroke-linecap:round;stroke-linejoin:round;stroke-miterlimit:10;}
	.st208{fill:none;stroke:#333333;stroke-width:0.5713;stroke-miterlimit:10;}
	.st209{clip-path:url(#SVGID_173_);}
	.st210{clip-path:url(#SVGID_175_);}
	.st211{clip-path:url(#SVGID_177_);}
	.st212{fill:#FFAFC3;}
	.st213{fill:#A0D3FF;}
	.st214{fill:none;stroke:#333333;stroke-width:0.7262;stroke-linecap:round;stroke-linejoin:round;stroke-miterlimit:10;}
	.st215{fill:none;stroke:#333333;stroke-width:0.6906;stroke-miterlimit:10;}
	.st216{fill:none;stroke:#333333;stroke-width:0.8536;stroke-miterlimit:10;}
	.st217{fill:#333333;stroke:#333333;stroke-width:0.991;stroke-linecap:round;stroke-linejoin:round;stroke-miterlimit:10;}
	.st218{clip-path:url(#SVGID_179_);}
	.st219{clip-path:url(#SVGID_181_);}
	.st220{fill:#FD9994;}
	.st221{opacity:0.2;}
	.st222{fill:#2E3192;}
	.st223{display:inline;fill:#FF5B00;}
</style>
<g id="site">
</g>
<g id="kitties">
	<g>
		<ellipse class="st20" cx="86.8" cy="153" rx="53.9" ry="7.4"/>
		<path class="st21" d="M117.2,138.2c0,0,10.3-1.7,11.4-3.9c0,0-3.8-8.1,1-13.6s8.3-5.7,8.3-5.7l-8.3,1.4c0,0,7.5-7.2,14-7.8
			s11.5,2.2,14.2,5.6c2.6,3.5,10.3,15.1,0.7,28s-30.4,8.1-30.4,8.1l-12.3-3.6L117.2,138.2"/>
		<path class="st22" d="M117.2,138.2c0,0,10.3-1.7,11.4-3.9c0,0-3.8-8.1,1-13.6s8.3-5.7,8.3-5.7l-8.3,1.4c0,0,7.5-7.2,14-7.8
			s11.5,2.2,14.2,5.6c2.6,3.5,10.3,15.1,0.7,28s-30.4,8.1-30.4,8.1l-12.3-3.6L117.2,138.2"/>
		<path class="st23" d="M161.8,121.8c-1.2-3.4-3-6-4.1-7.3c-2.6-3.5-7.6-6.2-14.2-5.6c-6.5,0.6-14,7.8-14,7.8s10.7-6.6,16.6-6
			C154.7,111.3,160.1,119,161.8,121.8z"/>
		<path class="st24" d="M128,150.5c0,0,16.9,3.9,27.3-4.8c-2.6,0.9-6.6,1.9-12.8,2.4c-7.1,0.6-24.3-1.7-19.8-10.7l-5.5,0.8l-1.4,8.7
			L128,150.5z"/>
		<path class="st24" d="M128.2,134.7c0,0,2.1,7.1,7.6,7.6c0,0,1.5-5,4.7-5.3c2.8-0.2,4.3-2.1,4.3-2.1l-2.1,3.9c0,0,4.3,0.9,7.9-1.5
			s2.6-8.5,2.6-8.5s0,7-9,9.1l2-5.7c0,0-0.3,2.2-5.2,3.4c-3.8,0.9-4.8,2.6-5.6,5.4l0,0c0,0-4.7-2.6-6.8-6.5
			c-0.2-0.3-1.3,0.9-1.3,0.9"/>
		<g>
			<g>
				<path class="st25" d="M113.7,137.1c1.1,0.5,2.5,0.8,3.7,0.8c1.3,0,2.6-0.2,3.8-0.5c1.3-0.3,2.5-0.8,3.7-1.3l1.8-0.9
					c0.6-0.3,1.1-0.7,1.7-1l0,0c0.1,0,0.2,0,0.3,0.1c0,0.1,0,0.2-0.1,0.2c-0.5,0.4-1.1,0.8-1.6,1.2c-0.6,0.3-1.2,0.7-1.7,1
					c-1.2,0.6-2.5,1.1-3.8,1.5c-1.3,0.3-2.7,0.5-4.1,0.4c-1.4-0.1-2.7-0.4-3.9-1.2c-0.1-0.1-0.1-0.2-0.1-0.3
					C113.5,137.1,113.6,137,113.7,137.1L113.7,137.1z"/>
			</g>
			<g>
				<path class="st25" d="M114.6,146.1c4.1,1.9,8.6,3.1,13,3.9c2.2,0.4,4.5,0.6,6.8,0.8c2.3,0.1,4.5,0.2,6.8,0
					c4.5-0.4,9-1.6,12.6-4.3c1.8-1.3,3.4-3,4.6-4.8c1.3-1.9,2.2-3.9,2.9-6.1c1.5-4.2,1.8-8.9,0.6-13.3c-1.2-4.3-4.1-8.1-7.9-10.5
					c-1.9-1.2-4-2.1-6.2-2.5c-2.2-0.4-4.5-0.3-6.7,0.3c-4.4,1.1-8.2,3.9-11.4,7.1c-0.1,0.1-0.2,0.1-0.2,0c-0.1-0.1-0.1-0.2,0-0.2
					c3.2-3.2,7-6.1,11.5-7.4c2.2-0.6,4.6-0.8,6.9-0.4c2.3,0.4,4.5,1.3,6.5,2.5c2,1.2,3.7,2.8,5.1,4.7c1.4,1.9,2.5,4,3.1,6.2
					c1.3,4.5,1,9.4-0.5,13.7c-1.4,4.4-4,8.6-7.8,11.3c-3.8,2.8-8.5,4-13,4.4c-2.3,0.2-4.6,0.1-6.9,0c-2.3-0.2-4.6-0.4-6.8-0.8
					c-4.5-0.8-9-2.2-13.1-4.2c-0.1-0.1-0.2-0.2-0.1-0.3C114.4,146.1,114.5,146.1,114.6,146.1z"/>
			</g>
			<g>
				<path class="st25" d="M137.9,115.3c-2.7,0.8-5.2,2.4-7,4.5c-1.8,2.1-3,4.7-3.3,7.5c-0.2,1.4-0.2,2.8,0.1,4.1
					c0.3,1.3,0.9,2.6,1.6,3.8c1.5,2.3,3.7,4.2,6.1,5.6c0.1,0,0.1,0.2,0.1,0.2c0,0.1-0.1,0.1-0.2,0.1c-1.3-0.7-2.5-1.4-3.6-2.3
					c-1.1-0.9-2.1-2-3-3.2c-0.8-1.2-1.5-2.6-1.8-4c-0.3-1.4-0.4-2.9-0.2-4.4c0.2-1.5,0.6-2.9,1.2-4.2c0.6-1.3,1.4-2.6,2.4-3.6
					c2-2.1,4.6-3.6,7.5-4.2c0.1,0,0.1,0,0.1,0.1C138,115.2,137.9,115.3,137.9,115.3L137.9,115.3z"/>
			</g>
			<g>
				<path class="st25" d="M135.2,140.9c0.2-1.3,0.6-2.5,1.3-3.6c0.4-0.6,0.8-1.1,1.4-1.4c0.3-0.2,0.6-0.3,1-0.4
					c0.4-0.1,0.7-0.1,1-0.2c1.2-0.2,2.4-0.5,3.5-1c0.5-0.2,1.1-0.5,1.5-0.9c0.5-0.4,0.9-0.8,1.1-1.3l0,0c0-0.1,0.2-0.1,0.2-0.1
					c0.1,0,0.1,0.1,0.1,0.2c-0.4,1.4-1.6,2.2-2.7,2.8c-1.2,0.6-2.4,1-3.7,1.2c-0.3,0-0.6,0.1-0.9,0.1c-0.3,0.1-0.5,0.2-0.8,0.3
					c-0.5,0.3-0.9,0.7-1.2,1.2c-0.7,0.9-1.2,2.1-1.6,3.3l0,0c0,0.1-0.1,0.1-0.2,0.1C135.2,141,135.2,140.9,135.2,140.9z"/>
			</g>
			<g>
				<path class="st25" d="M146.5,132.1c-0.1,1-0.4,2-0.7,3c-0.2,0.5-0.4,1-0.6,1.4c-0.2,0.5-0.5,0.9-0.8,1.4c-0.1,0.1-0.2,0.1-0.2,0
					c-0.1,0-0.1-0.1-0.1-0.2l0,0c0.3-1,0.6-1.9,0.9-2.9c0.3-1,0.7-1.9,1.1-2.8c0.1-0.1,0.2-0.2,0.3-0.1
					C146.4,131.9,146.5,132,146.5,132.1z"/>
			</g>
			<g>
				<path class="st25" d="M144.2,137.6c1.1-0.3,2.2-0.7,3.1-1.2c1-0.5,1.9-1.2,2.7-1.9c0.8-0.8,1.5-1.7,1.9-2.6
					c0.5-1,0.8-2.1,1.1-3.2l0,0c0-0.1,0.1-0.1,0.2-0.1c0.1,0,0.1,0.1,0.1,0.2c0,0.6-0.1,1.2-0.2,1.8c-0.1,0.6-0.3,1.2-0.5,1.7
					c-0.2,0.6-0.5,1.1-0.8,1.6c-0.4,0.5-0.7,1-1.2,1.4c-0.9,0.8-1.9,1.5-3,2c-1.1,0.5-2.2,0.8-3.4,0.9c-0.1,0-0.2-0.1-0.2-0.2
					C144,137.7,144.1,137.7,144.2,137.6L144.2,137.6z"/>
			</g>
		</g>
		<g>
			<path class="st25" d="M129.5,116.4c1.4-0.4,2.7-0.6,4.1-0.8c1.4-0.2,2.8-0.4,4.2-0.5c0.1,0,0.1,0,0.1,0.1c0,0.1,0,0.1-0.1,0.1
				l0,0c-1.4,0.4-2.7,0.6-4.1,0.9c-1.4,0.2-2.8,0.5-4.2,0.6c-0.1,0-0.2-0.1-0.2-0.1C129.4,116.5,129.5,116.5,129.5,116.4z"/>
		</g>
		<path class="st21" d="M125.6,52.6c0,0,39.3-32.4-24.8-13.1L125.6,52.6z"/>
		<path class="st21" d="M42.8,52.6c0,0-39.3-32.4,24.8-13.1"/>
		<g>
			<path class="st26" d="M42.7,52.7c-3.8-3.1-7.5-6.5-10.3-10.7c-0.7-1-1.3-2.2-1.7-3.4c-0.2-0.6-0.3-1.3-0.2-2
				c0.1-0.7,0.4-1.4,0.9-1.9c0.5-0.5,1.1-0.9,1.7-1.1c0.6-0.3,1.2-0.4,1.9-0.5c1.3-0.2,2.5-0.3,3.8-0.3c5,0.2,9.9,1.2,14.7,2.4
				c4.8,1.2,9.5,2.6,14.3,4.1c0.1,0,0.1,0.1,0.1,0.2c0,0.1-0.1,0.1-0.2,0.1c-4.7-1.3-9.5-2.6-14.3-3.7c-2.4-0.5-4.8-1-7.2-1.4
				c-2.4-0.4-4.9-0.7-7.3-0.8c-1.2,0-2.4,0-3.6,0.2c-1.2,0.2-2.3,0.5-3.1,1.3c-0.8,0.8-0.8,2-0.5,3.1c0.3,1.1,0.9,2.2,1.5,3.2
				c1.3,2.1,2.9,3.9,4.6,5.7c1.7,1.8,3.5,3.5,5.3,5.1c0.1,0,0.1,0.1,0,0.2C42.9,52.7,42.8,52.8,42.7,52.7z"/>
		</g>
		<g>
			<path class="st26" d="M58.9,41.7c-2.1-0.5-4.1-0.9-6.2-1.2c-2.1-0.3-4.2-0.6-6.2-0.8c-2.1-0.2-4.2-0.4-6.3-0.5
				c-2.1-0.1-4.2-0.1-6.3,0c-0.1,0-0.2-0.1-0.2-0.2c0-0.1,0.1-0.2,0.2-0.2c2.1-0.3,4.2-0.4,6.3-0.4c2.1,0,4.3,0,6.4,0.3
				c2.1,0.3,4.2,0.6,6.3,1.1c2.1,0.5,4.1,1,6.1,1.7c0.1,0,0.1,0.1,0.1,0.2C59,41.7,59,41.7,58.9,41.7z"/>
		</g>
		<path class="st26" d="M48.3,48c0.6,0.1,1.2,0.2,1.8,0.1c0.6-0.1,1.1-0.5,1.6-0.8c2-1.4,4-2.9,5.9-4.4c0.3-0.2,0.6-0.5,0.5-0.9
			c0-0.2,3.8,0.5,1-0.2c-1-0.3-3.2-1.1-4.3-1.3c-4.5-0.8-9.1-1.5-13.6-1.8c-4.9-0.4,0.2,5.6,1.7,6.9C44.5,46.7,46.3,47.6,48.3,48z"
			/>
		<g>
			<path class="st26" d="M125.5,52.5c1.9-1.6,3.6-3.3,5.3-5.1c1.7-1.8,3.3-3.7,4.6-5.7c0.6-1,1.2-2.1,1.5-3.2
				c0.3-1.1,0.2-2.3-0.5-3.1c-0.8-0.8-1.9-1.1-3.1-1.3c-1.2-0.2-2.4-0.2-3.6-0.2c-2.4,0.1-4.9,0.4-7.3,0.8c-2.4,0.4-4.8,0.9-7.2,1.4
				c-4.8,1-9.6,2.3-14.3,3.7c-0.1,0-0.2,0-0.2-0.1c0-0.1,0-0.2,0.1-0.2c4.7-1.5,9.5-2.9,14.3-4.1c4.8-1.2,9.7-2.2,14.7-2.4
				c1.3,0,2.5,0,3.8,0.3c0.6,0.1,1.3,0.3,1.9,0.5c0.6,0.2,1.2,0.6,1.7,1.1c0.5,0.5,0.8,1.2,0.9,1.9c0.1,0.7,0,1.4-0.2,2
				c-0.4,1.3-1,2.4-1.7,3.4c-2.8,4.1-6.5,7.5-10.3,10.7c-0.1,0-0.1,0-0.2,0C125.5,52.6,125.5,52.6,125.5,52.5z"/>
		</g>
		<g>
			<path class="st26" d="M109.4,41.4c2-0.7,4-1.2,6.1-1.7c2.1-0.5,4.2-0.8,6.3-1.1c2.1-0.3,4.2-0.3,6.4-0.3c2.1,0,4.2,0.1,6.3,0.4
				c0.1,0,0.2,0.1,0.2,0.2c0,0.1-0.1,0.2-0.2,0.2c-2.1-0.1-4.2-0.1-6.3,0c-2.1,0.1-4.2,0.3-6.3,0.5c-2.1,0.2-4.2,0.4-6.2,0.8
				c-2.1,0.3-4.1,0.8-6.2,1.2c-0.1,0-0.1,0-0.1-0.1C109.3,41.5,109.4,41.5,109.4,41.4z"/>
		</g>
		<path class="st26" d="M120.1,48c-0.6,0.1-1.2,0.2-1.8,0.1c-0.6-0.1-1.1-0.5-1.6-0.8c-2-1.4-4-2.9-5.9-4.4
			c-0.3-0.2-0.6-0.5-0.5-0.9c0-0.2,0.1-0.3,0.3-0.4c0.8-0.7,1.9-1,3-1.1c4.5-0.8,9.1-1.5,13.6-1.8c4.9-0.4-0.2,5.6-1.7,6.9
			C123.9,46.7,122.1,47.6,120.1,48z"/>
		<path class="st27" d="M127.5,93.2c9.4-3.9,10.1-7.7,10.1-7.7s-1.4,0.4-2.9,0.2c-1.8-0.2-3.8-0.9-3.4-1c3.6-1,4.9-3.5,4.9-3.5
			c-1.5-0.4-3.1-1.6-3.2-2.4c0.2-1.7,0.1-3,0.1-3.7c0.3-15.2-9.2-24.1-9.2-24.1s-6.7-9.4-26.1-13.2c0.2-1.1,0.3-2.2,0.4-3.2
			c0.1-2.9-2.3-5.8-2.3-5.8c-0.3,4.8-2.5,5.8-2.5,5.8c1.2-3.2-1.3-6.9-4-9.7c-2.7-2.7-8.9-6-8.9-6s0.4,3,0.3,5.1
			c-0.1,2.1-3,4.4-5,6.5c-1.9,2.1-1,6.1-1,6.1c-1.9-0.2-3.3-4-3.3-4l-0.8,2c-0.2,0.9,0,1.9,0.3,2.9c-0.2,0-0.4,0.1-0.6,0.1
			c0,0-11.1,1.4-22.4,9.7c-2.2,1.6-3.4,3.9-5.6,6.1c0,0-2.4,2.1-3.9,6c-1.8,4.8-3.7,11.7-3.2,18.6c0,0.3,0.1,0.6,0.1,0.9
			c-0.1,0.8-1.1,1.5-3.2,2.2c0,0,1.7,2.5,4.9,3.5c0,0-1.5,1.1-6.3,0.8c-0.4,0,2.4,4.7,10.1,7.7L37,93.6l-3.8-0.4
			c3.2,4.2,10.7,7.2,10.7,7.2l7,1.4c1.5,0.9,3.5,2.1,5.1,2.9c0.6,0.3,1.2,0.6,2,1c1.5,0.8,2.9,1.5,3.5,1.6
			c-1.2,2.8-12.5,27.8-10.2,37.2c-1.1,8,15.2,9,23.8,8.6c0,0,0.7,3.4,4.7,3.7c2.4,0.2,2.9-4.5,3.3-4.2c0.2,0.2,3,0,3,0
			c0,0,1.3,3.4,3.1,4.3c2.3,1.2,3.9-3.5,4.8-4.1c0,0,19,1.9,22.7-5.1c2.2-4.2-0.6-17.2-4-27.3c-1.9-5.7-4.6-11.3-5.7-13.3
			c0.4-0.1,1-0.3,1.7-0.7c0.8-0.3,1.9-0.6,3-1.2c1.3-0.7,4.1-2.3,5.9-3.4c0,0,14.6-2.1,17.7-8.6c0.3-0.6-1.9,0.9-4.9,0.2
			C129.8,93.3,127,93.3,127.5,93.2z"/>
		<g>
			<defs>
				<path id="SVGID_5_" d="M127.5,93.2c9.4-3.9,10.1-7.7,10.1-7.7s-1.4,0.4-2.9,0.2c-1.8-0.2-3.8-0.9-3.4-1c3.6-1,4.9-3.5,4.9-3.5
					c-1.5-0.4-3.1-1.6-3.2-2.4c0.2-1.7,0.1-3,0.1-3.7c0.3-15.2-9.2-24.1-9.2-24.1s-6.7-9.4-26.1-13.2c0.2-1.1,0.3-2.2,0.4-3.2
					c0.1-2.9-2.3-5.8-2.3-5.8c-0.3,4.8-2.5,5.8-2.5,5.8c1.2-3.2-1.3-6.9-4-9.7c-2.7-2.7-8.9-6-8.9-6s0.4,3,0.3,5.1
					c-0.1,2.1-3,4.4-5,6.5c-1.9,2.1-1,6.1-1,6.1c-1.9-0.2-3.3-4-3.3-4l-0.8,2c-0.2,0.9,0,1.9,0.3,2.9c-0.2,0-0.4,0.1-0.6,0.1
					c0,0-11.1,1.4-22.4,9.7c-2.2,1.6-3.4,3.9-5.6,6.1c0,0-2.4,2.1-3.9,6c-1.8,4.8-3.7,11.7-3.2,18.6c0,0.3,0.1,0.6,0.1,0.9
					c-0.1,0.8-1.1,1.5-3.2,2.2c0,0,1.7,2.5,4.9,3.5c0,0-1.5,1.1-6.3,0.8c-0.4,0,2.4,4.7,10.1,7.7L37,93.6l-3.8-0.4
					c3.2,4.2,10.7,7.2,10.7,7.2l7,1.4c1.5,0.9,3.5,2.1,5.1,2.9c0.6,0.3,1.2,0.6,2,1c1.5,0.8,2.9,1.5,3.5,1.6
					c-1.2,2.8-12.5,27.8-10.2,37.2c-1.1,8,15.2,9,23.8,8.6c0,0,0.7,3.4,4.7,3.7c2.4,0.2,2.9-4.5,3.3-4.2c0.2,0.2,3,0,3,0
					c0,0,1.3,3.4,3.1,4.3c2.3,1.2,3.9-3.5,4.8-4.1c0,0,19,1.9,22.7-5.1c2.2-4.2-0.6-17.2-4-27.3c-1.9-5.7-4.6-11.3-5.7-13.3
					c0.4-0.1,1-0.3,1.7-0.7c0.8-0.3,1.9-0.6,3-1.2c1.3-0.7,4.1-2.3,5.9-3.4c0,0,14.6-2.1,17.7-8.6c0.3-0.6-1.9,0.9-4.9,0.2
					C129.8,93.3,127,93.3,127.5,93.2z"/>
			</defs>
			<clipPath id="SVGID_2_">
				<use xlink:href="#SVGID_5_"  style="overflow:visible;"/>
			</clipPath>
			<g style="clip-path:url(#SVGID_2_);">
				<path class="st21" d="M58.8,140c0.4-1.7,1.9-3.1,2.5-4.8c0.5-1.5,0.3-3.2-0.5-4.6c-0.4-0.6-1-1.2-1.2-1.9c0-0.4,0-0.7,0-1.1
					c0-0.2,0.1-0.3,0.1-0.5c0.7-3.3-1.5-11.3-4.8-9.3c-2.9,1.7-5.5,7.9-6.9,10.7c-2,4-3.6,8.2-4.7,12.5c-0.5,1.9-0.9,3.8-0.6,5.8
					c0.3,1.9,1.4,3.8,3.2,4.5c1.6,0.6,3.3,0.2,4.9-0.1c1.6-0.4,3.2-0.7,4.4-1.8c0.7-0.6,1.3-1.4,1.7-2.3c0,0,0,0,0.1-0.1
					c0.9-0.8,1.8-1.8,2-2.9c0.2-1.2-0.3-2.5-0.2-3.7C58.7,140.4,58.7,140.2,58.8,140z"/>
				<path class="st21" d="M108.4,123c0.2,1.2,0.8,2.3,1.1,3.5c0.6,2.2,0.1,4.6-1.3,6.4c-0.7,0.8-1.5,1.6-1.9,2.6
					c-0.7,1.9,0.6,3.9,1.9,5.4s2.8,3.3,2.6,5.3c-0.1,0.9-0.6,1.7-0.4,2.6c0.1,0.9,0.9,1.7,1.8,2c0.9,0.4,1.9,0.4,2.8,0.4
					c3.1,0.1,6.6,0,8.8-2.2c1.3-1.3,1.9-3.2,2-5c0.3-3.5-0.6-7-2.2-10.1c-1.5-3.1-3.6-5.9-5.7-8.7c-1.1-1.4-2.1-2.8-3.2-4.2
					c-0.8-1.1-1.8-3.2-3.1-3.8C108.8,115.8,108,121.2,108.4,123z"/>
				<path class="st21" d="M39.2,80c0.7,2.2,0.1,4.8,1.5,6.6c1.3,1.6,3.6,1.8,5.6,2.1c2,0.2,4.4,0.9,5.1,2.7c0.8,1.9-0.5,4.3,0.6,6.1
					c0.6,1,1.8,1.5,2.9,2.1c1.6,0.9,2.9,2.3,3.6,4s0.4,3.8-0.8,5.1c-2.3,2.6-6.5,1.5-10,1.9c-3.6,0.4-6.8,2.7-10.5,3.2
					c-4.5,0.7-8.9-1.3-12.8-3.4c-2.1-1.2-4.3-2.4-5.7-4.5c-1.5-2.3-1.8-5.2-1.9-8c-0.2-7.6,5.3-11.1,8.9-17.1
					C28.5,76.4,37,73.1,39.2,80z"/>
				<path class="st21" d="M129.2,80c-0.7,2.2-0.1,4.8-1.5,6.6c-1.3,1.6-3.6,1.8-5.6,2.1c-2,0.2-4.4,0.9-5.1,2.7
					c-0.8,1.9,0.5,4.3-0.6,6.1c-0.6,1-1.8,1.5-2.9,2.1c-1.6,0.9-2.9,2.3-3.6,4c-0.6,1.7-0.4,3.8,0.8,5.1c2.3,2.6,6.5,1.5,10,1.9
					c3.6,0.4,6.8,2.7,10.5,3.2c4.5,0.7,8.9-1.3,12.8-3.4c2.1-1.2,4.3-2.4,5.7-4.5c1.5-2.3,1.8-5.2,1.9-8c0.2-7.6-5.3-11.1-8.9-17.1
					C139.9,76.4,131.4,73.1,129.2,80z"/>
				<path class="st21" d="M65.9,41.6c1.4,2.3,3.5,4.2,4.1,6.8c0.4,1.6,0.2,3.3,0.4,4.9c0.2,1.6,1.2,3.4,2.8,3.6
					c0.9,0.2,1.9-0.2,2.7,0.2c0.6,0.3,0.9,0.9,1.5,1.3c1.7,1.3,4,0,6.1-0.1c2.6-0.1,5.6,1.7,7.6,0c0.6-0.5,1-1.2,1.5-1.6
					c1.1-0.9,2.8-0.8,4.2-1c1.5-0.2,3.1-1.1,3.1-2.6c0-1.1-1-2.1-1-3.2c0-1.1,0.9-1.9,1.5-2.8c0.9-1.4,1-3.2,1.1-4.8
					c0.2-6.8,0.1-13.7-0.3-20.5c-0.1-1.3-0.2-2.6-0.9-3.7c-0.8-1.3-2.2-2-3.5-2.5c-10.7-4.2-29.1,0.3-32,13.1
					C63.8,33,63.5,37.6,65.9,41.6z"/>
			</g>
		</g>
		<path class="st22" d="M127.5,93.2c9.4-3.9,10.1-7.7,10.1-7.7s-1.4,0.4-2.9,0.2c-1.8-0.2-3.8-0.9-3.4-1c3.6-1,4.9-3.5,4.9-3.5
			c-1.5-0.4-3.1-1.6-3.2-2.4c0.2-1.7,0.1-3,0.1-3.7c0.3-15.2-9.2-24.1-9.2-24.1s-6.7-9.4-26.1-13.2c0.2-1.1,0.3-2.2,0.4-3.2
			c0.1-2.9-2.3-5.8-2.3-5.8c-0.3,4.8-2.5,5.8-2.5,5.8c1.2-3.2-1.3-6.9-4-9.7c-2.7-2.7-8.9-6-8.9-6s0.4,3,0.3,5.1
			c-0.1,2.1-3,4.4-5,6.5c-1.9,2.1-1,6.1-1,6.1c-1.9-0.2-3.3-4-3.3-4l-0.8,2c-0.2,0.9,0,1.9,0.3,2.9c-0.2,0-0.4,0.1-0.6,0.1
			c0,0-11.1,1.4-22.4,9.7c-2.2,1.6-3.4,3.9-5.6,6.1c0,0-2.4,2.1-3.9,6c-1.8,4.8-3.7,11.7-3.2,18.6c0,0.3,0.1,0.6,0.1,0.9
			c-0.1,0.8-1.1,1.5-3.2,2.2c0,0,1.7,2.5,4.9,3.5c0,0-1.5,1.1-6.3,0.8c-0.4,0,2.4,4.7,10.1,7.7L37,93.6l-3.8-0.4
			c3.2,4.2,10.7,7.2,10.7,7.2l7,1.4c1.5,0.9,3.5,2.1,5.1,2.9c0.6,0.3,1.2,0.6,2,1c1.5,0.8,2.9,1.5,3.5,1.6
			c-1.2,2.8-12.5,27.8-10.2,37.2c-1.1,8,15.2,9,23.8,8.6c0,0,0.7,3.4,4.7,3.7c2.4,0.2,2.9-4.5,3.3-4.2c0.2,0.2,3,0,3,0
			c0,0,1.3,3.4,3.1,4.3c2.3,1.2,3.9-3.5,4.8-4.1c0,0,19,1.9,22.7-5.1c2.2-4.2-0.6-17.2-4-27.3c-1.9-5.7-4.6-11.3-5.7-13.3
			c0.4-0.1,1-0.3,1.7-0.7c0.8-0.3,1.9-0.6,3-1.2c1.3-0.7,4.1-2.3,5.9-3.4c0,0,14.6-2.1,17.7-8.6c0.3-0.6-1.9,0.9-4.9,0.2
			C129.8,93.3,127,93.3,127.5,93.2z"/>
		<g>
			<path class="st24" d="M115,99.2c0,0-3.7,4.9-8.1,7.7c0,0,0.1,0.1,0.1,0.1c0.7-0.2,1.9-0.8,3.1-1.5c0.7-0.3,1.4-0.6,2-1
				c1.5-0.8,3.6-1.9,5.1-2.9l7-1.4c0,0,7.5-2.9,10.7-7.2C134.9,93.2,124.3,99.6,115,99.2z"/>
			<path class="st24" d="M127.3,93.2l-3.8-0.8c4.9-0.9,13.9-7,13.9-7l0,0.1C137.1,86.3,134.1,90.4,127.3,93.2z"/>
			<g>
				<path class="st24" d="M132.4,85.2l-0.4-0.2c0.2,0.1,0.3,0.1,0.5,0.2L132.4,85.2z"/>
				<path class="st24" d="M131.2,84.6l-2.9-1.7c3.2,0,7.6-1.8,7.6-1.8S134.3,83.5,131.2,84.6z"/>
			</g>
			<g>
				<path class="st29" d="M78.4,152.8c3.1-0.1,7.6-0.2,11.7,0"/>
				<path class="st24" d="M108,110.2c3.2,7.4,10.9,26.2,9,34.1c0.5,3.9-3,6.1-7.8,7.3C119.9,144.4,111.4,119.1,108,110.2z"/>
				<path class="st24" d="M85.9,152.5c0.3-1.7-0.4-3.4-0.5-5.2c0-0.5,0-1,0-1.4c0-0.7-0.2-1.3-0.4-1.9c-0.2-0.8-0.3-1.7-0.3-2.5
					c-0.3,0.4-0.4,1-0.5,1.5c-0.2,2.2-0.5,4.4-0.9,6.6c-0.1,0.5-0.8,2.6-0.4,2.9C83.1,152.7,85.9,152.5,85.9,152.5z"/>
				<path class="st26" d="M74.9,153.2c0,0,2.5-2.1,7.6-0.7c0,0-0.4,3.5-2.8,4.4C77.3,157.7,74.9,153.2,74.9,153.2z"/>
				<path class="st26" d="M93.8,153.2c0,0-2.5-2.1-7.5-0.7c0,0,0.4,3.5,2.8,4.4C91.5,157.7,93.8,153.2,93.8,153.2z"/>
				<g>
					<path class="st26" d="M107,107c2.5,5,4.7,10.1,6.6,15.3c1.9,5.2,3.5,10.6,4.1,16.2c0.3,2.8,0.3,5.6-0.4,8.5
						c-0.5,1.5-1.6,2.6-2.8,3.3c-1.2,0.8-2.6,1.2-4,1.6c-2.7,0.7-5.5,1-8.3,1.1c-2.8,0.1-5.6,0.1-8.3,0c-0.1,0-0.2-0.1-0.2-0.2
						c0-0.1,0.1-0.2,0.2-0.2c2.8,0,5.5,0,8.3-0.2c2.8-0.2,5.5-0.6,8.1-1.3c1.3-0.4,2.6-0.9,3.7-1.6c1.1-0.7,2.1-1.7,2.4-2.9
						c0.7-2.6,0.6-5.4,0.3-8.1c-0.6-5.5-2.1-10.8-3.9-16c-1.8-5.2-3.9-10.3-6.3-15.3l0,0c-0.1-0.1,0-0.3,0.1-0.4
						C106.8,106.8,107,106.8,107,107z"/>
				</g>
				<g>
					<path class="st26" d="M61.8,107.3c-2.4,5-4.5,10.2-6.3,15.4c-1.8,5.2-3.3,10.6-3.8,16.1c-0.2,1.4-0.2,2.7-0.2,4.1
						c0,1.4,0.2,2.7,0.6,4c0.4,1.2,1.3,2.2,2.5,2.9c1.1,0.7,2.4,1.2,3.7,1.6c2.6,0.8,5.4,1.1,8.2,1.3c2.8,0.2,5.5,0.2,8.3,0.2
						c0.1,0,0.2,0.1,0.2,0.2c0,0.1-0.1,0.2-0.2,0.2c-2.8,0.1-5.6,0.1-8.4,0c-2.8-0.1-5.6-0.4-8.3-1.1c-1.4-0.4-2.7-0.8-4-1.6
						c-1.2-0.7-2.4-1.8-2.9-3.3c-0.4-1.4-0.6-2.8-0.6-4.3c0-1.4,0-2.8,0.1-4.2c0.6-5.6,2.2-11,4.1-16.3c1.9-5.3,4.1-10.4,6.6-15.4
						c0.1-0.1,0.2-0.2,0.4-0.1C61.8,107,61.8,107.1,61.8,107.3L61.8,107.3z"/>
				</g>
				<g>
					<path class="st26" d="M84.5,127.1c0.2,4.4,0.2,8.9,0,13.3c-0.1,2.2-0.3,4.4-0.5,6.7c-0.3,2.2-0.6,4.4-1.3,6.6
						c-0.4,1.1-0.8,2.2-1.8,3.1l-0.4,0.3c-0.2,0.1-0.3,0.1-0.5,0.2c-0.2,0.1-0.3,0.1-0.5,0.1c-0.2,0-0.3,0-0.5,0
						c-0.7-0.1-1.3-0.4-1.7-0.8c-1-0.8-1.6-1.7-2.2-2.7c-0.6-1-1.1-2-1.5-3c-1.8-4.1-3-8.4-4.1-12.7c0-0.1,0-0.2,0.1-0.2
						c0.1,0,0.2,0,0.2,0.1l0,0c1.2,4.3,2.5,8.5,4.4,12.5c0.5,1,1,2,1.6,2.9c0.6,0.9,1.2,1.8,2.1,2.4c0.8,0.6,1.8,0.8,2.4,0.2
						c0.7-0.6,1.1-1.7,1.5-2.6c0.7-2,1.1-4.2,1.4-6.4c0.3-2.2,0.5-4.4,0.7-6.6c0.3-4.4,0.4-8.9,0.4-13.3c0-0.1,0.1-0.1,0.1-0.1
						C84.4,126.9,84.5,127,84.5,127.1z"/>
				</g>
				<g>
					<path class="st26" d="M84.5,127.1c0,4.4,0.2,8.9,0.4,13.3c0.2,2.2,0.4,4.4,0.7,6.6c0.3,2.2,0.7,4.4,1.4,6.4
						c0.4,1,0.8,2,1.5,2.6c0.6,0.6,1.7,0.4,2.4-0.2c0.8-0.6,1.5-1.5,2.1-2.4c0.6-0.9,1.1-1.9,1.6-2.9c1.9-4,3.3-8.2,4.4-12.5l0,0
						c0-0.1,0.1-0.2,0.2-0.1c0.1,0,0.1,0.1,0.1,0.2c-1,4.3-2.3,8.6-4.1,12.7c-0.5,1-1,2-1.5,3c-0.6,1-1.3,1.9-2.2,2.7
						c-0.5,0.4-1.1,0.7-1.7,0.8c-0.2,0-0.3,0-0.5,0c-0.2,0-0.3,0-0.5-0.1c-0.2-0.1-0.3-0.1-0.5-0.2l-0.4-0.3c-1-0.9-1.4-2-1.8-3.1
						c-0.7-2.2-1-4.4-1.3-6.6c-0.3-2.2-0.4-4.4-0.5-6.7c-0.2-4.4-0.2-8.9,0-13.3c0-0.1,0.1-0.1,0.1-0.1
						C84.5,126.9,84.5,127,84.5,127.1z"/>
				</g>
				<path class="st24" d="M99.2,138.1c0,0,2.5,13.6,10.2,13.8c0,0-6.4,1.4-15.6,0.9l3.1-7.2L99.2,138.1z"/>
				<path class="st24" d="M69.6,138.1c0,0-2.6,14.4-10.2,13.8l6.9,1h8.5C73.2,151.5,69.6,138.1,69.6,138.1z"/>
			</g>
			<path class="st24" d="M60.2,110.2c-3.2,7.4-10.9,26.2-9,34.1c-0.5,3.9,3,6.1,7.8,7.3C48.3,144.4,56.8,119.1,60.2,110.2z"/>
			<g>
				<path class="st26" d="M35,77.7c-0.1-5,0.4-10,1.9-14.8c1.5-4.8,4-9.2,7.4-12.9c3.5-3.6,7.7-6.4,12.2-8.5
					c4.5-2.1,9.3-3.5,14.2-4.4c0.1,0,0.3,0.1,0.3,0.2c0,0.1-0.1,0.3-0.2,0.3c-4.8,1-9.5,2.5-13.9,4.7c-4.4,2.1-8.4,5-11.7,8.6
					c-3.3,3.5-5.8,7.8-7.3,12.4c-1.5,4.6-2,9.5-2,14.4l0,0c0,0.3-0.2,0.5-0.5,0.5C35.2,78.2,35,78,35,77.7z"/>
			</g>
			<g>
				<path class="st26" d="M61.5,107.4c-1.9-0.7-3.7-1.5-5.5-2.5c-1.8-0.9-3.6-1.9-5.3-2.9c-0.2-0.1-0.3-0.4-0.2-0.6
					c0.1-0.2,0.4-0.3,0.6-0.2c0,0,0,0,0,0c1.6,1.2,3.3,2.2,5,3.2c1.8,0.9,3.6,1.8,5.4,2.5l0,0c0.1,0,0.2,0.2,0.1,0.3
					C61.7,107.4,61.6,107.4,61.5,107.4C61.5,107.4,61.5,107.4,61.5,107.4z"/>
			</g>
			<g>
				<path class="st26" d="M132.3,77.7c0-4.8-0.5-9.7-1.9-14.3c-1.4-4.6-3.9-8.8-7.1-12.3c-3.2-3.6-7.2-6.4-11.5-8.6
					c-4.3-2.2-9-3.7-13.7-4.8c-0.1,0-0.2-0.2-0.2-0.3c0-0.1,0.2-0.2,0.3-0.2c4.8,1,9.5,2.4,14,4.5c4.4,2.1,8.6,4.9,12,8.5
					c3.4,3.7,5.8,8.1,7.3,12.8c1.5,4.7,1.9,9.7,1.9,14.6c0,0.3-0.2,0.5-0.5,0.5C132.5,78.2,132.3,78,132.3,77.7L132.3,77.7z"/>
			</g>
			<g>
				<path class="st26" d="M106.7,106.9c1.9-0.7,3.7-1.6,5.4-2.5c1.7-1,3.4-2,5-3.2c0.2-0.2,0.5-0.1,0.7,0.1c0.2,0.2,0.1,0.5-0.1,0.7
					c0,0,0,0,0,0c-1.7,1-3.5,2-5.3,2.9c-1.8,0.9-3.6,1.7-5.5,2.5c-0.1,0-0.3,0-0.3-0.1C106.5,107.1,106.5,107,106.7,106.9
					C106.6,106.9,106.6,106.9,106.7,106.9L106.7,106.9z"/>
			</g>
			<g>
				<path class="st26" d="M117.4,101.2c1.6-0.1,3.3-0.3,4.9-0.7c1.6-0.4,3.2-0.9,4.7-1.5c1.5-0.6,3-1.5,4.3-2.5
					c1.4-1,2.5-2.2,3.6-3.5l0,0c0.1-0.1,0.3-0.1,0.4,0c0.1,0.1,0.1,0.3,0,0.4c-1.1,1.3-2.2,2.6-3.6,3.7c-1.4,1-2.8,2-4.4,2.7
					c-1.6,0.7-3.2,1.3-4.8,1.7c-1.7,0.4-3.3,0.7-5.1,0.8c-0.3,0-0.5-0.2-0.5-0.5C116.9,101.4,117.1,101.2,117.4,101.2
					C117.3,101.2,117.3,101.2,117.4,101.2L117.4,101.2z"/>
			</g>
			<g>
				<path class="st26" d="M127.6,92.7c0.5,0.2,1.2,0.3,1.8,0.4c0.6,0.1,1.2,0.1,1.9,0.1c1.3,0,2.5-0.1,3.8-0.3
					c0.1,0,0.3,0.1,0.3,0.2c0,0.1-0.1,0.3-0.2,0.3c-1.3,0.3-2.6,0.5-3.9,0.6c-0.7,0-1.3,0-2,0c-0.7-0.1-1.3-0.1-2-0.3
					c-0.3-0.1-0.4-0.3-0.3-0.6S127.3,92.6,127.6,92.7C127.6,92.7,127.6,92.7,127.6,92.7L127.6,92.7z"/>
			</g>
			<g>
				<path class="st26" d="M127.3,92.7c1-0.4,2-0.8,2.9-1.3c1-0.5,1.9-1,2.8-1.6c0.9-0.6,1.7-1.2,2.5-2c0.7-0.7,1.4-1.6,1.9-2.5l0,0
					c0.1-0.1,0.2-0.2,0.4-0.1c0.1,0.1,0.2,0.2,0.1,0.3c-0.4,1.1-1.1,1.9-1.9,2.8c-0.8,0.8-1.6,1.5-2.5,2.1c-0.9,0.6-1.8,1.2-2.8,1.7
					c-1,0.5-1.9,1-3,1.5c-0.2,0.1-0.5,0-0.6-0.3C126.9,93.1,127,92.8,127.3,92.7C127.3,92.7,127.3,92.7,127.3,92.7L127.3,92.7z"/>
			</g>
			<g>
				<path class="st26" d="M131.5,84.2c0.4,0.2,0.9,0.5,1.4,0.6c0.5,0.2,1,0.3,1.5,0.4c1,0.2,2.1,0.2,3.1-0.1l0,0
					c0.1,0,0.3,0.1,0.3,0.2c0,0.1-0.1,0.3-0.2,0.3c-1.1,0.3-2.2,0.4-3.3,0.3c-0.6-0.1-1.1-0.2-1.7-0.3c-0.5-0.2-1.1-0.3-1.6-0.6
					c-0.2-0.1-0.3-0.4-0.2-0.7S131.2,84.1,131.5,84.2C131.5,84.2,131.5,84.2,131.5,84.2L131.5,84.2z"/>
			</g>
			<g>
				<path class="st26" d="M131.1,84.2c0.9-0.3,1.9-0.7,2.7-1.2c0.8-0.5,1.6-1.1,2.1-2l0,0c0.1-0.1,0.2-0.2,0.4-0.1
					c0.1,0.1,0.2,0.2,0.1,0.3c-0.5,1-1.3,1.7-2.2,2.4c-0.9,0.6-1.8,1.1-2.8,1.5c-0.3,0.1-0.5,0-0.6-0.3
					C130.7,84.6,130.8,84.3,131.1,84.2C131.1,84.2,131.1,84.2,131.1,84.2L131.1,84.2z"/>
			</g>
			<g>
				<path class="st26" d="M133.3,77.8c0,0.3,0,0.7,0.1,1.1c0.1,0.4,0.3,0.7,0.6,1c0.3,0.3,0.6,0.5,1,0.7c0.4,0.2,0.8,0.3,1.2,0.3
					l0,0c0.1,0,0.2,0.2,0.2,0.3c0,0.1-0.2,0.2-0.3,0.2c-0.5,0-0.9-0.1-1.4-0.3c-0.5-0.1-0.9-0.4-1.3-0.7c-0.4-0.3-0.7-0.7-0.9-1.2
					c-0.2-0.5-0.3-0.9-0.3-1.5c0-0.3,0.2-0.5,0.5-0.5C133.1,77.2,133.3,77.4,133.3,77.8C133.3,77.7,133.3,77.7,133.3,77.8
					L133.3,77.8z"/>
			</g>
			<g>
				<g>
					<path class="st26" d="M50.9,102.1c-1.7-0.1-3.4-0.4-5.1-0.8c-1.7-0.4-3.3-1-4.8-1.7c-1.6-0.7-3-1.6-4.4-2.7
						c-1.4-1-2.5-2.3-3.6-3.7c-0.1-0.1-0.1-0.3,0-0.4c0.1-0.1,0.3-0.1,0.4,0l0,0c1.1,1.3,2.2,2.5,3.6,3.5c1.3,1,2.8,1.8,4.3,2.5
						c1.5,0.7,3.1,1.2,4.7,1.5c1.6,0.4,3.3,0.6,4.9,0.7l0,0c0.3,0,0.5,0.2,0.5,0.5S51.1,102.2,50.9,102.1
						C50.9,102.1,50.9,102.1,50.9,102.1z"/>
				</g>
				<g>
					<path class="st26" d="M41,93.6c-0.7,0.2-1.3,0.3-2,0.3c-0.7,0.1-1.3,0.1-2,0c-1.3-0.1-2.6-0.3-3.9-0.6c-0.1,0-0.2-0.2-0.2-0.3
						c0-0.1,0.2-0.2,0.3-0.2c1.2,0.2,2.5,0.3,3.8,0.3c0.6,0,1.3-0.1,1.9-0.1c0.6-0.1,1.2-0.2,1.8-0.4l0,0c0.3-0.1,0.5,0,0.6,0.3
						C41.4,93.2,41.3,93.5,41,93.6C41,93.6,41,93.6,41,93.6z"/>
				</g>
				<g>
					<path class="st26" d="M40.6,93.6c-1-0.4-2-0.9-3-1.5c-1-0.5-1.9-1.1-2.8-1.7c-0.9-0.6-1.8-1.3-2.5-2.1
						c-0.8-0.8-1.5-1.7-1.9-2.8c-0.1-0.1,0-0.3,0.1-0.3c0.1-0.1,0.3,0,0.3,0.1l0,0c0.4,0.9,1.1,1.8,1.9,2.5c0.7,0.7,1.6,1.4,2.5,2
						c0.9,0.6,1.8,1.1,2.8,1.6c0.9,0.5,1.9,0.9,2.9,1.3l0,0c0.3,0.1,0.4,0.4,0.3,0.6S40.9,93.7,40.6,93.6
						C40.6,93.6,40.6,93.6,40.6,93.6z"/>
				</g>
				<g>
					<path class="st26" d="M37.2,85.1c-0.5,0.3-1.1,0.5-1.6,0.6c-0.5,0.2-1.1,0.3-1.7,0.3c-1.1,0.1-2.3,0-3.3-0.3
						c-0.1,0-0.2-0.2-0.2-0.3c0-0.1,0.2-0.2,0.3-0.2l0,0c1,0.2,2.1,0.3,3.1,0.1c0.5-0.1,1-0.2,1.5-0.4c0.5-0.2,1-0.4,1.4-0.6l0,0
						c0.2-0.1,0.5-0.1,0.7,0.2C37.6,84.6,37.5,84.9,37.2,85.1C37.3,85,37.2,85,37.2,85.1z"/>
				</g>
				<g>
					<path class="st26" d="M36.8,85.1c-1-0.4-1.9-0.9-2.8-1.5c-0.9-0.6-1.7-1.3-2.2-2.4c-0.1-0.1,0-0.3,0.1-0.4
						c0.1-0.1,0.3,0,0.3,0.1l0,0c0.5,0.8,1.3,1.4,2.1,2c0.8,0.5,1.8,0.9,2.7,1.2l0,0c0.3,0.1,0.4,0.4,0.3,0.6
						C37.4,85.1,37.1,85.2,36.8,85.1C36.8,85.1,36.8,85.1,36.8,85.1z"/>
				</g>
				<g>
					<path class="st26" d="M35.9,77.7c0,0.6-0.1,1-0.3,1.5c-0.2,0.5-0.5,0.9-0.9,1.2c-0.4,0.3-0.8,0.6-1.3,0.7
						c-0.4,0.2-0.9,0.2-1.4,0.3c-0.1,0-0.3-0.1-0.3-0.2c0-0.1,0.1-0.3,0.2-0.3l0,0c0.4-0.1,0.8-0.2,1.2-0.3c0.4-0.2,0.7-0.4,1-0.7
						c0.3-0.3,0.5-0.6,0.6-1c0.1-0.3,0.2-0.8,0.1-1.1l0,0c0-0.3,0.2-0.5,0.5-0.5C35.7,77.2,35.9,77.4,35.9,77.7
						C35.9,77.7,35.9,77.7,35.9,77.7z"/>
				</g>
			</g>
			<g>
				<g>
					<g>
						<path class="st26" d="M74.5,43.8c-0.8-0.7-1.5-1.5-2.1-2.3c-0.6-0.8-1.2-1.8-1.6-2.8c-0.4-1-0.7-2.1-0.6-3.2
							c0-1.1,0.4-2.2,1-3c0-0.1,0.1-0.1,0.2,0c0,0,0.1,0.1,0,0.1l0,0c-0.4,1-0.6,1.9-0.5,2.9c0.1,1,0.3,1.9,0.7,2.9
							c0.4,0.9,0.9,1.8,1.4,2.7c0.5,0.9,1.1,1.7,1.8,2.5l0,0c0.1,0.1,0,0.2,0,0.2C74.6,43.8,74.5,43.8,74.5,43.8z"/>
					</g>
					<g>
						<path class="st26" d="M71.4,32.5c0.5,0.8,0.8,1.6,1.3,2.3c0.2,0.4,0.5,0.7,0.8,1c0.3,0.3,0.6,0.5,1.1,0.7l0,0
							c0.1,0,0.1,0.1,0.1,0.2c0,0-0.1,0.1-0.1,0.1c-0.5,0.1-1-0.1-1.5-0.3c-0.5-0.3-0.8-0.7-1.1-1.1c-0.3-0.4-0.5-0.8-0.6-1.3
							c-0.2-0.5-0.3-0.9-0.3-1.4c0-0.1,0.1-0.2,0.2-0.2C71.3,32.4,71.4,32.4,71.4,32.5L71.4,32.5z"/>
					</g>
					<g>
						<path class="st26" d="M74.5,36.6c-0.4-1.6-0.5-3.4,0.1-5c0.3-0.8,0.9-1.5,1.4-2.1c0.6-0.6,1.2-1.2,1.7-1.8
							c1.1-1.2,2.2-2.4,2.5-3.9c0.2-1.5,0.1-3.3-0.3-4.7l0,0c-0.1-0.2,0.1-0.5,0.3-0.5c0.1,0,0.2,0,0.3,0c1.7,0.8,3.2,1.8,4.8,2.8
							c1.5,1,3,2.1,4.3,3.4c1.3,1.3,2.4,2.8,3.3,4.5c0.4,0.8,0.8,1.7,0.9,2.7c0.1,0.9,0,1.9-0.4,2.8c0,0.1-0.1,0.1-0.2,0.1
							c-0.1,0-0.1-0.1-0.1-0.2c0.7-1.7,0.1-3.6-0.8-5.1c-0.9-1.5-2.1-3-3.3-4.2c-2.6-2.4-5.8-4.3-9-6l0.6-0.5
							c0.3,0.9,0.4,1.7,0.4,2.6c0,0.9,0,1.7-0.1,2.6c-0.3,1.8-1.6,3.2-2.7,4.3c-0.6,0.6-1.2,1.1-1.8,1.7c-0.6,0.6-1.1,1.2-1.4,1.9
							c-0.6,1.4-0.7,3.2-0.4,4.7l0,0c0,0.1,0,0.2-0.1,0.2C74.6,36.7,74.5,36.7,74.5,36.6z"/>
					</g>
					<g>
						<path class="st26" d="M93.2,34.4c0.4-0.3,0.7-0.7,1-1.2c0.3-0.4,0.5-0.9,0.7-1.4c0.2-0.5,0.3-1,0.4-1.5l0.3-1.6
							c0-0.1,0.1-0.1,0.1-0.1c0.1,0,0.1,0,0.1,0.1C96,29,96,29.3,96,29.5l0,0.9c0,0.6-0.1,1.2-0.3,1.7c-0.2,0.6-0.5,1.1-0.9,1.5
							c-0.4,0.4-0.9,0.8-1.5,1c-0.1,0-0.2,0-0.2-0.1C93.1,34.5,93.1,34.4,93.2,34.4L93.2,34.4z"/>
					</g>
					<g>
						<path class="st26" d="M95.9,28.6c0.9,0.9,1.6,2.1,2,3.3c0.4,1.2,0.6,2.5,0.6,3.8c-0.1,1.3-0.3,2.6-0.7,3.8
							c-0.2,0.6-0.5,1.2-0.7,1.8c-0.3,0.6-0.6,1.1-0.9,1.7c0,0.1-0.1,0.1-0.2,0C96,43,96,42.9,96,42.9l0,0c0.2-0.6,0.4-1.2,0.7-1.8
							c0.2-0.6,0.4-1.2,0.5-1.8c0.3-1.2,0.5-2.4,0.5-3.6c0-1.2-0.1-2.4-0.5-3.6c-0.3-1.2-0.8-2.3-1.5-3.3l0,0c-0.1-0.1,0-0.2,0-0.2
							C95.8,28.5,95.8,28.5,95.9,28.6z"/>
					</g>
				</g>
			</g>
			<path class="st24" d="M61.4,107.3c0.1-0.1,0.1-0.1,0.2-0.2c-4.5-2.7-8.4-7.9-8.4-7.9c-9.4,0.4-19.9-6-19.9-6
				c3.2,4.2,10.7,7.2,10.7,7.2l7,1.4c1.5,0.9,3.5,2.1,5.1,2.9c0.6,0.3,1.2,0.6,2,1c1.5,0.8,2.9,1.5,3.5,1.6
				C61.4,107.2,61.4,107.2,61.4,107.3z"/>
			<path class="st24" d="M40.8,93.2l3.8-0.8c-4.9-0.9-13.9-7-13.9-7l0,0.1C30.9,86.3,34,90.4,40.8,93.2z"/>
			<g>
				<path class="st24" d="M35.9,85.2l0.4-0.2C36.2,85,36,85,35.8,85.1L35.9,85.2z"/>
				<path class="st24" d="M36.9,84.6l2.9-1.7c-3.2,0-7.6-1.8-7.6-1.8S33.7,83.5,36.9,84.6z"/>
			</g>
			<path class="st24" d="M80.6,23.9c-0.1,2.1-3,4.4-5,6.5c-0.5,0.5-0.8,1.2-1,1.8c1.6-3.6,6.4-4,8.1-6c1.6-1.9-2.4-7.4-2.4-7.4
				S80.7,21.8,80.6,23.9z"/>
			<path class="st24" d="M75.9,39.4l-1.3-2.9c-1.9-0.2-3.3-4-3.3-4S70.2,37.5,75.9,39.4z"/>
			<g>
				<path class="st24" d="M93,30.1c0.5,1.1,0.8,2.3,0.3,4.5C93.8,33.1,93.6,31.6,93,30.1z"/>
				<path class="st24" d="M93.3,34.5c-0.2,0.9-0.6,2.3-1.2,3.6c0,0,6-2.9,3.7-9.4C95.5,33.5,93.3,34.5,93.3,34.5z"/>
			</g>
		</g>
		<path class="st30" d="M50,68.7c0-6.5,3.7-9.4,9.5-9.4s12.2,5.4,12.2,11.1c0,5.8-4.9,10.9-10.7,10.9S50,74.5,50,68.7z"/>
		<path class="st21" d="M51.5,70.9c0-5.6,4.6-10.2,10.2-10.2s11.1,4.9,11.1,10.5c0,5.6-5.5,9.8-11.1,9.8S51.5,76.5,51.5,70.9z"/>
		<g>
			<path class="st31" d="M51.3,63.7c2.4-3.6,10.3-6,15.8-2.4s7.2,10.5,3.9,15.4c-1.6,2.3-4,3.8-6.7,4.3c-3,0.6-6.3,0-9.1-1.9
				C49.8,75.6,48.8,67.5,51.3,63.7z"/>
			<path class="st26" d="M62.9,59.3c0,0-6.3-1.4-10.3-1.3c0,0-0.4,1,0,2.5c0,0-2.5,0.1-3.1,0.8c0,0-0.4,7,0.5,10.7
				c0,0-0.6-6.2,2-9.1C53.2,61.5,57.4,58.8,62.9,59.3z"/>
			<g>
				<ellipse class="st26" cx="64" cy="70.1" rx="8.8" ry="8.8"/>
				<ellipse class="st30" cx="63.9" cy="66.6" rx="3.5" ry="3.5"/>
				<ellipse class="st30" cx="56.7" cy="66.6" rx="1.9" ry="1.9"/>
			</g>
		</g>
		<path class="st30" d="M116.9,69.7c0-6.3-3.6-10.5-9.4-10.5c-5.8,0-12.2,5.4-12.2,11.1c0,5.8,4.9,10.9,10.7,10.9
			C111.7,81.2,116.9,75.5,116.9,69.7z"/>
		<path class="st21" d="M115.5,70.9c0-5.6-4.6-10.2-10.2-10.2s-11.2,4.9-11.2,10.5c0,5.6,5.6,9.8,11.2,9.8S115.5,76.5,115.5,70.9z"
			/>
		<g>
			<path class="st31" d="M115.6,63.7c-2.4-3.6-10.3-6-15.8-2.4c-5.4,3.6-7.2,10.5-3.9,15.4c1.6,2.3,4,3.8,6.7,4.3
				c3,0.6,6.3,0,9.1-1.9C117.2,75.6,118.1,67.5,115.6,63.7z"/>
			<path class="st26" d="M104.1,59.3c0,0,6.3-1.4,10.3-1.3c0,0,0.4,1,0,2.5c0,0,2.5,0.1,3.1,0.8c0,0,0.4,7-0.5,10.7
				c0,0,0.6-6.2-2-9.1C113.8,61.5,109.5,58.8,104.1,59.3z"/>
			<g>
				<ellipse class="st26" cx="102.9" cy="70.1" rx="8.8" ry="8.8"/>
				<ellipse class="st30" cx="103.1" cy="66.6" rx="3.5" ry="3.5"/>
				<ellipse class="st30" cx="110.2" cy="66.6" rx="1.9" ry="1.9"/>
			</g>
		</g>
		<g>
			<g>
				<path class="st30" d="M71.9,95.9c0,0,0.9,4.3,1.5,4.2s1.5-4.2,1.5-4.2"/>
				<path class="st26" d="M71.9,95.9l0.6,2.2c0.1,0.4,0.2,0.7,0.4,1.1c0.1,0.2,0.1,0.3,0.2,0.5c0,0.1,0.1,0.2,0.1,0.2
					c0,0.1,0.1,0.1,0,0.1c0,0,0,0,0,0l0.1-0.1c0-0.1,0.1-0.1,0.1-0.2c0.1-0.2,0.2-0.3,0.2-0.5c0.1-0.3,0.3-0.7,0.4-1.1l0.7-2.2
					c0,0,0.1-0.1,0.1-0.1c0,0,0.1,0.1,0.1,0.1c-0.1,0.8-0.3,1.5-0.5,2.2c-0.1,0.4-0.2,0.7-0.4,1.1c-0.1,0.2-0.1,0.4-0.2,0.5
					c-0.1,0.1-0.1,0.2-0.2,0.3l-0.1,0.1c-0.1,0.1-0.2,0.1-0.2,0.1c-0.3,0-0.3-0.2-0.4-0.2c-0.1-0.1-0.1-0.2-0.2-0.3
					c-0.1-0.2-0.2-0.4-0.2-0.5c-0.1-0.4-0.2-0.7-0.3-1.1c-0.2-0.7-0.3-1.5-0.4-2.2C71.8,95.9,71.8,95.9,71.9,95.9
					C71.9,95.8,71.9,95.9,71.9,95.9z"/>
			</g>
			<path class="st26" d="M77.5,84.3c-0.1,0.6,0.3,1.1,0.8,1.4c0.5,0.3,1.1,0.3,1.6,0.4c1.9,0.2,5.1,0.5,6.9-0.5c1.2-0.7,1.1-2,0-2.5
				C85.1,82.2,77.8,81.7,77.5,84.3z"/>
			<g>
				<path class="st26" d="M82.5,85.1c0.1,1.8,0,3.7-0.5,5.4c-0.2,0.9-0.5,1.8-0.9,2.6c-0.4,0.8-1.1,1.7-2,2.1c-1.8,0.7-3.6,1-5.4,1
					c-0.9,0-1.8,0-2.8-0.3c-0.5-0.1-0.9-0.3-1.3-0.6c-0.4-0.3-0.7-0.7-0.9-1.2c0-0.1,0-0.2,0.1-0.3c0.1,0,0.2,0,0.3,0.1
					c0.2,0.8,1.1,1.2,1.9,1.4c0.8,0.2,1.7,0.2,2.6,0.2c1.7-0.1,3.5-0.4,5.1-1.2c1.5-0.6,2.1-2.5,2.6-4.1c0.5-1.7,0.7-3.5,0.7-5.2
					c0-0.1,0.1-0.2,0.2-0.2C82.4,84.9,82.5,85,82.5,85.1z"/>
			</g>
			<g>
				<path class="st26" d="M82.6,85.1c-0.1,1.8,0.2,3.6,0.7,5.2c0.5,1.6,1.1,3.5,2.6,4.1c1.5,0.7,3.3,1.1,5.1,1.2
					c0.9,0,1.8,0,2.6-0.2c0.8-0.2,1.7-0.6,1.9-1.4c0-0.1,0.1-0.2,0.3-0.1c0.1,0,0.2,0.1,0.1,0.3c-0.1,0.5-0.5,0.9-0.9,1.2
					c-0.4,0.3-0.9,0.5-1.3,0.6c-0.9,0.2-1.8,0.3-2.8,0.3c-1.8,0-3.7-0.3-5.4-1c-0.9-0.4-1.6-1.3-2-2.1c-0.4-0.9-0.7-1.7-0.9-2.6
					c-0.5-1.8-0.6-3.6-0.5-5.4c0-0.1,0.1-0.2,0.2-0.2C82.6,84.9,82.6,85,82.6,85.1z"/>
			</g>
			<g>
				<g>
					<path class="st26" d="M68.4,86.2c-8.2,0.9-16.1,4-22.7,8.9c6.5-5.1,14.4-8.4,22.6-9.5c0.2,0,0.3,0.1,0.3,0.2
						C68.7,86,68.6,86.1,68.4,86.2C68.4,86.2,68.4,86.2,68.4,86.2z"/>
				</g>
				<g>
					<path class="st26" d="M68.2,88.2c-4.7,0.4-9.2,2.9-12.2,6.6c2.9-3.9,7.3-6.5,12.2-7.2c0.2,0,0.3,0.1,0.3,0.2
						C68.4,88,68.3,88.2,68.2,88.2C68.2,88.2,68.2,88.2,68.2,88.2z"/>
				</g>
				<g>
					<path class="st26" d="M68.2,89.9c-4.6,1.8-8.5,5.7-10.5,10.3c1.8-4.8,5.5-8.8,10.2-10.9c0.1-0.1,0.3,0,0.4,0.1
						S68.4,89.8,68.2,89.9C68.2,89.9,68.2,89.9,68.2,89.9z"/>
				</g>
			</g>
			<g>
				<g>
					<path class="st26" d="M96.4,85.6c8.2,1.1,16.1,4.4,22.6,9.5c-6.6-5-14.5-8.1-22.7-8.9c-0.2,0-0.3-0.2-0.3-0.3
						S96.3,85.6,96.4,85.6C96.4,85.6,96.4,85.6,96.4,85.6z"/>
				</g>
				<g>
					<path class="st26" d="M96.7,87.6c4.8,0.6,9.3,3.3,12.2,7.2c-3-3.7-7.5-6.2-12.2-6.6c-0.2,0-0.3-0.2-0.3-0.3
						S96.5,87.6,96.7,87.6C96.7,87.6,96.7,87.6,96.7,87.6z"/>
				</g>
				<g>
					<path class="st26" d="M96.8,89.4c4.7,2.1,8.5,6.1,10.2,10.9c-1.9-4.7-5.8-8.5-10.5-10.3c-0.1-0.1-0.2-0.2-0.2-0.4
						C96.5,89.4,96.6,89.3,96.8,89.4C96.8,89.4,96.8,89.4,96.8,89.4z"/>
				</g>
			</g>
		</g>
		<g>
			<path class="st26" d="M78.4,156.9c-0.3-0.1-0.5-0.2-0.7-0.4c-0.2-0.2-0.3-0.3-0.4-0.5c-0.2-0.4-0.3-0.8-0.4-1.2
				c-0.1-0.8-0.2-1.6-0.1-2.4c0-0.1,0.1-0.1,0.1-0.1c0.1,0,0.1,0,0.1,0.1c0.2,0.7,0.4,1.5,0.7,2.2c0.1,0.4,0.3,0.7,0.3,1
				c0.1,0.3,0.3,0.7,0.3,0.9l0.1,0.2C78.6,156.8,78.6,156.9,78.4,156.9C78.5,156.9,78.4,156.9,78.4,156.9z"/>
		</g>
		<g>
			<path class="st26" d="M80.2,156.4c-0.2-0.3-0.4-0.7-0.5-1c-0.1-0.4-0.2-0.7-0.2-1.1c0-0.8,0-1.5,0.2-2.3c0-0.1,0.1-0.1,0.2-0.1
				c0.1,0,0.1,0.1,0.1,0.1c0,0.7,0.1,1.4,0.3,2.1c0.1,0.3,0.2,0.7,0.2,1c0,0.4,0.1,0.7,0.1,1.1l0,0c0,0.1-0.1,0.2-0.2,0.2
				C80.3,156.5,80.3,156.5,80.2,156.4z"/>
		</g>
		<g>
			<path class="st26" d="M90,156.5c0.1-0.2,0.3-0.6,0.3-0.9c0.1-0.3,0.2-0.7,0.3-1c0.3-0.7,0.5-1.4,0.7-2.2c0-0.1,0.1-0.1,0.2-0.1
				c0.1,0,0.1,0.1,0.1,0.1c0,0.8,0,1.6-0.1,2.4c-0.1,0.4-0.2,0.8-0.4,1.2c-0.1,0.2-0.2,0.4-0.4,0.5c-0.2,0.2-0.3,0.3-0.7,0.4
				c-0.1,0-0.2,0-0.2-0.1c0,0,0-0.1,0-0.1L90,156.5z"/>
		</g>
		<g>
			<path class="st26" d="M87.9,156.3c0-0.4,0-0.7,0.1-1.1c0-0.4,0.1-0.7,0.2-1c0.2-0.7,0.3-1.4,0.3-2.1c0-0.1,0.1-0.1,0.1-0.1
				c0.1,0,0.1,0,0.1,0.1c0.2,0.7,0.2,1.5,0.2,2.3c0,0.4-0.1,0.8-0.2,1.1c-0.1,0.4-0.3,0.7-0.5,1c-0.1,0.1-0.2,0.1-0.3,0
				C87.9,156.4,87.9,156.4,87.9,156.3L87.9,156.3z"/>
		</g>
	</g>
</g>
<g id="mask" class="st0">
</g>
</svg>
