
<svg width="611px" height="466px" viewBox="0 0 611 466" version="1.1" xmlns="http://www.w3.org/2000/svg" xmlns:xlink="http://www.w3.org/1999/xlink">
    <!-- Generator: Sketch 49.1 (51147) - http://www.bohemiancoding.com/sketch -->
    <desc>Created with Sketch.</desc>
    <defs></defs>
    <g id="Page-1" stroke="none" stroke-width="1" fill="none" fill-rule="evenodd">
        <g id="KittyCash-Explore-Kitties" transform="translate(-414.000000, -243.000000)">
            <path d="M972.324517,323.130906 C902.497812,257.435324 571.565801,144.072106 436.669321,417.164162 C301.77284,690.256219 807.766083,780.258226 931.659037,650.669858 C1055.55199,521.081489 1042.15122,388.826487 972.324517,323.130906 Z" id="Path-4" fill="#FF9891"></path>
            <g id="Group" transform="translate(643.000000, 337.000000)" fill="#000000" fill-rule="nonzero">
                <path d="M24.3281529,4.17439142 C21.6363636,1.48260212 18.0569385,0 14.2503094,0 C10.4436804,0 6.86425526,1.48260212 4.17439142,4.17439142 C1.48260212,6.86425526 0,10.4436804 0,14.2503094 C0,18.0569385 1.48260212,21.6344382 4.17439142,24.3262275 C6.95090084,27.1046624 10.6015679,28.4929171 14.2503094,28.4929171 C15.3555219,28.4929171 16.458809,28.3504332 17.5389905,28.0943474 C-7.35717233,58.320176 -5.68972631,103.229542 22.5586577,131.477926 C37.5733737,146.492642 57.2958328,154 77.0182918,154 C96.7407509,154 116.46321,146.492642 131.477926,131.477926 C161.507358,101.448494 161.507358,52.5861642 131.477926,22.5586577 C103.233393,-5.6858754 58.3336542,-7.35717233 28.1097511,17.5293632 C28.3600605,16.4665108 28.5025444,15.3709256 28.5025444,14.2503094 C28.5025444,10.4436804 27.0199422,6.86425526 24.3281529,4.17439142 Z M6.89698803,21.6055563 C4.93302159,19.6396644 3.85091459,17.0287443 3.85091459,14.2503094 C3.85091459,11.4718746 4.93302159,8.86095448 6.89698803,6.89698803 C8.92449457,4.8694815 11.5893275,3.85476551 14.2503094,3.85476551 C16.9112914,3.85476551 19.5780498,4.8694815 21.6036309,6.89698803 C23.5695228,8.86095448 24.6497043,11.4718746 24.6497043,14.2503094 C24.6497043,17.0268189 23.5675973,19.6396644 21.6036309,21.6036309 C17.5524687,25.6586439 10.9520011,25.6605694 6.89698803,21.6055563 Z M128.755329,25.2812543 C157.282905,53.8088296 157.282905,100.227754 128.755329,128.755329 C100.227754,157.282905 53.8088296,157.282905 25.2812543,128.755329 C-3.246321,100.227754 -3.246321,53.8088296 25.2812543,25.2812543 C39.5450419,11.0174666 58.2816669,3.88557282 77.0182918,3.88557282 C95.7549168,3.88557282 114.491542,11.0174666 128.755329,25.2812543 Z" id="Shape"></path>
                <path d="M33.2683893,121.692737 C45.0685613,133.497779 60.7584338,140 77.4448252,140 C94.1312167,140 109.821089,133.497779 121.621261,121.692737 C133.334695,109.974469 139.396692,94.7235592 139.8458,79.3357398 C139.944102,79.1043441 140,78.8478804 140,78.579847 C140,78.3638776 139.942175,78.1671912 139.878567,77.972433 C140,61.8094379 133.920656,45.609805 121.621261,33.3053344 C109.821089,21.5002931 94.1312167,15 77.4448252,15 C60.7584338,15 45.0685613,21.5022214 33.2683893,33.3072627 C8.91053689,57.6751666 8.91053689,97.3248334 33.2683893,121.692737 Z M34.4229635,37.6864279 L41.6048388,44.8712668 C41.9807018,45.247285 42.4741426,45.4362582 42.9675833,45.4362582 C43.461024,45.4362582 43.9544647,45.247285 44.3303277,44.8712668 C45.0839813,44.1192305 45.0839813,42.8986178 44.3303277,42.1446532 L37.1368874,34.9463162 C47.68611,24.940377 61.0629792,19.5970628 74.6345262,18.9510829 L74.6345262,29.0900747 C74.6345262,30.1544952 75.4961199,31.0183728 76.562029,31.0183728 C77.627938,31.0183728 78.4895317,30.1544952 78.4895317,29.0900747 L78.4895317,18.9086604 C92.1940764,19.1516259 105.827303,24.1439899 116.665652,33.916605 L110.004202,40.5808034 C109.250548,41.334768 109.250548,42.5553807 110.004202,43.307417 C110.380065,43.6834351 110.873506,43.8724084 111.366946,43.8724084 C111.860387,43.8724084 112.353828,43.6834351 112.729691,43.307417 L119.433545,36.5988677 C130.281531,47.7425028 135.807681,62.1603881 136.015852,76.6515488 L127.255352,76.6515488 C126.189443,76.6515488 125.327849,77.5154264 125.327849,78.579847 C125.327849,79.6442676 126.189443,80.5081451 127.255352,80.5081451 L135.954172,80.5081451 C135.266053,94.0158738 129.932653,107.321131 119.979029,117.822643 L113.59514,111.438048 C112.841486,110.684083 111.623304,110.684083 110.869651,111.438048 C110.115997,112.192012 110.115997,113.412625 110.869651,114.164661 L117.243902,120.539615 C106.313034,130.66318 92.4407968,135.846446 78.4914592,136.09134 L78.4914592,126.854791 C78.4914592,125.790371 77.6298655,124.926493 76.5639565,124.926493 C75.4980474,124.926493 74.6364537,125.790371 74.6364537,126.854791 L74.6364537,136.048917 C60.8201139,135.391367 47.2003793,129.868721 36.5644191,119.507975 L43.6306442,112.438834 C44.3842978,111.68487 44.3842978,110.466185 43.6306442,109.712221 C42.8769906,108.958256 41.6588089,108.958256 40.9051553,109.712221 L33.8813352,116.738939 C24.5792069,106.414831 19.5985397,93.5530822 18.9354788,80.5100734 L29.3035162,80.5100734 C30.3694252,80.5100734 31.2310189,79.6461959 31.2310189,78.5817753 C31.2310189,77.5173547 30.3694252,76.6534771 29.3035162,76.6534771 L18.8737987,76.6534771 C19.074259,62.6289646 24.2553864,48.6719425 34.4229635,37.6864279 Z" id="Shape"></path>
                <path d="M67.2452252,86.9225925 C67.4299613,87.2805104 67.7205357,87.5710781 68.0784618,87.7558099 L103.195629,105.788328 C103.474657,105.930726 103.776778,106 104.07505,106 C104.573452,106 105.066082,105.805647 105.435554,105.436183 C106.028248,104.845426 106.168725,103.94101 105.787707,103.19631 L87.7566991,68.0780241 C87.5719631,67.7201062 87.2813886,67.4295385 86.9234626,67.2448066 L51.8043709,49.2122884 C51.0635024,48.8312791 50.1571412,48.9717522 49.5644464,49.5644334 C48.9717516,50.1551904 48.8312752,51.0596065 49.2122933,51.8043066 L67.2452252,86.9225925 Z M84.6123377,70.3871716 L99.6279142,99.628677 L70.3876623,84.6134449 L55.3701614,55.3719396 L84.6123377,70.3871716 Z" id="Shape"></path>
            </g>
        </g>
    </g>
</svg>