
<svg width="342px" height="308px" viewBox="0 0 342 308" version="1.1" xmlns="http://www.w3.org/2000/svg" xmlns:xlink="http://www.w3.org/1999/xlink">
    <!-- Generator: Sketch 49.3 (51167) - http://www.bohemiancoding.com/sketch -->
    <desc>Created with Sketch.</desc>
    <defs></defs>
    <g id="Page-1" stroke="none" stroke-width="1" fill="none" fill-rule="evenodd">
        <g id="KittyCash-FAQ" transform="translate(-547.000000, -289.000000)">
            <g id="Group" transform="translate(547.000000, 289.000000)">
                <g>
                    <path d="M263.346159,42.274607 C211.515074,-6.51557179 70.7124587,-48.0469061 9.31184411,128.198117 C-52.0887705,304.443141 206.815039,356.553735 298.778512,260.31226 C390.741984,164.070785 315.177244,91.0647858 263.346159,42.274607 Z" id="Path-4" fill="#FF9891"></path>
                    <path d="M158,120 C143.663,120 132,108.337 132,94 C132,79.663 143.663,68 158,68 C172.337,68 184,79.663 184,94 C184,95.104 184.895,96 186,96 C187.105,96 188,95.104 188,94 C188,77.458 174.542,64 158,64 C141.458,64 128,77.458 128,94 C128,110.542 141.458,124 158,124 C159.104,124 160,123.105 160,122 C160,120.895 159.104,120 158,120 Z M158,78 C153.471,78 148.625,81.036 148.008,87.819 L151.992,88.18 C152.526,82.298 157.091,82 158,82 C159.407,82 164,82.369 164,87.125 C164,89.634 162.411,90.854 160.227,92.635 C158.232,94.261 155.5,96.285 155.5,100 L155.5,102 L159.5,102 L159.5,100 C159.5,98.269 160.836,97.299 162.754,95.734 C164.981,93.92 167.875,91.661 167.875,87.125 C167.875,81.667 163.981,78 158,78 Z M155.5,110 L159.5,110 L159.5,106 L155.5,106 L155.5,110 Z M210,102 L174,102 C169.589,102 165.5,105.589 165.5,110 L165.5,144 C165.5,148.412 169.589,152 174,152 L185,152 L190.4,159.199 C190.777,159.703 191.371,160 192,160 C192.629,160 193.223,159.703 193.6,159.199 L199,152 L210,152 C214.412,152 217.5,148.412 217.5,144 L217.5,110 C217.5,105.589 214.412,102 210,102 Z M213.5,144 C213.5,146.205 212.205,148 210,148 L198,148 C197.371,148 196.777,148.297 196.4,148.801 L192,154.666 L187.6,148.801 C187.223,148.297 186.629,148 186,148 L174,148 C171.794,148 169.5,146.205 169.5,144 L169.5,110 C169.5,107.794 171.794,106 174,106 L210,106 C212.205,106 213.5,107.794 213.5,110 L213.5,144 Z M189.5,134 L193.5,134 L193.5,114 L189.5,114 L189.5,134 Z M189.5,142 L193.5,142 L193.5,138 L189.5,138 L189.5,142 Z" id="Shape" fill="#000000" fill-rule="nonzero"></path>
                </g>
            </g>
        </g>
    </g>
</svg>