
<svg width="49px" height="49px" viewBox="0 0 49 49" version="1.1" xmlns="http://www.w3.org/2000/svg" xmlns:xlink="http://www.w3.org/1999/xlink">
    <!-- Generator: Sketch 49.1 (51147) - http://www.bohemiancoding.com/sketch -->
    <desc>Created with Sketch.</desc>
    <defs></defs>
    <g id="Page-1" stroke="none" stroke-width="1" fill="none" fill-rule="evenodd">
        <g id="KittyCash-Landing-Page" transform="translate(-1063.000000, -3210.000000)" fill-rule="nonzero">
            <g id="F_icon" transform="translate(1063.000000, 3210.000000)">
                <path d="M42.9146148,49 C46.0594823,49 49,46.0273197 49,40.8240507 L49,7.3279569 C49,3.42530898 46.454846,0 42.9146148,0 C41.0647395,0 39.9131642,0 39.4598889,0 C30.2261992,0 19.6298237,0 7.67076236,0 C2.81618212,0 0,2.26314357 0,7.86412974 L0,40.8240507 C0,46.0437932 3.24606173,49 7.67076236,49 L42.9146148,49 Z" id="Blue_1_" fill="#3C5A99"></path>
                <path d="M34.2799986,49 L34.2799986,29.8417651 L40.7662249,29.8417651 L41.7374452,22.375461 L34.2799986,22.375461 L34.2799986,17.6086976 C34.2799986,15.4470303 34.8854623,13.9739254 38.0121103,13.9739254 L42,13.9721977 L42,7.29427546 C41.3103096,7.20328618 38.9430568,7 36.1889423,7 C30.4392635,7 26.502878,10.4794762 26.502878,16.8692658 L26.502878,22.375461 L20,22.375461 L20,29.8417651 L26.502878,29.8417651 L26.502878,49 L34.2799986,49 Z" id="f" fill="#FFFFFF"></path>
            </g>
        </g>
    </g>
</svg>