
<svg width="58px" height="42px" viewBox="0 0 58 42" version="1.1" xmlns="http://www.w3.org/2000/svg" xmlns:xlink="http://www.w3.org/1999/xlink">
    <!-- Generator: Sketch 49.1 (51147) - http://www.bohemiancoding.com/sketch -->
    <desc>Created with Sketch.</desc>
    <defs></defs>
    <g id="Page-1" stroke="none" stroke-width="1" fill="none" fill-rule="evenodd">
        <g id="KittyCash-Landing-Page" transform="translate(-181.000000, -1320.000000)" fill="#FC7971" fill-rule="nonzero">
            <path d="M238.159225,1339.09091 C236.163226,1336.36364 230.719592,1329.63636 220.558143,1327.63636 C214.025783,1320.18182 206.223242,1320 204.771606,1320 C203.864334,1320 203.138516,1320.54545 202.957062,1321.27273 C201.868335,1324.18182 202.775607,1327.09091 203.501425,1329.09091 C199.509427,1330.72727 196.606156,1333.09091 194.428703,1335.27273 C192.069795,1332.72727 188.077797,1329.27273 182.634164,1329.63636 L181.001074,1329.81818 L181.001074,1331.45455 C181.001074,1332.18182 180.819619,1338.18182 185.174526,1342.18182 C180.819619,1346.18182 181.001074,1352.18182 181.001074,1353.09091 L181.182528,1354.72727 L182.634164,1354.90909 C188.62216,1355.45455 193.158522,1350.90909 195.154521,1348.18182 C197.876337,1350.72727 201.868335,1353.63636 207.311969,1355.09091 L205.678879,1359.09091 C205.31597,1359.81818 205.497424,1360.54545 205.860333,1361.09091 C206.223242,1361.63636 206.94906,1362 207.674877,1362 C214.207238,1362 217.473418,1358 218.743599,1356 C230.538138,1354.72727 236.34468,1347.45455 238.340679,1344 C239.247951,1342.54545 239.247951,1340.54545 238.159225,1339.09091 Z M235.255953,1342 C233.441409,1345.09091 227.634867,1352.36364 215.477419,1352.36364 L214.933055,1352.36364 C213.844329,1352.36364 213.118511,1353.09091 213.118511,1354.18182 C213.118511,1354.90909 213.48142,1355.45455 214.025783,1355.81818 C213.118511,1356.72727 211.84833,1357.45455 210.033785,1358 L211.303966,1354.90909 C211.485421,1354.36364 211.485421,1353.63636 211.303966,1353.09091 C210.941057,1352.54545 210.396694,1352.18182 209.852331,1352 C203.319971,1350.72727 198.965064,1347.09091 196.424702,1344.36364 C196.061793,1343.81818 195.335975,1343.63636 194.791612,1343.63636 L193.702885,1343.81818 L193.158522,1344.54545 C192.432704,1345.63636 189.347978,1350.36364 184.630163,1351.09091 C184.993072,1349.09091 185.900344,1345.63636 188.985069,1344 L189.892342,1343.45455 L189.892342,1341.27273 L188.985069,1340.72727 C185.900344,1338.90909 184.811617,1335.63636 184.630163,1333.45455 C188.62216,1334 191.706886,1337.63636 192.795613,1339.27273 C192.795613,1339.27273 192.977067,1339.45455 192.977067,1339.45455 C192.977067,1339.45455 193.158522,1339.63636 193.158522,1339.63636 C193.158522,1339.63636 193.158522,1339.63636 193.158522,1339.63636 C193.158522,1339.63636 193.339976,1339.63636 193.339976,1339.81818 C193.521431,1339.81818 193.521431,1340 193.702885,1340 C193.702885,1340 193.884339,1340 193.884339,1340 C193.884339,1340 194.065794,1340 194.065794,1340 C194.065794,1340 194.247248,1340 194.247248,1340 C194.428703,1340 194.610157,1340 194.610157,1339.81818 C194.791612,1339.81818 194.791612,1339.81818 194.973066,1339.63636 C194.973066,1339.63636 195.154521,1339.63636 195.154521,1339.63636 C195.335975,1339.63636 195.335975,1339.45455 195.335975,1339.45455 C195.335975,1339.45455 195.517429,1339.45455 195.517429,1339.27273 C197.694883,1336.36364 201.868335,1332.54545 208.763604,1331.27273 C209.670876,1331.09091 210.396694,1330.18182 210.21524,1329.09091 C210.033785,1328.18182 209.126513,1327.45455 208.037786,1327.63636 C207.493423,1327.81818 207.130514,1327.81818 206.586151,1328 C206.223242,1326.90909 205.678879,1325.27273 205.860333,1323.63636 C208.219241,1323.81818 213.48142,1325.09091 218.017781,1330.36364 C218.38069,1330.72727 218.925053,1331.09091 219.287962,1331.09091 C228.360684,1332.72727 233.259954,1338.72727 235.074499,1341.09091 C235.437408,1341.45455 235.437408,1341.81818 235.255953,1342 Z" id="Shape"></path>
        </g>
    </g>
</svg>