
<svg width="400px" height="322px" viewBox="0 0 400 322" version="1.1" xmlns="http://www.w3.org/2000/svg" xmlns:xlink="http://www.w3.org/1999/xlink">
    <!-- Generator: Sketch 49.1 (51147) - http://www.bohemiancoding.com/sketch -->
    <desc>Created with Sketch.</desc>
    <defs></defs>
    <g id="Page-1" stroke="none" stroke-width="1" fill="none" fill-rule="evenodd">
        <g id="KittyCash-Roadmap" transform="translate(-523.000000, -257.000000)">
            <path d="M875.169969,325.595703 C816.947459,278.926629 668.038472,182.366646 552.499986,359.086337 C436.9615,535.806029 688.842277,626.293193 824.723477,554.019 C960.604678,481.744807 933.392479,372.264778 875.169969,325.595703 Z" id="Path-4" fill="#FF9891"></path>
            <g id="Group" transform="translate(676.000000, 332.000000)" fill="#000000" fill-rule="nonzero">
                <path d="M65.73,11.859 L43.999,1.607 L23.974,11.859 L0.75,1.039 L0.75,73.797 L24.026,84.641 L44.044,74.393 L65.77,84.642 L87.25,73.769 L87.25,0.966 L65.73,11.859 Z M84.75,20.641 C84.023,20.077 83.081,19.115 82.259,17.641 C81.078,15.525 79.954,13.885 79.195,12.846 L84.751,10.034 L84.751,20.641 L84.75,20.641 Z M84.75,57.633 C84.4,57.78 84.057,57.918 83.727,58.037 L84.575,60.389 C84.633,60.368 84.693,60.342 84.751,60.321 L84.751,67.232 L75.777,71.774 L75.747,70.772 C74.566,70.803 73.312,70.719 72.001,70.507 L71.601,72.976 C72.091,73.055 72.572,73.107 73.05,73.155 L67,76.216 L67,71.835 C67.18,71.893 67.366,71.963 67.544,72.017 L68.273,69.626 C67.857,69.499 67.428,69.349 67,69.2 L67,19.019 L76.932,13.992 C77.625,14.918 78.825,16.619 80.076,18.86 C81.444,21.31 83.292,22.943 84.751,23.516 L84.751,57.633 L84.75,57.633 Z M3.25,17.432 C3.777,17.324 4.424,17.276 4.858,17.51 C5.045,17.611 5.309,17.823 5.439,18.489 C5.896,20.829 5.77,22.044 5.595,23.725 C5.531,24.341 5.463,24.997 5.418,25.759 C5.358,26.781 4.3,27.823 3.25,28.599 L3.25,17.432 Z M3.25,61.893 C3.855,62.113 4.59,62.358 5.431,62.593 L6.106,60.187 C4.866,59.839 3.874,59.469 3.251,59.216 L3.251,44.527 C3.363,44.259 3.595,43.736 3.954,43.075 L3.251,42.694 L3.251,31.584 C4.702,30.759 7.751,28.703 7.916,25.906 C7.958,25.186 8.023,24.566 8.083,23.984 C8.265,22.231 8.422,20.717 7.895,18.011 C7.587,16.432 6.714,15.668 6.037,15.304 C5.125,14.815 4.099,14.789 3.252,14.9 L3.252,9.961 L22.752,19.047 L22.752,76.289 L3.252,67.204 L3.252,61.893 L3.25,61.893 Z M25.25,28.979 C25.959,28.906 26.959,28.787 28.182,28.594 L27.792,26.124 C26.759,26.287 25.902,26.393 25.25,26.464 L25.25,19.014 L42.771,10.043 L42.771,21.715 L42.708,21.588 C41.579,22.141 40.378,22.663 39.139,23.139 L40.035,25.473 C40.975,25.112 41.883,24.718 42.77,24.312 L42.77,67.236 L25.249,76.206 L25.249,28.979 L25.25,28.979 Z M45.271,59.198 C45.593,59.459 45.939,59.736 46.326,60.04 L47.871,58.073 C46.664,57.126 45.767,56.373 45.271,55.948 L45.271,9.972 L52.985,13.611 C52.659,14.03 52.317,14.442 51.958,14.841 L53.817,16.511 C54.341,15.927 54.825,15.316 55.286,14.696 L64.5,19.042 L64.5,68.609 L63.665,70.609 C63.946,70.726 64.221,70.825 64.5,70.935 L64.5,76.278 L45.271,67.208 L45.271,59.198 Z M64.5,16.278 L45.271,7.207 L45.271,4.971 L64.5,14.041 L64.5,16.278 Z M42.771,7.236 L25.25,16.206 L25.25,14.015 L42.771,5.044 L42.771,7.236 Z M25.25,79.014 L42.771,70.044 L42.771,72.236 L25.25,81.206 L25.25,79.014 Z M45.271,69.972 L64.5,79.043 L64.5,81.278 L45.271,72.208 L45.271,69.972 Z M84.75,7.232 L67,16.216 L67,14.018 L84.75,5.033 L84.75,7.232 Z M22.75,14.047 L22.75,16.289 L3.25,7.204 L3.25,4.962 L22.75,14.047 Z M3.25,69.961 L22.75,79.046 L22.75,81.289 L3.25,72.203 L3.25,69.961 Z M67,81.216 L67,79.019 L84.75,70.034 L84.75,72.232 L67,81.216 Z" id="Shape"></path>
                <path d="M77.172,57.812 L75.499,59.669 C76.694,60.745 78.224,61.291 80.055,61.291 L80.044,58.791 C78.844,58.791 77.904,58.471 77.172,57.812 Z" id="Shape"></path>
                <path d="M75.189,51.254 L72.689,51.264 C72.696,52.88 72.865,54.331 73.192,55.579 L75.61,54.944 C75.337,53.9 75.195,52.659 75.189,51.254 Z" id="Shape"></path>
                <path d="M29.617,48.903 L29.131,51.356 C29.649,51.459 30.194,51.51 30.751,51.51 C31.675,51.51 32.666,51.365 33.696,51.08 L33.029,48.67 C31.756,49.023 30.609,49.101 29.617,48.903 Z" id="Shape"></path>
                <path d="M39.782,45.177 C39.361,45.477 38.922,45.773 38.466,46.065 C37.788,46.499 37.124,46.889 36.494,47.226 L37.674,49.431 C38.361,49.063 39.081,48.639 39.813,48.171 C40.305,47.857 40.779,47.537 41.234,47.212 L39.782,45.177 Z" id="Shape"></path>
                <path d="M72.989,47.061 L75.466,47.403 C75.641,46.136 75.892,44.846 76.21,43.57 L73.784,42.965 C73.444,44.327 73.177,45.705 72.989,47.061 Z" id="Shape"></path>
                <path d="M22.46,40.942 C21.81,39.817 21.021,38.517 20.103,37.409 L18.178,39.005 C18.978,39.97 19.697,41.158 20.295,42.193 L22.46,40.942 Z" id="Shape"></path>
                <path d="M8.845,37.638 L7.578,35.483 C6.375,36.19 5.24,37.15 4.201,38.337 L6.083,39.983 C6.944,38.998 7.874,38.209 8.845,37.638 Z" id="Shape"></path>
                <path d="M75.689,36.083 C75.689,36.874 75.475,37.817 75.036,38.967 L77.372,39.86 C77.922,38.421 78.189,37.185 78.189,36.084 C78.189,35.825 78.174,35.573 78.145,35.329 L75.663,35.625 C75.681,35.772 75.689,35.925 75.689,36.083 Z" id="Shape"></path>
                <path d="M51.691,34.332 L49.423,33.28 C48.833,34.552 48.238,35.682 47.606,36.735 L49.749,38.023 C50.429,36.894 51.063,35.686 51.691,34.332 Z" id="Shape"></path>
                <path d="M12.931,34.004 C12.581,34.009 12.229,34.022 11.89,34.055 L12.139,36.542 C12.391,36.517 12.65,36.503 12.917,36.503 C13.502,36.453 14.126,36.567 14.747,36.695 C15.015,36.75 15.279,36.829 15.531,36.928 L16.445,34.601 C16.061,34.451 15.661,34.331 15.254,34.247 C14.47,34.086 13.688,34.004 12.931,34.004 Z" id="Shape"></path>
                <path d="M75.701,31.15 C74.843,30.421 73.701,29.678 72.105,28.813 L70.914,31.01 C72.352,31.791 73.359,32.44 74.082,33.054 L75.701,31.15 Z" id="Shape"></path>
                <path d="M54.901,27.033 L52.729,25.797 C52.135,26.839 51.632,28.038 50.987,29.617 L53.301,30.563 C53.911,29.071 54.383,27.945 54.901,27.033 Z" id="Shape"></path>
                <path d="M57.584,25.016 C58.301,24.977 59.146,25.235 60.173,25.671 L61.15,23.369 C59.792,22.793 58.6,22.486 57.583,22.515 C57.202,22.515 56.831,22.554 56.479,22.631 L57.012,25.073 C57.188,25.036 57.38,25.016 57.584,25.016 Z" id="Shape"></path>
                <path d="M17.181,60.379 L18,62.742 C19.412,62.253 20.711,61.554 21.861,60.665 L20.333,58.686 C19.396,59.41 18.336,59.979 17.181,60.379 Z" id="Shape"></path>
                <path d="M9.843,60.953 L9.529,63.433 C10.517,63.558 11.489,63.621 12.418,63.621 C12.863,63.621 13.312,63.606 13.762,63.576 L13.595,61.082 C12.364,61.164 11.145,61.118 9.843,60.953 Z" id="Shape"></path>
                <path d="M36.156,26.792 L35.44,24.396 C34.214,24.762 32.939,25.095 31.648,25.386 L32.198,27.824 C33.543,27.522 34.875,27.174 36.156,26.792 Z" id="Shape"></path>
                <path d="M49.203,17.469 C48.249,18.255 47.201,19.009 46.089,19.71 L47.421,21.825 C48.623,21.068 49.758,20.252 50.793,19.399 L49.203,17.469 Z" id="Shape"></path>
                <path d="M49.573,62.479 C50.682,63.278 51.808,64.051 52.919,64.78 L54.29,62.688 C53.209,61.98 52.113,61.227 51.032,60.45 L49.573,62.479 Z" id="Shape"></path>
                <path d="M56.374,66.927 C57.574,67.631 58.777,68.29 59.949,68.886 L61.082,66.657 C59.954,66.084 58.796,65.449 57.638,64.77 L56.374,66.927 Z" id="Shape"></path>
                <path d="M31.848,43.107 C32.387,43.389 33.004,43.532 33.684,43.532 C35.159,43.532 36.945,42.866 38.993,41.552 C40.016,40.896 40.218,40.088 40.206,39.525 C40.174,37.896 38.372,36.533 35.058,34.588 C34.165,34.065 33.295,33.799 32.471,33.799 C30.246,33.799 29.022,35.664 28.649,36.765 L28.583,36.96 L28.583,38.192 L28.641,38.376 C28.834,38.987 29.896,42.087 31.848,43.107 Z M31.083,37.413 C31.245,37.066 31.69,36.3 32.471,36.3 C32.845,36.3 33.289,36.45 33.792,36.745 C36.386,38.267 37.328,39.056 37.618,39.464 C35.584,40.764 33.806,41.313 33.005,40.892 C32.276,40.511 31.459,38.887 31.082,37.798 L31.082,37.413 L31.083,37.413 Z" id="Shape"></path>
                <path d="M59.583,47.191 C59.583,45.587 58.516,41.982 55.217,41.076 C54.947,41.002 54.683,40.965 54.432,40.965 C52.39,40.965 51.951,43.04 51.66,44.413 C51.546,44.953 51.333,45.958 51.117,46.117 C50.381,46.293 49.83,46.759 49.565,47.429 C48.941,49.013 50.202,51.373 50.955,52.568 C51.05,53.86 51.561,57.84 54.308,59.275 C55.074,59.675 55.87,59.879 56.674,59.879 C59.423,59.879 61.418,57.617 61.418,54.501 C61.418,52.167 60.637,50.129 60.066,48.642 C59.854,48.091 59.593,47.406 59.583,47.191 Z M56.673,57.378 C56.276,57.378 55.869,57.271 55.465,57.06 C53.92,56.252 53.469,53.149 53.433,52.127 L53.422,51.773 L53.226,51.477 C52.524,50.417 51.932,49.077 51.889,48.496 C53.456,47.996 53.829,46.233 54.105,44.933 C54.202,44.481 54.355,43.753 54.515,43.479 C54.527,43.482 54.54,43.485 54.555,43.489 C56.461,44.012 57.083,46.422 57.083,47.193 C57.083,47.845 57.354,48.555 57.731,49.537 C58.259,50.915 58.917,52.631 58.917,54.502 C58.917,56.194 57.994,57.378 56.673,57.378 Z" id="Shape"></path>
                <path d="M12.25,52.235 C11.561,52.023 10.52,51.702 10.25,51.5 C9.846,51.196 9.353,51.036 8.824,51.036 C6.98,51.036 4.974,53.068 4.59,53.476 L4.326,53.756 L4.265,54.137 C4.118,55.068 4.34,55.91 4.908,56.575 C5.929,57.769 7.762,58.02 9.121,58.02 C11.037,58.02 13.13,57.541 14.585,56.771 C15.596,56.236 16.07,55.557 15.994,54.753 C15.862,53.349 14.188,52.833 12.25,52.235 Z M9.121,55.521 C7.773,55.521 7.033,55.214 6.808,54.952 C6.79,54.931 6.766,54.902 6.748,54.854 C7.467,54.178 8.393,53.532 8.75,53.5 C9.367,53.963 10.362,54.27 11.514,54.625 C11.803,54.714 12.169,54.826 12.522,54.945 C11.505,55.3 10.245,55.521 9.121,55.521 Z" id="Shape"></path>
            </g>
        </g>
    </g>
</svg>